<?xml version="1.0" encoding="iso-8859-1"?>
<!-- Generator: Adobe Illustrator 24.0.1, SVG Export Plug-In . SVG Version: 6.00 Build 0)  -->
<svg version="1.1" xmlns="http://www.w3.org/2000/svg" xmlns:xlink="http://www.w3.org/1999/xlink" x="0px" y="0px"
	 viewBox="0 0 1280 600" style="enable-background:new 0 0 1280 600;" xml:space="preserve">
<g id="&#xB808;&#xC774;&#xC5B4;_1" style="display:none;">
	
		<image style="display:inline;overflow:visible;" width="724" height="600" xlink:href="../../&#x1102;&#x1166;&#x110B;&#x1175;&#x1107;&#x1165; MYBOX/&#x110C;&#x1169;&#x11BC;&#x1105;&#x1169; &#x110B;&#x1175;&#x110C;&#x1166;&#x11AB; Publishing/pfjjy_PR/pfjjy_nextjs/pfjjy/public/contact_left/001.png" >
	</image>
	
		<image style="display:inline;overflow:visible;" width="772" height="598" xlink:href="../../&#x1102;&#x1166;&#x110B;&#x1175;&#x1107;&#x1165; MYBOX/&#x110C;&#x1169;&#x11BC;&#x1105;&#x1169; &#x110B;&#x1175;&#x110C;&#x1166;&#x11AB; Publishing/pfjjy_PR/pfjjy_nextjs/pfjjy/public/contact_right/001.png"  transform="matrix(1 0 0 1 508 1)">
	</image>
</g>
<g id="&#xB808;&#xC774;&#xC5B4;_2">
	<path style="fill:none;stroke:#000000;stroke-width:3;stroke-miterlimit:10;" d="M-0.094,300.02
		c2.986,11.625,8.073,23.485,14.636,33.534c6.729,10.303,17.005,18.551,20.814,30.252c2.147,6.594,2.009,13.683,1.85,20.616
		c-0.154,6.721-0.308,13.442-0.463,20.163c-0.133,5.815-0.342,11.911-3.254,16.947c-2.138,3.697-7.907,6.358-10.327,2.839
		c-1.111-1.615-0.858-3.763-0.628-5.71c0.765-6.478,0.76-13.024,0.478-19.54c-0.296-6.844-0.98-13.952-4.504-19.827
		c-2.376-3.96-5.892-7.094-8.699-10.762c-2.807-3.667-4.959-8.32-3.91-12.817c-2.337,9.67,2.243,19.464,4.828,29.071
		c5.326,19.791,2.176,40.817-2.204,60.839c-0.823,3.763-1.723,7.601-3.803,10.843c-2.079,3.242-5.593,5.825-9.444,5.751"/>
	<path style="fill:none;stroke:#000000;stroke-width:3;stroke-miterlimit:10;" d="M1281.116,372.364
		c-24.8,1.508-49.7,1.385-74.484-0.369c-4.555-0.322-9.633-0.54-13.117,2.411c-3.8,3.219-4.146,8.855-4.201,13.835
		c-0.013,1.16-0.005,2.394,0.62,3.371c1.012,1.58,3.171,1.853,5.045,1.951c29.868,1.559,60.21-1.167,89.421,5.258"/>
</g>
</svg>
