<?xml version="1.0" encoding="iso-8859-1"?>
<!-- Generator: Adobe Illustrator 24.0.1, SVG Export Plug-In . SVG Version: 6.00 Build 0)  -->
<svg version="1.1" xmlns="http://www.w3.org/2000/svg" xmlns:xlink="http://www.w3.org/1999/xlink" x="0px" y="0px"
	 viewBox="0 0 1280 600" style="enable-background:new 0 0 1280 600;" xml:space="preserve">
<g id="&#xB808;&#xC774;&#xC5B4;_1" style="display:none;">
	
		<image style="display:inline;overflow:visible;" width="724" height="600" xlink:href="../../&#x1102;&#x1166;&#x110B;&#x1175;&#x1107;&#x1165; MYBOX/&#x110C;&#x1169;&#x11BC;&#x1105;&#x1169; &#x110B;&#x1175;&#x110C;&#x1166;&#x11AB; Publishing/pfjjy_PR/pfjjy_nextjs/pfjjy/public/contact_left/002.png" >
	</image>
	
		<image style="display:inline;overflow:visible;" width="772" height="598" xlink:href="../../&#x1102;&#x1166;&#x110B;&#x1175;&#x1107;&#x1165; MYBOX/&#x110C;&#x1169;&#x11BC;&#x1105;&#x1169; &#x110B;&#x1175;&#x110C;&#x1166;&#x11AB; Publishing/pfjjy_PR/pfjjy_nextjs/pfjjy/public/contact_right/002.png"  transform="matrix(1 0 0 1 508 1)">
	</image>
</g>
<g id="&#xB808;&#xC774;&#xC5B4;_2">
	<path style="fill:none;stroke:#000000;stroke-width:3;stroke-miterlimit:10;" d="M-3.506,243.884
		c8.409,16.741,27.246,26.824,34.092,44.263c1.737,4.424,2.617,9.155,4.467,13.532c2.876,6.804,7.929,12.403,12.382,18.296
		c18.23,24.12,26.999,54.565,27.949,84.785c0.09,2.863,0.097,5.82-0.993,8.469s-3.547,4.937-6.411,4.962
		c-3.212,0.028-5.796-2.669-7.347-5.482c-7.698-13.963,0.062-33.228-9.056-46.307c-3.569-5.119-9.668-9.293-9.731-15.533
		c9.611,24.02,13.069,50.474,9.955,76.157c-1.101,9.083-3.222,18.513-9.25,25.397c-2.684,3.065-6.475,5.626-10.532,5.244
		c-8.681-0.819-5.636-8.468-3.28-13.146c4.845-9.619,4.123-20.98,3.286-31.718c-1.273-16.334-2.545-32.667-3.818-49.001"/>
</g>
<g id="&#xB808;&#xC774;&#xC5B4;_3">
	<path style="fill:none;stroke:#000000;stroke-width:3;stroke-miterlimit:10;" d="M0.254,396.913
		c1.251,12.801,2.202,25.63,2.853,38.476c0.315,6.209,0.429,12.905-3.061,18.049c-1.701,2.506-4.317,4.946-3.866,7.941
		c0.68,4.505,7.126,4.94,11.4,3.36c8.514-3.148,15.759-9.598,19.872-17.691c4.879-9.601,5.275-20.796,5.155-31.565
		c-0.191-17.084-1.43-34.156-3.706-51.088"/>
</g>
<g id="&#xB808;&#xC774;&#xC5B4;_4">
	<path style="fill:none;stroke:#000000;stroke-width:3;stroke-miterlimit:10;" d="M1277.975,325.975
		c-20.564,9.58-38.867,23.975-53.024,41.702c-1.214,1.521-2.463,3.118-4.218,3.959c-1.787,0.856-3.856,0.811-5.836,0.739
		c-33.543-1.213-67.882-4.859-100.102,4.549c-2.026,0.591-4.1,1.268-5.686,2.66c-4.816,4.227-2.245,12.846,3.199,16.225
		s12.303,3.1,18.704,2.819c26.625-1.171,53.333-0.469,79.86,2.099c3.391,0.328,7.522,1.285,8.403,4.575
		c0.676,2.523-1.035,5.08-1.031,7.692c0.008,4.476,4.907,7.381,9.345,7.964c4.438,0.583,9.109-0.16,13.298,1.418
		c6.911,2.603,12.028,11.202,19.247,9.647c1.839-0.396,3.598-1.475,5.463-1.227c1.246,0.165,2.33,0.905,3.362,1.624
		c3.335,2.323,11.67,9.647,15.006,11.97c0.595,0.414,1.268,0.057,1.014,0.735s-6.575-4.168-5.905-4.444"/>
</g>
<g id="&#xB808;&#xC774;&#xC5B4;_5">
	<path style="fill:none;stroke:#000000;stroke-width:3;stroke-miterlimit:10;" d="M1263.701,345.596
		c-2.087,4.337-5.252,8.049-8.381,11.706c-8.51,9.945-17.02,19.89-25.53,29.834c-3.247,3.794-6.712,8.353-5.749,13.253
		c0.141,0.717,0.393,1.441,0.906,1.962c0.558,0.567,1.353,0.824,2.127,1.007c7.708,1.824,15.549-1.785,22.649-5.297
		c4.802-2.376,9.629-4.766,13.98-7.892c5.565-3.998,10.797-9.378,17.619-10.018"/>
</g>
<g id="&#xB808;&#xC774;&#xC5B4;_6">
	<path style="fill:none;stroke:#000000;stroke-width:3;stroke-miterlimit:10;" d="M1221.058,372.189
		c7.394-0.385,14.774-1.054,22.117-2.007"/>
	<path style="fill:none;stroke:#000000;stroke-width:3;stroke-miterlimit:10;" d="M1260.76,391.895
		c2.697-0.223,5.393-0.447,8.089-0.67c1.354-0.112,2.803-0.205,3.984,0.468c1.554,0.886,2.159,2.826,2.303,4.61
		c0.256,3.173-0.514,6.33-1.278,9.421c-2.131,8.621-4.261,17.243-6.392,25.864"/>
</g>
<g id="&#xB808;&#xC774;&#xC5B4;_7">
	<path style="fill:none;stroke:#000000;stroke-width:3;stroke-miterlimit:10;" d="M1216.11,401.573
		c3.027,0.35,6.054,0.701,9.08,1.051"/>
</g>
</svg>
