<?xml version="1.0" encoding="iso-8859-1"?>
<!-- Generator: Adobe Illustrator 24.0.1, SVG Export Plug-In . SVG Version: 6.00 Build 0)  -->
<svg version="1.1" xmlns="http://www.w3.org/2000/svg" xmlns:xlink="http://www.w3.org/1999/xlink" x="0px" y="0px"
	 viewBox="0 0 1280 600" style="enable-background:new 0 0 1280 600;" xml:space="preserve">
<g id="&#xB808;&#xC774;&#xC5B4;_1" style="display:none;">
	
		<image style="display:inline;overflow:visible;" width="724" height="600" xlink:href="../../&#x1102;&#x1166;&#x110B;&#x1175;&#x1107;&#x1165; MYBOX/&#x110C;&#x1169;&#x11BC;&#x1105;&#x1169; &#x110B;&#x1175;&#x110C;&#x1166;&#x11AB; Publishing/pfjjy_PR/pfjjy_nextjs/pfjjy/public/contact_left/003.png" >
	</image>
	
		<image style="display:inline;overflow:visible;" width="772" height="598" xlink:href="../../&#x1102;&#x1166;&#x110B;&#x1175;&#x1107;&#x1165; MYBOX/&#x110C;&#x1169;&#x11BC;&#x1105;&#x1169; &#x110B;&#x1175;&#x110C;&#x1166;&#x11AB; Publishing/pfjjy_PR/pfjjy_nextjs/pfjjy/public/contact_right/003.png"  transform="matrix(1 0 0 1 508 1)">
	</image>
</g>
<g id="&#xB808;&#xC774;&#xC5B4;_2">
	<path style="fill:none;stroke:#000000;stroke-width:3;stroke-miterlimit:10;" d="M60.49,367.688
		c4.366,17.077,5.771,34.906,4.135,52.456c-0.563,6.035-1.489,12.068-3.365,17.832c-1.638,5.032,4.114,11.912,9.375,12.532
		c3.994,0.471,7.8-2.363,9.691-5.913c1.891-3.55,2.26-7.69,2.507-11.704c1.945-31.579-1.441-63.48-9.971-93.947
		c3.642,2.766,7.389,5.651,9.598,9.655c1.495,2.709,2.192,5.774,2.873,8.792c2.968,13.16,5.936,26.32,8.904,39.48
		c0.374,1.66,0.78,3.386,1.862,4.7c2.317,2.815,7.028,2.532,9.837,0.207c2.809-2.324,4.053-6.042,4.636-9.641
		c2.655-16.382-5.611-32.344-13.608-46.886c-4.586-8.339-9.172-16.678-13.759-25.018c-5.75-10.454-11.499-20.909-17.249-31.363
		c-4.23-7.692-8.469-15.397-13.428-22.641c-7.409-10.823-16.46-20.68-21.824-32.65c-4.721-10.536-6.332-22.157-7.892-33.596
		C17.559,161.45,5.806,124.297-4.934,86.92"/>
</g>
<g id="&#xB808;&#xC774;&#xC5B4;_3">
	<path style="fill:none;stroke:#000000;stroke-width:3;stroke-miterlimit:10;" d="M-0.351,396.2
		c6.757,20.026,8.451,41.739,4.883,62.571c-0.13,0.758-0.247,1.61,0.199,2.236c0.349,0.491,0.959,0.712,1.538,0.879
		c8.5,2.443,18.441-1.988,22.306-9.942c1.778-3.658,2.332-7.777,2.739-11.824c2.346-23.381,0.493-47.176-5.443-69.912
		c2.32,11.155,7.142,21.606,10.783,32.402c3.641,10.796,6.113,22.45,3.544,33.55c-1.719,7.429-5.673,14.673-4.578,22.219
		c0.125,0.859,0.335,1.75,0.912,2.399c1.282,1.443,3.62,1.021,5.411,0.302c10.611-4.263,17.856-14.647,20.915-25.665
		c3.059-11.019,2.489-22.7,1.319-34.075c-1.17-11.376-2.917-22.783-2.13-34.191"/>
</g>
<g id="&#xB808;&#xC774;&#xC5B4;_4">
	<path style="fill:none;stroke:#000000;stroke-width:3;stroke-miterlimit:10;" d="M1277.689,295.876
		c-3.396,5.392-6.793,10.785-10.189,16.177c-1.736,2.755-3.496,5.541-5.852,7.789c-7.518,7.174-19.144,7.366-28.626,11.618
		c-6.219,2.789-11.465,7.32-17.22,10.972c-6.707,4.256-14.141,7.339-20.559,12.02c-6.418,4.681-11.942,11.521-12.347,19.454"/>
	<path style="fill:none;stroke:#000000;stroke-width:3;stroke-miterlimit:10;" d="M1178.039,401.067
		c3.234,0.95,4.864,5.343,3.032,8.173c-1.058,1.634-3.094,3.256-2.306,5.036c0.386,0.873,1.341,1.323,2.225,1.684
		c7.558,3.089,15.561,5.085,23.684,5.907c0.901,0.091,1.866,0.193,2.558,0.777c1.194,1.008,1,2.863,1.468,4.353
		c0.941,2.996,4.55,4.27,7.69,4.244c3.14-0.026,6.293-0.908,9.386-0.369c4.001,0.697,7.178,3.612,10.496,5.955
		c3.318,2.343,7.614,4.241,11.343,2.631c1.123-0.485,2.11-1.262,3.261-1.677c5.761-2.074,10.728,5.513,16.841,5.873
		c3.497,0.206,6.716-2.07,8.857-4.842c2.141-2.772,3.494-6.061,5.326-9.046"/>
</g>
<g id="&#xB808;&#xC774;&#xC5B4;_5">
	<path style="fill:none;stroke:#000000;stroke-width:3;stroke-miterlimit:10;" d="M1202.147,375.625
		c-41.02,0.284-82.026,2.58-122.822,6.876c-3.571,0.376-7.237,0.796-10.412,2.473c-3.175,1.677-5.787,4.92-5.641,8.507
		c0.142,3.485,2.859,6.455,6.038,7.891s6.764,1.621,10.251,1.684c6.187,0.112,12.375-0.085,18.56-0.283
		c31.251-0.999,62.502-1.999,93.753-2.998"/>
</g>
<g id="&#xB808;&#xC774;&#xC5B4;_6">
	<path style="fill:none;stroke:#000000;stroke-width:3;stroke-miterlimit:10;" d="M1221.655,349.349
		c-6.769,11.185-14.839,21.582-23.996,30.913c-2.671,2.722-5.467,5.394-7.413,8.674s-2.962,7.332-1.758,10.95
		c9.34,0.729,19.176,1.372,27.646-2.634c3.556-1.682,6.696-4.115,10.075-6.13c14.091-8.404,31.309-9.086,47.71-9.541"/>
</g>
<g id="&#xB808;&#xC774;&#xC5B4;_7">
	<path style="fill:none;stroke:#000000;stroke-width:3;stroke-miterlimit:10;" d="M1228.243,430.772
		c2.03-2.37,4.357-4.477,6.32-6.904c5.904-7.301,8.092-17.46,5.716-26.544c-0.197-0.755-0.449-1.543-1.033-2.061
		c-0.518-0.46-1.221-0.637-1.896-0.794c-5.038-1.17-8.148-2.027-13.292-2.565"/>
	<path style="fill:none;stroke:#000000;stroke-width:3;stroke-miterlimit:10;" d="M1253.485,437.267
		c1.822-18.541,3.645-37.082,5.467-55.623"/>
	<path style="fill:none;stroke:#000000;stroke-width:3;stroke-miterlimit:10;" d="M1260.245,437.966
		c5.089-1.287,8.222-6.508,9.456-11.61c1.233-5.103,1.137-10.479,2.627-15.512c1.292-4.364,3.771-8.477,3.865-13.027
		c0.143-6.88-5.102-11.563-10.165-16.223"/>
</g>
<g id="&#xB808;&#xC774;&#xC5B4;_8">
	<path style="fill:none;stroke:#000000;stroke-width:3;stroke-miterlimit:10;" d="M1274.225,404.819
		c2.198-1.744,4.991-2.724,7.797-2.736"/>
</g>
</svg>
