<?xml version="1.0" encoding="iso-8859-1"?>
<!-- Generator: Adobe Illustrator 24.0.1, SVG Export Plug-In . SVG Version: 6.00 Build 0)  -->
<svg version="1.1" xmlns="http://www.w3.org/2000/svg" xmlns:xlink="http://www.w3.org/1999/xlink" x="0px" y="0px"
	 viewBox="0 0 1280 600" style="enable-background:new 0 0 1280 600;" xml:space="preserve">
<g id="&#xB808;&#xC774;&#xC5B4;_1" style="display:none;">
	
		<image style="display:inline;overflow:visible;" width="724" height="600" xlink:href="../../&#x1102;&#x1166;&#x110B;&#x1175;&#x1107;&#x1165; MYBOX/&#x110C;&#x1169;&#x11BC;&#x1105;&#x1169; &#x110B;&#x1175;&#x110C;&#x1166;&#x11AB; Publishing/pfjjy_PR/pfjjy_nextjs/pfjjy/public/contact_left/004.png" >
	</image>
	
		<image style="display:inline;overflow:visible;" width="772" height="598" xlink:href="../../&#x1102;&#x1166;&#x110B;&#x1175;&#x1107;&#x1165; MYBOX/&#x110C;&#x1169;&#x11BC;&#x1105;&#x1169; &#x110B;&#x1175;&#x110C;&#x1166;&#x11AB; Publishing/pfjjy_PR/pfjjy_nextjs/pfjjy/public/contact_right/004.png"  transform="matrix(1 0 0 1 508 1)">
	</image>
</g>
<g id="&#xB808;&#xC774;&#xC5B4;_2">
	<path style="fill:none;stroke:#000000;stroke-width:3;stroke-miterlimit:10;" d="M-6.216,422.146
		c5.843,2.015,12.431-1.596,15.837-6.754s4.373-11.498,5.259-17.614c2.08-14.366,4.159-28.731,6.239-43.097
		c2.896,8.11,12.028,11.977,17.524,18.607c3.956,4.772,5.911,10.86,7.488,16.854c5.092,19.354,7.145,39.505,6.061,59.488
		c3.095,3.223,7.346,6.395,11.796,6.796c1.797,0.162,3.74,0.02,5.178-1.069c1.893-1.433,2.37-4.031,2.707-6.381
		c3.729-26.002,7.463-52.397,4.028-78.44c8.138,24.161,11.937,49.776,11.162,75.258c-0.132,4.348,1.051,10.317,5.4,10.259
		c2.313-0.031,4.101-2.004,5.352-3.95c3.398-5.284,5.121-11.458,6.465-17.596c5.883-26.873,5.284-55.141-1.732-81.741"/>
</g>
<g id="&#xB808;&#xC774;&#xC5B4;_3">
	<path style="fill:none;stroke:#000000;stroke-width:3;stroke-miterlimit:10;" d="M106.943,423.086
		c5.321,4.183,4.557,12.414,8.326,17.722c4.043,2.695,9.889,0.338,12.573-3.712c2.684-4.05,3.023-9.17,3.156-14.027
		c0.789-28.786-2.733-57.686-10.411-85.441c7.1,13.3,13.766,26.831,19.983,40.565c2.9,6.405,5.825,13.032,10.904,17.893
		c3.776-2.269,3.988-7.587,3.574-11.973c-2.484-26.3-11.479-51.96-25.96-74.055c-12.127-18.503-21.145-39.019-36.264-55.17
		c-8.684-9.277-18.429-17.966-24.076-29.349c-12.055-24.301-2.797-55.151-15.09-79.332c-11.102-21.838-7.727-48.326-12.476-72.36
		C35.767,46.44,24.837,18.868,30.12-8.565"/>
</g>
<g id="&#xB808;&#xC774;&#xC5B4;_4">
	<path style="fill:none;stroke:#000000;stroke-width:3;stroke-miterlimit:10;" d="M1279.071,251.327
		c-9.157,16.879-19.285,33.252-30.729,48.673c-7.869,10.604-16.767,21.076-28.737,26.65c-13.304,6.196-29.227,5.76-41.777,13.368
		c-17.293,10.483-20.726,26.333-24.914,37.859"/>
	<path style="fill:none;stroke:#000000;stroke-width:3;stroke-miterlimit:10;" d="M1279.61,371.887
		c-3.119,17.988-21.826,29.496-27.286,46.917c-2.425,7.736-2.69,17.249-9.395,21.806c-4.255,2.892-9.809,2.724-14.947,2.447
		c-7.99-0.431-16.294-0.948-23.296-4.822c-3.287-1.819-6.412-4.408-10.165-4.574c-2.355-0.104-4.65,0.784-7.006,0.862
		c-8.611,0.285-14.135-9.654-22.464-11.859c-4.273-1.131-8.995-0.118-13.08-1.806c-5.535-2.286-8.087-9.859-5.065-15.029"/>
</g>
<g id="&#xB808;&#xC774;&#xC5B4;_5">
	<path style="fill:none;stroke:#000000;stroke-width:3;stroke-miterlimit:10;" d="M1155.872,378.979
		c-37.784,1.202-75.554,2.805-113.304,4.811c-2.74,0.146-5.673,0.363-7.829,2.061c-3.526,2.779-3.401,8.065-2.951,12.532
		c0.182,1.802,0.513,3.858,2.049,4.817c0.909,0.568,2.04,0.604,3.112,0.624c29.012,0.536,58.025,1.072,87.037,1.607
		c15.723,0.29,31.559,0.572,47.052-2.118c9.706-1.685,19.169-4.52,28.605-7.348c1.891-0.567,3.811-1.147,5.459-2.233
		c3.814-2.513,5.496-7.226,8.659-10.52c3.164-3.294,9.881-4.214,11.433,0.081c0.308,0.853,0.354,1.812,0.84,2.578
		c1.6,2.518,5.583,0.664,8.441,1.52c2.49,0.746,3.751,3.456,5.72,5.152c1.373,1.182,3.099,1.866,4.6,2.879
		c6.336,4.278,7.294,14.061,7.642,21.698"/>
</g>
<g id="&#xB808;&#xC774;&#xC5B4;_6">
	<path style="fill:none;stroke:#000000;stroke-width:3;stroke-miterlimit:10;" d="M1191.22,347.938
		c-0.604,0.963-1.209,1.928-1.818,2.89c-6.149,9.718-14.718,17.681-24.866,23.09c-6.031,3.214-9.683,4.495-7.638,4.191
		c-1.289,0.192-4.658,2.321-5.715,3.083c-1.095,0.789-1.664,2.149-1.802,3.491c-0.416,4.026,2.698,7.757,6.422,9.343
		s7.924,1.492,11.965,1.263c8.966-0.506,18.047-1.578,26.326-5.059c3.888-1.635,7.569-3.789,11.602-5.024
		c3.349-1.025,7.859-4.39,11.343-4.75c8.854-0.915,16.709,1.17,25.563,0.256"/>
</g>
<g id="&#xB808;&#xC774;&#xC5B4;_7">
	<path style="fill:none;stroke:#000000;stroke-width:3;stroke-miterlimit:10;" d="M1191.843,434.422
		c2.929-3.11,3.872-4.996,5.775-8.822c2.141-4.306,4.287-8.623,5.921-13.145c1.372-3.796,2.379-7.736,2.792-11.75
		c0.224-2.175,0.083-4.764-1.731-5.984"/>
	<path style="fill:none;stroke:#000000;stroke-width:3;stroke-miterlimit:10;" d="M1216.581,442.317
		c2.143-3.706,2.166-8.206,2.632-12.461c0.964-8.799,4.037-17.223,5.707-25.916c1.34-6.972,0.772-14.118,0.281-21.201"/>
	<path style="fill:none;stroke:#000000;stroke-width:3;stroke-miterlimit:10;" d="M1227.299,442.267
		c5.214-5.478,7.809-12.872,10.263-20.025c3.32-9.68,5.666-20.144,2.718-29.944"/>
</g>
</svg>
