<?xml version="1.0" encoding="iso-8859-1"?>
<!-- Generator: Adobe Illustrator 24.0.1, SVG Export Plug-In . SVG Version: 6.00 Build 0)  -->
<svg version="1.1" xmlns="http://www.w3.org/2000/svg" xmlns:xlink="http://www.w3.org/1999/xlink" x="0px" y="0px"
	 viewBox="0 0 1280 600" style="enable-background:new 0 0 1280 600;" xml:space="preserve">
<g id="&#xB808;&#xC774;&#xC5B4;_1" style="display:none;">
	
		<image style="display:inline;overflow:visible;" width="724" height="600" xlink:href="../../&#x1102;&#x1166;&#x110B;&#x1175;&#x1107;&#x1165; MYBOX/&#x110C;&#x1169;&#x11BC;&#x1105;&#x1169; &#x110B;&#x1175;&#x110C;&#x1166;&#x11AB; Publishing/pfjjy_PR/pfjjy_nextjs/pfjjy/public/contact_left/005.png" >
	</image>
	
		<image style="display:inline;overflow:visible;" width="772" height="598" xlink:href="../../&#x1102;&#x1166;&#x110B;&#x1175;&#x1107;&#x1165; MYBOX/&#x110C;&#x1169;&#x11BC;&#x1105;&#x1169; &#x110B;&#x1175;&#x110C;&#x1166;&#x11AB; Publishing/pfjjy_PR/pfjjy_nextjs/pfjjy/public/contact_right/005.png"  transform="matrix(1 0 0 1 508 1)">
	</image>
</g>
<g id="&#xB808;&#xC774;&#xC5B4;_2">
	<path style="fill:none;stroke:#000000;stroke-width:3;stroke-miterlimit:10;" d="M-13.27,115.386
		c12.062,3.408,17.965,16.679,22.305,28.438c10.566,28.628,21.214,57.592,24.716,87.906c1.718,14.869,1.688,29.939-0.089,44.801
		c-1.605,13.423-4.628,26.679-5.47,40.171c-0.833,13.342,0.479,26.715,1.789,40.02c1.974,20.039,3.947,40.077,5.921,60.115
		c0.153,1.557,0.398,3.289,1.623,4.262c1.057,0.839,2.545,0.85,3.88,0.649c12.499-1.886,17.728-16.828,19.724-29.31
		c2.08-13.01,3.414-26.14,3.993-39.303c0.057-1.301,1.188-2.311,2.484-2.175c8.581,0.9,13.882,11.38,16.519,20.216
		c8.081,27.075,13.989,54.798,17.651,82.815c0.168,1.289,1.373,2.167,2.655,1.953c5.933-0.99,11.097-5.47,14.002-10.844
		c3.287-6.082,4.158-13.157,4.538-20.059c1.166-21.188-1.799-42.592-8.654-62.673c-0.772-2.262,2.047-4.089,3.725-2.387
		c2.325,2.358,3.931,5.832,5.084,9.026c8.674,24.032,13.442,49.47,14.068,75.012c0.043,1.756,1.941,2.8,3.458,1.915
		c10.562-6.162,12.929-21.799,13.4-34.729c0.48-13.174,0.96-26.349,1.441-39.523c0.4-10.971,0.611-22.691-5.213-31.998"/>
</g>
<g id="&#xB808;&#xC774;&#xC5B4;_3">
	<path style="fill:none;stroke:#000000;stroke-width:3;stroke-miterlimit:10;" d="M154.334,399.565
		c4.178,4.942,3.319,11.998,5.029,18.24c0.644,2.351,1.803,4.755,3.335,6.758c3.257,4.258,10.059,2.039,10.17-3.32l0.9-43.564
		c0.154-7.453,0.272-15.124-2.383-22.09c-3.75-9.841-12.819-17.722-13.554-28.227c11.796,2.309,21.304,11.667,26.496,22.508
		s6.654,23.068,7.295,35.07c3.075,2.042,6.631-2.02,7.645-5.569c5.097-17.832-4.604-36.227-14.253-52.065
		c-16.11-26.445-33.054-52.383-50.798-77.761c-5.052-7.225-10.187-14.435-14.22-22.275c-4.466-8.68-7.517-18.007-10.457-27.316
		c-22.17-70.183-39.15-142.005-50.757-214.685"/>
</g>
<g id="&#xB808;&#xC774;&#xC5B4;_4">
	<path style="fill:none;stroke:#000000;stroke-width:3;stroke-miterlimit:10;" d="M1286.773,188.144
		c-11.831,10.031-18.658,24.558-26.99,37.642c-11.994,18.833-27.546,35.182-39.774,53.864
		c-11.531,17.618-21.494,38.558-40.904,46.719c-5.668,2.383-11.783,3.469-17.665,5.263c-16.321,4.977-30.851,15.631-40.505,29.7
		c-5.038,7.342-9.448,16.147-17.776,19.298"/>
	<path style="fill:none;stroke:#000000;stroke-width:3;stroke-miterlimit:10;" d="M1105.946,409.438
		c-3.256,2.964-1.58,8.823,2.081,11.268c3.661,2.446,8.364,2.476,12.767,2.463c4.403-0.013,9.128,0.116,12.693,2.7
		c3.054,2.214,4.871,5.993,8.268,7.632c3.64,1.757,7.942,0.549,11.978,0.76c6.225,0.325,11.734,4.044,17.785,5.539
		c5.029,1.242,10.295,0.917,15.462,0.546c5.117-0.367,10.313-0.787,15.11-2.606c4.797-1.819,9.223-5.253,11.049-10.048
		c1.069-2.807,1.188-5.87,1.664-8.836c2.854-17.79,18.002-30.707,26.551-46.568c2.74-5.082,4.806-10.495,7.268-15.718
		c8.399-17.82,21.509-33.393,37.635-44.707"/>
</g>
<g id="&#xB808;&#xC774;&#xC5B4;_5">
	<path style="fill:none;stroke:#000000;stroke-width:3;stroke-miterlimit:10;" d="M1110.637,378.268
		c-41.414,7.292-83.263,12.109-125.25,14.417c-0.715,3.854-0.784,7.827-0.204,11.703c11.226,5.337,24.102,5.599,36.531,5.762
		c29.98,0.393,59.96-0.214,89.94,0.179"/>
</g>
<g id="&#xB808;&#xC774;&#xC5B4;_6">
	<path style="fill:none;stroke:#000000;stroke-width:3;stroke-miterlimit:10;" d="M1150.668,351.958
		c-9.036,7.761-19.149,14.266-29.958,19.27c-5.522,2.556-11.781,5.268-14.03,10.922c-0.744,1.869-0.92,4.122,0.194,5.798
		c0.904,1.36,2.481,2.099,4.022,2.64c14,4.909,29.08-1.517,43.614-4.495c9.836-2.015,19.919-2.429,29.951-2.836
		c5.898-0.24,11.796-0.479,17.693-0.719"/>
</g>
<g id="&#xB808;&#xC774;&#xC5B4;_7">
	<path style="fill:none;stroke:#000000;stroke-width:3;stroke-miterlimit:10;" d="M1103.778,409.452
		c8.605,0.553,17.493,1.068,25.614-1.834c1.854-0.663,3.65-1.499,5.551-2.013c3.223-0.872,6.901-0.903,9.386-3.133
		c1.549-1.389,2.413-3.479,4.143-4.634c2.807-1.873,6.986-0.296,8.584,2.677s1.019,6.739-0.636,9.68s-4.241,5.228-6.794,7.435
		c-4.596,3.972-9.84,8.102-15.913,7.955"/>
</g>
<g id="&#xB808;&#xC774;&#xC5B4;_8">
	<path style="fill:none;stroke:#000000;stroke-width:3;stroke-miterlimit:10;" d="M1158.15,400.893
		c3.503-3.692,7.007-7.384,10.51-11.075c1.012-1.066,2.038-2.144,3.285-2.922c1.613-1.006,3.513-1.457,5.4-1.687
		c3.062-0.375,6.19-0.208,9.195,0.489c0.669,0.155,1.384,0.37,1.794,0.922c0.384,0.517,0.41,1.209,0.399,1.853
		c-0.119,6.491-2.531,12.774-5.902,18.321c-3.371,5.548-7.686,10.452-11.976,15.324c-3.455,3.924-6.911,7.848-10.366,11.772"/>
</g>
<g id="&#xB808;&#xC774;&#xC5B4;_9">
	<path style="fill:none;stroke:#000000;stroke-width:3;stroke-miterlimit:10;" d="M1185.642,400.696
		c1.71-1.596,3.531-3.171,5.736-3.951c2.205-0.78,4.895-0.604,6.588,1.011c1.902,1.815,2.018,4.76,2.006,7.389
		c-0.011,2.346-0.021,4.692-0.032,7.037c-0.013,2.788-0.031,5.622-0.833,8.292c-1.034,3.446-3.292,6.37-5.503,9.208
		c-2.867,3.679-5.734,7.357-8.601,11.036"/>
</g>
<g id="&#xB808;&#xC774;&#xC5B4;_10">
	<path style="fill:none;stroke:#000000;stroke-width:3;stroke-miterlimit:10;" d="M1200.591,409.335
		c1.954-3.068,4.768-5.581,8.036-7.179c1.371-0.67,3.151-1.133,4.313-0.145c0.738,0.627,0.976,1.649,1.153,2.601
		c0.779,4.197,1.174,8.466,1.18,12.734"/>
</g>
</svg>
