<?xml version="1.0" encoding="iso-8859-1"?>
<!-- Generator: Adobe Illustrator 24.0.1, SVG Export Plug-In . SVG Version: 6.00 Build 0)  -->
<svg version="1.1" xmlns="http://www.w3.org/2000/svg" xmlns:xlink="http://www.w3.org/1999/xlink" x="0px" y="0px"
	 viewBox="0 0 1280 600" style="enable-background:new 0 0 1280 600;" xml:space="preserve">
<g id="&#xB808;&#xC774;&#xC5B4;_1" style="display:none;">
	
		<image style="display:inline;overflow:visible;" width="724" height="600" xlink:href="../../&#x1102;&#x1166;&#x110B;&#x1175;&#x1107;&#x1165; MYBOX/&#x110C;&#x1169;&#x11BC;&#x1105;&#x1169; &#x110B;&#x1175;&#x110C;&#x1166;&#x11AB; Publishing/pfjjy_PR/pfjjy_nextjs/pfjjy/public/contact_left/006.png" >
	</image>
	
		<image style="display:inline;overflow:visible;" width="772" height="598" xlink:href="../../&#x1102;&#x1166;&#x110B;&#x1175;&#x1107;&#x1165; MYBOX/&#x110C;&#x1169;&#x11BC;&#x1105;&#x1169; &#x110B;&#x1175;&#x110C;&#x1166;&#x11AB; Publishing/pfjjy_PR/pfjjy_nextjs/pfjjy/public/contact_right/006.png"  transform="matrix(1 0 0 1 508 1)">
	</image>
</g>
<g id="&#xB808;&#xC774;&#xC5B4;_2">
	<path style="fill:none;stroke:#000000;stroke-width:3;stroke-miterlimit:10;" d="M-0.839,38.257
		c16.55,33.229,31.393,67.309,44.449,102.06c12.024,32.003,22.606,64.924,25.607,98.979c3.141,35.651-2.107,71.649,1.07,107.297
		c2.022,22.691,7.451,45.384,4.751,68.004c6.433,4.327,15.769,0.356,19.88-6.218s4.419-14.748,4.606-22.499
		c0.311-12.884,0.623-25.768,0.934-38.652c0.037-1.529,0.594-3.039,1.701-4.095c3.26-3.11,7.776,0.389,10.311,3.68
		c19.941,25.888,30.727,58.685,30.046,91.355c-0.077,3.68-0.21,7.696,3.45,10.131c2.426,1.614,5.55,1.693,8.215,0.515
		c5.368-2.372,7.703-8.006,8.875-13.448c5.522-25.652-8.87-51.796-6.73-77.948c5.127-2.751,10.242,3.671,12.387,9.078
		c9.089,22.909,14.458,47.288,15.846,71.895c0.159,2.815,3.452,4.252,5.645,2.48c4.126-3.336,6.182-9.998,6.92-15.71
		c3.377-26.157,0.94-53.048-7.085-78.172"/>
	<path style="fill:none;stroke:#000000;stroke-width:3;stroke-miterlimit:10;" d="M197.115,424.774
		c0.664,5.032,11.392,6.007,15.056,2.495c3.664-3.512,4.251-9.067,4.617-14.129c1.324-18.341,2.495-37.593-5.19-54.299
		c-5.222-11.352-14.503-23.786-8.745-34.875c9.561,3.598,15.106,13.662,17.833,23.507s3.504,20.277,7.592,29.639
		c0.934,2.138,2.203,4.362,4.365,5.238c4.621,1.871,8.906-3.557,10.12-8.393c3.222-12.828-1.367-26.5-8.571-37.593
		s-16.889-20.31-25.363-30.464c-14.846-17.788-25.902-38.353-38.249-57.958c-3.215-5.106-6.536-10.176-9.023-15.674
		c-2.335-5.161-3.903-10.629-5.452-16.078C134.73,141.01,115.418,65.243,98.201-10.997"/>
</g>
<g id="&#xB808;&#xC774;&#xC5B4;_3">
	<path style="fill:none;stroke:#000000;stroke-width:3;stroke-miterlimit:10;" d="M1286.444,88.425
		c-22.101,25.689-40.96,54.164-55.99,84.537c-5.932,11.989-11.271,24.271-17.49,36.113c-14.881,28.337-34.614,53.805-54.736,78.696
		c-14.437,17.858-29.752,36.01-50.31,46.24c-5.292,2.633-10.869,4.704-15.963,7.702c-17.233,10.141-28.452,30.926-46.357,39.829"/>
	<path style="fill:none;stroke:#000000;stroke-width:3;stroke-miterlimit:10;" d="M1050.389,409.109
		c-2.384,5.363,0.477,12.428,5.92,14.621c5.64,2.272,12.549-0.316,17.883,2.603c4.521,2.474,6.654,8.306,11.46,10.167
		c6.006,2.325,13.041-2.727,19.023-0.342c1.89,0.754,3.421,2.174,5.098,3.327c7.106,4.886,16.391,4.776,25.01,4.483
		c3.527-0.12,7.163-0.264,10.37-1.738c4.651-2.137,7.645-6.691,10.278-11.079c22.939-38.222,38.291-81.98,69.901-113.412
		c7.473-7.431,15.727-14.025,23.962-20.601c12.724-10.162,25.447-20.324,38.171-30.486"/>
</g>
<g id="&#xB808;&#xC774;&#xC5B4;_4">
	<path style="fill:none;stroke:#000000;stroke-width:3;stroke-miterlimit:10;" d="M1060.227,380.4
		c-24.246,1.189-49.457,3.09-73.591,5.699c-7.413,0.801-14.819,1.67-22.25,2.278c-8.872,0.726-17.773,1.081-26.675,1.064
		c-1.938-0.004-3.993,0.006-5.644,1.022c-1.168,0.719-2.002,1.873-2.675,3.068c-1.914,3.398-2.754,7.461-1.967,11.28
		c0.787,3.819,3.292,7.328,6.819,8.99c3.339,1.573,7.198,1.426,10.884,1.247c38.034-1.846,76.068-3.693,114.102-5.539"/>
</g>
<g id="&#xB808;&#xC774;&#xC5B4;_5">
	<path style="fill:none;stroke:#000000;stroke-width:3;stroke-miterlimit:10;" d="M1104.411,348.411
		c-5.159,2.73-10.317,5.461-15.476,8.191c-6.535,3.459-13.154,6.977-18.569,12.012c-4.081,3.795-7.367,8.35-10.623,12.873
		c-0.828,1.149-1.548,2.996-0.35,3.751c0.318,0.2,0.703,0.253,1.076,0.299c16.938,2.075,33.999-1.734,51.057-2.223
		c8.177-0.235,16.354,0.295,24.533,0.478c5.605,0.125,11.213,0.088,16.815-0.113c3.121-0.112,6.379-0.314,9.073-1.894"/>
</g>
<g id="&#xB808;&#xC774;&#xC5B4;_6">
	<path style="fill:none;stroke:#000000;stroke-width:3;stroke-miterlimit:10;" d="M1049.021,410.157
		c6.243-0.563,12.487-1.126,18.73-1.689c5.064-0.457,10.347-0.986,14.632-3.722c2.773-1.77,4.927-4.347,7.512-6.382
		c2.585-2.035,5.954-3.555,9.12-2.662c3.911,1.103,6.055,5.685,5.536,9.716c-0.519,4.03-3.088,7.505-5.968,10.371
		c-5.979,5.95-13.709,10.12-21.965,11.85"/>
</g>
<g id="&#xB808;&#xC774;&#xC5B4;_7">
	<path style="fill:none;stroke:#000000;stroke-width:3;stroke-miterlimit:10;" d="M1104.731,402.681
		c3.625-3.287,8.25-7.575,11.874-10.862c0.885-0.803,1.777-1.611,2.797-2.233c2.584-1.577,5.811-1.831,8.788-1.281
		c1.588,0.293,3.305,0.943,3.986,2.406c0.763,1.638-0.083,3.538-0.917,5.141c-7.286,14.014-15.818,29.353-27.571,39.904"/>
</g>
<g id="&#xB808;&#xC774;&#xC5B4;_8">
	<path style="fill:none;stroke:#000000;stroke-width:3;stroke-miterlimit:10;" d="M1122.344,412.25
		c2.675-0.884,4.655-3.116,6.391-5.335c1.736-2.219,3.442-4.59,5.901-5.965c2.458-1.376,5.941-1.411,7.755,0.745
		c1.069,1.27,1.354,3.011,1.507,4.664c1.238,13.368-3.851,27.186-13.464,36.559"/>
</g>
<g id="&#xB808;&#xC774;&#xC5B4;_9">
	<path style="fill:none;stroke:#000000;stroke-width:3;stroke-miterlimit:10;" d="M1143.775,418.287
		c4.016-4.24,9.199-7.363,14.824-8.934c1.045-0.292,2.131-0.533,3.208-0.401c1.077,0.132,2.154,0.699,2.643,1.668
		c0.294,0.583,0.354,1.255,0.347,1.908c-0.011,1.163-0.218,2.324-0.608,3.419"/>
</g>
</svg>
