<?xml version="1.0" encoding="iso-8859-1"?>
<!-- Generator: Adobe Illustrator 24.0.1, SVG Export Plug-In . SVG Version: 6.00 Build 0)  -->
<svg version="1.1" xmlns="http://www.w3.org/2000/svg" xmlns:xlink="http://www.w3.org/1999/xlink" x="0px" y="0px"
	 viewBox="0 0 1280 600" style="enable-background:new 0 0 1280 600;" xml:space="preserve">
<g id="&#xB808;&#xC774;&#xC5B4;_1" style="display:none;">
	
		<image style="display:inline;overflow:visible;" width="724" height="600" xlink:href="../../&#x1102;&#x1166;&#x110B;&#x1175;&#x1107;&#x1165; MYBOX/&#x110C;&#x1169;&#x11BC;&#x1105;&#x1169; &#x110B;&#x1175;&#x110C;&#x1166;&#x11AB; Publishing/pfjjy_PR/pfjjy_nextjs/pfjjy/public/contact_left/007.png" >
	</image>
	
		<image style="display:inline;overflow:visible;" width="772" height="598" xlink:href="../../&#x1102;&#x1166;&#x110B;&#x1175;&#x1107;&#x1165; MYBOX/&#x110C;&#x1169;&#x11BC;&#x1105;&#x1169; &#x110B;&#x1175;&#x110C;&#x1166;&#x11AB; Publishing/pfjjy_PR/pfjjy_nextjs/pfjjy/public/contact_right/007.png"  transform="matrix(1 0 0 1 508 1)">
	</image>
</g>
<g id="&#xB808;&#xC774;&#xC5B4;_2">
	<path style="fill:none;stroke:#000000;stroke-width:3;stroke-miterlimit:10;" d="M34.382-6.097
		c-0.388,22.05,11.336,42.243,22.283,61.387c35.05,61.295,66.297,126.73,73.577,196.962c1.176,11.342,1.715,22.811,0.39,34.137
		c-1.58,13.507-5.795,26.691-6.189,40.284c-0.658,22.692,9.368,45.112,6.112,67.578c-1.097,7.569-2.806,17.249,3.76,21.172
		c4.779,2.855,11.313,0.111,14.5-4.454s3.889-10.358,4.496-15.892c1.854-16.876,3.708-33.752,5.562-50.627
		c0.194-1.764,0.56-3.8,2.119-4.649c2.015-1.099,4.431,0.602,5.8,2.444c6.497,8.738,4.173,21.082,7.497,31.451
		c4.761,14.852,21.252,27.144,17.162,42.195c-1.415,5.207,0.395,10.824,2.103,15.942c1.708,5.118,5.667,9.832,10.96,10.88
		c4.756,0.942,9.986-1.49,12.331-5.733c1.586-2.87,1.874-6.252,2.13-9.521c0.355-4.535,0.71-9.07,1.066-13.605
		c0.995-12.709,1.948-25.807-1.995-37.93c-2.019-6.209-5.334-12.302-4.859-18.813c11.101,7.308,17.15,20.469,19.316,33.582
		c2.167,13.113,1.005,26.51,0.763,39.799c-0.054,2.98,0.066,6.296,2.154,8.423c2.654,2.705,7.234,2.138,10.589,0.377
		c7.589-3.985,11.817-12.632,12.733-21.154c0.917-8.522-0.962-17.07-2.829-25.436c-3.055-13.688-6.109-27.376-9.164-41.064"/>
</g>
<g id="&#xB808;&#xC774;&#xC5B4;_3">
	<path style="fill:none;stroke:#000000;stroke-width:3;stroke-miterlimit:10;" d="M257.225,418.761
		c3.546,3.365,8.279,6.994,12.827,5.203c4.182-1.647,5.452-6.893,5.742-11.378c0.997-15.403-2.649-30.686-6.269-45.691
		c-3.687-15.279-7.373-30.559-11.06-45.838c8.282,0.905,13.549,9.114,17.111,16.645c5.131,10.849,9.319,22.145,12.501,33.717
		c0.598,2.175,1.214,4.459,2.761,6.1c1.548,1.641,4.358,2.336,6.063,0.858c1.493-1.294,1.531-3.561,1.397-5.532
		c-1.181-17.429-6.61-34.554-15.688-49.479c-8.613-14.162-20.293-26.147-30.984-38.814c-21.222-25.144-38.796-53.362-52.002-83.498
		c-10.829-24.712-17.575-51.728-23.88-77.962c-4.348-18.093-7.478-36.478-9.36-54.99c-0.453-4.454-0.843-8.96-2.245-13.212
		c-1.091-3.309-2.771-6.386-4.229-9.551c-7.428-16.129-8.979-34.248-10.423-51.946"/>
</g>
<g id="&#xB808;&#xC774;&#xC5B4;_4">
	<path style="fill:none;stroke:#000000;stroke-width:3;stroke-miterlimit:10;" d="M1279.071,46.028
		c-43.752,45.11-62.564,108.987-101.71,158.148c-6.8,8.539-14.215,16.635-20.1,25.829c-5.831,9.109-10.059,19.137-15.284,28.606
		c-7.787,14.114-17.737,26.898-27.642,39.615c-12.097,15.531-25.18,31.799-43.69,38.501c-5.791,2.097-11.939,3.173-17.583,5.639
		c-5.332,2.33-10.055,5.83-14.726,9.3c-9.111,6.768-18.223,13.537-27.335,20.305c-3.15,2.34-6.606,5.243-6.681,9.167
		c-0.07,3.714,3.153,6.838,6.709,7.913s7.372,0.572,11.051,0.059c28.535-3.975,57.07-7.95,85.605-11.924"/>
	<path style="fill:none;stroke:#000000;stroke-width:3;stroke-miterlimit:10;" d="M1008.602,408.275
		c2.232,3.098-0.569,5.928,1.56,9.098c2.323,3.46,7.658,1.693,11.758,2.444c6.188,1.133,9.286,8.175,14.648,11.466
		c5.448,3.345,12.379,2.388,18.691,3.403c3.26,0.524,6.402,1.594,9.583,2.477c8.972,2.491,18.278,3.502,27.535,4.504
		c2.984,0.323,6.058,0.639,8.944-0.185c8.392-2.397,11.204-12.516,14.113-20.745c2.334-6.604,5.552-12.854,8.792-19.063
		c12.849-24.62,26.331-49.147,44.091-70.496c24.354-29.275,55.878-51.558,87.012-73.487c3.248-2.288,4.022-7.152,7.121-9.637
		c2.025-1.624,4.405-2.736,6.595-4.13c6.168-3.924,10.65-9.945,14.989-15.828"/>
</g>
<g id="&#xB808;&#xC774;&#xC5B4;_5">
	<path style="fill:none;stroke:#000000;stroke-width:3;stroke-miterlimit:10;" d="M1005.56,378.311
		c-38.206,4.007-76.305,9.03-114.244,15.06c-1,0.159-2.074,0.356-2.777,1.084c-0.764,0.792-0.88,1.989-0.94,3.088
		c-0.15,2.717-0.22,5.439-0.21,8.16c0.004,1.177,0.043,2.422,0.668,3.419c1.104,1.759,3.507,2.047,5.583,2.128
		c39.194,1.53,78.506-5.567,117.562-1.945"/>
</g>
<g id="&#xB808;&#xC774;&#xC5B4;_6">
	<path style="fill:none;stroke:#000000;stroke-width:3;stroke-miterlimit:10;" d="M1010.286,408.503
		c6.225-0.853,12.45-1.705,18.674-2.558c3.373-0.462,6.812-0.944,9.869-2.441c2.757-1.35,5.064-3.46,7.689-5.052
		c3.191-1.935,6.855-3.084,10.58-3.318c2.09-0.131,4.56,0.236,5.569,2.071c1.377,2.503-0.985,5.361-3.139,7.237
		c-4.269,3.718-8.538,7.435-12.806,11.153c-4.921,4.286-10.696,8.853-17.175,8.067"/>
</g>
<g id="&#xB808;&#xC774;&#xC5B4;_7">
	<path style="fill:none;stroke:#000000;stroke-width:3;stroke-miterlimit:10;" d="M1061.944,399.524
		c1.02-3.768,4.013-6.779,7.481-8.572c3.468-1.793,7.39-2.504,11.272-2.913c2.693-0.284,5.571-0.397,7.94,0.914
		c1.075,9.533-2.819,19.092-8.642,26.716c-5.823,7.624-13.467,13.622-21.024,19.532"/>
</g>
<g id="&#xB808;&#xC774;&#xC5B4;_8">
	<path style="fill:none;stroke:#000000;stroke-width:3;stroke-miterlimit:10;" d="M1082.481,410.847
		c5.021-5.718,13.273-8.386,20.691-6.69c1.927,3.144,0.917,7.196-0.261,10.69c-3.384,10.039-8.264,20.404-17.415,25.741"/>
</g>
<g id="&#xB808;&#xC774;&#xC5B4;_9">
	<path style="fill:none;stroke:#000000;stroke-width:3;stroke-miterlimit:10;" d="M1101.995,417.495
		c3.876-2.528,7.774-5.022,11.693-7.484c0.756-0.475,1.603-0.968,2.484-0.824c1.717,0.282,2.125,2.535,2.126,4.275"/>
</g>
</svg>
