<?xml version="1.0" encoding="iso-8859-1"?>
<!-- Generator: Adobe Illustrator 24.0.1, SVG Export Plug-In . SVG Version: 6.00 Build 0)  -->
<svg version="1.1" xmlns="http://www.w3.org/2000/svg" xmlns:xlink="http://www.w3.org/1999/xlink" x="0px" y="0px"
	 viewBox="0 0 1280 600" style="enable-background:new 0 0 1280 600;" xml:space="preserve">
<g id="&#xB808;&#xC774;&#xC5B4;_1" style="display:none;">
	
		<image style="display:inline;overflow:visible;" width="724" height="600" xlink:href="../&#x1102;&#x1166;&#x110B;&#x1175;&#x1107;&#x1165; MYBOX/&#x110C;&#x1169;&#x11BC;&#x1105;&#x1169; &#x110B;&#x1175;&#x110C;&#x1166;&#x11AB; Publishing/pfjjy_PR/pfjjy_nextjs/pfjjy/public/contact_left/008.png" >
	</image>
	
		<image style="display:inline;overflow:visible;" width="772" height="598" xlink:href="../&#x1102;&#x1166;&#x110B;&#x1175;&#x1107;&#x1165; MYBOX/&#x110C;&#x1169;&#x11BC;&#x1105;&#x1169; &#x110B;&#x1175;&#x110C;&#x1166;&#x11AB; Publishing/pfjjy_PR/pfjjy_nextjs/pfjjy/public/contact_right/008.png"  transform="matrix(1 0 0 1 508 1)">
	</image>
</g>
<g id="&#xB808;&#xC774;&#xC5B4;_2">
	<path style="fill:none;stroke:#000000;stroke-width:3;stroke-miterlimit:10;" d="M82.952-10.982
		c3.424,24.371,12.821,47.882,27.138,67.9c5.257,7.349,11.167,14.241,15.95,21.908c5.676,9.098,9.665,19.126,13.623,29.092
		c6.13,15.434,12.26,30.869,18.39,46.303c12.775,32.165,25.754,65.393,25.129,99.996c-0.415,22.997-6.868,45.973-3.632,68.745
		c1.491,10.495,5.004,20.579,7.577,30.862c3.755,15.008,5.511,30.514,5.208,45.982c-0.064,3.242-0.157,6.739,2.797,9.046
		c2.913,2.274,7.019,2.093,10.06-0.007c5.586-3.858,6.6-10.701,7.378-17.016c2.263-18.371,4.526-36.741,6.79-55.112
		c11.907,7.732,12.068,25.621,21.858,35.903c4,4.201,9.442,6.92,13.022,11.484c5.815,7.412,5.426,17.728,7.314,26.957
		c1.547,7.562,4.829,14.755,9.472,20.919c2.484,3.298,7.655,2.187,8.541-1.846c5.876-26.743,3.071-55.365-8.058-80.396
		c12.855,16.557,20.814,36.867,22.631,57.749c0.696,7.998,0.59,16.376,4.212,23.54c1.19,2.354,2.92,4.675,6.744,3.808
		c1.719-0.39,3.227-1.396,4.434-2.68c5.704-6.066,6.785-14.874,7.139-23.109c1.072-24.879-2.348-49.945-10.046-73.627"/>
</g>
<g id="&#xB808;&#xC774;&#xC5B4;_3">
	<path style="fill:none;stroke:#000000;stroke-width:3;stroke-miterlimit:10;" d="M317.003,387.998
		c4.059,8.409,6.658,16.817,10.292,25.226c1.336,3.091,5.79,2.848,6.749-0.38c0.259-0.871,0.431-1.77,0.525-2.609
		c3.844-34.369-3.819-69.925-21.478-99.66c20.498,8.357,35.778,28.123,39.2,49.928c0.593,3.778,5.939,4.224,7.129,0.589
		c0.727-2.219,0.972-4.758,0.781-6.992c-1.727-20.216-14.662-37.48-27.097-53.513c-13.387-17.261-26.801-34.553-41.807-50.427
		c-11.204-11.851-23.47-23.15-31.012-37.611c-6.582-12.62-9.159-26.899-14.111-40.243c-3.388-9.129-7.882-17.8-11.809-26.71
		c-6.45-14.634-11.361-29.89-16.26-45.114c-11.629-36.137-23.331-72.62-26.955-110.409"/>
</g>
<g id="&#xB808;&#xC774;&#xC5B4;_4">
	<path style="fill:none;stroke:#000000;stroke-width:3;stroke-miterlimit:10;" d="M1265.489-8.648
		c-15.37,34.489-47.742,57.905-70.729,87.861c-8.539,11.128-15.787,23.179-23.014,35.2c-32.495,54.047-64.99,108.094-97.485,162.141
		c-4.311,7.17-8.644,14.372-13.993,20.805c-27.791,33.427-78.142,41.139-105.811,74.667c-2.113,2.56-4.162,5.522-4.085,8.841
		c0.107,4.633,4.502,8.244,9.052,9.128s9.215-0.283,13.725-1.347c24.551-5.794,49.772-8.746,74.998-8.777"/>
</g>
<g id="&#xB808;&#xC774;&#xC5B4;_5">
	<path style="fill:none;stroke:#000000;stroke-width:3;stroke-miterlimit:10;" d="M949.912,408.401
		c-5.049,3.141-0.786,11.555,4.92,13.227s12.09,0.161,17.596,2.407c4.064,1.658,7.147,5.18,11.206,6.849
		c3.751,1.543,7.947,1.358,11.997,1.587c15.844,0.895,30.912,8.435,46.779,8.159c4.275-0.074,8.777-0.826,12.061-3.563
		c2.18-1.817,3.626-4.348,4.935-6.866c5.895-11.343,10.031-23.733,17.804-33.882c4.361-5.694,9.831-10.63,13.075-17.026
		c3.153-6.217,3.981-13.405,7.1-19.639c2.748-5.492,7.129-9.965,11.438-14.34c14.076-14.289,28.151-28.578,42.227-42.867
		c6.07-6.162,12.185-12.362,19.275-17.317c9.221-6.444,19.881-10.63,28.997-17.223c11.518-8.33,20.025-20.08,30.114-30.093
		c14.44-14.331,32.494-25.502,43.168-42.822c5.318-8.63,9.76-19.517,19.529-22.224"/>
</g>
<g id="&#xB808;&#xC774;&#xC5B4;_6">
	<path style="fill:none;stroke:#000000;stroke-width:3;stroke-miterlimit:10;" d="M951.415,380.524
		c-9.398,5.335-19.598,5.18-30.38,5.904c-27.283,1.833-54.565,3.665-81.848,5.498c-3.351,0.225-6.986,0.568-9.447,2.853
		c-3.293,3.058-3.14,8.222-2.739,12.698c0.195,2.177,0.552,4.645,2.355,5.881c1.264,0.866,2.908,0.873,4.44,0.846
		c43.431-0.775,80.832-2.225,124.075-6.342"/>
</g>
<g id="&#xB808;&#xC774;&#xC5B4;_7">
	<path style="fill:none;stroke:#000000;stroke-width:3;stroke-miterlimit:10;" d="M950.613,408.064
		c6.954-0.274,13.908-0.548,20.861-0.822c3.355-0.132,6.897-0.322,9.703-2.166c1.582-1.04,2.817-2.542,4.403-3.575
		c1.586-1.033,3.809-1.503,5.307-0.347c1.37,1.057,1.598,3.009,1.621,4.739c0.032,2.466-0.136,4.976-0.995,7.287
		c-2.397,6.449-9.357,9.777-15.688,12.471"/>
</g>
<g id="&#xB808;&#xC774;&#xC5B4;_8">
	<path style="fill:none;stroke:#000000;stroke-width:3;stroke-miterlimit:10;" d="M992.437,408.239
		c2.453-0.937,4.864-1.982,7.225-3.132c1.423-0.693,2.838-1.43,4.079-2.413c0.822-0.65,1.571-1.41,2.499-1.898
		c2.726-1.434,6.286-0.007,8.108,2.476c1.822,2.484,2.262,5.712,2.316,8.792c0.057,3.218-0.242,6.442-0.892,9.594
		c-0.263,1.274-0.59,2.558-1.256,3.676c-0.66,1.11-1.62,2.004-2.567,2.881c-1.951,1.808-3.902,3.617-5.853,5.425"/>
</g>
<g id="&#xB808;&#xC774;&#xC5B4;_9">
	<path style="fill:none;stroke:#000000;stroke-width:3;stroke-miterlimit:10;" d="M1016.946,407.627
		c3.885-2.152,8.529-4.351,12.566-2.499c2.118,0.971,3.622,2.907,4.873,4.873c2.929,4.603,4.976,9.923,4.885,15.379
		c-0.09,5.456-2.561,11.027-7.116,14.03"/>
</g>
<g id="&#xB808;&#xC774;&#xC5B4;_10">
	<path style="fill:none;stroke:#000000;stroke-width:3;stroke-miterlimit:10;" d="M1032.219,405.956
		c2.65-1.594,5.342-3.207,8.326-4.022c2.983-0.814,6.348-0.742,8.969,0.898c3.124,1.954,4.604,5.653,5.889,9.106
		c2.417,6.494,3.873,12.246,3.333,19.154"/>
</g>
<g id="&#xB808;&#xC774;&#xC5B4;_11">
	<path style="fill:none;stroke:#000000;stroke-width:3;stroke-miterlimit:10;" d="M1007.728,382.336
		c2.698,2.891,3.841,7.155,2.95,11.008c-0.572,2.476-1.901,4.7-3.211,6.878"/>
</g>
</svg>
