<?xml version="1.0" encoding="iso-8859-1"?>
<!-- Generator: Adobe Illustrator 24.0.1, SVG Export Plug-In . SVG Version: 6.00 Build 0)  -->
<svg version="1.1" xmlns="http://www.w3.org/2000/svg" xmlns:xlink="http://www.w3.org/1999/xlink" x="0px" y="0px"
	 viewBox="0 0 1280 600" style="enable-background:new 0 0 1280 600;" xml:space="preserve">
<g id="&#xB808;&#xC774;&#xC5B4;_1" style="display:none;">
	
		<image style="display:inline;overflow:visible;" width="724" height="600" xlink:href="../../&#x1102;&#x1166;&#x110B;&#x1175;&#x1107;&#x1165; MYBOX/&#x110C;&#x1169;&#x11BC;&#x1105;&#x1169; &#x110B;&#x1175;&#x110C;&#x1166;&#x11AB; Publishing/pfjjy_PR/pfjjy_nextjs/pfjjy/public/contact_left/009.png" >
	</image>
	
		<image style="display:inline;overflow:visible;" width="772" height="598" xlink:href="../../&#x1102;&#x1166;&#x110B;&#x1175;&#x1107;&#x1165; MYBOX/&#x110C;&#x1169;&#x11BC;&#x1105;&#x1169; &#x110B;&#x1175;&#x110C;&#x1166;&#x11AB; Publishing/pfjjy_PR/pfjjy_nextjs/pfjjy/public/contact_right/009.png"  transform="matrix(1 0 0 1 508 1)">
	</image>
</g>
<g id="&#xB808;&#xC774;&#xC5B4;_2">
	<path style="fill:none;stroke:#000000;stroke-width:3;stroke-miterlimit:10;" d="M142.404-3.618
		c-1.253,16.819,5.528,33.318,14.658,47.499s20.634,26.676,30.388,40.436c18.613,26.258,30.665,57.129,34.766,89.053
		c4.009,31.212,20.691,59.536,20.932,91.003c0.189,24.669-3.839,49.668,1.195,73.819c2.348,11.266,6.629,22.078,8.658,33.405
		c1.832,10.222,1.795,20.777-0.118,30.984c-0.329,1.755,0.001,3.618,1.142,4.991c3.207,3.858,8.419,0.043,10.64-3.844
		c10.88-19.039,3.011-44.118,12.362-64.044c0.328-0.7,0.834-1.328,1.507-1.709c2.056-1.163,3.787,0.555,5.027,2.098
		c22.337,27.778,38.775,60.276,47.914,94.729c3.305,1.241,7.117-0.892,8.926-3.923s2.086-6.708,2.236-10.234
		c1.018-24.064-1.88-48.29-8.546-71.435c8.457,4.719,12.318,14.65,15.235,23.884c5.402,17.102,9.758,34.535,13.036,52.168
		c0.935,5.029,7.285,6.662,10.549,2.725c2.692-3.247,4.535-7.338,5.375-11.485c1.58-7.805,1.269-15.872-0.045-23.726
		c-2.906-17.376-6.812-34.751-9.718-52.127"/>
</g>
<g id="&#xB808;&#xC774;&#xC5B4;_3">
	<path style="fill:none;stroke:#000000;stroke-width:3;stroke-miterlimit:10;" d="M378.515,393.494
		c0.57,10.274,8.96,19.581,19.119,21.211c3.657-1.134,3.741-6.222,3.083-9.994c-1.518-8.698-3.036-17.397-4.555-26.095
		c-1.97-11.284-4.042-22.853-9.907-32.692c-6.534-10.963-18.048-22.032-13.865-34.089c18.647,4.581,33.666,21.344,36.178,40.38
		c0.408,3.089,0.766,6.666,3.36,8.391c2.289,1.522,5.504,0.834,7.665-0.865c3.859-3.036,4.945-8.609,3.932-13.414
		s-3.751-9.04-6.436-13.151c-6.053-9.268-12.105-18.536-18.158-27.803c-7.031-10.766-14.141-21.629-23.358-30.596
		c-7.828-7.615-17.01-13.697-25.132-20.997c-9.426-8.471-17.382-18.572-23.408-29.721c-5.384-9.959-9.205-20.673-13.005-31.337
		c-3.776-10.596-7.551-21.192-11.327-31.788c-11.863-33.293-23.732-66.605-33.823-100.478c-7.233-24.278-13.547-48.83-18.925-73.586
		"/>
</g>
<g id="&#xB808;&#xC774;&#xC5B4;_4">
	<path style="fill:none;stroke:#000000;stroke-width:3;stroke-miterlimit:10;" d="M1010.019,380.08
		c-29.958-1.109-60.07,2.007-89.166,9.225c-6.083,1.509-14.427,2.132-16.709-3.705c-1.078-2.757-0.136-5.878,1.119-8.559
		c8.842-18.887,30.657-27.071,49.839-35.254c10.992-4.689,21.797-9.964,31.59-16.813c20.849-14.583,36.193-35.601,50.614-56.563
		c33.28-48.378,63.817-98.643,91.415-150.473c8.317-15.62,15.046-31.746,28.795-42.887c2.972-2.409,6.391-4.236,9.272-6.753
		c3.469-3.031,6.026-6.942,8.849-10.583c14.612-18.846,37.449-31.865,45.976-54.135c1.455-3.799,2.468-7.828,4.7-11.228"/>
</g>
<g id="&#xB808;&#xC774;&#xC5B4;_5">
	<path style="fill:none;stroke:#000000;stroke-width:3;stroke-miterlimit:10;" d="M907.866,411.739
		c-4.36,4.95,1.419,11.054,7.486,13.644s13.096,2.28,19.078,5.06c2.223,1.033,4.304,2.492,6.718,2.917
		c2.839,0.5,5.717-0.503,8.599-0.572c8.176-0.196,14.569,6.838,22.262,9.613c3.886,1.402,8.071,1.692,12.193,1.969
		c5.615,0.378,11.43,0.728,16.704-1.238c10.346-3.859,15.499-15.154,19.941-25.263c10.796-24.569,23.532-48.285,38.051-70.854
		c1.994-3.1,4.038-6.198,6.59-8.858c4.242-4.422,9.694-7.442,14.695-10.982c10.731-7.597,19.442-17.645,29.101-26.564
		c14.768-13.636,31.744-24.619,47.6-36.973c33.361-25.993,61.838-58.232,83.514-94.547c6.452-10.81,12.906-21.19,18.872-32.275
		c8.424-15.653,17.083-31.613,30.13-43.686"/>
</g>
<g id="&#xB808;&#xC774;&#xC5B4;_6">
	<path style="fill:none;stroke:#000000;stroke-width:3;stroke-miterlimit:10;" d="M904.842,377.667
		c-21.698,7.252-44.54,10.402-67.306,12.656c-15.892,1.574-31.826,2.729-47.78,3.463c-3.271,0.151-6.749,0.351-9.417,2.25
		c-6.071,4.32-3.51,14.759,2.823,18.684c6.333,3.926,14.36,3.326,21.781,2.656c36.22-3.272,72.573-5.07,108.94-5.39"/>
</g>
<g id="&#xB808;&#xC774;&#xC5B4;_7">
	<path style="fill:none;stroke:#000000;stroke-width:3;stroke-miterlimit:10;" d="M906.823,412.496
		c6.05-1.247,12.68,0.425,18.292-2.158c3.034-1.397,6.421-3.996,9.276-2.262c2.318,1.407,2.378,4.723,1.904,7.393
		c-0.824,4.639-3.862,10.634-8.201,12.47"/>
</g>
<g id="&#xB808;&#xC774;&#xC5B4;_8">
	<path style="fill:none;stroke:#000000;stroke-width:3;stroke-miterlimit:10;" d="M936.537,414.522
		c4.054-5.048,9.983-8.553,16.36-9.671c3.141-0.551,6.854-0.326,8.84,2.168c0.854,1.072,1.263,2.427,1.556,3.766
		c1.735,7.946-0.192,16.616-5.129,23.08"/>
</g>
<g id="&#xB808;&#xC774;&#xC5B4;_9">
	<path style="fill:none;stroke:#000000;stroke-width:3;stroke-miterlimit:10;" d="M964.154,411.671
		c2.33-4.579,7.043-8.406,12.156-7.904c4.894,0.48,8.614,4.654,10.923,8.996c5.038,9.475,5.651,21.19,1.63,31.14"/>
</g>
<g id="&#xB808;&#xC774;&#xC5B4;_10">
	<path style="fill:none;stroke:#000000;stroke-width:3;stroke-miterlimit:10;" d="M987.431,413.903
		c0.334-3.227,0.668-6.455,1.002-9.682c0.13-1.251,0.296-2.59,1.125-3.537c0.744-0.849,1.891-1.221,3.001-1.426
		c4.894-0.902,10.2,0.912,13.518,4.62c4.033,4.508,4.867,10.946,5.519,16.959c0.365,3.369,0.731,8.739,1.096,12.108"/>
</g>
<g id="&#xB808;&#xC774;&#xC5B4;_11">
	<path style="fill:none;stroke:#000000;stroke-width:3;stroke-miterlimit:10;" d="M954.68,404.183
		c1.938-0.868,4.895-2.747,6.587-4.029c1.692-1.282,3.122-3.024,3.626-5.086c0.218-0.89,0.259-1.814,0.271-2.731
		c0.051-3.8-0.372-7.606-1.257-11.301"/>
</g>
</svg>
