<?xml version="1.0" encoding="iso-8859-1"?>
<!-- Generator: Adobe Illustrator 24.0.1, SVG Export Plug-In . SVG Version: 6.00 Build 0)  -->
<svg version="1.1" xmlns="http://www.w3.org/2000/svg" xmlns:xlink="http://www.w3.org/1999/xlink" x="0px" y="0px"
	 viewBox="0 0 1280 600" style="enable-background:new 0 0 1280 600;" xml:space="preserve">
<g id="&#xB808;&#xC774;&#xC5B4;_1" style="display:none;">
	
		<image style="display:inline;overflow:visible;" width="724" height="600" xlink:href="../&#x1102;&#x1166;&#x110B;&#x1175;&#x1107;&#x1165; MYBOX/&#x110C;&#x1169;&#x11BC;&#x1105;&#x1169; &#x110B;&#x1175;&#x110C;&#x1166;&#x11AB; Publishing/pfjjy_PR/pfjjy_nextjs/pfjjy/public/contact_left/010.png" >
	</image>
	
		<image style="display:inline;overflow:visible;" width="772" height="598" xlink:href="../&#x1102;&#x1166;&#x110B;&#x1175;&#x1107;&#x1165; MYBOX/&#x110C;&#x1169;&#x11BC;&#x1105;&#x1169; &#x110B;&#x1175;&#x110C;&#x1166;&#x11AB; Publishing/pfjjy_PR/pfjjy_nextjs/pfjjy/public/contact_right/010.png"  transform="matrix(1 0 0 1 508 1)">
	</image>
</g>
<g id="&#xB808;&#xC774;&#xC5B4;_2">
	<path style="fill:none;stroke:#000000;stroke-width:3;stroke-miterlimit:10;" d="M172.972-6.892
		c21.48,36.871,42.96,73.742,64.44,110.613c6.065,10.411,12.131,20.823,17.919,31.389c21.399,39.062,39.369,82.371,35.627,126.754
		c-1.412,16.745-5.906,33.345-4.679,50.104c0.616,8.413,2.666,16.647,4.708,24.831c2.533,10.154,5.066,20.308,7.599,30.462
		c1.666,6.678,3.317,13.813,1.06,20.314c-2.099,6.044-7.075,13.518-2.22,17.685c5.128,4.402,12.146-2.79,14.636-9.073
		c7.515-18.962,10.86-39.565,9.73-59.931c3.762-3.921,9.835,1.427,12.417,6.208c14.724,27.258,27.169,55.746,37.162,85.071
		c0.643,1.887,1.323,3.854,2.752,5.244c3.251,3.162,9.083,1.756,11.986-1.728c2.903-3.485,3.607-8.258,3.998-12.776
		c2.202-25.476-2.104-51.488-12.398-74.895c18.044,22.346,27.929,51.139,27.416,79.856c-0.018,1.036-0.036,2.132,0.481,3.03
		c1.404,2.441,5.218,1.474,7.378-0.333c8.031-6.72,8.328-18.77,7.72-29.225c-1.263-21.703-3.589-43.344-6.967-64.82"/>
</g>
<g id="&#xB808;&#xC774;&#xC5B4;_3">
	<path style="fill:none;stroke:#000000;stroke-width:3;stroke-miterlimit:10;" d="M418.058,359.843
		c1.751,10.987,6.502,21.974,8.253,32.961c0.74,4.645,1.537,9.442,4.091,13.391s7.37,6.842,11.926,5.672
		c8.389-16.666,4.116-36.881-2.872-54.182c-6.987-17.301-16.61-33.968-18.798-52.497c18.405,10.859,24.608,33.887,34.987,52.567
		c0.78,1.403,1.635,2.839,2.974,3.725c3.231,2.138,7.911-0.074,9.661-3.53c1.75-3.456,1.354-7.578,0.689-11.395
		c-1.426-8.178-3.897-16.172-7.334-23.728c-18.097-39.784-60.118-62.989-85.201-98.782c-15.416-21.999-23.898-47.984-32.17-73.541
		C327.193,97.76,310.122,45.016,293.05-7.728"/>
</g>
<g id="&#xB808;&#xC774;&#xC5B4;_4">
	<path style="fill:none;stroke:#000000;stroke-width:3;stroke-miterlimit:10;" d="M1174.383-9.465
		c1.713,13.698-5.548,27.081-14.902,37.233c-9.354,10.152-20.877,18.079-30.551,27.927c-10.177,10.36-18.13,22.66-25.781,35.003
		c-38.137,61.518-70.857,126.752-115.864,183.439c-14.012,17.648-29.397,34.596-48.292,46.873
		c-14.291,9.286-30.29,15.703-44.581,24.989c-14.291,9.286-27.312,22.419-30.874,39.085c31.302-2.299,62.604-4.599,93.906-6.898"/>
</g>
<g id="&#xB808;&#xC774;&#xC5B4;_5">
	<path style="fill:none;stroke:#000000;stroke-width:3;stroke-miterlimit:10;" d="M860.859,410.742
		c-2.485,6.165-0.123,11.037,6.049,13.505c6.293,2.516,13.712-0.256,20.089,2.038c3.51,1.263,6.384,3.964,9.946,5.072
		c4.719,1.468,9.953-0.063,14.709,1.278c4.84,1.364,8.522,5.511,13.364,6.87c5.357,1.504,11.096-0.663,16.613,0.065
		c5.733,0.756,11.683,4.551,16.843,1.942c4.005-2.026,5.358-6.931,6.981-11.116c1.458-3.76,3.432-7.296,5.467-10.777
		c7.201-12.319,15.257-24.14,24.089-35.348c4.434-5.627,9.166-11.283,11.336-18.111c1.061-3.337,1.473-6.859,2.606-10.172
		c2.992-8.746,10.554-14.997,17.772-20.771c8.402-6.722,16.906-12.872,25.047-19.908c4.481-3.873,8.747-8.01,13.497-11.548
		c4.635-3.452,9.686-6.302,14.462-9.556c15.568-10.607,27.865-25.252,41.853-37.871c17.203-15.52,37.615-28.701,48.557-49.124
		c6.406-11.957,18.135-20.56,27.201-30.65c3.854-4.289,7.715-8.587,11.146-13.223c6.283-8.491,11.036-17.996,15.755-27.446
		c7.365-14.748,14.823-29.777,17.497-46.044c0.905-5.503,1.321-11.307,4.237-16.061c3.287-5.357,9.181-8.462,13.68-12.851
		c4.406-4.297,7.446-9.808,11.644-14.308c5.047-5.41,11.575-9.166,17.998-12.84"/>
</g>
<g id="&#xB808;&#xC774;&#xC5B4;_6">
	<path style="fill:none;stroke:#000000;stroke-width:3;stroke-miterlimit:10;" d="M865.818,384.8
		c-40.96,5.817-82.174,5.851-123.485,8.088c-1.391,0.075-2.836,0.163-4.058,0.831c-2.545,1.39-3.219,4.672-3.623,7.544
		c-0.624,4.444-0.612,10.145,3.466,12.02c1.564,0.719,3.365,0.63,5.083,0.527c38.997-2.34,78.995,0.32,117.992-2.02"/>
</g>
<g id="&#xB808;&#xC774;&#xC5B4;_7">
	<path style="fill:none;stroke:#000000;stroke-width:3;stroke-miterlimit:10;" d="M859.327,411.734
		c3.892-0.501,7.783-0.002,11.675-0.504c1.473-0.19,2.975-0.388,4.314-1.03c1.758-0.844,3.173-2.425,5.079-2.841
		c2.518-0.55,4.949,1.095,6.936,2.735c1.024,0.846,2.043,1.729,2.779,2.835c1.54,2.314,1.636,5.412,0.612,7.997
		c-1.024,2.585-2.057,3.681-4.401,5.176"/>
</g>
<g id="&#xB808;&#xC774;&#xC5B4;_8">
	<path style="fill:none;stroke:#000000;stroke-width:3;stroke-miterlimit:10;" d="M891.567,414.185
		c3.476-2.506,7.281-4.555,11.285-6.08c2.306-0.878,4.77-1.591,7.216-1.262c3.616,0.486,6.758,3.46,7.444,7.043
		c0.427,2.233-0.026,4.529-0.477,6.756c-0.559,2.757-1.118,5.514-1.677,8.272c-0.251,1.24-0.538,2.55-1.411,3.466"/>
</g>
<g id="&#xB808;&#xC774;&#xC5B4;_9">
	<path style="fill:none;stroke:#000000;stroke-width:3;stroke-miterlimit:10;" d="M917.058,412.855
		c3.519-2.592,7.194-4.975,10.997-7.129c1.569-0.889,3.436-1.76,5.105-1.079c1.624,0.663,2.36,2.509,2.927,4.169
		c3.384,9.906,6.816,20.231,5.548,30.622"/>
</g>
<g id="&#xB808;&#xC774;&#xC5B4;_10">
	<path style="fill:none;stroke:#000000;stroke-width:3;stroke-miterlimit:10;" d="M936.534,408.455
		c0.917-2.984,3.237-5.444,6.044-6.811c2.807-1.367,6.057-1.691,9.143-1.212c1.522,0.236,3.054,0.68,4.274,1.621
		c1.071,0.826,1.835,1.983,2.521,3.149c1.96,3.334,3.454,6.941,4.424,10.685c0.955,3.685,1.465,7.639,3.701,10.719"/>
</g>
<g id="&#xB808;&#xC774;&#xC5B4;_11">
	<path style="fill:none;stroke:#000000;stroke-width:3;stroke-miterlimit:10;" d="M911.172,381.425
		c6.996,6.36,7.767,17.74,3.036,25.925"/>
</g>
</svg>
