<?xml version="1.0" encoding="iso-8859-1"?>
<!-- Generator: Adobe Illustrator 24.0.1, SVG Export Plug-In . SVG Version: 6.00 Build 0)  -->
<svg version="1.1" xmlns="http://www.w3.org/2000/svg" xmlns:xlink="http://www.w3.org/1999/xlink" x="0px" y="0px"
	 viewBox="0 0 1280 600" style="enable-background:new 0 0 1280 600;" xml:space="preserve">
<g id="&#xB808;&#xC774;&#xC5B4;_1" style="display:none;">
	
		<image style="display:inline;overflow:visible;" width="724" height="600" xlink:href="../../&#x1102;&#x1166;&#x110B;&#x1175;&#x1107;&#x1165; MYBOX/&#x110C;&#x1169;&#x11BC;&#x1105;&#x1169; &#x110B;&#x1175;&#x110C;&#x1166;&#x11AB; Publishing/pfjjy_PR/pfjjy_nextjs/pfjjy/public/contact_left/011.png"  transform="matrix(1 0 0 1 0 -2)">
	</image>
	
		<image style="display:inline;overflow:visible;" width="772" height="598" xlink:href="../../&#x1102;&#x1166;&#x110B;&#x1175;&#x1107;&#x1165; MYBOX/&#x110C;&#x1169;&#x11BC;&#x1105;&#x1169; &#x110B;&#x1175;&#x110C;&#x1166;&#x11AB; Publishing/pfjjy_PR/pfjjy_nextjs/pfjjy/public/contact_right/011.png"  transform="matrix(1 0 0 1 508 1)">
	</image>
</g>
<g id="&#xB808;&#xC774;&#xC5B4;_2">
	<path style="fill:none;stroke:#000000;stroke-width:3;stroke-miterlimit:10;" d="M220.866-13.235
		c4.6,24.375,17.03,46.452,29.271,68.026c17.732,31.251,35.465,62.503,53.197,93.754c24.09,42.456,29.772,94.441,25.294,143.05
		c-0.927,10.066-2.416,20.342-0.071,30.174c1.684,7.062,5.263,13.502,7.974,20.237c8.411,20.903,8.156,45.142-0.693,65.863
		c7.876,4.337,18.211-0.855,22.827-8.571c4.617-7.715,5.144-17.097,6.038-26.044c1.388-13.893,3.944-27.669,7.632-41.136
		c20.569,24.56,34.938,54.27,41.421,85.643c0.892,4.318,1.72,8.854,4.436,12.327c2.716,3.473,8.023,5.382,11.642,2.863
		c2.865-1.993,3.634-5.836,4.066-9.299c3.28-26.317,0.381-53.384-8.397-78.409c9.903,10.17,16.756,23.273,19.461,37.207
		c2.31,11.9,1.665,24.316,4.965,35.98c0.611,2.161,1.6,4.546,3.714,5.305c4.03,1.447,6.933-3.934,7.732-8.141
		c4.618-24.325,4.481-49.544-0.399-73.817"/>
</g>
<g id="&#xB808;&#xC774;&#xC5B4;_3">
	<path style="fill:none;stroke:#000000;stroke-width:3;stroke-miterlimit:10;" d="M464.988,379.389l15.986,23.573
		c1.701,2.624,5.763,1.628,6.058-1.484c2.011-21.193-2.323-42.979-12.427-61.726c-7.379-13.692-18.137-28.192-13.89-43.155
		c11.052,8.939,20.203,20.218,26.672,32.875c4.333,8.477,8.449,18.504,17.439,21.637c4.876-2.329,4.512-9.357,2.936-14.525
		c-17.085-56.029-82.186-85.142-104.301-139.383c-13.198-32.372-26.753-67.667-39.609-100.175S340.5,27.5,339.36-9.068"/>
</g>
<g id="&#xB808;&#xC774;&#xC5B4;_4">
	<path style="fill:none;stroke:#000000;stroke-width:3;stroke-miterlimit:10;" d="M1169.723-7.54
		c-7.793,16.739-21.692,29.735-35.53,41.958c-27.976,24.711-58.073,49.395-73.095,83.566c-4.117,9.364-7.127,19.48-13.709,27.309
		c-29.933,35.601-45.421,80.462-72.361,118.378c-13.83,19.466-27.914,39.203-46.575,54.102
		c-16.129,12.877-36.293,21.537-55.216,29.774c-5.062,2.203-10.235,4.327-14.637,7.658c-4.532,3.429-8.054,7.991-11.519,12.495
		c-4.041,5.253-8.082,10.506-12.123,15.76c-1.106,1.438-2.266,3.026-2.249,4.841c0.039,4.272,5.799,5.592,10.064,5.333
		c30.558-1.855,60.127-16.202,90.568-12.947"/>
</g>
<g id="&#xB808;&#xC774;&#xC5B4;_5">
	<path style="fill:none;stroke:#000000;stroke-width:3;stroke-miterlimit:10;" d="M834.59,385.756
		c-25.946,3.165-51.891,6.331-77.837,9.496c-8.723,1.064-17.486,2.13-26.269,1.863c-6.127-0.186-12.563-0.966-18.135,1.59
		c-5.571,2.556-9.358,10.143-5.579,14.968c2.812,3.591,8.065,3.833,12.625,3.752c37.95-0.672,77.886-3.115,115.777-5.328"/>
</g>
<g id="&#xB808;&#xC774;&#xC5B4;_6">
	<path style="fill:none;stroke:#000000;stroke-width:3;stroke-miterlimit:10;" d="M835.24,410.324
		c-1.31,4.564,0.505,9.856,4.34,12.655c7.128,5.203,17.622,1.125,25.691,4.699c2.856,1.265,5.23,3.424,8.027,4.812
		c3.623,1.799,7.914,2.211,11.814,1.137c1.997-0.55,3.942-1.482,6.014-1.451c3.442,0.05,6.206,2.666,9.106,4.521
		c5.053,3.232,11.415,4.348,17.267,3.026c1.902-0.429,3.863-1.107,5.754-0.631c1.448,0.364,2.652,1.365,4.046,1.9
		c5.025,1.929,10.055-2.523,13.609-6.565c2.021-2.298,4.041-4.596,6.062-6.894c1.037-1.179,2.089-2.381,2.744-3.807
		c0.818-1.781,0.964-3.787,1.448-5.687c1.109-4.347,3.949-8.011,6.691-11.562c5.575-7.221,11.056-14.592,15.089-22.774
		c7.369-14.949,10.117-32.849,22.138-44.393c9.989-9.592,19.203-20.276,29.485-29.554c7.669-6.921,15.648-13.488,23.624-20.052
		c5.734-4.719,11.468-9.439,17.202-14.158c18.267-15.034,36.544-30.077,55.582-44.122c19.35-14.276,32.962-35.274,47.446-54.47
		c6.226-8.252,12.916-16.153,18.942-24.552c7.848-10.937,14.527-22.659,21.191-34.355c5.631-9.884,11.321-19.907,14.252-30.899
		c1.397-5.237,2.175-10.712,4.609-15.556c2.042-4.064,5.15-7.478,8.218-10.836c13.075-14.307,26.149-28.615,39.224-42.922
		c3.879-4.245,7.762-8.494,11.936-12.449"/>
</g>
<g id="&#xB808;&#xC774;&#xC5B4;_7">
	<path style="fill:none;stroke:#000000;stroke-width:3;stroke-miterlimit:10;" d="M835.036,412.224
		c4.447-0.792,8.979-0.948,13.493-1.102c5.923-0.202,11.846-0.403,17.769-0.605c1.194-0.041,2.574-0.001,3.319,0.933
		c0.653,0.819,0.537,1.995,0.323,3.02c-0.947,4.536-3.183,8.795-6.378,12.151"/>
</g>
<g id="&#xB808;&#xC774;&#xC5B4;_8">
	<path style="fill:none;stroke:#000000;stroke-width:3;stroke-miterlimit:10;" d="M869.778,411.455
		c5.547-4.693,14.832-7.284,22.097-7.146c0.443,0.008,0.907,0.032,1.289,0.258c0.628,0.371,0.845,1.161,0.997,1.875
		c1.8,8.483,1.981,17.308,0.53,25.858"/>
</g>
<g id="&#xB808;&#xC774;&#xC5B4;_9">
	<path style="fill:none;stroke:#000000;stroke-width:3;stroke-miterlimit:10;" d="M894.638,409.393
		c2.155-4.001,8.974-6.38,13.461-5.658c4.487,0.722,8.316,4.493,9.107,8.968c0.322,1.82,0.182,3.684,0.204,5.532
		c0.051,4.301,0.999,8.588,2.764,12.51c1.075,2.388,2.487,4.835,2.179,7.436"/>
</g>
<g id="&#xB808;&#xC774;&#xC5B4;_10">
	<path style="fill:none;stroke:#000000;stroke-width:3;stroke-miterlimit:10;" d="M916.204,410.256
		c2.13-2.128,4.289-4.278,6.872-5.824c2.584-1.546,5.678-2.45,8.63-1.859c4.855,0.972,8.079,5.599,9.992,10.165
		c1.913,4.566,3.123,9.575,6.304,13.369"/>
</g>
<g id="&#xB808;&#xC774;&#xC5B4;_11">
	<path style="fill:none;stroke:#000000;stroke-width:3;stroke-miterlimit:10;" d="M895.563,383.731
		c1.26,6.513,0.644,14.379-1.755,20.564"/>
</g>
</svg>
