<?xml version="1.0" encoding="iso-8859-1"?>
<!-- Generator: Adobe Illustrator 24.0.1, SVG Export Plug-In . SVG Version: 6.00 Build 0)  -->
<svg version="1.1" xmlns="http://www.w3.org/2000/svg" xmlns:xlink="http://www.w3.org/1999/xlink" x="0px" y="0px"
	 viewBox="0 0 1280 600" style="enable-background:new 0 0 1280 600;" xml:space="preserve">
<g id="&#xB808;&#xC774;&#xC5B4;_1" style="display:none;">
	
		<image style="display:inline;overflow:visible;" width="724" height="600" xlink:href="../../&#x1102;&#x1166;&#x110B;&#x1175;&#x1107;&#x1165; MYBOX/&#x110C;&#x1169;&#x11BC;&#x1105;&#x1169; &#x110B;&#x1175;&#x110C;&#x1166;&#x11AB; Publishing/pfjjy_PR/pfjjy_nextjs/pfjjy/public/contact_left/012.png" >
	</image>
	
		<image style="display:inline;overflow:visible;" width="772" height="598" xlink:href="../../&#x1102;&#x1166;&#x110B;&#x1175;&#x1107;&#x1165; MYBOX/&#x110C;&#x1169;&#x11BC;&#x1105;&#x1169; &#x110B;&#x1175;&#x110C;&#x1166;&#x11AB; Publishing/pfjjy_PR/pfjjy_nextjs/pfjjy/public/contact_right/012.png"  transform="matrix(1 0 0 1 508 1)">
	</image>
</g>
<g id="&#xB808;&#xC774;&#xC5B4;_2">
	<path style="fill:none;stroke:#000000;stroke-width:3;stroke-miterlimit:10;" d="M255.207-9.167
		c21.753,50.194,62.623,89.638,88.805,137.671c9.875,18.117,17.583,37.318,25.266,56.468c8.273,20.618,16.627,41.553,19.069,63.634
		c2.689,24.313-1.92,48.781-2.694,73.23c-0.861,27.209,3.032,54.32,6.916,81.264c0.113,0.784,0.243,1.609,0.732,2.232
		c0.993,1.264,2.944,1.134,4.474,0.642c6.436-2.071,10.861-8.242,12.731-14.739s1.617-13.386,1.479-20.146
		c-0.213-10.39-0.118-20.785,0.283-31.169c0.059-1.514,0.208-3.21,1.361-4.193c2.224-1.895,5.452,0.53,7.314,2.782
		c17.887,21.639,36.604,45.279,38.47,73.292c0.279,4.189,0.188,8.51,1.73,12.415s5.301,7.34,9.474,6.89
		c5.002-0.54,7.806-5.952,9.315-10.751c8.023-25.52,4.355-54.468-9.781-77.18c7.991-0.886,12.831,8.415,15.19,16.101
		c5.775,18.814,10.86,37.84,15.24,57.027c0.423,1.853,0.893,3.809,2.22,5.169c4.269,4.376,11.361-1.327,13.836-6.917
		c10.277-23.208,2.333-50.696-10.885-72.365"/>
</g>
<g id="&#xB808;&#xC774;&#xC5B4;_3">
	<path style="fill:none;stroke:#000000;stroke-width:3;stroke-miterlimit:10;" d="M521.665,386.745
		c2.133,5.059,4.267,10.118,6.4,15.177c0.738,1.75,1.745,3.729,3.608,4.095c3.089,0.607,4.773-3.47,5.103-6.6
		c2.402-22.769-1.814-46.197-12.001-66.7c-5.529-11.129-13.022-22.872-10.244-34.985c3.681,6.047,7.362,12.093,11.042,18.14
		c6.278,10.312,12.652,20.748,21.331,29.141c3.605,3.486,9.413,6.634,13.238,3.391c3.238-2.746,2.307-7.905,0.869-11.9
		c-12.253-34.034-39.753-59.82-63.652-86.973c-14.365-16.321-27.678-33.534-40.979-50.733c-6.585-8.515-13.255-17.176-17.231-27.179
		c-2.7-6.793-4.092-14.056-6.881-20.812c-2.192-5.31-5.214-10.229-7.873-15.321c-8.997-17.228-13.778-36.291-18.482-55.149
		c-7.591-30.431-15.182-60.862-22.773-91.293"/>
</g>
<g id="&#xB808;&#xC774;&#xC5B4;_4">
	<path style="fill:none;stroke:#000000;stroke-width:3;stroke-miterlimit:10;" d="M1117.341-9.703
		c-6.848,16.122-13.916,32.592-25.791,45.469c-11.422,12.385-26.591,20.668-38.938,32.132
		c-11.789,10.946-20.746,24.541-29.332,38.144c-19.989,31.669-38.626,64.168-57.256,96.655
		c-19.606,34.189-43.986,60.021-67.584,91.586c-4.008,5.361-8.073,10.782-13.282,14.984c-7.688,6.201-17.316,9.329-26.422,13.154
		c-30.518,12.821-57.084,34.881-75.296,62.524c8.089,5.698,19.031,0.842,28.153-2.991c24.815-10.426,53.201-12.113,79.076-4.701"/>
</g>
<g id="&#xB808;&#xC774;&#xC5B4;_5">
	<path style="fill:none;stroke:#000000;stroke-width:3;stroke-miterlimit:10;" d="M781.733,411.78
		c-0.727,4.782,3.901,8.787,8.531,10.186c4.63,1.399,9.686,1.281,14.11,3.237c3.624,1.602,6.585,4.5,10.288,5.91
		c7.556,2.877,16.439-1.012,23.983,1.899c4.261,1.644,7.511,5.265,11.729,7.017c5.976,2.481,12.774,0.841,19.026-0.827
		c5.887-1.571,11.892-3.194,16.961-6.574c4.123-2.749,7.436-6.539,10.499-10.434c10.407-13.232,18.486-28.128,25.941-43.221
		c5.704-11.548,11.138-23.364,19.008-33.56c6.999-9.067,15.852-16.695,25.854-22.276c51.337-28.645,89.843-74.953,131.364-116.571
		c4.563-4.574,9.124-9.227,12.621-14.659c11.104-17.247,27.859-32.226,37.3-50.437c4.514-8.707,8.04-17.946,13.267-26.244
		c5.071-8.05,11.802-15.358,14.308-24.537c1.612-5.904,1.341-12.177,2.734-18.136c3.407-14.574,15.912-24.893,27.155-34.775
		c15.638-13.744,30.178-28.738,43.435-44.792"/>
</g>
<g id="&#xB808;&#xC774;&#xC5B4;_6">
	<path style="fill:none;stroke:#000000;stroke-width:3;stroke-miterlimit:10;" d="M785.571,384.517
		c-19.792,3.019-39.619,6.041-59.606,7.208c-19.565,1.143-39.254,0.507-58.7,2.945c-2.375,0.298-4.808,0.662-6.894,1.836
		c-2.941,1.655-4.899,4.93-4.965,8.304c-0.066,3.374,1.763,6.723,4.638,8.491c2.554,1.571,5.67,1.88,8.667,1.999
		c12.728,0.507,25.385-1.694,38.056-3.003c25.723-2.658,51.68-1.645,77.487,0.01"/>
</g>
<g id="&#xB808;&#xC774;&#xC5B4;_7">
	<path style="fill:none;stroke:#000000;stroke-width:3;stroke-miterlimit:10;" d="M782.608,412.662
		c5.998-0.254,12.092-0.526,17.778-2.454c3.077-1.044,6.187-2.587,9.404-2.131c0.658,0.093,1.327,0.283,1.83,0.717
		c0.897,0.775,1.038,2.09,1.115,3.273c0.091,1.388,0.182,2.775,0.273,4.163c0.027,0.416,0.054,0.839-0.045,1.244
		c-0.139,0.57-0.513,1.05-0.877,1.51c-1.711,2.164-3.421,4.329-5.132,6.493"/>
</g>
<g id="&#xB808;&#xC774;&#xC5B4;_8">
	<path style="fill:none;stroke:#000000;stroke-width:3;stroke-miterlimit:10;" d="M813.899,413.078
		c3.518-3.035,8.676-5.324,13.123-6.671c2.045-0.62,4.462-0.979,6.152,0.33c0.94,0.728,1.476,1.852,1.924,2.953
		c2.899,7.113,3.526,15.133,1.766,22.611"/>
</g>
<g id="&#xB808;&#xC774;&#xC5B4;_9">
	<path style="fill:none;stroke:#000000;stroke-width:3;stroke-miterlimit:10;" d="M836.642,412.373
		c3.059-1.786,5.781-4.147,7.98-6.923c0.814-1.028,1.587-2.139,2.703-2.827c0.779-0.48,1.68-0.723,2.575-0.915
		c3.224-0.69,6.572-0.792,9.832-0.299c0.987,0.149,1.998,0.367,2.81,0.946c0.802,0.572,1.335,1.447,1.735,2.347
		c1.643,3.699,1.308,7.928,1.137,11.972c-0.32,7.587,0.052,15.203,1.112,22.722"/>
</g>
<g id="&#xB808;&#xC774;&#xC5B4;_10">
	<path style="fill:none;stroke:#000000;stroke-width:3;stroke-miterlimit:10;" d="M864.748,404.559
		c3.258-2.137,5.342-6.072,9.067-7.214c2.145-0.658,4.6-0.198,6.361,1.193c3.641,2.875,3.52,8.277,4.041,12.887
		c0.382,3.379,1.285,6.699,2.669,9.806c1.351,3.033,3.206,6.256,2.325,9.457"/>
</g>
<g id="&#xB808;&#xC774;&#xC5B4;_11">
	<path style="fill:none;stroke:#000000;stroke-width:3;stroke-miterlimit:10;" d="M839.312,373.661
		c0.843,3.844,4.215,6.835,4.741,10.735c0.17,1.261,0.027,2.54-0.116,3.804c-0.188,1.659-0.388,3.361-1.156,4.843
		c-1.005,1.941-2.853,3.271-4.519,4.685c-2.679,2.274-5.029,4.935-6.955,7.874"/>
</g>
</svg>
