<?xml version="1.0" encoding="iso-8859-1"?>
<!-- Generator: Adobe Illustrator 24.0.1, SVG Export Plug-In . SVG Version: 6.00 Build 0)  -->
<svg version="1.1" xmlns="http://www.w3.org/2000/svg" xmlns:xlink="http://www.w3.org/1999/xlink" x="0px" y="0px"
	 viewBox="0 0 1280 600" style="enable-background:new 0 0 1280 600;" xml:space="preserve">
<g id="&#xB808;&#xC774;&#xC5B4;_1" style="display:none;">
	
		<image style="display:inline;overflow:visible;" width="724" height="600" xlink:href="../../&#x1102;&#x1166;&#x110B;&#x1175;&#x1107;&#x1165; MYBOX/&#x110C;&#x1169;&#x11BC;&#x1105;&#x1169; &#x110B;&#x1175;&#x110C;&#x1166;&#x11AB; Publishing/pfjjy_PR/pfjjy_nextjs/pfjjy/public/contact_left/013.png" >
	</image>
	
		<image style="display:inline;overflow:visible;" width="772" height="598" xlink:href="../../&#x1102;&#x1166;&#x110B;&#x1175;&#x1107;&#x1165; MYBOX/&#x110C;&#x1169;&#x11BC;&#x1105;&#x1169; &#x110B;&#x1175;&#x110C;&#x1166;&#x11AB; Publishing/pfjjy_PR/pfjjy_nextjs/pfjjy/public/contact_right/013.png"  transform="matrix(1 0 0 1 508 1)">
	</image>
</g>
<g id="&#xB808;&#xC774;&#xC5B4;_2">
	<path style="fill:none;stroke:#000000;stroke-width:3;stroke-miterlimit:10;" d="M266.759-11.838
		c32.478,48.346,64.956,96.691,97.434,145.037c16.41,24.427,15.236,57.655,27.233,84.526c3.225,7.223,6.668,14.401,8.718,22.04
		c8.471,31.573-7.488,67.756,7.629,96.74c9.23,17.696,3.008,40.497-2.207,59.763c-0.43,1.589-0.867,3.396,0.01,4.79
		c0.565,0.899,1.573,1.42,2.579,1.76c6.898,2.326,14.562-2.529,17.913-8.991s3.466-14.056,3.508-21.335
		c0.061-10.498,0.121-20.996,0.182-31.494c0.026-4.42,1.336-10.277,5.752-10.47c1.938-0.085,3.678,1.102,5.217,2.284
		c25.574,19.645,39.355,51.304,45.509,82.959c0.646,3.324,1.264,6.772,3.162,9.576s5.481,4.787,8.695,3.721
		c4.678-1.551,5.434-7.745,5.348-12.673c-0.129-7.436-0.257-14.872-0.386-22.308c-0.083-4.826-0.174-9.707-1.399-14.376
		c-3.502-13.355-16.013-24.342-14.84-38.099c17.58,11.686,30.061,30.776,33.717,51.567c1.516,8.623,1.574,17.429,2.444,26.141
		c0.128,1.284,0.371,2.734,1.445,3.45c0.874,0.583,2.035,0.477,3.047,0.196c4.633-1.289,7.864-5.7,9.11-10.344
		c1.246-4.645,0.853-9.551,0.45-14.343c-1.735-20.665-3.495-41.472-9.025-61.458"/>
</g>
<g id="&#xB808;&#xC774;&#xC5B4;_3">
	<path style="fill:none;stroke:#000000;stroke-width:3;stroke-miterlimit:10;" d="M535.843,380.356
		c4.247,2.101,5.386,7.469,6.712,12.018c1.448,4.97,5.196,10.655,10.628,8.846c3.107-1.035,5.163-4.021,5.333-7.292
		c1.942-37.352-22.097-69.694-31.499-105.424c2.567,9.119,11.036,15.03,18.145,21.292c9.508,8.376,17.372,18.603,23.072,29.917
		c1.511,2.999,6.02,1.453,5.379-1.844c-0.616-3.166-1.643-6.313-2.738-9.314c-7.145-19.591-17.07-38.167-29.385-54.996
		c-29.859-40.805-74.224-72.48-91.002-120.177c-2.023-5.751-3.617-11.684-6.35-17.133c-2.766-5.514-6.63-10.395-9.797-15.688
		c-4.897-8.184-8.076-17.259-11.221-26.263c-11.547-33.052-23.114-66.173-31.275-100.22"/>
</g>
<g id="&#xB808;&#xC774;&#xC5B4;_4">
	<path style="fill:none;stroke:#000000;stroke-width:3;stroke-miterlimit:10;" d="M1039.306-10.451
		c-0.474,21.296-15.354,39.521-31.558,53.349s-34.758,25.461-47.287,42.688c-14.992,20.613-20.107,47.634-37.329,66.423
		c-33.252,36.278-63.61,78.359-83.678,123.292c-2.888,6.465-5.459,13.168-9.675,18.857c-6.461,8.721-16.197,14.309-25.646,19.649
		c-12.24,6.918-24.48,13.836-36.721,20.753c-15.702,8.874-32.011,18.307-41.844,33.426c-3.542,5.447-6.996,10.759-10.473,16.248
		c-0.824,1.301-1.683,2.748-1.473,4.274c0.447,3.259,4.931,3.904,8.141,3.18c8.364-1.884,15.522-7.099,23.267-10.776
		c22.701-10.781,49.221-7.969,74.167-4.924"/>
</g>
<g id="&#xB808;&#xC774;&#xC5B4;_5">
	<path style="fill:none;stroke:#000000;stroke-width:3;stroke-miterlimit:10;" d="M707.818,411.102
		c12.782,6.54,24.564,14.081,37.346,20.621c3.326,1.702,6.765,3.437,10.491,3.716c3.388,0.253,6.773-0.722,10.165-0.532
		c5.627,0.315,10.549,3.745,15.932,5.415c6.516,2.022,13.825,1.347,19.86-1.835c1.204,2.93,5.034,4.007,8.089,3.172
		c3.055-0.835,5.502-3.065,7.821-5.222c4.649-4.324,9.345-8.703,12.836-14.006c5.413-8.224,7.63-18.215,12.964-26.491
		c5.029-7.804,12.627-13.762,17.242-21.818c2.772-4.838,4.361-10.256,6.779-15.281c8.159-16.954,24.806-27.909,40.677-38.014
		c21.415-13.634,37.871-31.861,57.791-47.598c8.519-6.731,17.072-13.492,24.533-21.379c10.496-11.096,18.65-24.23,29.118-35.351
		c14.099-14.979,32.503-26.485,42.21-44.621c4.866-9.092,10.347-17.557,16.848-25.562c4.574-5.633,8.327-12.585,8.661-19.834
		c7.025-2.947,11.434-11.425,13.897-18.634s3.409-14.872,5.961-22.05c10.487-29.493,44.422-43.548,61.648-69.684
		c5.37-8.147,9.475-17.845,17.912-22.745"/>
</g>
<g id="&#xB808;&#xC774;&#xC5B4;_6">
	<path style="fill:none;stroke:#000000;stroke-width:3;stroke-miterlimit:10;" d="M717.644,379.27
		c-10.901,0.164-21.295,4.429-32.064,6.124c-5.875,0.925-11.839,1.081-17.784,1.266c-17.793,0.554-35.581,1.379-53.332,2.723
		c-4.48,0.339-8.985,0.716-13.332,1.855c-4.373,1.146-8.506,3.041-12.614,4.928c-0.542,0.249-1.103,0.512-1.49,0.967
		c-0.53,0.623-0.639,1.49-0.726,2.303c-0.262,2.442-0.524,4.925-0.083,7.341s1.688,4.801,3.809,6.04
		c1.971,1.152,4.381,1.171,6.664,1.137c37.363-0.561,76.751-6.023,113.932-2.302"/>
</g>
<g id="&#xB808;&#xC774;&#xC5B4;_7">
	<path style="fill:none;stroke:#000000;stroke-width:3;stroke-miterlimit:10;" d="M709.122,411.553
		c4.799,1.769,10.152,0.854,15.078-0.524c4.926-1.378,9.828-3.215,14.943-3.245c3.141-0.018,6.883,1.209,7.58,4.271
		c0.525,2.307-0.945,4.549-2.34,6.46c-2.226,3.05-4.503,6.151-7.554,8.376"/>
</g>
<g id="&#xB808;&#xC774;&#xC5B4;_8">
	<path style="fill:none;stroke:#000000;stroke-width:3;stroke-miterlimit:10;" d="M746.532,411.922
		c4.544-4.884,14.346-6.376,20.372-3.514c1.021,0.485,2.016,1.103,2.689,2.012c0.799,1.079,1.066,2.453,1.24,3.784
		c0.668,5.101,0.284,10.337-1.119,15.286c-0.649,2.29-1.889,4.85-4.232,5.269"/>
</g>
<g id="&#xB808;&#xC774;&#xC5B4;_9">
	<path style="fill:none;stroke:#000000;stroke-width:3;stroke-miterlimit:10;" d="M771.38,413.44
		c3.947-3.689,7.894-7.378,11.841-11.066c1.28-1.196,3.284-2.426,4.591-1.26c0.469,0.418,0.681,1.047,0.852,1.651
		c0.875,3.088,1.195,6.359,2.564,9.262c1.695,3.594,4.848,6.303,6.799,9.765c2.646,4.696,3.864,11.424,2.942,16.735"/>
</g>
<g id="&#xB808;&#xC774;&#xC5B4;_10">
	<path style="fill:none;stroke:#000000;stroke-width:3;stroke-miterlimit:10;" d="M791.487,412.964
		c0.52-5.12,3.419-10.908,7.674-13.804c3.188-2.17,7.371-2.039,11.203-1.602c2.564,0.292,5.438,0.884,6.814,3.067
		c0.626,0.994,0.84,2.184,1.042,3.341c0.906,5.197,1.812,10.394,2.718,15.591c0.776,4.453,1.556,8.973,1.112,13.471"/>
</g>
<g id="&#xB808;&#xC774;&#xC5B4;_11">
	<path style="fill:none;stroke:#000000;stroke-width:3;stroke-miterlimit:10;" d="M766.936,407.923
		c4.584-1.701,8.926-6.82,10.722-11.368c0.994-2.515,1.143-5.297,0.879-7.989c-0.531-5.399-2.718-10.623-6.191-14.79"/>
</g>
</svg>
