<?xml version="1.0" encoding="iso-8859-1"?>
<!-- Generator: Adobe Illustrator 24.0.1, SVG Export Plug-In . SVG Version: 6.00 Build 0)  -->
<svg version="1.1" xmlns="http://www.w3.org/2000/svg" xmlns:xlink="http://www.w3.org/1999/xlink" x="0px" y="0px"
	 viewBox="0 0 1280 600" style="enable-background:new 0 0 1280 600;" xml:space="preserve">
<g id="&#xB808;&#xC774;&#xC5B4;_1" style="display:none;">
	
		<image style="display:inline;overflow:visible;" width="724" height="600" xlink:href="../../&#x1102;&#x1166;&#x110B;&#x1175;&#x1107;&#x1165; MYBOX/&#x110C;&#x1169;&#x11BC;&#x1105;&#x1169; &#x110B;&#x1175;&#x110C;&#x1166;&#x11AB; Publishing/pfjjy_PR/pfjjy_nextjs/pfjjy/public/contact_left/014.png" >
	</image>
	
		<image style="display:inline;overflow:visible;" width="772" height="598" xlink:href="../../&#x1102;&#x1166;&#x110B;&#x1175;&#x1107;&#x1165; MYBOX/&#x110C;&#x1169;&#x11BC;&#x1105;&#x1169; &#x110B;&#x1175;&#x110C;&#x1166;&#x11AB; Publishing/pfjjy_PR/pfjjy_nextjs/pfjjy/public/contact_right/014.png"  transform="matrix(1 0 0 1 508 1)">
	</image>
</g>
<g id="&#xB808;&#xC774;&#xC5B4;_2">
	<path style="fill:none;stroke:#000000;stroke-width:3;stroke-miterlimit:10;" d="M259.699-10.921
		c20.814,51.796,69.606,87.414,95.371,136.934c9.371,18.011,15.496,37.499,21.573,56.871c4.549,14.501,9.114,29.065,11.515,44.073
		c4.687,29.288,1.01,59.423,5.589,88.728c2.178,13.94,6.208,27.563,7.89,41.571c1.47,12.242,1.129,24.636,2.284,36.912
		c0.18,1.912,0.473,3.986,1.852,5.323c1.372,1.33,3.468,1.568,5.374,1.432c14.689-1.048,22.365-18.679,21.763-33.393
		c-0.602-14.714-6.091-29.329-3.661-43.853c27.149,21.239,45.739,53.12,50.85,87.209c0.629,4.193,1.466,9.046,5.176,11.099
		c3.48,1.925,8.096,0.236,10.613-2.844s3.38-7.168,3.878-11.114c1.587-12.562,0.249-25.483-3.876-37.454
		c-4.187-12.15-11.302-23.942-10.449-36.765c7.443,0.568,12.031,8.216,14.966,15.08c9.211,21.537,14.87,44.589,16.678,67.944
		c6.668,1.93,11.021-6.914,11.888-13.801c3.31-26.297-0.913-53.5-12.041-77.556"/>
</g>
<g id="&#xB808;&#xC774;&#xC5B4;_3">
	<path style="fill:none;stroke:#000000;stroke-width:3;stroke-miterlimit:10;" d="M528.019,360.518
		c5.292,10.861,11.583,21.721,16.875,32.582c1.245,2.555,3.301,5.55,6.094,5.026c3.117-0.584,3.644-4.793,3.334-7.949
		c-1.88-19.142-7.226-37.938-15.7-55.205c-8.269-16.848-19.843-33.818-17.87-52.482c14.381,19.942,30.189,38.856,47.262,56.548
		c5.257-1.28,5.267-8.772,3.623-13.927c-19.496-61.145-93.954-89.693-118.965-148.797c-3.751-8.865-6.28-18.221-10.258-26.986
		c-2.924-6.442-6.604-12.506-9.977-18.724c-6.781-12.501-12.326-25.634-17.495-38.884C402.161,58.961,391.6,25.336,383.357-8.848"/>
</g>
<g id="&#xB808;&#xC774;&#xC5B4;_4">
	<path style="fill:none;stroke:#000000;stroke-width:3;stroke-miterlimit:10;" d="M1054.798-10.05
		c-4.947,23.112-17.241,44.593-34.663,60.565c-20.586,18.873-49.198,31.776-59.002,57.926c-2.528,6.742-3.575,13.942-5.652,20.836
		c-6.708,22.261-23.52,39.777-39.469,56.695c-32.943,34.945-64.515,71.182-94.619,108.6c-4.566,5.676-9.151,11.431-14.855,15.962
		c-13.284,10.552-31.187,13.404-45.399,22.669c-14.942,9.741-25.014,26.054-40.802,34.353c-5.33,2.802-12.4,7.096-10.323,12.747
		c1.552,4.223,7.153,4.947,11.646,4.702c28.329-1.549,56.305-13.475,84.271-8.697"/>
</g>
<g id="&#xB808;&#xC774;&#xC5B4;_5">
	<path style="fill:none;stroke:#000000;stroke-width:3;stroke-miterlimit:10;" d="M707.29,406.944
		c1.287,10.531,9.896,12.03,19.884,15.608c12.463,4.464,24.926,8.929,37.388,13.393c6.866,2.459,13.856,4.945,21.141,5.296
		c21.411,1.033,39.4-16.394,49.955-35.051s16.804-39.898,30.274-56.573c7.548-9.344,17.07-16.864,26.57-24.214
		c44.111-34.127,89.879-66.627,128.599-106.767c30.523-31.643,56.356-67.802,76.397-106.934
		c7.559-14.76,14.513-30.249,26.131-42.081c14.362-14.627,34.932-22.665,47.161-39.118c8.916-11.996,12.602-27.518,22.78-38.463"/>
</g>
<g id="&#xB808;&#xC774;&#xC5B4;_6">
	<path style="fill:none;stroke:#000000;stroke-width:3;stroke-miterlimit:10;" d="M708.924,377.413
		c-35.319,5.947-70.759,11.906-106.551,13.212c-6.772,0.247-14.021,0.477-19.518,4.44c-5.497,3.963-7.605,13.233-2.226,17.355
		c3.037,2.327,7.22,2.233,11.042,2.034c38.44-2.007,76.881-4.013,115.321-6.02"/>
</g>
<g id="&#xB808;&#xC774;&#xC5B4;_7">
	<path style="fill:none;stroke:#000000;stroke-width:3;stroke-miterlimit:10;" d="M707.093,408.994
		c3.692-0.348,7.383-0.696,11.075-1.044c8.59-0.81,17.277-1.641,25.43-4.466c3.134-1.086,6.343-2.484,9.632-2.061
		c2.88,0.371,5.432,2.13,7.358,4.303c3.413,3.853,5.124,9.171,4.558,14.287c-0.566,5.116-3.41,9.945-7.632,12.888"/>
</g>
<g id="&#xB808;&#xC774;&#xC5B4;_8">
	<path style="fill:none;stroke:#000000;stroke-width:3;stroke-miterlimit:10;" d="M764.076,410.451
		c5.367-5.035,10.977-10.467,12.812-17.594c0.332-1.29,0.554-2.664,1.351-3.732c1.234-1.653,3.475-2.119,5.518-2.403
		c3.179-0.441,6.864-0.566,9.092,1.744c1.821,1.889,2.019,4.77,2.093,7.393c0.205,7.268,0.256,14.584-0.918,21.76
		c-0.325,1.988-0.763,4.01-1.838,5.714c-0.945,1.497-2.325,2.658-3.682,3.794c-4.654,3.895-9.309,7.79-13.963,11.685"/>
</g>
<g id="&#xB808;&#xC774;&#xC5B4;_9">
	<path style="fill:none;stroke:#000000;stroke-width:3;stroke-miterlimit:10;" d="M794.547,392.229
		c2.544-2.209,7.38-4.08,10.411-5.55c1.347-0.653,2.951-1.227,4.295-0.567c2.208,1.083,1.872,4.256,1.48,6.683
		c-1.221,7.545,0.366,15.233,0.475,22.876c0.108,7.643-2.736,18.067-8.893,22.596"/>
</g>
<g id="&#xB808;&#xC774;&#xC5B4;_10">
	<path style="fill:none;stroke:#000000;stroke-width:3;stroke-miterlimit:10;" d="M810.795,400.802
		c1.418-1.183,3.865-2.383,5.573-3.086s3.747-0.843,5.347,0.08c2.362,1.362,3.002,4.434,3.277,7.146
		c0.656,6.477,0.581,11.028-0.222,17.489"/>
</g>
<g id="&#xB808;&#xC774;&#xC5B4;_11">
	<path style="fill:none;stroke:#000000;stroke-width:3;stroke-miterlimit:10;" d="M781.061,375.476
		c2.719,2.198,2.345,8.566,0.354,11.439"/>
</g>
</svg>
