<?xml version="1.0" encoding="iso-8859-1"?>
<!-- Generator: Adobe Illustrator 24.0.1, SVG Export Plug-In . SVG Version: 6.00 Build 0)  -->
<svg version="1.1" xmlns="http://www.w3.org/2000/svg" xmlns:xlink="http://www.w3.org/1999/xlink" x="0px" y="0px"
	 viewBox="0 0 1280 600" style="enable-background:new 0 0 1280 600;" xml:space="preserve">
<g id="&#xB808;&#xC774;&#xC5B4;_1" style="display:none;">
	
		<image style="display:inline;overflow:visible;" width="772" height="598" xlink:href="../../&#x1102;&#x1166;&#x110B;&#x1175;&#x1107;&#x1165; MYBOX/&#x110C;&#x1169;&#x11BC;&#x1105;&#x1169; &#x110B;&#x1175;&#x110C;&#x1166;&#x11AB; Publishing/pfjjy_PR/pfjjy_nextjs/pfjjy/public/contact_right/015.png"  transform="matrix(1 0 0 1 508 1)">
	</image>
	
		<image style="display:inline;overflow:visible;" width="724" height="600" xlink:href="../../&#x1102;&#x1166;&#x110B;&#x1175;&#x1107;&#x1165; MYBOX/&#x110C;&#x1169;&#x11BC;&#x1105;&#x1169; &#x110B;&#x1175;&#x110C;&#x1166;&#x11AB; Publishing/pfjjy_PR/pfjjy_nextjs/pfjjy/public/contact_left/015.png" >
	</image>
</g>
<g id="&#xB808;&#xC774;&#xC5B4;_3">
	<path style="fill:none;stroke:#000000;stroke-width:3;stroke-miterlimit:10;" d="M1057.612-9.728
		c-3.112,16.026-13.552,29.731-25.506,40.85s-25.63,20.244-37.762,31.168c-19.685,17.727-34.876,39.784-49.874,61.619
		c-12.775,18.598-25.55,37.196-38.325,55.795c-19.788,28.809-44.514,53.948-63.079,83.56c-13.503,21.538-29.616,43.725-53.63,52.066
		c-11.169,3.879-23.415,4.471-34.093,9.547c-7.57,3.598-13.936,9.26-20.12,14.917c-7.436,6.801-14.777,13.707-22.019,20.715
		c-4.508,4.362-9.314,10.904-6.038,16.254c3.788,6.186,13.144,3.221,19.817,0.376c26.032-11.099,55.588-8.584,83.757-5.871"/>
</g>
<g id="&#xB808;&#xC774;&#xC5B4;_5">
	<path style="fill:none;stroke:#000000;stroke-width:3;stroke-miterlimit:10;" d="M704.436,404.57
		c0.554,3.269,1.185,6.707,3.321,9.242c0.962,1.142,2.183,2.036,3.425,2.864c2.25,1.5,4.616,2.826,7.07,3.961
		c1.461,0.676,3.009,1.295,4.618,1.248c2.4-0.071,4.565-1.61,6.964-1.718c0.53,3.806,3.21,7.27,6.564,9.145
		c1.841,1.029,3.912,1.575,5.981,1.986c2.67,0.53,5.42,0.851,8.114,0.462c4.238-0.611,8.224-2.955,12.498-2.694
		c0.199,1.486,0.431,2.563,1.242,3.824c1.471,2.286,4.2,3.395,6.815,4.135c6.413,1.815,13.564,2.152,19.516-0.847
		c6.875,1.819,14.689,2.574,20.307-1.788c2.973-2.308,4.888-5.707,6.448-9.133c2.439-5.356,4.21-11.009,6.886-16.25
		c2.676-5.241,6.431-10.185,11.683-12.838c7.294-3.684,12.539-11.051,17.854-17.259c5.314-6.208,9.5-13.629,10.625-21.723
		c0.477-3.433,0.402-6.945,1.185-10.322c0.782-3.376,2.637-6.754,5.788-8.198c15.26-6.995,27.352-21.111,40.958-30.944
		c5.158-3.727,10.315-7.454,15.473-11.181c46.902-33.893,94.329-68.269,131.451-112.659c10.179-12.173,14.96-27.516,25.641-39.251
		c3.864-4.245,8.054-8.29,10.927-13.26c2.654-4.591,4.072-9.789,6.423-14.542c2.801-5.664,6.875-10.597,10.02-16.078
		c5.59-9.743,8.759-21.798,18.254-27.799c5.172-12.533,18.736-20.311,29.125-29.022c16.309-13.674,29.445-31.11,38.091-50.558"/>
</g>
<g id="&#xB808;&#xC774;&#xC5B4;_6">
	<path style="fill:none;stroke:#000000;stroke-width:3;stroke-miterlimit:10;" d="M706.374,371.587
		c-17.448,8.075-36.959,10.288-56.106,12.017c-19.863,1.794-39.763,3.183-59.683,4.164c-3.473,0.171-7.01,0.342-10.276,1.537
		c-3.266,1.195-6.279,3.599-7.311,6.92s0.504,7.494,3.787,8.641c1.054,0.368,2.189,0.417,3.304,0.46
		c42.626,1.642,84.354,2.626,126.854-1.04"/>
</g>
<g id="&#xB808;&#xC774;&#xC5B4;_7">
	<path style="fill:none;stroke:#000000;stroke-width:3;stroke-miterlimit:10;" d="M704.246,405.022
		c8.972-1.315,17.945-2.63,26.917-3.946c1.681-0.246,3.524-0.462,4.967,0.435c2.109,1.31,2.299,4.471,1.144,6.669
		c-1.155,2.198-3.254,3.706-5.165,5.292c-1.911,1.585-1.796,3.499-2.214,5.946"/>
</g>
<g id="&#xB808;&#xC774;&#xC5B4;_8">
	<path style="fill:none;stroke:#000000;stroke-width:3;stroke-miterlimit:10;" d="M737.088,403.36c0.634-2.065,2.615-3.49,4.7-4.055
		s4.288-0.416,6.443-0.262c0.95,0.068,1.931,0.144,2.774,0.589c0.914,0.483,1.563,1.348,2.085,2.241
		c2.69,4.603,2.668,10.247,2.478,15.576c-0.064,1.801-0.132,3.652,0.457,5.355c0.845,2.442,5.097,5.339,7.647,5.757"/>
</g>
<g id="&#xB808;&#xC774;&#xC5B4;_9">
	<path style="fill:none;stroke:#000000;stroke-width:3;stroke-miterlimit:10;" d="M755.842,405.103
		c8.477-5.796,11.222-17.477,19.458-23.612c3.166-2.359,7.987-3.592,10.845-0.868c2.967,2.828,1.819,7.662,1.112,11.699
		c-1.463,8.36,0.002,16.91,0.813,25.359c0.613,6.385,0.85,12.807,0.71,19.22"/>
</g>
<g id="&#xB808;&#xC774;&#xC5B4;_10">
	<path style="fill:none;stroke:#000000;stroke-width:3;stroke-miterlimit:10;" d="M787.015,385.752
		c2.505-1.785,5.104-3.517,8.024-4.488c2.919-0.971,6.232-1.111,8.995,0.242c3.965,1.941,6,6.53,6.412,10.925
		c0.412,4.395-0.471,8.797-0.733,13.204c-0.554,9.331,1.434,18.578,2.952,25.793"/>
</g>
<g id="&#xB808;&#xC774;&#xC5B4;_11">
	<path style="fill:none;stroke:#000000;stroke-width:3;stroke-miterlimit:10;" d="M765.417,368.568
		c5.665,3.505,8.043,11.472,5.225,17.509"/>
</g>
<g id="&#xB808;&#xC774;&#xC5B4;_4">
	<g>
		<path style="fill:#FFFFFF;" d="M539.423,288.265c-0.813-2.234-1.538-4.504-2.143-6.823"/>
		<path style="fill:#FFFFFF;" d="M539.423,288.265c-0.833-0.628-1.667-1.257-2.5-1.885"/>
		<path style="fill:#FFFFFF;stroke:#000000;stroke-width:3;stroke-miterlimit:10;" d="M558.801,375.983
			c2.885,7.515,9.253,13.608,16.888,16.158c7.514-18.72,0.111-40.096-10.045-57.524c-8.95-15.357-20.191-29.787-26.221-46.353"/>
		<path style="fill:#FFFFFF;stroke:#000000;stroke-width:3;stroke-miterlimit:10;" d="M388.105-8.575
			c11.119,32.463,12.564,68.719,31.147,97.566c13.626,21.152,25.355,43.527,34.998,66.767c4.007,9.657,7.712,19.571,13.719,28.129
			c9.013,12.842,22.5,21.679,34.183,32.151c11.116,9.964,20.683,21.508,30.206,33.004c16.42,19.825,32.84,39.649,49.26,59.474
			c5.339,6.446,11.013,14.009,9.761,22.285c-0.392,2.589-2.003,5.456-4.619,5.568c-3.662,0.157-5.023-4.596-6.001-8.129
			c-2.951-10.667-12.328-18.099-21.164-24.764c-6.724-5.071-13.448-10.142-20.172-15.214"/>
		<path style="fill:#FFFFFF;stroke:#000000;stroke-width:3;stroke-miterlimit:10;" d="M536.296,320.772
			c19.11,23.836,26.513,56.632,19.496,86.366c-0.828,3.51-2.439,7.616-6.77,7.269c-3.573-0.286-6.287-3.453-6.238-7.036
			c0.249-18.022-7.478-34.641-15.064-50.739c-4.814-10.215-10.531-21.31-21.026-25.478c1.308,15.845,7.964,30.676,12.302,45.971
			c3.538,12.473,5.394,26.256,1.717,38.424c-1.079,3.57-5.799,4.301-7.842,1.182c-19.416-29.642-38.832-59.285-58.249-88.927
			c-2.706-4.132-9.038-8.423-11.509-3.808c-0.477,0.891-0.617,1.923-0.536,2.93c1.144,14.254,1.221,28.593,0.233,42.859
			c-0.628,9.07-2.075,18.982-10.42,24.159c-4.288,2.66-9.906,2.495-13.704-0.828c-3.986-3.488-3.411-8.272-3.171-12.746
			c1.386-25.763-10.017-50.728-10.178-76.529c-0.08-12.772,2.602-25.39,3.598-38.123c1.431-18.279-0.63-36.719-4.74-54.588
			c-8.153-35.443-24.47-68.981-47.323-97.272c-8.49-10.51-17.847-20.283-26.804-30.398c-24.858-28.072-46.67-58.841-64.929-91.591"
			/>
	</g>
</g>
</svg>
