<?xml version="1.0" encoding="iso-8859-1"?>
<!-- Generator: Adobe Illustrator 24.0.1, SVG Export Plug-In . SVG Version: 6.00 Build 0)  -->
<svg version="1.1" xmlns="http://www.w3.org/2000/svg" xmlns:xlink="http://www.w3.org/1999/xlink" x="0px" y="0px"
	 viewBox="0 0 1280 600" style="enable-background:new 0 0 1280 600;" xml:space="preserve">
<g id="&#xB808;&#xC774;&#xC5B4;_1" style="display:none;">
	
		<image style="display:inline;overflow:visible;" width="772" height="598" xlink:href="../../&#x1102;&#x1166;&#x110B;&#x1175;&#x1107;&#x1165; MYBOX/&#x110C;&#x1169;&#x11BC;&#x1105;&#x1169; &#x110B;&#x1175;&#x110C;&#x1166;&#x11AB; Publishing/pfjjy_PR/pfjjy_nextjs/pfjjy/public/contact_right/016.png"  transform="matrix(1 0 0 1 508 1)">
	</image>
	
		<image style="display:inline;overflow:visible;" width="724" height="600" xlink:href="../../&#x1102;&#x1166;&#x110B;&#x1175;&#x1107;&#x1165; MYBOX/&#x110C;&#x1169;&#x11BC;&#x1105;&#x1169; &#x110B;&#x1175;&#x110C;&#x1166;&#x11AB; Publishing/pfjjy_PR/pfjjy_nextjs/pfjjy/public/contact_left/016.png" >
	</image>
</g>
<g id="&#xB808;&#xC774;&#xC5B4;_5">
</g>
<g id="&#xB808;&#xC774;&#xC5B4;_2">
	<path style="fill:none;stroke:#000000;stroke-width:3;stroke-miterlimit:10;" d="M700.048,370.341
		c-40.077,17.49-85.059,10.932-128.17,18.245c-3.891,0.66-8.381,1.915-9.809,5.595c-1.403,3.614,1.186,7.788,4.66,9.51
		c3.473,1.722,7.532,1.63,11.407,1.5c41.011-1.371,81.022-1.742,122.034-3.112"/>
	<path style="fill:none;stroke:#000000;stroke-width:3;stroke-miterlimit:10;" d="M695.611,401.972
		c4.112,9.574,7.495,9.365,15.701,11.515c5.905,1.548,12.308,0.784,18.041,2.882c2.162,0.792,3.905,1.445,4.65,3.624
		c0.224,0.655,0.284,1.357,0.51,2.012c0.824,2.388,3.648,3.529,6.174,3.461c2.526-0.068,4.934-1.026,7.417-1.489
		c3.994-0.746,8.222-0.175,11.876,1.602c2.011,3.075,4.9,4.613,8.473,5.473c6.945,1.673,14.542-1.829,21.266,0.583
		c2.412,0.865,4.83,2.325,7.389,2.182c2.559-0.143,5.004-1.069,7.358-2.082c3.302-1.421,6.598-3.094,9.04-5.734
		c4.276-4.623,5.215-11.327,5.955-17.58c0.166-1.408,0.333-2.822,0.287-4.238c-0.208-6.321,6.948-10.311,11.299-14.902
		c12.903-13.612,25.277-28.935,29.071-47.303c19-20.351,42.649-33.401,66.421-47.893c12.5-7.62,25-15.241,37.499-22.861
		c8.957-5.461,18.16-11.144,24.302-19.648c11.283-15.622,25.132-27.649,40.646-39.08c4.226-3.114,8.55-6.118,12.47-9.609
		c5.406-4.815,9.969-10.487,14.504-16.131c6.263-7.794,12.526-15.587,18.788-23.381c0.541-8.649,4.89-16.847,9.259-24.331
		c13.991-23.969,29.744-46.908,47.092-68.572c9.318-11.636,21.701-19.109,34.091-27.397c5.989-4.006,12.141-7.856,17.385-12.796
		c5.091-4.796,9.212-10.511,13.298-16.188c4.389-6.097,8.779-12.195,13.168-18.292"/>
</g>
<g id="&#xB808;&#xC774;&#xC5B4;_3">
	<path style="fill:none;stroke:#000000;stroke-width:3;stroke-miterlimit:10;" d="M1063.385-5.103
		c-26.307,38.567-58.584,73.054-95.327,101.854c-9.541,7.478-14.245,16.938-21.139,26.909c-2.465,3.565-4.9,7.173-6.795,11.071
		c-4.104,8.442-5.874,18.498-12.858,24.77c-39.486,35.459-70.563,78.871-103.852,120.203c-6.835,8.487-13.765,17.232-23.036,22.958
		c-4.026,2.487-8.404,4.343-12.761,6.188c-16.461,6.972-32.921,13.944-49.382,20.916c-15.85,6.713-29.314,20.477-37.448,35.647
		c-1.265,2.359-2.306,5.616-0.329,7.42c0.927,0.845,2.257,1.056,3.509,1.148c7.792,0.574,15.773-2.127,21.616-7.315
		c2.095-1.86,3.937-4.032,6.277-5.574c5.009-3.301,11.437-1.231,17.433-1.046c14.288,0.443,28.576,0.885,42.864,1.328"/>
</g>
<g id="&#xB808;&#xC774;&#xC5B4;_6">
	<path style="fill:none;stroke:#000000;stroke-width:3;stroke-miterlimit:10;" d="M698.196,402.463
		c12.359-3.789,25.394-5.362,38.299-4.621c1.432,0.082,2.915,0.207,4.17,0.902s2.222,2.118,1.936,3.524
		c-0.31,1.524-1.859,2.414-3.251,3.108c-5.934,2.958-11.867,5.915-17.801,8.873"/>
</g>
<g id="&#xB808;&#xC774;&#xC5B4;_7">
	<path style="fill:none;stroke:#000000;stroke-width:3;stroke-miterlimit:10;" d="M742.736,402.229
		c10.655-5.971,20.07-14.144,27.479-23.854c0.786-1.03,1.565-2.093,2.608-2.861c2.578-1.9,6.126-1.598,9.273-1.006
		c1.304,0.245,2.653,0.549,3.695,1.371s1.676,2.313,1.116,3.516"/>
</g>
<g id="&#xB808;&#xC774;&#xC5B4;_8">
	<path style="fill:none;stroke:#000000;stroke-width:3;stroke-miterlimit:10;" d="M754.896,424.05
		c9.205-7.247,19.571-18.558,26.88-27.715c2.555-3.201,5.114-6.985,4.53-11.039c-0.26-1.806-1.077-3.87,0.074-5.285
		c0.661-0.813,1.768-1.086,2.801-1.259c3.414-0.572,6.922-0.578,10.337-0.017c0.901,0.148,1.848,0.362,2.502,0.999
		c0.559,0.544,0.819,1.318,1.04,2.066c5.317,18.027-3.181,39.168-19.495,48.5"/>
</g>
<g id="&#xB808;&#xC774;&#xC5B4;_9">
	<path style="fill:none;stroke:#000000;stroke-width:3;stroke-miterlimit:10;" d="M801.536,408.803
		c5.104-3.404,11.262-5.204,17.396-5.085c0.027,0.425,0.054,0.849,0.081,1.274"/>
</g>
<g id="&#xB808;&#xC774;&#xC5B4;_10">
	<path style="fill:none;stroke:#000000;stroke-width:3;stroke-miterlimit:10;" d="M758.277,360.172
		c5.544,4.188,10.859,11.856,11.13,18.799"/>
</g>
<g id="&#xB808;&#xC774;&#xC5B4;_4">
	<g>
		<path style="fill:#FFFFFF;stroke:#000000;stroke-width:3;stroke-miterlimit:10;" d="M550.139,281.027
			c6.612,1.101,12.402,5.146,17.086,9.931c4.683,4.785,8.469,10.357,12.746,15.508c3.792,4.566,7.978,8.808,12.496,12.661
			c1.815,1.548,3.762,3.074,6.077,3.655c4.729,1.188,10.057-2.637,10.431-7.488c0.412-5.351-4.111-9.592-7.642-13.64
			c-3.711-4.255-6.641-9.123-10.09-13.592c-5-6.479-11.048-12.067-17.064-17.62c-6.732-6.214-13.464-12.428-20.196-18.642
			c-4.932-4.552-9.903-9.135-15.616-12.663c-8.56-5.286-16.211-12.71-24.036-19.028c-2.605-2.104-5.218-4.214-7.55-6.616
			c-3.146-3.241-5.738-6.969-8.702-10.376c-3.076-3.536-6.558-6.733-9.305-10.528c-2.749-3.799-4.696-8.105-6.612-12.383
			c-3.602-8.042-7.164-16.102-10.686-24.179c-1.742-3.994-3.331-8.505-6.179-11.807c-1.793-2.08-3.882-3.908-5.498-6.128
			c-2.166-2.976-3.382-6.514-4.729-9.937c-8.087-20.559-21.817-38.802-27.724-60.087c-2.571-9.265-8.083-17.128-11.254-26.206
			c-5.621-16.089-15.004-30.633-21.033-46.574"/>
		<path style="fill:#FFFFFF;stroke:#000000;stroke-width:3;stroke-miterlimit:10;" d="M547.385,268.323
			c0.719,13.426,4.088,27.216,12.672,37.565c4.798,5.785,11.08,10.327,15.153,16.644c2.415,3.746,3.957,7.974,5.48,12.163
			c4.103,11.287,8.22,22.622,10.669,34.38c1.06,5.09,1.695,10.793-1.169,15.132c-1.381,2.092-4.263,3.715-6.336,2.307
			c-0.753-0.512-1.235-1.327-1.692-2.115c-5.419-9.342-10.837-18.684-16.256-28.026"/>
		<path style="fill:#FFFFFF;stroke:#000000;stroke-width:3;stroke-miterlimit:10;" d="M552.569,320.437
			c3.673,10.324,7.347,20.648,11.02,30.971c1.275,3.584,2.552,7.174,3.482,10.862c3.378,13.4,2.047,27.529-0.286,41.15
			c-0.554,3.232-1.707,7.07-4.885,7.879c-2.472,0.629-4.973-1.009-6.628-2.95c-3.622-4.246-4.871-10.028-5.221-15.598
			c-0.351-5.57,0.068-11.196-0.782-16.712c-1.855-12.044-9.485-22.287-16.872-31.979c-1.802-2.363-3.603-4.727-5.405-7.09
			c-2.452-3.217-5.923-6.815-9.831-5.771c2.019,9.823,6.04,18.982,10.174,28.119c7.698,17.013,8.965,35.124,11.592,53.612
			c0.387,2.723,0.655,5.732-0.897,8.003c-2.535,3.71-8.605,3.049-11.824-0.086c-3.219-3.135-4.383-7.752-5.586-12.081
			c-8.774-31.572-27.034-60.442-51.799-81.899c-2.407-2.086-5.512-4.236-8.523-3.194c-2.66,0.921-3.914,3.926-4.589,6.659
			c-4.196,16.972,1.795,35.29-2.783,52.162c-1.352,4.984-3.933,10.056-8.56,12.349s-11.466,0.29-12.579-4.753
			c-0.517-2.345,0.238-4.755,0.81-7.087c6.775-27.62-11.864-54.549-16.795-82.556c-4.07-23.113,2.185-44.425,7.569-67.268
			c-18.169-53.325-39.506-107.115-77.13-149.045c-13.642-15.203-29.215-28.59-42.732-43.904
			c-13.518-15.313-25.164-33.118-28.813-53.216"/>
	</g>
</g>
</svg>
