<?xml version="1.0" encoding="iso-8859-1"?>
<!-- Generator: Adobe Illustrator 24.0.1, SVG Export Plug-In . SVG Version: 6.00 Build 0)  -->
<svg version="1.1" xmlns="http://www.w3.org/2000/svg" xmlns:xlink="http://www.w3.org/1999/xlink" x="0px" y="0px"
	 viewBox="0 0 1280 600" style="enable-background:new 0 0 1280 600;" xml:space="preserve">
<g id="&#xB808;&#xC774;&#xC5B4;_1" style="display:none;">
	
		<image style="display:inline;overflow:visible;" width="772" height="598" xlink:href="../../&#x1102;&#x1166;&#x110B;&#x1175;&#x1107;&#x1165; MYBOX/&#x110C;&#x1169;&#x11BC;&#x1105;&#x1169; &#x110B;&#x1175;&#x110C;&#x1166;&#x11AB; Publishing/pfjjy_PR/pfjjy_nextjs/pfjjy/public/contact_right/017.png"  transform="matrix(1 0 0 1 508 1)">
	</image>
	
		<image style="display:inline;overflow:visible;" width="724" height="600" xlink:href="../../&#x1102;&#x1166;&#x110B;&#x1175;&#x1107;&#x1165; MYBOX/&#x110C;&#x1169;&#x11BC;&#x1105;&#x1169; &#x110B;&#x1175;&#x110C;&#x1166;&#x11AB; Publishing/pfjjy_PR/pfjjy_nextjs/pfjjy/public/contact_left/017.png" >
	</image>
</g>
<g id="&#xB808;&#xC774;&#xC5B4;_4">
	<path style="fill:none;stroke:#000000;stroke-width:3;stroke-miterlimit:10;" d="M697.475,364.708
		c-43.19,9.316-87.687,10.433-131.467,16.392c-1.253,0.171-2.588,0.382-3.525,1.232c-0.83,0.753-1.2,1.88-1.454,2.972
		c-0.949,4.083-0.71,8.436,0.68,12.391c42.43-3.644,85.004-5.607,127.589-5.885"/>
</g>
<g id="&#xB808;&#xC774;&#xC5B4;_5">
	<path style="fill:none;stroke:#000000;stroke-width:3;stroke-miterlimit:10;" d="M687.913,392.596
		c1.854,6.132,7.438,10.261,12.704,13.908c2.001,1.386,4.039,2.785,6.345,3.566c2.306,0.781,4.955,0.878,7.089-0.293
		c2.301,5.582,8.146,9.198,14.053,10.446c5.907,1.248,12.114,0.156,17.747-2.018c1.005,2.741,3.936,4.696,6.56,5.974
		c4.983,2.427,10.63,4.616,15.943,3.04c3.77-1.118,7.164-4.082,11.072-3.65c3.017,5.344,10.133,7.178,15.402,4.031
		c1.651-0.987,3.028-2.367,4.352-3.762c9.644-10.155,17.352-22.039,22.388-35.108c2.899-7.524,6.809-14.162,11.606-20.625
		c7.96-10.725,15.92-21.45,23.881-32.175c1.851-2.494,3.945-5.144,6.686-6.398c1.398-0.64,2.672-1.503,3.719-2.629
		c3.615-3.887,8.046-6.77,12.658-9.564c12.714-7.704,25.429-15.407,38.143-23.111c19.021-11.524,36.323-25.79,54.866-38.066
		c12.775-8.457,24.605-18.231,35.727-28.768c12.802-12.129,26.731-22.526,39.664-34.535c6.783-6.298,13.593-12.625,19.387-19.843
		c4.228-5.266,7.881-10.964,11.526-16.65c5.17-8.065,10.339-16.13,15.509-24.195c13.252-20.673,23.997-42.941,44.05-57.113
		c15.554-10.992,28.698-26.127,42.439-39.316c5.36-5.145,10.722-10.421,14.586-16.767c3.996-6.562,6.238-14.016,8.44-21.377"/>
</g>
<g id="&#xB808;&#xC774;&#xC5B4;_3">
	<path style="fill:none;stroke:#000000;stroke-width:3;stroke-miterlimit:10;" d="M1066.21-3.809
		c-8.348,9.467-16.696,18.933-25.043,28.4c-3.933,4.46-7.881,8.935-12.368,12.838c-6.751,5.872-14.635,10.372-21.139,16.517
		c-5.694,5.38-10.196,11.894-15.645,17.523c-9.757,10.077-22.639,17.445-29.65,29.594c-23.553,40.81-59.05,72.643-86.639,110.84
		c-8.567,11.861-17.48,23.346-27.341,34.155c-11.822,12.958-23.784,25.877-37.33,37.02c-13.546,11.143-28.806,20.52-45.623,25.505
		c-12.513,3.709-23.922,9.381-36.199,13.807c-3.18,1.147-6.425,2.329-9.058,4.449c-5.056,4.072-6.965,10.777-8.998,16.943
		c-2.034,6.165-4.976,12.771-10.892,15.446c-2.14,0.968-5.012,1.921-5.079,4.268c-0.062,2.176,2.473,3.407,4.616,3.787
		c5.174,0.917,10.479,0.169,15.689-0.519c28.098-3.714,56.428-5.673,84.771-5.863"/>
</g>
<g id="&#xB808;&#xC774;&#xC5B4;_6">
	<path style="fill:none;stroke:#000000;stroke-width:3;stroke-miterlimit:10;" d="M688.158,391.746
		c8.296,0.077,16.6-0.746,24.72-2.449c3.986-0.836,7.968-1.889,12.04-1.934c2.279-0.025,4.608,0.282,6.643,1.307
		c2.035,1.025,3.748,2.844,4.262,5.064c0.479,2.067-0.119,4.277-1.245,6.076s-2.739,3.238-4.421,4.533
		c-4.851,3.736-9.657,3.158-15.852,5.332"/>
</g>
<g id="&#xB808;&#xC774;&#xC5B4;_7">
	<path style="fill:none;stroke:#000000;stroke-width:3;stroke-miterlimit:10;" d="M735.255,398.279
		c4.632-3.763,9.161-6.814,12.301-11.889c1.12-1.81,2.051-3.732,3.159-5.549c1.634-2.679,3.641-5.109,5.64-7.529
		c0.768-0.93,1.544-1.867,2.49-2.616c3.457-2.741,8.835-2.314,12.215,0.523s4.776,7.627,4.067,11.982
		c-0.53,3.255-2.09,6.238-3.623,9.158c-3.09,5.887-6.206,11.853-10.644,16.804c-4.438,4.95-6.36,5.338-13.048,8.403
		c0.582,0.344-2.836,0.688-2.254,1.033"/>
</g>
<g id="&#xB808;&#xC774;&#xC5B4;_8">
	<path style="fill:none;stroke:#000000;stroke-width:3;stroke-miterlimit:10;" d="M774.653,375.676
		c3.262-4.155,10.969-6.487,16.247-6.7c1.356-0.055,2.744-0.049,4.03,0.385c1.741,0.588,3.125,1.9,4.449,3.174
		c0.632,0.608,1.28,1.238,1.635,2.04c0.361,0.814,0.389,1.734,0.346,2.623c-0.108,2.265-0.639,4.51-1.557,6.584
		c-0.664,1.5-1.529,2.913-2.064,4.463c-0.777,2.251-0.824,4.676-1.074,7.045c-1.196,11.329-7.465,22.026-16.765,28.605"/>
</g>
<g id="&#xB808;&#xC774;&#xC5B4;_9">
	<path style="fill:none;stroke:#000000;stroke-width:3;stroke-miterlimit:10;" d="M800.396,384.012
		c2.673-1.383,5.696-2.081,8.705-2.011c0.742,0.017,1.507,0.087,2.163,0.434c1.406,0.743,1.9,2.487,2.172,4.054
		c1.211,6.975,0.747,14.236-1.343,21"/>
</g>
<g id="&#xB808;&#xC774;&#xC5B4;_10">
	<path style="fill:none;stroke:#000000;stroke-width:3;stroke-miterlimit:10;" d="M760.889,361.776
		c0.324,1.87,0.343,5.792,0.059,7.668"/>
</g>
<g id="&#xB808;&#xC774;&#xC5B4;_2">
	<g>
		<path style="fill:#FFFFFF;stroke:#000000;stroke-width:3;stroke-miterlimit:10;" d="M567.521,280.562
			c1.074,4.919,1.707,10.334,4.745,14.364C582.5,308.5,588.5,321.5,592.788,336.49c2.253,7.875,10.6,12.57,14.714,19.652
			c4.113,7.083,6.454,15.791,3.708,23.507c-0.27,0.758-0.6,1.52-1.174,2.084c-2.453,2.412-6.39-0.446-8.527-3.143
			c-7.143-9.015-14.042-18.223-20.711-27.594"/>
		<path style="fill:none;" d="M567.521,280.562c-0.19-0.872-0.364-1.747-0.502-2.631"/>
		<path style="fill:none;" d="M579.219,348.791c0.521,0.739,1.055,1.469,1.58,2.206"/>
		<path style="fill:#FFFFFF;stroke:#000000;stroke-width:3;stroke-miterlimit:10;" d="M567.521,280.562
			c19.001,8.739,35.247,23.387,45.83,41.43c2.002,3.413,5.524,7.54,9.031,5.707c2.136-1.116,2.694-3.935,2.505-6.338
			c-0.434-5.54-3.444-10.531-6.728-15.014c-22.012-30.048-58.729-46.669-80.801-76.674c-12.955-17.611-28.185-34.654-37.539-54.414
			c-7.413-15.659-12.279-32.964-23.638-46.046c-32.919-37.91-49.394-86.85-68.055-133.461"/>
		<path style="fill:none;" d="M567.521,280.562c-0.864-0.397-1.727-0.799-2.602-1.172"/>
		<path style="fill:#FFFFFF;stroke:#000000;stroke-width:3;stroke-miterlimit:10;" d="M580.799,350.997
			c1.072,3.288,2.066,6.601,2.949,9.949c4.314,16.353,6.05,33.657,2.6,50.214c-0.326,1.564-0.827,3.298-2.227,4.07
			c-2.811,1.549-5.622-2.015-6.877-4.969c-7.07-16.643-14.141-33.285-21.211-49.928c-2.38-5.603-2.428-9.827-5.636-15
			c-3.837-6.186-9.07-11.499-15.197-15.429c1.038,27.504,24.477,50.201,26.098,77.677c0.315,5.342-1.416,12.121-6.7,12.966
			c-1.904,0.305-3.844-0.306-5.569-1.166c-6.126-3.054-10.233-9.126-12.827-15.461s-3.935-13.107-6.177-19.575
			c-2.808-8.102-7.039-15.709-12.44-22.368c-10.322-12.727-27.773-22.445-30.34-38.629c-0.667-4.208-6.085-6.41-10.03-4.801
			c-3.945,1.609-6.272,5.873-6.863,10.093c-0.591,4.22,0.234,8.49,0.867,12.704c1.512,10.063,1.941,20.288,1.277,30.443
			c-0.354,5.408-1.063,10.947-3.645,15.712c-2.582,4.765-7.412,8.643-12.831,8.69c-2.372,0.021-4.86-0.774-6.371-2.602
			c-2.27-2.748-1.718-6.763-1.208-10.29c3.55-24.537-10.553-47.198-12.279-71.93c-1.518-21.769-2.085-43.604-1.698-65.423
			c0.185-10.422,0.579-20.953-1.508-31.165c-4.548-22.263-19.872-41.633-25.766-63.578c-10.605-8.645-14.536-23.192-24.016-33.057
			c-5.166-5.375-11.754-9.123-17.669-13.661c-23.149-17.758-34.783-46.402-53.214-69.019C301.793,22.579,288.375,10.29,286.33-6.202
			"/>
		<path style="fill:none;stroke:#000000;stroke-width:3;stroke-miterlimit:10;" d="M565.762,313.565
			c5.446,12.298,10.872,24.661,15.037,37.432"/>
	</g>
</g>
</svg>
