<?xml version="1.0" encoding="iso-8859-1"?>
<!-- Generator: Adobe Illustrator 24.0.1, SVG Export Plug-In . SVG Version: 6.00 Build 0)  -->
<svg version="1.1" xmlns="http://www.w3.org/2000/svg" xmlns:xlink="http://www.w3.org/1999/xlink" x="0px" y="0px"
	 viewBox="0 0 1280 600" style="enable-background:new 0 0 1280 600;" xml:space="preserve">
<g id="&#xB808;&#xC774;&#xC5B4;_1" style="display:none;">
	
		<image style="display:inline;overflow:visible;" width="772" height="598" xlink:href="../../&#x1102;&#x1166;&#x110B;&#x1175;&#x1107;&#x1165; MYBOX/&#x110C;&#x1169;&#x11BC;&#x1105;&#x1169; &#x110B;&#x1175;&#x110C;&#x1166;&#x11AB; Publishing/pfjjy_PR/pfjjy_nextjs/pfjjy/public/contact_right/018.png"  transform="matrix(1 0 0 1 508 1)">
	</image>
	
		<image style="display:inline;overflow:visible;" width="724" height="600" xlink:href="../../&#x1102;&#x1166;&#x110B;&#x1175;&#x1107;&#x1165; MYBOX/&#x110C;&#x1169;&#x11BC;&#x1105;&#x1169; &#x110B;&#x1175;&#x110C;&#x1166;&#x11AB; Publishing/pfjjy_PR/pfjjy_nextjs/pfjjy/public/contact_left/018.png" >
	</image>
</g>
<g id="&#xB808;&#xC774;&#xC5B4;_2">
</g>
<g id="&#xB808;&#xC774;&#xC5B4;_4">
	<path style="fill:none;stroke:#000000;stroke-width:3;stroke-linecap:round;stroke-linejoin:round;" d="M683.871,386.906
		c0.248,4.876,3.556,9.049,7.162,12.341c1.367,1.249,2.823,2.441,4.514,3.197c1.687,0.755,3.542,1.046,5.379,1.246
		c4.178,0.456,8.403,0.481,12.587,0.076c0.07,4.179,3.587,7.807,7.737,8.308c1.955,0.236,3.92-0.192,5.877-0.42
		c3.613-0.421,7.363-0.176,10.786-1.405c2.039-0.732,4.045-1.993,6.191-1.695c2.674,5.095,7.28,9.038,12.687,11.006
		c5.407,1.968,11.546,1.845,16.87-0.339c3.772,1.847,7.981,3.336,11.952,1.97c1.081-0.372,2.08-0.946,3.072-1.516
		c1.458-0.838,2.915-1.677,4.373-2.515c5.038-2.898,4.489-10.837,7.881-15.558c2.222-3.093,5.349-5.591,6.859-9.087
		c0.391-0.905,0.665-1.861,1.126-2.732c0.973-1.839,2.687-3.144,4.125-4.648c1.893-1.979,3.333-4.337,4.802-6.647
		c5.187-8.156,10.927-15.961,17.169-23.342c5.621-6.647,9.357-14.543,14.313-21.7c2.733-3.946,5.484-7.915,8.854-11.333
		c5.587-5.666,12.651-9.601,19.61-13.459c9.495-5.262,18.806-12.033,27.947-17.888c4.588-2.939,9.19-5.886,14.094-8.261
		c4.477-2.169,9.178-3.847,13.654-6.018c4.794-2.326,9.298-5.2,13.79-8.068c9.872-6.304,19.749-12.61,29.31-19.376
		c10.551-7.467,17.84-19.12,29.01-25.625c2.826-1.646,5.875-2.921,8.539-4.819c2.909-2.073,5.262-4.819,7.93-7.195
		c5.436-4.839,12.104-8.075,17.844-12.549c6.247-4.869,11.271-11.101,16.234-17.273c7.599-9.449,20.036-15.929,25.908-26.538
		c2.205-3.983,3.81-8.266,5.793-12.364c3.185-6.586,7.325-12.66,11.591-18.604c5.76-8.027,11.78-15.869,18.047-23.507
		c5.436-6.626,8.749-15.247,13.086-22.639c0.903-1.538,1.815-3.09,3.025-4.401c2.336-2.532,5.585-3.974,8.644-5.558
		c15.449-7.997,27.744-20.882,39.17-33.999c10.566-12.129,20.662-24.667,30.258-37.577"/>
</g>
<g id="&#xB808;&#xC774;&#xC5B4;_7">
	<path style="fill:none;stroke:#000000;stroke-width:3;stroke-linecap:round;stroke-linejoin:round;" d="M684.128,387.21
		c0.873-1.073,2.411-1.26,3.79-1.368c3.293-0.257,6.586-0.514,9.878-0.771c7.982-0.623,16.136-1.233,23.892,0.753
		c2.423,0.62,5.1,1.816,5.764,4.227c0.564,2.051-0.628,4.236-2.27,5.587s-3.685,2.093-5.586,3.046
		c-2.672,1.339-5.115,3.132-7.195,5.279"/>
</g>
<g id="&#xB808;&#xC774;&#xC5B4;_8">
	<path style="fill:none;stroke:#000000;stroke-width:3;stroke-linecap:round;stroke-linejoin:round;" d="M728.272,391.507
		c5.876-2.704,10.968-7.085,14.518-12.492c1.261-1.921,2.348-3.987,3.956-5.629c0.985-1.006,2.167-1.856,2.871-3.075
		c0.508-0.881,0.732-1.9,1.203-2.801c1.723-3.29,6.05-4.052,9.763-4.101c1.635-0.021,3.304,0.026,4.843,0.575
		s2.951,1.68,3.458,3.234c0.565,1.732-0.061,3.594-0.4,5.384c-0.663,3.499-0.235,7.25-1.683,10.503
		c-1.298,2.916-3.908,4.991-6.336,7.063c-6.083,5.19-11.575,11.072-16.336,17.496"/>
</g>
<g id="&#xB808;&#xC774;&#xC5B4;_9">
	<path style="fill:none;stroke:#000000;stroke-width:3;stroke-linecap:round;stroke-linejoin:round;" d="M770.797,367.767
		c2.466-1.352,5.166-2.209,7.847-3.057c2.002-0.633,4.05-1.274,6.149-1.208c2.098,0.065,4.293,0.971,5.349,2.786
		c0.698,1.199,0.826,2.638,0.86,4.025c0.06,2.467-0.127,4.932-0.315,7.393c-0.454,5.948-0.935,12.016-3.236,17.519
		c-1.754,4.196-4.512,7.92-6.187,12.148c-0.86,2.169-1.426,4.451-2.381,6.58c-0.955,2.129-2.376,4.159-4.449,5.231"/>
</g>
<g id="&#xB808;&#xC774;&#xC5B4;_10">
	<path style="fill:none;stroke:#000000;stroke-width:3;stroke-linecap:round;stroke-linejoin:round;" d="M790.733,380.909
		c0.942-3.807,6.011-6.558,9.895-6.013c0.935,0.131,1.898,0.463,2.495,1.195c0.36,0.441,0.557,0.99,0.733,1.532
		c2.037,6.248,2.225,13.086,0.532,19.436"/>
</g>
<g id="&#xB808;&#xC774;&#xC5B4;_11">
	<path style="fill:none;stroke:#000000;stroke-width:3;stroke-linecap:round;stroke-linejoin:round;" d="M755.392,353.506
		c2.079,1.97,2.818,6.229,1.793,8.903"/>
</g>
<g id="&#xB808;&#xC774;&#xC5B4;_5">
	<path style="fill:none;stroke:#000000;stroke-width:3;stroke-miterlimit:10;" d="M1071.576-7.408
		c-2.968,5.02-5.945,10.053-9.491,14.682c-3.51,4.581-7.548,8.728-11.575,12.862c-16.451,16.888-33.234,34.032-53.921,45.342
		c-3.335,1.823-6.784,3.503-9.753,5.876c-2.347,1.877-4.344,4.148-6.327,6.406c-4.938,5.622-9.875,11.244-14.813,16.866
		c-11.191,12.743-19.817,27.194-29.093,41.392c-3.286,5.029-6.5,10.111-10.082,14.934c-15.702,21.147-38.348,37.219-50.044,60.82
		c-7.278,14.686-17.696,27.43-30.396,37.79c-12.701,10.36-26.611,19.254-38.574,30.458c-5.28,4.945-10.595,10.569-17.666,12.096
		c-3.41,0.737-7.023,0.45-10.329,1.567c-3.041,1.027-5.56,3.15-8.253,4.897c-9.813,6.364-21.908,7.721-33.293,10.399
		c-5.869,1.381-11.639,3.149-17.403,4.916c-5.357,1.642-11.228,3.686-13.932,8.593c-5.638,10.232-9.164,22.531-17.8,30.399
		c-1.435,1.307-2.994,2.596-3.77,4.375s-0.445,4.226,1.267,5.139c0.606,0.323,1.304,0.418,1.986,0.493
		c15.29,1.674,30.251-4.218,45.348-7.16c16.398-3.196,33.25-2.916,49.954-2.624"/>
</g>
<g id="&#xB808;&#xC774;&#xC5B4;_6">
	<path style="fill:none;stroke:#000000;stroke-width:3;stroke-miterlimit:10;" d="M686.969,363.043
		c-46.146,6.967-94.144,4.379-140.743,6.942c-2.877,0.158-5.963,0.415-8.188,2.245c-2.733,2.248-3.323,6.13-3.723,9.646
		c-0.139,1.227-0.276,2.493,0.073,3.678c1.012,3.44,5.312,4.475,8.883,4.792c10.362,0.919,20.787,0.734,31.188,0.548
		c38.18-0.682,73.394-1.365,111.446-4.572"/>
</g>
<g id="&#xB808;&#xC774;&#xC5B4;_3">
	<g>
		<path style="fill:#FFFFFF;stroke:#000000;stroke-width:3;stroke-miterlimit:10;" d="M578.835,279.747
			c11.226,7.024,21.813,15.07,31.586,24.006c5.243,4.793,10.252,9.843,14.981,15.143c1.538,1.724,3.091,3.511,5.118,4.619
			s4.672,1.407,6.587,0.115c2.054-1.386,2.699-4.236,2.157-6.654s-2.038-4.499-3.557-6.457c-9.92-12.798-22.348-23.644-36.37-31.743
			c-19.498-11.261-30.937-32.699-47.004-48.474c0.021-5.508-3.202-10.393-7.087-14.297c-3.885-3.905-8.553-6.934-12.692-10.569
			c-11.964-10.509-18.895-25.462-25.492-39.955c-5.502-12.087-12.703-23.924-19.972-35.038c-4.551-6.959-9.102-13.918-13.653-20.877
			c-3.656-5.59-7.432-11.538-7.731-18.211c-0.415-9.268-7.174-17.54-12.184-25.348c-2.528-3.94-5.385-7.664-7.857-11.64
			c-8.46-13.603-12.196-29.756-20.901-43.203c-3.145-4.858-7.032-9.615-7.704-15.363"/>
		<path style="fill:none;" d="M603.124,375.496c0.086,0.01,0.17,0.028,0.255,0.039"/>
		<path style="fill:#FFFFFF;stroke:#000000;stroke-width:3;stroke-miterlimit:10;" d="M577.714,276.181
			c-0.79,6.46,2.337,12.694,5.516,18.373c6.029,10.771,12.643,20.851,18.874,31.506c9.256,15.828,19.735,31.487,23.531,49.425
			c0.651,3.078,0.766,6.978-1.923,8.612c-1.799,1.093-4.182,0.616-5.986-0.469s-3.226-2.69-4.86-4.017
			c-2.706-2.198-6.031-3.62-9.488-4.076"/>
		<g>
			<path style="fill:#FFFFFF;stroke:#000000;stroke-width:3;stroke-linecap:round;stroke-linejoin:round;" d="M579.808,319.577
				c2.153,4.653,4.314,9.32,7.034,13.665c3.585,5.729,8.125,10.872,11.119,16.931c2.394,4.846,3.716,10.139,4.503,15.465
				c0.764,5.176,0.709,10.381,2.156,15.435c0.967,3.376,1.627,6.839,1.97,10.333c0.279,2.844,0.341,5.761-0.443,8.509
				c-1.327,4.649-4.89,8.27-8.322,11.675c-0.747,0.741-1.705,1.545-2.723,1.279c-0.693-0.181-1.162-0.813-1.535-1.424
				c-3.016-4.947-3.39-11.047-5.63-16.39c-1.36-3.245-3.387-6.158-5.124-9.217c-3.961-6.975-6.405-14.683-9.255-22.181
				c-1.827-4.805-3.846-9.576-6.678-13.867c-2.324-3.521-5.163-6.669-7.99-9.801c-2.648-2.934-5.295-5.868-7.943-8.802
				c-1.067,2.354-0.388,5.091,0.307,7.58c1.505,5.394,3.013,10.798,5.037,16.02c5.324,13.732,7.458,28.203,14.15,41.323
				c3.153,6.181,4.466,13.285,3.732,20.184c-0.149,1.401-0.436,2.902-1.463,3.866c-0.71,0.666-1.681,0.978-2.64,1.146
				c-4.651,0.813-9.417-1.418-12.801-4.711c-3.384-3.293-5.637-7.548-7.834-11.727c-1.308-2.488-2.617-4.977-3.925-7.465
				c-5.81-11.05-11.14-23.214-19.67-32.329c-6.232-6.659-10.119-15.107-14.812-22.928s-10.715-15.459-19.222-18.749
				c-1.556-0.602-3.466-0.997-4.773,0.041c-0.882,0.7-1.228,1.868-1.436,2.974c-0.828,4.399-0.243,8.921-0.106,13.395
				c0.445,14.593-3.897,28.858-8.194,42.811c-0.612,1.988-1.24,4.008-2.397,5.737c-1.3,1.94-3.196,3.402-5.165,4.659
				c-3.412,2.178-7.414,3.888-11.416,3.278c-0.671-0.102-1.376-0.294-1.828-0.801c-0.613-0.687-0.577-1.717-0.505-2.635
				c1.285-16.328,2.813-32.857,0.039-48.998c-1.873-10.9-6.825-21.557-6.021-32.587c0.448-6.144,0.897-12.288,1.345-18.432
				c0.598-8.19,1.194-16.439,0.251-24.596c-1.033-8.934-4.442-17.437-3.641-26.395c0.946-10.578-0.634-21.373-4.571-31.236
				c-4.585-11.485-12.206-21.497-17.59-32.63c-3.246-6.713-2.615-14.597-6.664-20.859c-2.53-3.913-6.335-6.785-9.811-9.888
				c-13.566-12.115-19.007-31.481-31.835-44.374c-7.289-7.326-14.597-14.673-20.993-22.79c-2.439-3.096-4.743-6.3-7.303-9.297
				c-3.292-3.853-6.986-7.339-10.524-10.967c-7.071-7.25-13.523-15.074-19.966-22.888c-3.998-4.848-7.996-9.697-11.993-14.545
				c-2.044-2.479-4.097-4.97-5.741-7.73c-2.972-4.99-4.605-10.827-8.1-15.402"/>
			<path style="fill:none;stroke:#FFFFFF;stroke-width:0;stroke-linecap:round;stroke-linejoin:round;" d="M292.869-0.757
				c-0.357-0.467-0.726-0.925-1.125-1.363L292.869-0.757"/>
			<path style="fill:none;stroke:#000000;stroke-width:3;stroke-miterlimit:10;" d="M578.928,318.428
				c2.432,4.467,4.865,8.935,7.297,13.402c1.763,3.238,3.531,6.484,5.655,9.498c1.797,2.549,3.847,4.931,5.389,7.642
				c4.513,7.937,4.516,17.495,6.11,26.565"/>
		</g>
	</g>
</g>
</svg>
