<?xml version="1.0" encoding="iso-8859-1"?>
<!-- Generator: Adobe Illustrator 24.0.1, SVG Export Plug-In . SVG Version: 6.00 Build 0)  -->
<svg version="1.1" xmlns="http://www.w3.org/2000/svg" xmlns:xlink="http://www.w3.org/1999/xlink" x="0px" y="0px"
	 viewBox="0 0 1280 600" style="enable-background:new 0 0 1280 600;" xml:space="preserve">
<g id="&#xB808;&#xC774;&#xC5B4;_1" style="display:none;">
	
		<image style="display:inline;overflow:visible;" width="772" height="598" xlink:href="../../&#x1102;&#x1166;&#x110B;&#x1175;&#x1107;&#x1165; MYBOX/&#x110C;&#x1169;&#x11BC;&#x1105;&#x1169; &#x110B;&#x1175;&#x110C;&#x1166;&#x11AB; Publishing/pfjjy_PR/pfjjy_nextjs/pfjjy/public/contact_right/019.png"  transform="matrix(1 0 0 1 508 1)">
	</image>
	
		<image style="display:inline;overflow:visible;" width="724" height="600" xlink:href="../../&#x1102;&#x1166;&#x110B;&#x1175;&#x1107;&#x1165; MYBOX/&#x110C;&#x1169;&#x11BC;&#x1105;&#x1169; &#x110B;&#x1175;&#x110C;&#x1166;&#x11AB; Publishing/pfjjy_PR/pfjjy_nextjs/pfjjy/public/contact_left/019.png" >
	</image>
</g>
<g id="&#xB808;&#xC774;&#xC5B4;_5">
	<path style="fill:none;stroke:#000000;stroke-width:3;stroke-miterlimit:10;" d="M673.335,380.07
		c2.452,4.571,3.945,7.2,7.495,10.981c3.55,3.782,8.342,6.682,13.526,6.852c4.542,0.149,9.782-1.581,13.195,1.419
		c1.951,1.715,2.956,4.788,5.506,5.282c6.809,1.32,15.937-0.343,22.831-1.1c1.497-0.164,3.276-0.218,4.204,0.968
		c0.69,0.883,0.621,2.125,0.994,3.182c0.591,1.678,2.226,2.735,3.81,3.543c6.404,3.266,13.814,4.522,20.936,3.55
		c2.414,4.17,6.355,8.309,11.15,7.838c2.843-0.279,5.18-2.462,6.606-4.937s2.15-5.281,3.223-7.928
		c4.242-10.463,13.607-17.86,20.038-27.14c5.638-8.135,9.054-17.783,15.623-25.186c4.065-4.581,9.289-8.244,12.265-13.596
		c3.609-6.491,3.459-14.705,7.703-20.799c12.027-17.268,36.221-19.928,54.792-29.824c24.855-13.246,49.748-26.514,73.35-41.882
		c34.338-22.359,65.81-49.115,93.405-79.406c20.448-22.446,34.302-49.265,52.029-73.916c7.153-9.947,14.811-20.319,25.964-25.39
		c23.879-10.858,43.962-31.08,60.565-51.389c6.583-8.051,12.702-16.468,18.818-24.88"/>
</g>
<g id="&#xB808;&#xC774;&#xC5B4;_6">
	<path style="fill:none;stroke:#000000;stroke-width:3;stroke-miterlimit:10;" d="M687.655,349.154
		c-8.017,0.939-16.034,1.879-24.051,2.818c-5.724,0.671-11.456,1.342-17.215,1.538c-5.99,0.204-11.991-0.106-17.979,0.171
		c-9.729,0.45-19.311,2.444-28.955,3.809c-12.773,1.808-25.68,2.514-38.577,2.786c-1.148,0.024-2.328,0.051-3.388,0.493
		c-0.934,0.389-1.712,1.076-2.405,1.812c-2.987,3.174-4.68,7.531-4.62,11.889c0.015,1.112,0.156,2.27,0.768,3.198
		c1.049,1.59,3.138,2.065,5.028,2.298c4.36,0.537,8.768,0.49,13.16,0.443c35.989-0.391,71.978-0.782,107.967-1.173"/>
</g>
<g id="&#xB808;&#xC774;&#xC5B4;_4">
	<path style="fill:none;stroke:#000000;stroke-width:3;stroke-miterlimit:10;" d="M1066.71-5.645
		c-5.514,11.217-14.076,20.597-22.523,29.81c-3.207,3.499-6.458,7.034-10.416,9.654c-5.409,3.58-11.829,5.252-17.693,8.023
		c-7.438,3.514-13.901,8.754-20.285,13.943c-19.672,15.991-39.503,32.14-55.409,51.882c-21.822,27.085-35.203,60.516-59.86,85.048
		c-16.322,16.239-26.927,36.385-44.499,51.262c-5.017,4.248-10.034,8.495-15.051,12.743c-12.923,10.941-26.217,22.102-42.152,27.83
		c-12.834,4.613-23.469,12.96-36.689,16.308c-13.22,3.349-26.977,6.192-38.236,13.886c-2.844,1.944-5.548,4.245-7.238,7.247
		c-3.039,5.399-2.453,12.393-5.977,17.489c-0.995,1.439-2.293,2.68-3.06,4.252c-2.145,4.402,0.952,10.077,5.519,11.841
		c4.568,1.765,9.851,0.356,13.949-2.324c1.497-0.979,2.913-2.133,4.592-2.75c1.54-0.566,3.21-0.644,4.85-0.714
		c21.388-0.92,42.788-1.531,64.193-1.832"/>
</g>
<g id="&#xB808;&#xC774;&#xC5B4;_7">
	<path style="fill:none;stroke:#000000;stroke-width:3;stroke-miterlimit:10;" d="M673.414,379.403
		c13.663-1.304,27.413-1.692,41.128-1.162c2.915,0.113,6.389,0.621,7.632,3.26c0.497,1.056,0.517,2.273,0.407,3.435
		c-0.284,2.987-1.436,5.971-3.619,8.029c-3.609,3.404-10.082,4.636-15.043,4.673"/>
</g>
<g id="&#xB808;&#xC774;&#xC5B4;_8">
	<path style="fill:none;stroke:#000000;stroke-width:3;stroke-miterlimit:10;" d="M721.883,381.698
		c8.009-1.344,15.384-6.11,19.9-12.86c2.12-3.169,3.642-6.753,6.15-9.625c2.508-2.872,6.451-4.976,10.098-3.862
		c4.406,1.346,6.315,6.658,6.173,11.262c-0.179,5.807-2.58,11.37-5.872,16.157s-7.458,8.896-11.597,12.973
		c-2.898,2.855-5.915,5.787-9.722,7.22"/>
</g>
<g id="&#xB808;&#xC774;&#xC5B4;_9">
	<path style="fill:none;stroke:#000000;stroke-width:3;stroke-miterlimit:10;" d="M762.614,359.342
		c5.175-3.432,12.119-2.537,17.918-0.315c1.14,0.437,2.322,0.966,3.021,1.967c0.652,0.933,0.777,2.123,0.882,3.256
		c0.719,7.734,1.346,15.968-2.251,22.853c-2.273,4.35-6.066,7.778-8.219,12.189c-2.571,5.266-3.183,12.293-8.398,14.966"/>
</g>
<g id="&#xB808;&#xC774;&#xC5B4;_10">
	<path style="fill:none;stroke:#000000;stroke-width:3;stroke-miterlimit:10;" d="M785.847,373.785
		c1.638-1.5,3.632-2.699,5.831-3.013c2.199-0.314,4.61,0.373,6.028,2.083c1.343,1.619,1.628,3.846,1.767,5.945
		c0.274,4.158,0.182,8.341-0.274,12.483"/>
</g>
<g id="&#xB808;&#xC774;&#xC5B4;_11">
	<path style="fill:none;stroke:#000000;stroke-width:3;stroke-miterlimit:10;" d="M744.243,348.527
		c2.753,1.633,5.035,4.049,6.508,6.891"/>
</g>
<g id="&#xB808;&#xC774;&#xC5B4;_3">
	<path style="fill:#FFFFFF;stroke:#000000;stroke-width:3;stroke-miterlimit:10;" d="M609.447,365.865
		c9.132,5.021,16.613,12.498,24.612,19.178c1.004,0.839,2.222,1.719,3.499,1.435c1.51-0.336,2.198-2.085,2.435-3.613
		c1.053-6.784-1.895-13.586-5.75-19.266s-8.672-10.696-12.129-16.627c-3.826-6.564-5.842-13.992-8.492-21.113
		c-5.835-15.678-14.8-29.967-23.702-44.131c2.043,3.218,5.422,5.294,8.615,7.377c6.833,4.458,13.321,9.444,19.387,14.9
		c9.441,8.49,17.85,18.102,27.583,26.255c0.898,0.752,1.836,1.508,2.955,1.855c2.972,0.922,6.195-1.552,7.005-4.556
		c0.811-3.004-0.223-6.212-1.717-8.941c-2.915-5.322-7.5-9.497-12-13.568c-7.703-6.967-15.508-14.49-22.633-22.048
		c-4.983-5.285-9.704-10.837-15.099-15.701c-5.121-4.617-10.802-8.571-16.036-13.06c-4.382-3.758-8.437-7.88-12.486-11.995
		c-4.955-5.036-9.909-10.073-14.864-15.109c-7.953-8.084-16.111-16.479-20.22-27.049c-4.003-10.298-15.228-15.718-20.808-25.254
		c-2.15-3.674-3.946-7.546-6.058-11.242c-6.365-11.138-15.443-20.437-24.419-29.602c-5.655-5.774-9.392-13.507-13.906-20.212
		c-4.139-6.148-6.86-13.12-9.547-20.028c-12.931-33.241-25.862-66.483-38.793-99.724"/>
</g>
<g id="&#xB808;&#xC774;&#xC5B4;_2">
	<path style="fill:#FFFFFF;stroke:#000000;stroke-width:3;stroke-miterlimit:10;" d="M285.706-10.848
		c16.014,27.423,36.086,52.472,59.357,74.079c10.443,9.696,21.541,18.719,31.26,29.14c12.465,13.365,22.454,28.805,32.374,44.155
		c14.322,22.162,28.728,44.483,38.734,68.9s15.459,51.324,11.112,77.35c-1.306,7.822-3.382,16.329,0.385,23.308
		c2.829,5.241,2.289,11.865,3.242,17.743c1.349,8.324,2.7,16.661,3.316,25.072c0.319,4.362,0.44,8.735,0.561,13.107
		c0.174,6.297,0.347,12.62-0.383,18.878c-0.428,3.668-1.165,7.368-0.64,11.023c0.109,0.757,0.286,1.539,0.772,2.13
		c0.467,0.568,1.165,0.893,1.863,1.126c4.075,1.357,8.66,0.057,12.2-2.375c3.54-2.432,6.236-5.878,8.873-9.268
		c1.213-1.559,2.44-3.143,3.191-4.97c0.868-2.114,1.051-4.442,1.111-6.727c0.306-11.791-2.405-23.588-1.206-35.321
		c0.312-3.056,1.069-6.387,3.544-8.208c2.508-1.845,5.984-1.54,8.991-0.734c7.444,1.993,14.156,6.612,18.678,12.851
		c9.927,13.697,19.113,27.078,26.271,42.404c1.906,4.081,3.604,8.266,5.772,12.214c1.541,2.807,3.313,5.481,4.875,8.276
		c1.845,3.301,3.392,6.76,5.234,10.062c1.973,3.537,4.276,6.878,6.576,10.213c1.609,2.334,3.331,4.768,5.883,6.004
		c4.113,1.993,9.708-0.245,11.313-4.524c0.704-1.877,0.701-3.941,0.541-5.939c-1.018-12.785-7.886-24.252-12.008-36.397
		c-1.722-5.074-2.987-10.34-5.426-15.111c-2.636-5.158-6.544-9.542-9.724-14.384s-5.697-10.517-4.992-16.267
		c10.027,1.476,17.813,9.677,22.729,18.541c4.916,8.864,7.79,18.755,12.846,27.539c2.955,5.133,6.639,9.861,9.078,15.258
		c2.534,5.605,3.7,11.877,7.184,16.947c0.429,0.625,0.911,1.245,1.576,1.609c2.433,1.333,5.138-1.51,5.874-4.185
		c2.133-7.744-2.213-15.579-4.491-23.282c-1.945-6.577-2.392-13.487-3.523-20.251c-1.669-9.979-4.852-19.704-9.407-28.738
		c-3.861-7.658-8.736-14.91-11.092-23.156"/>
</g>
</svg>
