<?xml version="1.0" encoding="iso-8859-1"?>
<!-- Generator: Adobe Illustrator 24.0.1, SVG Export Plug-In . SVG Version: 6.00 Build 0)  -->
<svg version="1.1" xmlns="http://www.w3.org/2000/svg" xmlns:xlink="http://www.w3.org/1999/xlink" x="0px" y="0px"
	 viewBox="0 0 1280 600" style="enable-background:new 0 0 1280 600;" xml:space="preserve">
<g id="&#xB808;&#xC774;&#xC5B4;_1" style="display:none;">
	
		<image style="display:inline;overflow:visible;" width="772" height="598" xlink:href="../../&#x1102;&#x1166;&#x110B;&#x1175;&#x1107;&#x1165; MYBOX/&#x110C;&#x1169;&#x11BC;&#x1105;&#x1169; &#x110B;&#x1175;&#x110C;&#x1166;&#x11AB; Publishing/pfjjy_PR/pfjjy_nextjs/pfjjy/public/contact_right/020.png"  transform="matrix(1 0 0 1 508 1)">
	</image>
	
		<image style="display:inline;overflow:visible;" width="724" height="600" xlink:href="../../&#x1102;&#x1166;&#x110B;&#x1175;&#x1107;&#x1165; MYBOX/&#x110C;&#x1169;&#x11BC;&#x1105;&#x1169; &#x110B;&#x1175;&#x110C;&#x1166;&#x11AB; Publishing/pfjjy_PR/pfjjy_nextjs/pfjjy/public/contact_left/020.png" >
	</image>
</g>
<g id="&#xB808;&#xC774;&#xC5B4;_5">
	<path style="fill:none;stroke:#000000;stroke-width:3;stroke-miterlimit:10;" d="M669.292,373.54
		c1.975,5.176,5.906,9.329,9.828,13.241c1.939,1.934,4.007,3.912,6.628,4.707c1.505,0.456,3.1,0.491,4.672,0.522
		c2.599,0.051,5.198,0.102,7.797,0.153c1.202,3.562,3.022,7.208,6.6,8.361c1.383,0.446,2.872,0.379,4.324,0.308
		c3.165-0.155,6.329-0.311,9.494-0.466c6.216-0.305,12.77-0.717,17.958-4.154c-0.245,2.562-0.41,5.263,0.991,7.423
		c1.858,2.864,5.71,3.491,9.105,3.85c6.495,0.687,13.338,1.324,19.315-1.311c1.819,3.08,5.979,2.508,9.213,0.979
		c7.188-3.397,12.076-10.257,15.955-17.197c3.878-6.94,7.157-14.357,12.532-20.214c12.25-13.348,23.329-28.198,33.19-43.397
		c5.798-8.936,12.101-19.171,22.514-21.418c17.881-3.858,32.889-16.517,48.552-25.966c25.564-15.421,51.128-30.842,76.692-46.263
		c10.593-6.39,21.254-12.829,30.505-21.043c4.637-4.116,7.182-9.911,11.96-13.863c19.451-16.088,38.056-33.198,55.712-51.236
		c3.883-3.967,7.778-8.058,10.292-13.007c1.5-2.951,2.475-6.146,3.98-9.095c5.081-9.952,15.734-16.286,20.322-26.474
		c2.821-6.265,6.683-12.382,12.333-16.292c4.234-2.929,9.382-4.209,13.901-6.676c4.805-2.623,8.774-6.513,12.675-10.353
		c7.03-6.919,10.087-15.88,17.81-22.015c7.723-6.135,16.321-11.095,24.088-17.175c9.682-7.578,17.942-16.791,26.034-26.047"/>
</g>
<g id="&#xB808;&#xC774;&#xC5B4;_6">
	<path style="fill:none;stroke:#000000;stroke-width:3;stroke-miterlimit:10;" d="M686.164,344.615
		c-16.352-0.62-32.582,2.472-48.853,4.213c-24.346,2.605-48.897,2.187-73.382,2.293c-0.846,0.004-1.725,0.015-2.487,0.384
		c-0.813,0.394-1.388,1.146-1.88,1.904c-4.743,7.297-4.093,17.672,1.524,24.32c0.691,0.818,1.48,1.604,2.479,1.99
		c1,0.386,2.108,0.334,3.178,0.276c37.265-2.018,74.53-4.035,111.795-6.053"/>
</g>
<g id="&#xB808;&#xC774;&#xC5B4;_7">
	<path style="fill:none;stroke:#000000;stroke-width:3;stroke-miterlimit:10;" d="M670.913,374.547
		c9.633-0.82,19.266-1.64,28.899-2.461c4.698-0.4,9.43-0.8,14.12-0.31c1.055,0.11,2.146,0.281,3.021,0.88
		c1.893,1.296,2.059,3.98,2.003,6.274c-0.061,2.503-0.266,5.261-2.038,7.03c-1.307,1.305-3.201,1.785-4.997,2.213
		c-4.548,1.083-10.095,3.166-14.643,4.25"/>
</g>
<g id="&#xB808;&#xC774;&#xC5B4;_8">
	<path style="fill:none;stroke:#000000;stroke-width:3;stroke-miterlimit:10;" d="M719.396,378.537
		c7.574-3.334,14.864-9.497,18.353-17.001c0.847-1.821,1.55-3.744,2.8-5.316c2.11-2.654,5.56-3.969,8.943-4.196
		c3.383-0.227,6.75,0.511,10.043,1.319c0.944,0.232,1.932,0.493,2.639,1.161c1.015,0.959,1.193,2.494,1.192,3.891
		c-0.005,7.924-3.763,15.478-8.896,21.514c-5.134,6.036-10.594,10.772-16.991,15.449"/>
</g>
<g id="&#xB808;&#xC774;&#xC5B4;_9">
	<path style="fill:none;stroke:#000000;stroke-width:3;stroke-miterlimit:10;" d="M763.459,354.818
		c3.086-2.049,6.727-3.254,10.426-3.452c1.142-0.061,2.336-0.016,3.348,0.517c2.077,1.095,2.657,3.772,2.802,6.116
		c0.273,4.4-0.172,8.81-0.616,13.197c-0.974,9.61-2.254,19.937-8.763,27.074c-2.082,2.283-3.698,4.241-4.843,7.111"/>
</g>
<g id="&#xB808;&#xC774;&#xC5B4;_10">
	<path style="fill:none;stroke:#000000;stroke-width:3;stroke-miterlimit:10;" d="M779.789,370.662
		c1.463-1.191,2.926-2.381,4.389-3.572c1.127-0.917,2.273-1.846,3.606-2.423s2.902-0.768,4.232-0.183
		c2.126,0.936,2.997,3.459,3.43,5.741c0.676,3.562,0.843,7.22,0.494,10.829"/>
</g>
<g id="&#xB808;&#xC774;&#xC5B4;_11">
	<path style="fill:none;stroke:#000000;stroke-width:3;stroke-miterlimit:10;" d="M741.683,346.823
		c1.628,1.203,2.55,4.299,2.336,6.312"/>
</g>
<g id="&#xB808;&#xC774;&#xC5B4;_4">
	<path style="fill:none;stroke:#000000;stroke-width:3;stroke-miterlimit:10;" d="M1061.924-2.808
		c-13.405,18.545-30.238,34.604-49.393,47.122c-13.751,8.986-29.408,16.882-37.401,31.234c-9.67,17.364-27.117,29.586-38.781,45.678
		c-21.185,29.229-47.159,54.61-73.262,79.546c-16.877,16.123-31.594,34.399-48.713,50.264
		c-14.998,13.899-31.164,27.43-50.583,33.832c-20.528,6.768-44.462,5.573-61.389,19.012c-13.373,10.617-19.303,29.729-14.288,46.051
		c0.362,1.179,0.829,2.417,1.83,3.138c1.258,0.906,2.965,0.734,4.5,0.523c9.347-1.284,18.695-4.569,28.042-5.853
		c16.654-2.289,36.309-1.577,52.963-3.866"/>
</g>
<g id="&#xB808;&#xC774;&#xC5B4;_3">
	<path style="fill:#FFFFFF;stroke:#000000;stroke-width:3;stroke-miterlimit:10;" d="M616.157,361.504
		c6.88,8.566,13.76,17.132,20.64,25.698c1.442,1.795,3.339,3.78,5.614,3.424c2.296-0.359,3.506-2.898,4.06-5.154
		c2.667-10.862-0.931-22.404-6.613-32.038s-13.363-17.913-19.896-26.991c-8.523-11.845-15.09-25.093-19.358-39.048
		c17.507,13.857,34.717,27.187,52.224,41.044c1.626,1.287,3.57,2.652,5.589,2.181c2.018-0.47,3.219-2.713,3.182-4.785
		c-0.037-2.072-1.017-3.998-2.019-5.812c-16.216-29.369-43.369-50.838-69.809-71.487c-16.056-12.539-29.014-28.997-44.845-41.82
		c-6.925-5.609-14.175-11.286-18.406-19.128c-5.998-11.116-5.696-26.053-15.487-34.032c-8.183-27.526-30.946-49.266-39.959-76.532
		c-2.065-6.247-5.505-12.176-8.922-17.799c-10.035-16.515-18.187-34.172-24.249-52.521c-1.257-3.804-2.436-7.837-1.632-11.762"/>
</g>
<g id="&#xB808;&#xC774;&#xC5B4;_2">
	<path style="fill:#FFFFFF;stroke:#000000;stroke-width:3;stroke-miterlimit:10;" d="M299.842-7.879
		c1.542,8.433,8.412,14.664,14.262,20.93c7.76,8.311,14.296,17.733,19.665,27.757c3.27,6.105,6.123,12.453,9.903,18.256
		c6.772,10.396,16.268,18.675,25.637,26.81c10.695,9.287,15.521,23.644,24.564,34.547c10.866,13.101,21.733,26.202,32.599,39.303
		c14.56,17.554,26.349,37.507,34.472,58.817s11.716,45.008,5.865,67.051c-3.249,12.238-2.98,25.503-1.67,38.097
		c1.708,16.414,8.067,32.678,5.433,48.97c-1.171,7.242-4.112,14.409-3.07,21.671c0.312,2.177,1.046,4.402,2.661,5.895
		c1.85,1.711,4.571,2.177,7.078,1.918c7.047-0.729,12.741-6.533,15.429-13.087s2.936-13.815,3.146-20.897
		c0.277-9.306,0.554-18.613,0.831-27.919c0.11-3.707,0.665-8.143,4.002-9.762c1.523-0.739,3.305-0.678,4.984-0.464
		c10.544,1.344,19.809,8.062,26.45,16.362s11.016,18.142,15.269,27.883c5.069,11.608,14.276,19.635,20.842,30.466
		c5.754,9.492,10.503,19.969,18.943,27.179c1.281,1.095,2.73,2.14,4.406,2.309c4.643,0.468,7.048-5.527,6.944-10.193
		c-0.444-20.008-17.285-35.41-24.971-53.888c-3.519-8.46-5.109-17.716-4.615-26.866c4.223-0.066,8.381,2.465,10.261,6.247
		c11.311,22.757,26.155,43.691,36.422,66.937c1.58,3.577,4.914,7.908,8.406,6.148c1.034-0.521,1.754-1.508,2.303-2.527
		c2.702-5.016,2.06-11.112,1.109-16.729c-4.84-28.574-15.906-56.078-32.205-80.042"/>
</g>
</svg>
