<?xml version="1.0" encoding="iso-8859-1"?>
<!-- Generator: Adobe Illustrator 24.0.1, SVG Export Plug-In . SVG Version: 6.00 Build 0)  -->
<svg version="1.1" xmlns="http://www.w3.org/2000/svg" xmlns:xlink="http://www.w3.org/1999/xlink" x="0px" y="0px"
	 viewBox="0 0 1280 600" style="enable-background:new 0 0 1280 600;" xml:space="preserve">
<g id="&#xB808;&#xC774;&#xC5B4;_1" style="display:none;">
	
		<image style="display:inline;overflow:visible;" width="772" height="598" xlink:href="../../&#x1102;&#x1166;&#x110B;&#x1175;&#x1107;&#x1165; MYBOX/&#x110C;&#x1169;&#x11BC;&#x1105;&#x1169; &#x110B;&#x1175;&#x110C;&#x1166;&#x11AB; Publishing/pfjjy_PR/pfjjy_nextjs/pfjjy/public/contact_right/021.png"  transform="matrix(1 0 0 1 508 1)">
	</image>
	
		<image style="display:inline;overflow:visible;" width="724" height="600" xlink:href="../../&#x1102;&#x1166;&#x110B;&#x1175;&#x1107;&#x1165; MYBOX/&#x110C;&#x1169;&#x11BC;&#x1105;&#x1169; &#x110B;&#x1175;&#x110C;&#x1166;&#x11AB; Publishing/pfjjy_PR/pfjjy_nextjs/pfjjy/public/contact_left/021.png"  transform="matrix(1 0 0 1 0 1)">
	</image>
</g>
<g id="&#xB808;&#xC774;&#xC5B4;_6">
	<path style="fill:none;stroke:#000000;stroke-width:3;stroke-linecap:round;stroke-linejoin:round;" d="M663.761,367.149
		c4.036,3.065,4.2,9.286,7.759,12.894c3.576,3.625,9.347,3.545,14.428,3.219c2.78-0.178,5.56-0.357,8.34-0.535
		c2.51,5.137,8.252,9.251,13.919,10.013c6.442,0.866,12.955-1.888,19.404-1.075c-0.099,3.729,3.269,7.13,6.773,8.411
		c3.504,1.281,7.354,1.055,11.077,0.813c3.956-0.258,7.913-0.516,11.869-0.774c6.686-0.436,13.636,1.72,19.831-0.832
		c11.575-4.768,9.574-24.346,19.591-31.854c11.136-8.347,18.32-21.01,27.626-31.358c6.746-7.502,13.64-15.243,17.183-24.69
		c1.598-4.26,2.794-9.215,6.692-11.561c38.502-23.179,82.769-31.612,119.985-56.804c52.911-35.816,106.425-72.54,140.911-126.327
		c6.919-10.791,17.457-18.858,22.5-30.643c2.506-5.855,4.639-12.382,9.84-16.058c11.962-8.456,25.536-12.101,37.324-20.797
		c21.109-15.572,37.137-36.896,52.849-57.901"/>
</g>
<g id="&#xB808;&#xC774;&#xC5B4;_7">
	<path style="fill:none;stroke:#000000;stroke-width:3;stroke-linecap:round;stroke-linejoin:round;" d="M677.42,338.957
		c-4.041,1.229-7.227,1.905-11.403,2.54c-30.44,4.626-61.182,7.257-91.966,7.871c-1.263,0.025-2.63,0.083-3.61,0.879
		c-1.012,0.821-1.336,2.202-1.599,3.479c-0.498,2.417-0.998,4.881-0.735,7.334s1.417,4.94,3.54,6.198
		c1.975,1.17,4.416,1.109,6.709,1.014c30.639-1.275,59.277-1.55,89.916-2.825"/>
</g>
<g id="&#xB808;&#xC774;&#xC5B4;_5">
	<path style="fill:none;stroke:#000000;stroke-width:3;stroke-linecap:round;stroke-linejoin:round;" d="M1075.432-7.846
		c-16.577,24.737-40.034,44.812-67.035,57.369c-9.824,4.569-20.356,8.325-28.248,15.748c-13.741,12.924-27.664,28.14-38.991,43.224
		c-14.543,19.367-30.162,37.926-46.76,55.564c-11.397,12.111-26.904,23.622-37.32,36.586c-6.608,8.225-12.843,16.814-20.45,24.125
		c-6.29,6.045-13.427,11.126-20.535,16.184c-12.105,8.613-24.211,17.227-36.316,25.84c-15.835,11.267-32.733,22.934-52.111,24.408
		c-8.328,0.633-18.1-0.118-23.464,6.284c-2.371,2.83-3.32,6.542-4.642,9.989c-2.913,7.595-7.952,14.362-14.394,19.329
		c-4.468,3.445-10.271,8.909-6.939,13.462c1.795,2.453,5.302,2.691,8.342,2.703c6.092,0.025,12.343,0.022,18.044-2.126
		c3.962-1.493,7.489-3.965,11.413-5.555c5.727-2.322,12.032-2.67,18.204-2.991c15.075-0.782,30.149-1.565,45.224-2.347"/>
</g>
<g id="&#xB808;&#xC774;&#xC5B4;_4">
</g>
<g id="&#xB808;&#xC774;&#xC5B4;_3">
	<path style="fill:none;stroke:#000000;stroke-width:3;stroke-miterlimit:10;" d="M665.442,365.659
		c9.559-1.457,19.165-1.61,28.797-2.457c2.5-0.22,5.043-0.417,7.498,0.104c3.891,0.825,7.166,3.355,10.293,5.813
		c1.449,1.139,2.999,2.438,3.339,4.25c0.413,2.196-1.182,4.348-3.14,5.425c-1.957,1.078-4.233,1.366-6.409,1.871
		c-3.842,0.891-7.512,0.515-10.756,2.758"/>
</g>
<g id="&#xB808;&#xC774;&#xC5B4;_8">
	<path style="fill:none;stroke:#000000;stroke-width:3;stroke-miterlimit:10;" d="M715.26,372.788
		c5.243-3.178,10.539-6.464,14.635-11.026c3.054-3.402,5.348-7.413,8.211-10.977c2.863-3.564,6.524-6.792,10.999-7.725
		c4.476-0.934,9.794,1.12,11.339,5.423c1.558,4.34-1.014,8.987-3.6,12.804c-7.633,11.266-18.469,23.001-29.793,30.546"/>
</g>
<g id="&#xB808;&#xC774;&#xC5B4;_9">
	<path style="fill:none;stroke:#000000;stroke-width:3;stroke-miterlimit:10;" d="M761.357,347.992
		c3.315-2.105,7.125-3.427,11.032-3.828c1.489-0.153,3.141-0.124,4.283,0.843c0.753,0.638,1.161,1.587,1.491,2.517
		c1.461,4.119,1.894,8.598,1.25,12.92c-0.842,5.645-3.471,10.943-3.973,16.629c-0.155,1.757-0.11,3.563-0.685,5.23
		c-0.541,1.568-1.593,2.9-2.647,4.18c-3.742,4.541-7.762,8.852-12.029,12.903"/>
</g>
<g id="&#xB808;&#xC774;&#xC5B4;_10">
	<path style="fill:none;stroke:#000000;stroke-width:3;stroke-miterlimit:10;" d="M780.087,356.856
		c3.143-1.522,7.607-2.375,11.097-2.487c0.32-0.01,0.67-0.004,0.917,0.199c0.246,0.203,0.319,0.544,0.377,0.858
		c1.356,7.389,1.678,12.213-0.962,19.246"/>
</g>
<g id="&#xB808;&#xC774;&#xC5B4;_11">
	<path style="fill:none;stroke:#000000;stroke-width:3;stroke-miterlimit:10;" d="M745.341,331.466
		c1.202,3.919,1.52,8.106,0.925,12.162"/>
</g>
<g id="&#xB808;&#xC774;&#xC5B4;_12">
	<path style="fill:none;stroke:#000000;stroke-width:3;stroke-miterlimit:10;" d="M697.489,362.637
		c4.494-0.619,13.14,0.256,17.563-0.754c1.552-0.354,3.042-0.934,4.572-1.375c2.019-0.581,4.098-0.917,6.172-1.252
		c2.292-0.37,4.584-0.74,6.876-1.109"/>
</g>
<g id="&#xB808;&#xC774;&#xC5B4;_2">
	<path style="fill:#FFFFFF;stroke:#000000;stroke-width:3;stroke-miterlimit:10;" d="M306.208-5.71
		c7.899,23.755,23.63,44.065,40.329,62.716c16.699,18.651,34.746,36.289,48.689,57.08c10.097,15.056,24.416,24.796,36.6,38.22
		c5.201,5.731,9.172,12.449,13.087,19.124c9.529,16.248,18.953,32.556,28.274,48.924c3.792,6.659,3.066,14.622,4.285,22.188
		c1.121,6.956,0.841,14.052,0.558,21.092c-0.147,3.661-0.294,7.323-0.441,10.984c-0.329,8.183,0.531,16.471-0.75,24.56
		c-1.297,8.193-4.369,16.418-2.782,24.56c0.391,2.007,1.059,3.948,1.598,5.921c1.555,5.689,2.032,11.671,1.398,17.534
		c-1.371,12.68-0.58,25.684-3.663,38.06c-0.997,4.004-2.31,7.961-2.675,12.071c-0.173,1.951,0.265,4.457,2.17,4.913
		c0.755,0.181,1.543-0.04,2.285-0.27c8.811-2.727,17.154-6.958,24.56-12.454c1.805-1.339,3.602-2.809,4.666-4.788
		c1.34-2.493,1.35-5.461,1.328-8.292c-0.052-6.597-0.105-13.195-0.157-19.792c-0.037-4.663-0.049-9.466,1.698-13.789
		s5.712-8.096,10.375-8.146c3.23-0.035,6.229,1.676,8.739,3.708c9.709,7.862,14.05,20.406,21.069,30.741
		c4.397,6.475,9.887,12.121,15.347,17.729c9.216,9.467,15.397,20.83,20.088,33.182c1.363,3.588,2.539,7.269,4.377,10.639
		s4.43,6.468,7.892,8.123c0.813,0.389,1.697,0.699,2.597,0.637c1.247-0.086,2.343-0.874,3.186-1.796
		c2.338-2.555,3.178-6.184,3.13-9.646c-0.112-8.021-4.394-15.284-7.429-22.71c-4.879-11.939-6.854-25.332-14.576-35.662
		c-1.236-1.653-2.616-3.222-3.547-5.064c-0.998-1.974-1.438-4.18-1.752-6.37c-0.536-3.744-0.734-7.536-0.589-11.315
		c5.127,1.805,8.847,6.264,11.718,10.879c3.564,5.729,6.224,11.961,9.14,18.045c3.264,6.81,6.871,13.47,11.108,19.722
		c3.425,5.054,7.305,9.923,9.399,15.658c1.583,4.335,2.11,9.081,4.378,13.1s7.227,7.164,11.444,5.291
		c2.474-1.099,4.047-3.693,4.52-6.359c0.474-2.666-0.002-5.409-0.681-8.03c-1.949-7.517-5.545-14.483-8.479-21.672
		c-2.935-7.189-5.249-14.903-4.427-22.625c3.917,1.616,6.178,5.615,8.729,8.998c4.409,5.845,10.318,10.352,16.149,14.78
		c0.481,0.365,1.025,0.75,1.626,0.694c0.493-0.046,0.908-0.382,1.249-0.742c1.826-1.927,2.338-4.734,2.53-7.382
		c0.342-4.706-0.066-9.466-1.205-14.044c-4.569-4.54-6.991-10.438-10.115-16.07c-4.319-7.788-10.076-14.71-14.351-22.523
		c-4.289-7.837-7.006-16.415-9.961-24.846c-1.012-2.886-2.106-5.849-4.197-8.08c-1.643-1.753-4.028-3.387-3.892-5.786
		c6.118,2.289,11.28,6.519,16.318,10.677c5.215,4.304,10.459,8.637,14.836,13.79c3.249,3.825,6.009,8.09,9.684,11.508
		s8.581,5.975,13.559,5.337c0.74-0.095,1.482-0.263,2.136-0.623c1.299-0.714,2.085-2.075,2.806-3.37
		c1.547-2.777,3.125-6.118,1.754-8.986c-0.585-1.225-1.637-2.154-2.671-3.033c-2.629-2.235-5.332-4.384-8.102-6.442
		c-1.267-0.942-2.885-1.908-4.324-1.258c-7.274-3.74-10.603-9.489-16.688-14.954c-15.571-13.982-31.142-27.964-46.713-41.946
		c-7.547-6.777-15.116-13.576-21.753-21.246c-3.946-4.56-7.578-9.442-12.148-13.377c-6.337-5.456-14.462-9.092-19.128-16.031
		c-3.159-4.697-4.361-10.39-6.151-15.76c-4.52-13.56-12.973-25.41-21.485-36.892c-7.255-9.786-15.026-19.27-21.177-29.786
		C467.94,83.07,445.38,40.961,436.472-5.044"/>
</g>
<g id="&#xB808;&#xC774;&#xC5B4;_13">
	<path style="fill:none;stroke:#000000;stroke-width:3;stroke-miterlimit:10;" d="M624.485,370.451
		c-0.579-5.666-5.04-13.052-7.557-18.161c-1.226-2.489-1.997-5.177-3.136-7.707c-2.477-5.503-6.665-10.2-8.454-15.963"/>
	<path style="fill:none;stroke:#000000;stroke-width:3;stroke-miterlimit:10;" d="M611.098,296.567
		c-0.807-3.993-2.062-7.894-3.734-11.609"/>
</g>
</svg>
