<?xml version="1.0" encoding="iso-8859-1"?>
<!-- Generator: Adobe Illustrator 24.0.1, SVG Export Plug-In . SVG Version: 6.00 Build 0)  -->
<svg version="1.1" xmlns="http://www.w3.org/2000/svg" xmlns:xlink="http://www.w3.org/1999/xlink" x="0px" y="0px"
	 viewBox="0 0 1280 600" style="enable-background:new 0 0 1280 600;" xml:space="preserve">
<g id="&#xB808;&#xC774;&#xC5B4;_1" style="display:none;">
	
		<image style="display:inline;overflow:visible;" width="772" height="598" xlink:href="../../&#x1102;&#x1166;&#x110B;&#x1175;&#x1107;&#x1165; MYBOX/&#x110C;&#x1169;&#x11BC;&#x1105;&#x1169; &#x110B;&#x1175;&#x110C;&#x1166;&#x11AB; Publishing/pfjjy_PR/pfjjy_nextjs/pfjjy/public/contact_right/022.png"  transform="matrix(1 0 0 1 508 1)">
	</image>
	
		<image style="display:inline;overflow:visible;" width="724" height="600" xlink:href="../../&#x1102;&#x1166;&#x110B;&#x1175;&#x1107;&#x1165; MYBOX/&#x110C;&#x1169;&#x11BC;&#x1105;&#x1169; &#x110B;&#x1175;&#x110C;&#x1166;&#x11AB; Publishing/pfjjy_PR/pfjjy_nextjs/pfjjy/public/contact_left/022.png" >
	</image>
</g>
<g id="&#xB808;&#xC774;&#xC5B4;_5">
	<path style="fill:none;stroke:#000000;stroke-width:3;stroke-miterlimit:10;" d="M665.671,366.728
		c2.496,2.749,4.992,5.498,7.489,8.248c2.192,2.414,4.492,4.906,7.52,6.118c6.077,2.434,12.866-0.964,19.409-0.751
		c2.315,2.872,4.914,5.898,8.325,7.303c4.987,2.054,10.674,0.248,16.041,0.772c1.993,0.195,2.758,2.492,3.842,4.176
		c1.5,2.331,4.35,3.385,7.063,3.948c6.557,1.362,13.519,0.709,19.709-1.849c4.57,1.627,9.138,2.955,13.987,3.1
		s10.004-1.453,12.996-5.272c8.257-10.54,11.52-24.063,18.631-35.407c5.091-8.121,12.047-14.886,17.856-22.511
		c12.93-16.971,21.401-39.299,40.802-48.176c30.168-13.804,60.627-28.373,89.59-44.552c25.288-14.126,49.629-29.878,74.57-44.608
		c10.23-6.042,18.249-13.494,27.107-21.411c6.707-5.995,12.627-12.805,18.528-19.596c14.266-16.418,28.532-32.835,42.798-49.253
		c2.958-3.405,4.971-7.474,7.872-10.927c5.089-6.058,10.212-12.15,16.282-17.224c6.07-5.074,13.199-9.127,20.998-10.458
		c13.335-2.275,21.741-15.869,32.108-24.56c5.063-4.245,10.583-7.917,15.716-12.077c13.35-10.82,23.816-24.708,34.139-38.446"/>
</g>
<g id="&#xB808;&#xC774;&#xC5B4;_6">
	<path style="fill:none;stroke:#000000;stroke-width:3;stroke-miterlimit:10;" d="M683.105,336.779
		c-25.26,2.094-50.521,4.188-75.781,6.282c-1.833,0.152-3.84,0.383-5.112,1.712c-1.172,1.224-1.395,3.05-1.505,4.741
		c-0.14,2.167-0.192,4.34-0.156,6.512c0.05,2.976,0.283,6.018,1.476,8.745c1.193,2.727,3.508,5.115,6.427,5.692
		c1.211,0.239,2.46,0.162,3.692,0.083c19.102-1.217,38.204-2.434,57.305-3.651"/>
</g>
<g id="&#xB808;&#xC774;&#xC5B4;_4">
	<path style="fill:none;stroke:#000000;stroke-width:3;stroke-miterlimit:10;" d="M1077.383-8.084
		c-16.837,19.686-37.341,36.225-60.144,48.515c-13.209,7.119-27.655,13.192-37.191,24.777
		c-22.461,27.287-46.651,53.655-70.108,80.091c-13.731,15.475-26.227,31.497-41.491,45.462c-8.505,7.781-17.01,15.562-25.515,23.343
		c-23.173,21.201-47.208,42.93-76.829,53.373c-18.552,6.541-38.653,12.858-56.11,21.925c-9.17,4.763-19.544,11.275-20.206,21.587
		c-0.219,3.405,0.714,6.882-0.068,10.203c-0.739,3.139-2.907,5.711-4.446,8.545c-1.538,2.834-2.391,6.527-0.518,9.152
		c29.204-8.34,59.851-11.602,90.156-9.596"/>
</g>
<g id="&#xB808;&#xC774;&#xC5B4;_7">
	<path style="fill:none;stroke:#000000;stroke-width:3;stroke-miterlimit:10;" d="M666.182,367.133
		c11.572-0.168,24.123-2.771,35.303-5.762c2.579-0.69,5.243-1.46,7.878-1.027c2.634,0.434,5.222,2.487,5.277,5.156
		c0.054,2.635-2.21,4.662-4.278,6.296c-3.534,2.792-7.067,5.585-10.6,8.377"/>
</g>
<g id="&#xB808;&#xC774;&#xC5B4;_8">
	<path style="fill:none;stroke:#000000;stroke-width:3;stroke-miterlimit:10;" d="M711.701,371.36
		c4.464-2.022,10.031-4.113,13.509-7.566c2.739-2.719,4.653-6.139,6.531-9.511c2.209-3.966,4.419-7.933,6.628-11.899
		c0.678-1.217,1.371-2.455,2.378-3.418c1.448-1.385,3.432-2.086,5.414-2.379c4.592-0.68,9.793,1.012,12.091,5.045
		c2.136,3.748,1.348,8.456,0.029,12.563c-4.783,14.89-18.019,27.583-32.219,34.137"/>
</g>
<g id="&#xB808;&#xC774;&#xC5B4;_9">
	<path style="fill:none;stroke:#000000;stroke-width:3;stroke-miterlimit:10;" d="M758.243,340.282
		c2.983-0.854,6.03-1.717,9.13-1.578c3.1,0.139,6.317,1.457,7.953,4.093c1.441,2.323,1.444,5.227,1.403,7.96
		c-0.065,4.331-0.135,8.703-1.13,12.92c-2.203,9.337-8.67,16.993-14.933,24.26c-2.429,2.818-4.906,5.679-8.045,7.675
		c-0.543,0.345-1.676-0.008-1.198-0.439"/>
</g>
<g id="&#xB808;&#xC774;&#xC5B4;_10">
	<path style="fill:none;stroke:#000000;stroke-width:3;stroke-miterlimit:10;" d="M777.77,353.359
		c2.045-0.771,4.402-0.428,6.334,0.593c1.932,1.022,3.475,2.665,4.704,4.473c0.958,1.409,1.756,2.962,2.044,4.641
		c0.185,1.075,0.156,2.175,0.127,3.265c-0.1,3.769-0.2,7.538-0.301,11.307"/>
</g>
<g id="&#xB808;&#xC774;&#xC5B4;_11">
	<path style="fill:none;stroke:#000000;stroke-width:3;stroke-miterlimit:10;" d="M739.746,328.61
		c1.344,2.627,2.102,5.552,2.201,8.502"/>
	<g id="&#xB808;&#xC774;&#xC5B4;_2">
		<path style="fill:#FFFFFF;stroke:#000000;stroke-width:3;stroke-miterlimit:10;" d="M307.878-4.531
			c17.913,33.203,41.333,63.427,69.011,89.063c38.079,35.27,65.793,79.707,92.21,124.385c3.713,6.279,7.532,12.911,7.744,20.203
			c0.175,6.01,2.005,12.478,2.969,18.413c2.186,13.464,4.338,27.504,0.303,40.533c3.192,12.228-3.735,25.669-1.781,38.154
			c0.615,3.929,1.585,8.164,2.395,12.057c1.372,6.599,0.749,13.599-1.766,19.852c-3.152,7.835,3.342,18.896-0.617,26.355
			c-1.838,3.464-5.467,5.882-6.661,9.618c-0.669,2.092-2.605,3.633-2.498,5.826c0.107,2.193,1.031,4.465,2.884,5.645
			c1.316,0.838,2.934,1.038,4.493,1.083c9.993,0.289,19.732-5.22,25.474-13.403c5.743-8.183,7.657-18.724,6.188-28.613
			c-1.191-8.015,5.077-15.971,11.608-20.768c3.213-2.36,7.176-4.039,11.126-3.501c3.95,0.537,7.669,3.828,7.686,7.815
			c0.081,19.205,18.468,33.624,27.412,50.618c2.142,4.07,4.33,8.203,7.548,11.489c2.596,2.65,5.805,4.684,8.158,7.553
			c4.4,5.364,5.172,12.758,8.003,19.092c2.831,6.334,10.025,12.138,16.238,9.052c8.433-4.189,5.425-19.715,2.35-28.615
			s-8.451-16.804-12.408-25.348c-4.151-8.963-6.712-18.564-9.252-28.109c-0.228-0.856-0.453-1.779-0.143-2.609
			c0.626-1.674,3.123-1.861,4.551-0.786c1.428,1.074,2.056,2.879,2.654,4.564c2.788,7.859,6.524,15.38,11.102,22.35
			c7.413,11.288,17.112,21.302,21.957,33.908c1.781,4.635,5.401,8.636,10.13,10.151c2.329,0.746,5.537,0.528,6.389-1.765
			c0.352-0.947,0.178-1.998,0-2.993c-1.529-8.537-3.057-17.073-4.586-25.61c-0.756-4.224-1.528-8.498-3.302-12.405
			c-1.956-4.308-5.16-8.329-5.188-13.06c5.706,3.058,9.248,8.902,12.784,14.325c3.537,5.422,7.768,11.004,13.95,12.927
			c1.069,0.332,2.273,0.534,3.273,0.033c1.075-0.539,1.63-1.743,1.98-2.894c1.824-6.014-0.11-13-4.767-17.22
			c-6.4-5.799-11.405-13.984-14.514-22.042c-2.893-7.498-4.447-15.511-7.98-22.73c-6.215-12.701-18.595-23.459-18.231-37.595
			c14.157,11.74,28.313,23.48,42.47,35.22c3.265,2.708,6.715,5.506,10.874,6.339c4.159,0.833,9.194-1.057,10.384-5.129
			c1.17-4.004-1.69-8.029-4.73-10.886c-18.159-17.066-39.221-32.135-56.868-49.73c-7.788-7.765-15.106-16.842-22.91-24.59
			c-7.952-7.896-13.78-17.721-21.72-25.628c-10.199-10.157-24.158-17.593-29.45-30.979c-2.718-6.875-5.797-12.184-9.777-18.414
			c-9.569-14.977-13.67-32.816-22.261-48.376c-5.486-9.937-12.714-18.784-19.9-27.57c-8.107-9.913-11.092-22.552-17.199-33.807
			c-12.112-22.321-16.714-48.463-31.192-69.326"/>
	</g>
</g>
<g id="&#xB808;&#xC774;&#xC5B4;_3">
	<path style="fill:none;stroke:#000000;stroke-width:3;stroke-miterlimit:10;" d="M630.709,377.009
		c-5.486-8.682-9.688-21.172-12.43-31.069"/>
</g>
<g id="&#xB808;&#xC774;&#xC5B4;_12">
	<path style="fill:none;stroke:#000000;stroke-width:3;stroke-miterlimit:10;" d="M709.652,360.321
		c6.054-1.389,14.174-2.489,20.333-3.296"/>
</g>
</svg>
