<?xml version="1.0" encoding="iso-8859-1"?>
<!-- Generator: Adobe Illustrator 24.0.1, SVG Export Plug-In . SVG Version: 6.00 Build 0)  -->
<svg version="1.1" xmlns="http://www.w3.org/2000/svg" xmlns:xlink="http://www.w3.org/1999/xlink" x="0px" y="0px"
	 viewBox="0 0 1280 600" style="enable-background:new 0 0 1280 600;" xml:space="preserve">
<g id="&#xB808;&#xC774;&#xC5B4;_1" style="display:none;">
	
		<image style="display:inline;overflow:visible;" width="772" height="598" xlink:href="../../&#x1102;&#x1166;&#x110B;&#x1175;&#x1107;&#x1165; MYBOX/&#x110C;&#x1169;&#x11BC;&#x1105;&#x1169; &#x110B;&#x1175;&#x110C;&#x1166;&#x11AB; Publishing/pfjjy_PR/pfjjy_nextjs/pfjjy/public/contact_right/023.png"  transform="matrix(1 0 0 1 508 1)">
	</image>
	
		<image style="display:inline;overflow:visible;" width="724" height="600" xlink:href="../../&#x1102;&#x1166;&#x110B;&#x1175;&#x1107;&#x1165; MYBOX/&#x110C;&#x1169;&#x11BC;&#x1105;&#x1169; &#x110B;&#x1175;&#x110C;&#x1166;&#x11AB; Publishing/pfjjy_PR/pfjjy_nextjs/pfjjy/public/contact_left/023.png"  transform="matrix(1 0 0 1 0 1)">
	</image>
</g>
<g id="&#xB808;&#xC774;&#xC5B4;_4">
	<path style="fill:none;stroke:#000000;stroke-width:3;stroke-miterlimit:10;" d="M1080.945-3.081
		c-27.328,26.145-66.205,37.662-93.203,64.147c-13.489,13.232-30.134,23.102-42.368,37.503
		c-25.363,29.858-50.412,60.063-80.06,85.672c-12.543,10.835-26.065,19.834-38.574,30.709c-5.928,5.154-11.874,10.321-18.367,14.743
		c-4.387,2.988-9.022,5.634-13.125,9c-10.977,9.006-18.933,23.491-32.927,25.891c-20.436,3.505-41.944,11.355-60.137,21.3
		c-3.751,2.05-7.495,4.289-10.319,7.498c-2.393,2.719-4.017,6.013-5.613,9.264c-2.764,5.63-5.527,11.26-8.291,16.89
		c-1.061,2.162-2.148,4.44-2.049,6.846c0.218,5.273,6.27,8.718,11.517,8.158c5.247-0.561,9.731-3.88,13.926-7.081
		c23.848-0.041,47.539-1.411,71.28-3.665"/>
</g>
<g id="&#xB808;&#xC774;&#xC5B4;_5">
	<path style="fill:none;stroke:#000000;stroke-width:3;stroke-miterlimit:10;" d="M667.024,358.469
		c-0.571,8.848,6.908,17.43,15.75,18.075c3.723,0.271,7.795-0.611,10.968,1.355c-1.307,3.517,1.564,7.959,5.073,9.288
		s7.414,0.751,11.119,0.156c5.572-0.896,11.144-1.792,16.716-2.688c-0.256,1.837-0.241,4.131,0.455,5.851
		c1.291,3.192,5.07,4.758,8.512,4.646s6.684-1.528,9.92-2.703c3.237-1.175,6.746-2.137,10.091-1.318
		c0.484,2.866,3.587,4.878,6.489,5.044c2.902,0.166,5.701-0.998,8.335-2.229c3.714-1.736,7.624-3.948,9.165-7.747
		c1.877-4.626,4.396-8.876,6.302-13.491c3.84-9.3,9.101-18.012,15.544-25.74c5.686-6.821,12.036-13.079,17.619-19.984
		c6.798-8.408,12.72-17.543,20.131-25.415c4.088-4.342,9.105-8.489,15.06-8.805c15.215-0.807,25.035-15.205,38.423-22.479
		c24.645-13.391,51.818-22.174,74.975-37.999c11.796-8.061,24.955-13.564,37.371-20.633c18.797-10.703,33.608-27.064,48.075-43.144
		c4.919-5.468,11.756-7.481,16.914-12.724c8.744-8.889,13.825-20.728,21.695-30.399c6.834-8.399,15.602-14.964,23.57-22.297
		c8.283-7.623,15.75-16.132,22.231-25.336c8.104-11.506,23.127-15.992,36.109-21.426c27.669-11.584,51.944-33.658,67.784-59.131"/>
</g>
<g id="&#xB808;&#xC774;&#xC5B4;_6">
	<path style="fill:none;stroke:#000000;stroke-width:3;stroke-miterlimit:10;" d="M666.621,360.205
		c13.424-0.016,26.536-7.417,39.722-4.903c1.34,0.255,2.689,0.625,3.819,1.39c3.081,2.085,3.622,6.703,1.949,10.026
		c-1.673,3.322-5.01,5.502-8.453,6.91c-3.443,1.408-7.115,2.2-10.544,3.642"/>
</g>
<g id="&#xB808;&#xC774;&#xC5B4;_7">
	<path style="fill:none;stroke:#000000;stroke-width:3;stroke-miterlimit:10;" d="M713.041,365.968
		c3.555-2.671,8.124-3.967,11.157-7.217c1.802-1.93,2.903-4.39,4.119-6.734c2.373-4.576,5.29-8.868,8.672-12.758
		c1.882-2.166,3.985-4.26,6.635-5.358c3.484-1.443,7.717-0.895,10.719,1.387c3.002,2.283,4.662,6.215,4.203,9.958
		c-0.698,5.696-5.626,9.836-8.154,14.988c-1.458,2.972-2.125,6.319-3.885,9.123c-1.457,2.322-3.583,4.14-5.745,5.825
		c-4.52,3.524-9.354,6.645-14.425,9.315"/>
</g>
<g id="&#xB808;&#xC774;&#xC5B4;_8">
	<path style="fill:none;stroke:#000000;stroke-width:3;stroke-miterlimit:10;" d="M756.603,337.569
		c4.322-1.13,8.644-2.26,12.966-3.39c1.494-0.391,3.052-0.784,4.565-0.475c2.158,0.441,3.825,2.276,4.632,4.325
		c0.807,2.049,0.891,4.304,0.896,6.507c0.024,11.251-1.879,22.813-7.759,32.405c-3.952,6.448-9.988,12.01-17.383,13.596"/>
</g>
<g id="&#xB808;&#xC774;&#xC5B4;_9">
	<path style="fill:none;stroke:#000000;stroke-width:3;stroke-miterlimit:10;" d="M779.426,351.249
		c1.646-2.102,3.889-3.732,6.397-4.648c1.382-0.505,3.086-0.74,4.196,0.226c1.052,0.915,1.119,2.497,1.106,3.891
		c-0.041,4.34-1.083,8.681-1.124,13.021"/>
</g>
<g id="&#xB808;&#xC774;&#xC5B4;_10">
	<path style="fill:none;stroke:#000000;stroke-width:3;stroke-miterlimit:10;" d="M676.597,329.794
		c-28.9,2.541-57.859,4.412-86.845,5.61c-0.692,4.827-0.757,9.744-0.194,14.588c0.147,1.264,0.353,2.568,1.054,3.63
		c0.549,0.833,1.365,1.455,2.222,1.966c3.992,2.381,8.884,2.562,13.531,2.478c20.758-0.378,42.031-3.693,61.953,2.152"/>
</g>
<g id="&#xB808;&#xC774;&#xC5B4;_11">
	<path style="fill:none;stroke:#000000;stroke-width:3;stroke-miterlimit:10;" d="M743.12,326.297
		c0.983,0.992,1.188,0.756,2.095,1.818s1.483,2.591,0.902,3.862"/>
</g>
<g id="&#xB808;&#xC774;&#xC5B4;_2">
	<path style="fill:#FFFFFF;stroke:#000000;stroke-width:3;stroke-miterlimit:10;" d="M304.324-6.792
		c3.022,6.9,7.588,12.992,12.123,19.006c27.79,36.853,56.001,73.387,84.627,109.595c14.879,18.819,37.097,30.063,48.976,50.907
		c6.036,10.591,10.734,21.999,17.954,31.821c3.462,4.709,7.503,9.053,10.139,14.269c2.038,4.031,3.166,8.449,4.28,12.826
		c1.83,7.191,3.659,14.382,5.489,21.573c8.543,8.183,5.211,22.137,3.233,33.8c-4.547,26.804-5.605,54.198-3.14,81.274
		c0.792,8.704,1.55,18.652-4.487,24.972c-2.743,2.872-5.114,7.948-5.344,11.913c-0.068,1.173-0.001,2.419,0.633,3.408
		c0.672,1.048,1.864,1.632,3.034,2.058c6.748,2.456,14.76,1.043,20.261-3.573c5.501-4.617,8.282-12.261,7.034-19.334
		c-1.324-7.499,3.703-15.183,3.462-22.794c-0.055-1.737-0.174-3.484,0.061-5.205c0.827-6.059,6.181-10.909,12.159-12.197
		c5.978-1.288,12.322,0.554,17.433,3.912s9.141,8.118,12.723,13.074c5.317,7.358,9.936,15.689,10.404,24.755
		c0.33,6.396,6.33,10.921,10.319,15.931c9.693,12.175,17.404,25.925,22.738,40.545c0.368,1.008,0.74,2.047,1.451,2.851
		c2.276,2.575,6.89,1.239,8.735-1.66c1.845-2.899,1.735-6.583,1.563-10.016c-0.657-13.074-4.48-27.128-10.781-38.603
		c-2.838-5.169-6.529-9.885-8.786-15.333c-2.257-5.448-2.861-12.074,0.423-16.971c0.339-0.505,0.78-1.024,1.383-1.097
		c0.393-0.048,0.782,0.108,1.134,0.29c3.756,1.941,4.93,6.607,6.476,10.542c1.885,4.798,4.819,9.1,7.729,13.356
		c6.134,8.972,12.268,17.943,18.402,26.915c3.991,5.837,6.099,12.89,9.428,19.129c1.16,2.174,3.348,4.724,5.562,3.641
		c1.685-0.825,1.824-3.135,1.691-5.007c-1.221-17.193-5.213-34.185-11.776-50.123c-2.425-5.889-5.237-11.781-5.766-18.128
		c3.588,1.942,7.176,3.884,10.765,5.827c1.396,0.755,2.862,1.579,3.645,2.959c0.763,1.345,0.738,2.974,0.848,4.517
		c0.512,7.165,4.578,13.99,10.636,17.851c6.888,4.39,8.003,13.919,14.846,18.379c2.055-2.158,1.717-5.591,1.086-8.504
		c-7.853-36.248-39.138-64.44-45.107-101.045c7.291,1.502,12.176,8.089,17.284,13.503c9.242,9.794,20.993,16.787,32.579,23.65
		c1.935,1.146,3.954,2.321,6.194,2.525c2.24,0.205,4.766-0.862,5.498-2.989c1.733-5.039-7.237-8.795-6.057-13.992
		c-5.496-7.964-11.322-16.018-17.676-23.315c-27.073-31.092-54.259-62.298-85.404-89.31c-7.126-6.18-14.541-12.231-19.942-19.964
		c-5.963-8.536-9.618-19.235-18.299-24.983c-9.339-6.185-11.448-20.923-18.564-29.574c-35.711-43.41-61.468-94.961-74.737-149.584"
		/>
</g>
<g id="&#xB808;&#xC774;&#xC5B4;_3">
	<path style="fill:none;stroke:#000000;stroke-width:3;stroke-miterlimit:10;" d="M625.187,365.747
		c-0.808-5.329-2.929-10.454-6.124-14.795"/>
</g>
</svg>
