<?xml version="1.0" encoding="iso-8859-1"?>
<!-- Generator: Adobe Illustrator 24.0.1, SVG Export Plug-In . SVG Version: 6.00 Build 0)  -->
<svg version="1.1" xmlns="http://www.w3.org/2000/svg" xmlns:xlink="http://www.w3.org/1999/xlink" x="0px" y="0px"
	 viewBox="0 0 1280 600" style="enable-background:new 0 0 1280 600;" xml:space="preserve">
<g id="&#xB808;&#xC774;&#xC5B4;_1" style="display:none;">
	
		<image style="display:inline;overflow:visible;" width="772" height="598" xlink:href="../../&#x1102;&#x1166;&#x110B;&#x1175;&#x1107;&#x1165; MYBOX/&#x110C;&#x1169;&#x11BC;&#x1105;&#x1169; &#x110B;&#x1175;&#x110C;&#x1166;&#x11AB; Publishing/pfjjy_PR/pfjjy_nextjs/pfjjy/public/contact_right/024.png"  transform="matrix(1 0 0 1 508 1)">
	</image>
	
		<image style="display:inline;overflow:visible;" width="724" height="600" xlink:href="../../&#x1102;&#x1166;&#x110B;&#x1175;&#x1107;&#x1165; MYBOX/&#x110C;&#x1169;&#x11BC;&#x1105;&#x1169; &#x110B;&#x1175;&#x110C;&#x1166;&#x11AB; Publishing/pfjjy_PR/pfjjy_nextjs/pfjjy/public/contact_left/024.png" >
	</image>
</g>
<g id="&#xB808;&#xC774;&#xC5B4;_5">
	<path style="fill:none;stroke:#000000;stroke-width:3;stroke-miterlimit:10;" d="M670.893,358.836
		c0.545,3.685,4.297,4.296,5.59,7.79c0.583,1.576,0.442,3.491,1.583,4.723c1.151,1.243,3.085,1.233,4.776,1.132
		c5.925-0.355,11.85-0.71,17.774-1.065c2.722,4.347,8.23,7.196,13.356,7.363c4.472,0.146,9.026-1.289,13.364-0.195
		c3.505,0.884,5.469,4.87,8.136,7.31c0.672,0.614,1.359,1.239,2.19,1.61c1.018,0.455,2.168,0.494,3.283,0.492
		c4.345-0.008,8.689-0.523,12.915-1.53c4.665-1.112,9.679,1.393,14.427,0.721c4.748-0.672,9.469-2.806,12.334-6.653
		c1.465-1.967,2.383-4.28,3.634-6.389c1.67-2.817,3.916-5.241,6.143-7.642c7.216-7.778,8.855-19.977,14.936-28.671
		c7.572-10.827,15.653-21.315,23.575-31.888c6.472-8.639,13.496-17.702,23.607-21.482c18.182-6.797,34.018-16.985,51.243-25.934
		c6.506-3.38,13.105-6.795,20.26-8.397c10.946-2.451,19.303-11.332,29.441-16.132c22.556-10.681,44.43-22.803,65.444-36.266
		c17.514-11.221,33.91-21.453,49.221-35.533c5.081-4.673,10.179-9.363,14.592-14.672c9.419-11.332,15.819-25.556,27.864-34.044
		c12.674-8.93,19.506-24.155,29.369-36.117c1.405-1.704,2.82-3.418,4.495-4.857c2.745-2.359,6.166-3.924,9.746-4.459
		c11.718-1.751,18.643-12.484,28.735-18.69c12.99-7.989,26.045-16.026,37.564-26.02c10.315-8.95,19.257-19.348,28.144-29.717"/>
</g>
<g id="&#xB808;&#xC774;&#xC5B4;_6">
	<path style="fill:none;stroke:#000000;stroke-width:3;stroke-miterlimit:10;" d="M672.142,359.991
		c2.794-1.127,5.588-2.254,8.382-3.381c2.744-1.107,5.504-2.219,8.395-2.849c5.607-1.223,11.431-0.585,17.134,0.059
		c1.556,0.176,3.137,0.358,4.578,0.97c1.441,0.612,2.748,1.727,3.212,3.223c0.685,2.208-0.591,4.524-2.002,6.355
		c-2.539,3.297-6.692,5.12-10.248,7.282"/>
	<path style="fill:none;stroke:#000000;stroke-width:3;stroke-miterlimit:10;" d="M736.093,323.506
		c0.44,1.415,2.042,1.062,3.041,2.155c0.726,0.795,1.137,2.871,1.126,3.948"/>
</g>
<g id="&#xB808;&#xC774;&#xC5B4;_7">
	<path style="fill:none;stroke:#000000;stroke-width:3;stroke-miterlimit:10;" d="M713.555,361.946
		c3.335-2.508,9.393-4.229,11.883-7.577c0.921-1.238,1.582-2.647,2.237-4.044c1.445-3.084,2.89-6.169,4.335-9.253
		c2.211-4.719,4.829-9.838,9.656-11.801c2.856-1.161,6.074-1.009,9.116-0.506c0.94,0.155,1.887,0.346,2.742,0.766
		c2.497,1.227,3.7,4.137,4.087,6.892c1.218,8.689-3.597,17.122-9.415,23.689c-5.667,6.396-13.458,13.794-20.968,17.87"/>
</g>
<g id="&#xB808;&#xC774;&#xC5B4;_8">
	<path style="fill:none;stroke:#000000;stroke-width:3;stroke-miterlimit:10;" d="M757.912,336.023
		c1.626-1.008,3.251-2.017,4.877-3.025c2.345-1.455,4.749-2.934,7.444-3.527c2.695-0.594,5.785-0.143,7.711,1.833
		c1.462,1.501,2.063,3.683,2.019,5.778c-0.044,2.094-0.671,4.131-1.381,6.102c-3.345,9.284-8.619,17.73-13.852,26.096
		c-1.319,2.108-2.656,4.239-4.438,5.972c-1.319,1.283-2.854,2.32-4.321,3.431c-2.791,2.114-5.354,6.511-7.91,8.904"/>
</g>
<g id="&#xB808;&#xC774;&#xC5B4;_9">
	<path style="fill:none;stroke:#000000;stroke-width:3;stroke-miterlimit:10;" d="M779.409,344.107
		c2.792-1.085,5.895-1.355,8.833-0.769c0.936,0.187,1.898,0.483,2.569,1.162c0.995,1.008,1.098,2.571,1.102,3.988
		c0.018,7.248-3.013,14.498-5.051,21.454"/>
</g>
<g id="&#xB808;&#xC774;&#xC5B4;_11">
</g>
<g id="&#xB808;&#xC774;&#xC5B4;_10">
	<path style="fill:none;stroke:#000000;stroke-width:3;stroke-miterlimit:10;" d="M673.048,328.559
		c-20.757,2.342-41.891,0.361-62.516,3.671c-0.33,0.053-0.668,0.11-0.955,0.28c-0.411,0.244-0.66,0.683-0.882,1.106
		c-2.64,5.041-4.058,10.716-4.1,16.407c-0.025,3.303,0.678,7.058,3.479,8.808c1.526,0.953,3.4,1.118,5.196,1.215
		c19.29,1.039,38.754-2.935,57.874-0.172"/>
</g>
<g id="&#xB808;&#xC774;&#xC5B4;_4">
	<path style="fill:none;stroke:#000000;stroke-width:3;stroke-miterlimit:10;" d="M722.991,273.05
		c-8.013,3.446-17.71,7.451-24.434,13.007c-12.533,10.355-19.761,25.617-26.602,40.365c-0.92,1.983-1.691,4.696,0.023,6.053
		c0.534,0.423,1.216,0.604,1.883,0.741c10.179,2.094,20.071-3.765,30.096-6.5c7.897-2.154,16.173-2.374,24.356-2.58
		c15.526-0.391,31.052-0.782,46.578-1.173"/>
	<path style="fill:none;stroke:#000000;stroke-width:3;stroke-miterlimit:10;" d="M1074.964-4.996
		c-14.146,18.335-33.386,31.951-52.323,45.281c-8.915,6.275-17.872,12.576-27.624,17.449c-6.045,3.021-12.386,5.489-18.128,9.054
		c-12.049,7.482-20.673,19.264-28.989,30.754c-19.147,26.455-41.625,49.57-65.699,71.636
		c-17.602,16.134-36.347,32.366-56.906,44.511c-31.787,18.777-61.007,42.531-95.49,55.72c-2.058,0.787-6.13,3.535-8.19,4.315"/>
</g>
<g id="&#xB808;&#xC774;&#xC5B4;_2">
	<path style="fill:#FFFFFF;stroke:#000000;stroke-width:3;stroke-miterlimit:10;" d="M307.026-8.019
		c18.832,25.654,36.219,52.368,52.052,79.974c12.948,22.576,32.25,40.201,51.255,57.981c29.823,27.9,54.492,59.602,70.392,97.218
		c10.032,23.732,15.804,49.683,10.044,74.796c-2.327,10.146-6.778,20.243-5.288,30.546c3.619,25.027,8.049,53.609-0.295,77.48
		c-0.418,1.195-0.84,2.581-0.181,3.662c0.62,1.016,1.94,1.317,3.123,1.44c10.682,1.11,21.246-5.09,27.379-13.906
		c6.133-8.816,8.358-19.84,8.519-30.578c0.099-6.648-0.409-13.795,3.158-19.406c10.062,2.404,19.022,9.106,24.17,18.08
		c2.966,5.171,4.679,10.965,7.409,16.264c3.657,7.098,9.052,13.146,13.181,19.98c6.882,11.392,10.054,24.617,15.839,36.603
		c3.807,7.887,11.555,16.298,19.816,13.389c4.507-1.587,7.335-6.3,8.004-11.031c0.668-4.731-0.445-9.519-1.683-14.134
		c-3.609-13.449-8.353-26.593-14.166-39.246c-4.176-9.091-8.742-20.383-2.664-28.33c16.66,25.839,30.062,53.777,39.787,82.942
		c4.34-0.073,7.817-4.047,8.814-8.271c0.997-4.225,0.096-8.638-0.805-12.884c-2.678-12.621-5.355-25.242-8.033-37.863
		c5.972,9.527,13.203,18.264,21.446,25.911c1.458,1.352,3.142,2.749,5.13,2.747c2.73-0.003,4.793-2.797,4.996-5.52
		s-0.945-5.344-2.068-7.833c-12.167-26.959-24.335-53.919-36.502-80.878c-1.685-3.734-2.585-9.465,1.308-10.739
		c2.037-0.667,4.181,0.526,5.941,1.749c14.309,9.938,24.704,24.917,39.59,33.968c2.87,1.745,6.655,3.225,9.411,1.304
		c4.232-2.949,1.222-9.553-2.105-13.494c-26.086-30.899-56.208-58.388-89.357-81.548c-21.018-14.684-32.52-39.896-43.342-63.139
		c-4.718-10.131-8.376-20.787-14.026-30.429c-16.083-27.445-47.012-44.631-59.823-73.747c-3.338-7.586-5.294-15.699-8.175-23.47
		c-8.642-23.31-25.397-43.055-33.141-66.679"/>
</g>
<g id="&#xB808;&#xC774;&#xC5B4;_3">
	<path style="fill:none;stroke:#000000;stroke-width:3;stroke-miterlimit:10;" d="M637.952,388.645
		c-0.586-4.386-3.203-8.87-5.226-12.804c-1.111-2.159-2.614-4.087-4.026-6.062c-4.26-5.961-7.755-12.469-10.37-19.313"/>
</g>
</svg>
