<?xml version="1.0" encoding="iso-8859-1"?>
<!-- Generator: Adobe Illustrator 24.0.1, SVG Export Plug-In . SVG Version: 6.00 Build 0)  -->
<svg version="1.1" xmlns="http://www.w3.org/2000/svg" xmlns:xlink="http://www.w3.org/1999/xlink" x="0px" y="0px"
	 viewBox="0 0 1280 600" style="enable-background:new 0 0 1280 600;" xml:space="preserve">
<g id="&#xB808;&#xC774;&#xC5B4;_1" style="display:none;">
	
		<image style="display:inline;overflow:visible;" width="772" height="598" xlink:href="../../&#x1102;&#x1166;&#x110B;&#x1175;&#x1107;&#x1165; MYBOX/&#x110C;&#x1169;&#x11BC;&#x1105;&#x1169; &#x110B;&#x1175;&#x110C;&#x1166;&#x11AB; Publishing/pfjjy_PR/pfjjy_nextjs/pfjjy/public/contact_right/025.png"  transform="matrix(1 0 0 1 508 1)">
	</image>
	
		<image style="display:inline;overflow:visible;" width="724" height="600" xlink:href="../../&#x1102;&#x1166;&#x110B;&#x1175;&#x1107;&#x1165; MYBOX/&#x110C;&#x1169;&#x11BC;&#x1105;&#x1169; &#x110B;&#x1175;&#x110C;&#x1166;&#x11AB; Publishing/pfjjy_PR/pfjjy_nextjs/pfjjy/public/contact_left/025.png"  transform="matrix(1 0 0 1 0 1)">
	</image>
</g>
<g id="&#xB808;&#xC774;&#xC5B4;_4">
	<path style="fill:none;stroke:#000000;stroke-width:3;stroke-miterlimit:10;" d="M1084.41-7.824
		c-8.451,9.692-17.118,19.564-28.263,25.979c-3.973,2.287-8.198,4.094-12.344,6.05c-9.124,4.304-17.9,9.344-26.215,15.056
		c-22.797,15.661-45.072,30.357-63.461,51.016c-19.832,22.28-40.686,43.631-63.347,63.027c-5.371,4.597-8.446,9.777-13.503,14.718
		c-15.57,15.213-34.661,26.558-49.645,42.349c-23.936,25.226-57.847,39.748-91.47,48.625c-8.368,2.209-14.895,7.545-22.567,11.552
		c-4.395,2.296-8.81,4.692-12.447,8.063c-10.508,9.738-12.784,25.774-22.37,36.421c-3.972,4.412-9.579,9.171-8.135,14.929
		c8.183,3.045,17.76,2.06,25.152-2.588c3.11-1.955,5.848-4.513,9.156-6.108c4.23-2.04,9.056-2.354,13.744-2.634
		c13.816-0.825,27.633-1.649,41.449-2.474"/>
</g>
<g id="&#xB808;&#xC774;&#xC5B4;_5">
	<path style="fill:none;stroke:#000000;stroke-width:3;stroke-miterlimit:10;" d="M673.219,356.931
		c-1.085,3.486-0.541,8.443,1.444,11.507c1.985,3.064,5.375,5.177,9,5.612c5.486,0.657,10.959-2.336,16.42-1.502
		c0.419,4.033,2.882,7.015,6.858,7.811s8.074-0.129,12.012-1.094c3.939-0.964,7.997-1.979,12.004-1.357
		c2.372,3.195,6.044,4.771,9.98,5.353c5.756,0.851,11.663,1.063,17.367-0.085c3.076-0.619,6.058-1.626,9.031-2.63
		c7.005-2.366,14.39-4.988,19.071-10.711c2.787-3.408,2.468-8.389,2.868-12.773c0.513-5.625,2.78-11.077,6.405-15.409
		c9.668-11.551,18.281-23.983,29.137-34.426c2.211-2.126,4.492-4.258,6.007-6.925c1.453-2.558,2.128-5.485,3.432-8.122
		c1.304-2.637,3.536-5.128,6.459-5.459c4.337-3.395,7.788-7.375,12.125-10.771c3.124-2.445,6.334-4.938,10.112-6.149
		c3.963-1.271,8.29-1.042,12.242-2.347c19.706-6.504,39.793-12.027,58.766-20.432c38.666-17.128,71.842-44.32,107.582-66.928
		c10.047-6.355,20.601-12.361,29.148-20.624c22.104-21.369,42.74-44.257,61.713-68.45c5.623-7.17,11.529-14.786,20.015-18.105
		c21.815-8.531,37.9-25.863,54.656-42.231c5.76-5.627,11.235-11.557,17.287-16.868c7.227-6.342,15.215-11.748,23.179-17.135"/>
</g>
<g id="&#xB808;&#xC774;&#xC5B4;_6">
	<path style="fill:none;stroke:#000000;stroke-width:3;stroke-miterlimit:10;" d="M673.926,356.725
		c10.274-2.485,20.849-3.729,31.42-3.694c2.785,0.009,6.112,0.434,7.348,2.929c1.341,2.708-0.764,5.823-2.94,7.92
		c-3.277,3.16-7.015,5.841-11.058,7.932"/>
</g>
<g id="&#xB808;&#xC774;&#xC5B4;_7">
	<path style="fill:none;stroke:#000000;stroke-width:3;stroke-miterlimit:10;" d="M711.726,361.939
		c5.701-5.491,11.461-11.957,15.01-19.033c1.494-2.978,2.804-6.108,4.977-8.633c1.835-2.133,4.198-3.731,6.532-5.302
		c2.905-1.956,6.144-4.001,9.623-3.598c0.641,0.074,1.294,0.242,1.802,0.641c0.592,0.464,0.919,1.18,1.204,1.876
		c3.756,9.191,3.616,19.903-0.378,28.993c-3.995,9.09-12.79,17.437-22.101,20.887"/>
</g>
<g id="&#xB808;&#xC774;&#xC5B4;_8">
	<path style="fill:none;stroke:#000000;stroke-width:3;stroke-miterlimit:10;" d="M753.585,336.612
		c5.373-1.665,7.773-8.226,12.848-10.652c2.714-1.297,5.866-1.244,8.858-0.928c1.66,0.175,3.399,0.46,4.704,1.501
		c2.862,2.283,2.22,6.723,1.306,10.268c-0.951,3.69-1.902,7.379-2.854,11.069c-0.954,3.699-1.913,7.415-3.417,10.927
		c-4.073,9.511-11.82,16.877-19.364,23.958"/>
</g>
<g id="&#xB808;&#xC774;&#xC5B4;_9">
	<path style="fill:none;stroke:#000000;stroke-width:3;stroke-miterlimit:10;" d="M778.183,347.336
		c2.249-2.753,5.763-5.291,8.495-7.567c1.013-0.843,2.467-1.676,3.546-0.919c0.839,0.589,0.893,1.794,0.833,2.817
		c-0.144,2.462-0.458,6.914-0.939,9.332"/>
</g>
<g id="&#xB808;&#xC774;&#xC5B4;_10">
	<path style="fill:none;stroke:#000000;stroke-width:3;stroke-miterlimit:10;" d="M667.263,329.991
		c-15.903,4.911-33.228,1.946-49.523,5.337c-1.378,0.287-2.822,0.659-3.82,1.651c-0.896,0.891-1.301,2.156-1.58,3.388
		c-1.226,5.423-0.586,11.071,0.059,16.593c0.081,0.691,0.175,1.418,0.593,1.975c0.557,0.742,1.55,0.999,2.473,1.085
		c2.831,0.264,5.625-0.606,8.405-1.199c3.235-0.69,6.536-1.011,9.829-1.331c12.583-1.223,25.166-2.445,37.749-3.668"/>
	<path style="fill:none;stroke:#000000;stroke-width:3;stroke-miterlimit:10;" d="M700.075,353.198
		c7.922-0.629,15.793-2.902,23.51-4.8"/>
	<path style="fill:none;stroke:#000000;stroke-width:3;stroke-miterlimit:10;" d="M736.39,317.412
		c1.275,1.764,1.568,2.561,2.278,4.618s0.764,4.451-0.372,6.308"/>
</g>
<g id="&#xB808;&#xC774;&#xC5B4;_11">
</g>
<g id="&#xB808;&#xC774;&#xC5B4;_2">
	<path style="fill:#FFFFFF;stroke:#000000;stroke-width:3;stroke-miterlimit:10;" d="M299.255-5.18
		c13.139,12.946,23.981,28.218,31.87,44.892c1.95,4.122,3.731,8.345,6.172,12.196c2.319,3.657,5.198,6.921,8.064,10.168
		c3.837,4.347,7.674,8.693,11.511,13.04c18.321,20.755,37.851,40.927,56.545,61.347c15.438,16.862,31.127,33.536,45.273,51.497
		c15.843,20.115,29.74,41.875,40.006,65.332c5.798,13.25-1.506,29.672-2.387,44.108c-1.038,16.997-2.037,34.378,2.6,50.764
		c5.816,20.552,2.576,43.04-2.356,63.821c-0.477,2.01-0.966,4.313,0.235,5.994c1.111,1.555,3.224,1.933,5.118,2.186
		c5.699,0.76,11.713,1.482,17.022-0.724c6.622-2.753,10.918-10.251,9.943-17.356c-1.575-11.471,2.697-22.883,2.019-34.442
		c-0.241-4.111-0.033-8.832,3.132-11.467c3.074-2.559,7.87-1.957,11.167,0.306c3.297,2.264,5.441,5.813,7.472,9.259
		c13.362,22.671,29.757,44.316,36.547,69.741c1.043,3.905,2.013,7.916,4.186,11.323c1.421,2.228,3.318,4.124,5.402,5.749
		c2.726,2.126,6.248,3.87,9.549,2.844c3.301-1.027,5.02-6.107,2.144-8.026c-0.007-12.199-2.976-24.956-5.753-36.836
		c-0.764-3.269-1.641-6.539-3.129-9.548c-1.588-3.211-3.833-6.045-5.716-9.092c-4.483-7.254-6.881-15.78-6.836-24.308
		c1.96-2.227,5.617-0.253,7.561,1.987c4.434,5.109,7.298,11.562,8.114,18.277c1.825,15.027,13.849,28.133,15.146,43.215
		c0.097,1.127,0.187,2.303,0.773,3.271c1.463,2.417,5.349,2.143,7.369,0.168c2.02-1.976,2.646-4.939,3.112-7.726
		c1.862-11.135,2.706-22.439,2.518-33.727c10.32,6.089,14.419,18.616,20.532,28.921c0.316,0.532,0.663,1.084,1.206,1.378
		c1.871,1.013,3.576-1.625,3.996-3.711c0.942-4.67,1.269-9.464,0.97-14.219c-0.838-13.341-4.449-26.574-10.06-38.707
		c-7.206-15.582-18.261-29.68-21.707-46.498c20.563,3.924,30.162,28.721,49.007,37.837c2.989,1.446,6.934,2.33,9.344,0.045
		c1.448-1.373,1.863-3.508,1.935-5.502c0.164-4.538-1.086-9.117-3.533-12.942c-15.442-24.132-38.049-42.342-58.522-62.384
		c-4.843-4.742-9.751-9.429-15.001-13.717c-9.99-8.159-21.143-14.808-31.12-22.983c-9.977-8.175-18.978-18.294-22.646-30.66
		c-5.891-19.864-20.244-36.084-33.71-51.831c-11.274-13.183-20.758-27.894-28.112-43.603
		c-12.932-27.627-23.116-57.334-37.776-84.084c-6.645-12.126-14.944-23.937-16.738-37.648"/>
</g>
<g id="&#xB808;&#xC774;&#xC5B4;_3">
	<path style="fill:none;stroke:#000000;stroke-width:3;stroke-miterlimit:10;" d="M633.5,393.5
		c0.718-16.634-1.678-32.78-6.598-48.685"/>
</g>
</svg>
