<?xml version="1.0" encoding="iso-8859-1"?>
<!-- Generator: Adobe Illustrator 24.0.1, SVG Export Plug-In . SVG Version: 6.00 Build 0)  -->
<svg version="1.1" xmlns="http://www.w3.org/2000/svg" xmlns:xlink="http://www.w3.org/1999/xlink" x="0px" y="0px"
	 viewBox="0 0 1280 600" style="enable-background:new 0 0 1280 600;" xml:space="preserve">
<g id="&#xB808;&#xC774;&#xC5B4;_1" style="display:none;">
	
		<image style="display:inline;overflow:visible;" width="772" height="598" xlink:href="../../&#x1102;&#x1166;&#x110B;&#x1175;&#x1107;&#x1165; MYBOX/&#x110C;&#x1169;&#x11BC;&#x1105;&#x1169; &#x110B;&#x1175;&#x110C;&#x1166;&#x11AB; Publishing/pfjjy_PR/pfjjy_nextjs/pfjjy/public/contact_right/026.png"  transform="matrix(1 0 0 1 508 1)">
	</image>
	
		<image style="display:inline;overflow:visible;" width="724" height="600" xlink:href="../../&#x1102;&#x1166;&#x110B;&#x1175;&#x1107;&#x1165; MYBOX/&#x110C;&#x1169;&#x11BC;&#x1105;&#x1169; &#x110B;&#x1175;&#x110C;&#x1166;&#x11AB; Publishing/pfjjy_PR/pfjjy_nextjs/pfjjy/public/contact_left/026.png" >
	</image>
</g>
<g id="&#xB808;&#xC774;&#xC5B4;_6">
	<path style="fill:none;stroke:#000000;stroke-width:3;stroke-miterlimit:10;" d="M1076.256-9.985
		c-3.837,7.909-8.912,15.217-14.983,21.575c-22.696,23.768-57.332,32.722-81.172,55.343c-28.356,26.906-57.221,55.896-84.362,84.026
		c-24.347,25.234-52.921,50.304-81.899,70.046c-20.725,14.119-43.301,28.536-68.378,28.341
		c-16.232,5.442-33.584,13.826-47.217,24.182s-24.897,24.405-29.692,40.84c-1.474,5.054-1.788,11.628,2.673,14.424
		c1.646,1.032,3.664,1.304,5.605,1.239c8.102-0.273,14.91-5.779,22.109-9.507c19.952-10.332,43.877-7.183,66.131-10.286
		c0.912-0.127,2.015-0.192,2.569,0.544"/>
</g>
<g id="&#xB808;&#xC774;&#xC5B4;_7">
	<path style="fill:none;stroke:#000000;stroke-width:3;stroke-miterlimit:10;" d="M661.54,357.623
		c1.327,3.246,2.734,6.609,5.345,8.951c3.767,3.378,9.254,3.947,14.312,3.774c5.057-0.173,10.233-0.906,15.099,0.481
		c5.766,1.643,9.468,7.885,15.33,9.143c2.719,0.584,5.537,0.521,8.307,0.278c3.586-0.314,7.146-0.926,10.624-1.855
		c5.387,4.47,13.595,5.289,19.95,2.353c0.628-0.29,1.243-0.616,1.901-0.828c0.549-0.177,1.121-0.272,1.69-0.366
		c1.458-0.241,2.917-0.482,4.375-0.724c3.791-0.627,7.678,0.379,11.52,0.354c3.842-0.025,7.934-0.844,10.655-3.556
		c3.102-3.091,3.692-7.801,4.643-12.075c1.533-6.89,4.431-13.473,8.476-19.256c4.275-6.111,5.902-14.327,11.106-19.67
		c3.779-3.88,8.751-6.584,11.932-10.967c1.588-2.189,2.662-4.711,4.193-6.94c1.601-2.329,3.671-4.294,5.421-6.513
		c2.936-3.722,4.922-8.092,7.502-12.069c2.58-3.977,5.998-7.721,10.525-9.129c5.01-6.163,14.439-7.682,22.212-9.312
		c14.178-2.972,27.167-9.88,40.699-15.05c6.737-2.574,13.685-4.749,19.913-8.386c4.83-2.821,9.122-6.464,13.741-9.618
		c4.416-3.016,9.121-5.579,13.816-8.137c8.575-4.671,17.15-9.341,25.725-14.012c11.634-6.337,23.134-13.096,34.494-19.913
		c21.638-12.986,37.97-34.2,61.06-44.38c26.355-11.62,41.622-38.993,59.694-61.42c6.578-8.164,13.848-17.145,24.17-18.985
		c10.29-1.834,18.054-8.146,26.126-14.788c23.495-19.333,46.991-38.666,70.486-57.999"/>
</g>
<g id="&#xB808;&#xC774;&#xC5B4;_8">
	<path style="fill:none;stroke:#000000;stroke-width:3;stroke-miterlimit:10;" d="M662.293,356.537
		c3.882-1.413,7.803-2.718,11.758-3.914c3.186-0.964,6.42-1.862,9.74-2.102c2.789-0.202,5.594,0.065,8.354,0.513
		c3.938,0.64,7.806,1.647,11.663,2.665c2.771,0.731,5.905,1.775,6.993,4.427c1.066,2.599-0.376,5.543-2.138,7.731
		c-2.605,3.235-6.519,5.964-10.626,5.346"/>
</g>
<g id="&#xB808;&#xC774;&#xC5B4;_9">
	<path style="fill:none;stroke:#000000;stroke-width:3;stroke-miterlimit:10;" d="M696.939,352.053
		c7.109-0.211,16.807-2.636,22.261-7.2c2.742-2.294,4.625-5.42,6.668-8.354c1.403-2.015,2.902-3.963,4.49-5.835
		c2.103-2.479,4.452-4.888,7.446-6.154c2.994-1.265,6.779-1.14,9.157,1.075c2.169,2.02,2.709,5.204,3.014,8.152
		c0.324,3.123,0.522,6.258,0.596,9.397c0.047,2.022,0.034,4.094-0.654,5.996c-0.595,1.645-1.661,3.07-2.728,4.455
		c-6.597,8.558-10.817,16.613-18.03,24.658"/>
</g>
<g id="&#xB808;&#xC774;&#xC5B4;_10">
	<path style="fill:none;stroke:#000000;stroke-width:3;stroke-miterlimit:10;" d="M748.919,331.984
		c3.15-2.895,9.587-5.504,13.371-7.5c2.562-1.352,5.357-2.433,8.253-2.431c2.897,0.003,5.916,1.257,7.445,3.717
		c1.974,3.176,1.042,7.286-0.056,10.86c-1.081,3.517-2.263,7.002-3.446,10.486c-1.058,3.116-2.115,6.233-3.173,9.349
		c-2.723,8.023-5.608,16.32-11.454,22.452"/>
</g>
<g id="&#xB808;&#xC774;&#xC5B4;_11">
	<path style="fill:none;stroke:#000000;stroke-width:3;stroke-miterlimit:10;" d="M777.238,340.478
		c1.741-1.725,4.002-3.013,6.444-3.228c2.442-0.215,5.046,0.766,6.447,2.778c0.822,1.18,1.193,2.621,1.351,4.051
		c0.25,2.26-1,4.575-1.727,6.729"/>
</g>
<g id="&#xB808;&#xC774;&#xC5B4;_12">
	<path style="fill:none;stroke:#000000;stroke-width:3;stroke-miterlimit:10;" d="M668.495,323.628
		c-5.717-0.268-11.393,0.896-17.005,2.015c-13.239,2.639-26.596,5.066-40.094,5.306c-0.347,9.789,0.746,19.627,3.233,29.101
		c0.414,1.579,1.078,3.376,2.634,3.87c0.869,0.276,1.808,0.059,2.694-0.154c15.437-3.721,31.18-6.173,47.018-7.323"/>
</g>
<g id="&#xB808;&#xC774;&#xC5B4;_13">
	<path style="fill:none;stroke:#000000;stroke-width:3;stroke-miterlimit:10;" d="M735.364,311.832
		c0.235,2.057,1.808,3.663,3.205,5.192c1.397,1.529,2.779,3.41,2.5,5.462"/>
</g>
<g id="&#xB808;&#xC774;&#xC5B4;_2">
	<path style="fill:#FFFFFF;stroke:#000000;stroke-width:3;stroke-miterlimit:10;" d="M293.378-4.853
		c6.984,9.322,13.986,18.666,21.973,27.144c5.154,5.471,10.713,10.576,15.454,16.409c4.682,5.761,8.506,12.158,12.533,18.395
		c17.461,27.043,39.036,51.425,63.754,72.046c8.644,7.211,14.579,16.828,20.754,26.24c3.403,5.186,6.446,10.642,10.461,15.369
		c5.8,6.829,13.427,11.902,19.332,18.639c3.466,3.955,6.287,8.425,9.054,12.896c17.909,28.939,34.736,60.823,33.409,94.83
		c-0.327,8.373,0.399,17.364-0.16,25.724c-0.238,3.548-0.475,7.098-0.485,10.654c-0.032,11.216,2.231,22.433,6.609,32.76
		c6.756,15.936,5.534,33.013,7.104,50.251c0.431,4.729,1.18,9.941,4.804,13.01c3.874,3.281,9.955,2.81,14.206,0.034
		c4.251-2.776,6.972-7.363,8.988-12.022c6.232-14.401-2.254-31.455-1.683-47.136c0.102-2.811,0.549-5.94,2.75-7.692
		c2.269-1.806,5.753-1.398,8.078,0.334s3.665,4.494,4.483,7.276c3.51,11.943,9.204,23.713,13.693,35.323
		c4.227,10.933,8.508,21.969,15.046,31.698c2.696,4.012,5.793,7.806,9.58,10.809c2.124,1.685,4.651,3.163,7.358,3.015
		c5.215-0.286,8.214-6.334,8.25-11.557s-1.734-10.416-1.057-15.595c1.083-8.282,9.228-14.998,17.564-14.485
		c2.568-2.251,4.827-6.121,6.599-9.04c1.424,3.112,0.827,6.715,0.887,10.137c0.06,3.422,1.27,7.379,4.499,8.513
		c3.256,1.143,6.856-1.409,8.187-4.593c1.331-3.184,1.033-6.777,0.868-10.224c-0.909-18.949,2.659-39.144-5.973-56.037
		c-4.33-8.474-11.781-16.827-9.649-26.101c3.873,1.629,7.314,3.462,10.573,6.115c9.694,7.891,19.838,16.408,23.891,28.233
		c1.12,3.267,1.79,6.811,3.939,9.514c2.149,2.703,6.508,4.097,9.056,1.768c2.082-1.903,1.924-5.338,0.619-7.839
		c-1.305-2.501-1.487-6.41-3.248-8.613c-5.028-6.29-8.419-12.634-11.291-20.157c-6.177-16.179-19.249-28.578-31.915-40.389
		c-6.099-5.687-11.837-11.397-17.507-17.512c-5.471-5.9-8.027-13.89-12.507-20.574c-7.349-10.964-19.342-17.746-30.894-24.132
		c-7.982-17.345-17.32-35.287-29.258-50.188c-5.343-6.67-11.512-12.907-14.888-20.758c-24.56-57.109-58.661-111.135-90.064-164.787"
		/>
</g>
<g id="&#xB808;&#xC774;&#xC5B4;_3">
	<path style="fill:none;stroke:#000000;stroke-width:3;stroke-miterlimit:10;" d="M630.965,324.35
		c-0.25-4.721-0.499-9.442-0.748-14.164"/>
</g>
<g id="&#xB808;&#xC774;&#xC5B4;_4">
	<path style="fill:none;stroke:#000000;stroke-width:3;stroke-miterlimit:10;" d="M608.69,420.293
		c1.082-3.227-0.963-9.552-2.384-12.645c-1.35-2.938-2.175-6.085-2.994-9.213c-2.994-11.435-5.988-22.87-8.982-34.305"/>
</g>
<g id="&#xB808;&#xC774;&#xC5B4;_5">
	<path style="fill:none;stroke:#000000;stroke-width:3;stroke-miterlimit:10;" d="M632.649,402.187
		c-0.502-5.722-0.089-18.7-3.206-23.524c-1.051-1.626-2.36-3.068-3.52-4.618c-5.309-7.093-7.303-16.566-5.303-25.197"/>
</g>
</svg>
