<?xml version="1.0" encoding="iso-8859-1"?>
<!-- Generator: Adobe Illustrator 24.0.1, SVG Export Plug-In . SVG Version: 6.00 Build 0)  -->
<svg version="1.1" xmlns="http://www.w3.org/2000/svg" xmlns:xlink="http://www.w3.org/1999/xlink" x="0px" y="0px"
	 viewBox="0 0 1280 600" style="enable-background:new 0 0 1280 600;" xml:space="preserve">
<g id="&#xB808;&#xC774;&#xC5B4;_1" style="display:none;">
	
		<image style="display:inline;overflow:visible;" width="772" height="598" xlink:href="../../&#x1102;&#x1166;&#x110B;&#x1175;&#x1107;&#x1165; MYBOX/&#x110C;&#x1169;&#x11BC;&#x1105;&#x1169; &#x110B;&#x1175;&#x110C;&#x1166;&#x11AB; Publishing/pfjjy_PR/pfjjy_nextjs/pfjjy/public/contact_right/027.png"  transform="matrix(1 0 0 1 508 1)">
	</image>
	
		<image style="display:inline;overflow:visible;" width="724" height="600" xlink:href="../../&#x1102;&#x1166;&#x110B;&#x1175;&#x1107;&#x1165; MYBOX/&#x110C;&#x1169;&#x11BC;&#x1105;&#x1169; &#x110B;&#x1175;&#x110C;&#x1166;&#x11AB; Publishing/pfjjy_PR/pfjjy_nextjs/pfjjy/public/contact_left/027.png" >
	</image>
</g>
<g id="&#xB808;&#xC774;&#xC5B4;_5">
	<path style="fill:none;stroke:#000000;stroke-width:3;stroke-miterlimit:10;" d="M1085.926-8.076
		c-3.761,13.201-14.78,23.191-26.758,29.895s-25.221,10.814-37.57,16.807c-10.085,4.894-19.523,11.019-28.699,17.456
		c-12.544,8.799-24.656,18.212-36.279,28.195c-10.97,9.422-18.509,20.689-28.339,31.296c-19.489,21.03-41.336,40.274-66.669,53.701
		c-45.185,23.95-76.189,70.095-124.436,87.051c-18.735,6.584-38.817,11.498-53.923,24.388c-9.862,8.415-13.799,22.994-20.721,33.955
		c-2.122,3.359-4.302,7.543-2.502,11.085c1.52,2.99,5.223,4.06,8.551,4.474c8.236,1.026,16.732-0.118,24.404-3.285
		c4.999-2.064,9.636-4.961,14.723-6.8c5.691-2.057,11.774-2.731,17.792-3.36c17.389-1.818,34.803-3.39,52.237-4.717"/>
</g>
<g id="&#xB808;&#xC774;&#xC5B4;_6">
	<path style="fill:none;stroke:#000000;stroke-width:3;stroke-miterlimit:10;" d="M661.452,362.554
		c-0.456,1.86,0.812,3.802,2.489,4.727c1.677,0.925,3.665,1.057,5.579,1.114c5.39,0.162,10.792-0.109,16.139-0.809
		c3.551-0.465,7.299-1.096,10.608,0.275c1.981,0.821,3.624,2.299,5.567,3.205c4.156,1.937,8.997,1.024,13.583,1.062
		c7.033,0.058,14.023,2.544,19.513,6.938c5.152,4.123,12.108,2.175,18.426,0.269c1.176-0.355,2.343-0.776,3.563-0.919
		c2.484-0.292,4.953,0.583,7.453,0.681c3.19,0.125,6.412-1.086,8.731-3.28c4.215-3.989,7.069-9.583,9.508-14.85
		c1.633-3.526,2.432-7.372,3.722-11.037c2.755-7.828,7.681-14.674,12.542-21.4c12.914-17.864,25.974-35.277,45.594-45.321
		c10.516-5.383,19.841-13.197,30.235-18.812c4.183-2.26,8.394-4.532,12.913-6.011c6.497-2.126,13.41-2.545,20.127-3.817
		c19.757-3.739,37.279-14.701,54.273-25.45c11.998-7.588,22.441-14.442,33.738-23.039c7.448-5.668,14.537-11.84,22.424-16.878
		c5.667-3.62,11.699-6.624,17.572-9.898c19.861-11.072,37.924-25.272,53.811-41.54c9.861-10.098,20.331-19.658,30.541-29.404
		c5.067-4.836,10.141-9.68,15.602-14.067c8.577-6.891,18.082-12.624,28.177-16.997c13.299-5.761,25.669-15.079,37.748-23.088
		c17.021-11.286,29.626-28.078,45.625-40.772c5.7-4.522,12.064-8.799,15.215-15.358"/>
</g>
<g id="&#xB808;&#xC774;&#xC5B4;_7">
	<path style="fill:none;stroke:#000000;stroke-width:3;stroke-miterlimit:10;" d="M662.576,350.382
		c11.788-3.319,24.523-3.198,36.246,0.346c1.918,0.58,3.854,1.273,5.401,2.547c1.547,1.274,2.654,3.242,2.417,5.231
		c-0.253,2.121-1.931,3.799-3.734,4.944s-5.83,2.945-7.487,4.294"/>
</g>
<g id="&#xB808;&#xC774;&#xC5B4;_8">
	<path style="fill:none;stroke:#000000;stroke-width:3;stroke-miterlimit:10;" d="M693.082,349.591
		c4.94-1.18,9.881-2.359,14.821-3.539c6.133-1.464,12.654-3.15,16.9-7.811c3.832-4.207,5.36-10.409,10.012-13.688
		c3.471-2.446,8.003-2.741,12.241-2.489c1.413,0.084,2.899,0.246,4.05,1.07c2.028,1.452,2.276,4.33,2.228,6.824
		c-0.099,5.199-0.662,10.39-1.679,15.49c-0.818,4.104-1.956,8.211-4.128,11.788c-4.907,8.085-14.187,12.228-22.902,15.9"/>
</g>
<g id="&#xB808;&#xC774;&#xC5B4;_9">
	<path style="fill:none;stroke:#000000;stroke-width:3;stroke-miterlimit:10;" d="M753.705,329.34
		c2.342-3.579,6.058-4.563,10.281-5.242c3.523-0.566,7.827-0.835,9.934,2.045c0.804,1.099,1.11,2.473,1.386,3.806
		c0.747,3.609,1.416,7.294,1.065,10.963c-0.405,4.226-2.139,8.194-3.85,12.079c-2.018,4.581-4.059,9.203-7.019,13.24
		c-3.532,4.817-7.239,9.623-11.891,13.372"/>
</g>
<g id="&#xB808;&#xC774;&#xC5B4;_10">
	<path style="fill:none;stroke:#000000;stroke-width:3;stroke-miterlimit:10;" d="M776.37,339.074
		c1.67-3.452,6.589-4.549,9.904-2.623c3.315,1.926,1.864,6.167,1.233,9.949"/>
</g>
<g id="&#xB808;&#xC774;&#xC5B4;_11">
	<path style="fill:none;stroke:#000000;stroke-width:3;stroke-miterlimit:10;" d="M660.848,318.804
		c-5.526,2.12-10.469,1.861-16.343,2.585c-10.951,1.351-21.903,2.701-32.854,4.052c-0.877,0.108-1.785,0.227-2.536,0.693
		c-0.945,0.586-1.496,1.63-1.94,2.649c-2.389,5.487-2.911,11.767-1.462,17.573c0.288,1.152,0.679,2.335,1.526,3.167
		c0.909,0.894,2.208,1.253,3.459,1.497c4.558,0.889,9.249,0.702,13.889,0.511c10.652-0.438,21.305-0.876,31.957-1.314"/>
</g>
<g id="&#xB808;&#xC774;&#xC5B4;_12">
	<path style="fill:none;stroke:#000000;stroke-width:3;stroke-miterlimit:10;" d="M740.234,315.086
		c1.617,1.801,1.818,3.974,2.482,6.301"/>
</g>
<g id="&#xB808;&#xC774;&#xC5B4;_2">
	<path style="fill:#FFFFFF;stroke:#000000;stroke-width:3;stroke-miterlimit:10;" d="M281.534-9.626
		c40.524,46.868,79.624,94.967,117.23,144.208c2.612,3.421,5.218,6.847,7.823,10.273c14.592,19.19,32.76,33.41,48.775,51.43
		c23.951,26.947,32.873,63.669,40.995,98.795c4.304,18.614,0.19,36.13,9.396,52.87c4.316,7.849,10.46,14.614,14.418,22.65
		c3.365,6.83,5.042,14.364,6.22,21.887c2.291,14.627,2.802,29.531,1.518,44.281c3.515,2.691,8.988,0.62,11.422-3.077
		c2.434-3.698,2.665-8.374,2.82-12.798c0.572-16.371,1.143-32.742,1.715-49.113c16.892,12.609,22.719,34.793,32.875,53.264
		c2.192,3.987,8.099,7.986,10.38,4.049c6.134-10.585,11.678-19.473,20.902-27.51c6.127-5.339,12.919-9.916,18.705-15.622
		s10.637-12.864,11.525-20.943c0.823-7.495-1.815-14.89-4.411-21.969c-2.798-7.63-5.596-15.261-8.394-22.891
		c1.098,12.154,18.041,15.475,23.949,26.153c4.787,8.651,1.163,19.515,3.149,29.201c0.577,2.816,1.89,5.806,4.535,6.931
		c1.784,0.759,3.858,0.506,5.67-0.182c9.201-3.495,11.143-15.862,9.073-25.484c-2.777-12.905-9.907-24.416-17.427-35.266
		c-13.623-19.655-28.946-38.132-45.742-55.156c-9.692-9.824-22.171-19.176-30.825-29.926c-7.174-8.911-13.321-18.592-19.578-28.169
		c-12.397-18.977-25.282-37.635-38.638-55.949c-7.312-10.026-16.226-21.092-22.618-31.728c-4.707-7.832-9.414-15.665-14.12-23.497
		c-5.165-8.594-10.759-17.471-14.318-26.845c-10.371-27.321-23.666-53.532-39.585-78.04"/>
</g>
<g id="&#xB808;&#xC774;&#xC5B4;_3">
	<path style="fill:none;stroke:#000000;stroke-width:3;stroke-miterlimit:10;" d="M599.65,410.072
		c0.192-5.975,0.384-8.951,0.576-14.926c0.067-2.075,0.132-4.165-0.207-6.213c-0.356-2.149-1.149-4.198-1.987-6.209
		c-1.689-4.055-3.577-8.027-5.656-11.896"/>
</g>
<g id="&#xB808;&#xC774;&#xC5B4;_4">
	<path style="fill:none;stroke:#000000;stroke-width:3;stroke-miterlimit:10;" d="M620.272,390.947
		c0.715-4.735,0.62-9.591-0.28-14.294c-1.699-8.887-6.254-17.511-5.055-26.479"/>
</g>
</svg>
