<?xml version="1.0" encoding="iso-8859-1"?>
<!-- Generator: Adobe Illustrator 24.0.1, SVG Export Plug-In . SVG Version: 6.00 Build 0)  -->
<svg version="1.1" xmlns="http://www.w3.org/2000/svg" xmlns:xlink="http://www.w3.org/1999/xlink" x="0px" y="0px"
	 viewBox="0 0 1280 600" style="enable-background:new 0 0 1280 600;" xml:space="preserve">
<g id="&#xB808;&#xC774;&#xC5B4;_1" style="display:none;">
	
		<image style="display:inline;overflow:visible;" width="772" height="598" xlink:href="../../&#x1102;&#x1166;&#x110B;&#x1175;&#x1107;&#x1165; MYBOX/&#x110C;&#x1169;&#x11BC;&#x1105;&#x1169; &#x110B;&#x1175;&#x110C;&#x1166;&#x11AB; Publishing/pfjjy_PR/pfjjy_nextjs/pfjjy/public/contact_right/028.png"  transform="matrix(1 0 0 1 508 1)">
	</image>
	
		<image style="display:inline;overflow:visible;" width="724" height="600" xlink:href="../../&#x1102;&#x1166;&#x110B;&#x1175;&#x1107;&#x1165; MYBOX/&#x110C;&#x1169;&#x11BC;&#x1105;&#x1169; &#x110B;&#x1175;&#x110C;&#x1166;&#x11AB; Publishing/pfjjy_PR/pfjjy_nextjs/pfjjy/public/contact_left/028.png" >
	</image>
</g>
<g id="&#xB808;&#xC774;&#xC5B4;_6">
	<path style="fill:none;stroke:#000000;stroke-width:3;stroke-miterlimit:10;" d="M655.098,353.709
		c7.778-1.262,15.564-2.475,23.358-3.639c6.344-0.947,13.581-1.624,18.446,2.557c1.341,1.152,2.441,2.723,2.552,4.487
		c0.127,2.001-1.013,3.85-2.237,5.438c-2.096,2.718-5.578,6.139-8.347,8.167"/>
</g>
<g id="&#xB808;&#xC774;&#xC5B4;_9">
	<path style="fill:none;stroke:#000000;stroke-width:3;stroke-miterlimit:10;" d="M693.617,350.199
		c2.553-3.657,10.11-4.43,14.512-5.146c5.073-0.825,9.081-4.606,12.748-8.208c3.228-3.171,6.457-6.342,9.685-9.514
		c1.566-1.538,3.212-3.126,5.301-3.797c2.331-0.749,4.865-0.246,7.228,0.393c0.57,0.154,1.185,0.349,1.515,0.839
		c0.305,0.454,0.286,1.043,0.255,1.589c-0.246,4.322-0.491,8.645-0.737,12.967c-0.087,1.528-0.181,3.09-0.759,4.507
		c-0.664,1.626-1.91,2.932-3.129,4.196c-7.702,7.991-14.405,15.983-22.107,23.974"/>
</g>
<g id="&#xB808;&#xC774;&#xC5B4;_10">
	<path style="fill:none;stroke:#000000;stroke-width:3;stroke-miterlimit:10;" d="M745.561,326.751
		c4.458-4.592,10.858-7.234,17.257-7.126c0.954,0.016,1.937,0.098,2.788,0.531c1.677,0.854,2.429,2.83,2.809,4.673
		c2.145,10.411-2.964,20.798-7.917,30.204c-4.165,7.909-7.64,16.165-15.144,21.02c-0.015,0.826-0.58,1.647,0.112,2.097"/>
</g>
<g id="&#xB808;&#xC774;&#xC5B4;_11">
	<path style="fill:none;stroke:#000000;stroke-width:3;stroke-miterlimit:10;" d="M768.736,336.326
		c2.6-1.631,5.561-3.331,8.556-2.662c2.884,0.644,4.92,3.442,5.442,6.351c0.522,2.909-0.203,5.898-1.188,8.684"/>
</g>
<g id="&#xB808;&#xC774;&#xC5B4;_12">
	<path style="fill:none;stroke:#000000;stroke-width:3;stroke-miterlimit:10;" d="M724.458,313.57
		c3.444,2.735,5.975,7.601,7.104,11.852"/>
</g>
<g id="&#xB808;&#xC774;&#xC5B4;_7">
	<path style="fill:none;stroke:#000000;stroke-width:3;stroke-miterlimit:10;" d="M654.866,351.931
		c-0.28,3.556,2.515,6.023,5.017,8.566c2.502,2.543,5.664,4.313,8.78,6.049c2.98,1.66,6.052,3.351,9.434,3.799
		c2.605,0.345,5.271-0.069,7.869,0.322c3.857,0.579,7.22,2.861,10.885,4.197c7.889,2.876,17.318,0.958,23.457-4.771
		c0.581,5.319,5.528,10.578,10.737,11.801c5.209,1.224,11.067-1.149,13.956-5.653c8.301,1.341,19.069,2.553,25.463-2.909
		c9.247-7.899,6.534-24.894,16.634-31.668c12.794-8.581,23.5-20.308,32.921-32.497c2.227-2.881,4.378-5.891,5.628-9.311
		c0.92-2.516,1.337-5.216,2.495-7.632c2.909-6.075,9.709-9.066,15.964-11.565c25.943-10.366,54.041-16.967,76.3-33.85
		c6.921-5.25,13.338-11.299,21.066-15.267c17.418-8.942,39.909-6.53,55.161-18.807c42.531-34.236,84.723-69.834,130.079-100.229
		c11.986-8.032,13.378-25.867,25.819-33.175c8.373-4.918,19.629-10.513,28.614-14.195c23.914-9.801,41.073-30.799,61.527-46.598
		c10.144-7.835,22.076-15.675,24.903-28.177"/>
</g>
<g id="&#xB808;&#xC774;&#xC5B4;_8">
	<path style="fill:none;stroke:#000000;stroke-width:3;stroke-miterlimit:10;" d="M661.769,313.924
		c-4.942,6.764-11.945,10.701-20.067,12.755s-16.554,2.469-24.846,3.662c-8.707,1.253-17.289,3.373-25.577,6.318
		c-3.623,1.287-7.367,2.861-9.717,5.903c-4.103,5.311-2.511,13.035,0.357,19.102c0.618,1.307,1.331,2.643,2.52,3.465
		c1.496,1.034,3.448,1.06,5.265,0.977c23.628-1.085,44.949-14.173,68.544-12.526"/>
</g>
<g id="&#xB808;&#xC774;&#xC5B4;_2">
	<path style="fill:#FFFFFF;stroke:#000000;stroke-width:3;stroke-miterlimit:10;" d="M275.095-6.023
		c8.561,14.4,20.069,27.04,33.606,36.91c6.848,4.993,14.358,9.426,19.456,16.196c5.875,7.802,7.863,17.794,12.197,26.546
		c11.715,23.655,38.7,35.463,55.265,56.016c11.226,13.928,18.309,32.452,34.268,40.534c16.075,25.485,35.949,47.923,56.495,69.962
		c4.362,4.679,8.912,9.413,11.401,15.307c2.34,5.542,2.676,11.693,2.982,17.7c1.109,21.812,2.217,43.625,3.326,65.437
		c0.284,5.593,0.6,11.327,2.837,16.461c1.358,3.119,3.38,5.902,4.906,8.942c3.466,6.905,4.232,14.792,5.458,22.421
		c2.65,16.488,7.677,32.487,12.688,48.418c0.761,2.42,1.894,5.205,4.359,5.803c1.905,0.462,3.846-0.638,5.288-1.967
		c6.775-6.243,6.75-16.758,6.224-25.956c-0.784-13.72-1.568-27.44-2.352-41.16c5.545-2.795,12.013,2.959,13.408,9.01
		c1.395,6.051-0.119,12.426,0.8,18.567c1.494,9.985,10.066,18.485,20.063,19.895c5.346-6.31,12.679-8.795,20.943-9.106
		c2.293-0.086,4.967-0.075,6.369-1.892c0.921-1.194,0.969-2.817,1.068-4.321c0.337-5.147,1.727-10.223,4.061-14.823
		c0.59-1.163,1.259-2.32,2.24-3.179c1.865-1.631,4.503-1.924,6.947-2.33c7.121-1.182,13.882-3.901,20.577-6.6
		c3.273-1.32,6.681-2.735,8.956-5.432c1.969-2.334,2.864-5.371,3.597-8.335c2.358-9.526,3.258-20.591-2.913-28.221
		c-2.704-3.343-6.483-5.623-9.614-8.569c-3.132-2.947-5.736-7.101-4.939-11.326c-12.945-9.353-18.686-27.053-28.547-39.616
		c-11.196-14.264-29.228-22.01-40.034-36.571c-6.662-8.976-10.078-19.884-15.121-29.861c-6.671-13.198-16.169-24.722-25.586-36.124
		c-6.939-8.401-15.915-17.753-23.096-25.949c-6.675-7.618-11.366-16.734-15.915-25.784c-21.217-42.212-40.841-85.226-58.815-128.918
		"/>
	<path style="fill:none;stroke:#000000;stroke-width:3;stroke-miterlimit:10;" d="M1091.969-8.056
		c-16.018,21.619-38.141,38.665-63.129,48.642c-20.111,8.03-43.621,12.703-56.322,30.242c-3.638,5.024-6.119,10.831-9.94,15.717
		c-9.908,12.668-26.926,17.118-39.736,26.842c-5.728,4.348-10.574,9.728-15.497,14.969c-25.78,27.446-54.669,51.97-85.936,72.952
		c-24.322,16.322-45.113,41.274-72.772,50.916c-9.744,3.397-19.941,5.394-29.617,8.982c-18.613,6.902-34.958,19.775-46.029,36.252
		c-3.634,5.409-8.784,9.5-10.74,15.716c-2.09,6.64-1.213,15.541,5.179,18.3c4.37,1.886,9.5-0.022,13.318-2.864
		c3.818-2.841,6.93-6.593,10.959-9.125c5.672-3.565,12.589-4.385,19.251-5.089c21.075-2.229,42.18-4.176,63.307-5.841"/>
</g>
<g id="&#xB808;&#xC774;&#xC5B4;_3">
	<path style="fill:none;stroke:#000000;stroke-width:3;stroke-miterlimit:10;" d="M585.93,412.638
		c0.944-1.432,2.914-4.855,3.669-6.396c4.063-8.292,1.262-18.15-1.596-26.93"/>
</g>
<g id="&#xB808;&#xC774;&#xC5B4;_4">
	<path style="fill:none;stroke:#000000;stroke-width:3;stroke-miterlimit:10;" d="M613.608,384.244
		c2.035-8.353,1.779-18.253-0.732-26.476"/>
</g>
<g id="&#xB808;&#xC774;&#xC5B4;_5">
	<path style="fill:none;stroke:#000000;stroke-width:3;stroke-miterlimit:10;" d="M637.165,377.513
		c0.269-3.924,0.537-8.847,0.806-12.771c0.19-2.781,0.375-5.622-0.345-8.314c-0.576-2.153-1.706-4.11-2.824-6.038
		c-2.485-4.288-4.971-8.575-7.456-12.862"/>
</g>
</svg>
