<?xml version="1.0" encoding="iso-8859-1"?>
<!-- Generator: Adobe Illustrator 24.0.1, SVG Export Plug-In . SVG Version: 6.00 Build 0)  -->
<svg version="1.1" xmlns="http://www.w3.org/2000/svg" xmlns:xlink="http://www.w3.org/1999/xlink" x="0px" y="0px"
	 viewBox="0 0 1280 600" style="enable-background:new 0 0 1280 600;" xml:space="preserve">
<g id="&#xB808;&#xC774;&#xC5B4;_1" style="display:none;">
	
		<image style="display:inline;overflow:visible;" width="772" height="598" xlink:href="../../&#x1102;&#x1166;&#x110B;&#x1175;&#x1107;&#x1165; MYBOX/&#x110C;&#x1169;&#x11BC;&#x1105;&#x1169; &#x110B;&#x1175;&#x110C;&#x1166;&#x11AB; Publishing/pfjjy_PR/pfjjy_nextjs/pfjjy/public/contact_right/029.png"  transform="matrix(1 0 0 1 508 1)">
	</image>
	
		<image style="display:inline;overflow:visible;" width="724" height="600" xlink:href="../../&#x1102;&#x1166;&#x110B;&#x1175;&#x1107;&#x1165; MYBOX/&#x110C;&#x1169;&#x11BC;&#x1105;&#x1169; &#x110B;&#x1175;&#x110C;&#x1166;&#x11AB; Publishing/pfjjy_PR/pfjjy_nextjs/pfjjy/public/contact_left/029.png" >
	</image>
</g>
<g id="&#xB808;&#xC774;&#xC5B4;_3">
	<path style="fill:none;stroke:#000000;stroke-width:3;stroke-miterlimit:10;" d="M1099.715-5.704
		c-5.974,6.88-12.111,13.619-18.402,20.211c-2.367,2.48-4.797,4.971-7.766,6.685c-4.051,2.338-8.797,3.059-13.379,3.997
		c-9.233,1.891-18.252,4.825-26.83,8.73c-6.702,3.051-13.203,6.716-20.344,8.514c-4.548,1.145-9.287,1.511-13.74,2.983
		c-8.878,2.935-15.724,9.917-22.202,16.66c-9.599,9.992-18.722,19.425-29.422,28.229c-24.215,19.924-46.487,42.208-66.399,66.433
		c-25.963,8.653-39.806,35.964-63.689,49.327c-10.321,5.774-23.411,9.777-27.676,20.808c-2.062,5.333-7.438,8.895-10.792,13.526
		c-1.994,2.753-4.052,5.569-6.895,7.433c-2.384,1.563-5.177,2.359-7.934,3.083c-14.324,3.764-29.002,6.18-43.777,7.205
		c-6.217,0.431-12.091,5.272-17.998,7.259c-5.233,1.76-10.678,3.011-15.59,5.532c-4.353,2.235-8.152,5.401-11.827,8.632
		c-5.21,4.579-10.31,9.407-14.086,15.226s-6.158,12.773-5.433,19.672c0.294,2.799,1.122,5.598,2.794,7.862
		c3.19,4.32,9.079,6.034,14.402,5.323c5.323-0.712,10.153-3.497,14.434-6.741c4.51-3.418,10.51-5.654,15.517-8.291
		c20.954,1.311,42.266,0.861,63.159-1.2"/>
</g>
<g id="&#xB808;&#xC774;&#xC5B4;_4">
	<path style="fill:none;stroke:#000000;stroke-width:3;stroke-miterlimit:10;" d="M652.742,353.332
		c1.822,5.608,6.748,10.095,12.501,11.387c6.875,1.544,14.721-1.11,20.752,2.535c3.491,2.11,5.78,5.843,8.74,8.651
		c6.84-1.205,13.72-2.183,20.624-2.933c2.747-0.298,4.166,3.691,5.962,5.79c1.796,2.099,4.426,4.049,7.099,3.349
		c5.549-1.452,11.251-2.178,16.968-2.649c4.532-0.373,9.016,1.951,13.555,2.227c2.995,0.182,6.091,0.203,8.882-0.899
		c2.791-1.101,5.23-3.567,5.47-6.558c0.339-4.231,1.591-8.307,2.314-12.489c0.331-1.911,0.668-3.843,1.43-5.627
		c1.388-3.246,4.061-5.738,6.66-8.127c11.172-10.272,18.383-24.364,27.887-36.197c3.144-3.914,6.308-7.86,8.643-12.305
		c1.91-3.635,3.259-7.592,5.681-10.908c2.75-3.765,6.695-6.451,10.559-9.059c12.387-8.363,27.791-15.203,40.919-22.349
		c5.391-2.935,10.807-5.881,16.573-7.987c7.505-2.742,15.45-4.01,23.295-5.525c16.275-3.141,32.333-7.403,48.024-12.744
		c8.327-10.35,20.993-15.949,32.827-21.984c16.056-8.187,32.111-16.375,48.167-24.562c8.048-4.104,17.004-10.9,23.692-16.973
		c2.302-2.091,4.316-4.475,6.322-6.852c3.059-3.624,6.117-7.248,9.176-10.872c10.918-12.936,25.841-22.682,36.202-36.067
		c6.949-8.978,14.126-19.316,25.21-21.771c4.05-7.799,13.306-11.156,21.556-14.182c10.477-3.842,20.402-9.188,29.376-15.821
		c9.569-7.073,19.748-12.965,29.002-20.446c16.324-13.198,33.038-26.849,43.336-45.14"/>
</g>
<g id="&#xB808;&#xC774;&#xC5B4;_5">
	<path style="fill:none;stroke:#000000;stroke-width:3;stroke-miterlimit:10;" d="M652.993,354.014
		c5.515-2.605,11.488-4.064,17.414-5.508c2.941-0.716,5.896-1.435,8.913-1.686c3.585-0.299,7.195,0.068,10.745,0.646
		c3.003,0.489,6.307,1.346,7.926,3.922c1.751,2.787,0.736,6.633-1.469,9.077s-7.33,4.813-10.354,6.111"/>
</g>
<g id="&#xB808;&#xC774;&#xC5B4;_6">
	<path style="fill:none;stroke:#000000;stroke-width:3;stroke-miterlimit:10;" d="M692.471,348.042
		c6.312-1.698,12.68-3.417,18.484-6.423c5.804-3.006,11.078-7.444,13.906-13.337c0.541-1.128,1.032-2.356,2.031-3.109
		c0.906-0.683,2.086-0.861,3.216-0.964c2.873-0.263,5.777-0.179,8.63,0.247c1.074,0.161,2.184,0.388,3.048,1.046
		c0.983,0.747,1.509,1.945,1.876,3.123c2.665,8.547-1.164,17.929-6.901,24.802c-5.737,6.873-13.25,13.003-19.743,19.166"/>
</g>
<g id="&#xB808;&#xC774;&#xC5B4;_7">
	<path style="fill:none;stroke:#000000;stroke-width:3;stroke-miterlimit:10;" d="M744.73,328.988
		c5.708-3.626,11.942-7.393,18.687-6.909c0.657,0.047,1.337,0.144,1.885,0.51c1.069,0.713,1.293,2.17,1.347,3.453
		c0.302,7.113-1.6,14.305-5.379,20.338c-2.109,3.367-4.769,6.357-6.963,9.669c-4.815,7.266-7.329,16.98-12.885,23.696"/>
</g>
<g id="&#xB808;&#xC774;&#xC5B4;_8">
	<path style="fill:none;stroke:#000000;stroke-width:3;stroke-miterlimit:10;" d="M764.602,339.554
		c3.677-0.684,7.385-1.203,11.109-1.556c0.622-0.059,1.287-0.105,1.835,0.196c0.695,0.382,1.002,1.208,1.184,1.98
		c0.789,3.338,0.276,9.831-0.297,13.212"/>
</g>
<g id="&#xB808;&#xC774;&#xC5B4;_9">
	<path style="fill:none;stroke:#000000;stroke-width:3;stroke-miterlimit:10;" d="M726.885,313.493
		c1.565,2.949,3.065,6.932,4.499,9.947"/>
</g>
<g id="&#xB808;&#xC774;&#xC5B4;_10">
	<path style="fill:none;stroke:#000000;stroke-width:3;stroke-miterlimit:10;" d="M656.713,316.433
		c-3.682,2.166-8.037,2.807-12.049,4.275c-4.168,1.525-7.944,3.938-11.938,5.873c-17.503,8.478-38.82,7.639-55.185,18.148
		c-0.821,0.527-1.651,1.108-2.153,1.945c-0.505,0.842-0.625,1.858-0.638,2.84c-0.074,5.484,2.778,10.552,5.823,15.114
		c2.851,4.272,6.429,8.693,11.479,9.63c3.943,0.732,7.957-0.863,11.386-2.942c3.429-2.079,6.562-4.681,10.229-6.305
		c2.522-1.117,5.23-1.739,7.908-2.399c6.675-1.645,13.305-3.57,19.603-6.327c3.67-1.607,8.021-3.476,11.441-1.388"/>
</g>
<g id="&#xB808;&#xC774;&#xC5B4;_2">
	<path style="fill:#FFFFFF;stroke:#000000;stroke-width:3;stroke-miterlimit:10;" d="M266.261-7.069
		c10.082,15.976,27.854,25.754,38.521,41.344c4.985,7.285,8.243,15.595,12.59,23.278c6.805,12.028,16.22,22.405,26.449,31.697
		c20.396,18.527,36.004,40.245,56.684,58.455c7.196,6.336,14.716,12.732,19.121,21.249c3.197,6.181,4.849,13.575,10.27,17.938
		c0.57,4.788,3.269,7.205,6.141,11.078c10.967,14.785,22.463,29.177,34.46,43.14c12.284,14.297,25.464,28.789,30.845,46.855
		c5.725,19.222-1.615,39.851,0.805,59.761c0.709,5.833,1.609,11.789,4.408,16.957c2.057,3.798,5.047,6.993,8.003,10.142
		c-1.196,17.679,9.713,33.542,11.26,51.194c0.364,4.155,0.19,8.346,0.625,12.494c0.095,0.909,0.272,1.911,0.995,2.47
		c0.93,0.72,2.273,0.357,3.359-0.094c8.329-3.456,15.116-10.458,18.311-18.89c0.641-1.691,0.331-3.546,0.748-5.305
		c0.417-1.759,1.561-3.533,3.328-3.915c2.1-0.454,4.013,1.159,5.69,2.503c2.758,2.21,5.872,3.974,9.186,5.203
		c3.58,1.327,7.825,0.152,10.879-2.139s5.415-5.424,8.555-7.597c3.874-2.681,8.825-3.826,12.048-7.262
		c2.622-2.795,3.68-6.67,4.649-10.378c0.787-3.012,1.573-6.023,2.36-9.035c2.908-1.194,6.819-0.799,9.963-0.829
		c6.938-0.066,13.605-4.745,16.026-11.248c3.753,0.076,7.283-2.131,9.57-5.107c2.465-3.208,3.395-7.722,6.801-9.905
		c2.471-1.584,2.207-4.954,2.125-7.888c-0.205-7.396-1.612-15.161-6.394-20.806c-1.77-2.09-4.038-3.971-4.714-6.626
		c-2.356-9.251-12.646-14.658-18.956-21.822c-5.023-5.702-10.065-11.429-14.207-17.799c-4.063-6.248-7.249-13.096-11.986-18.85
		c-5.071-6.159-11.701-10.803-18.245-15.366c-5.171-3.607-8.513-10.565-11.941-15.857c-9.044-13.963-18.088-27.926-27.132-41.889
		c-7.906-12.206-15.747-25.231-24.383-36.933c-7.985-10.821-14.82-22.436-21.64-34.026c-14.47-24.593-38.276-42.997-46.491-70.323
		c-5.941-19.759-19.978-36.678-30.755-54.273"/>
</g>
</svg>
