<?xml version="1.0" encoding="iso-8859-1"?>
<!-- Generator: Adobe Illustrator 24.0.1, SVG Export Plug-In . SVG Version: 6.00 Build 0)  -->
<svg version="1.1" xmlns="http://www.w3.org/2000/svg" xmlns:xlink="http://www.w3.org/1999/xlink" x="0px" y="0px"
	 viewBox="0 0 1280 600" style="enable-background:new 0 0 1280 600;" xml:space="preserve">
<g id="&#xB808;&#xC774;&#xC5B4;_1" style="display:none;">
	
		<image style="display:inline;overflow:visible;" width="772" height="598" xlink:href="../../&#x1102;&#x1166;&#x110B;&#x1175;&#x1107;&#x1165; MYBOX/&#x110C;&#x1169;&#x11BC;&#x1105;&#x1169; &#x110B;&#x1175;&#x110C;&#x1166;&#x11AB; Publishing/pfjjy_PR/pfjjy_nextjs/pfjjy/public/contact_right/030.png"  transform="matrix(1 0 0 1 508 1)">
	</image>
	
		<image style="display:inline;overflow:visible;" width="724" height="600" xlink:href="../../&#x1102;&#x1166;&#x110B;&#x1175;&#x1107;&#x1165; MYBOX/&#x110C;&#x1169;&#x11BC;&#x1105;&#x1169; &#x110B;&#x1175;&#x110C;&#x1166;&#x11AB; Publishing/pfjjy_PR/pfjjy_nextjs/pfjjy/public/contact_left/030.png" >
	</image>
</g>
<g id="&#xB808;&#xC774;&#xC5B4;_3">
	<path style="fill:none;stroke:#000000;stroke-width:3;stroke-miterlimit:10;" d="M1104.465-9.502
		c-18.438,20.596-41.377,37.142-66.738,48.141c-9.939,4.31-20.259,7.788-29.835,12.853c-18.997,10.047-34.211,25.849-48.888,41.547
		c-6.999,7.486-15.279,14.553-22.984,21.309c-42.752,37.487-86.971,73.301-132.521,107.333c-5.785,4.322-13.019,6.613-19.165,10.403
		c-5.724,3.53-11.53,7.098-17.967,9.045c-4.328,1.309-8.842,1.854-13.306,2.576c-15.964,2.584-31.545,7.52-46.086,14.597
		c-21.625,10.526-39.032,26.934-49.504,48.585c-1.936,4.002-3.806,8.194-3.917,12.638s1.96,9.232,6.021,11.041
		c6.019,2.682,12.506-1.983,18.043-5.556c22.677-14.635,51.766-13.173,78.683-11.192"/>
</g>
<g id="&#xB808;&#xC774;&#xC5B4;_4">
	<path style="fill:none;stroke:#000000;stroke-width:3;stroke-miterlimit:10;" d="M651.259,350.9
		c4.415,11.406,17.961,18.407,29.819,15.411c-0.295,3.736,2.535,7.468,6.182,8.329c3.647,0.861,7.449,0.082,11.171-0.355
		c5.555-0.651,11.201-0.525,16.722,0.374c1.185,2.501,4.269,4.026,7.037,4.014c5.587-0.024,11.175-0.048,16.762-0.072
		c0.531,1.631,2.499,2.824,4.194,2.564c1.695-0.261,3.156-1.3,4.525-2.333c16.557-12.492,30.324-28.66,40.018-46.996
		c3.757-7.107,13.128-10.09,16.894-17.192c1.993-3.758,2.526-8.094,3.804-12.151c2.054-6.521,6.126-12.391,11.515-16.599
		c8.99-7.019,20-12.302,30.573-16.578c9.991-4.041,19.981-8.082,29.972-12.123c5.416-2.191,10.85-4.387,16.498-5.88
		c9.277-2.451,19.221-3.041,27.651-7.625c7.769-4.225,14.561-11.864,23.398-11.518c16.818,0.66,33.794-11.962,48.546-20.064
		c4.349-2.389,8.529-5.089,12.983-7.275c4.895-2.402,10.074-4.161,15.225-5.95c15.114-5.249,31.714-12.282,37.794-27.082
		c21.537-14.866,40.173-31.359,58.371-50.165c7.602-7.856,14.577-16.36,22.891-23.458s18.279-12.825,29.166-13.817
		c17.306-1.577,29.813-22.083,43.084-33.301c7.727-6.531,16.641-11.534,24.427-17.996c5.974-4.959,11.22-10.724,16.443-16.468
		c7.869-8.652,15.737-17.305,23.606-25.957"/>
</g>
<g id="&#xB808;&#xC774;&#xC5B4;_5">
	<path style="fill:none;stroke:#000000;stroke-width:3;stroke-miterlimit:10;" d="M653.579,320.547
		c-21.743,13.308-46.549,13.002-71.78,16.649c-1.319,0.191-2.71,0.422-3.728,1.281c-1.079,0.91-1.532,2.35-1.845,3.726
		c-0.725,3.198-0.968,6.505-0.719,9.775c0.147,1.923,0.529,3.969,1.886,5.34c1.889,1.909,4.936,1.86,7.616,1.666
		c21.885-1.582,46.704-3.094,68.376-6.526"/>
</g>
<g id="&#xB808;&#xC774;&#xC5B4;_6">
	<path style="fill:none;stroke:#000000;stroke-width:3;stroke-miterlimit:10;" d="M652.598,351.97
		c7.329-1.244,15.658-2.487,22.987-3.731c2.515-0.427,5.12-0.85,7.588-0.205c3.121,0.817,5.702,3.433,6.476,6.565
		c0.774,3.132-0.29,6.649-2.671,8.826c-1.73,1.582-4.005,2.429-6.275,3.012"/>
</g>
<g id="&#xB808;&#xC774;&#xC5B4;_7">
	<path style="fill:none;stroke:#000000;stroke-width:3;stroke-miterlimit:10;" d="M685.737,348.99
		c3.182-2.098,9.155-3.481,12.948-3.844c5.572-0.532,11.759-1.474,15.213-5.879c3.096-3.949,3.304-9.954,7.31-12.976
		c1.853-1.397,4.22-1.888,6.513-2.242c2.607-0.402,5.233-0.678,7.867-0.825c0.705-0.039,1.442-0.064,2.081,0.234
		c1.357,0.631,1.71,2.362,1.893,3.848c1.011,8.213,1.885,17.128-2.358,24.233c-2.583,4.325-6.763,7.412-10.832,10.381
		c-4.225,3.082-8.449,9.164-12.674,12.246"/>
</g>
<g id="&#xB808;&#xC774;&#xC5B4;_8">
	<path style="fill:none;stroke:#000000;stroke-width:3;stroke-miterlimit:10;" d="M740.816,333.749
		c3.036-0.754,7.234-3.288,9.464-5.483c2.229-2.195,5.106-4.293,8.196-3.801c0.696,0.111,1.401,0.374,1.864,0.906
		c0.418,0.481,0.591,1.123,0.735,1.744c2.213,9.497,0.584,19.833-4.444,28.188c-4.909,8.159-12.866,14.461-16.263,23.356"/>
</g>
<g id="&#xB808;&#xC774;&#xC5B4;_9">
	<path style="fill:none;stroke:#000000;stroke-width:3;stroke-miterlimit:10;" d="M761.344,343.605
		c2.11-3.124,6.209-4.064,9.914-4.757c0.547-0.102,1.123-0.203,1.649-0.022c1.094,0.375,1.454,1.723,1.58,2.873
		c0.471,4.314-0.07,8.736-1.568,12.809"/>
</g>
<g id="&#xB808;&#xC774;&#xC5B4;_10">
	<path style="fill:none;stroke:#000000;stroke-width:3;stroke-miterlimit:10;" d="M717.432,313.303
		c3.239,3.348,6.6,6.906,7.785,11.411"/>
</g>
<g id="&#xB808;&#xC774;&#xC5B4;_2">
	<path style="fill:#FFFFFF;stroke:#000000;stroke-width:3;stroke-miterlimit:10;" d="M255.224-7.212
		c15.656,15.093,27.124,33.884,39.704,51.622c15.438,21.767,32.763,42.195,51.717,60.98c18.336,18.172,39.586,30.505,57.046,49.52
		c9.604,10.459,15.837,23.591,24.977,34.458c15.04,17.882,26.372,37.433,39.275,56.914c5.154,7.78,10.312,15.57,14.87,23.714
		c3.466,6.192,6.663,13.378,4.615,20.172c-3.11,10.323,0.781,21.414,3.89,31.738c3.359,11.156,3.058,23.337,4.049,34.946
		c0.213,2.497,0.45,5.076,1.644,7.28c1.283,2.368,3.52,4.034,5.471,5.891c7.197,6.851,10.716,16.615,13.826,26.053
		c5.741,17.421,10.904,35.033,15.477,52.797c3.905,0.997,8.282-0.101,11.253-2.825c7.798-7.148,2.367-20.811,6.583-30.513
		c5.962,1.792,11.315,2.003,17.277,3.796c7.488-2.185,14.979-8.178,18.017-15.363c5.815-1.163,11.753-4.311,16.778-7.459
		c5.025-3.149,8.992-8.694,8.543-14.607c3.955,0.194,5.688-1.7,9.643-1.506c0.947,0.047,1.955,0.079,2.771-0.402
		c1.055-0.621,1.485-1.903,1.833-3.077c0.868-2.929,1.737-5.858,2.605-8.788c1.696,0.045,3.401-0.346,4.908-1.127
		c1.923,2.425,6.328,1.514,8.296-0.874c1.968-2.389,2.342-5.671,2.636-8.753c0.639-6.7,1.168-13.926-2.294-19.697
		c-4.721-7.87-16.047-11.593-17.392-20.671c-1.071-7.226-3.1-16.739-7.412-22.635s-10.103-10.531-15.995-14.849
		c-4.152-3.044-8.392-5.969-12.712-8.771c-11.669-7.568-19.044-19.512-29.747-28.394c-10.703-8.882-20.939-20.753-20.469-34.653
		c0.32-9.477-7.667-16.582-14.975-22.625c-5.44-4.498-8.61-11.255-12.632-17.056c-18.22-26.278-36.528-52.71-50.146-81.642
		c-5.109-10.856-6.846-22.72-15.397-31.136c-18.392-18.104-31.161-41.956-45.336-63.522"/>
</g>
</svg>
