<?xml version="1.0" encoding="iso-8859-1"?>
<!-- Generator: Adobe Illustrator 24.0.1, SVG Export Plug-In . SVG Version: 6.00 Build 0)  -->
<svg version="1.1" xmlns="http://www.w3.org/2000/svg" xmlns:xlink="http://www.w3.org/1999/xlink" x="0px" y="0px"
	 viewBox="0 0 1280 600" style="enable-background:new 0 0 1280 600;" xml:space="preserve">
<g id="&#xB808;&#xC774;&#xC5B4;_1" style="display:none;">
	
		<image style="display:inline;overflow:visible;" width="772" height="598" xlink:href="../../&#x1102;&#x1166;&#x110B;&#x1175;&#x1107;&#x1165; MYBOX/&#x110C;&#x1169;&#x11BC;&#x1105;&#x1169; &#x110B;&#x1175;&#x110C;&#x1166;&#x11AB; Publishing/pfjjy_PR/pfjjy_nextjs/pfjjy/public/contact_right/031.png"  transform="matrix(1 0 0 1 508 1)">
	</image>
	
		<image style="display:inline;overflow:visible;" width="724" height="600" xlink:href="../../&#x1102;&#x1166;&#x110B;&#x1175;&#x1107;&#x1165; MYBOX/&#x110C;&#x1169;&#x11BC;&#x1105;&#x1169; &#x110B;&#x1175;&#x110C;&#x1166;&#x11AB; Publishing/pfjjy_PR/pfjjy_nextjs/pfjjy/public/contact_left/031.png" >
	</image>
</g>
<g id="&#xB808;&#xC774;&#xC5B4;_3">
	<path style="fill:none;stroke:#000000;stroke-width:3;stroke-miterlimit:10;" d="M1100.021-12.004
		c-10.275,20.928-33.098,31.964-53.935,42.421c-27.123,13.611-53.491,28.727-78.942,45.254
		c-15.638,10.155-26.232,26.007-40.954,37.45c-6.944,5.397-14.797,9.477-22.305,14.057c-18.362,11.2-34.809,25.529-48.42,42.182
		c-12.612,15.432-32.666,21.684-48.086,34.311c-7.1,5.814-13.168,12.795-20.171,18.727c-21.334,18.07-49.712,25.153-77.486,28.95
		c-1.686,0.23-3.236,1.028-4.41,2.26c-11.433,11.993-29.04,16.339-41.131,27.915c-10.182,9.749-15.957,23.937-15.477,38.026
		c0.079,2.317,0.35,4.725,1.623,6.672c1.25,1.911,4.149,2.934,6.343,2.3c10.258-2.966,20.273-6.862,29.415-12.378
		c20.989-12.664,48.42-8.276,72.873-6.555"/>
	<path style="fill:none;stroke:#000000;stroke-width:3;stroke-miterlimit:10;" d="M646.482,351.875
		c0.277,5.981,5.294,10.9,10.919,12.952c5.625,2.052,11.788,1.829,17.77,1.58c7.674,5.805,18.459,8.351,26.658,3.314
		c5.244,9.124,18.697,12.881,27.957,7.882c4.443-2.398,10.122-2.042,15.023-0.831c5.371,1.327,9.236-6.645,12.347-11.22
		c4.781-7.031,9.562-14.063,14.343-21.094c9.229-13.573,19.958-25.907,30.224-38.714s21.947-25.015,36.693-32.224
		c39.679-19.399,84.44-28.296,126.43-41.995c45.977-15,83.913-47.25,123.599-74.888c7.156-4.983,12.458-13.306,18.227-19.846
		c4.733-5.366,9.469-10.734,14.469-15.851c10.03-10.265,21.079-19.471,32.106-28.658c9.052-7.541,22.44-9.575,32.923-14.954
		c20.172-10.349,39.73-20.322,56.045-36.064c4.865-4.694,9.553-9.568,14.239-14.44c9.332-9.703,18.828-19.638,24.571-31.814"/>
</g>
<g id="&#xB808;&#xC774;&#xC5B4;_5">
	<path style="fill:none;stroke:#000000;stroke-width:3;stroke-miterlimit:10;" d="M645.607,352.127
		c2.319-3.678,6.553-5.809,10.837-6.553c4.284-0.744,8.675-0.271,12.993,0.236c4.213,0.494,9.077,1.453,11.013,5.228
		c0.724,1.41,0.91,3.089,0.512,4.623c-0.997,3.855-4.173,7.012-5.981,10.56"/>
</g>
<g id="&#xB808;&#xC774;&#xC5B4;_6">
	<path style="fill:none;stroke:#000000;stroke-width:3;stroke-miterlimit:10;" d="M674.765,346.224
		c4.291-2.226,11.515-2.549,16.115-4.034c10.384-3.352,15.118-16.606,25.551-19.802c4.413-1.352,9.198-0.644,13.643,0.602
		c1.058,0.297,2.219,0.714,2.706,1.699c0.293,0.593,0.28,1.285,0.236,1.945c-0.265,3.978-1.446,7.893-3.426,11.353
		c-3.457,6.044-5.273,12.879-10.068,17.928s-10.506,9.126-16.257,13.051"/>
</g>
<g id="&#xB808;&#xC774;&#xC5B4;_7">
	<path style="fill:none;stroke:#000000;stroke-width:3;stroke-miterlimit:10;" d="M733.049,323.744
		c4.956-2.665,11.395-4.428,16.971-5.177c0.75-0.101,1.577-0.166,2.201,0.262c0.764,0.525,0.923,1.571,0.982,2.496
		c0.474,7.334-1,14.786-4.23,21.388c-1.216,2.487-2.68,4.862-3.637,7.46c-0.804,2.182-1.235,4.479-1.803,6.734
		c-1.595,6.344-5.293,13.409-8.934,18.842"/>
</g>
<g id="&#xB808;&#xC774;&#xC5B4;_8">
	<path style="fill:none;stroke:#000000;stroke-width:3;stroke-miterlimit:10;" d="M749.972,340.802
		c2.239-1.877,4.915-3.228,7.755-3.915c0.723-0.175,1.641-0.237,2.055,0.381c0.197,0.294,0.217,0.669,0.231,1.023
		c0.224,5.747,1.449,14.495,1.673,20.242"/>
</g>
<g id="&#xB808;&#xC774;&#xC5B4;_9">
	<path style="fill:none;stroke:#000000;stroke-width:3;stroke-miterlimit:10;" d="M710.132,308.077
		c4.257,3.69,6.523,9.553,5.854,15.147"/>
</g>
<g id="&#xB808;&#xC774;&#xC5B4;_10">
	<path style="fill:none;stroke:#000000;stroke-width:3;stroke-miterlimit:10;" d="M649.591,318.629
		c-30.857,7.129-61.713,14.258-92.57,21.387c-1.768,0.408-3.61,0.853-4.99,2.031c-3.187,2.719-2.46,7.741-1.454,11.808
		c1.495,6.045,3.943,13.106,9.969,14.676c3.419,0.891,6.989-0.35,10.329-1.504c22.786-7.872,50.733-15.376,74.822-16.32"/>
</g>
<g id="&#xB808;&#xC774;&#xC5B4;_11">
</g>
<g id="&#xB808;&#xC774;&#xC5B4;_4">
	<path style="fill:none;stroke:#000000;stroke-width:3;stroke-miterlimit:10;" d="M633.041,322.688
		c7.853-5.318,12-17.499,19.207-23.665"/>
</g>
<g id="&#xB808;&#xC774;&#xC5B4;_2">
	<path style="fill:#FFFFFF;stroke:#000000;stroke-width:3;stroke-miterlimit:10;" d="M243.491-6.624
		c20.812,16.051,29.208,44.417,50.07,60.404c10.049,7.701,6.292,25.214,15.172,34.237c2.875,2.921,6.773,4.544,10.329,6.582
		c6.083,3.486,11.362,8.365,15.318,14.153c9.849,14.414,22.62,26.596,35.631,38.236c4.376,3.915,9.183,6.17,14.139,9.319
		c15.792,10.032,28.301,24.358,40.574,38.479c2.84,3.268,5.681,6.536,8.521,9.804c14.801,17.029,32.23,34.045,40.579,55.006
		c3.01,7.557,5.193,15.945,11.264,21.359c-0.398,25.32-4.492,51.154,6.566,73.936c2.387,4.918,5.46,9.471,7.992,14.315
		c4.446,8.504,7.166,17.784,9.859,26.995c3.861,13.207,7.722,26.414,11.583,39.622c0.729,2.492,0.466,5.5,0.696,8.086
		c0.23,2.586,1.445,5.539,3.99,6.058c1.596,0.325,3.204-0.438,4.582-1.307c4.106-2.586,7.474-6.33,9.612-10.686
		c1.555-3.168,1.817-6.821,3.962-9.623c2.145-2.803,6.391-4.334,9.304-2.341c4.911-0.149,10.112-2.47,14.33-4.991
		c4.332-2.589,8.664-5.177,12.996-7.766c5.756-3.44,11.934-7.383,14.094-13.731c1.124-3.303,1.053-7.041,2.88-10.014
		s6.97-4.204,8.505-1.071c3.724,0.336,8.385,0.339,12.109,0.676c2.181,0.197,4.762,0.23,6.094-1.509
		c1.178-1.539,0.777-3.702,0.617-5.634c-0.347-4.194,0.78-8.496,3.139-11.982c7.987-2.644,14.91-11.575,15.097-19.987
		c0.399-18.001-18.43-32.177-31.654-44.396c-9.246-8.543-17.206-18.326-24.822-28.35c-12.695-16.711-28.026-31.416-45.251-43.406
		c-3.883-19.157-20.275-35.445-34.753-48.577c-8.219-7.456-14.283-17.042-19.117-27.03c-8.877-18.34-18.515-37.597-29.076-55.022
		c-11.668-19.253-25.042-37.954-39.037-55.588c-4.506-5.678-9.142-11.303-12.72-17.607c-6.846-12.06-9.735-26.432-18.735-36.984"/>
</g>
</svg>
