<?xml version="1.0" encoding="iso-8859-1"?>
<!-- Generator: Adobe Illustrator 24.0.1, SVG Export Plug-In . SVG Version: 6.00 Build 0)  -->
<svg version="1.1" xmlns="http://www.w3.org/2000/svg" xmlns:xlink="http://www.w3.org/1999/xlink" x="0px" y="0px"
	 viewBox="0 0 1280 600" style="enable-background:new 0 0 1280 600;" xml:space="preserve">
<g id="&#xB808;&#xC774;&#xC5B4;_1" style="display:none;">
	
		<image style="display:inline;overflow:visible;" width="772" height="598" xlink:href="../../&#x1102;&#x1166;&#x110B;&#x1175;&#x1107;&#x1165; MYBOX/&#x110C;&#x1169;&#x11BC;&#x1105;&#x1169; &#x110B;&#x1175;&#x110C;&#x1166;&#x11AB; Publishing/pfjjy_PR/pfjjy_nextjs/pfjjy/public/contact_right/032.png"  transform="matrix(1 0 0 1 508 1)">
	</image>
	
		<image style="display:inline;overflow:visible;" width="724" height="600" xlink:href="../../&#x1102;&#x1166;&#x110B;&#x1175;&#x1107;&#x1165; MYBOX/&#x110C;&#x1169;&#x11BC;&#x1105;&#x1169; &#x110B;&#x1175;&#x110C;&#x1166;&#x11AB; Publishing/pfjjy_PR/pfjjy_nextjs/pfjjy/public/contact_left/032.png" >
	</image>
</g>
<g id="&#xB808;&#xC774;&#xC5B4;_3">
	<path style="fill:none;stroke:#000000;stroke-width:3;stroke-miterlimit:10;" d="M1094.005-4.004
		c-25.047,26.451-57.921,45.398-93.365,53.81c-20.422,4.847-39.125,17.851-51.651,34.564c-4.072,5.433-8.666,10.453-13.88,14.8
		c-22.139,18.46-44.278,36.919-66.417,55.379c-18.603,15.512-37.672,29.803-58.312,42.478
		c-10.366,6.366-21.816,11.046-31.346,18.608c-4.588,3.64-8.664,7.9-13.344,11.421c-7.536,5.67-16.583,9.313-25.946,10.445
		c-29.119,3.523-55.461,16.068-80.854,30.818c-5.959,3.461-10.225,9.293-11.589,16.048c-1.492,7.392-1.892,14.129-5.309,20.575
		c-0.902,1.701-1.176,3.666-0.841,5.563c0.65,3.684,1.175,7.389,1.867,11.066c0.383,2.035,2.392,3.506,4.455,3.339
		c7.105-0.573,14.078-2.713,20.284-6.218c3.593-2.029,5.824-5.905,9.295-8.137c3.471-2.232,7.601-3.678,11.703-3.227
		c18.649,2.051,37.462-1.826,56.128-3.709"/>
</g>
<g id="&#xB808;&#xC774;&#xC5B4;_4">
	<path style="fill:none;stroke:#000000;stroke-width:3;stroke-miterlimit:10;" d="M630.002,357.481
		c10.618,7.655,24.205,11.073,37.181,9.353c8.055-1.068,16.255-0.108,24.38-0.206c0.576,3.25,4.773,4.594,8.056,4.939
		c7.492,0.787,15.033,1.112,22.566,0.973c5.395,3.803,11.835,7.344,18.305,6.038c4.182-0.844,6.961-4.95,9.947-7.997
		c2.986-3.047,5.301-6.929,5.72-11.175c0.632-6.398,2.316-12.55,4.784-18.486s6.164-11.505,11.369-15.28
		c3.594-2.607,5.547-7.377,8.129-10.989c8.193-11.465,19.617-20.145,30.859-28.641c3.513-2.655,6.885-5.81,11.13-6.978
		c4.974-1.367,10.594-1.075,14.808-4.05c10.541-7.442,24.107-8.628,36.45-12.391c8.704-2.653,16.92-6.671,25.092-10.671
		c23.688-11.595,48.595-21.988,72.25-33.65c15.955-7.866,33.708-12.558,49.648-20.453c12.504-6.193,23.653-14.76,34.711-23.27
		c1.75-4.516,7.683-7.443,11.689-10.164c12.376-8.407,20.716-22.127,33.906-29.187c14.715-7.876,25.331-21.591,37.1-33.426
		c3.911-3.933,7.398-8.293,11.565-11.954c4.167-3.66,9.201-6.65,14.728-7.114c9.497-7.541,24.377-10.153,35.752-14.357
		c12.223-4.517,22.954-12.242,33.516-19.875c7.077-5.114,14.227-10.296,19.895-16.938c3.836-4.495,6.917-9.574,9.98-14.627
		c4.492-7.41,8.983-14.82,13.475-22.23"/>
</g>
<g id="&#xB808;&#xC774;&#xC5B4;_5">
	<path style="fill:none;stroke:#000000;stroke-width:3;stroke-miterlimit:10;" d="M629.672,351.902
		c8.294-3.91,17.577-5.698,26.729-5.15c3.174,0.19,6.416,0.685,9.18,2.256s4.982,4.404,5.077,7.582
		c0.126,4.208-3.251,7.596-6.375,10.42"/>
</g>
<g id="&#xB808;&#xC774;&#xC5B4;_6">
	<path style="fill:none;stroke:#000000;stroke-width:3;stroke-miterlimit:10;" d="M662.029,346.926
		c4.355-2.38,9.397-3.071,14.174-4.417c4.259-1.2,8.398-2.966,11.956-5.596c5.061-3.741,8.714-9.035,13.091-13.557
		c4.377-4.522,10.068-8.481,16.357-8.248c1.869,0.069,3.776,0.541,5.258,1.682c3.105,2.391,3.505,7.031,2.402,10.791
		c-1.104,3.761-3.376,7.068-4.779,10.728c-1.115,2.91-1.679,6.038-3.124,8.799c-1.817,3.473-4.879,6.097-7.868,8.632
		c-5.288,4.484-10.865,9.116-17.635,10.612"/>
</g>
<g id="&#xB808;&#xC774;&#xC5B4;_7">
	<path style="fill:none;stroke:#000000;stroke-width:3;stroke-miterlimit:10;" d="M726.237,323.154
		c5.254-2.009,10.589-4.037,16.19-4.565c0.978-0.092,2.073-0.101,2.805,0.553c0.457,0.408,0.688,1.007,0.88,1.589
		c1.909,5.799,1.412,12.351-1.35,17.795c-2.593,5.112-6.973,9.091-9.998,13.96c-4.198,6.758-6.105,15.557-12.894,19.705"/>
</g>
<g id="&#xB808;&#xC774;&#xC5B4;_8">
	<path style="fill:none;stroke:#000000;stroke-width:3;stroke-miterlimit:10;" d="M745.838,335.243
		c2.601-2.876,6.214-4.817,10.048-5.397c1.511-0.229,2.016,2.196,2.03,3.724c0.047,5.25-1.635,10.606-0.29,15.682"/>
</g>
<g id="&#xB808;&#xC774;&#xC5B4;_9">
	<path style="fill:none;stroke:#000000;stroke-width:3;stroke-miterlimit:10;" d="M708.625,307.267
		c2.338,1.525,3.28,6.863,2.084,9.385"/>
</g>
<g id="&#xB808;&#xC774;&#xC5B4;_10">
	<path style="fill:none;stroke:#000000;stroke-width:3;stroke-miterlimit:10;" d="M643.584,320.454
		c-22.928,6.414-43.856,12.829-66.784,19.243c-0.622,0.174-1.299,0.387-1.65,0.929c-0.345,0.532-0.273,1.223-0.184,1.851
		c0.904,6.331,2.296,12.592,4.16,18.709c0.321,1.052,0.705,2.171,1.591,2.822c0.89,0.653,2.083,0.682,3.183,0.598
		c6.189-0.471,11.801-3.602,17.486-6.094c10.626-4.658,20.157-8.241,31.755-8.56"/>
</g>
<g id="&#xB808;&#xC774;&#xC5B4;_11">
	<path style="fill:none;stroke:#000000;stroke-width:3;stroke-miterlimit:10;" d="M641.139,308.192
		c-4.909,5.494-10.818,11.989-15.726,17.483"/>
</g>
<g id="&#xB808;&#xC774;&#xC5B4;_2">
	<path style="fill:#FFFFFF;stroke:#000000;stroke-width:3;stroke-miterlimit:10;" d="M237.716-5.435
		c4.927,9.285,10.327,18.319,16.173,27.055c7.934,11.855,14.886,24.463,25.214,34.304c5.19,4.945,9.612,10.783,13.962,16.481
		c2.956,3.872,5.519,8.052,8.757,11.692c4.505,5.065,10.171,8.928,15.411,13.229c8.026,6.588,15.133,14.295,21.052,22.826
		c12.454,17.952,28.744,31.35,46.931,43.458c3.489,2.323,7.119,4.515,10.056,7.505c9.274,9.441,15.566,20.822,24.697,30.401
		c0.229,10.965,11.608,17.866,19.93,25.009c16.565,14.218,29.198,32.971,36.151,53.664c10.071,29.974-1.979,64.71,11.379,93.37
		c2.711,5.816,3.918,11.631,7.953,16.621c4.229,5.229,9.768,9.82,11.603,16.289c1.637,5.768,0.119,12.483,3.425,17.485
		c2.281,3.451,0.907,8.372,2.366,12.242c1.166,3.094,2.896,6.31,5.948,7.582c3.084,1.285,6.785,0.136,9.256-2.112
		s3.91-5.41,4.952-8.585c1.546-4.707,2.366-9.651,2.422-14.605c0.018-1.563,2.871-1.854,4.216-1.057
		c1.345,0.797,2.241,2.216,3.606,2.978c1.648,0.921,3.666,0.733,5.542,0.519c3.938-0.45,7.876-0.9,11.814-1.351
		c6.471-0.74,8.953-11.614,15.466-11.623c3.587-0.005,6.86-2.061,8.889-5.02c2.029-2.958,2.813-6.609,3.01-10.191
		c0.205-3.729,4.654-5.697,8.383-5.891s7.877,0.195,10.77-2.166c3.295-2.689,3.476-7.809,6.383-10.915
		c2.842-3.036,7.248-3.995,11.281-5.01c5.522-1.39,9.263-7.521,8.791-13.196c-0.815-9.794-3.3-18.409-8.608-26.681
		c-10.127-15.781-17.155-34.481-32.145-45.746c-6.933-5.21-12.256-12.681-19.52-17.419c-14.468-9.437-27.871-20.505-39.875-32.925
		c-4.062-4.203-8.095-8.796-9.568-14.452c-2.769-10.633-12.445-18.359-19.547-26.743c-9.37-11.061-16.53-23.786-23.63-36.425
		c-5.071-9.027-10.142-18.055-15.213-27.082c-13.805-24.575-24.03-52.634-41.027-75.12C408.8,32.361,385.78,16.859,376.073-7.07"/>
</g>
</svg>
