<?xml version="1.0" encoding="iso-8859-1"?>
<!-- Generator: Adobe Illustrator 24.0.1, SVG Export Plug-In . SVG Version: 6.00 Build 0)  -->
<svg version="1.1" xmlns="http://www.w3.org/2000/svg" xmlns:xlink="http://www.w3.org/1999/xlink" x="0px" y="0px"
	 viewBox="0 0 1280 600" style="enable-background:new 0 0 1280 600;" xml:space="preserve">
<g id="&#xB808;&#xC774;&#xC5B4;_1" style="display:none;">
	
		<image style="display:inline;overflow:visible;" width="772" height="598" xlink:href="../../&#x1102;&#x1166;&#x110B;&#x1175;&#x1107;&#x1165; MYBOX/&#x110C;&#x1169;&#x11BC;&#x1105;&#x1169; &#x110B;&#x1175;&#x110C;&#x1166;&#x11AB; Publishing/pfjjy_PR/pfjjy_nextjs/pfjjy/public/contact_right/033.png"  transform="matrix(1 0 0 1 509 0)">
	</image>
	
		<image style="display:inline;overflow:visible;" width="724" height="600" xlink:href="../../&#x1102;&#x1166;&#x110B;&#x1175;&#x1107;&#x1165; MYBOX/&#x110C;&#x1169;&#x11BC;&#x1105;&#x1169; &#x110B;&#x1175;&#x110C;&#x1166;&#x11AB; Publishing/pfjjy_PR/pfjjy_nextjs/pfjjy/public/contact_left/033.png" >
	</image>
</g>
<g id="&#xB808;&#xC774;&#xC5B4;_3">
	<path style="fill:none;stroke:#000000;stroke-width:3;stroke-miterlimit:10;" d="M1105.515-8.24
		c-3.554,8.107-10.765,14.07-18.455,18.453s-16.05,7.485-23.801,11.761c-15.272,8.425-28.906,21.643-46.263,23.356
		c-11.958,1.18-22.959,7.745-32.185,15.444c-7.301,6.092-13.734,13.171-21.164,19.105c-17.189,13.729-34.379,27.458-51.568,41.187
		c-15.456,12.345-29.622,25.035-45.878,36.305c-12.366,8.573-24.733,17.145-37.099,25.718
		c-26.667,18.486-60.096,27.336-83.613,49.692c-16.072,15.278-43.49,14.605-63.812,23.476
		c-12.523,5.467-23.031,15.391-31.297,26.271c-6.441,8.478-6.628,22.574-6.575,33.221c0.008,1.528,0.094,3.163,1.006,4.389
		c0.912,1.226,2.957,1.705,3.954,0.547c8.303-0.833,18.599-5.609,24.954-11.018c5.703-4.854,14.335-4.874,21.281-7.673
		c13.645-5.5,30.392-2.727,44.983-0.843"/>
</g>
<g id="&#xB808;&#xC774;&#xC5B4;_4">
	<path style="fill:none;stroke:#000000;stroke-width:3;stroke-miterlimit:10;" d="M622.082,350.924
		c8.852,9.464,21.978,14.768,34.92,14.11c9.37-0.477,19.595-2.95,28.961-2.397c2.784,0.164,5.065,3.573,4.95,6.36
		c19.48,6.204,41.707,4.241,58.288-7.719c4.828-3.483,4.452-11.36,3.697-17.265c4.957-4.382,10.031-12.76,14.988-17.142
		c14.045-12.415,22.884-29.66,34.831-44.105c5.891-7.123,16.886-7.901,25.243-11.851c38.774-18.328,80.992-32.239,122.179-44.197
		c22.918-6.654,44.63-19.819,65.825-30.787c18.62-9.636,37.285-19.814,52.773-33.944c4.168-3.802,8.157-7.87,12.922-10.891
		c7.921-5.023,17.977-7.191,23.861-14.495c8.132-10.093,20.686-17.606,24.819-29.891c1.408-4.185,3.31-9.452,7.717-9.731
		c10.186-0.645,19.833-4.578,29.917-6.154c10.277-8.572,21.692-15.633,33.97-20.957c10.039-4.353,18.18-12.158,28.113-16.748
		c8.59-3.97,15.011-11.747,20.926-19.134c9.347-11.674,20.671-22.011,25.587-36.135c0.834-2.397,3.362-3.549,4.429-5.851"/>
</g>
<g id="&#xB808;&#xC774;&#xC5B4;_5">
	<path style="fill:none;stroke:#000000;stroke-width:3;stroke-miterlimit:10;" d="M643.441,310.547
		c-31.87,7.814-65.054,14.348-97.448,19.582c-0.953,0.154-1.995,0.356-2.605,1.104c-0.618,0.759-0.596,1.837-0.542,2.815
		c0.348,6.362,0.696,12.723,1.044,19.085c0.153,2.791,0.655,6.123,3.2,7.278c1.314,0.596,2.834,0.412,4.262,0.208
		c25.079-3.568,49.87-9.159,74.053-16.701"/>
</g>
<g id="&#xB808;&#xC774;&#xC5B4;_6">
	<path style="fill:none;stroke:#000000;stroke-width:3;stroke-miterlimit:10;" d="M622.99,344.762
		c9.294-1.974,19.557-3.816,27.836,0.846c1.22,0.687,2.398,1.537,3.134,2.728c0.666,1.078,0.922,2.357,1.086,3.614
		c0.603,4.631,0.096,9.403-1.465,13.804"/>
</g>
<g id="&#xB808;&#xC774;&#xC5B4;_7">
	<path style="fill:none;stroke:#000000;stroke-width:3;stroke-miterlimit:10;" d="M643.05,342.878
		c14.712,0.252,32.076-4.588,43.724-13.578c2.893-2.233,5.522-4.816,8.585-6.81c5.843-3.803,13.174-5.247,20.023-3.944
		c0.93,0.177,1.9,0.428,2.579,1.088c0.765,0.743,1.018,1.863,1.122,2.924c0.823,8.384-5.223,15.772-11.297,21.61
		c-6.457,6.205-14.395,12.908-21.732,18.042"/>
</g>
<g id="&#xB808;&#xC774;&#xC5B4;_8">
	<path style="fill:none;stroke:#000000;stroke-width:3;stroke-miterlimit:10;" d="M718.794,324.727
		c3.909-2.145,7.819-4.291,11.728-6.436c2.63-1.443,6.004-2.859,8.427-1.09c2.062,1.505,2.197,4.476,2.138,7.028
		c-0.087,3.729-0.182,7.515-1.28,11.08c-0.761,2.472-1.985,4.774-3.272,7.018c-6.361,11.092-14.448,21.192-23.88,29.824"/>
</g>
<g id="&#xB808;&#xC774;&#xC5B4;_9">
	<path style="fill:none;stroke:#000000;stroke-width:3;stroke-miterlimit:10;" d="M739.77,334.163
		c1.606-1.256,5.256-3.537,7.197-4.159c1.942-0.622,4.267-0.458,5.755,0.935c1.744,1.633,1.837,4.324,1.786,6.712
		c-0.035,1.605-1.08,4.209-1.136,5.813"/>
</g>
<g id="&#xB808;&#xC774;&#xC5B4;_10">
	<path style="fill:none;stroke:#000000;stroke-width:3;stroke-miterlimit:10;" d="M701.193,319.093
		c2.209-3.581,1.57-9.664-1.457-12.587c-1.191-1.15-2.762-2.091-3.231-3.679"/>
</g>
<g id="&#xB808;&#xC774;&#xC5B4;_11">
	<path style="fill:none;stroke:#000000;stroke-width:3;stroke-miterlimit:10;" d="M629.638,313.739
		c3.842-5.463,7.685-11.925,11.527-17.388c1.757-2.497,3.565-5.047,6.066-6.798"/>
</g>
<g id="&#xB808;&#xC774;&#xC5B4;_2">
	<path style="fill:#FFFFFF;stroke:#000000;stroke-width:3;stroke-miterlimit:10;" d="M218.392-12.219
		c11.629,21.314,32.587,35.745,47.833,54.643c5.933,7.354,11.004,15.403,15.076,23.929c9.824,20.57,24.094,39.159,41.993,53.275
		c12.189,9.613,22.533,23.527,34.619,33.268c9.832,7.924,20.423,15.382,27.432,25.887c11.137,16.692,28.51,28.043,42.116,42.791
		c11.656,12.634,18.963,28.843,30.233,41.823c1.291,11.203,3.748,22.79,9.228,32.646c12.291,22.109,3.148,51.809,15.282,74.004
		c5.052,9.242,6.937,19.955,14.004,27.765c7.888,8.717,7.613,21.343,9.378,32.966c1.044,6.873,1.216,14.094,4.414,20.267
		c1.514,0.951,1.878,0.19,3.588,0.712c4.735,1.444,10.069-0.895,13.122-4.791c3.053-3.896,4.118-9.038,4.07-13.987
		c-3.051-4.14,1.669-10.619,6.195-13.059c4.526-2.44,9.98-2.114,15.107-1.724c1.311-6.442,10.004-13.938,16.206-11.756
		c1.056,0.372,2.169,0.905,3.244,0.592c0.829-0.242,1.432-0.939,1.985-1.602c4.259-5.107,8.757-10.876,8.51-17.521
		c-0.053-1.437-0.326-2.935,0.199-4.274c0.875-2.232,3.651-3.125,6.037-2.892c2.386,0.233,4.616,1.281,6.972,1.73
		c7.421,1.414,15.433-4.27,16.55-11.741c0.284-1.898,0.454-4.265,2.225-5.003c3.765-1.568,8.458-1.54,10.659-4.974
		c3.416-5.331-0.639-13.114,2.758-18.457c-0.869-7.662-8.41-14.252-14.024-19.539c-23.136-21.788-33.348-56.884-61.36-71.894
		c-5.896-3.159-10.999-9.807-15.823-14.441c-3.737-3.59-7.504-7.216-10.413-11.505c-3.175-4.682-5.239-10.027-8.212-14.839
		c-2.973-4.812-7.2-9.277-12.707-10.567c-9.414-12.606-18.362-25.988-27.777-38.595c-21.939-29.377-37.912-60.535-54.941-93.006
		c-7.238-13.802-20.264-22.617-30.082-34.721C380.377,18.752,371.43,1.726,356.876-9.841"/>
</g>
</svg>
