<?xml version="1.0" encoding="iso-8859-1"?>
<!-- Generator: Adobe Illustrator 24.0.1, SVG Export Plug-In . SVG Version: 6.00 Build 0)  -->
<svg version="1.1" xmlns="http://www.w3.org/2000/svg" xmlns:xlink="http://www.w3.org/1999/xlink" x="0px" y="0px"
	 viewBox="0 0 1280 600" style="enable-background:new 0 0 1280 600;" xml:space="preserve">
<g id="&#xB808;&#xC774;&#xC5B4;_1" style="display:none;">
	
		<image style="display:inline;overflow:visible;" width="772" height="598" xlink:href="../../&#x1102;&#x1166;&#x110B;&#x1175;&#x1107;&#x1165; MYBOX/&#x110C;&#x1169;&#x11BC;&#x1105;&#x1169; &#x110B;&#x1175;&#x110C;&#x1166;&#x11AB; Publishing/pfjjy_PR/pfjjy_nextjs/pfjjy/public/contact_right/034.png"  transform="matrix(1 0 0 1 508 1)">
	</image>
	
		<image style="display:inline;overflow:visible;" width="724" height="600" xlink:href="../../&#x1102;&#x1166;&#x110B;&#x1175;&#x1107;&#x1165; MYBOX/&#x110C;&#x1169;&#x11BC;&#x1105;&#x1169; &#x110B;&#x1175;&#x110C;&#x1166;&#x11AB; Publishing/pfjjy_PR/pfjjy_nextjs/pfjjy/public/contact_left/034.png"  transform="matrix(1 0 0 1 0 1)">
	</image>
</g>
<g id="&#xB808;&#xC774;&#xC5B4;_3">
	<path style="fill:none;stroke:#000000;stroke-width:3;stroke-miterlimit:10;" d="M1104.901-7.82
		c-25.038,24.188-55.781,42.432-89.008,52.82c-9.387,2.935-18.107,5.155-27.523,7.996c-3.616,1.091-7.262,2.194-10.575,4.008
		c-2.613,1.431-4.971,3.278-7.316,5.116c-4.925,3.861-9.849,7.723-14.774,11.584c-16.753,13.135-30.242,29.723-48.627,40.457
		c-8.529,4.98-13.419,13.686-21.336,19.591c-15.951,11.898-31.903,23.796-47.854,35.694c-7.805,5.821-14.566,12.886-23.005,17.741
		c-10.19,5.862-21.583,9.239-32.428,13.779c-24.393,10.212-46.779,26.583-72.967,30.258c-11.166,1.567-19.316,10.963-29.698,15.362
		c-4.396,1.863-8.918,3.508-12.976,6.022c-5.989,3.711-10.798,9.295-13.58,15.768c-3.657,8.506-11.515,13.149-14.832,21.793
		c-1.317,3.432-2.865,5.602-4.271,8.998c-1.184,2.859-2.233,6.374-0.359,8.837c1.319,1.733,3.67,2.291,5.843,2.443
		c5.504,0.385,11.123-1.132,15.684-4.236c4.719-3.212,10.375-4.8,14.738-8.482c1.386-1.17,2.736-2.432,4.376-3.207
		c1.603-0.757,3.392-1.005,5.149-1.243c3.052-0.414,6.103-0.828,9.155-1.242c13.727-1.862,27.613-2.805,41.466-2.897
		c5.096-0.034,10.196,0.133,15.287-0.095"/>
</g>
<g id="&#xB808;&#xC774;&#xC5B4;_4">
	<path style="fill:none;stroke:#000000;stroke-width:3;stroke-miterlimit:10;" d="M611.396,349.523
		c4.745,5.016,9.49,10.032,14.236,15.047c2.275,2.405,5.102,5.017,8.379,4.55c4.198-0.598,6.003-6.092,4.679-10.12
		c1.489-1.28,3.95-0.578,5.792,0.105c9.013,3.342,18.794,4.59,28.358,3.619c2.749-0.279,4.031,3.802,6.139,5.589
		c3.667,3.109,9.166,2.482,13.774,1.108c3.021-0.9,6.41-2.017,9.176-0.507c9.29,5.072,21.07,3.849,30.874-0.14
		c5.428-2.208,6.959-9,8.783-14.569c1.282-3.913,2.563-7.826,3.845-11.739c0.947-2.892,2.248-6.157,5.131-7.13
		c17.237-5.818,27.712-25.689,38.767-40.137c4.023-5.258,9.612-9.749,11.398-16.125c0.549-1.96,0.798-4.027,1.707-5.848
		c0.776-1.554,1.998-2.847,3.351-3.935c2.682-2.157,5.947-3.581,9.352-4.081c12.546-1.84,23.997-9.792,36.327-12.753
		c5.381-1.292,10.175-4.313,15.534-5.696c6.007-1.55,12.013-3.099,18.02-4.649c14.137-3.647,28.195-11.839,42.468-14.91
		c10.305-2.217,19.741-7.508,29.7-10.96c15.174-5.26,30.516-10.6,43.993-19.336c9.27-6.009,19.005-10.883,27.571-17.858
		c7.35-5.984,14.623-12.26,23.025-16.646c2.641-1.378,5.47-2.375,8.083-3.807c4.475-2.453,8.164-6.094,11.788-9.686
		c5.951-5.898,13.065-11.112,20.792-14.349c12.37-5.182,21.317-17.062,31.005-26.335c2.048-1.96,4.533-3.496,6.607-5.429
		c5.552-5.175,12.716-8.596,20.23-9.663c6.608-5.782,16.97-7.414,25.464-9.642c8.198-2.151,16.012-5.756,22.969-10.596
		c9.028-6.282,17.259-13.665,27.014-18.746c7.611-3.964,13.579-11.131,20.504-16.198c5.828-4.264,11.683-8.552,16.759-13.688
		c8.084-8.181,13.94-18.251,19.705-28.203"/>
</g>
<g id="&#xB808;&#xC774;&#xC5B4;_5">
	<path style="fill:none;stroke:#000000;stroke-width:3;stroke-miterlimit:10;" d="M608.213,346.524
		c5.636-0.497,11.364-1.016,16.626-3.096c3.261-1.289,6.57-3.205,10.029-2.632c0.362,0.06,0.736,0.156,1.009,0.401
		c0.434,0.39,0.496,1.036,0.529,1.618c0.331,5.851,1.65,10.703,1.957,16.556"/>
</g>
<g id="&#xB808;&#xC774;&#xC5B4;_6">
	<path style="fill:none;stroke:#000000;stroke-width:3;stroke-miterlimit:10;" d="M635.531,340.92
		c4.85-3.956,12.804-4.291,19.034-4.892c7.15-0.69,14.098-3.359,19.871-7.634c2.569-1.902,4.91-4.114,7.605-5.831
		c6.444-4.106,14.805-5.047,22-2.476c0.995,0.356,1.996,0.792,2.735,1.547c1.282,1.308,1.534,3.287,1.628,5.115
		c0.383,7.494-1.012,15.568-6.204,20.986c-1.552,1.619-3.385,2.94-5.24,4.199c-6.899,4.681-14.28,8.651-21.989,11.827"/>
</g>
<g id="&#xB808;&#xC774;&#xC5B4;_7">
	<path style="fill:none;stroke:#000000;stroke-width:3;stroke-miterlimit:10;" d="M708.269,325.179
		c3.424-1.78,7.062-3.147,10.811-4.06c2.183-0.532,4.456-0.911,6.672-0.535s4.382,1.621,5.382,3.633
		c0.715,1.439,0.776,3.107,0.776,4.714c0.001,3.864-0.267,7.755-1.251,11.491c-3.42,12.988-14.754,22.162-25.82,29.772"/>
</g>
<g id="&#xB808;&#xC774;&#xC5B4;_8">
	<path style="fill:none;stroke:#000000;stroke-width:3;stroke-miterlimit:10;" d="M731.782,333.906
		c1.756-1.045,3.682-1.944,5.725-1.995c2.043-0.05,4.221,0.929,5.073,2.787c0.579,1.262,0.484,2.712,0.54,4.099
		c0.091,2.242,0.612,4.465,1.527,6.513"/>
</g>
<g id="&#xB808;&#xC774;&#xC5B4;_9">
	<path style="fill:none;stroke:#000000;stroke-width:3;stroke-miterlimit:10;" d="M703.182,318.398
		c1.539-4.295,2.66-8.97,1.544-13.393c-1.227-4.866-5.939-9.652-9.503-13.186"/>
</g>
<g id="&#xB808;&#xC774;&#xC5B4;_10">
	<path style="fill:none;stroke:#000000;stroke-width:3;stroke-miterlimit:10;" d="M602.237,311.742
		c1.896-3.004,7.47-5.382,10.638-6.988c12.647-6.413,20.399-18.773,32.814-25.625"/>
	<path style="fill:none;stroke:#000000;stroke-width:3;stroke-miterlimit:10;" d="M601.625,315.189
		c2.639-2.682,6.511-3.757,10.253-4.153s7.545-0.223,11.243-0.918c4.134-0.776,7.119-2.63,11.324-2.507"/>
</g>
<g id="&#xB808;&#xC774;&#xC5B4;_11">
</g>
<g id="&#xB808;&#xC774;&#xC5B4;_2">
	<path style="fill:#FFFFFF;stroke:#000000;stroke-width:3;stroke-miterlimit:10;" d="M203.439-5.811
		c6.484,11.901,17.903,20.131,27.379,29.82c2.237,2.288,4.396,4.688,6.996,6.553c4.782,3.432,11.215,5.264,13.882,10.511
		c2.587,5.09,5.693,9.104,9.234,13.582c10.965,13.864,17.264,31.485,30.618,43.065c19.688,17.073,37.946,34.444,52.345,56.164
		c13.457,20.3,33.45,33.268,50.47,50.69c6.779,6.94,14.449,12.995,21.178,19.984c12.889,13.388,24.179,28.315,33.553,44.361
		c4.188,7.168,8.622,11.795,10.948,19.763c0.848,2.905,0.905,5.974,0.955,9c0.098,5.866,0.195,11.731,0.293,17.597
		c0.15,9.028,0.689,18.047,0.705,27.077c0.02,11.225,0.363,23.413,7.405,32.154c4.5,5.585,6.063,13.38,10.015,19.366
		c1.586,2.402,3.301,4.767,4.281,7.474c0.767,2.119,1.074,4.419,2.175,6.385c1.923,3.43,5.95,5.291,7.823,8.748
		c3.977,7.34,5.247,15.622,5.519,23.966c0.083,2.565-0.077,5.152,0.357,7.681c0.434,2.529,1.563,5.072,3.673,6.533
		c2.959,2.05,7.073,1.452,10.269-0.204c3.188-1.652,5.922-4.356,7.128-7.738c2.101-5.894,1.182-12.522,1.731-18.756
		c0.107-1.217,0.221-2.462,0.73-3.572c0.702-1.531,2.07-2.636,3.407-3.659c1.852-1.417,4.293-2.852,6.363-1.779
		c4.01,2.079,9.236,3.037,13.022,0.574c2.334-1.518,3.636-4.243,4.183-6.972c0.741-3.698,5.511-5.73,8.718-7.714
		c3.662-2.265,7.982-3.945,10.296-7.577c2.77-4.346,2.167-10.801,6.342-13.823c2.802,0.368,6.365,0.151,9.183,0.354
		c0.621,0.045,1.262,0.083,1.85-0.122c0.915-0.319,1.531-1.163,2.051-1.981c1.555-2.446,2.789-5.095,3.662-7.859
		c0.323-1.022,0.614-2.095,1.306-2.914c1.102-1.305,2.935-1.663,4.62-1.94c2.187-0.36,4.374-0.719,6.561-1.079
		c3.9-0.641,6.708-3.608,8.867-6.919c3.78-5.796,0.56-14.135,4.095-20.083c1.37-2.304,0.385-6.628-1.235-8.764
		c-0.66-0.871-1.581-1.498-2.421-2.197c-7.036-5.851-8.415-16.702-15.686-22.258c-7.538-5.759-9.81-16.35-14.71-24.473
		c-2.134-3.538-4.296-7.111-7.191-10.058c-3.384-3.445-7.628-5.894-11.816-8.299c-7.688-4.415-15.375-8.83-23.062-13.246
		c-7.387-4.243-14.879-7.175-20.89-13.212c-6.01-6.037-11.213-12.834-17.166-18.927c-21.584-22.09-33.35-52.675-49.821-78.801
		c-11.468-18.19-25.218-34.816-38.925-51.384c-11.802-14.265-16.985-33.889-25.283-50.44c-8.641-17.236-17.556-34.849-31.554-48.108
		"/>
</g>
</svg>
