<?xml version="1.0" encoding="iso-8859-1"?>
<!-- Generator: Adobe Illustrator 24.0.1, SVG Export Plug-In . SVG Version: 6.00 Build 0)  -->
<svg version="1.1" xmlns="http://www.w3.org/2000/svg" xmlns:xlink="http://www.w3.org/1999/xlink" x="0px" y="0px"
	 viewBox="0 0 1280 600" style="enable-background:new 0 0 1280 600;" xml:space="preserve">
<g id="&#xB808;&#xC774;&#xC5B4;_1" style="display:none;">
	
		<image style="display:inline;overflow:visible;" width="772" height="598" xlink:href="../../&#x1102;&#x1166;&#x110B;&#x1175;&#x1107;&#x1165; MYBOX/&#x110C;&#x1169;&#x11BC;&#x1105;&#x1169; &#x110B;&#x1175;&#x110C;&#x1166;&#x11AB; Publishing/pfjjy_PR/pfjjy_nextjs/pfjjy/public/contact_right/035.png"  transform="matrix(1 0 0 1 508 1)">
	</image>
	
		<image style="display:inline;overflow:visible;" width="724" height="600" xlink:href="../../&#x1102;&#x1166;&#x110B;&#x1175;&#x1107;&#x1165; MYBOX/&#x110C;&#x1169;&#x11BC;&#x1105;&#x1169; &#x110B;&#x1175;&#x110C;&#x1166;&#x11AB; Publishing/pfjjy_PR/pfjjy_nextjs/pfjjy/public/contact_left/035.png" >
	</image>
</g>
<g id="&#xB808;&#xC774;&#xC5B4;_3">
	<path style="fill:none;stroke:#000000;stroke-width:3;stroke-miterlimit:10;" d="M1091.876-6.179
		c-0.591,5.758-6.416,9.191-10.925,12.82c-4.074,3.279-7.442,7.333-10.781,11.358c-6.139,7.4-17.835,9.748-25.176,15.958
		c-2.308,1.952-4.517,4.054-7.094,5.634c-2.338,1.433-4.924,2.404-7.491,3.366c-5.067,1.898-10.134,3.797-15.201,5.695
		c-8.433,3.16-16.324,8.838-24.601,12.387c-6.385,2.738-12.263,6.54-17.845,10.677c-11.765,8.718-22.362,19.009-31.422,30.513
		c-7.189,9.128-18.671,13.065-27.988,20.007c-5.137,3.828-10.314,7.68-16.085,10.46c-7.165,3.452-15.247,5.262-21.475,10.208
		c-21.132,16.78-46.366,29.48-68.241,45.279c-17.82,12.87-39.328,18.596-60.13,25.703c-13.118,4.482-26.012,9.484-39.088,14.086
		c-5.556,1.955-10.831,4.621-16.088,7.279c-10.449,5.284-20.898,10.567-31.346,15.851c-10.061,5.088-21.549,8.808-27.443,18.419
		c-3.084,5.029-4.979,10.771-8.541,15.474c-5.2,6.866-11.083,12.678-18.246,17.46c-6.894,4.602-15.826,5.743-23.205,9.518"/>
</g>
<g id="&#xB808;&#xC774;&#xC5B4;_4">
	<path style="fill:none;stroke:#000000;stroke-width:3;stroke-miterlimit:10;" d="M660.11,270.941
		c-4.637,7.847-12.178,13.932-20.827,16.807c-3.166,1.052-7.224,2.631-7.097,5.965c0.141,3.699,5.153,4.665,8.85,4.477
		c37.296-1.89,74.421-7.137,110.78-15.657"/>
</g>
<g id="&#xB808;&#xC774;&#xC5B4;_5">
	<path style="fill:none;stroke:#000000;stroke-width:3;stroke-miterlimit:10;" d="M610.918,337.997
		c23.673-8.154,47.752-15.13,72.118-20.893c2.934-0.694,5.936-1.397,8.475-3.023c2.539-1.626,4.567-4.388,4.462-7.401
		c-0.157-4.535-4.921-8.369-3.894-12.789"/>
</g>
<g id="&#xB808;&#xC774;&#xC5B4;_6">
	<path style="fill:none;stroke:#000000;stroke-width:3;stroke-miterlimit:10;" d="M581.5,311.5
		c10.829-3.409,40.933-11.799,51.762-15.208"/>
</g>
<g id="&#xB808;&#xC774;&#xC5B4;_7">
	<path style="fill:none;stroke:#000000;stroke-width:3;stroke-miterlimit:10;" d="M626.818,332.801
		c-2.182,3.959-3.798,8.229-4.784,12.641c-0.279,1.248-0.497,2.608,0.054,3.763c0.489,1.027,1.493,1.693,2.451,2.305
		c10.288,6.573,20.889,12.954,32.589,16.441c16.525,4.925,34.172,3.785,51.364,2.459c7.762-0.599,16.932-2.156,20.208-9.218
		c1.805-3.891,1.214-8.422,1.882-12.658c0.668-4.236,3.683-8.887,7.959-8.549c12.14-6.282,20.865-19.1,27.748-30.909
		c6.883-11.809,12.762-24.383,21.805-34.633c9.043-10.25,22.195-18.073,35.785-16.601c7.48,0.81,13.737-5.186,21.201-6.13
		c5.193-0.657,10.503-0.632,15.553-2.004c6.356-1.727,12.757-2.74,19.023-4.77c8.731-2.828,17.463-5.657,26.194-8.485
		c18.265-5.917,36.535-12.507,54.816-18.373c13.254-4.252,26.817-8.666,37.769-17.256c4.465-3.502,8.426-7.652,13.162-10.777
		c6.893-4.549,15.052-6.693,23.046-8.765c8.831-2.29,16.037-4.041,24.023-8.452c13.551-7.482,26.1-16.776,37.209-27.555
		c4.428-4.297,9.777-8.236,13.54-13.126c2.086-2.71,3.747-5.724,5.803-8.456c2.803-3.724,6.293-6.866,9.76-9.981
		c6.032-5.422,12.655-11.113,20.728-11.893c25.899-2.5,49.539-17.465,73.679-27.175c8.237-3.313,16.621-6.919,22.976-13.119
		c9.121-8.899,19.096-15.647,27.142-25.529c2.716-3.336,4.825-7.115,6.918-10.872c3.486-6.255,6.971-12.509,10.457-18.764"/>
</g>
<g id="&#xB808;&#xC774;&#xC5B4;_8">
	<path style="fill:none;stroke:#000000;stroke-width:3;stroke-miterlimit:10;" d="M658.129,337.586
		c5.582,0.496,11.241,0.103,16.701-1.161c4.007-0.928,8.279-2.308,12.104-0.794c0.745,0.295,1.477,0.722,1.903,1.4
		c0.498,0.792,0.5,1.795,0.382,2.724c-0.66,5.192-4.477,9.439-8.656,12.589c-11.379,8.579-27.854,11.389-41.565,7.507"/>
</g>
<g id="&#xB808;&#xC774;&#xC5B4;_9">
	<path style="fill:none;stroke:#000000;stroke-width:3;stroke-miterlimit:10;" d="M686.518,346.595
		c8.17-4.029,16.589-7.549,25.195-10.536c1.659-0.576,3.635-1.091,5.052-0.054c0.793,0.58,1.22,1.539,1.464,2.491
		c1.267,4.94-1.549,10.011-4.91,13.847c-10.041,11.461-27.513,17.13-42.73,17.921"/>
</g>
<g id="&#xB808;&#xC774;&#xC5B4;_10">
	<path style="fill:none;stroke:#000000;stroke-width:3;stroke-miterlimit:10;" d="M714.248,350.675
		c2.388-1.798,5.617-3.808,7.651-5.998c1.334-1.436,3.132-3.105,4.964-2.408c1.39,0.529,1.947,2.162,2.334,3.598
		c0.565,2.096,0.13,4.191,0.694,6.287"/>
</g>
<g id="&#xB808;&#xC774;&#xC5B4;_2">
	<path style="fill:#FFFFFF;stroke:#000000;stroke-width:3;stroke-miterlimit:10;" d="M184.965-4.055
		c17.401,14.197,33.883,29.519,49.309,45.84c4.968,5.256,10.879,9.642,16.003,14.746c1.108,1.104,2.219,2.211,3.173,3.45
		c0.976,1.269,1.777,2.661,2.637,4.012c1.554,2.441,3.311,4.753,5.245,6.906c3.842,4.275,7.602,11.292,10.959,15.958
		c3.614,5.024,7.567,9.864,12.348,13.792c4.094,3.364,8.856,6.128,11.816,10.522c11.319,16.8,25.234,32.002,39.647,46.237
		c8.383,8.28,17.837,15.13,25.199,24.33c7.886,9.855,14.141,21.16,24.852,27.837c8.184,5.102,14.571,12.197,21.445,18.96
		c10.929,10.753,19.419,23.876,25.39,37.997c5.427,12.836,13.033,24.094,14.35,37.968c0.843,8.881,2.801,17.662,4.56,26.408
		c1.796,8.93,3.6,17.994,2.931,27.079c-0.398,5.402-1.205,11.957,3.157,15.167c7.919,5.828,11.184,16.536,15.731,25.254
		c3.273,6.276,5.854,12.885,8.428,19.479c3.023,7.744,6.097,16.077,4.224,24.176c-0.532,2.3,1.455,5.425,2.124,7.69
		c0.351,1.189,0.867,2.486,1.998,2.992c1.621,0.725,3.389-0.578,4.645-1.833c2.934-2.932,5.621-6.112,8.022-9.495
		c1.658-2.337,1.045-5.806,1.826-8.563c0.681-2.405,1.401-4.885,2.988-6.817s4.289-3.179,6.635-2.318
		c6.556,2.407,15.599-0.041,20.333-5.175c3.093-3.355,4.763-8.767,9.245-9.618c6.709-1.273,12.975-5.965,15.167-12.433
		c0.812-2.395,1.265-5.195,3.334-6.648c2.202-1.547,5.428-0.92,7.59-2.522c3.768,0.107,8.07,0.008,11.835-0.173
		c2.128-0.102,4.37-0.289,6.122-1.501c5.065-3.506,3.114-13.151,8.762-15.609c4.246-1.848,9.196-2.033,12.996-4.681
		c3.146-2.193,4.523-6.094,5.716-9.738c0.834-2.547-1.721-5.973-2.131-8.621c-0.759-4.914-1.545-9.912-3.714-14.385
		c-2.17-4.473-5.973-8.425-10.82-9.531c-10.409-2.375-18.939-12.332-24.453-21.474c-2.302-3.816-4.123-8.017-7.284-11.159
		c-6.069-6.033-11.547-12.675-18.081-18.202c-6.59-5.574-14.882-9.251-22.316-13.636c-9.936-5.861-20.539-12.479-24.742-23.222
		c-1.842-4.709-1.5-9.912-4.288-14.131c-2.787-4.219-6.366-7.844-9.921-11.44c-2.512-2.541-6.263-5.302-8.36-8.194
		c-3.995-5.509-7.991-11.018-11.986-16.528c-6.62-9.129-11.657-19.751-16.932-29.718c-3.738-7.063-8.189-14.637-13.208-20.855
		c-7.88-9.761-15.362-20.63-22.452-30.98c-3.467-5.062-6.037-10.727-9.858-15.528c-6.3-7.916-10.999-16.985-16.481-25.488
		c-5.771-8.95-10.778-18.381-16.351-27.456c-8.494-13.829-17.09-27.791-28.481-39.351"/>
</g>
</svg>
