<?xml version="1.0" encoding="iso-8859-1"?>
<!-- Generator: Adobe Illustrator 24.0.1, SVG Export Plug-In . SVG Version: 6.00 Build 0)  -->
<svg version="1.1" xmlns="http://www.w3.org/2000/svg" xmlns:xlink="http://www.w3.org/1999/xlink" x="0px" y="0px"
	 viewBox="0 0 1280 600" style="enable-background:new 0 0 1280 600;" xml:space="preserve">
<g id="&#xB808;&#xC774;&#xC5B4;_1" style="display:none;">
	
		<image style="display:inline;overflow:visible;" width="772" height="598" xlink:href="../../&#x1102;&#x1166;&#x110B;&#x1175;&#x1107;&#x1165; MYBOX/&#x110C;&#x1169;&#x11BC;&#x1105;&#x1169; &#x110B;&#x1175;&#x110C;&#x1166;&#x11AB; Publishing/pfjjy_PR/pfjjy_nextjs/pfjjy/public/contact_right/036.png"  transform="matrix(1 0 0 1 508 1)">
	</image>
	
		<image style="display:inline;overflow:visible;" width="724" height="600" xlink:href="../../&#x1102;&#x1166;&#x110B;&#x1175;&#x1107;&#x1165; MYBOX/&#x110C;&#x1169;&#x11BC;&#x1105;&#x1169; &#x110B;&#x1175;&#x110C;&#x1166;&#x11AB; Publishing/pfjjy_PR/pfjjy_nextjs/pfjjy/public/contact_left/036.png" >
	</image>
</g>
<g id="&#xB808;&#xC774;&#xC5B4;_3">
	<path style="fill:none;stroke:#000000;stroke-width:3;stroke-miterlimit:10;" d="M1086.213-3.497
		c-17.691,11.062-35.382,22.125-53.074,33.187c-4.854,3.036-9.717,6.075-14.816,8.678c-22.067,11.263-48.609,14.426-67.206,30.795
		c-15.693,13.812-35.397,23.328-53.949,32.965c-4.926,2.559-9.971,4.969-14.413,8.297c-3.951,2.961-7.344,6.589-11.023,9.881
		c-4.126,3.691-8.623,6.967-13.402,9.762c-28.227,16.505-50.947,39.175-77.446,58.331c-18.238,13.184-37.325,26.171-59.153,31.643
		c-15.473,3.879-33.955,8.936-48.308,15.897c-16.204,7.859-32.763,15.971-45.308,28.891c-15.027,15.477-23.783,42.33-42.209,53.547"
		/>
</g>
<g id="&#xB808;&#xC774;&#xC5B4;_4">
	<path style="fill:none;stroke:#000000;stroke-width:3;stroke-miterlimit:10;" d="M665.48,256.118
		c-11.326,4.85-21.96,11.31-31.485,19.125c-2.189,1.796-4.349,5.297-2.113,7.034c0.923,0.717,2.206,0.673,3.372,0.595
		c35.543-2.368,71.086-4.736,106.63-7.103c4.743-0.316,9.599-0.659,13.944-2.587"/>
</g>
<g id="&#xB808;&#xC774;&#xC5B4;_5">
	<path style="fill:none;stroke:#000000;stroke-width:3;stroke-miterlimit:10;" d="M566.458,323.28
		c38.98-11.147,77.459-24.05,115.28-38.654c2.69-1.039,5.521-2.105,8.379-1.721c5.301,0.712,8.851,6.605,8.206,11.914
		c-0.645,5.309-4.575,9.76-9.204,12.44c-4.629,2.679-9.938,3.883-15.143,5.114c-33.661,7.962-66.703,18.539-98.73,31.604"/>
</g>
<g id="&#xB808;&#xC774;&#xC5B4;_6">
	<path style="fill:none;stroke:#000000;stroke-width:3;stroke-miterlimit:10;" d="M577.915,366.382
		c8.547-2.318,16.142-7.969,20.82-15.489c1.225-1.97,2.288-4.099,4.008-5.655c1.72-1.556,4.35-2.408,6.392-1.308
		c1.049,0.565,1.794,1.553,2.475,2.53c3.408,4.895,6.055,10.295,9.589,15.1s8.204,9.119,13.989,10.572
		c5.785,1.453,12.747-0.713,15.403-6.054c9.669,9.722,24.795,12.787,37.591,7.861c5.262-2.026,10.296-5.357,15.934-5.247
		c4.051,0.079,8.85,1.725,11.658-1.197c1.361-1.417,1.714-3.495,2.003-5.438c0.774-5.202,1.549-10.404,2.323-15.605
		c4.086-27.451,39.634-34.95,56.188-57.227c4.452-5.991,7.981-12.676,12.949-18.246c7.647-8.573,18.619-14.1,30.059-15.143
		c24.449-2.228,46.025-15.55,69.641-22.256c12.648-3.592,25.333-7.197,37.444-12.315c21.983-9.289,42.579-23.684,66.348-25.824
		c40.342-3.633,69.835-42.943,103.763-65.067c7.504-4.893,14.138-8.073,21.884-12.572c4.552-2.644,9.203-5.37,12.571-9.416
		c2.202-2.646,3.777-5.768,5.994-8.401c5.038-5.982,12.784-8.819,20.163-11.409c8.266-2.901,18.634-6.681,27.163-8.683
		c11.375-2.67,21.503-8.985,31.397-15.2c14.461-9.084,29.011-18.236,41.591-29.785c12.58-11.549,23.211-25.757,27.976-42.156"/>
</g>
<g id="&#xB808;&#xC774;&#xC5B4;_7">
	<path style="fill:none;stroke:#000000;stroke-width:3;stroke-miterlimit:10;" d="M633.274,349.021
		c2.656-0.604,5.426-1.209,8.074-0.57c2.503,0.605,4.605,2.253,6.619,3.858c1.849,1.473,3.697,2.946,5.546,4.418
		c0.49,0.391,0.99,0.792,1.32,1.325c1.316,2.122-8.64,11.718-10.453,13.435"/>
</g>
<g id="&#xB808;&#xC774;&#xC5B4;_8">
	<path style="fill:none;stroke:#000000;stroke-width:3;stroke-miterlimit:10;" d="M671.745,357.307
		c9.557-2.083,19.366-3.005,29.143-2.739c-0.711,6.568-3.36,11.914-7.531,17.037"/>
</g>
<g id="&#xB808;&#xC774;&#xC5B4;_9">
	<path style="fill:none;stroke:#000000;stroke-width:3;stroke-miterlimit:10;" d="M700.955,355.112
		c3.737-4.764,11.335-7.083,17.231-5.704"/>
</g>
<g id="&#xB808;&#xC774;&#xC5B4;_2">
	<path style="fill:#FFFFFF;stroke:#000000;stroke-width:3;stroke-miterlimit:10;" d="M174.784-5.906
		c14.926,17.873,30.842,34.919,47.651,51.033c10.489,10.055,15.358,24.848,24.472,36.165c1.718,2.133,3.748,3.349,5.801,5.162
		c8.302,7.331,15.629,15.765,21.728,25.01c3.046,4.616,7.039,6.636,10.814,10.677c14.178,15.179,28.356,30.357,42.534,45.536
		c5.68,6.081,13.063,8.588,19.431,13.945c3.796,3.193,7.39,6.618,10.981,10.04c11.036,10.517,22.072,21.034,33.108,31.551
		c5.615,5.351,12.326,8.884,17.521,14.644c3.639,4.035,6.056,9.157,6.857,14.531c1.04,6.986,6.809,11.195,7.992,18.158
		c1.032,6.072,5.244,11.252,9.342,15.85c8.198,9.199,5.173,23.816,2.383,35.818c-2.913,12.532,0.495,25.608,2.314,38.345
		c0.469,3.282,1.003,6.579,2.135,9.695c1.321,3.635,3.452,6.974,6.195,9.701c8.908,8.86,14.108,21.283,19.332,32.709
		c1.879,4.109,3.769,8.251,4.821,12.645c1.931,8.064,0.959,16.628,3.054,24.651c0.182,0.698,0.417,1.436,0.981,1.886
		c0.976,0.778,2.403,0.345,3.555-0.136c3.97-1.659,7.858-3.514,11.645-5.557c1.247-5.97,3.323-12.324,4.57-18.294
		c0.214-1.026,0.441-2.081,1.025-2.952c1.011-1.507,2.944-2.181,4.759-2.146c1.815,0.036,3.557,0.671,5.261,1.298
		c3.794,1.397,9.188-0.896,11.967-3.833c2.03-2.145,2.641-5.291,4.456-7.62c1.84-2.361,4.922-3.694,7.902-3.417
		c7.082,0.658,13.266-7.072,15.135-13.935c0.86-3.16,0.988-6.782,3.289-9.113c2.049-2.077,5.619-2.419,8.025-0.77
		c3.375-0.063,7.09-0.871,9.967-2.637c2.877-1.766,5.087-4.854,5.147-8.229c0.015-0.866-0.102-1.763,0.197-2.575
		c0.54-1.465,2.197-2.13,3.676-2.63c8.22-2.778,15.809-9.136,16.803-17.755c0.814-7.056-0.074-13.75-3.484-19.981
		c-3.411-6.231-8.223-11.56-12.99-16.826c-2.848-3.146-5.695-6.291-8.543-9.437c-10.388-11.476-20.39-26.053-32.876-35.201
		c-3.28-2.403-6.741-4.607-9.611-7.488c-1.953-1.96-3.602-4.207-5.576-6.146c-5.68-5.581-13.841-8.43-18.638-14.787
		c-9.631-12.76-19.717-25.884-28.52-39.229c-6.394-9.693-14.489-18.261-23.804-25.194c-5.076-3.778-7.804-12.077-11.187-17.426
		c-0.892-1.411-1.785-2.822-2.677-4.234c-3.287-5.197-6.573-10.393-9.86-15.59c-4.275-6.76-9.746-13.382-13.263-20.566
		c-5.926-12.105-12.511-23.887-19.717-35.277c-19.649-31.06-43.695-61.094-64.718-91.241"/>
</g>
</svg>
