<?xml version="1.0" encoding="iso-8859-1"?>
<!-- Generator: Adobe Illustrator 24.0.1, SVG Export Plug-In . SVG Version: 6.00 Build 0)  -->
<svg version="1.1" xmlns="http://www.w3.org/2000/svg" xmlns:xlink="http://www.w3.org/1999/xlink" x="0px" y="0px"
	 viewBox="0 0 1280 600" style="enable-background:new 0 0 1280 600;" xml:space="preserve">
<g id="&#xB808;&#xC774;&#xC5B4;_1" style="display:none;">
	
		<image style="display:inline;overflow:visible;" width="772" height="598" xlink:href="../../&#x1102;&#x1166;&#x110B;&#x1175;&#x1107;&#x1165; MYBOX/&#x110C;&#x1169;&#x11BC;&#x1105;&#x1169; &#x110B;&#x1175;&#x110C;&#x1166;&#x11AB; Publishing/pfjjy_PR/pfjjy_nextjs/pfjjy/public/contact_right/037.png"  transform="matrix(1 0 0 1 508 1)">
	</image>
	
		<image style="display:inline;overflow:visible;" width="724" height="600" xlink:href="../../&#x1102;&#x1166;&#x110B;&#x1175;&#x1107;&#x1165; MYBOX/&#x110C;&#x1169;&#x11BC;&#x1105;&#x1169; &#x110B;&#x1175;&#x110C;&#x1166;&#x11AB; Publishing/pfjjy_PR/pfjjy_nextjs/pfjjy/public/contact_left/037.png" >
	</image>
</g>
<g id="&#xB808;&#xC774;&#xC5B4;_3">
	<path style="fill:none;stroke:#000000;stroke-width:3;stroke-miterlimit:10;" d="M1098.861-6.494
		c-32.805,33.076-82.424,41.148-124.514,61.112c-16.055,7.615-31.218,17.109-45.081,28.225
		c-19.181,15.381-37.515,30.21-56.653,45.645c-6.413,5.172-12.867,10.372-20.08,14.354c-7.923,4.375-16.595,7.189-24.892,10.805
		c-20.87,9.096-39.129,23.147-57.152,37.056c-10.63,8.204-22.132,11.892-33.713,18.687c-7.927,4.65-15.944,9.342-24.732,12.033
		c-7.882,2.414-16.162,3.151-24.287,4.548c-20.945,3.602-41.101,11.721-58.695,23.641c-16.505,11.182-26.315,28.597-39.56,43.497
		c-10.336,11.628-21.005,23.519-34.849,30.616"/>
</g>
<g id="&#xB808;&#xC774;&#xC5B4;_4">
	<path style="fill:none;stroke:#000000;stroke-width:3;stroke-miterlimit:10;" d="M658.355,244.484
		c-7.794,11.591-27.711,11.333-34.099,23.086c-0.594,1.093-0.298,2.491,0.742,3.172c8.458,5.53,20.286,2.149,30.627,0.55
		c16.262-2.515,32.798,0.348,49.203,1.64c16.404,1.292,33.822,0.768,47.957-7.657"/>
</g>
<g id="&#xB808;&#xC774;&#xC5B4;_5">
	<path style="fill:none;stroke:#000000;stroke-width:3;stroke-miterlimit:10;" d="M555.666,322.189
		c31.605-6.761,62.901-14.966,93.758-24.58c10.851-3.381,22.222-6.977,33.38-4.816c4.65,5.609,3.452,15.072-2.45,19.345
		c-3.116,2.256-7.019,3.055-10.785,3.837c-35.54,7.378-70.38,18.121-103.903,32.038"/>
</g>
<g id="&#xB808;&#xC774;&#xC5B4;_6">
	<path style="fill:none;stroke:#000000;stroke-width:3;stroke-miterlimit:10;" d="M597.415,335.982
		c-4.461,13.312-0.042,27.135,10.67,36.21c3.386,2.868,9.018,4.858,11.826,1.422c1.122-1.374,1.387-3.24,1.548-5.006
		c0.583-6.384,0.387-12.875,1.823-19.123c1.436-6.248,4.868-12.458,10.645-15.237c-5.856,8.264-7.408,19.414-4.029,28.963
		c3.378,9.549,11.595,17.243,21.346,19.986c4.027,1.133,8.984,1.192,11.693-1.995c3.209-3.775,1.374-9.433,1.026-14.376
		c-0.812-11.518,4.54-23.326,15.032-30.129c-6.845,4.892-10.922,13.808-9.096,22.021s10.088,14.795,18.44,13.775
		c11.192-1.366,17.163-13.573,21.137-24.124c12.478-33.133,43.863-55.55,70.79-78.537c10.777-9.2,22.566-18.665,36.657-20.156
		c35.684-3.778,69.115-20.506,104.683-25.252c9.543-1.273,19.203-2.28,28.349-5.288c16.976-5.582,31.459-17.819,48.946-21.501
		c20.049-19.292,46.128-31.094,68.489-47.651c26.734-19.796,48.997-47.827,80.966-57.023c17.851-5.135,35.544-9.591,51.944-18.313
		c10.542-5.607,20.434-12.396,29.691-19.939c10.584-8.625,20.331-18.219,30.061-27.798c9.954-9.801,19.909-19.601,29.863-29.402"/>
</g>
<g id="&#xB808;&#xC774;&#xC5B4;_7">
	<path style="fill:none;stroke:#000000;stroke-width:3;stroke-miterlimit:10;" d="M610.58,360.682
		c3.448-2.02,7.563-2.876,11.53-2.397"/>
</g>
<g id="&#xB808;&#xC774;&#xC5B4;_8">
	<path style="fill:none;stroke:#000000;stroke-width:3;stroke-miterlimit:10;" d="M645.466,368.256
		c6.296-1.319,12.845-1.415,19.177-0.281"/>
</g>
<g id="&#xB808;&#xC774;&#xC5B4;_9">
	<path style="fill:none;stroke:#000000;stroke-width:3;stroke-miterlimit:10;" d="M686.174,361.292
		c1.279-0.439,2.558-0.878,3.836-1.317c5.291-1.816,10.713-3.653,16.307-3.573"/>
</g>
<g id="&#xB808;&#xC774;&#xC5B4;_2">
	<path style="fill:#FFFFFF;stroke:#000000;stroke-width:3;stroke-miterlimit:10;" d="M160.205-6.787
		c22.041,34.179,60.181,55.974,80.364,91.281c2.985,5.222,5.561,10.718,9.242,15.474c3.627,4.687,8.221,8.519,12.776,12.31
		c8.446,7.03,16.891,14.06,25.337,21.09c27.673,23.034,49.795,53.615,74.238,80.052c18.808,20.341,37.649,40.722,54.401,62.787
		c4.507,5.937,0.031,13.651,0.91,21.053c0.986,8.308,3.813,16.392,8.219,23.505c7.879,12.721,3.503,30.27,2.755,45.215
		c-0.303,6.049-0.941,12.316,1.17,17.993c1.775,4.771,5.317,8.627,8.577,12.536c7.565,9.07,14.002,19.08,19.118,29.726
		c2.676,5.57,1.509,12.731,2.151,18.877c0.322,3.074,0.676,6.251,2.224,8.925s4.639,4.716,7.657,4.053
		c2.484-0.546,4.317-2.783,5.107-5.2c0.79-2.417,0.72-5.019,0.643-7.561c-0.094-3.076-0.187-6.152-0.281-9.227
		c-0.078-2.545-0.127-5.219,1.046-7.479c1.496-2.881,4.752-4.507,7.976-4.888c3.223-0.382,6.468,0.289,9.645,0.955
		c4.752,0.997,11.062-3.115,12.931-7.596c0.762-1.828,1.041-3.862,2.065-5.556c1.851-3.06,5.616-4.275,9.08-5.163
		c5.195-1.332,8.077-7.541,9.788-12.623c0.623-1.852,1.104-3.957,2.71-5.07c1.264-0.876,2.912-0.898,4.45-0.888
		c6.538,0.043,13.076,0.085,19.614,0.128c3.321,0.022,4.41-5.494,4.251-8.812s-0.194-7.493,2.801-8.927
		c2.066-0.989,4.663-0.054,6.736-1.029c5.326-9.091,6.415-21.194,2.434-30.949c-5.797-14.205-15.469-26.181-23.526-39.238
		c-9.359-15.168-19.045-30.702-33.271-41.439c-9.998-7.546-21.836-12.393-31.738-20.065c-10.145-7.86-18.015-18.623-22.429-30.674
		c-6.165-16.834-21.852-30.417-32.845-44.579c-8.097-10.432-18.632-21.284-26.202-32.104
		c-12.496-17.863-20.977-38.713-36.295-54.223c-1.802-9.325-7.65-17.403-13.603-24.804c-15.665-19.479-29.752-40.227-42.076-61.974"
		/>
</g>
</svg>
