<?xml version="1.0" encoding="iso-8859-1"?>
<!-- Generator: Adobe Illustrator 24.0.1, SVG Export Plug-In . SVG Version: 6.00 Build 0)  -->
<svg version="1.1" xmlns="http://www.w3.org/2000/svg" xmlns:xlink="http://www.w3.org/1999/xlink" x="0px" y="0px"
	 viewBox="0 0 1280 600" style="enable-background:new 0 0 1280 600;" xml:space="preserve">
<g id="&#xB808;&#xC774;&#xC5B4;_1" style="display:none;">
	
		<image style="display:inline;overflow:visible;" width="772" height="598" xlink:href="../../&#x1102;&#x1166;&#x110B;&#x1175;&#x1107;&#x1165; MYBOX/&#x110C;&#x1169;&#x11BC;&#x1105;&#x1169; &#x110B;&#x1175;&#x110C;&#x1166;&#x11AB; Publishing/pfjjy_PR/pfjjy_nextjs/pfjjy/public/contact_right/038.png"  transform="matrix(1 0 0 1 508 1)">
	</image>
	
		<image style="display:inline;overflow:visible;" width="724" height="600" xlink:href="../../&#x1102;&#x1166;&#x110B;&#x1175;&#x1107;&#x1165; MYBOX/&#x110C;&#x1169;&#x11BC;&#x1105;&#x1169; &#x110B;&#x1175;&#x110C;&#x1166;&#x11AB; Publishing/pfjjy_PR/pfjjy_nextjs/pfjjy/public/contact_left/038.png" >
	</image>
</g>
<g id="&#xB808;&#xC774;&#xC5B4;_3">
	<path style="fill:none;stroke:#000000;stroke-width:3;stroke-miterlimit:10;" d="M1111.687-6.183
		c-14.124,13.943-28.868,28.285-47.531,35.033c-7.268,2.628-14.913,4.013-22.417,5.859c-9.901,2.436-19.582,5.682-29.249,8.925
		c-10.934,3.667-21.867,7.335-32.801,11.002c-8.729,2.928-17.776,6.045-24.367,12.473c-17.687,17.248-38.793,30.812-61.223,41.168
		c-11.687,5.396-24.166,10.121-33.128,19.361c-30.44,31.386-76.299,39.579-111.235,65.868c-13.17,9.91-30.354,16.134-45.952,21.459
		c-4.753,1.623-9.62,3.057-13.98,5.549c-5.226,2.986-9.626,7.437-15.241,9.603c-10.246,3.954-22.811-0.336-32.167,5.414
		c-7.387,4.54-14.115,8.225-21.18,13.251c-11.977,8.521-22.737,18.613-33.457,28.67c-4.809,4.512-9.652,9.062-13.495,14.421
		c-3.643,5.079-6.345,10.828-10.404,15.581c-4.059,4.753-12.036,9.535-18.235,8.728"/>
</g>
<g id="&#xB808;&#xC774;&#xC5B4;_4">
	<path style="fill:none;stroke:#000000;stroke-width:3;stroke-miterlimit:10;" d="M659.177,238.157
		c-6.183,11.847-22.703,12.707-33.672,20.339c-1.845,1.284-3.681,3.039-3.791,5.285c-0.131,2.663,2.35,4.869,4.958,5.421
		c2.608,0.553,5.3-0.116,7.899-0.709c36.689-8.38,74.92-2.172,112.553-2.399"/>
</g>
<g id="&#xB808;&#xC774;&#xC5B4;_5">
	<path style="fill:none;stroke:#000000;stroke-width:3;stroke-miterlimit:10;" d="M542.564,317.446
		c39.792-8.591,79.458-17.765,118.981-27.518c3.389,5.205,5.492,11.241,6.07,17.425c0.123,1.319,0.15,2.752-0.601,3.843
		c-0.761,1.105-2.128,1.588-3.404,2.004c-39.032,12.728-78.191,25.07-117.467,37.024"/>
</g>
<g id="&#xB808;&#xC774;&#xC5B4;_6">
	<path style="fill:none;stroke:#000000;stroke-width:3;stroke-miterlimit:10;" d="M556.63,350.915
		c9.611-0.978,19.039-3.718,27.677-8.043c-1.65,10.581,5.622,21.815,15.951,24.641c1.802,0.493,3.814,0.734,5.47-0.133
		c2.691-1.409,3.241-4.932,3.692-7.936c0.724-4.82,2.078-9.698,5.086-13.533c3.008-3.835,7.954-6.435,12.75-5.567
		c-1.33,11.58-0.422,23.412,2.659,34.653c0.488,1.779,1.046,3.579,2.118,5.079c3.652,5.112,11.235,4.719,17.448,3.788
		c2.387-3.577,1.549-8.897,1.528-13.198c-0.05-10.009,5.523-19.862,14.128-24.976c6.777-4.028,6.302-12.553,12.309-17.66
		c0.466,1.596,0.213,3.388-0.677,4.793c-5.105,8.067-5.484,18.949-4.525,28.447c0.3,2.972,0.932,6.404,3.568,7.809
		c1.272,0.678,2.776,0.725,4.218,0.721c3.48-0.011,7.113-0.28,10.107-2.053c4.426-2.621,6.45-7.854,8.169-12.702
		c0.83-2.341,1.66-4.682,2.49-7.023c11.878-6.366,17.696-20.802,26.064-31.366c13.777-17.393,35.804-26.747,49.493-44.21
		c3.346-4.269,6.154-8.979,9.927-12.876c3.773-3.897,8.817-7,14.239-6.864c30.698,0.771,60.327-13.556,90.173-20.781
		c37.649-9.114,76.58-17.748,108.416-39.816c10.077-6.985,22.573-10.617,32.79-17.395c28.471-18.885,56.392-38.598,83.717-59.105
		c5.811-4.361,11.62-8.775,17.983-12.283c8.783-4.844,18.552-7.891,28.532-8.899c26.078-2.636,49.591-18.62,70.544-34.368
		c20.953-15.747,39.092-34.879,56.895-54.116"/>
</g>
<g id="&#xB808;&#xC774;&#xC5B4;_7">
	<path style="fill:none;stroke:#000000;stroke-width:3;stroke-miterlimit:10;" d="M598.596,356.692
		c3.866-1.103,7.878-1.696,11.898-1.757"/>
</g>
<g id="&#xB808;&#xC774;&#xC5B4;_8">
	<path style="fill:none;stroke:#000000;stroke-width:3;stroke-miterlimit:10;" d="M635.515,369.263
		c5.022-3.079,11.397-3.852,17.01-2.065"/>
</g>
<g id="&#xB808;&#xC774;&#xC5B4;_9">
	<path style="fill:none;stroke:#000000;stroke-width:3;stroke-miterlimit:10;" d="M683.164,356.874
		c4.671-2.318,10.114-3.045,15.23-2.034"/>
</g>
<g id="&#xB808;&#xC774;&#xC5B4;_2">
	<path style="fill:#FFFFFF;stroke:#000000;stroke-width:3;stroke-miterlimit:10;" d="M141.842-8.904
		c16.127,26.407,35.433,50.87,57.368,72.692c12.254,12.191,21.806,26.865,32.764,40.232c11.57,14.114,22.041,25.546,37.328,35.515
		c15.367,10.022,22.015,29.941,37.809,39.275c27.886,16.479,42.4,48.285,62.272,73.864c7.377,9.496,14.634,19.252,23.907,26.908
		c4.843,3.999,10.873,9.513,8.437,15.302c-6.272,14.902,0.199,33.321,1.887,49.401s6.269,32.478,16.95,44.616
		c14.32,16.273,18.11,38.98,25.141,59.484c0.914,2.664,2.607,5.903,5.407,5.603c2.257-0.242,3.507-2.738,3.981-4.958
		c1.094-5.125,0.314-10.572,1.884-15.572c1.57-4.999,7.14-9.497,11.813-7.126c3.964,2.011,8.095-0.806,12.518-0.373
		c2.709,0.265,5.712,0.451,7.871-1.207c2.4-1.845,2.825-5.217,4.043-7.988c2.456-5.588,8.229-8.786,13.279-12.215
		s10.133-8.377,9.821-14.473c4.251,2.796,10.865,1.906,15.588,0.012s8.404-6.197,9.544-11.155c0.445-1.935,0.568-4.052,1.778-5.626
		c1.57-2.044,4.405-2.49,6.736-3.59c4.029-1.9,6.787-6.231,6.805-10.685c0.072-17.835-5.691-35.178-16.179-49.604
		c-10.488-14.426-24.13-26.238-38.099-37.328c-9.31-7.391-18.824-14.525-28.528-21.39c-7.589-5.369-15.687-11.045-19.26-19.628
		c1.491-5.821-2.4-11.146-6.534-15.506c-4.134-4.361-9.402-7.452-14.049-11.261c-8.916-7.311-15.525-17.395-18.668-28.489
		c-4.325-15.261-17.016-25.929-25.179-39.529c-2.42-4.032-4.847-8.074-7.712-11.803c-7.126-9.274-17.045-16.777-21.207-27.707
		c-7.324-19.231-15.137-39.333-27.898-55.476C320.698,25.167,306.65,9.734,297.437-8.667"/>
</g>
</svg>
