<?xml version="1.0" encoding="iso-8859-1"?>
<!-- Generator: Adobe Illustrator 24.0.1, SVG Export Plug-In . SVG Version: 6.00 Build 0)  -->
<svg version="1.1" xmlns="http://www.w3.org/2000/svg" xmlns:xlink="http://www.w3.org/1999/xlink" x="0px" y="0px"
	 viewBox="0 0 1280 600" style="enable-background:new 0 0 1280 600;" xml:space="preserve">
<g id="&#xB808;&#xC774;&#xC5B4;_1" style="display:none;">
	
		<image style="display:inline;overflow:visible;" width="772" height="598" xlink:href="../../&#x1102;&#x1166;&#x110B;&#x1175;&#x1107;&#x1165; MYBOX/&#x110C;&#x1169;&#x11BC;&#x1105;&#x1169; &#x110B;&#x1175;&#x110C;&#x1166;&#x11AB; Publishing/pfjjy_PR/pfjjy_nextjs/pfjjy/public/contact_right/039.png"  transform="matrix(1 0 0 1 508 1)">
	</image>
	
		<image style="display:inline;overflow:visible;" width="724" height="600" xlink:href="../../&#x1102;&#x1166;&#x110B;&#x1175;&#x1107;&#x1165; MYBOX/&#x110C;&#x1169;&#x11BC;&#x1105;&#x1169; &#x110B;&#x1175;&#x110C;&#x1166;&#x11AB; Publishing/pfjjy_PR/pfjjy_nextjs/pfjjy/public/contact_left/039.png" >
	</image>
</g>
<g id="&#xB808;&#xC774;&#xC5B4;_3">
	<path style="fill:none;stroke:#000000;stroke-width:3;stroke-miterlimit:10;" d="M1097.001-10.129
		c-20.769,17.375-41.953,35.006-66.933,45.456c-11.334,4.741-23.252,7.914-34.836,12.006c-19.276,6.809-37.549,16.136-55.756,25.434
		c-44.688,22.821-90.716,42.771-130.569,73.258c-15.988,12.231-34.323,21.835-50.931,33.21
		c-24.156,16.545-52.682,26.648-81.867,28.993c-21.321,1.713-39.682,19.365-56.944,31.996
		c-16.281,11.913-34.895,22.516-49.228,36.712c-14.346,14.209-24.672,33.837-39.583,47.451"/>
</g>
<g id="&#xB808;&#xC774;&#xC5B4;_4">
	<path style="fill:none;stroke:#000000;stroke-width:3;stroke-miterlimit:10;" d="M508.989,326.012
		c14.749,0.576,29.276-3.248,43.541-7.04c28.011-7.447,56.023-14.894,84.035-22.341c1.63-0.433,3.339-0.869,4.981-0.489
		c3.352,0.774,5.066,4.571,5.42,7.993c0.247,2.384,0.089,4.842,0.374,7.204c0.197,1.636-0.967,3.095-2.603,3.286
		c-20.804,2.424-38.002,18.218-57.812,25.826c-8.24,3.164-16.952,4.903-25.655,6.374c-14.678,2.482-29.477,4.246-44.327,5.284"/>
</g>
<g id="&#xB808;&#xC774;&#xC5B4;_5">
	<path style="fill:none;stroke:#000000;stroke-width:3;stroke-miterlimit:10;" d="M577.886,342.043
		c-0.746,4.435-1.385,9.048,0.531,13.314c0.678,1.508,1.701,2.867,3.037,3.842c5.082,3.71,10.851,0.323,13.934-4.065
		c2.494-3.55,3.837-7.787,6.157-11.454s6.168-6.917,10.492-6.552c-0.383,8.848-0.614,17.621,0.385,26.422
		c0.775,6.829,2.715,14.155,9.129,17.638c3.391,1.841,7.598,1.742,10.609-0.671c3.666-2.938,3.167-7.174,3.059-11.109
		c-0.182-6.661,0.945-13.355,3.298-19.589c4.824-12.784,18.292-20.579,30.178-27.632c0.493-0.293,1.068,0.196,0.869,0.734
		c-5.141,13.921-6.479,29.036-4.912,43.81c0.094,0.883,0.224,1.822,0.803,2.494c0.65,0.754,1.725,1,2.693,1.114
		c4.02,0.472,8.102-0.916,10.914-3.827c6.762-6.998,6.93-16.256,7.007-25.087c20.386-9.84,30.405-31.659,47.91-46.011
		c7.004-5.742,14.955-10.193,22.86-14.613c8.628-4.824,14.689-14.706,18.265-23.922c1.086-2.799,2.079-5.929,4.609-7.546
		c3.853-2.464,9.268-0.175,13.363-2.209c14.684-7.294,36.528-2.619,51.136-8.697c9.941-4.136,20.651-5.9,31.417-6.115
		c18.271-0.365,36.745-12.115,54.895-17.057c12.355-3.364,32.028-10.289,43.623-15.72c23.347-10.936,46.068-19.961,66.98-34.924
		c14.646-10.479,29.453-19.192,45.597-27.172c10.531-5.206,18.371-8.913,25.878-17.95c3.85-4.635,6.858-10.196,11.928-13.451
		c4.97-3.192,11.164-3.671,16.694-5.748c20.771-7.801,44.622-7.165,63.703-18.488c7.106-4.217,13.275-9.894,20.476-13.945
		c5.315-2.99,11.125-5.055,16.311-8.263c8.058-4.985,14.208-12.464,20.157-19.839c7.885-9.776,15.693-19.615,23.421-29.515"/>
</g>
<g id="&#xB808;&#xC774;&#xC5B4;_6">
	<path style="fill:none;stroke:#000000;stroke-width:3;stroke-miterlimit:10;" d="M643.638,234.103
		c-2.978,8.551-10.445,15.393-19.223,17.614c-2.064,0.522-4.238,0.824-6.064,1.919c-1.826,1.095-3.224,3.299-2.573,5.326
		c0.896,2.789,4.594,3.233,7.523,3.164c10.252-0.241,20.504-0.482,30.756-0.724c29.704-0.699,59.408-1.398,89.112-2.096"/>
</g>
<g id="&#xB808;&#xC774;&#xC5B4;_2">
	<path style="fill:#FFFFFF;stroke:#000000;stroke-width:3;stroke-miterlimit:10;" d="M119.381-9.785
		c3.559,8.499,10.089,15.339,16.39,22.062c23.284,24.841,45.297,50.873,65.924,77.96c9.738,12.787,20.871,23.481,30.639,36.245
		c4.697,6.138,10.259,11.552,15.798,16.941c15.81,15.38,31.619,30.759,47.429,46.139c22.855,22.233,44.455,42.839,63.041,68.746
		c5.748,8.012,11.207,16.386,14.394,25.717c2.407,7.047,6.892,12.689,9.65,19.606c5.07,12.714,5.812,26.675,6.493,40.346
		c0.548,11.002,2.312,22.043,1.957,33.053c-0.233,7.215,0.093,15.643,5.929,19.892c3,8.289,10.865,16.056,14.587,24.047
		c1.937,4.158,2.71,8.743,3.801,13.198c1.317,5.375,3.123,10.63,5.388,15.68c1.597,3.562,3.659,7.258,7.194,8.915
		c3.534,1.657,8.762-0.014,9.278-3.884c0.797-5.965,1.105-13.277,4.72-18.089c3.615-4.812,10.603-7.383,15.949-4.619
		c5.926-1.444,12.413-3.871,16.072-8.75c1.488-1.984,2.398-4.351,3.881-6.338c1.483-1.987,3.857-3.635,6.295-3.185
		c5.19,0.958,10.155-1.711,13.24-5.993c3.085-4.282,5.123-9.541,9.441-12.575c5.591,0.55,10.895-2.391,14.901-6.33
		c4.006-3.939,7.406-8.596,12.123-11.648c0.737-8.327,1.395-17.021,2.132-25.348c0.46-5.2-4.725-10.091-8.07-14.099
		c-17.499-20.969-34.998-41.937-52.497-62.906c-4.133-4.952-8.994-10.294-15.428-10.735c-9.236-0.634-14.868-12.585-18.937-20.901
		c-3.321-6.788-4.556-14.517-8.426-21.008c-2.404-4.034-5.731-7.424-9.024-10.771c-4.004-4.07-8.008-8.14-12.012-12.21
		c-20.25-20.584-35.155-47.835-48.544-73.418c-12.754-24.369-25.132-52.29-40.178-75.314c-15.046-23.024-33.72-44.128-57.006-58.767
		"/>
</g>
</svg>
