<?xml version="1.0" encoding="iso-8859-1"?>
<!-- Generator: Adobe Illustrator 24.0.1, SVG Export Plug-In . SVG Version: 6.00 Build 0)  -->
<svg version="1.1" xmlns="http://www.w3.org/2000/svg" xmlns:xlink="http://www.w3.org/1999/xlink" x="0px" y="0px"
	 viewBox="0 0 1280 600" style="enable-background:new 0 0 1280 600;" xml:space="preserve">
<g id="&#xB808;&#xC774;&#xC5B4;_1" style="display:none;">
	
		<image style="display:inline;overflow:visible;" width="772" height="598" xlink:href="../../&#x1102;&#x1166;&#x110B;&#x1175;&#x1107;&#x1165; MYBOX/&#x110C;&#x1169;&#x11BC;&#x1105;&#x1169; &#x110B;&#x1175;&#x110C;&#x1166;&#x11AB; Publishing/pfjjy_PR/pfjjy_nextjs/pfjjy/public/contact_right/040.png"  transform="matrix(1 0 0 1 508 1)">
	</image>
	
		<image style="display:inline;overflow:visible;" width="724" height="600" xlink:href="../../&#x1102;&#x1166;&#x110B;&#x1175;&#x1107;&#x1165; MYBOX/&#x110C;&#x1169;&#x11BC;&#x1105;&#x1169; &#x110B;&#x1175;&#x110C;&#x1166;&#x11AB; Publishing/pfjjy_PR/pfjjy_nextjs/pfjjy/public/contact_left/040.png" >
	</image>
</g>
<g id="&#xB808;&#xC774;&#xC5B4;_3">
	<path style="fill:none;stroke:#000000;stroke-width:3;stroke-miterlimit:10;" d="M1088.255-5.658
		c-20.884,20.772-47.717,35.496-76.456,41.954c-6.982,1.569-14.075,2.662-20.975,4.559c-11.19,3.076-21.794,8.269-31.084,15.224
		c-26.348,19.724-55.462,33.544-83.736,50.391c-13.02,7.758-26.04,15.515-39.059,23.273c-9.465,5.64-18.961,11.295-29.06,15.701
		c-11.002,4.8-22.598,8.063-33.962,11.93c-22.843,7.771-44.872,18.041-65.191,31.052c-24.121,15.445-52.058,27.812-77.026,41.846
		c-32.656,18.356-60.58,43.917-88.184,69.242c-4.244,3.893-8.632,10.413-5.741,14.812c0.513,0.78,0.776,1.688,1,2.594
		c0.63,2.537,3.058,4.582,5.723,4.411c3.197-0.205,5.979-2.158,8.572-4.04c7.583-5.505,15.166-11.009,22.749-16.514
		c1.978-1.436,4.512-1.897,7.073-1.952c1.351-0.029,2.037,1.611,1.047,2.531c-3.955,3.678-6.185,8.597-8.088,13.99
		c-4.243,12.03-8.536,24.343-9.09,37.03c-0.086,1.977,1.332,3.706,3.282,4.042l0.754,0.13c6.523,1.124,14.646-2.601,18.023-8.294
		c3.339-5.63,4.911-12.073,7.313-18.147c6.551-16.566,19.64-31.444,35.796-38.95c0.111-0.203,0.219,0.582,0.328,0.361
		c0.699-1.415,2.884-0.475,2.282,0.984c-1.271,3.082-4.021,5.773-6.457,8.234c-14.991,15.15-23.412,35.425-31.478,55.152
		c-2.026,4.955-4.1,10.227-2.305,15.581c0.866,2.584,2.791,4.755,5.384,5.592c4.168,1.345,7.434-1.344,10.296-3.863
		c4.455-3.921,8.911-7.842,13.366-11.763c4.1-3.608,4.678-9.284,7.13-14.164c6.994-13.92,18.804-25.35,32.902-31.96
		c1.803-0.845,3.763,1.036,2.918,2.839c-1.194,2.547-3.698,4.868-5.631,7.057c-6.193,7.018-6.959,17.149-7.421,26.497
		c-0.279,5.635-0.304,11.979,3.642,16.012c0.633,0.647,1.415,1.235,2.318,1.293c0.921,0.059,1.781-0.442,2.515-1.002
		c4.895-3.732,6.569-10.194,8.924-15.882c5.029-12.148,14.53-22.385,26.269-28.305c10.689-5.39,22.58-14.603,30.101-23.915
		s14.308-19.479,23.857-26.699c6.278-4.747,13.608-8.097,19.335-13.496c4.688-4.419,8.121-10.049,12.94-14.334
		c4.498-4,12.93-5.624,18.744-4.064c11.935,3.202,24.419-5.559,37.077-6.636c24.068-2.048,49.343-5.559,71.97-14.021
		c8.859-3.313,23.604-8.001,32.786-10.269c14.127-3.489,27.488-11.137,40.844-16.841c8.388-3.582,16.776-7.165,25.164-10.747
		c5.25-2.242,10.501-4.485,15.751-6.727c25.192-10.758,48.458-28.11,69.336-45.842c16.823-14.288,32.737-31.19,53.871-37.552
		c13.161-3.962,29.223-11.845,41.959-17.012c18.96-7.691,38.051-15.45,55.218-26.582s32.487-25.978,40.938-44.612"/>
</g>
<g id="&#xB808;&#xC774;&#xC5B4;_4">
	<path style="fill:#FFFFFF;stroke:#000000;stroke-width:3;stroke-miterlimit:10;" d="M517.77,322.066
		c35.497-5.277,70.995-10.554,106.492-15.831c1.293,5.4,2.051,10.928,2.259,16.477c-32.851,12.065-65.702,24.13-98.553,36.194
		c-9.882,3.629-20.079,7.311-30.599,6.916c-12.446-0.468-36.09-14.838-24.395-30.206
		C480.422,325.826,506.634,323.721,517.77,322.066z"/>
</g>
<g id="&#xB808;&#xC774;&#xC5B4;_5">
	<path style="fill:none;stroke:#000000;stroke-width:3;stroke-miterlimit:10;" d="M628.93,243.67
		c-4.72,1.077-10.685,3.924-9.749,8.674c0.554,2.809,3.453,4.485,6.186,5.341c11.452,3.585,23.659-0.825,35.562-2.355
		c24.701-3.174,49.863,6.255,74.446,2.266"/>
</g>
<g id="&#xB808;&#xC774;&#xC5B4;_2">
	<path style="fill:#FFFFFF;stroke:#000000;stroke-width:3;stroke-miterlimit:10;" d="M101.948-9.425
		c14.595,24.158,32.811,46.124,53.85,64.938c8.449,7.556,17.374,14.629,25.058,22.961c10.646,11.544,18.66,25.225,28.216,37.687
		c31.395,40.94,78.438,67.552,110.508,107.966c12.069,15.209,12.023,38.197,22.474,54.559c7.348,11.505,16.214,22.299,20.744,35.177
		c4.975,14.142,4.29,29.533,5.111,44.502c0.821,14.969,3.678,30.851,13.965,41.756c1.795,9.728,2.943,18.268,4.737,27.995
		c0.569,3.086,1.145,6.194,2.293,9.114c4.114,10.467,15.291,17.992,16.088,29.21c4.192,0.82,8.13-2.552,10.146-6.317
		c2.016-3.766,2.864-8.095,5.09-11.74c2.226-3.645,6.662-6.587,10.654-5.068c6.43-1.76,9.868-10.069,14.934-14.401
		c7.174-6.134,18.302-7.37,23.512-15.241c1.794-2.71,2.848-6.162,5.66-7.791c2.813-1.63,6.334-0.828,9.577-1.057
		c5.146-0.364,9.979-3.683,12.168-8.355c0.785-1.676,1.254-3.507,2.245-5.071c1.681-2.655,4.621-4.192,7.425-5.61
		c0.765-9.275,9.37-17.278,8.52-26.545c-0.368-4.015-2.211-7.725-4.022-11.328c-13.403-26.664-27.216-53.892-48.795-74.507
		c-8.193-7.828-17.4-14.586-25.132-22.87c-7.426-7.956-13.404-17.26-17.553-27.322c-1.595-3.867-5.025-9.057-8.298-11.662
		s-7.105-4.394-10.663-6.593c-12.635-7.808-21.371-20.444-29.736-32.717c-4.02-5.898-8.039-11.795-12.059-17.693
		c-9.796-14.373-17.877-32.733-28.502-46.505c-8.007-10.378-14.148-22.046-20.238-33.652c-16.33-31.121-32.6-62.274-48.809-93.459"
		/>
</g>
</svg>
