<?xml version="1.0" encoding="iso-8859-1"?>
<!-- Generator: Adobe Illustrator 24.0.1, SVG Export Plug-In . SVG Version: 6.00 Build 0)  -->
<svg version="1.1" xmlns="http://www.w3.org/2000/svg" xmlns:xlink="http://www.w3.org/1999/xlink" x="0px" y="0px"
	 viewBox="0 0 1280 600" style="enable-background:new 0 0 1280 600;" xml:space="preserve">
<g id="&#xB808;&#xC774;&#xC5B4;_1" style="display:none;">
	
		<image style="display:inline;overflow:visible;" width="772" height="598" xlink:href="../../&#x1102;&#x1166;&#x110B;&#x1175;&#x1107;&#x1165; MYBOX/&#x110C;&#x1169;&#x11BC;&#x1105;&#x1169; &#x110B;&#x1175;&#x110C;&#x1166;&#x11AB; Publishing/pfjjy_PR/pfjjy_nextjs/pfjjy/public/contact_right/041.png"  transform="matrix(1 0 0 1 508 1)">
	</image>
	
		<image style="display:inline;overflow:visible;" width="724" height="600" xlink:href="../../&#x1102;&#x1166;&#x110B;&#x1175;&#x1107;&#x1165; MYBOX/&#x110C;&#x1169;&#x11BC;&#x1105;&#x1169; &#x110B;&#x1175;&#x110C;&#x1166;&#x11AB; Publishing/pfjjy_PR/pfjjy_nextjs/pfjjy/public/contact_left/041.png"  transform="matrix(1 0 0 1 0 -1)">
	</image>
</g>
<g id="&#xB808;&#xC774;&#xC5B4;_3">
	<path style="fill:none;stroke:#000000;stroke-width:3;stroke-miterlimit:10;" d="M1082.765-9.308
		c-11.985,10.528-20.577,25.58-35.224,31.9c-5.695,2.458-11.909,3.384-18.006,4.524c-30.311,5.669-59.511,17.218-85.5,33.816
		c-22.939,14.65-44.629,31.31-68.105,45.084c-11.308,6.635-22.838,12.997-35.094,17.658c-16.092,6.12-40.898,19.1-54.712,29.376
		c-10.557,7.853-25.24,10.492-36.196,18.163c-4.849,3.395-9.131,7.559-14.062,10.835c-6.236,4.143-13.459,6.791-20.896,7.659
		c-45.442,5.307-84.856,33.981-123.125,59.053c-6.095,3.993-12.437,5.169-18.997,8.34c-8.3,4.012-15.147,10.435-21.853,16.759
		c-5.46,5.149-10.96,10.343-14.875,16.824c-1.517,2.511-2.406,5.395-2.244,8.324c0.506,9.17,9.363,10.989,15.832,8.655
		c4.702-1.697,8.547-5.099,12.583-8.049c4.036-2.949,8.699-5.59,13.693-5.353c2.543,2.137,2.067,3.527,0.312,6.347
		c-5.604,9.004-10.099,18.698-13.351,28.792c-1.283,3.982-2.386,8.229-0.878,12.304c0.628,1.698,1.749,3.208,3.293,4.155
		c3.932,2.411,7.697,0.134,10.68-2.192c3.967-3.094,7.521-6.677,10.762-10.526c4.083-4.85,8.693-9.573,11.394-15.386
		c1.625-3.497,2.521-7.313,4.333-10.716c5.118-9.607,16.261-14.027,26.507-17.7c1.056-1.494,2.892-0.641,2.645,1.172
		c-0.247,1.813-1.94,3.012-3.441,4.058c-18.1,12.616-27.866,33.861-35.961,54.385c-2.724,6.907-5.367,13.9-6.912,21.149
		c-0.371,1.742,0.884,3.418,2.659,3.56c9.576,0.765,19.47-2.873,26.159-9.792c9.624-9.955,12.017-24.93,20.257-36.057
		c5.438-7.342,13.403-12.775,22.224-15.157c1.941,5.579-4.093,10.778-7.425,15.655c-5.541,8.108-7.175,18.206-8.845,27.847
		c-0.128,0.736-0.208,1.483-0.156,2.229c0.449,6.407,7.904,6.407,12.761,4.268c6.204-2.732,11.554-7.376,15.113-13.149
		c3.825-6.204,11.601-14.831,17.672-18.864c8.886-5.903,14.105-15.466,21.862-23.576c14.162-14.808,37.33-19.076,49.835-35.308
		c5.113-6.637,7.981-14.761,12.918-21.53s13.259-12.316,21.34-10.104c8.503-2.6,16.487-7.6,25.149-9.603
		c6.151-1.422,13.391-2.294,19.631-3.253c17.931-2.757,35.922-5.527,53.343-10.593c56.692-16.485,112.817-30.748,163.996-60.183
		c24.05-13.832,44.024-33.265,67.369-48.256c22.558-14.485,46.341-28.136,72.624-33.418c14.12-2.838,29.201-11.265,40.06-20.725
		c6.04-5.261,11.388-11.293,17.598-16.353c4.559-3.715,9.555-6.883,13.958-10.78c8.799-7.788,14.859-18.131,20.768-28.288"/>
</g>
<g id="&#xB808;&#xC774;&#xC5B4;_4">
	<path style="fill:#FFFFFF;stroke:#000000;stroke-width:3;stroke-miterlimit:10;" d="M561.195,320.897
		c6.231-1.465,12.492-2.939,18.413-5.371c6.564-2.697,13.403-6.645,20.287-4.925c8.4,2.099,12.671,12.373,10.797,20.826
		c-0.281,1.269-0.681,2.541-1.447,3.592c-2.057,2.825-6.014,3.278-9.499,3.54c-25.086,1.883-49.965,6.524-74.043,13.812
		c-18.691,5.657-37.241,12.969-56.753,13.768c-4.662,0.191-5.807-19.195-2.279-22.32c5.438-4.817,19.186-5.214,25.941-6.801
		C515.473,331.644,538.334,326.271,561.195,320.897z"/>
</g>
<g id="&#xB808;&#xC774;&#xC5B4;_5">
	<path style="fill:none;stroke:#000000;stroke-width:3;stroke-miterlimit:10;" d="M633.281,231.87
		c-0.786,4.44-5.836,6.417-9.86,8.452s-8.047,6.855-5.464,10.551c0.831,1.189,2.188,1.901,3.554,2.389
		c7.374,2.632,15.421-0.129,23.061-1.843c31.484-7.064,65.015,4.094,96.378-3.494"/>
</g>
<g id="&#xB808;&#xC774;&#xC5B4;_2">
	<path style="fill:#FFFFFF;stroke:#000000;stroke-width:3;stroke-miterlimit:10;" d="M73.839-15.378
		c30.296,54.06,83.139,91.398,121.587,139.999c18.221,23.033,33.606,49.025,56.978,66.808c9.02,6.863,14.549,14.629,21.563,23.532
		c6.694,8.497,13.388,16.994,20.082,25.491c9.752,12.379,19.554,24.832,27.094,38.67c8.938,16.404,14.556,34.608,16.417,53.196
		c1.875,18.729,0.514,37.765,5.955,55.783c4.231,14.011,11.748,26.817,16.521,40.653c4.011,11.627,6.036,23.84,9.477,35.649
		c1.032,3.543,2.55,7.454,5.957,8.871c5.605,2.331,11.127-3.823,12.983-9.603s2.73-12.659,7.8-15.998
		c3.925-2.585,9.047-2.068,13.707-1.452c2.613,0.345,6.874-3.672,8.134-5.988c1.26-2.315,1.766-4.968,2.898-7.348
		c3.94-8.289,13.969-11.201,22.528-14.516c2.512-0.973,5.132-2.176,6.571-4.453c1.02-1.615,1.326-3.602,2.358-5.21
		c1.777-2.769,5.336-3.844,8.625-3.925c3.289-0.08,6.568,0.616,9.853,0.434c1.564-0.087,3.329-0.519,4.063-1.903
		c0.487-0.918,0.386-2.02,0.378-3.06c-0.045-6.101,3.965-12.032,9.643-14.263c9.769-3.839,10.256-20.171,7.933-30.406
		c-2.352-10.359-9.348-18.948-16.134-27.121c-16.103-19.395-32.206-38.79-48.309-58.185c-13.026-15.689-33.073-26.586-42.539-44.649
		c-3.36-6.411-6.13-13.272-10.94-18.681c-7.204-8.101-13.467-18.816-19.843-27.583c-3.859-5.306-8.315-10.144-12.761-14.968
		c-6.371-6.914-12.741-13.828-19.112-20.742c-9.019-9.788-13.748-24.637-20.446-36.14c-2.152-3.695-4.304-7.391-6.455-11.086
		c-8.388-14.404-16.792-28.833-26.51-42.375c-14.612-20.36-27.066-44.83-41.105-65.589"/>
</g>
</svg>
