<?xml version="1.0" encoding="iso-8859-1"?>
<!-- Generator: Adobe Illustrator 24.0.1, SVG Export Plug-In . SVG Version: 6.00 Build 0)  -->
<svg version="1.1" xmlns="http://www.w3.org/2000/svg" xmlns:xlink="http://www.w3.org/1999/xlink" x="0px" y="0px"
	 viewBox="0 0 1280 600" style="enable-background:new 0 0 1280 600;" xml:space="preserve">
<g id="&#xB808;&#xC774;&#xC5B4;_1" style="display:none;">
	
		<image style="display:inline;overflow:visible;" width="772" height="598" xlink:href="../../&#x1102;&#x1166;&#x110B;&#x1175;&#x1107;&#x1165; MYBOX/&#x110C;&#x1169;&#x11BC;&#x1105;&#x1169; &#x110B;&#x1175;&#x110C;&#x1166;&#x11AB; Publishing/pfjjy_PR/pfjjy_nextjs/pfjjy/public/contact_right/042.png"  transform="matrix(1 0 0 1 508 1)">
	</image>
	
		<image style="display:inline;overflow:visible;" width="724" height="600" xlink:href="../../&#x1102;&#x1166;&#x110B;&#x1175;&#x1107;&#x1165; MYBOX/&#x110C;&#x1169;&#x11BC;&#x1105;&#x1169; &#x110B;&#x1175;&#x110C;&#x1166;&#x11AB; Publishing/pfjjy_PR/pfjjy_nextjs/pfjjy/public/contact_left/042.png" >
	</image>
</g>
<g id="&#xB808;&#xC774;&#xC5B4;_4">
	<path style="fill:none;stroke:#000000;stroke-width:3;stroke-miterlimit:10;" d="M1290.936-2.405
		c-19.253,17.264-38.506,34.528-57.759,51.792c-9.117,8.176-18.361,16.44-29.226,22.09c-11.453,5.956-25.107,9.097-33.263,19.104
		c-15.547,2.641-30.771,7.174-45.231,13.466c-2.847,1.239-5.677,2.552-8.279,4.247c-8.474,5.518-14.924,16.839-24.361,20.46
		c-8.914,3.42-16.925,8.89-23.799,15.517c-23.062,22.234-61.447,20.824-87.804,38.16c-17.556,11.547-35.575,22.977-55.702,29.017
		c-9.726,2.919-19.789,4.528-29.817,6.13c-21.474,3.429-42.433,5.955-63.399,11.727c-15.346,4.225-32.583,2.229-46.358,10.204
		c-4.448,2.575-8.28,6.07-12.074,9.537c-29.695,27.135-56.701,57.421-89.277,81.022c-2.249,1.629-4.229,3.585-5.944,5.77
		c-6.508,8.291-14.987,14.615-23.394,20.874c-2.681,1.996-5.963,4.281-9.276,3.843c-3.541-4.357-3.247-10.577-2.772-16.172
		c0.276-3.253,0.565-6.563,1.782-9.592c1.091-2.714,2.879-5.081,4.647-7.412l7.997-10.546c1.078-1.421,1.991-2.967,2.63-4.633
		c2.285-5.959-1.392-5.473-3.511-4.499c-3.58,1.646-7.238,3.344-10.045,6.109c-1.711,1.685-3.047,3.714-4.7,5.457
		c-1.51,1.593-3.265,2.929-4.872,4.424c-10.357,9.636-12.121,29.763-25.383,34.828c-2.012,0.768-3.72,2.139-5.127,3.77
		c-2.947,3.415-6.703,6.118-10.866,7.849c-1.571,0.653-3.23,1.174-4.931,1.177c-1.701,0.003-3.46-0.567-4.613-1.818
		c-2.019-2.19-1.65-5.673-0.824-8.493c0.795-2.715,1.287-5.496,1.684-8.297c0.388-2.732,1.731-5.269,3.066-7.707
		c8.655-15.815,18.363-31.173,28.44-46.122c-1.07-2.14-3.932-2.86-6.237-2.219c-1.913,0.532-3.52,1.769-4.998,3.122
		c-5.898,5.399-11.265,11.345-15.774,17.948c-5.15,7.542-13.133,12.559-20.89,17.365c-1.492,0.925-2.993,1.854-4.621,2.51
		c-2.19,0.883-4.598,1.251-6.94,0.96c-1.029-0.128-2.078-0.398-2.88-1.055c-1.752-1.435-1.723-4.102-1.307-6.328
		c1-5.344,3.372-10.426,6.826-14.625c4.652-5.655,11.053-10.091,13.04-17.139c-11.046-5.079-25.111,7.665-35.423,1.225
		c2.472-9.534,10.505-16.432,18.114-22.685c25.01-20.556,50.057-41.141,76.723-59.499c1.106-0.761,1.845-1.69,2.985-2.398
		c1.134-0.705,1.432-1.103,2.592-1.765c0.88-0.502,2.159-1.601,2.943-2.243c6.771-5.55,11.771-9.55,17.939-12.584
		c7.252-3.567,14.552-3.869,21.609-8.001c13.207-7.735,27.681-12.906,42.474-16.834c9.026-2.397,15.261-9.389,24.058-11.954
		c9.226-2.69,17.847-7.089,25.734-12.58c51.373-35.766,119.418-48.65,163.216-93.398c13.367-13.656,32.774-19.639,51.719-22.142
		c8.139-1.075,16.396-1.614,24.309-3.805c8.201-2.271,15.808-6.254,23.343-10.209c14.824-7.781,30.004-15.837,41.043-28.422"/>
</g>
<g id="&#xB808;&#xC774;&#xC5B4;_5">
	<path style="fill:none;stroke:#000000;stroke-width:3;stroke-miterlimit:10;" d="M631.392,231.067
		c-1.979,5.115-10.187,6.37-10.789,11.822c-0.297,2.694,1.668,5.239,4.101,6.435c2.433,1.195,5.24,1.315,7.95,1.306
		c21.091-0.069,41.932-6.521,62.975-5.085c12.991,0.887,26.616,4.679,38.615-0.378"/>
</g>
<g id="&#xB808;&#xC774;&#xC5B4;_3">
	<path style="fill:#FFFFFF;stroke:#000000;stroke-width:3;stroke-miterlimit:10;" d="M438.056,345.472
		c21.868,2.102,44.059,0.811,65.535-3.814c26.837-5.779,53.049-16.776,80.49-16.021c1.042,5.822,3.195,14.329-1.254,18.226
		c-3.439,3.013-8.507,2.833-13.062,3.23c-13.819,1.205-26.034,9.03-38.984,14.001c-17.29,6.638-36.269,8.27-53.226,15.72
		c-9.234,4.057-18.131,9.897-28.207,10.334c-3.398,0.147-7.164-0.527-9.305-3.171c-1.745-2.154-2.016-5.109-2.215-7.874
		C437.107,366.074,438.779,355.5,438.056,345.472z"/>
</g>
<g id="&#xB808;&#xC774;&#xC5B4;_6">
	<path style="fill:none;stroke:#000000;stroke-width:3;stroke-miterlimit:10;" d="M610.612,297.276
		c2.927-0.808,5.667-3.463,9.241-5.517c3.641-2.093,7.993-2.896,11.313-5.469"/>
</g>
<g id="&#xB808;&#xC774;&#xC5B4;_2">
	<path style="fill:#FFFFFF;stroke:#000000;stroke-width:3;stroke-miterlimit:10;" d="M49.441-8.891
		c1.501,3.698,4.712,6.376,7.761,8.951c13.31,11.242,25.758,23.506,37.198,36.647c3.49,4.009,6.968,8.245,8.544,13.322
		c1.918,6.181,8.309,9.696,12.023,14.996c19.116,27.283,39.622,52.746,65.178,74.116c24.919,20.839,45.333,45.415,67.821,68.857
		c6.869,7.161,13.802,14.404,18.869,22.935c9.705,16.34,13.195,37.943,29.418,47.843c4.344,2.651,4.934,7.141,7.346,11.623
		s3.615,9.844,2.153,14.718c-2.493,8.311,3.999,16.188,4.699,24.836c1.678,20.734,3.357,41.469,5.377,62.173
		c1.61,16.493,14.421,30.655,17.959,46.843c1.387,6.347,1.871,12.86,2.023,19.355c0.125,5.351,0.059,10.874,2.117,15.815
		c2.058,4.941,6.915,9.184,12.239,8.629c5.436-0.566,9.241-5.723,11.121-10.855c1.879-5.132,2.601-10.748,5.436-15.42
		c2.835-4.673,8.927-8.13,13.777-5.611c9.873,5.128,16.959-10.453,26.335-16.442c2.762-1.764,5.863-3.165,7.97-5.675
		c2.634-3.138,3.559-7.823,7.123-9.844c5.054-2.866,11.473,1.644,17.11,0.236c7.039-1.758,7.736-12.063,12.278-17.72
		c3.124-3.89,7.516-6.512,11.305-9.758c3.789-3.245,7.184-7.635,7.082-12.623c-0.297-14.436-10.68-25.83-20.863-36.068
		c-4.792-4.817-9.692-10.306-14.102-15.475c-5.613-6.578-11.241-13.178-15.988-20.406c-3.575-5.443-6.66-11.254-10.954-16.149
		c-6.261-7.135-14.715-11.91-22.997-16.548c-8.5-4.76-11.995-19.142-15.658-28.169c-2.126-5.24-3.826-10.65-6.074-15.839
		c-5.053-11.664-12.755-21.951-20.385-32.117c-9.508-12.668-19.814-25.757-30.477-37.47c-6.239-6.854-11.819-14.22-17.033-21.882
		c-10.391-15.271-20.783-30.541-31.174-45.812c-3.591-5.278-7.294-10.854-7.908-17.208c-1.121-11.612-5.248-22.814-10.97-32.981
		c-11.888-21.122-30.53-38.635-41.524-60.236"/>
</g>
</svg>
