<?xml version="1.0" encoding="iso-8859-1"?>
<!-- Generator: Adobe Illustrator 24.0.1, SVG Export Plug-In . SVG Version: 6.00 Build 0)  -->
<svg version="1.1" xmlns="http://www.w3.org/2000/svg" xmlns:xlink="http://www.w3.org/1999/xlink" x="0px" y="0px"
	 viewBox="0 0 1280 600" style="enable-background:new 0 0 1280 600;" xml:space="preserve">
<g id="&#xB808;&#xC774;&#xC5B4;_1" style="display:none;">
	
		<image style="display:inline;overflow:visible;" width="772" height="598" xlink:href="../../&#x1102;&#x1166;&#x110B;&#x1175;&#x1107;&#x1165; MYBOX/&#x110C;&#x1169;&#x11BC;&#x1105;&#x1169; &#x110B;&#x1175;&#x110C;&#x1166;&#x11AB; Publishing/pfjjy_PR/pfjjy_nextjs/pfjjy/public/contact_right/043.png"  transform="matrix(1 0 0 1 508 1)">
	</image>
	
		<image style="display:inline;overflow:visible;" width="724" height="600" xlink:href="../../&#x1102;&#x1166;&#x110B;&#x1175;&#x1107;&#x1165; MYBOX/&#x110C;&#x1169;&#x11BC;&#x1105;&#x1169; &#x110B;&#x1175;&#x110C;&#x1166;&#x11AB; Publishing/pfjjy_PR/pfjjy_nextjs/pfjjy/public/contact_left/043.png" >
	</image>
</g>
<g id="&#xB808;&#xC774;&#xC5B4;_5">
	<path style="fill:none;stroke:#000000;stroke-width:3;stroke-miterlimit:10;" d="M564.403,298.361
		c1.109-1.749,2.51-3.313,4.128-4.606c1.456-1.164,3.086-2.111,4.453-3.379c4.323-4.008,4.952-6.49,5.351-7.003
		c4.428-5.683,11.173-8.973,17.676-12.074"/>
</g>
<g id="&#xB808;&#xC774;&#xC5B4;_6">
	<path style="fill:none;stroke:#000000;stroke-width:3;stroke-miterlimit:10;" d="M648.689,214.878
		c-8.484,8.949-20.744,14.054-27.865,24.122c-0.669,0.946-1.308,2.001-1.3,3.16c0.012,1.678,1.432,3.082,3.019,3.625
		s3.315,0.413,4.987,0.276c2.457-0.201,4.913-0.402,7.37-0.603c11.503-0.941,23.039-1.886,34.347-4.191
		c7.442-1.517,15.611-3.526,22.277,0.114"/>
</g>
<g id="&#xB808;&#xC774;&#xC5B4;_4">
	<path style="fill:none;stroke:#000000;stroke-width:3;stroke-miterlimit:10;" d="M1077.208-9.135
		c-19.43,16.887-45.154,24.135-69.8,31.569s-50.214,16.214-67.753,35.057c-33.589,36.088-84.626,47.32-128.672,69.467
		c-31.123,15.649-62.137,31.871-93.247,47.487c-18.152,9.111-37.323,15.852-56.797,21.617c-4.716,1.396-8.157,4.215-12.649,6.638
		c-3.619,1.952-7.156,4.053-10.514,6.426l-39.006,27.564c-23.632,16.7-47.709,35.123-60.434,61.146
		c-0.327,0.669-0.533,1.409-0.487,2.153c0.106,1.714,1.381,2.116,2.558,2.367c5.656,1.206,11.719,0.409,16.871-2.218
		c1.605-0.819,4.799-3.223,6.576-2.929c0.284,1.86,0.569,3.72,0.853,5.58c1.176,7.693-0.002,15.3-3.031,22.468
		c-1.623,3.841-4.17,7.67-3.559,11.795c0.132,0.89,0.434,1.793,1.077,2.423c0.701,0.686,1.704,0.953,2.669,1.123
		c2.782,0.489,5.669,0.378,8.406-0.324c8.667-2.223,14.653-10.5,18.85-18.403c3.215-6.055,5.744-12.888,8.905-19.069
		c0.811-1.585,2.075-2.901,3.646-3.738c7.678-4.092,15.789-7.569,24.021-10.551c1.074-0.389,1.786,1.106,0.814,1.706
		c-2.362,1.457-4.683,2.985-6.974,4.552c-2.689,1.839-4.73,4.525-5.576,7.672c-1.177,4.379-3.129,8.63-5.548,12.386
		c-3.819,5.931-8.467,11.382-12.667,17.049c-1.738,2.346-3.482,4.699-4.899,7.251c-3.692,6.647-5.027,14.528-3.986,22.06
		c3.596,2.972,9.073,2.825,12.061-0.758c6.621-7.94,16.478-12.843,21.464-22.098c4.94-9.17,11.981-17.128,20.962-22.403
		c5.522-3.244,9.948-8.096,14.912-12.196c0.198-0.163,0.396-0.327,0.594-0.49c2.061-1.693,4.922,0.753,3.575,3.055
		c-1.138,1.944-2.246,3.873-3.348,5.638c-2.702,4.326-4.108,9.413-3.571,14.485c0.567,5.356-2.454,10.399-6.036,15.044
		c-3.619,4.693-0.666,11.551,5.224,12.207c1.175,0.131,2.42,0.179,3.752,0.169c4.838-5.733,9.304-11.293,14.142-17.026
		c5.328-6.314,7.348-16.325,14.583-20.45c5.113-2.916,10.024-6.184,14.287-10.242c6.75-6.426,14.362-11.857,21.947-17.266
		c9.866-7.036,19.733-14.072,29.599-21.109c10.005-7.135,16.796-19.217,26.419-26.859c3.746-2.975,7.64-5.964,9.468-10.617
		c1.038-2.641,3.058-4.794,5.742-5.715c15.225-5.226,31.416-3.858,47.48-4.998c9.666-0.685,19.19-3.744,27.935-7.919
		c2.85-1.361,5.616-2.894,8.465-4.257c12.239-5.855,26.008-8.477,39.542-7.529c7.184,0.503,14.435-2.524,21.165-5.087
		c2.884-1.099,5.645-2.499,8.519-3.626c8.574-3.364,17.894-4.213,27.068-5.028c23.287-2.07,43.881-17.392,60.01-34.315
		c1.805-1.894,3.564-3.86,5.674-5.407c2.663-1.954,5.85-3.187,9.134-3.535c18.482-1.961,31.973-19.064,46.393-30.79
		c3.516-2.859,7.104-5.892,11.173-7.751c2.376-1.085,4.612-2.492,6.37-4.424c4.781-5.255,13.026-7.129,20.21-8.763
		c16.307-3.708,32.509-7.882,48.578-12.513c11.553-3.33,22.143-11.339,32.167-17.979c14.057-9.313,26.311-20.133,39.875-30.149
		c13.087-9.664,24.411-21.707,33.252-35.364"/>
</g>
<g id="&#xB808;&#xC774;&#xC5B4;_3">
	<path style="fill:none;stroke:#000000;stroke-width:3;stroke-miterlimit:10;" d="M405.757,359.484
		c8.227-1.176,16.393-2.785,24.452-4.817c6.126-1.545,12.189-3.333,18.305-4.917c15.223-3.941,30.742-6.601,46.241-9.257
		c7.4-1.268,14.801-2.536,22.201-3.805c12.855-2.203,25.847-4.414,38.865-3.622c0.369,2.276,0.587,4.956,0.568,7.261
		c-0.038,4.733-0.076,9.466-0.113,14.199c-0.005,0.615-0.022,1.27-0.368,1.779c-0.27,0.398-0.705,0.647-1.13,0.871
		c-2.002,1.053-4.145,1.837-6.354,2.322c-11.379,2.501-23.19,2.793-34.5,5.588c-5.779,1.428-11.371,3.551-17.167,4.906
		c-10.8,2.525-22.147,2.349-32.783,5.494c-4.955,1.465-9.67,3.629-14.495,5.475c-12.745,4.878-26.331,7.549-39.974,7.86
		c-0.709-4.893-2.93-9.419-4.36-14.152S403.302,363.775,405.757,359.484z"/>
</g>
<g id="&#xB808;&#xC774;&#xC5B4;_2">
	<path style="fill:#FFFFFF;stroke:#000000;stroke-width:3;stroke-miterlimit:10;" d="M26.775-8.654
		C45.783,9.353,64.791,27.36,83.799,45.367c4.433,4.2,8.897,8.434,12.439,13.409c4.605,6.468,7.498,13.962,10.81,21.178
		c14.94,32.554,39.402,60.668,69.578,79.966c0,0,0,0,0,0c1.924,4.78,5.943,9.472,9.706,12.991
		c28.687,26.824,45.679,64.408,74.873,90.679c11.073,9.964,24.943,20.46,24.841,35.355c-0.202,29.364,8.628,56.984,6.689,86.285
		c-0.775,11.722-2.153,24.197,3.305,34.6c4.725,9.005,14.006,15.153,17.918,24.539c4.917,11.797,0.302,26.27,8.728,36.969
		c2.341,2.973,6.588,3.936,9.719,1.812c3.305-2.242,2.623-6.133,3.053-9.548c0.834-6.626,6.263-11.947,12.406-14.567
		s12.968-3.026,19.637-3.397l3.422-5.134c0.456-0.684,1.183-1.153,1.999-1.253c2.653-0.325,5.407,0.044,7.981-0.688
		c4.163-1.184,7.055-5.044,8.632-9.074s2.145-8.384,3.48-12.5c0.354-1.091,0.843-2.26,1.863-2.785
		c0.739-0.38,1.613-0.344,2.443-0.298c6.416,0.353,14.283-0.071,17.219-5.787c0.771-1.502,1.079-3.218,1.895-4.692
		c0.901-1.629,3.204-2.617,4.972-2.034c5.588,1.845,9.01-7.641,11.387-13.398c2.942-7.124,5.944-14.714,4.699-22.32
		c-1.019-6.229-4.791-11.659-8.974-16.385c-6.642-7.505-12.545-15.628-17.754-24.19c-19.836-32.606-59.298-52.413-70.616-88.857l0,0
		c0.626-6.418-2.114-15.825-6.088-20.904c-9.715-12.416-19.431-24.831-29.146-37.247c-4.109-5.251-8.218-10.501-12.326-15.752
		c-3.581-4.577-3.075-10.279-5.844-15.388c-9.921-18.31-19.842-36.62-29.763-54.93c-21.191-39.11-47.008-76.633-74.847-111.327"/>
</g>
</svg>
