<?xml version="1.0" encoding="iso-8859-1"?>
<!-- Generator: Adobe Illustrator 24.0.1, SVG Export Plug-In . SVG Version: 6.00 Build 0)  -->
<svg version="1.1" xmlns="http://www.w3.org/2000/svg" xmlns:xlink="http://www.w3.org/1999/xlink" x="0px" y="0px"
	 viewBox="0 0 1280 600" style="enable-background:new 0 0 1280 600;" xml:space="preserve">
<g id="&#xB808;&#xC774;&#xC5B4;_1" style="display:none;">
	
		<image style="display:inline;overflow:visible;" width="772" height="598" xlink:href="../../&#x1102;&#x1166;&#x110B;&#x1175;&#x1107;&#x1165; MYBOX/&#x110C;&#x1169;&#x11BC;&#x1105;&#x1169; &#x110B;&#x1175;&#x110C;&#x1166;&#x11AB; Publishing/pfjjy_PR/pfjjy_nextjs/pfjjy/public/contact_right/044.png"  transform="matrix(1 0 0 1 508 1)">
	</image>
	
		<image style="display:inline;overflow:visible;" width="724" height="600" xlink:href="../../&#x1102;&#x1166;&#x110B;&#x1175;&#x1107;&#x1165; MYBOX/&#x110C;&#x1169;&#x11BC;&#x1105;&#x1169; &#x110B;&#x1175;&#x110C;&#x1166;&#x11AB; Publishing/pfjjy_PR/pfjjy_nextjs/pfjjy/public/contact_left/044.png" >
	</image>
</g>
<g id="&#xB808;&#xC774;&#xC5B4;_4">
</g>
<g id="&#xB808;&#xC774;&#xC5B4;_6">
	<path style="fill:none;stroke:#000000;stroke-width:3;stroke-miterlimit:10;" d="M658.161,207.25
		c-6.071,5.768-13.613,9.975-21.711,12.108c-3.228,0.851-6.802,1.562-9.868,2.882c-3.871,1.666-3.88,7.221,0.038,8.773
		c6.866,2.72,14.589,3.471,22.038,4.128c14.102,1.244,28.203,2.489,42.305,3.733c13.019,1.149,26.109,2.298,39.138,1.277"/>
</g>
<g id="&#xB808;&#xC774;&#xC5B4;_5">
	<path style="fill:none;stroke:#000000;stroke-width:3;stroke-miterlimit:10;" d="M1071.352-4.71
		c-9.02,4.465-18.041,8.93-27.061,13.395c-18.454,9.135-37.221,18.375-57.494,21.985c-13.815,2.46-29.911,3.234-39.039,13.361
		c-5.331,5.915-15.23,14.335-21.679,19.006c-11.146,8.073-22.292,16.146-33.438,24.219c-12.654,9.165-25.631,18.492-40.62,22.898
		c-4.291,6.841-15.004,10.774-22.652,13.365c-7.648,2.591-15.693,3.897-23.295,6.621c-10.809,3.874-20.357,10.473-29.336,17.707
		c-7.251,5.841-20.434,13.085-29.203,16.213c-33.307,11.884-66.614,23.768-99.922,35.651c-9.365,11.54-24.724,14.888-37.801,21.951
		c-9.95,5.374-18.249,13.291-26.418,21.112c-15.064,14.422-30.185,28.907-42.947,45.413c-0.932,1.206-1.478,2.707-1.358,4.226
		c0.413,5.234,7.801,5.202,12.418,3.182c15.372-6.726,27.851-21.478,44.202-23.931c1.451-0.218,2.32,1.564,1.237,2.554
		c-7.809,7.137-15.788,13.556-21.017,22.893c-4.689,8.373-10.48,16.04-16.443,23.559c-2.057,2.594-3.245,5.859-3.507,9.212
		c-0.063,0.808-0.052,1.691,0.441,2.334c0.709,0.926,2.074,0.963,3.235,0.846c9.806-0.99,18.919-7.262,23.347-16.068
		c6.75-3.853,10.216-11.464,15.7-16.972c7.141-7.172,17.223-10.24,27.133-12.688c0.893-0.22,1.522,0.862,0.886,1.527
		c-6.925,7.232-14.859,14.945-19.171,24.743c-2.81,6.385-7.208,11.906-12.455,16.503c-6.49,5.687-13.325,15.65-9.167,23.841
		c10.895,1.477,19.389-5.328,27.652-12.581c14.445-12.677,26.561-36.983,42.18-41.442c0.977-0.279,1.746,0.855,1.104,1.642
		c-2.016,2.469-2.912,6.317-3.279,9.571c-0.537,4.77-0.148,9.87-2.489,14.061c-2.468,4.418-4.343,8.997-6.837,13.4
		c-1.387,2.45-2.823,5.123-2.47,7.917c0.352,2.793,3.446,5.346,5.947,4.053c5.37,0.628,12.884,1.193,16.677-2.66
		c1.781-1.809,2.699-4.266,3.758-6.572c2.23-4.852,5.286-9.324,8.997-13.165C687,318,697.445,308.338,709.603,300.991
		c5.114-3.09,9.745-6.917,13.896-11.215l21.294-22.046c2.599-2.691,5.204-5.389,7.461-8.373c5.973-7.898,9.643-17.914,17.798-23.531
		c14.954-10.301,32.785-17.365,50.943-17.199c25.66,0.234,50.956-7.026,75.861-13.211c14.075-3.496,30.489-8.107,44.772-10.623
		c7.289-1.284,14.721-2.616,21.239-6.123c4.053-2.181,7.633-5.145,11.604-7.472c13.646-7.998,30.969-8.012,44.273-16.567
		c17.266-11.102,34.428-22.425,50.737-34.89c18.519-14.154,36.611-29.754,58.511-37.735c30.095-10.968,61.572-22.971,89.842-38.032
		s54.419-35.128,72.77-61.381"/>
</g>
<g id="&#xB808;&#xC774;&#xC5B4;_3">
	<path style="fill:none;stroke:#000000;stroke-width:3;stroke-miterlimit:10;" d="M382.925,363.692
		c48.684-2.801,97.179-8.867,145.053-18.144c2.873-0.557,5.494,1.685,5.421,4.611c-0.132,5.271,0.408,10.734,0.591,15.842
		c-46.146,13.112-92.673,24.758-138.819,37.87c-2.243,0.637-4.867,1.213-6.735-0.184c-1.319-0.986-1.85-2.685-2.273-4.276
		C383.182,388.205,382.72,375.284,382.925,363.692z"/>
</g>
<g id="&#xB808;&#xC774;&#xC5B4;_2">
	<path style="fill:#FFFFFF;stroke:#000000;stroke-width:3;stroke-miterlimit:10;" d="M18.424-13.147
		C28.694,8.4,40.132,30.252,58.525,45.466c7.97,6.592,17.975,13.289,18.593,23.614c1.055,17.631,14.256,33.976,25.39,47.688
		c18.55,22.845,38.191,45.161,61.858,62.65c5.12,3.783,5.886,10.061,9.771,15.104c19.647,25.504,46.367,47.044,56.258,77.681
		c7.6,6.657,6.36,18.068,12.866,25.797c3.396,4.034,8.103,6.864,11.212,11.123c2.503,3.428,3.837,7.695,3.732,11.938
		c-0.77,31.167,6.206,61.871,8.322,92.975c0.439,6.447,1.01,13.355,5.08,18.375c10.942,13.498,13.882,35.258,16.258,52.471
		c1.009,7.31,5.27,15.578,12.625,14.985c7.355-0.593,13.134-8.664,11.326-15.819c-1.179-4.667,0.614-9.819,3.524-13.652
		c2.911-3.833,9.086-5.408,12.649-2.172c5.811-0.4,13.892-1.949,16.193-7.3c0.804-1.871,1.989-4.645,3.842-3.803
		c10.076-3.821,18.545-11.796,23.485-21.373c3.51-1.399,7.721-2.011,11.49-1.734c3.534,0.26,4.765-5.055,6.526-8.13
		c1.761-3.075,5.225-6.167,8.439-4.675c3.278,1.522,7.926-3.615,9.956-6.605c2.03-2.99,2.296-6.81,2.313-10.424
		c0.033-6.804-0.584-13.612-1.838-20.3c-2.532-13.502-8.543-26.346-17.956-36.352c-10.183-10.824-15.001-26.04-26.421-35.55
		c-14.383-11.978-26.15-26.825-38.87-40.558c-3.216-3.473-6.478-7.011-8.566-11.258c-5.543-11.278-8.469-25.352-16.089-35.345
		c-6.084-7.978-13.214-15.441-16.869-24.785c-13.857-35.427-36.944-69.435-56.213-102.234
		c-11.366-19.346-22.739-38.704-35.134-57.407C181.987,24.862,170.742,9.214,167.023-9.04"/>
</g>
</svg>
