<?xml version="1.0" encoding="iso-8859-1"?>
<!-- Generator: Adobe Illustrator 24.0.1, SVG Export Plug-In . SVG Version: 6.00 Build 0)  -->
<svg version="1.1" xmlns="http://www.w3.org/2000/svg" xmlns:xlink="http://www.w3.org/1999/xlink" x="0px" y="0px"
	 viewBox="0 0 1280 600" style="enable-background:new 0 0 1280 600;" xml:space="preserve">
<g id="&#xB808;&#xC774;&#xC5B4;_1" style="display:none;">
	
		<image style="display:inline;overflow:visible;" width="772" height="598" xlink:href="../../&#x1102;&#x1166;&#x110B;&#x1175;&#x1107;&#x1165; MYBOX/&#x110C;&#x1169;&#x11BC;&#x1105;&#x1169; &#x110B;&#x1175;&#x110C;&#x1166;&#x11AB; Publishing/pfjjy_PR/pfjjy_nextjs/pfjjy/public/contact_right/045.png"  transform="matrix(1 0 0 1 508 1)">
	</image>
	
		<image style="display:inline;overflow:visible;" width="724" height="600" xlink:href="../../&#x1102;&#x1166;&#x110B;&#x1175;&#x1107;&#x1165; MYBOX/&#x110C;&#x1169;&#x11BC;&#x1105;&#x1169; &#x110B;&#x1175;&#x110C;&#x1166;&#x11AB; Publishing/pfjjy_PR/pfjjy_nextjs/pfjjy/public/contact_left/045.png" >
	</image>
</g>
<g id="&#xB808;&#xC774;&#xC5B4;_6">
	<path style="fill:none;stroke:#000000;stroke-width:3;stroke-miterlimit:10;" d="M631.655,207.714
		c-3.979,3.588-9.25,11.358-8.008,16.57c1.122,4.707,6.498,7.286,11.335,7.164c4.837-0.122,9.368-2.211,13.968-3.711
		c7.54-2.46,15.58-3.378,23.48-2.684c6.028,0.53,11.932,1.982,17.896,3.009c13.953,2.405,28.189,2.483,42.348,2.556"/>
</g>
<g id="&#xB808;&#xC774;&#xC5B4;_8">
	<path style="fill:none;stroke:#000000;stroke-width:3;stroke-miterlimit:10;" d="M567.5,282.5
		c3.184-1.726,9.049-4.317,12.494-5.435c1.989-0.645,4.051-1.082,5.97-1.912c1.737-0.751,3.32-1.808,4.933-2.798
		c3.184-1.954,6.519-3.664,9.965-5.109"/>
</g>
<g id="&#xB808;&#xC774;&#xC5B4;_10">
	<path style="fill:none;stroke:#000000;stroke-width:3;stroke-miterlimit:10;" d="M573.076,285.57
		c0.809-2.484,10.744-9.578,13.157-10.58"/>
</g>
<g id="&#xB808;&#xC774;&#xC5B4;_9">
	<path style="fill:none;stroke:#000000;stroke-width:3;stroke-miterlimit:10;" d="M611.953,287.807
		c7.571-3.259,20.322-9.101,28.205-11.509"/>
</g>
<g id="&#xB808;&#xC774;&#xC5B4;_5">
	<path style="fill:none;stroke:#000000;stroke-width:3;stroke-miterlimit:10;" d="M1068.581-6.933
		c-26.865,13.483-55.207,24.018-84.356,31.355c-5.925,1.491-11.932,2.868-17.47,5.451c-6.988,3.26-12.993,8.336-18.942,13.143
		c-7.811,6.313-15.246,13.074-22.251,20.271c-9.79,10.058-22.905,16.507-35.378,22.927c-39.634,20.401-79.269,40.801-118.904,61.202
		c-5.211,2.682-13.607,7.314-18.549,10.467c-11.27,7.191-24.777,10.48-37.891,13.586c-2.222,0.526-4.444,1.053-6.666,1.579
		c-33.73,7.988-67.73,27.321-95.453,48.129c-14.956,11.226-28.753,23.904-42.492,36.59c-9.342,8.626-19.211,18.237-21.23,30.792
		c-0.024,0.149-0.045,0.302-0.062,0.457c-0.16,1.525,1.478,2.597,2.833,1.881l0.025-0.013c0.277-0.148,0.562-0.272,0.868-0.34
		c5.961-1.318,16.745-11.265,22.785-10.352c0.48,3.866-7.023,9.85-8.447,13.476c-1.198,3.048-3.017,5.81-4.409,8.775
		c-3.516,7.492-4.186,15.998-5.181,24.155c-0.249,2.038,0.386,4.135,1.87,5.554c2.561,2.45,5.29,1.004,7.398-0.469
		c2.176-1.521,4.082-3.391,5.752-5.455c4.593-5.674,10.233-10.43,14.548-16.321c3.744-5.112,7.015-10.627,11.496-15.106
		c4.481-4.479,10.528-7.904,16.849-7.468c-5.212,4.14-9.523,10.378-11.117,16.84c-0.492,1.995-0.784,4.047-1.478,5.981
		c-1.773,4.939-5.925,8.558-9.261,12.61c-5.717,6.945-9.215,15.675-9.955,24.635c-0.213,2.586,2.19,4.679,4.698,4.016
		c3.387-0.896,6.587-2.964,9.448-4.997c7.383-5.248,14.026-11.431,20.204-18.055c9.298-9.97,21.578-16.658,31.263-26.28
		c3.806-3.782,8.11-7.896,13.04-9.395c2.673-0.813,5.304,1.464,4.955,4.236c-0.656,5.202-3.484,9.875-6.96,14.252
		c-4.507,5.675-9.884,10.831-12.865,17.437c-2.399,5.316-3.081,11.39-1.921,17.106c0.35,1.724,0.938,3.557,3.58,3.735
		c1.288,0.087,2.566-0.303,3.668-0.974c5.268-3.21,10.395-6.649,15.363-10.306c12.937-9.523,24.855-20.908,33.996-34.114
		c5.9-8.524,18.323-19.403,27.277-24.628c6.523-3.806,12.274-9.703,17.405-14.998c14.507-14.97,28.753-32.388,48.993-37.379
		c9.646-2.379,18.578-3.661,27.828-7.284c4.874-1.909,9.564-4.28,14.5-6.024c8.427-2.977,17.403-4.074,26.193-5.502
		c8.015-1.251,16.029-2.503,24.044-3.754c41.659-6.112,80.026-25.541,117.772-44.116c13.914-6.847,27.884-12.428,41.456-20.271
		c13.816-6.794,27.187-14.426,40.73-21.75c4.83-2.547,8.608-8.766,13.033-11.98c5.921-4.301,12.066-8.317,17.638-13.061
		c6.811-5.799,12.716-12.644,19.972-17.897c7.161-5.184,15.932-7.505,24.762-7.066c21.242,1.055,41.966-13.868,60.484-23.172
		c3.835-2.038,7.665-4.073,11.5-6.111c9.145-5.236,18.981-9.67,27.422-16.126c9.357-7.156,16.829-16.753,21.474-27.578"/>
</g>
<g id="&#xB808;&#xC774;&#xC5B4;_7">
</g>
<g id="&#xB808;&#xC774;&#xC5B4;_3">
	<path style="fill:none;stroke:#000000;stroke-width:3;stroke-miterlimit:10;" d="M367.179,380.161
		c29.577-4.278,59.147-8.605,88.71-12.981c7.028-1.04,14.095-2.093,20.841-4.321c10.764-3.555,21.524-10.16,32.593-7.713
		c1.243,5.671,0.24,12.609-1.751,18.063c-46.101,8.767-89.795,30.734-136.452,35.763
		C368.27,401.032,366.403,388.561,367.179,380.161z"/>
</g>
<g id="&#xB808;&#xC774;&#xC5B4;_2">
	<path style="fill:#FFFFFF;stroke:#000000;stroke-width:3;stroke-miterlimit:10;" d="M-3.962-4.156
		C9.799,10.77,22.618,26.565,34.393,43.104c5.558,7.807,11.054,15.954,18.879,21.487c15.283,37.385,41.3,72.039,72.973,97.1
		c7.85,6.212,6.41,17.787,11.189,26.583c3.936,7.245,9.773,13.244,15.534,19.142c7.656,7.837,15.311,15.675,22.967,23.512
		c12.686,12.987,23.47,26.213,33.056,41.631c11.78,18.948,19.733,40.012,26.508,61.27c6.898,21.643,1.954,44.628,2.197,67.342
		c0.154,14.433,0.546,29.711,8.262,41.91c0.227,13.239,11.705,22.015,15.825,34.598c2.322,7.093,1.991,14.736,2.735,22.162
		c0.115,1.145,0.272,2.335,0.904,3.296c1.083,1.647,3.295,2.19,5.258,2.004c4.445-0.422,8.155-3.843,10.158-7.833
		c2.003-3.99,2.6-8.517,3.155-12.947c0.298-2.377,0.648-4.89,2.153-6.754c3.063-3.796,8.957-2.994,13.695-1.836
		c5.44,1.329,11.316-0.791,15.345-4.681c1.725-1.666,3.187-3.628,5.149-5.008c6.1-4.292,15.899-2.286,20.324-8.29
		c3.263-4.429,8.389-8.232,11.903-12.464c0.99-1.192,1.98-2.384,2.97-3.577c3.146-3.789,6.299-7.587,9.003-11.702
		c1.549-2.357,3.05-4.915,5.496-6.318c3.978-2.281,9.148-0.805,13.424-2.462c6.364-2.467,8.194-10.43,9.122-17.191
		c0.653-4.755,1.307-9.58,0.665-14.336c-0.861-6.381-4.367-12.774-11.273-14.439c-3.792-0.915-6.863-3.691-7.825-7.471
		c-5.573-21.901-27.474-39.946-41.07-56.698c-7.108-8.089-14.204-16.164-21.312-24.253c-13.133-14.078-22.194-34.697-29.627-52.641
		c-4.525-10.925-11.115-20.851-17.663-30.698c-12.528-18.84-25.056-37.681-37.584-56.521
		c-16.439-24.722-23.408-55.563-36.426-82.246c-2.357-4.83-7.233-8.198-10.297-12.614c-2.345-3.38-3.747-6.307-5.53-10.014
		c-1.772-3.683-2.93-6.164-5.083-9.637C161,18.716,149.448,4.923,140.895-8.87"/>
</g>
<g id="&#xB808;&#xC774;&#xC5B4;_4">
</g>
</svg>
