<?xml version="1.0" encoding="iso-8859-1"?>
<!-- Generator: Adobe Illustrator 24.0.1, SVG Export Plug-In . SVG Version: 6.00 Build 0)  -->
<svg version="1.1" xmlns="http://www.w3.org/2000/svg" xmlns:xlink="http://www.w3.org/1999/xlink" x="0px" y="0px"
	 viewBox="0 0 1280 600" style="enable-background:new 0 0 1280 600;" xml:space="preserve">
<g id="&#xB808;&#xC774;&#xC5B4;_1" style="display:none;">
	
		<image style="display:inline;overflow:visible;" width="772" height="598" xlink:href="../../&#x1102;&#x1166;&#x110B;&#x1175;&#x1107;&#x1165; MYBOX/&#x110C;&#x1169;&#x11BC;&#x1105;&#x1169; &#x110B;&#x1175;&#x110C;&#x1166;&#x11AB; Publishing/pfjjy_PR/pfjjy_nextjs/pfjjy/public/contact_right/046.png"  transform="matrix(1 0 0 1 508 0)">
	</image>
	
		<image style="display:inline;overflow:visible;" width="724" height="600" xlink:href="../../&#x1102;&#x1166;&#x110B;&#x1175;&#x1107;&#x1165; MYBOX/&#x110C;&#x1169;&#x11BC;&#x1105;&#x1169; &#x110B;&#x1175;&#x110C;&#x1166;&#x11AB; Publishing/pfjjy_PR/pfjjy_nextjs/pfjjy/public/contact_left/046.png" >
	</image>
</g>
<g id="&#xB808;&#xC774;&#xC5B4;_5">
	<path style="fill:none;stroke:#000000;stroke-width:3;stroke-miterlimit:10;" d="M608.783,289.484
		c7.082-6.961,17.881-14.163,27.393-17.013c3.721-1.114,7.929-2.14,10.002-5.424"/>
</g>
<g id="&#xB808;&#xC774;&#xC5B4;_7">
	<path style="fill:none;stroke:#000000;stroke-width:3;stroke-miterlimit:10;" d="M576.198,284.026
		c3.681-4.075,11.41-9.024,15.748-12.392c4.155-3.225,7.986-6.867,11.417-10.852"/>
	<path style="fill:none;stroke:#000000;stroke-width:3;stroke-miterlimit:10;" d="M579.317,283.292
		c1.013-1.448,1.922-2.969,2.719-4.546"/>
</g>
<g id="&#xB808;&#xC774;&#xC5B4;_8">
	<path style="fill:none;stroke:#000000;stroke-width:3;stroke-miterlimit:10;" d="M608.225,298.464
		c0.49-1.633,5.054-12.244,5.687-13.827"/>
</g>
<g id="&#xB808;&#xC774;&#xC5B4;_6">
	<path style="fill:none;stroke:#000000;stroke-width:3;stroke-miterlimit:10;" d="M626.396,210.503
		c-0.705,1.135-1.281,4.378-1.454,5.704c-0.174,1.325,0.09,2.745,0.918,3.794c0.672,0.851,1.651,1.397,2.632,1.857
		c4.196,1.965,8.946,2.73,13.547,2.181c4.078-0.487,8.309-0.911,12.382-1.435c4.074-0.524,8.309-0.616,12.187,0.737
		c12.243,4.274,24.718,8.783,37.608,7.365c14.024-1.542,27.971-3.118,41.375-7.521"/>
</g>
<g id="&#xB808;&#xC774;&#xC5B4;_4">
	<path style="fill:none;stroke:#000000;stroke-width:3;stroke-miterlimit:10;" d="M1067.143-5.152
		c-37.432,29.595-96.097,21.521-130.423,55.174c-13.169,12.91-27.605,24.483-43.574,33.707
		c-21.379,12.349-43.373,23.228-65.621,33.88c-20.699,9.91-42.857,19.2-62.518,31.037c-11.84,7.128-25.965,14.092-38.54,19.824
		c-14.334,6.533-28.495,11.987-43.469,16.879c-15.811,5.165-34.525,4.265-46.835,15.45c-3.949,3.588-7.173,8.377-11.79,10.774
		c-1.416,0.735-2.666,1.729-3.769,2.882c-4.683,4.897-12.918,5.607-18.864,9.449c-4.36,2.818-7.988,6.604-11.763,10.166
		c-9.875,9.318-20.951,17.255-31.984,25.169c-7.229,5.186-15.058,11.319-16.372,20.118c-0.464,3.106,0.071,6.548,2.246,8.812
		c1.904,1.982,5.255,2.621,7.52,1.232c0.706-0.433,1.474-0.749,2.3-0.797c8.409-0.488,17.863-1.767,24.714-6.44
		c0.67-0.457,1.512,0.293,1.112,0.999c-5.913,10.427-18.736,14.446-22.729,27.333c-0.777,2.506-0.616,5.27,0.666,7.559
		c3.368,6.014,11.424,4.531,16.919,1.415c7.444-4.22,13.488-10.476,19.42-16.643c4.679-4.865,9.96-9.129,14.909-13.724
		c1.218-1.13,3.139,0.107,2.609,1.682c-2.262,6.718-5.643,12.54-9.093,19.209c-6.143,11.872-15.39,21.846-24.987,31.132
		c-0.618,0.597-1.115,1.329-1.323,2.163c-0.949,3.792,3.878,5.241,7.417,5.349c8.501,0.261,17.762,0.288,24.494-4.909
		c5.951-4.595,11.809-9.542,15.737-15.952s7.058-13.347,11.726-19.24c7.899-9.971,20.141-16.373,32.836-17.172
		c-5.482,7.142-7.993,15.296-11.859,23.427c-2.958,6.221-6.876,11.983-11.573,17.022c-2.217,2.378-4.811,5.157-3.837,8.462
		c0.599,2.034,2.408,3.444,4.473,3.929c3.59,0.842,6.968-0.683,10.14-2.213c5.838-2.815,11.633-6.697,15.746-11.705
		c4.114-5.008,7.252-10.756,11.337-15.787c5.64-6.946,13.068-12.428,21.368-15.769c24.29-9.779,38.579-35.853,57.362-54.097
		c11.515-11.185,23.814-22.816,39.411-26.613c9.967-2.426,18.055-5.83,28.192-7.403c33.437-5.189,66.874-10.379,100.311-15.568
		c12.747-1.978,24.838-6.662,36.065-13.014c7.243-4.098,16.086-4.225,23.545-7.868c5.069-2.475,9.957-5.394,15.315-7.158
		c4.663-1.535,9.609-2.17,14.156-4.019c8.372-3.406,15.093-10.795,24.017-12.225c11.145-11.826,26.704-18.726,39.403-28.863
		c10.885-8.689,19.747-20.151,32.148-26.488c11.054-5.648,19.707-15.409,31.442-19.455c13.613-4.693,28.122-5.925,42.385-7.898
		c14.432-1.997,25.104-15.018,36.564-24.014c9.543-7.492,18.709-15.474,28.77-22.253c4.351-2.932,8.82-5.733,12.744-9.217
		c6.452-5.728,11.288-13.257,13.813-21.507"/>
</g>
<g id="&#xB808;&#xC774;&#xC5B4;_3">
	<path style="fill:none;stroke:#000000;stroke-width:3;stroke-miterlimit:10;" d="M330.026,386.368
		c6.265-1.795,12.89-1.688,19.405-1.872c45.852-1.3,90.075-17.676,135.81-21.205c1.839-0.142,4.117,0.48,5.081,2.052
		c0.964,1.572,1.21,3.467,1.423,5.299c0.348,2.999,0.661,6.068-0.012,9.011s-2.515,5.786-5.332,6.872
		c-9.258,3.567-18.877,6.056-28.458,8.633c-28,7.529-58.633,5.199-84.915,17.444c-6.594,3.072-12.793,7.02-19.629,9.506
		c-5.052,1.837-11.53,2.503-15.059-1.551c-1.737-1.995-2.333-4.71-2.869-7.301C333.586,404.151,331.909,395.473,330.026,386.368z"/>
</g>
<g id="&#xB808;&#xC774;&#xC5B4;_2">
	<path style="fill:#FFFFFF;stroke:#000000;stroke-width:3;stroke-miterlimit:10;" d="M-11.199,20.103
		C9.192,36.306,29.998,53.521,41.46,76.909c7.589,15.486,18.601,27.932,25.347,43.803c2.926,6.884,5.269,14.014,8.438,20.79
		c5.445,11.645,13.218,22.021,20.934,32.303c6.68,8.902,15.114,15.878,23.82,22.813c11.516,9.173,22.192,19.4,31.851,30.512
		c5.387,6.198,10.224,15.564,15.183,22.109c5.096,6.726,10.204,13.469,14.529,20.714c5.513,9.234,9.699,19.186,13.866,29.1
		c2.525,6.007,5.049,12.014,7.574,18.021c3.618,8.609,7.311,17.707,6.205,26.979c-1.14,9.554,1.085,20.139,0.748,29.754
		c-0.412,11.726-3.446,23.424-2.016,35.07c0.48,3.911,1.46,7.749,2.726,11.48c2.626,7.738,6.497,15.052,11.42,21.575
		c-0.724,15.47,2.773,29.333,10.942,42.49c2.829,4.556,6.235,9.087,6.752,14.425c0.202,2.081-0.01,4.352,1.163,6.083
		c2.36,3.484,8.226,1.663,10.449-1.911c2.222-3.574,2.348-8.045,3.872-11.968c1.524-3.923,5.769-7.584,9.615-5.876
		c4.886,2.17,10.919-1.645,15.381-4.591c2.84-1.875,5.128-4.486,7.93-6.415c2.803-1.93,6.498-3.134,9.604-1.744
		c5.9-2.713,10.896-8.316,13.277-14.358c0.68-1.726,1.227-3.612,2.604-4.854c3.909-3.526,10.161,0.845,15.299-0.301
		c5.209-1.162,5.333-8.396,8.42-12.75c3.068-4.327,9.752-5.531,14.136-2.545c7.974-6.121,12.163-17.929,9.671-27.667
		c-5.493-21.471-25.865-37.014-34.916-57.245c-2.369-5.296-3.802-10.964-6.027-16.323c-8.183-19.708-26.044-33.323-41.034-48.511
		c-5.351-5.422-10.779-12.419-9.175-19.866c1.908-8.859-9.366-17.861-15.491-24.54c-11.201-12.215-19.694-26.901-24.694-42.702
		c-1.457-4.605-3.269-12.21-5.636-16.42c-2.449-4.356-5.705-8.197-8.498-12.341c-12.395-18.387-15.729-42.702-31.8-57.981
		c-0.335-8.517-8.26-14.67-12.459-22.088c-2.07-3.657-3.329-7.703-4.791-11.643c-11.584-31.207-36.342-56.595-45.46-88.61"/>
</g>
</svg>
