<?xml version="1.0" encoding="iso-8859-1"?>
<!-- Generator: Adobe Illustrator 24.0.1, SVG Export Plug-In . SVG Version: 6.00 Build 0)  -->
<svg version="1.1" xmlns="http://www.w3.org/2000/svg" xmlns:xlink="http://www.w3.org/1999/xlink" x="0px" y="0px"
	 viewBox="0 0 1280 600" style="enable-background:new 0 0 1280 600;" xml:space="preserve">
<g id="&#xB808;&#xC774;&#xC5B4;_1" style="display:none;">
	
		<image style="display:inline;overflow:visible;" width="772" height="598" xlink:href="../../&#x1102;&#x1166;&#x110B;&#x1175;&#x1107;&#x1165; MYBOX/&#x110C;&#x1169;&#x11BC;&#x1105;&#x1169; &#x110B;&#x1175;&#x110C;&#x1166;&#x11AB; Publishing/pfjjy_PR/pfjjy_nextjs/pfjjy/public/contact_right/047.png"  transform="matrix(1 0 0 1 508 1)">
	</image>
	
		<image style="display:inline;overflow:visible;" width="724" height="600" xlink:href="../../&#x1102;&#x1166;&#x110B;&#x1175;&#x1107;&#x1165; MYBOX/&#x110C;&#x1169;&#x11BC;&#x1105;&#x1169; &#x110B;&#x1175;&#x110C;&#x1166;&#x11AB; Publishing/pfjjy_PR/pfjjy_nextjs/pfjjy/public/contact_left/047.png"  transform="matrix(1 0 0 1 16 10)">
	</image>
</g>
<g id="&#xB808;&#xC774;&#xC5B4;_4">
	<path style="fill:none;stroke:#000000;stroke-width:3;stroke-miterlimit:10;" d="M1054.766-6.348
		c-17.766,8.405-35.646,16.853-54.612,22.003c-17.516,4.757-36.792,7.136-50.316,19.242c-10.219,9.148-20.858,18.878-31.67,27.318
		c-35.475,27.692-80.72,39.342-118.892,63.18c-10.24,6.395-19.987,13.626-30.729,19.137c-16.473,8.451-35.107,12.646-53.612,12.07
		c-28.117,15.151-61.588,26.199-93.096,31.434c-1.745,1.437-1.237,2.143-1.636,4.368c-0.291,1.621-0.376,4.54,0.436,5.747
		c0.542,0.806,0.561,1.858,0.064,2.693c-4.401,7.389-9.932,12.603-17.542,15.768c-3.91,1.626-7.446,4.048-10.478,7.003
		c-8.169,7.961-17.125,15.282-26.859,21.091c-7.98,4.763-12.88,13.508-19.327,20.217c-1.576,1.639-2.544,3.823-2.472,6.095
		c0.199,6.342,7.585,7.447,12.593,6.452c4.806-0.955,3.912-1.939,6.489-1.457c1.146,0.214,1.704,1.544,1.068,2.522
		c-1.505,2.311-3.287,4.443-5.296,6.332c-4.326,4.069-8.638,8.89-12.441,13.703c-3.801,4.811-3.358,12.264,1.18,16.387
		c5.578,5.068,15.011,6.076,21.431,2.122c9.036-5.565,14.506-15.645,22.745-22.333c7.263-5.895,14.967-11.281,22.911-16.221
		c-0.498,7.499-5.823,13.059-11.12,18.693c-3.085,3.281-5.085,6.281-9.253,10.595c-4.558,4.719-7.959,9.49-11.052,14.866
		c-1.528,2.655-2.531,5.72-2.591,8.755c-0.055,2.794,1.682,5.303,4.313,6.246c3.859,1.383,7.943,1.572,11.918,0.105
		c8.959-3.307,18.31-6.038,24.795-13.049c5.803-6.273,10.61-13.373,16.923-19.132c4.934-4.501,10.891-7.925,17.415-9.352
		c-1.76,3.958-3.542,7.678-5.302,11.637c-4.028,9.057-10.123,17.6-16.67,25.109c-0.624,0.715-0.968,1.626-0.98,2.574
		c-0.02,1.516-0.063,3.012-0.086,4.525c-0.019,1.226,0.614,2.388,1.671,3.008c2.868,1.682,6.151,2.673,9.473,2.931
		c1.14,0.089,2.285-0.198,3.242-0.825c9.16-5.999,18.293-15.23,24.347-24.765c3.288-5.178,10.089-12.382,14.962-16.108
		c15.194-11.617,30.389-23.233,45.583-34.85c17.079-13.057,30.668-30.343,48.268-42.688c10.234-7.178,20.937-14.393,33.41-15.222
		c26.32-1.748,53.523-5.835,78.898-13.039c12.712-3.609,27.216-3.807,40.279-5.796c3.234-0.492,6.483-0.988,9.602-1.974
		c3.71-1.172,7.164-3.015,10.677-4.688c11.518-5.485,23.773-9.192,36.068-12.65c3.301-0.928,6.278-2.694,8.829-4.985
		c11.535-10.359,28.962-13.329,43.394-19.675c9.279-4.08,17.74-10.008,24.743-17.336c9.267-9.696,20.791-17.046,32.239-24.033
		c2.684-1.638,5.427-3.22,7.798-5.285c5.069-4.414,8.085-10.702,12.51-15.763c4.911-5.616,11.602-9.653,18.86-11.38
		c4.439-1.056,8.954-1.882,13.495-2.572c8.291-1.26,16.115-4.443,23.254-8.844c7.401-4.562,17.271-6.96,25.103-8.96
		c7.974-2.036,15.593-5.264,23.035-8.777c13.544-6.393,26.622-13.774,39.095-22.063c12.956-8.61,21.459-22.458,32.181-33.73"/>
</g>
<g id="&#xB808;&#xC774;&#xC5B4;_9">
	<path style="fill:none;stroke:#000000;stroke-width:3;stroke-miterlimit:10;" d="M557.646,277.344
		c2.822-0.921,17.644-7.841,20.466-8.762"/>
</g>
<g id="&#xB808;&#xC774;&#xC5B4;_5">
	<path style="fill:none;stroke:#000000;stroke-width:3;stroke-miterlimit:10;" d="M620.624,197.37
		c4.845,7.956,16.519,10.149,25.319,13.203c3.868,1.343,7.913,2.09,11.94,2.834c9.357,1.727,18.715,3.454,28.072,5.181
		c18.121,3.344,36.637,6.699,54.87,4.029"/>
</g>
<g id="&#xB808;&#xC774;&#xC5B4;_6">
	<path style="fill:none;stroke:#000000;stroke-width:3;stroke-miterlimit:10;" d="M564.66,277.384
		c8.447-9.808,22.689-11.417,34.953-15.559c9.381-3.169,18.14-8.169,25.638-14.636"/>
</g>
<g id="&#xB808;&#xC774;&#xC5B4;_7">
	<path style="fill:none;stroke:#000000;stroke-width:3;stroke-miterlimit:10;" d="M609.237,282.055
		c8.263-6.555,21.422-10.655,28.321-16.829"/>
</g>
<g id="&#xB808;&#xC774;&#xC5B4;_8">
	<path style="fill:none;stroke:#000000;stroke-width:3;stroke-miterlimit:10;" d="M655.469,296.181
		c5.712-5.152,10.587-11.006,17.962-13.19"/>
</g>
<g id="&#xB808;&#xC774;&#xC5B4;_3">
	<path style="fill:#FFFFFF;stroke:#000000;stroke-width:3;stroke-miterlimit:10;" d="M298.983,385.831
		c44.832,5.187,89.896-4.604,133.965-14.337c7.167-1.583,14.334-3.166,21.501-4.749c10.468,5.587,15.859,22.196,11.332,33.164
		c-49.856,12.546-100.035,22.801-150.9,30.272c-3.746,0.55-7.958,0.974-10.955-1.34c-3.226-2.49-3.705-7.09-3.92-11.159
		C299.519,408.442,299.471,395.072,298.983,385.831z"/>
</g>
<g id="&#xB808;&#xC774;&#xC5B4;_2">
	<path style="fill:#FFFFFF;stroke:#000000;stroke-width:3;stroke-miterlimit:10;" d="M-35.471,2.102
		c3.877,18.393,17.919,32.585,29.46,47.422c8.692,11.173,16.21,23.203,23.71,35.208c11.282,18.057,22.564,36.114,33.846,54.171
		c8.087,12.943,14.565,26.515,26.763,35.687c22.548,16.955,36.751,42.331,49.015,67.737c5.237,10.848,15.405,18.562,21.904,28.704
		c4.508,7.035,9.015,14.07,13.523,21.104c5.41,8.443,10.921,17.127,12.999,26.937c4.208,19.866,8.808,40.68,7.45,60.941
		c-1.072,15.996-3.421,30.926-2.272,46.916c0.544,7.568,1.57,15.33,5.289,21.944c6.152,10.938,8.195,24.424,11.869,36.424
		c3.169,10.35,6.338,20.7,9.507,31.05c0.148,0.484,0.305,0.983,0.636,1.366c0.396,0.458,0.993,0.69,1.579,0.843
		c4.367,1.139,9.139-1.437,11.438-5.321c2.298-3.884,2.444-8.742,1.395-13.131c-1.447-6.055,0.567-14.118,6.238-16.684
		c5.442-2.463,11.399,1.826,15.829,5.833c5.387,0.909,12.715,0.53,15.246-4.311c0.634-1.212,0.883-2.616,1.654-3.745
		s2.41-1.888,3.508-1.073c7.512,0.704,15.177-4.986,17.761-12.074c1.647-4.519,1.515-9.921,4.787-13.447
		c6.204-0.416,13.54,4.072,19.606,2.708c6.701-1.507,9.983-8.918,12.265-15.397c4.13,0.533,8.989-1.564,11.458-4.917
		c-0.457-11.205,3.976-22.592,1.184-33.453c-2.036-7.92-7.913-14.758-15.437-17.962c-1.808-9.687-7.024-19.853-12.278-28.19
		c-4.621-7.333-9.243-14.666-13.864-21.999c-2.015-3.197-4.044-6.413-6.598-9.198c-5.819-6.346-13.92-10.015-20.91-15.042
		c-6.991-5.027-13.348-12.594-12.698-21.179c0.703-9.283-4.639-17.467-10.661-24.566c-2.72-3.207-5.93-6-8.381-9.416
		c-4.211-5.868-5.887-13.117-8.524-19.841c-7.588-19.343-23.365-34.718-30.32-54.298c-3.762-10.59-10.246-18.014-15.924-27.713
		c-4.492-7.672-6.84-16.376-9.14-24.963c-2.346-8.758-4.692-17.517-7.039-26.276c-3.886-14.506-13.918-29.002-21.858-41.748
		c-5.875-9.433-11.751-18.866-17.626-28.298c-13.666-21.941-27.397-43.97-44.102-63.696"/>
</g>
</svg>
