<?xml version="1.0" encoding="iso-8859-1"?>
<!-- Generator: Adobe Illustrator 24.0.1, SVG Export Plug-In . SVG Version: 6.00 Build 0)  -->
<svg version="1.1" xmlns="http://www.w3.org/2000/svg" xmlns:xlink="http://www.w3.org/1999/xlink" x="0px" y="0px"
	 viewBox="0 0 1280 600" style="enable-background:new 0 0 1280 600;" xml:space="preserve">
<g id="&#xB808;&#xC774;&#xC5B4;_1" style="display:none;">
	
		<image style="display:inline;overflow:visible;" width="772" height="598" xlink:href="../../&#x1102;&#x1166;&#x110B;&#x1175;&#x1107;&#x1165; MYBOX/&#x110C;&#x1169;&#x11BC;&#x1105;&#x1169; &#x110B;&#x1175;&#x110C;&#x1166;&#x11AB; Publishing/pfjjy_PR/pfjjy_nextjs/pfjjy/public/contact_right/048.png"  transform="matrix(1 0 0 1 508 1)">
	</image>
	
		<image style="display:inline;overflow:visible;" width="724" height="600" xlink:href="../../&#x1102;&#x1166;&#x110B;&#x1175;&#x1107;&#x1165; MYBOX/&#x110C;&#x1169;&#x11BC;&#x1105;&#x1169; &#x110B;&#x1175;&#x110C;&#x1166;&#x11AB; Publishing/pfjjy_PR/pfjjy_nextjs/pfjjy/public/contact_left/048.png" >
	</image>
</g>
<g id="&#xB808;&#xC774;&#xC5B4;_4">
</g>
<g id="&#xB808;&#xC774;&#xC5B4;_5">
	<path style="fill:none;stroke:#000000;stroke-width:3;stroke-miterlimit:10;" d="M1049.147-7.69
		c-12.407,8.99-28.13,11.606-42.83,15.925c-15.69,4.61-30.734,11.412-44.56,20.145c-8.712,5.503-17.912,10.311-25.948,16.761
		c-11.875,9.532-22.735,21.78-36.319,27.707c-6.376,2.782-12.632,5.859-18.444,9.682c-11.743,7.725-25.415,12.621-38.522,17.984
		c-21.143,8.652-42.286,17.303-63.429,25.955c-7.93,3.245-14.304,10.297-22.211,13.598c-4.947,2.066-10.1,3.623-14.993,5.813
		c-13.587,6.08-25.212,17.01-39.867,19.621c-23.664,4.216-48.278,15.051-72.274,13.658c-0.837-0.049-1.742-0.087-2.439,0.379
		c-0.825,0.552-1.097,1.64-1.134,2.632c-0.131,3.463,1.975,6.907,5.116,8.37c0.482,0.225-0.429,0.144-0.103,0.565
		c0.546,0.706,1.025,1.491,1.197,2.366c0.29,1.476-0.349,3.013-1.334,4.15c-0.985,1.137-2.285,1.947-3.564,2.74
		c-4.521,2.8-9.13,5.575-13.726,8.25c-2.359,1.373-4.725,2.75-6.908,4.388c-3.633,2.726-6.867,6.231-11.015,7.951
		c-0.837,0.347-1.583,0.869-2.228,1.505c-1.302,1.283-2.948,2.595-4.309,3.665c-2.054,1.616-4.216,3.093-6.474,4.408
		c-8.536,4.973-16.67,10.635-24.298,16.913c-3.666,3.017-5.852,7.689-9.29,10.962c-1.501,1.429-3.094,2.814-4.162,4.59
		c-1.068,1.776-1.536,4.066-0.625,5.928c0.816,1.67,2.907,2.734,4.762,2.854c1.855,0.12,3.694-0.333,5.498-0.782
		c2.606-0.649,5.142-2.456,7.337-4.003c3.469-2.445,6.785-5.877,11.029-5.857c2.04,0.01,3.979-1.192,5.964-1.661
		c-2.386,3.229-4.98,6.287-7.912,9.005c-2.722,2.523-6.538,7.207-8.575,10.309l-9.379,14.28c-2.293,3.492-2.441,7.798-1.078,11.748
		c0.44,1.275,0.353,3.169,1.323,4.45c1.189,1.569,3.462,1.686,5.431,1.663c5.331-0.063,10.888-2.631,15.799-4.757
		c1.157-0.501,2.194-1.236,3.051-2.161c5-5.393,10-10.785,15.001-16.178c3.256-3.512,7.281-6.133,11.55-8.304
		c2.838-1.444,4.478-4.541,7.233-6.08c1.177-0.658,2.506-0.981,3.817-1.297c1.52-0.366,3.04-0.733,4.56-1.099
		c-1.067,1.098-2.138,2.195-3.211,3.29c-3.92,4.004-6.357,9.231-6.91,14.807c-0.067,0.676-0.132,1.341-0.193,1.988
		c-0.124,1.318-0.256,2.667-0.817,3.866c-0.811,1.733-2.412,2.941-3.951,4.077c-6.122,4.516-9.264,11.62-14.903,16.748
		c-3.003,2.731-5.915,5.561-8.515,8.677c-1.044,1.252-2.25,2.501-2.832,4.057c-0.462,1.236-0.469,2.717,0.302,3.787
		c0.84,1.164,2.359,1.582,3.77,1.843c2.841,0.526,5.742,0.732,8.629,0.613c3.081-0.127,7.049-0.756,9.855-2.035
		c3.401-1.55,6.173-4.278,9.307-6.125c0.705-0.575,1.392-1.135,2.097-1.71c0.326-0.407,1.542-1.093,2.014-1.437
		c5.311-3.875,6.818-7.796,10.334-12.176c4.684-5.836,10.665-10.626,17.383-13.923c2.79-1.369,5.252-3.308,7.689-5.237
		c1.716-1.359,3.35-2.837,5.216-3.981c2.553-1.566,5.622-2.592,7.957-4.349c1.007-0.757,2.438,0.136,2.184,1.37
		c-0.003,0.014-0.006,0.028-0.009,0.042c-0.957,4.596-4.773,8.123-6.691,12.408c-1.18,2.636-1.988,5.778-2.733,8.569
		c-0.832,3.118-1.803,5.787-3.733,8.373c-1.781,2.387-4.348,4.185-6.157,6.551c-1.808,2.366-3.185,5.147-3.443,8.114
		c-0.082,0.939-0.048,1.901,0.242,2.798c0.741,2.29,3.198,3.816,5.603,3.719c2.405-0.097,4.629-1.662,5.782-3.776
		c4.469-8.195,14.237-12.103,21.228-18.287c3.903-3.453,7.809-6.907,11.892-10.145c7.807-6.191,16.541-9.916,23.967-16.558
		c5.154-4.61,9.685-9.952,15.158-14.148c5.173-3.966,10.322-7.97,15.231-12.258c7.726-6.75,17.666-10.93,24.477-18.544
		c3.917-4.379,8.244-8.39,12.963-11.891c6.016-4.463,10.926-10.247,16.951-14.677c4.946-3.637,14.036-6.149,20.154-5.644
		c13.598,1.122,27.083-5.177,40.691-7.019c9.534-1.291,19.219-1.909,28.419-4.725c6.093-1.865,12.043-4.312,18.326-5.37
		c3.499-0.589,7.064-0.741,10.547-1.415c4.058-0.785,7.951-2.269,11.866-3.553c4.825-1.584,9.644-3.188,14.431-4.885
		c23.687-8.395,48.628-13.153,71.004-24.59c25.022-12.79,51.548-24.286,74.824-39.976c1.989-1.341,3.848-2.864,5.543-4.562
		c7.217-7.229,13.732-14.663,20.787-22.063c2.607-2.734,5.235-5.487,8.318-7.67c2.568-1.819,5.41-3.213,8.282-4.499
		c4.415-1.977,8.921-3.737,13.525-5.22c10.849-3.495,22.437-6.426,32.627-11.6c3.202-1.626,6.339-3.375,9.516-5.048
		c15.081-7.94,31.069-14.155,47.554-18.485c12.785-3.359,21.834-14.852,30.78-24.583c6.007-6.535,12.014-13.069,18.021-19.604"/>
</g>
<g id="&#xB808;&#xC774;&#xC5B4;_6">
	<path style="fill:none;stroke:#000000;stroke-width:3;stroke-miterlimit:10;" d="M630.688,190.328
		c3.519,4.639,8.211,10.427,13.384,13.101c3.774,1.951,8.059,2.624,12.259,3.27c7.388,1.136,14.776,2.272,22.164,3.408
		c11.036,1.697,22.085,3.396,33.219,4.236c11.402,0.861,22.871,0.819,34.266-0.126"/>
</g>
<g id="&#xB808;&#xC774;&#xC5B4;_7">
	<path style="fill:none;stroke:#000000;stroke-width:3;stroke-miterlimit:10;" d="M569.127,262.304
		c15.269-8.358,39.372-18.191,55.991-23.366"/>
</g>
<g id="&#xB808;&#xC774;&#xC5B4;_8">
	<path style="fill:none;stroke:#000000;stroke-width:3;stroke-miterlimit:10;" d="M609.538,274.775
		c3.132-2.882,16.727-8.515,20.287-10.847c1.226-0.803,2.313-1.798,3.383-2.799c1.942-1.817,3.85-3.671,5.721-5.56"/>
</g>
<g id="&#xB808;&#xC774;&#xC5B4;_3">
	<path style="fill:none;stroke:#000000;stroke-width:3;stroke-miterlimit:10;" d="M276.941,395.882
		c37.077,8.733,75.841,2.374,113.393-4.012c13.335-2.268,26.753-4.557,39.472-9.16c5.323-1.927,10.457,5.456,12.074,10.882
		s0.713,11.26-0.514,16.787c-48.659,10.05-97.522,20.512-146.372,29.59C281.067,431.535,273.871,411.872,276.941,395.882z"/>
</g>
<g id="&#xB808;&#xC774;&#xC5B4;_2">
	<path style="fill:#FFFFFF;stroke:#000000;stroke-width:3;stroke-miterlimit:10;" d="M58.134-14.079
		C62.442-6.73,66.75,0.618,71.057,7.966c3.585,6.115,7.932,12.511,12.512,17.921c6.05,7.146,10.749,15.432,13.777,24.293
		c10.189,8.735,18.001,19.646,23.48,31.898c8.885,19.872,17.584,39.882,22.894,60.993c4.038,16.057,14.836,29.687,23.351,43.887
		c7.689,12.823,14.077,25.427,23.215,37.262c6.433,8.331,13.803,16.513,16.312,26.735c1.204,4.905,2.779,9.606,4.229,14.445
		c2.459,8.207,4.969,16.53,9.538,23.777c4.593,7.285,11.062,13.16,17.448,18.937c14.272,12.912,20.3,33.728,32.811,48.353
		c10.498,12.273,17.08,27.657,23.072,42.655c4.546,11.379,11.73,21.671,15.824,33.219c1.122,3.165,2.153,6.473,1.866,9.819
		c-0.287,3.346-2.192,6.762-5.359,7.879c-4.924-0.558-12.135,2.356-14.671,6.614c-1.089,1.828-1.72,3.91-2.901,5.681
		c-3.89,5.835-12.349,6.468-19.121,4.646c-3.579-0.963-8.795-1.571-9.68,2.028c-1.342,5.458-1.789,10.621-6.963,12.819
		c-5.037,2.14-11.637,1.188-15.254,5.295c-1.51,1.715-2.163,4.019-3.463,5.898c-4.073,5.884-12.745,5.798-19.74,4.289
		c-3.363-0.725-6.782-1.639-10.194-1.201c-3.412,0.439-6.878,2.636-7.579,6.004c-0.743,3.571-4.302,8.62-6.008,11.845
		c-1.705,3.224-4.896,5.92-8.543,5.976c-3.647,0.056-7.274-3.354-6.567-6.932c0.346-1.752,1.236-4.234-0.455-4.807
		c0.125-6.914-1.685-14.987-4.099-21.467c-1.683-4.517-3.948-8.792-5.896-13.202c-4.809-10.888-7.679-22.629-8.434-34.508
		c-0.436-6.859-4.846-13.284-3.46-20.015c3.937-19.112-0.453-40.083,2.516-59.369c1.103-7.166,1.979-15.829-3.671-20.373
		c-2.517-10.83-12.503-17.872-18.525-27.22c-11.542-17.918-11.926-42.226-26.661-57.626C69.11,215.17,42.949,163.783,11.451,119.538
		C-12.161,86.37-36.129,52.504-48.474,13.707C-47.649,18.804-46.825,23.902-46,29"/>
</g>
</svg>
