<?xml version="1.0" encoding="iso-8859-1"?>
<!-- Generator: Adobe Illustrator 24.0.1, SVG Export Plug-In . SVG Version: 6.00 Build 0)  -->
<svg version="1.1" xmlns="http://www.w3.org/2000/svg" xmlns:xlink="http://www.w3.org/1999/xlink" x="0px" y="0px"
	 viewBox="0 0 1280 600" style="enable-background:new 0 0 1280 600;" xml:space="preserve">
<g id="&#xB808;&#xC774;&#xC5B4;_1" style="display:none;">
	
		<image style="display:inline;overflow:visible;" width="772" height="598" xlink:href="../../&#x1102;&#x1166;&#x110B;&#x1175;&#x1107;&#x1165; MYBOX/&#x110C;&#x1169;&#x11BC;&#x1105;&#x1169; &#x110B;&#x1175;&#x110C;&#x1166;&#x11AB; Publishing/pfjjy_PR/pfjjy_nextjs/pfjjy/public/contact_right/049.png"  transform="matrix(1 0 0 1 508 1)">
	</image>
	
		<image style="display:inline;overflow:visible;" width="724" height="600" xlink:href="../../&#x1102;&#x1166;&#x110B;&#x1175;&#x1107;&#x1165; MYBOX/&#x110C;&#x1169;&#x11BC;&#x1105;&#x1169; &#x110B;&#x1175;&#x110C;&#x1166;&#x11AB; Publishing/pfjjy_PR/pfjjy_nextjs/pfjjy/public/contact_left/049.png" >
	</image>
</g>
<g id="&#xB808;&#xC774;&#xC5B4;_4">
	<path style="fill:none;stroke:#000000;stroke-width:3;stroke-miterlimit:10;" d="M1064.941-12.095
		c-15.575,11.989-34.117,20.094-53.495,23.383c-18.106,3.073-38.575,2.737-51.908,15.366
		C928.145,56.394,889.76,79.951,849.764,96.39c-16.175,6.649-31.983,14.155-47.264,22.66c-14.117,7.857-28.247,15.721-42.866,22.599
		c-23.856,11.223-48.964,19.782-74.707,25.468c-15.736,3.475-31.913,5.211-48.011,4.469c-2.824-0.13-5.854-0.201-8.231,1.328
		c-3.096,1.992-4.096,6.107-3.908,9.783c0.188,3.677,1.288,7.279,1.272,10.96c-0.036,8.238-6.392,16.016-14.458,17.693
		c-3.778,0.785-7.189,0.131-11.297,2.698c-2.277,1.422-4.639,2.694-7.126,3.707c-9.584,3.903-18.646,9.181-26.582,15.793
		c-7.31,6.09-13.462,13.788-17.143,22.512c-1.855,4.396,2.234,9.006,6.811,7.657c3.364-0.991,6.655-2.746,9.688-4.506
		c3.975-2.306,8.27-4.735,12.685-5.579c2.272-0.434,3.709,2.35,2.03,3.94c-8.363,7.916-16.189,16.398-23.407,25.37
		c-4.101,5.097-6.209,11.575-5.649,18.094c0.093,1.078,0.311,2.176,1.019,2.977c1.399,1.583,3.927,1.259,5.95,0.648
		c21.267-6.418,34.229-28.364,54.337-37.805c1.884-0.885,4.187-1.632,5.952-0.529c1.412,0.882,1.332,3.366,0.193,4.15
		c-1.314,0.904-2.67,1.739-3.819,2.844c-14.315,13.768-28.052,30.199-38.648,46.764c-1.906,2.981-3.839,6.273-1.477,10.256
		c1.062,1.79,2.745,3.159,4.689,3.903c4.773,1.828,9.777,0.479,14.508-0.896c5.097-1.482,10.428-3.157,14.078-7.011
		c2.726-2.879,4.216-6.672,6.098-10.161c7.067-13.104,19.753-22.06,31.996-30.531c2.135-1.477,4.361-2.995,7.076-3.01
		c1.507-0.008,3.008,0.585,3.925,1.781c1.561,2.034,0.829,4.5-0.623,6.704c-1.564,2.374-2.832,4.917-3.852,7.57
		c-1.131,2.941-2.809,5.696-4.995,7.868c-3.552,3.528-8.224,5.877-11.344,9.792c-2.931,3.679-4.232,8.611-3.496,13.257
		c0.329,2.079,1.157,4.292,4.399,4.254c1.202-0.014,2.376-0.373,3.436-0.94c18.08-9.658,34.521-22.374,48.417-37.443
		c24.903-27.006,57.327-45.6,83.034-71.841c4.336-4.426,8.781-9.043,14.521-11.377c3.914-1.591,8.282-2.052,12.303-3.263
		c16.437-4.95,33.142-9.013,50.19-11.024c21.785-2.569,43.419-6.422,64.751-11.532c26.197-6.276,53.97-9.136,77.993-21.325
		c28.71-14.568,59.405-25.331,86.039-43.418c12.784-8.681,22.06-21.633,33.696-31.801c14.761-12.899,33.052-21.718,52.337-25.234
		c16.105-2.937,30.682-7.934,45.886-14.001c15.126-6.036,27.973-16.536,40.556-26.877c10.718-8.808,21.435-17.616,32.153-26.424"/>
</g>
<g id="&#xB808;&#xC774;&#xC5B4;_5">
	<path style="fill:none;stroke:#000000;stroke-width:3;stroke-miterlimit:10;" d="M624.836,178.168
		c4.909,4.994,10.102,9.71,15.546,14.116c3.596,2.911,7.343,5.712,11.573,7.584c9.977,4.417,21.389,3.228,32.286,3.78
		c21.567,1.093,42.522,9.306,64.102,8.5"/>
</g>
<g id="&#xB808;&#xC774;&#xC5B4;_3">
	<path style="fill:none;stroke:#000000;stroke-width:3;stroke-miterlimit:10;" d="M251.939,411.632
		c50.468-8.381,101.184-15.272,152.058-20.659c1.749-0.185,4.522-0.873,6.28-0.823c0.684,6.605,1.367,13.21,2.051,19.816
		c-13.137,4.028-26.796,7.242-40.495,8.304c-12.844,0.995-25.955,0.691-38.318,4.315c-9.059,2.655-17.381,7.331-26.189,10.728
		c-16.886,6.513-35.182,8.204-53.207,9.833C251.751,433.002,251.546,422.041,251.939,411.632z"/>
</g>
<g id="&#xB808;&#xC774;&#xC5B4;_2">
	<path style="fill:#FFFFFF;stroke:#000000;stroke-width:3;stroke-miterlimit:10;" d="M-85.358,26.367
		c15.993,34.662,32.598,70.198,60.16,96.61c17.287,16.565,38.679,29.327,51.955,49.252c15.578,23.38,30.43,47.29,49.736,67.701
		c5.978,6.32,12.258,12.494,16.717,19.963c16.922,28.347,26.546,59.68,33.572,91.937c4.504,20.677,0.887,39.551-2.097,60.501
		c-0.745,5.231-1.645,10.457-1.798,15.739c-0.173,5.986,0.615,11.953,1.402,17.89c1.906,14.376,10.077,26.733,15.472,40.194
		c2.537,6.331,5.112,12.841,5.212,19.661c0.088,5.985-1.741,12.032-0.498,17.887c1.243,5.855,7.718,11.303,12.945,8.386
		c4.977-2.777,4.426-10.107,7.324-15.015c3.097-5.246,10.855-7.013,15.918-3.626c5.234,3.501,11.148-0.249,17.343-1.376
		c6.195-1.126,12.304-4.712,14.772-10.505c0.97-2.278,1.346-4.795,2.508-6.982c1.161-2.187,3.511-4.07,5.932-3.553
		c7.191,1.535,11.074-9.418,18.112-11.547c5.275-1.596,12.044,1.33,15.925-2.583c4.785-4.824,0.162-15.666,6.385-18.393
		c6.603-2.894,16.569-0.204,20.193-6.436c1.239-2.131,1.272-4.729,1.27-7.194c-0.003-4.541-0.005-9.081-0.008-13.622
		c-0.004-6.539-0.056-13.313-2.778-19.259c-3.182-6.951-9.555-11.812-15.685-16.38c-15.454-11.515-20.202-33.226-31.975-48.485
		c-4.83-6.261-9.817-12.421-15.377-18.044c-6.211-6.281-13.123-11.876-18.903-18.555c-5.78-6.679-10.475-14.747-11.091-23.558
		c-1.359-19.435-18.564-35.785-26.282-53.674c-3.608-8.364-5.642-17.302-8.159-26.056c-6.84-23.781-17.386-46.491-31.14-67.061
		c-11.524-17.234-21.844-39.229-29.856-58.351c-3.052-7.284-4.705-15.064-7.063-22.601C76.113,31.512,58.151,7.709,39.15-14.259"/>
</g>
</svg>
