<?xml version="1.0" encoding="iso-8859-1"?>
<!-- Generator: Adobe Illustrator 24.0.1, SVG Export Plug-In . SVG Version: 6.00 Build 0)  -->
<svg version="1.1" xmlns="http://www.w3.org/2000/svg" xmlns:xlink="http://www.w3.org/1999/xlink" x="0px" y="0px"
	 viewBox="0 0 1280 600" style="enable-background:new 0 0 1280 600;" xml:space="preserve">
<g id="&#xB808;&#xC774;&#xC5B4;_1" style="display:none;">
	
		<image style="display:inline;overflow:visible;" width="772" height="598" xlink:href="../../&#x1102;&#x1166;&#x110B;&#x1175;&#x1107;&#x1165; MYBOX/&#x110C;&#x1169;&#x11BC;&#x1105;&#x1169; &#x110B;&#x1175;&#x110C;&#x1166;&#x11AB; Publishing/pfjjy_PR/pfjjy_nextjs/pfjjy/public/contact_right/050.png"  transform="matrix(1 0 0 1 508 1)">
	</image>
	
		<image style="display:inline;overflow:visible;" width="724" height="600" xlink:href="../../&#x1102;&#x1166;&#x110B;&#x1175;&#x1107;&#x1165; MYBOX/&#x110C;&#x1169;&#x11BC;&#x1105;&#x1169; &#x110B;&#x1175;&#x110C;&#x1166;&#x11AB; Publishing/pfjjy_PR/pfjjy_nextjs/pfjjy/public/contact_left/050.png" >
	</image>
</g>
<g id="&#xB808;&#xC774;&#xC5B4;_4">
	<path style="fill:none;stroke:#000000;stroke-width:3;stroke-miterlimit:10;" d="M1095.186-22.447
		c-13.522,7.248-27.045,14.497-40.567,21.745c-5.53,2.964-11.13,5.956-17.217,7.477c-5.768,1.442-11.773,1.513-17.697,2.015
		c-32.247,2.731-63.126,19.036-83.566,44.126c-23.062,28.307-64.428,33.954-96.879,50.692
		c-33.878,17.473-68.086,35.077-104.924,44.876c-30.945,8.232-63.393,10.783-95.244,7.482c-0.98-0.102-1.987-0.011-2.888,0.389
		c-2.696,1.196-2.359,3.597-1.966,5.67c0.758,4.001,2.279,11.057,3.229,15.829c0.241,1.21-0.053,2.467-0.813,3.438
		c-11.837,15.134-24.393,26.977-41.883,35.279c-14.422,6.846-31.254,9.062-42.9,20.596c-2.413,2.39-2.499,7.921-1.591,11.193
		c2.24,8.071,13.219,3.14,18.833,8.392c1.284,1.201-2.402,3.445-3.451,4.856c-2.296,3.087-4.853,5.98-7.634,8.639
		c-2.421,2.315-5.12,4.612-6.166,7.794c-0.395,1.203-0.529,2.475-0.606,3.738c-0.152,2.521-0.071,5.113,0.837,7.47
		c0.907,2.357,2.759,4.459,5.191,5.137c2.198,0.613,4.573,0.007,6.609-1.021s3.838-2.461,5.786-3.65
		c2.445-1.493,5.106-2.592,7.684-3.842c3.5-1.697,6.856-3.677,10.206-5.653c5.073-2.993,10.168-6,14.739-9.715
		c3.488-2.835,8.136-8.261,12.63-8.213c-5.645,7.581-12.364,17.241-19.725,23.185c-0.862,0.696-1.719,1.402-2.491,2.197
		c-3.806,3.915-6.83,8.374-10.512,12.445c-2.2,2.432-4.145,5.089-5.719,7.965c-0.614,1.122-1.183,2.3-1.409,3.564
		c-0.522,2.924,0.994,6.041,3.493,7.647c0.672,0.432,1.424,0.77,2.22,0.839c0.842,0.073,1.677-0.156,2.484-0.407
		c4.601-1.429,9.048-3.309,13.214-5.727c5.025-2.917,10.155-5.665,15.113-8.702c5.205-3.188,10.215-6.693,14.995-10.488
		c3.894-3.092,8.876-5.317,12.487-8.723c2.414-2.277,4.881-4.503,7.609-6.391c2.507-1.736,4.823-3.788,7.422-5.418
		c2.147-1.346,4.479-2.397,6.909-3.113c0.983,2.37,0.05,5.079-1.098,7.374c-4.422,8.835-11.889,15.711-17.682,23.715
		c-2.256,3.118-4.263,6.416-5.995,9.853c-1.389,2.757-2.635,5.704,0.105,9.453c1.03,1.409,2.444,2.53,4.141,2.938
		c1.775,0.427,3.664,0.228,5.45-0.192c5.313-1.251,9.983-4.345,14.44-7.497c4.045-2.86,6.827-7.018,10.409-10.44
		c2.076-1.984,4.235-3.886,6.203-5.977c3.689-3.917,6.712-8.496,10.899-11.876c3.096-2.499,6.834-5.594,10.037-7.955
		c1.692-1.247,3.562-2.23,5.316-3.388c3.175-2.096,5.94-4.744,8.737-7.323c12.497-11.522,25.967-21.932,39.411-32.333
		c8.149-6.304,17.133-11.39,26.54-15.592c7.234-3.231,13.189-9.494,19.458-14.368c3.356-2.61,6.828-5.072,10.401-7.376
		c2.335-1.506,4.736-2.956,7.357-3.878c2.62-0.921,5.395-1.293,8.148-1.656c5.558-0.732,11.115-1.475,16.678-2.167
		c8.836-1.1,17.098-2.292,25.85-3.376c4.205-0.521,8.456-0.545,12.673-0.948c14.645-1.399,28.504-7.32,43.052-9.509
		c7.385-1.111,14.989-1.271,22.056-3.683c6.526-2.228,12.405-6.319,19.025-8.072c13.339-3.532,26.548-7.534,39.273-12.872
		c23.974-10.057,48.266-19.932,70.114-34.067c11.015-7.126,22.107-16.393,32.341-24.6c10.188-8.17,22.021-14.17,34.412-18.296
		c5.312-1.769,10.729-3.2,16.142-4.63c7.765-2.052,15.529-4.103,23.294-6.155c17.197-4.544,31.879-14.479,46.107-25.154
		c20.104-15.084,42.684-26.829,61.656-43.314"/>
</g>
<g id="&#xB808;&#xC774;&#xC5B4;_10">
</g>
<g id="&#xB808;&#xC774;&#xC5B4;_5">
	<path style="fill:none;stroke:#000000;stroke-width:3;stroke-miterlimit:10;" d="M636.336,171.464
		c5.346,5.69,13.463,10.693,21.101,12.307c8.164,1.726,16.692,0.767,24.902,2.26c9.499,1.727,18.074,6.629,26.458,11.416
		c3.167,1.808,6.355,3.62,9.778,4.877c11.87,4.36,25.03,1.634,37.368-1.136"/>
</g>
<g id="&#xB808;&#xC774;&#xC5B4;_6">
	<path style="fill:none;stroke:#000000;stroke-width:3;stroke-miterlimit:10;" d="M560.825,253.823
		c4.165,0.762,10.521,0.459,14.54-0.871c2.132-0.706,4.16-1.691,6.18-2.673c4.89-2.377,9.78-4.754,14.67-7.132
		c4.405-2.141,8.811-4.284,13.117-6.618c8.468-4.592,16.731-10.003,26.145-12.049"/>
</g>
<g id="&#xB808;&#xC774;&#xC5B4;_7">
	<path style="fill:none;stroke:#000000;stroke-width:3;stroke-miterlimit:10;" d="M610.12,265.182
		c4.917-4.049,14.382-11.642,19.488-15.449s11.043-6.857,17.403-7.188"/>
</g>
<g id="&#xB808;&#xC774;&#xC5B4;_8">
	<path style="fill:none;stroke:#000000;stroke-width:3;stroke-miterlimit:10;" d="M657.381,272.364
		c2.878-2.23,7.814-5.385,10.804-7.464"/>
</g>
<g id="&#xB808;&#xC774;&#xC5B4;_9">
	<path style="fill:none;stroke:#000000;stroke-width:3;stroke-miterlimit:10;" d="M567.752,259.475
		c1.159-1.02,2.175-2.2,3.012-3.497c0.44-0.682,9.945-5.475,10.752-5.568"/>
	<path style="fill:none;stroke:#000000;stroke-width:3;stroke-miterlimit:10;" d="M659.115,279.967
		c0.253-1.005,3.506-7.01,3.759-8.016c0.256-1.016,2.557-5.106,3.372-5.765"/>
</g>
<g id="&#xB808;&#xC774;&#xC5B4;_3">
	<path style="fill:none;stroke:#000000;stroke-width:3;stroke-miterlimit:10;" d="M219.007,417.004
		c53.314-4.821,106.522-10.807,159.574-17.953c0.538,2.626,1.077,5.252,1.615,7.878c1.526,7.446-0.734,15.736-5.639,21.542
		c-30.656,2.572-61.972,5.742-92.114,11.897c-22.033,4.499-43.999,10.929-66.48,10.415
		C214.904,439.225,218.545,428.6,219.007,417.004z"/>
</g>
<g id="&#xB808;&#xC774;&#xC5B4;_2">
	<path style="fill:#FFFFFF;stroke:#000000;stroke-width:3;stroke-miterlimit:10;" d="M-80.625,20.936
		c11.282,66.461,45.697,128.766,95.948,173.702c8.082,7.227,11.076,17.676,17.365,26.508c10.791,15.156,19.623,31.703,26.21,49.103
		c2.528,6.679,5.027,13.904,10.761,18.16c18.807,13.96,20.055,39.164,25.594,61.921c4.26,17.501,5.348,35.631,5.278,53.644
		c-0.03,7.814-1.647,13.611-2.933,21.319c-0.643,3.854-1.287,7.717-1.493,11.618c-0.761,14.411,4.445,28.391,9.569,41.882
		c5.405,14.232,15.208,25.135,14.381,40.336c-0.144,2.641-0.474,5.328,0.128,7.904c0.602,2.576,2.398,5.084,4.99,5.612
		c2.847,0.58,5.71-1.449,7.051-4.027c1.341-2.578,1.51-5.584,1.653-8.487c0.15-3.053,0.299-6.107,0.449-9.16
		c2.44-1.717,6.134,0.378,8.7,1.9c8.096,4.8,18.773,4.886,26.946,0.218c3.25-1.857,0.863-8.442,4.1-10.322
		c1.213-0.705,2.676-0.773,4.059-1.014c8.016-1.398,13.723-8.969,15.847-16.824c0.722-2.669,1.569-5.92,4.231-6.667
		c1.038-0.291,2.144-0.105,3.199,0.112c5.206,1.07,10.333,2.855,15.648,2.863c5.315,0.009,11.099-2.269,13.295-7.108
		c1.886-4.155,1.212-9.981,5.146-12.292c2.19-1.286,5.128-0.892,7.173-2.397c2.081-1.531,2.491-4.448,2.478-7.031
		c4.02-6.166,2.674-13.558,0.617-20.626c-10.949-37.633-31.337-72.479-58.778-100.463c-5.919-6.036-12.327-12-15.554-19.814
		c-4.997-12.098-2.398-28.271-12.758-36.272c-38.726-29.906-44.127-87.944-65.14-132.13c-5.109-10.743-10.232-21.521-13.934-32.826
		c-3.404-10.396-5.597-21.21-9.9-31.267c-5.812-13.582-15.252-25.281-22.116-38.364C38.909,24.11,33.687,4.512,18.739-6.683"/>
</g>
</svg>
