<?xml version="1.0" encoding="iso-8859-1"?>
<!-- Generator: Adobe Illustrator 24.0.1, SVG Export Plug-In . SVG Version: 6.00 Build 0)  -->
<svg version="1.1" xmlns="http://www.w3.org/2000/svg" xmlns:xlink="http://www.w3.org/1999/xlink" x="0px" y="0px"
	 viewBox="0 0 1280 600" style="enable-background:new 0 0 1280 600;" xml:space="preserve">
<g id="&#xB808;&#xC774;&#xC5B4;_1" style="display:none;">
	
		<image style="display:inline;overflow:visible;" width="772" height="598" xlink:href="../../&#x1102;&#x1166;&#x110B;&#x1175;&#x1107;&#x1165; MYBOX/&#x110C;&#x1169;&#x11BC;&#x1105;&#x1169; &#x110B;&#x1175;&#x110C;&#x1166;&#x11AB; Publishing/pfjjy_PR/pfjjy_nextjs/pfjjy/public/contact_right/051.png"  transform="matrix(1 0 0 1 508 1)">
	</image>
	
		<image style="display:inline;overflow:visible;" width="724" height="600" xlink:href="../../&#x1102;&#x1166;&#x110B;&#x1175;&#x1107;&#x1165; MYBOX/&#x110C;&#x1169;&#x11BC;&#x1105;&#x1169; &#x110B;&#x1175;&#x110C;&#x1166;&#x11AB; Publishing/pfjjy_PR/pfjjy_nextjs/pfjjy/public/contact_left/051.png" >
	</image>
</g>
<g id="&#xB808;&#xC774;&#xC5B4;_5">
	<path style="fill:none;stroke:#000000;stroke-width:3;stroke-miterlimit:10;" d="M646.349,160.957
		c17.945,11.153,47.487,10.021,65.578,20.935c3.619,2.183,6.899,4.973,10.788,6.63c4.623,1.969,9.773,2.199,14.795,2.4
		c12.981,0.521,25.963,1.043,38.944,1.564"/>
</g>
<g id="&#xB808;&#xC774;&#xC5B4;_6">
	<path style="fill:none;stroke:#000000;stroke-width:3;stroke-miterlimit:10;" d="M575.146,240.644
		c20.364-4.675,38.66-25.853,59.422-28.195"/>
</g>
<g id="&#xB808;&#xC774;&#xC5B4;_7">
	<path style="fill:none;stroke:#000000;stroke-width:3;stroke-miterlimit:10;" d="M606.303,263.834
		c5.245-4.674,9.877-7.889,15.501-12.099c4.369-3.27,8.738-6.54,13.107-9.809c4.52-3.383,9.284-6.872,14.861-7.746"/>
</g>
<g id="&#xB808;&#xC774;&#xC5B4;_4">
	<path style="fill:none;stroke:#000000;stroke-width:3;stroke-miterlimit:10;" d="M1064.72-8.162
		c-5.084,7.296-13.473,11.675-22.033,14.083s-17.495,3.109-26.251,4.661c-22.749,4.032-44.427,13.966-62.333,28.566
		c-8.456,6.895-18.576,11.744-27.433,18.115c-6.414,4.614-12.711,9.421-19.526,13.417c-6.664,3.907-13.764,7.005-20.846,10.093
		c-18.784,8.191-37.568,16.381-56.352,24.572c-38.801,16.919-81.103,31.182-123.399,32.853c-9.48,0.375-19.267,0.331-28.002,4.034
		c-2.681,1.136-5.409,2.648-8.305,2.34c-3.012-0.321-5.434-2.531-8.192-3.781c-6.828-3.093-15.915,0.909-18.243,8.035
		s2.645,15.72,9.983,17.254c-4.761,5.098-10.542,9.239-16.9,12.108c-24.937,11.251-45.892,27.61-69.142,42.028
		c-6.581,4.081-13.99,9.638-13.647,17.374c0.059,1.335,0.446,2.783,1.546,3.542c1.042,0.719,2.421,0.625,3.681,0.502
		c6.058-0.589,12.115-1.178,18.173-1.767c-5.42,5.921-10.84,11.842-16.259,17.763c-5.104,5.576-10.461,11.63-9.787,19.853
		c0.326,3.984,2.807,7.581,6.58,8.901c6.066,2.122,11.313-2.674,15.832-6.657c9.973-8.789,21.862-15.393,34.593-19.218
		c-5.59,13.035-16.615,22.787-25.516,33.83c-1.921,2.383-3.87,5.079-2.464,8.549c0.685,1.689,2.023,3.046,3.642,3.881
		c3.325,1.715,7.19,1.293,10.721,0.341c10.252-2.764,18.809-9.615,27.416-15.833c13.984-10.101,28.89-18.925,44.471-26.328
		c1.417-0.673,2.813,0.96,1.933,2.258c-7.713,11.377-15.957,22.395-24.695,33.005c-3.416,4.148,0.441,10.29,5.645,8.953
		c8.438-2.168,16.529-7.314,23.893-12.305c9.456-6.408,18.912-12.817,28.368-19.225c23.66-16.035,49.907-31.161,70.66-50.815
		c7.197-6.816,13.324-14.701,20.597-21.435c7.23-6.693,21.198-12.952,31.002-13.923c58.114-5.756,117.701-16.131,172.193-36.819
		c26.291-9.981,54.835-15.685,78.471-30.922c14.266-9.197,25.495-22.299,38.167-33.591c11.76-10.48,25.763-19.767,41.28-21.402
		c15.902-1.676,31.486-5.576,46.004-12.275c31.926-14.733,63.305-30.649,94.052-47.706"/>
</g>
<g id="&#xB808;&#xC774;&#xC5B4;_8">
	<path style="fill:none;stroke:#000000;stroke-width:3;stroke-miterlimit:10;" d="M594.582,232.193"/>
	<path style="fill:none;stroke:#000000;stroke-width:3;stroke-miterlimit:10;" d="M571.032,246.934"/>
</g>
<g id="&#xB808;&#xC774;&#xC5B4;_9">
</g>
<g id="&#xB808;&#xC774;&#xC5B4;_3">
	<path style="fill:#FFFFFF;stroke:#000000;stroke-width:3;stroke-miterlimit:10;" d="M191.017,422.062
		c16.46-0.328,32.919-0.656,49.379-0.985c6.62-0.132,13.248-0.264,19.84-0.89c12.145-1.153,24.083-3.974,36.223-5.186
		c4.66-0.466,9.359-0.696,13.945-1.647c4.991-1.035,9.764-2.907,14.66-4.328c7.366-2.138,15.029-3.252,22.698-3.301
		c1.371-0.009,2.827,0.041,3.972,0.795c1.145,0.754,1.76,2.471,0.898,3.537c0.807,4.227,1.132,8.585,1.242,12.886
		c0.068,2.651-0.018,5.394-1.133,7.8s-3.503,4.399-6.152,4.289c-19.335,4.441-39.283,8.145-59.021,10.132
		c-8.187,0.824-16.395,1.435-24.58,2.279c-20.469,2.112-40.786,5.688-60.746,10.692c-1.612,0.404-4.065-1.173-5.01-2.539
		c-0.945-1.367-1.228-3.067-1.59-4.688c-1.063-4.762-2.997-9.282-4.36-13.967C189.918,432.255,189.727,426.768,191.017,422.062z"/>
</g>
<g id="&#xB808;&#xC774;&#xC5B4;_2">
	<path style="fill:#FFFFFF;stroke:#000000;stroke-width:3;stroke-miterlimit:10;" d="M-8.453,4.701
		c5.575,10.383,11.15,20.766,16.725,31.15c8.55,15.924,17.259,32.069,29.811,45.074c3.31,20.793,20.301,37.687,28.91,56.902
		c11.934,26.633,8.213,58.994,23.456,83.882c14.423,23.549,25.457,50.283,40.935,73.153c2.913,4.303,5.999,8.782,6.611,13.943
		c0.235,1.981,0.108,4.068,0.957,5.874c0.969,2.061,3.012,3.353,4.762,4.811c11.761,9.8,11.857,29.156,23.895,38.614
		c27.31,21.457,40.576,55.786,52.902,88.256c3.266,8.605,5.209,19.92-1.987,25.659c-4.833,3.854-12.007,3.412-17.036,7.007
		c-4.065,2.906-6.464,8.262-11.274,9.616c-4.503,1.267-9.002-1.544-13.454-2.981s-10.915-0.218-11.358,4.438
		c1.983,3.369,0.427,8.291-2.289,11.103c-1.451,1.503-3.368,2.451-5.244,3.37c-9.143,4.479-18.286,8.959-27.429,13.438
		c-1.604,0.786-3.267,1.587-5.052,1.661c-2.827,0.117-5.402-1.596-8.199-2.024c-5.105-0.781-9.88,2.818-13.055,6.891
		c-3.176,4.073-5.521,8.871-9.451,12.222c-0.821,0.699-1.805,1.359-2.88,1.275c-1.878-0.147-2.8-2.321-3.231-4.155
		c-1.068-4.545-1.628-9.209-1.666-13.877c-0.127-15.505-7.868-31.645-15.807-44.964c-4.36-7.314-9.735-14.341-11.419-22.687
		c-1.385-6.865-0.032-14.243,3.699-20.17c13.02-20.681,3.846-50.842,1.884-75.202c-0.819-10.163-8.862-19.397-15.009-27.532
		c-3.929-5.2-8.614-9.936-11.404-15.826c-2.88-6.077-3.531-12.935-4.14-19.632c-2.557-28.13-23.15-52.162-41.371-73.745
		c-10.041-11.893-21.065-25.273-30.183-37.887c-8.517-11.784-15.469-24.61-22.394-37.394
		c-16.441-30.351-32.936-60.817-45.128-93.109"/>
</g>
</svg>
