<?xml version="1.0" encoding="iso-8859-1"?>
<!-- Generator: Adobe Illustrator 24.0.1, SVG Export Plug-In . SVG Version: 6.00 Build 0)  -->
<svg version="1.1" xmlns="http://www.w3.org/2000/svg" xmlns:xlink="http://www.w3.org/1999/xlink" x="0px" y="0px"
	 viewBox="0 0 1280 600" style="enable-background:new 0 0 1280 600;" xml:space="preserve">
<g id="&#xB808;&#xC774;&#xC5B4;_1" style="display:none;">
	
		<image style="display:inline;overflow:visible;" width="772" height="598" xlink:href="../../&#x1102;&#x1166;&#x110B;&#x1175;&#x1107;&#x1165; MYBOX/&#x110C;&#x1169;&#x11BC;&#x1105;&#x1169; &#x110B;&#x1175;&#x110C;&#x1166;&#x11AB; Publishing/pfjjy_PR/pfjjy_nextjs/pfjjy/public/contact_right/052.png"  transform="matrix(1 0 0 1 508 1)">
	</image>
	
		<image style="display:inline;overflow:visible;" width="724" height="600" xlink:href="../../&#x1102;&#x1166;&#x110B;&#x1175;&#x1107;&#x1165; MYBOX/&#x110C;&#x1169;&#x11BC;&#x1105;&#x1169; &#x110B;&#x1175;&#x110C;&#x1166;&#x11AB; Publishing/pfjjy_PR/pfjjy_nextjs/pfjjy/public/contact_left/052.png" >
	</image>
</g>
<g id="&#xB808;&#xC774;&#xC5B4;_4">
	<path style="fill:none;stroke:#000000;stroke-width:3;stroke-miterlimit:10;" d="M1111.198-13.114
		c-30.377,6.507-60.448,14.448-90.077,23.788c-7.272,2.292-14.556,4.685-21.315,8.214c-15.935,8.32-28.486,22.701-45.389,28.822
		c-38.685,14.008-71.157,42.994-109.134,58.822c-23.909,9.965-48.329,18.666-72.95,26.713c-23.973,7.835-49.988,4.146-75.206,4.574
		c-4.634,0.079-9.344,0.148-13.808-1.096c-2.807-0.782-5.448-2.066-8.222-2.955c-2.89-0.926-5.918-1.417-8.953-1.452
		c-1.654-0.019-3.388,0.121-4.787,1.003c-2.664,1.679-3.164,5.39-2.67,8.5c0.388,2.444,1.833,4.856,2.288,7.299
		c0.249,1.335,0.54,2.659,0.881,3.973c0.976,3.758-1.023,7.113-4.606,9.643c-4.198,2.964-9.342,4.507-13.198,7.904
		c-17.398,15.325-39.833,27.477-60.884,37.195c-6.314,2.915-13.203,6.084-16.332,12.294c-1.335,2.65-1.792,6.008-0.175,8.496
		c1.501,2.31,9.504,4.821,12.048,3.255c0.511-0.315,1.012-0.655,1.565-0.89c10.617-4.497,19.643-9.343,30.833-12.486
		c5.488-1.542,11.39-4.038,17.102-5.189c1.552-0.313,2.794,1.357,2.017,2.736c-1.071,1.901-3.638,3.425-5.858,4.304
		c-14.925,5.91-29.147,13.595-42.27,22.842c-5.845,4.119-11.589,8.663-14.536,15.501c-1.271,2.951-1.762,6.206-1.289,9.384
		c0.249,1.671,0.777,3.424,1.972,4.653c2.736,2.815,7.71,2.445,11.114,0.489c22.14-12.722,41.42-28.983,65.076-37.881
		c5.076-1.909,10.385-3.66,15.798-3.332c0.792,2.045-0.487,4.401-2.286,5.654c-1.799,1.253-4.013,1.712-6.108,2.358
		c-8.831,2.721-16.042,9.007-22.965,15.127c-9.339,8.255-18.677,16.51-28.016,24.764c-4.51,3.986-9.11,8.081-11.631,13.644
		c-0.784,1.73-0.781,3.774,0.294,5.34c1.497,2.18,3.872,1.848,5.973,1.434c10.655-2.096,21.094-5.288,31.099-9.51
		c5.698-2.404,10.512-6.436,14.178-11.416c5.754-7.818,13.807-13.293,21.755-18.677c6.034-4.088,12.159-8.22,18.853-11.021
		c3.498-1.463,7.063,1.976,5.705,5.516c-0.431,1.125-1.092,2.175-1.918,3.001c-2.715,2.712-6.547,3.928-9.788,5.985
		c-7.601,4.824-11.335,13.758-14.626,22.138c-1.718,4.374-6.385,6.748-10.32,9.317c-1.404,0.917-2.996,2.691-3.711,4.3
		c-0.338,0.761-0.353,2.667,0.068,3.385c0.645,1.099,3.786,1.113,4.824,1.043c9.84-0.665,18.459-6.527,26.535-12.189
		c38.628-27.083,81.524-50.914,119.33-79.134c10.466-7.813,21.783-16.262,34.844-16.311c30.44-0.115,60.7-10.618,90.104-18.491
		c11.25-3.012,22.501-6.025,33.751-9.037c39.845-10.669,80.362-21.624,115.325-43.511c10.172-6.368,22.316-10.873,32.83-16.659
		c7.246-3.988,14.478-8.361,19.862-14.64c8.203-9.567,12.684-23.838,24.688-27.676c4.051-1.295,8.397-1.128,12.646-1.323
		c8.25-0.379,16.432-2.182,24.077-5.306c37.997-15.527,79.076-30.671,108.063-59.733"/>
</g>
<g id="&#xB808;&#xC774;&#xC5B4;_5">
	<path style="fill:none;stroke:#000000;stroke-width:3;stroke-miterlimit:10;" d="M661.71,151.83
		c13.123,11.461,30.287,18.198,47.702,18.724"/>
</g>
<g id="&#xB808;&#xC774;&#xC5B4;_3">
	<path style="fill:#FFFFFF;stroke:#000000;stroke-width:3;stroke-miterlimit:10;" d="M317.92,419.981
		c1.019-0.069,2.162-0.098,2.918,0.589c0.708,0.642,0.83,1.691,0.907,2.644c0.346,4.284,0.693,8.567,1.039,12.851
		c0.093,1.15,0.164,2.395-0.461,3.366c-0.683,1.061-2,1.492-3.221,1.811c-7.166,1.875-14.589,2.509-21.958,3.259
		c-25.14,2.561-50.133,6.572-74.812,12.006c-7.442,1.639-14.87,3.411-22.068,5.912c-6.223,2.163-12.285,4.873-18.716,6.305
		c-5.538,1.233-12.32,1.041-15.654-3.549c-2.022-2.784-2.198-6.456-2.299-9.895c-0.23-7.86-4.321-22.31,4.404-24.86
		c10.796-3.156,25.201-1.791,36.456-2.586c24.512-1.731,49.025-3.44,73.54-5.127C291.302,421.792,304.608,420.829,317.92,419.981z"
		/>
</g>
<g id="&#xB808;&#xC774;&#xC5B4;_2">
	<path style="fill:#FFFFFF;stroke:#000000;stroke-width:3;stroke-miterlimit:10;" d="M-13.203,54.324
		c4.159,3.095,8.05,6.549,11.615,10.312c7.219,7.62,13.052,16.443,18.347,25.506c7.931,13.576,14.75,27.82,20.004,42.639
		c10.418,29.386,14.32,60.84,27.055,89.299c15.324,34.244,29.857,68.402,48.261,101.094c7.038,12.502,14.429,25.055,24.76,35.01
		c12.62,12.159,16.78,32.319,26.235,47.073c9.786,15.27,21.292,29.869,26.722,47.173c2.222,7.081,3.355,14.775,1.288,21.903
		c-2.066,7.128-7.908,13.501-15.265,14.478c-5.203,0.691-12.599,0.097-13.54,5.261c-0.837,4.597-6.155,7.717-10.826,7.816
		s-9.703-1.14-13.789,1.128c-4.35,2.415-6.377,8.245-11.149,9.655c-2.019,0.597-4.19,0.266-6.275,0.555
		c-7.078,0.981-11.106,8.362-16.644,12.879c-5.739,4.68-13.814,6.333-20.93,4.284c-1.57-0.452-3.15-1.079-4.779-0.942
		c-3.485,0.293-5.644,3.766-7.66,6.625c-2.617,3.712-5.89,6.961-9.62,9.553c-1.867,1.297-4.688,2.323-6.167,0.597
		c-0.57-0.665-0.744-1.573-0.898-2.436c-2.899-16.305-5.799-32.61-8.698-48.915c-1.668-9.378-7.962-17.516-10.781-26.614
		c-2.839-9.16-5.309-19.182-1.928-28.155c7.703-20.443,1.81-43.587,4.675-65.244c1.224-9.249-3.742-19.172-11.897-23.705
		c-6.765-3.76-8.147-13.884-10.948-21.098c-2.994-7.709-5.11-15.756-8.492-23.304c-2.806-6.263-6.472-12.14-10.863-17.414
		c-17.327-20.812-32.809-42.957-50.842-63.161c-8.733-9.784-18.961-18.384-25.95-29.481c-5.933-9.42-9.254-20.21-12.434-30.879
		c-6.211-20.829-12.135-41.744-17.771-62.736"/>
</g>
</svg>
