<?xml version="1.0" encoding="iso-8859-1"?>
<!-- Generator: Adobe Illustrator 24.0.1, SVG Export Plug-In . SVG Version: 6.00 Build 0)  -->
<svg version="1.1" xmlns="http://www.w3.org/2000/svg" xmlns:xlink="http://www.w3.org/1999/xlink" x="0px" y="0px"
	 viewBox="0 0 1280 600" style="enable-background:new 0 0 1280 600;" xml:space="preserve">
<g id="&#xB808;&#xC774;&#xC5B4;_1" style="display:none;">
	
		<image style="display:inline;overflow:visible;" width="772" height="598" xlink:href="../../&#x1102;&#x1166;&#x110B;&#x1175;&#x1107;&#x1165; MYBOX/&#x110C;&#x1169;&#x11BC;&#x1105;&#x1169; &#x110B;&#x1175;&#x110C;&#x1166;&#x11AB; Publishing/pfjjy_PR/pfjjy_nextjs/pfjjy/public/contact_right/053.png"  transform="matrix(1 0 0 1 508 1)">
	</image>
	
		<image style="display:inline;overflow:visible;" width="724" height="600" xlink:href="../../&#x1102;&#x1166;&#x110B;&#x1175;&#x1107;&#x1165; MYBOX/&#x110C;&#x1169;&#x11BC;&#x1105;&#x1169; &#x110B;&#x1175;&#x110C;&#x1166;&#x11AB; Publishing/pfjjy_PR/pfjjy_nextjs/pfjjy/public/contact_left/053.png" >
	</image>
</g>
<g id="&#xB808;&#xC774;&#xC5B4;_4">
	<path style="fill:none;stroke:#000000;stroke-width:3;stroke-miterlimit:10;" d="M1206.517-43.004
		c-29.035,8.055-58.071,16.111-87.106,24.166c-8.214,2.279-16.685,4.687-23.297,10.066c-4.648,3.781-8.14,8.854-12.913,12.476
		c-8.06,6.115-18.651,7.359-28.572,9.339c-27.902,5.568-54.261,18.682-75.531,37.578c-7.968,7.079-17.104,11.165-26.408,16.365
		c-44.926,25.105-90.649,50.287-140.663,62.419c-7.967,1.932-16.043,3.529-24.223,4.068c-26.35,1.737-52.965-7.518-78.931-2.711
		c-1.514,0.28-3.048,0.609-4.58,0.451c-4.558-0.471-8.462-5.133-12.889-3.95c-4.664,1.247-5.308,7.726-3.844,12.326
		s4.055,8.432,2.401,12.968c-1.94,1.336-4.194,3.034-6.524,3.522c-2.226,0.466-4.425,1.07-6.447,2.111
		c-19.975,10.287-38.942,21.917-58.031,33.841c-3.585,2.24-7.154,4.51-10.59,6.971c-5.274,3.778-10.228,8.003-14.791,12.614
		c-1.819,1.838-3.725,4.118-2.601,6.869c0.449,1.098,1.348,1.965,2.412,2.489c2.652,1.307,5.531,0.724,8.238,0.019
		c14.318-3.73,27.822-10.927,42.559-12.243c0.829-0.074,1.776-0.096,2.215,0.845c0.513,1.1-0.157,2.348-1.309,2.727
		c-13.039,4.295-24.383,12.358-35.532,20.317c-7.633,5.449-15.209,10.423-20.581,18.11c-2.665,3.813-4.87,9.087-1.067,12.757
		c0.65,0.627,1.433,1.104,2.26,1.468c4.634,2.038,9.958,0.952,14.357-1.362c3.988-2.097,7.386-5.132,10.878-7.98
		c16.759-13.669,36.301-23.448,55.899-32.593c3.706-1.73,8.599-3.259,11.454-0.331c0.942,2.482-0.186,5.36-2.044,7.255
		s-4.333,3.032-6.715,4.204c-21.169,10.417-38.969,26.446-56.469,42.27c-2.497,2.258-5.093,4.659-6.007,7.945
		c-0.554,1.992-0.336,4.169,0.866,5.851c1.757,2.459,4.422,2.361,6.849,1.992c19.668-2.99,33.696-20.649,52.114-28.17
		c7.134-2.913,13.703-7.101,19.931-11.64c1.88-1.37,3.811-2.839,6.195-3.018c1.112-0.083,2.254,0.183,3.148,0.85
		c2.196,1.639,1.615,4.386,0.171,6.123c-1.083,1.302-2.577,2.178-3.985,3.119c-12.617,8.428-19.58,23.173-31.34,32.805
		c-1.116,0.914-1.896,2.228-1.91,3.67c-0.035,3.464,3.898,4.225,6.924,4.132c3.624-0.111,7.241-0.484,10.812-1.114
		c12.257-2.164,21.349-12.128,32.304-18.036c4.299-2.318,8.597-4.636,12.858-7.025c18.927-10.61,37.082-22.597,54.274-35.835
		c5.039-3.88,10.043-7.775,15.251-11.424c5.118-3.587,9.214-8.441,14.105-12.332c8.568-6.816,19.189-10.403,29.583-13.85
		c22.927-7.603,46.762-11.978,70.863-13.588c36.589-2.446,72.711-12.865,107.177-25.31c32.241-11.642,63.36-26.373,92.166-44.954
		c2.696-1.739,5.279-3.633,7.537-5.903c2.982-2.997,5.335-6.593,8.479-9.42c4.038-3.631,9.148-5.796,13.763-8.658
		c7.785-4.827,14.875-11.944,23.503-14.065c17.156-4.217,33.843-10.148,49.189-18.9c7.936-4.526,15.896-9.038,23.451-14.177
		c7.394-5.029,14.371-10.64,21.339-16.243c5.026-4.042,10.053-8.084,15.079-12.126c6.072-4.883,12.42-10.143,15.046-17.479"/>
</g>
<g id="&#xB808;&#xC774;&#xC5B4;_5">
	<path style="fill:none;stroke:#000000;stroke-width:3;stroke-miterlimit:10;" d="M689.503,145.952
		c8.997,9.548,28.249,18.314,42.359,18.389"/>
	<path style="fill:none;stroke:#000000;stroke-width:3;stroke-miterlimit:10;" d="M690.536,151.525
		c6.685,3.5,19.692,8.383,26.903,10.602"/>
</g>
<g id="&#xB808;&#xC774;&#xC5B4;_3">
	<path style="fill:#FFFFFF;stroke:#000000;stroke-width:3;stroke-miterlimit:10;" d="M107.056,444.709
		c47.128,0.143,93.889-7.436,140.524-14.24c15.512-2.263,31.838-4.361,46.464,1.279c0.631,7.552,0.684,14.936-0.806,22.367
		c-0.274,1.366-0.611,2.782-1.509,3.846c-1.374,1.627-3.68,2.028-5.789,2.324c-44.049,6.185-88.098,12.37-132.148,18.554
		c-13.39,1.88-26.873,3.765-40.381,3.145c-1.267-0.058-2.615-0.167-3.629-0.93c-1.046-0.787-1.519-2.105-1.901-3.357
		C104.623,467.005,104.649,455.625,107.056,444.709z"/>
</g>
<g id="&#xB808;&#xC774;&#xC5B4;_2">
	<path style="fill:#FFFFFF;stroke:#000000;stroke-width:3;stroke-miterlimit:10;" d="M-50.264,10.76
		c10.017,26.448,20.034,52.896,30.051,79.344c6.442,17.01,12.904,34.063,21.232,50.234c6.243,12.122,13.551,23.786,18.058,36.654
		c3.739,10.676,4.838,23.14,7.552,34.122c1.675,6.779,3.363,13.595,6.141,20.001c3.537,8.154,8.751,15.444,13.459,22.983
		c16.638,26.642,27.064,56.605,37.355,86.282c5.597,16.141,20.26,27.171,30.773,40.636c4.369,5.597,8.804,11.309,11.288,17.961
		c2.617,7.009,2.929,14.713,5.542,21.723c3.87,10.38,12.33,18.219,19.748,26.447c4.471,4.959,8.725,10.329,10.89,16.645
		c2.165,6.316,1.932,13.786-2.059,19.139c-6.002,8.05-18.157,8.995-24.932,16.407c-2.639,2.887-4.397,6.695-7.736,8.731
		c-6.757,4.119-17.244-0.598-22.555,5.268c-5.665,6.257-10.543,13.598-18.983,13.678c-3.482,0.033-7.293-0.76-10.207,1.145
		c-2.055,1.343-3.144,3.739-4.884,5.471c-5.682,5.659-15.096,2.454-22.876,0.504c-1.032-0.258-2.124-0.487-3.146-0.194
		c-2.241,0.642-3.059,3.305-3.784,5.521c-1.498,4.58-4.072,8.805-7.455,12.237c-1.182,1.199-2.543,2.345-4.194,2.673
		c-2.716,0.54-5.445-1.365-6.758-3.803s-1.532-5.297-1.717-8.06c-1.081-16.104-2.137-32.863-10.063-46.923
		c-4.354-7.723-10.639-14.324-14.219-22.435c-7.904-17.91-1.087-38.553,5.755-56.895c2.535-6.795,1.862-14.418,2.884-21.597
		c0.58-4.071,1.16-8.208,0.582-12.28c-1.002-7.055-5.337-13.122-9.54-18.877c-27.578-37.758-55.626-79.493-75.105-121.999
		c-9.117-19.894-19.411-39.222-29.698-58.536c-22.471-42.189-44.964-84.417-70.282-124.962"/>
</g>
</svg>
