<?xml version="1.0" encoding="iso-8859-1"?>
<!-- Generator: Adobe Illustrator 24.0.1, SVG Export Plug-In . SVG Version: 6.00 Build 0)  -->
<svg version="1.1" xmlns="http://www.w3.org/2000/svg" xmlns:xlink="http://www.w3.org/1999/xlink" x="0px" y="0px"
	 viewBox="0 0 1280 600" style="enable-background:new 0 0 1280 600;" xml:space="preserve">
<g id="&#xB808;&#xC774;&#xC5B4;_1" style="display:none;">
	
		<image style="display:inline;overflow:visible;" width="772" height="598" xlink:href="../../&#x1102;&#x1166;&#x110B;&#x1175;&#x1107;&#x1165; MYBOX/&#x110C;&#x1169;&#x11BC;&#x1105;&#x1169; &#x110B;&#x1175;&#x110C;&#x1166;&#x11AB; Publishing/pfjjy_PR/pfjjy_nextjs/pfjjy/public/contact_right/054.png"  transform="matrix(1 0 0 1 508 1)">
	</image>
	
		<image style="display:inline;overflow:visible;" width="724" height="600" xlink:href="../../&#x1102;&#x1166;&#x110B;&#x1175;&#x1107;&#x1165; MYBOX/&#x110C;&#x1169;&#x11BC;&#x1105;&#x1169; &#x110B;&#x1175;&#x110C;&#x1166;&#x11AB; Publishing/pfjjy_PR/pfjjy_nextjs/pfjjy/public/contact_left/054.png" >
	</image>
</g>
<g id="&#xB808;&#xC774;&#xC5B4;_5">
	<path style="fill:none;stroke:#000000;stroke-width:3;stroke-miterlimit:10;" d="M729.639,150.332
		c12.307,7.358,22.474,8.278,36.146,12.601"/>
</g>
<g id="&#xB808;&#xC774;&#xC5B4;_6">
	<path style="fill:none;stroke:#000000;stroke-width:3;stroke-miterlimit:10;" d="M732.682,155.292
		c3.824,0.45,13.648,2.899,17.472,3.349"/>
</g>
<g id="&#xB808;&#xC774;&#xC5B4;_4">
	<path style="fill:none;stroke:#000000;stroke-width:3;stroke-miterlimit:10;" d="M1187.32-28.577
		c-10.72,5.894-23.323,7.181-34.779,11.471c-21.188,7.936-37.231,25.589-57.26,36.113c-31.833,16.726-72.534,14.913-100.221,37.859
		c-11.388,9.439-23.854,17.642-37.214,23.99s-27.409,11.23-40.465,18.182c-5.833,3.106-11.449,6.615-17.374,9.542
		c-12.114,5.983-25.312,9.429-38.524,12.259c-12.45,2.666-21.269,15.054-34,15.293c-6.279,0.118-12.019-3.217-17.94-5.31
		c-12.216-4.32-25.551-3.392-38.508-3.542c-12.956-0.15-26.767-1.774-36.766-10.016c-0.914-0.753-1.868-1.593-3.045-1.722
		c-1.685-0.185-3.138,1.138-4.197,2.462c-2.018,2.525-3.502,5.444-4.424,8.536c-2.342,7.851,0.005,16.262,5.551,22.293
		c1.888,2.053,3.569,2.373,4.996,4.557c-0.924,1.833-0.478,1.88-2.521,1.679c-8.82-0.867-21.178,2.909-29.337,5.305
		c-5.198,1.526-10.198,3.66-14.898,6.353c-11.229,6.432-22.459,11.947-33.688,18.42c-6.653,3.835-13.108,7.613-19.437,11.963
		c-2.863,1.968-5.856,4.08-6.954,7.518c-0.597,1.869-0.423,3.955,0.776,5.507c1.858,2.405,4.814,2.12,7.452,1.77
		c11.204-1.488,22.408-2.975,33.612-4.463c0.872-0.116,1.144,1.142,0.301,1.394c-2.537,0.759-5.086,1.484-7.546,2.457
		c-10.82,4.279-19.176,12.988-27.168,21.444c-5.415,5.73-11.064,11.901-12.571,19.64c-0.556,2.855-0.317,6.243,1.958,8.053
		c1.365,1.086,3.199,1.374,4.943,1.398c11.517,0.158,20.636-9.018,30.137-15.531c10.002-6.856,21.489-11.098,33.131-14.636
		c0.978-0.297,1.603,1.011,0.754,1.58c-7.785,5.218-14.882,11.461-21.035,18.531c-3.051,3.505-6.677,6.472-10.643,8.893
		c-6.889,4.204-10.198,10.26-14.768,16.997c-2.606,3.841-5.017,8.799-2.139,12.888c1.375,1.953,3.645,3.069,6.024,3.291
		c4.887,0.456,9.051-2.065,13.018-4.513l62.663-38.671c2.255-1.391,4.801,1.368,3.207,3.483c-0.15,0.199-0.305,0.387-0.463,0.561
		c-10.002,11.044-20.004,22.087-30.006,33.131c-2.093,2.31-4.328,4.936-3.153,8.427c0.741,2.202,2.66,3.784,4.894,4.422
		c4.673,1.335,9.119-0.817,13.229-2.883c11.029-5.546,21.854-11.479,32.511-17.71c37.21-21.756,79.593-36.195,109.378-67.343
		c2.744-2.87,5.534-5.896,9.197-7.429c3.121-1.307,6.596-1.406,9.978-1.487c10.624-0.255,21.248-0.51,31.873-0.764
		c28.637-0.687,56.38-8.24,84.289-14.716c46.656-10.826,91.459-28.464,132.783-52.678c4.796-2.81,9.681-5.71,13.747-9.482
		c3.651-3.388,10.291-8.048,14.635-10.483c6.443-3.612,12.916-7.342,18.16-12.533c4.38-4.335,7.773-9.567,11.994-14.056
		c4.221-4.49,9.644-8.354,15.796-8.716c14.036-9.864,33.116-14.528,48.125-22.837c18.412-10.193,32.369-26.681,45.894-42.805"/>
</g>
<g id="&#xB808;&#xC774;&#xC5B4;_3">
	<path style="fill:#FFFFFF;stroke:#000000;stroke-width:3;stroke-miterlimit:10;" d="M158.088,446.512
		c14.011-1.887,28.156-2.53,42.279-3.171c14.413-0.654,28.826-1.309,43.239-1.963c4.434-0.201,11.354-1.243,14.694,1.681
		c5.209,4.56,3.923,16.788-1.638,20.913c-5.561,4.124-15.93,2.597-22.843,2.968c-18.204,0.978-36.468,2.339-54.26,6.312
		c-30.251,6.755-59.6,21.076-90.531,19.076c-1.047-0.068-1.265-24.532-1.229-26.806c0.198-12.585,0.48-12.166,12.571-12.153
		C119.956,453.389,138.769,449.113,158.088,446.512z"/>
</g>
<g id="&#xB808;&#xC774;&#xC5B4;_2">
	<path style="fill:#FFFFFF;stroke:#000000;stroke-width:3;stroke-miterlimit:10;" d="M-74.517,14.199
		c12.493,16.977,17.785,38.041,22.808,58.512c9.125,37.194,18.249,74.388,27.374,111.582c2.216,9.034,4.458,18.14,8.454,26.539
		c3.741,7.862,8.935,14.927,13.451,22.371c7.727,12.737,13.49,26.663,17.023,41.136c2.439,9.99,7.163,20.642,12.652,29.337
		c5.789,9.17,10.161,19.233,12.913,29.723c2.464,9.391,3.944,19.72,10.696,26.695c22.724,23.472,42.235,50.412,54.917,80.52
		c3.697,8.776,5.914,18.299,11.258,26.182c3.418,5.042,8.092,9.379,10.123,15.121c2.031,5.743-0.149,13.707-6.128,14.872
		c-4.101,6.362-14.437,3.894-20.728,8.102c-4.308,2.881-6.085,8.548-10.372,11.459c-6.367,4.323-17.097,1.934-20.622,8.774
		c-2.774,5.381-5.728,12.767-11.443,14.766c-5.034,1.76-10.61,0.651-15.867,1.549c-6.13,1.046-11.443,4.733-17.246,6.972
		s-13.208,2.67-17.46-1.869c-1.705,9.003-6.402,20.403-15.515,19.448c-7.502-0.787-10.902-9.584-12.753-16.897
		c-16.05-63.383-35.749-125.842-58.968-186.965c-13.183-34.704-27.495-68.967-41.858-103.199
		c-12.17-29.005-21.329-60.024-24.673-91.3c-0.809-7.566-1.418-15.336-4.607-22.245c-3.681-7.975-10.43-14.027-16.767-20.11
		c-16.563-15.9-31.442-33.552-44.31-52.566"/>
</g>
</svg>
