<?xml version="1.0" encoding="iso-8859-1"?>
<!-- Generator: Adobe Illustrator 24.0.1, SVG Export Plug-In . SVG Version: 6.00 Build 0)  -->
<svg version="1.1" xmlns="http://www.w3.org/2000/svg" xmlns:xlink="http://www.w3.org/1999/xlink" x="0px" y="0px"
	 viewBox="0 0 1280 600" style="enable-background:new 0 0 1280 600;" xml:space="preserve">
<g id="&#xB808;&#xC774;&#xC5B4;_1" style="display:none;">
	
		<image style="display:inline;overflow:visible;" width="772" height="598" xlink:href="../../&#x1102;&#x1166;&#x110B;&#x1175;&#x1107;&#x1165; MYBOX/&#x110C;&#x1169;&#x11BC;&#x1105;&#x1169; &#x110B;&#x1175;&#x110C;&#x1166;&#x11AB; Publishing/pfjjy_PR/pfjjy_nextjs/pfjjy/public/contact_right/055.png"  transform="matrix(1 0 0 1 508 0)">
	</image>
	
		<image style="display:inline;overflow:visible;" width="724" height="600" xlink:href="../../&#x1102;&#x1166;&#x110B;&#x1175;&#x1107;&#x1165; MYBOX/&#x110C;&#x1169;&#x11BC;&#x1105;&#x1169; &#x110B;&#x1175;&#x110C;&#x1166;&#x11AB; Publishing/pfjjy_PR/pfjjy_nextjs/pfjjy/public/contact_left/055.png" >
	</image>
</g>
<g id="&#xB808;&#xC774;&#xC5B4;_4">
	<path style="fill:none;stroke:#000000;stroke-width:3;stroke-miterlimit:10;" d="M1218.3-29.879
		c-42.726,10.536-75.02,45.363-115.178,63.357c-27.241,12.206-58.249,16.739-82.372,34.32
		c-13.819,10.071-25.797,20.701-40.491,29.445c-8.955,5.329-18.284,9.997-27.603,14.659c-9.43,4.717-18.865,9.437-28.545,13.618
		c-21.596,9.327-44.593,15.972-68.096,16.967s-47.585-3.903-67.608-16.251c-3.875-2.39-7.869-5.151-13.022-3.146
		c-4.456,1.734-7.278,6.074-7.654,10.84c-0.618,7.854,4.455,14.603,10.208,19.652c3.456,3.032,7.027,4.306,9.865,7.923
		c-9.142-0.41-18.6-0.771-27.118,2.574c-16.553,6.5-31.417,16.38-47.903,23.048c-3.106,1.256-6.29,2.311-9.42,3.509
		c-7.561,2.894-14.799,6.629-21.538,11.114c-1.147,0.764-2.297,1.564-3.164,2.635c-1.211,1.495-1.789,3.42-2.304,5.236
		c-0.599,2.112-0.998,4.285-1.036,6.48c-0.009,0.519,0.055,1.04,0.365,1.443c0.331,0.43,0.864,0.624,1.408,0.732
		c2.216,0.441,4.499,0.382,6.733,0.041c14.656-2.238,28.707-7.905,43.372-9.692c1.117-0.136,1.619,1.375,0.648,1.942
		c-2.762,1.613-5.753,2.771-8.778,4.072c-6.714,2.887-13.36,5.933-19.93,9.135c-4.589,2.237-9.196,4.587-13.031,7.956
		c-8.054,7.076-11.921,18.603-9.762,29.105c0.115,0.558,0.263,1.146,0.675,1.54c0.363,0.347,0.872,0.487,1.362,0.596
		c8.289,1.842,16.879-1.708,23.878-6.516c6.999-4.808,13.075-10.922,20.378-15.253c8.28-4.91,17.773-7.317,27.077-9.745
		c0.701-0.183,1.491,0.011,1.917,0.597c0.733,1.009-0.267,2.175-1.176,2.896c-4.669,3.705-9.633,7.037-14.831,9.954
		c-3.748,2.103-7.62,3.993-11.25,6.296c-3.894,2.471-7.475,5.397-11.046,8.315c-5.658,4.623-11.315,9.247-16.973,13.87
		c-3.181,2.599-6.644,5.699-5.968,10.163c0.351,2.315,1.801,4.3,3.725,5.634c3.535,2.452,7.921,2.599,12.086,2.285
		c4.067-0.307,8.188-1.044,11.76-3.012c3.313-1.825,5.988-4.615,9.146-6.697c2.616-1.726,5.528-2.943,8.303-4.399
		c9.962-5.225,18.36-13.603,28.717-17.644c1.468-0.573,2.849,1.091,1.972,2.401c-1.362,2.034-3.198,3.816-4.941,5.566
		c-6.646,6.672-12.628,14.004-17.831,21.854c-1.522,2.297-3.016,4.736-2.99,7.589c0.015,1.567,0.581,3.128,1.754,4.167
		c2.544,2.252,6.161,0.976,9.099-0.34c3.193-1.43,6.387-2.86,9.58-4.289c3.354-1.502,6.737-3.02,9.697-5.197
		c2.826-2.078,5.204-4.712,7.997-6.834c4.762-3.619,10.528-5.614,16.186-7.552c4.248-1.455,7.644-4.479,11.773-6.242
		c11.943-5.098,23.905-10.204,35.339-16.359c15.941-8.582,30.749-19.144,46.68-27.744c3.949-2.132,7.99-4.151,12.286-5.449
		c6.947-2.099,14.311-2.243,21.567-2.371c42.559-0.749,84.777-12.754,124.883-27.015c7.758-2.759,15.448-5.707,23.136-8.655
		c8.772-3.363,17.57-6.739,25.855-11.167c4.759-2.543,9.35-5.434,14.332-7.507c5.87-2.443,12.169-3.702,18.102-5.987
		c8.636-3.326,16.417-8.846,22.41-15.897c7.149-8.411,19.365-12.603,27.982-19.503c15.145-12.128,27.835-27.284,43.995-38.022
		c5.486-3.645,11.318-6.743,16.833-10.343c23.355-15.247,40.048-38.796,62.054-55.932"/>
</g>
<g id="&#xB808;&#xC774;&#xC5B4;_5">
	<path style="fill:none;stroke:#000000;stroke-width:3;stroke-miterlimit:10;" d="M784.797,158.79
		c2.137,1.538,6.274,4.076,8.411,5.614c3.718,2.676,7.583,5.418,12.069,6.347"/>
</g>
<g id="&#xB808;&#xC774;&#xC5B4;_3">
	<path style="fill:#FFFFFF;stroke:#000000;stroke-width:3;stroke-miterlimit:10;" d="M222.268,452.103
		c4.146,7.687,5.423,16.88,3.53,25.407c-0.344,1.551-0.839,3.162-2.01,4.236c-1.361,1.247-3.331,1.504-5.167,1.703
		c-29.566,3.195-59.131,6.391-88.697,9.586c-14.254,1.541-28.655,3.113-42.188,7.845c-8.302,2.903-17.258,7.012-25.487,3.909
		c-7.301-2.753-11.606-10.689-12.354-18.456c-0.456-4.742-0.453-18.169,3.292-21.728c3.491-3.318,15.395-1.583,20.104-1.819
		c16.809-0.844,33.613-1.81,50.408-2.898s33.583-2.296,50.361-3.626C179.045,455.866,220.89,449.549,222.268,452.103z"/>
</g>
<g id="&#xB808;&#xC774;&#xC5B4;_2">
	<path style="fill:#FFFFFF;stroke:#000000;stroke-width:3;stroke-miterlimit:10;" d="M-97.159,41.08
		c21.042,42.681,38.476,87.14,52.057,132.746c4.67,15.681,8.893,31.54,11.286,47.726c2.174,14.709,2.828,29.638,5.664,44.234
		c7.227,37.187,28.091,70.074,48.545,101.961c8.92,13.906,19.294,26.438,27.127,40.984c6.012,11.164,6.443,24.412,10.194,36.524
		c5.93,19.152,19.998,34.979,25.915,54.135c2.025,6.555,2.418,15.042-3.264,18.886c-4.792,3.242-11.832,1.525-16.401,5.075
		c-3.137,2.438-4.252,6.749-7.168,9.448c-9.085,8.41-26.449-4.458-35.426,4.068c-2.273,2.159-3.405,5.318-5.72,7.432
		c-0.996,0.91-1.969,1.949-3.27,2.305c-1.223,0.334-2.532,0.257-3.75,0.607c-1.117,0.321-2.111,3.987-3.231,4.296
		c-1.525,0.42-3.152,3.456-4.307,4.536c-7.092,6.636-21.548,16.632-31.254,16.995c-2.528,0.094-5.131-0.062-7.445-1.083
		c-5.162-2.278-7.59-8.102-9.539-13.397c-5.223-14.186-10.446-28.372-15.669-42.558c-10.895-29.592-21.933-59.938-22.035-91.471
		c-0.031-9.474,0.931-18.992-0.211-28.397c-2.645-21.77-16.089-40.431-27.901-58.908c-23.75-37.153-42.423-77.546-55.338-119.708
		c-5.204-16.99-9.602-34.549-19.031-49.61c-16.559-26.45-46.97-42.524-61.256-70.267"/>
</g>
</svg>
