<?xml version="1.0" encoding="iso-8859-1"?>
<!-- Generator: Adobe Illustrator 24.0.1, SVG Export Plug-In . SVG Version: 6.00 Build 0)  -->
<svg version="1.1" xmlns="http://www.w3.org/2000/svg" xmlns:xlink="http://www.w3.org/1999/xlink" x="0px" y="0px"
	 viewBox="0 0 1280 600" style="enable-background:new 0 0 1280 600;" xml:space="preserve">
<g id="&#xB808;&#xC774;&#xC5B4;_1" style="display:none;">
	
		<image style="display:inline;overflow:visible;" width="772" height="598" xlink:href="../../&#x1102;&#x1166;&#x110B;&#x1175;&#x1107;&#x1165; MYBOX/&#x110C;&#x1169;&#x11BC;&#x1105;&#x1169; &#x110B;&#x1175;&#x110C;&#x1166;&#x11AB; Publishing/pfjjy_PR/pfjjy_nextjs/pfjjy/public/contact_right/056.png"  transform="matrix(1 0 0 1 508 1)">
	</image>
	
		<image style="display:inline;overflow:visible;" width="724" height="600" xlink:href="../../&#x1102;&#x1166;&#x110B;&#x1175;&#x1107;&#x1165; MYBOX/&#x110C;&#x1169;&#x11BC;&#x1105;&#x1169; &#x110B;&#x1175;&#x110C;&#x1166;&#x11AB; Publishing/pfjjy_PR/pfjjy_nextjs/pfjjy/public/contact_left/056.png" >
	</image>
</g>
<g id="&#xB808;&#xC774;&#xC5B4;_5">
	<path style="fill:none;stroke:#000000;stroke-width:3;stroke-miterlimit:10;" d="M831.058,173.959
		c3.442,2.541,6.676,3.91,8.737,6.309c1.132,1.318,2.071,2.79,3.185,4.123c5.208,6.231,13.532,8.711,21.358,10.881"/>
</g>
<g id="&#xB808;&#xC774;&#xC5B4;_4">
	<path style="fill:none;stroke:#000000;stroke-width:3;stroke-miterlimit:10;" d="M1219.26-25.037
		c-42.342,13.103-63.879,63.329-105.362,78.94c-14.136,5.32-30.868,6.856-40.83,18.21c-32.943,37.546-82.738,54.395-127.319,76.922
		c-9.481,4.791-19.085,9.626-29.452,11.939c-27.5,6.134-55.35-6.139-83.246-10.104c-1.789-0.254-3.821-0.408-5.194,0.766
		c-0.882,0.754-1.297,1.913-1.583,3.037c-2.205,8.646,1.611,18.492,9.067,23.394c-4.453,1.964-8.906,3.929-13.36,5.893
		c-18.9,8.336-41.79,12.928-59.031,24.304c-9.45,6.236-18.45,10.236-21.089,23.665c-0.192,0.978,0.198,1.994,0.521,2.936
		c1.86,5.436,5.319,6.587,9.99,6.431l21.205-5.641c0.384-0.013,3.372-0.642,3.119-0.353C769.5,243.5,742.5,253.5,747.735,281.582
		c0.158,0.85,0.523,1.66,1.023,2.365c1.992,2.81,4.869,1.903,7.251,0.876c7.998-3.451,15.392-8.29,21.771-14.221
		c0.797-0.741,2.01,0.212,1.482,1.163l-13.759,24.783c-1.327,2.39-1.832,5.209-1.128,7.85c2.221,8.343,13.716,6.595,20.397,2.09
		c11.684-7.877,23.997-22.12,36.339-28.052c2.064-0.992,4.019,1.514,2.551,3.271c-7.766,9.295-17.41,21.527-22.729,32.41
		c-1.588,3.25-1.095,7.247,1.496,9.771c5.055,4.923,12.184-0.817,16.849-5.535c9.038-9.141,20.412-15.954,32.735-19.611
		c15.537-4.61,28.622-17.056,43.111-24.318c9.463-4.743,19.031-9.555,27.063-16.45c5.079-4.36,9.59-9.58,15.593-12.543
		c4.345-2.145,9.204-2.966,13.984-3.762c22.746-3.788,45.492-7.576,68.239-11.363c55.733-9.281,108.275-38.335,155.601-69.198
		c34.833-22.716,59.236-58.681,92.295-83.908c18.28-13.949,37.437-27.425,51.275-45.79"/>
</g>
<g id="&#xB808;&#xC774;&#xC5B4;_9">
	<path style="fill:none;stroke:#000000;stroke-width:3;stroke-miterlimit:10;" d="M771.223,239.885
		c2.867-2.253,10.902-9.29,14.072-11.09"/>
</g>
<g id="&#xB808;&#xC774;&#xC5B4;_6">
	<path style="fill:none;stroke:#000000;stroke-width:3;stroke-miterlimit:10;" d="M758.678,239.467
		c7.822-0.967,21.686-6.174,26.67-10.972"/>
</g>
<g id="&#xB808;&#xC774;&#xC5B4;_10">
	<path style="fill:none;stroke:#000000;stroke-width:3;stroke-miterlimit:10;" d="M777.23,275.66
		c4.301-4.412,6.95-8.956,12.163-12.614"/>
</g>
<g id="&#xB808;&#xC774;&#xC5B4;_7">
	<path style="fill:none;stroke:#000000;stroke-width:3;stroke-miterlimit:10;" d="M778.124,270.563
		c6.376-4.063,20.162-13.191,25.615-17.274"/>
</g>
<g id="&#xB808;&#xC774;&#xC5B4;_8">
</g>
<g id="&#xB808;&#xC774;&#xC5B4;_3">
	<path style="fill:#FFFFFF;stroke:#000000;stroke-width:3;stroke-miterlimit:10;" d="M184.682,470.538
		c0.445,9.605,0.89,19.21,1.335,28.815c-57.426,5.477-114.641,13.174-171.473,23.069c2.979-0.516-1.635-36.585,4.866-41.449
		c4.621-3.458,19.202-0.552,24.839-0.559c9.393-0.01,18.785-0.15,28.174-0.42C109.979,478.915,147.476,475.757,184.682,470.538z"/>
</g>
<g id="&#xB808;&#xC774;&#xC5B4;_2">
	<path style="fill:#FFFFFF;stroke:#000000;stroke-width:3;stroke-miterlimit:10;" d="M-94.954,15.937
		c2.45,26.971,18.926,50.252,30.156,74.895c19.13,41.979,23.255,89.003,27.114,134.973c3.246,38.667,11.763,75.815,18.096,114.098
		c2.629,15.894,5.281,31.877,10.531,47.107c6.343,18.399,16.332,35.288,26.254,52.031c7.837,13.226,8.49,29.005,16.369,42.206
		c4.998,8.373,10.848,16.539,12.996,26.05s-0.608,21.027-9.227,25.587c-5.357,2.833-11.983,2.532-17.244,5.539
		c-4.038,2.308-6.88,6.357-10.977,8.558c-7.682,4.126-17.629,0.774-25.559,4.4c-3.714,1.698-6.598,4.763-9.941,7.11
		c-7.249,5.089-16.876,6.623-25.347,4.039c-0.399,4.218-4.42,7.471-8.624,7.996c-9.86,1.232-17.21-9.787-17.786-19.708
		c-0.576-9.92,2.924-19.734,2.416-29.658c-0.839-16.395-12.268-30.232-16.747-46.026c-4.095-14.44-2.21-29.786-1.422-44.775
		c1.79-34.062-2.332-68.428-12.127-101.1c-17.218-57.43-51.293-108.283-73.196-164.094c-15.568-39.669-24.844-81.473-34.061-123.079
		"/>
</g>
</svg>
