<?xml version="1.0" encoding="iso-8859-1"?>
<!-- Generator: Adobe Illustrator 24.0.1, SVG Export Plug-In . SVG Version: 6.00 Build 0)  -->
<svg version="1.1" xmlns="http://www.w3.org/2000/svg" xmlns:xlink="http://www.w3.org/1999/xlink" x="0px" y="0px"
	 viewBox="0 0 1280 600" style="enable-background:new 0 0 1280 600;" xml:space="preserve">
<g id="&#xB808;&#xC774;&#xC5B4;_1" style="display:none;">
	
		<image style="display:inline;overflow:visible;" width="772" height="598" xlink:href="../../&#x1102;&#x1166;&#x110B;&#x1175;&#x1107;&#x1165; MYBOX/&#x110C;&#x1169;&#x11BC;&#x1105;&#x1169; &#x110B;&#x1175;&#x110C;&#x1166;&#x11AB; Publishing/pfjjy_PR/pfjjy_nextjs/pfjjy/public/contact_right/057.png"  transform="matrix(1 0 0 1 508 1)">
	</image>
	
		<image style="display:inline;overflow:visible;" width="724" height="600" xlink:href="../../&#x1102;&#x1166;&#x110B;&#x1175;&#x1107;&#x1165; MYBOX/&#x110C;&#x1169;&#x11BC;&#x1105;&#x1169; &#x110B;&#x1175;&#x110C;&#x1166;&#x11AB; Publishing/pfjjy_PR/pfjjy_nextjs/pfjjy/public/contact_left/057.png" >
	</image>
</g>
<g id="&#xB808;&#xC774;&#xC5B4;_3">
	<path style="fill:#FFFFFF;stroke:#000000;stroke-width:3;stroke-miterlimit:10;" d="M-12.13,487.554
		c59.93,11.401,121.027-11.162,182.028-10.447c0.034,2.297,0.068,4.594,0.102,6.89c0.121,8.215,1.954,18.672-5.116,22.856
		c-2.846,1.684-6.332,1.739-9.639,1.776c-52.715,0.586-105.342,8.613-155.834,23.77c-2.248,0.675-4.889,1.303-6.771-0.099
		c-1.165-0.868-1.721-2.315-2.183-3.692C-13.693,516.244-13.947,500.468-12.13,487.554z"/>
</g>
<g id="&#xB808;&#xC774;&#xC5B4;_2">
	<path style="fill:#FFFFFF;stroke:#000000;stroke-width:3;stroke-miterlimit:10;" d="M-88.359,21.881
		c13.792,49.764,26.274,100.196,30.255,151.682c4.001,51.744-0.483,104.974,15.036,154.498c5.938,18.95,15.566,34.765,20.553,53.988
		c2.311,8.91,3.867,18.004,6.255,26.893c3.061,11.394,7.468,22.373,11.864,33.321c8.848,22.033,17.696,44.067,26.543,66.1
		c3.474,8.652,6.797,19.058,1.517,26.743c-5.242,7.631-16.139,8.373-23.904,13.416c-4.118,2.674-7.34,6.574-11.51,9.167
		c-9.078,5.644-20.821,4.157-30.966,7.525c-5.952,1.976-11.257,5.599-17.23,7.511c-5.973,1.912-13.363,1.664-17.493-3.055
		c-4.146-4.737-3.429-11.821-3.177-18.111c1.225-30.504-14.15-59.543-14.997-90.059c-0.264-9.527,0.894-19.124-0.454-28.558
		c-2.427-16.991-12.68-31.78-17.793-48.163c-8.286-26.547-3.859-58.699-22.88-78.988c-24.937-26.599-25.026-68.331-36.554-102.92
		c-17.714-53.153-46.226-103.952-49.638-159.875"/>
</g>
<g id="&#xB808;&#xC774;&#xC5B4;_4">
	<path style="fill:none;stroke:#000000;stroke-width:3;stroke-miterlimit:10;" d="M1220.706-18.089
		c-6.649,15.541-18.233,28.356-29.612,40.857c-10.129,11.128-20.324,22.318-32.216,31.539c-5.834,4.524-12.039,8.543-18.236,12.557
		c-13.908,9.008-27.817,18.016-41.725,27.025c-22.299,14.443-38.292,34.742-59.524,50.713
		c-16.061,12.081-32.122,24.162-48.182,36.243c-7.377,5.549-14.893,11.175-23.56,14.351c-10.73,3.931-23.062,3.733-33.348-1.235
		c-5.951-2.875-12.262-4.918-18.659-6.582c-5.859-1.524-12.013-4.714-18.385-3.068c-2.101,0.543-4.046,1.681-5.353,3.413
		c-4.597,6.091,1.475,13.562-0.049,20.346c-4.203,0.275-8.332,1.624-11.886,3.885c-21.662,13.779-43.877,31.313-61.04,50.406
		c-1.932,2.149-2.431,5.141-1.877,8.886c0.315,2.133,2.315,4.633,4.317,5.435c4.123,1.651,7.446-1.627,11.511-2.902
		c9.996-3.135,26.619-12.278,36.958-14.979c-6.339,1.701-17.261,11.462-22.854,16.143c-2.784,2.33-6.243,4.758-8.997,7.124
		c-7.488,6.434-10.079,20.165-7.789,31.882c0.728,3.726,2.301,6.551,5.697,8.767c2.688,1.754,6.372-0.313,8.82-2.39
		c5.996-5.088,6.851-13.092,10.795-19.391c3.951-6.311,10.817-10.561,17.48-13.029c-1.289,10.853-12.491,13.594-18.861,23.774
		c-2.734,4.369-2.981,10.051-2.697,15.197c0.186,3.366,0.389,6.807,1.679,9.922c1.29,3.115,3.897,5.896,7.222,6.452
		c2.055,0.344,4.168-0.185,6.082-1.008c5.187-2.231,9.348-6.735,11.161-12.082c0.968-2.855,1.3-5.929,2.608-8.645
		c1.308-2.716,4.037-5.113,7.023-4.7c-2.1,11.302-3.158,22.797-3.157,34.293c0,1.81,1.81,3.118,3.512,2.501
		c3.474-1.259,6.192-5.201,7.928-8.798c1.741-3.609,3.905-7.728,7.164-9.604c15.834-9.116,31.602-18.346,46.078-29.494
		c14.212-10.945,28.424-21.889,42.636-32.834c9.795-7.544,20.56-15.438,32.923-15.526c35.277-0.251,69.84-21.011,102.6-34.097
		c7.652-3.057,15.351-6.137,22.333-10.514c8.737-5.477,16.112-12.832,23.405-20.122c7.133-7.129,15.651-13.82,23.6-20.025
		c8.353-6.52,16.726-13.057,24.296-20.472c22.599-22.139,37.942-51.957,64.53-69.101c5.73-3.695,4.982-8.913,9.534-13.989
		c15.746-17.557,29.018-37.329,39.303-58.551"/>
</g>
<g id="&#xB808;&#xC774;&#xC5B4;_6">
	<path style="fill:none;stroke:#000000;stroke-width:3;stroke-miterlimit:10;" d="M848.825,273.509
		c7.697-4.684,13.394-9.367,21.091-14.05"/>
</g>
<g id="&#xB808;&#xC774;&#xC5B4;_7">
	<path style="fill:none;stroke:#000000;stroke-width:3;stroke-miterlimit:10;" d="M891.008,198.836
		c1.058,4.056,8.474,14.746,11.77,17.337"/>
</g>
<g id="&#xB808;&#xC774;&#xC5B4;_8">
</g>
<g id="&#xB808;&#xC774;&#xC5B4;_5">
	<path style="fill:none;stroke:#000000;stroke-width:3;stroke-miterlimit:10;" d="M891.626,206.905
		c9.396,9.16,22.673,17.383,34.923,22.086"/>
</g>
</svg>
