<?xml version="1.0" encoding="iso-8859-1"?>
<!-- Generator: Adobe Illustrator 24.0.1, SVG Export Plug-In . SVG Version: 6.00 Build 0)  -->
<svg version="1.1" xmlns="http://www.w3.org/2000/svg" xmlns:xlink="http://www.w3.org/1999/xlink" x="0px" y="0px"
	 viewBox="0 0 1280 600" style="enable-background:new 0 0 1280 600;" xml:space="preserve">
<g id="&#xB808;&#xC774;&#xC5B4;_1" style="display:none;">
	
		<image style="display:inline;overflow:visible;" width="772" height="598" xlink:href="../../&#x1102;&#x1166;&#x110B;&#x1175;&#x1107;&#x1165; MYBOX/&#x110C;&#x1169;&#x11BC;&#x1105;&#x1169; &#x110B;&#x1175;&#x110C;&#x1166;&#x11AB; Publishing/pfjjy_PR/pfjjy_nextjs/pfjjy/public/contact_right/058.png"  transform="matrix(1 0 0 1 508 1)">
	</image>
	
		<image style="display:inline;overflow:visible;" width="724" height="600" xlink:href="../../&#x1102;&#x1166;&#x110B;&#x1175;&#x1107;&#x1165; MYBOX/&#x110C;&#x1169;&#x11BC;&#x1105;&#x1169; &#x110B;&#x1175;&#x110C;&#x1166;&#x11AB; Publishing/pfjjy_PR/pfjjy_nextjs/pfjjy/public/contact_left/058.png"  transform="matrix(1 0 0 1 1 1)">
	</image>
</g>
<g id="&#xB808;&#xC774;&#xC5B4;_2">
	<path style="fill:#FFFFFF;stroke:#000000;stroke-width:3;stroke-miterlimit:10;" d="M-16.226,506.301
		c47.635-1.145,95.418-2.302,142.54-9.366c0.095,10.332-0.412,20.733-0.317,31.065c-47.31,2.736-94.112,7.726-141.09,13.959"/>
</g>
<g id="&#xB808;&#xC774;&#xC5B4;_3">
	<path style="fill:none;stroke:#000000;stroke-width:3;stroke-miterlimit:10;" d="M1249.869-18.962
		c-11.338,26.49-30.867,48.651-51.934,68.309c-21.067,19.658-43.983,37.315-64.302,57.745c-18.413,18.513-35.307,39.164-51.6,59.568
		c-14.484,18.139-28.344,37.037-45.919,52.199c-10.714,9.243-23.461,17.245-37.593,17.959c-5.833,0.295-11.645-0.669-17.456-1.26
		c-2.233-0.227-4.846-0.253-6.283,1.47c-0.729,0.874-0.99,2.03-1.33,3.116c-1.956,6.236-7.436,11.232-13.826,12.605
		c-30.053,6.46-47.587,41.5-50.951,72.055c-0.47,4.273,0.316,9.916,4.524,10.794c2.476,0.517,4.848-1.023,7.087-2.199
		c2.239-1.177,5.248-1.944,7.093-0.213c0.33,5.584-1.326,11.084-1.768,16.66c-0.442,5.577,0.696,11.864,5.184,15.204
		c10.794,8.033,17.386,20.739,26.062,31.023c1.22,1.446,2.457,2.908,3.999,4.003c2.622,1.862,5.899,2.51,9.086,2.939
		c3.534,0.475,7.333,0.69,10.462-1.021c3.129-1.71,5.065-6.026,3.083-8.991c0.065-3.63,0.655-7.983,0.72-11.612
		c0.046-2.591,0.102-5.238,0.995-7.671c2.247-6.129,8.98-9.205,13.271-14.124c11.269-12.917,25.25-24.603,37.685-36.401
		c3.04-2.884,6.089-5.779,8.721-9.039c4.663-5.777,7.915-12.578,12.48-18.434c4.565-5.856,11.04-10.939,18.463-11.087
		c9.828-0.195,18.663-5.628,27.713-9.468c15.083-6.4,28.708-15.734,42.219-25.003c19.866-13.631,38.107-30.085,55.733-46.509
		c8.089-7.537,16.177-15.075,24.266-22.612c5.472-5.099,10.959-10.214,15.785-15.929c5.73-6.786,10.465-14.34,15.536-21.631
		c7.125-10.245,14.959-20.023,23.776-28.854c10.473-10.49,22.33-19.648,31.734-31.106c18.45-22.479,26.157-52.153,43.959-75.149"/>
</g>
<g id="&#xB808;&#xC774;&#xC5B4;_4">
	<path style="fill:none;stroke:#000000;stroke-width:3;stroke-miterlimit:10;" d="M972.478,242.85
		c-0.08,2.431,0.012,5.883,0.522,8.261c1.31,6.114,5.398,11.454,10.629,14.879c5.231,3.425,11.525,5.026,17.775,5.199"/>
</g>
<g id="&#xB808;&#xC774;&#xC5B4;_5">
	<path style="fill:none;stroke:#000000;stroke-width:3;stroke-miterlimit:10;" d="M970.266,247.265
		c0.624,5.613,3.538,10.743,7.102,15.123c0.706,0.868,1.442,1.715,2.244,2.496c2.84,2.766,6.455,4.633,10.21,5.904
		c3.755,1.27,7.674-0.025,11.576,0.675"/>
</g>
<g id="&#xB808;&#xC774;&#xC5B4;_10">
	<path style="fill:none;stroke:#000000;stroke-width:3;stroke-miterlimit:10;" d="M938.372,318.619
		c-1.656,2.524-6.228,10.102-7.8,12.679c-0.976,1.6-1.968,3.239-2.356,5.072c-0.66,3.119-1.517,13.535-2.756,16.472"/>
</g>
<g id="&#xB808;&#xC774;&#xC5B4;_6">
	<path style="fill:none;stroke:#000000;stroke-width:3;stroke-miterlimit:10;" d="M967.573,249.804
		c0.756,2.072,2.138,3.847,3.499,5.583c1.134,1.447,2.269,2.894,3.403,4.341c1.627,2.076,3.265,4.163,5.22,5.933
		c1.798,1.627,4.862,2.975,7.117,3.866"/>
</g>
<g id="&#xB808;&#xC774;&#xC5B4;_7">
	<path style="fill:none;stroke:#000000;stroke-width:3;stroke-miterlimit:10;" d="M925.529,332.241
		c1.427-0.258,3.537-2.347,4.544-3.39c5.699-5.9,9.191-12,14.464-18.284"/>
</g>
<g id="&#xB808;&#xC774;&#xC5B4;_8">
	<path style="fill:none;stroke:#000000;stroke-width:3;stroke-miterlimit:10;" d="M946.479,381.744
		c4.074-2.218,6.377-6.796,7.212-11.358c0.835-4.563,0.448-9.246,0.5-13.884c0.088-7.808,1.44-15.599,3.989-22.98"/>
</g>
<g id="&#xB808;&#xC774;&#xC5B4;_9">
	<path style="fill:none;stroke:#000000;stroke-width:3;stroke-miterlimit:10;" d="M964.831,401.793
		c2.571-1.743,4.174-4.639,4.996-7.634s0.951-6.129,1.142-9.23c0.693-11.203,2.279-22.351,4.74-33.303"/>
</g>
</svg>
