<?xml version="1.0" encoding="iso-8859-1"?>
<!-- Generator: Adobe Illustrator 24.0.1, SVG Export Plug-In . SVG Version: 6.00 Build 0)  -->
<svg version="1.1" xmlns="http://www.w3.org/2000/svg" xmlns:xlink="http://www.w3.org/1999/xlink" x="0px" y="0px"
	 viewBox="0 0 1280 600" style="enable-background:new 0 0 1280 600;" xml:space="preserve">
<g id="&#xB808;&#xC774;&#xC5B4;_1" style="display:none;">
	
		<image style="display:inline;overflow:visible;" width="772" height="598" xlink:href="../../&#x1102;&#x1166;&#x110B;&#x1175;&#x1107;&#x1165; MYBOX/&#x110C;&#x1169;&#x11BC;&#x1105;&#x1169; &#x110B;&#x1175;&#x110C;&#x1166;&#x11AB; Publishing/pfjjy_PR/pfjjy_nextjs/pfjjy/public/contact_right/059.png"  transform="matrix(1 0 0 1 508 1)">
	</image>
	
		<image style="display:inline;overflow:visible;" width="724" height="600" xlink:href="../../&#x1102;&#x1166;&#x110B;&#x1175;&#x1107;&#x1165; MYBOX/&#x110C;&#x1169;&#x11BC;&#x1105;&#x1169; &#x110B;&#x1175;&#x110C;&#x1166;&#x11AB; Publishing/pfjjy_PR/pfjjy_nextjs/pfjjy/public/contact_left/059.png"  transform="matrix(1 0 0 1 0 1)">
	</image>
</g>
<g id="&#xB808;&#xC774;&#xC5B4;_2">
	<path style="fill:#FFFFFF;stroke:#000000;stroke-width:3;stroke-miterlimit:10;" d="M-19.001,523.063
		c32.683,0.518,65.393-0.714,97.944-3.688c3.015,8.292,2.992,18.303,0.236,26.684c-31.726,3.09-63.62,6.212-95.347,9.302
		c-1.16,0.113-2.799-0.195-2.741-1.359"/>
</g>
<g id="&#xB808;&#xC774;&#xC5B4;_3">
	<path style="fill:none;stroke:#000000;stroke-width:3;stroke-miterlimit:10;" d="M1260.998-7.01
		c-3.592,11.311-8.415,22.256-14.683,32.333c-4.956,7.967-10.785,15.35-16.601,22.713l-7.517,9.518
		c-5.228,6.619-15.131,16.035-22.139,20.729c-20.823,13.95-34.88,35.13-48.377,56.516c-10.717,16.982-14.273,37.82-28.032,52.922
		c-10.526,11.554-19.697,24.269-26.956,38.111c-15.289,29.156-32.561,59.54-59.525,78.602c-12.43,8.787-28,16.721-31.341,31.572
		c-2.363,10.504-1.145,19.608-0.816,30.369c0.643,21.029,4.388,44.55,20.083,58.561c5.042,4.502,9.261,7.697,13.635,12.85
		c2.008,2.366,3.565,5.077,5.46,7.535c5.488,7.119,13.694,11.78,22.497,13.805c3.958,0.911,7.649-2.296,7.265-6.34
		c-0.719-7.576-3.409-14.97-7.8-21.19c-4.342-6.152-2.952-16.1,0.431-22.827c1.465-2.914,3.788-5.291,6.08-7.611
		c8.731-8.837,17.925-18.215,20.899-30.277c6.065-5.397,9.017-13.478,12.228-20.935c3.921-9.104,5.58-19.531,12.194-26.914
		c3.855-4.303,9.052-7.141,14.246-9.671c19.718-9.603,36.393-26.567,54.297-39.234c10.1-7.146,20.233-14.318,29.333-22.7
		c15.89-14.637,28.263-32.61,40.494-50.417c7.815-11.378,15.63-22.757,23.445-34.135c9.23-13.439,18.504-26.952,25.432-41.71
		c3.724-7.933,6.759-16.203,11.058-23.84c11.114-19.744,30.114-34.304,40.316-54.535"/>
</g>
<g id="&#xB808;&#xC774;&#xC5B4;_4">
	<path style="fill:none;stroke:#000000;stroke-width:3;stroke-miterlimit:10;" d="M1059.289,297.818
		c-3.256,1.709-3.934,6.031-3.9,9.708c0.04,4.339,0.582,8.846,2.89,12.521c2.463,3.921,6.741,6.476,11.247,7.546
		c4.505,1.07,9.235,0.777,13.791-0.049"/>
</g>
<g id="&#xB808;&#xC774;&#xC5B4;_5">
	<path style="fill:none;stroke:#000000;stroke-width:3;stroke-miterlimit:10;" d="M1038.02,360.179
		c-4.965,2.997-6.021,9.618-6.569,15.391c-0.275,2.896-0.55,5.791-0.825,8.687c-0.437,4.602-1.057,9.608-4.345,12.858
		c-3.902,3.859-11.11,3.522-14.635-0.684c-1.619-1.932-2.444-4.395-3.109-6.826c-1.321-4.828-2.151-9.79-2.475-14.785"/>
</g>
<g id="&#xB808;&#xC774;&#xC5B4;_6">
	<path style="fill:none;stroke:#000000;stroke-width:3;stroke-miterlimit:10;" d="M1048.805,401.742
		c-1.115,3.957-0.876,8.282,0.667,12.092c1.436,3.544,3.91,6.55,5.929,9.797c2.019,3.248,3.634,7.028,3.037,10.806
		c-0.218,1.377-0.768,2.762-1.837,3.657c-0.527,0.441-1.156,0.743-1.8,0.983c-3.685,1.373-7.877,0.746-11.472-0.848
		c-3.595-1.594-6.709-4.08-9.778-6.538c-2.404-1.926-4.809-3.852-7.213-5.778"/>
</g>
</svg>
