<?xml version="1.0" encoding="iso-8859-1"?>
<!-- Generator: Adobe Illustrator 24.0.1, SVG Export Plug-In . SVG Version: 6.00 Build 0)  -->
<svg version="1.1" xmlns="http://www.w3.org/2000/svg" xmlns:xlink="http://www.w3.org/1999/xlink" x="0px" y="0px"
	 viewBox="0 0 1280 600" style="enable-background:new 0 0 1280 600;" xml:space="preserve">
<g id="&#xB808;&#xC774;&#xC5B4;_1" style="display:none;">
	
		<image style="display:inline;overflow:visible;" width="772" height="598" xlink:href="../../&#x1102;&#x1166;&#x110B;&#x1175;&#x1107;&#x1165; MYBOX/&#x110C;&#x1169;&#x11BC;&#x1105;&#x1169; &#x110B;&#x1175;&#x110C;&#x1166;&#x11AB; Publishing/pfjjy_PR/pfjjy_nextjs/pfjjy/public/contact_right/060.png"  transform="matrix(1 0 0 1 508 1)">
	</image>
	
		<image style="display:inline;overflow:visible;" width="724" height="600" xlink:href="../../&#x1102;&#x1166;&#x110B;&#x1175;&#x1107;&#x1165; MYBOX/&#x110C;&#x1169;&#x11BC;&#x1105;&#x1169; &#x110B;&#x1175;&#x110C;&#x1166;&#x11AB; Publishing/pfjjy_PR/pfjjy_nextjs/pfjjy/public/contact_left/060.png"  transform="matrix(1 0 0 1 0 -1)">
	</image>
</g>
<g id="&#xB808;&#xC774;&#xC5B4;_2">
	<path style="fill:none;stroke:#000000;stroke-width:3;stroke-miterlimit:10;" d="M-11.997,542.095
		c13.904-0.454,27.832-0.193,41.709,0.783c1.434,0.101,3.05,0.304,3.913,1.454c0.785,1.047,0.65,2.495,0.478,3.792
		c-0.702,5.304-1.404,10.609-2.106,15.913c-0.184,1.392-0.439,2.918-1.515,3.82c-0.957,0.802-2.306,0.887-3.554,0.934
		c-11.71,0.446-23.419,0.891-35.129,1.337c-1.422,0.054-3.49-0.877-2.742-2.087"/>
</g>
<g id="&#xB808;&#xC774;&#xC5B4;_3">
	<path style="fill:none;stroke:#000000;stroke-width:3;stroke-miterlimit:10;" d="M1278.106-9.873
		c-5.473,11.52-10.947,23.041-16.42,34.561c-9.056,19.061-18.26,38.355-31.848,54.501c-5.196,6.175-11.012,11.861-15.564,18.525
		c-3.787,5.545-6.63,11.668-9.455,17.76c-10.302,22.213-20.605,44.428-30.434,66.854c-10.739,24.504-20.909,49.256-30.501,74.231
		c-14.507,37.774-32.153,75.727-49.132,112.456c-1.828,3.955-3.673,7.96-4.48,12.242c-0.683,3.624-1.397,7.448-0.52,11.03
		c2.747,11.213,3.527,23.432,3.793,35.238c0.388,17.246-2.969,37.701,10.282,48.745c14.673,12.23,33.795,15.495,45.85,29.193
		c4.683,5.322,9.467,12.934,16.454,11.733c4.016-9.145-0.395-19.771-6.031-28.016c-5.636-8.245-15.742-16.008-17.811-25.779
		c-1.248-5.893,1.211-11.901,3.904-17.897c5.807-12.933,10.517-26.462,19.735-37.232c9.881-11.546,22.679-22.028,25.747-36.912
		c1.557-7.555,0.365-15.512,2.247-22.992c1.719-6.828,5.865-12.751,9.969-18.471c28.902-40.286,59.779-79.155,92.482-116.422"/>
</g>
<g id="&#xB808;&#xC774;&#xC5B4;_4">
	<path style="fill:none;stroke:#000000;stroke-width:3;stroke-miterlimit:10;" d="M1138.803,358.977
		c1.078,7.545,3.463,14.901,7.018,21.642c2.314,4.389,5.474,8.795,10.197,10.314c2.787,0.896,5.795,0.672,8.712,0.423
		c7.051-0.602,14.515-1.453,20.101-5.798c4.899-3.81,5.615-13.786,7.316-19.754"/>
</g>
<g id="&#xB808;&#xC774;&#xC5B4;_5">
	<path style="fill:none;stroke:#000000;stroke-width:3;stroke-miterlimit:10;" d="M1091.219,377.778
		c-1.004,4.619-0.234,7.419,0.587,12.074c4.234,24.019,9.781,47.806,16.607,71.22c1.366,4.686,2.876,9.525,6.158,13.138
		c2.312,2.546,5.438,4.341,8.802,5.055c3.829,0.813,8.506-0.18,10.272-3.674c0.828-1.638,0.881-3.546,0.891-5.381
		c0.064-11.237-0.823-22.479-2.649-33.566"/>
	<path style="fill:none;stroke:#000000;stroke-width:3;stroke-miterlimit:10;" d="M1145.333,470.504
		c5.533,8.913,7.267,19.116,6.823,29.598c-0.001,0.016-0.001,0.031-0.002,0.047c-0.098,2.117-2.62,3.182-4.233,1.808
		c-2.74-2.333-22.646-12.472-25.687-14.397"/>
</g>
<g id="&#xB808;&#xC774;&#xC5B4;_6">
</g>
</svg>
