<?xml version="1.0" encoding="iso-8859-1"?>
<!-- Generator: Adobe Illustrator 24.0.1, SVG Export Plug-In . SVG Version: 6.00 Build 0)  -->
<svg version="1.1" xmlns="http://www.w3.org/2000/svg" xmlns:xlink="http://www.w3.org/1999/xlink" x="0px" y="0px"
	 viewBox="0 0 1280 600" style="enable-background:new 0 0 1280 600;" xml:space="preserve">
<g id="&#xB808;&#xC774;&#xC5B4;_1" style="display:none;">
	
		<image style="display:inline;overflow:visible;" width="772" height="598" xlink:href="../../&#x1102;&#x1166;&#x110B;&#x1175;&#x1107;&#x1165; MYBOX/&#x110C;&#x1169;&#x11BC;&#x1105;&#x1169; &#x110B;&#x1175;&#x110C;&#x1166;&#x11AB; Publishing/pfjjy_PR/pfjjy_nextjs/pfjjy/public/contact_right/061.png"  transform="matrix(1 0 0 1 508 1)">
	</image>
</g>
<g id="&#xB808;&#xC774;&#xC5B4;_2">
	<path style="fill:none;stroke:#000000;stroke-width:3;stroke-miterlimit:10;" d="M1309.659,52.456
		c-37.077,23.294-64.129,62.013-73.203,104.855c-1.729,8.162-3.976,16.205-6.926,24.009c-3.046,8.061-4.022,16.736-4.972,25.303
		c-1.61,14.514-3.22,29.028-4.83,43.541c-1.532,13.81-4.307,26.753-7.052,40.374c-4.544,22.55-16.113,43.568-17.849,66.506
		c-1.483,19.596-16.077,36.96-22.938,55.375c-5.176,13.894-3.443,27.193-2.639,41.999c0.814,14.994-2.25,30.47,4.449,43.909
		c9.252,18.56,27.891,30.263,41.841,45.607c4.495,4.944,8.606,10.375,14.108,14.167c4.018,2.769,9.057,4.526,13.818,4.124
		c2.515-0.212,3.875-3.042,2.453-5.128c-15.608-22.89-24.198-50.52-24.243-78.23c-0.015-9.406,3.588-21.536,12.991-21.803
		c6.864-0.195,14.707,6.39,19.492,0.777c0.929-1.09,1.495-2.442,1.774-3.846c2.247-11.292,4.495-22.584,6.742-33.877
		c1.206-6.061,2.417-12.174,2.363-18.354c-0.067-7.552-2.02-14.95-2.834-22.458c-3.877-35.771,17.869-68.737,38.623-98.128
		c12.719-18.012,18.729-37.898,25.202-58.976c3.091-10.066,5.496-20.393,9.783-30.011c3.721-8.349,8.8-16.02,14.154-23.429
		c15.076-20.864,32.539-40,51.941-56.916"/>
	<path style="fill:none;stroke:#000000;stroke-width:3;stroke-miterlimit:10;" d="M1222.756,470.376
		c0.328-1.648,0.655-3.297,0.983-4.945c0.209-1.053,0.419-2.109,0.495-3.179c0.177-2.49-0.367-5.043,0.245-7.462"/>
</g>
<g id="&#xB808;&#xC774;&#xC5B4;_3">
	<path style="fill:none;stroke:#000000;stroke-width:3;stroke-miterlimit:10;" d="M1216.115,404.314
		c-0.51,5.672,1.04,11.507,4.298,16.179c1.124,1.612,2.443,3.089,3.458,4.772c3.009,4.989,3.029,11.138,3.523,16.943
		c0.493,5.805,2.881,11.136,7.54,14.634"/>
</g>
<g id="&#xB808;&#xC774;&#xC5B4;_4">
	<path style="fill:none;stroke:#000000;stroke-width:3;stroke-miterlimit:10;" d="M1176.902,450.837
		c1.522,18.838,7.354,37.316,16.922,53.614c2.176,3.707,4.562,7.345,5.939,11.418c2.042,6.039,2.445,13.746,8.108,16.673
		c4.036,2.086,9.64,0.099,11.461-4.063c0.864-1.976,0.93-4.195,0.982-6.35c0.261-10.75,1.522-38.499,1.783-49.249"/>
</g>
</svg>
