<?xml version="1.0" encoding="iso-8859-1"?>
<!-- Generator: Adobe Illustrator 24.0.1, SVG Export Plug-In . SVG Version: 6.00 Build 0)  -->
<svg version="1.1" xmlns="http://www.w3.org/2000/svg" xmlns:xlink="http://www.w3.org/1999/xlink" x="0px" y="0px"
	 viewBox="0 0 1280 600" style="enable-background:new 0 0 1280 600;" xml:space="preserve">
<g id="&#xB808;&#xC774;&#xC5B4;_1" style="display:none;">
	
		<image style="display:inline;overflow:visible;" width="772" height="598" xlink:href="../../&#x1102;&#x1166;&#x110B;&#x1175;&#x1107;&#x1165; MYBOX/&#x110C;&#x1169;&#x11BC;&#x1105;&#x1169; &#x110B;&#x1175;&#x110C;&#x1166;&#x11AB; Publishing/pfjjy_PR/pfjjy_nextjs/pfjjy/public/contact_right/062.png"  transform="matrix(1 0 0 1 507 0)">
	</image>
</g>
<g id="&#xB808;&#xC774;&#xC5B4;_2">
	<path style="fill:none;stroke:#000000;stroke-width:3;stroke-miterlimit:10;" d="M1294.312,133.112
		c-13.299,37.055-22.011,75.753-25.874,114.931c-1.893,19.198-4.707,38.358-7.641,57.425c-3.882,25.231-7.764,50.462-11.646,75.693
		c-5.725,37.211-9.744,73.986-5.773,111.425c3.295,31.067,12.168,64.331,37.114,83.139"/>
</g>
<g id="&#xB808;&#xC774;&#xC5B4;_3">
	<path style="fill:none;stroke:#000000;stroke-width:3;stroke-miterlimit:10;" d="M1251.131,478.975
		c-0.631,2.525-0.631,9.525-0.227,12.188c1.183,7.804,5.748,14.703,8.621,22.055c1.79,4.578,3.584,9.166,5.844,13.531
		c4.701,9.077,11.417,17.104,19.522,23.333"/>
</g>
</svg>
