<?xml version="1.0" encoding="iso-8859-1"?>
<!-- Generator: Adobe Illustrator 24.0.1, SVG Export Plug-In . SVG Version: 6.00 Build 0)  -->
<svg version="1.1" xmlns="http://www.w3.org/2000/svg" xmlns:xlink="http://www.w3.org/1999/xlink" x="0px" y="0px"
	 viewBox="0 0 464 261" style="enable-background:new 0 0 464 261;" xml:space="preserve">
<g id="&#xB808;&#xC774;&#xC5B4;_1" style="display:none;">
	
		<image style="display:inline;overflow:visible;" width="464" height="261" xlink:href="../2.png"  transform="matrix(1 0 0 1 0 -0.5)">
	</image>
</g>
<g id="&#xB808;&#xC774;&#xC5B4;_2">
	<path style="fill:none;stroke:#000000;stroke-miterlimit:10;" d="M174.767,57.906c-0.966-0.32-1.366-1.455-2.128-2.129
		c-0.443-0.392-1.002-0.62-1.506-0.929c-0.504-0.309-0.984-0.748-1.092-1.33c-0.097-0.524,0.12-1.103-0.12-1.578
		c-0.166-0.328-0.51-0.52-0.834-0.692c-0.721-0.384-1.443-0.767-2.164-1.151c-4.653-2.475-7.96-7.204-9.757-12.158
		c-0.555-1.53-0.998-3.124-1.025-4.752c-0.028-1.628,0.391-3.304,1.408-4.575c2.611-3.265,6.099-6.257,10.248-6.771
		c1.145-0.142,2.305-0.066,3.456,0.02c2.804,0.21,5.839,0.583,7.855,2.543c0.386,0.375,0.744,0.815,1.248,1.003
		c0.398,0.149,0.849,0.124,1.236,0.302c0.341,0.157,0.595,0.455,0.818,0.757c0.997,1.351,1.614,2.979,1.763,4.651
		c0.104,1.168,0.342,2.42,0.644,3.554c0.102,0.383,0.219,0.772,0.454,1.091c0.213,0.29,0.509,0.505,0.79,0.729
		c0.738,0.587,1.403,1.264,1.977,2.012c0.108,0.14,0.215,0.291,0.242,0.466c0.056,0.376-0.27,0.689-0.566,0.928
		c-0.749,0.605-1.497,1.211-2.246,1.816c-0.725,0.586-0.441,1.602-0.367,2.531c0.056,0.695,0.127,1.407,0.438,2.031
		c0.187,0.375,0.453,0.704,0.688,1.052c0.919,1.364,1.34,3.055,1.167,4.691c-0.041,0.385-0.122,0.787-0.377,1.078
		c-0.376,0.429-1.007,0.497-1.577,0.535c-0.797-0.048-1.503-0.21-2.3-0.258c-1.009-0.061-2.089-0.106-2.955,0.414
		c-0.525,0.315-0.916,0.807-1.295,1.289c-0.381,0.485-0.769,0.982-0.966,1.567c-0.197,0.587-0.217,1.284-0.673,1.703
		c-0.366,0.337-0.929,0.387-1.408,0.249C175.362,58.456,175.24,58.062,174.767,57.906z"/>
</g>
<g id="&#xB808;&#xC774;&#xC5B4;_3">
	<path style="fill:none;stroke:#000000;stroke-miterlimit:10;" d="M184.018,53.463c-1.36-0.448-3.754-1.436-5.114-1.885
		c-0.729-0.24-1.503-0.483-2.251-0.31"/>
</g>
<g id="&#xB808;&#xC774;&#xC5B4;_4">
	<path style="fill:none;stroke:#000000;stroke-miterlimit:10;" d="M155.184,67.652c1.186-2.686,2.737-5.211,4.598-7.483
		c0.375-0.458,0.777-0.917,1.302-1.189c0.785-0.407,1.723-0.339,2.602-0.242c2.566,0.283,5.22,0.77,7.297,2.303
		c0.435,0.321,0.842,0.688,1.147,1.134c0.453,0.663,0.657,1.464,0.792,2.256c0.263,1.546,0.295,3.15-0.098,4.668
		s-1.231,2.948-2.485,3.889c-1.062,0.798-1.667,1.984-2.575,2.953c-0.443,0.473-0.888,0.949-1.23,1.499
		c-0.864,1.39-0.987,3.1-1.086,4.733c-0.115,1.893-0.805,3.637-1.685,5.318c-0.629,1.202-1.377,2.376-2.44,3.219
		c-2.615,2.076-4.487,4.978-6.742,7.44c-0.503,0.549-1.012,1.107-1.351,1.769c-0.34,0.662-0.496,1.454-0.256,2.158
		c0.876,2.576,0.833,5.193,0.771,7.912c-0.063,2.757,0.082,5.519,0.436,8.255c0.522,4.045,0.921,8.142,2.158,12.029
		c0.464,1.457,0.257,3.135,0.586,4.628c0.263,1.192,0.604,2.374,0.703,3.591c0.099,1.217-0.064,2.499-0.734,3.52
		c-0.837,1.274-2.365,1.967-3.882,2.123c-1.517,0.156-3.04-0.159-4.519-0.531c-0.89-0.224-1.794-0.478-2.544-1.007
		s-1.328-1.388-1.282-2.304c0.271-5.461,0.643-10.988,0.243-16.441c-0.202-2.758-0.976-5.407-1.475-8.127
		c-0.148-0.804-0.225-1.622-0.42-2.416c-0.446-1.812-1.509-3.543-1.306-5.399c0.263-2.405-0.229-4.775-0.646-7.158
		c-0.197-1.127-0.445-2.274-0.268-3.405c0.21-1.345,0.995-2.519,1.76-3.644c0.531-0.781,1.257-1.441,1.753-2.246
		c0.5-0.811,0.799-1.729,1.246-2.571c0.54-1.018,1.287-1.909,2.012-2.805c1.655-2.045,3.274-4.276,3.683-6.875
		c0.23-1.46,0.57-2.871,1.227-4.195c0.713-1.436,1.375-2.897,1.985-4.379c0.108-0.262,0.215-0.527,0.267-0.806
		C154.856,69.15,154.612,68.038,155.184,67.652z"/>
</g>
<g id="&#xB808;&#xC774;&#xC5B4;_5">
	<path style="fill:none;stroke:#000000;stroke-miterlimit:10;" d="M147.265,86.63c-0.637-2.142-0.632-4.416-0.621-6.651
		c0.004-0.867,0.01-1.745,0.235-2.583c0.221-0.82,0.643-1.569,0.989-2.344c1.418-3.18,1.542-6.817,2.945-10.004
		c1.293-2.937,2.237-6.077,4.191-8.623c2.467-3.213,5.115-6.288,7.927-9.205"/>
</g>
<g id="&#xB808;&#xC774;&#xC5B4;_6">
	<path style="fill:none;stroke:#000000;stroke-miterlimit:10;" d="M155.157,231.853c-0.816-0.037-1.473,0.715-1.717,1.494
		c-0.244,0.779-0.21,1.619-0.387,2.417c-0.244,1.099-0.876,2.072-1.236,3.139s-0.382,2.39,0.432,3.168
		c0.466,0.446,1.117,0.628,1.74,0.794c4.773,1.276,9.545,2.551,14.318,3.827c2.326,0.622,4.679,1.248,7.087,1.307
		c2.407,0.059,4.911-0.502,6.776-2.027c0.789-0.645,1.477-1.526,1.525-2.544c0.048-1.018-0.79-2.1-1.804-2.001
		c-4.621-1.867-9.571-3.922-14.192-5.789c-2.205-0.891-4.423-1.786-6.747-2.293C158.902,232.897,156.911,233.004,155.157,231.853z"
		/>
</g>
<g id="&#xB808;&#xC774;&#xC5B4;_7">
	<path style="fill:none;stroke:#000000;stroke-miterlimit:10;" d="M155.384,231.514c0.29-1.41,0.143-2.868,0.164-4.308
		c0.045-3.05,0.849-6.031,1.648-8.975c1.706-6.285,3.276-12.594,4.517-18.988c0.833-4.291,0.062-8.808-0.545-13.136"/>
</g>
<g id="&#xB808;&#xC774;&#xC5B4;_8">
	<path style="fill:none;stroke:#000000;stroke-miterlimit:10;" d="M164.609,234.103c-0.179-5.749,2.681-11.135,3.571-16.817
		c0.329-2.099,0.623-3.951,1.41-5.924c3.059-7.661,4.894-15.808,5.416-24.04"/>
</g>
<g id="&#xB808;&#xC774;&#xC5B4;_9">
	<path style="fill:none;stroke:#000000;stroke-miterlimit:10;" d="M111.134,145.246c-2.263-0.318-4.953-1.186-5.431-3.421
		c-0.273-1.275,0.338-2.611,1.259-3.534c0.921-0.923,2.119-1.509,3.296-2.07c4.003-1.907,8.354-3.759,12.729-3.037
		c2.36,0.389,4.59,1.518,6.981,1.589c1.177,0.035,2.357-0.19,3.528-0.063c1.171,0.126,2.406,0.72,2.807,1.827
		c0.346,0.956-0.034,2.055-0.698,2.825c-0.665,0.77-1.574,1.278-2.464,1.771c-1.285,0.711-2.595,1.432-4.034,1.727
		c-0.932,0.191-1.894,0.198-2.823,0.403c-1.184,0.261-2.098,0.856-3.051,1.568c-1.128,0.843-1.542,0.906-3.061,0.941
		C117.151,145.842,114.126,145.667,111.134,145.246z"/>
</g>
<g id="&#xB808;&#xC774;&#xC5B4;_10">
	<path style="fill:none;stroke:#000000;stroke-miterlimit:10;" d="M122.272,145.503c0.107,1.768,1.717,3.01,3.152,4.048
		c6.327,4.574,12.081,9.939,17.085,15.932c4.365,5.228,9.868,9.497,13.769,15.079c1.511,2.162,2.95,4.459,5.076,6.022
		c2.599,1.911,6.003,2.508,9.207,2.135c2.22-0.259,4.415-0.972,6.236-2.269c1.565-1.115,2.146-2.915,1.881-4.871
		c0.049-1.324-0.125-2.314-0.35-3.62c-0.608-3.539,0.043-7.052-0.044-10.642c-0.933,1.869-3.148,2.442-5.236,2.522
		c-2.088,0.08-4.125-0.582-6.109-1.236c-4.016-1.324-8.193-2.744-11.171-5.746c-3.217-3.242-6.6-6.615-9.624-10.037
		c-3.818-4.321-7.637-8.642-11.455-12.964"/>
</g>
<g id="&#xB808;&#xC774;&#xC5B4;_11">
	<path style="fill:none;stroke:#000000;stroke-miterlimit:10;" d="M144.057,150.458c-4.212-5.072-4.735-13.098-4.705-19.691
		c0.008-1.751,1.049-3.591,1.92-5.111c1.086-1.896,2.302-2.994,3.2-4.986"/>
</g>
<g id="&#xB808;&#xC774;&#xC5B4;_12">
	<path style="fill:none;stroke:#000000;stroke-miterlimit:10;" d="M178.168,167.352c1.268-6.012,0.417-12.45-2.371-17.925
		c-1.01-1.984-2.276-3.873-2.851-6.024c-1.063-3.98-0.164-8.165-1.032-12.192c-0.368-1.707-0.831-3.405-0.938-5.148
		c-0.107-1.743,0.174-3.573,1.175-5.004c2.001-2.863,2.245-6.387,3.797-9.515c2.044-4.118,4.088-8.237,6.132-12.355
		c0.718-1.447,1.454-2.972,1.389-4.586c-0.276-6.877-0.849-13.893-1.942-20.688c-0.857-5.328-1.603-10.754-4.336-15.407"/>
</g>
<g id="&#xB808;&#xC774;&#xC5B4;_13">
	<path style="fill:none;stroke:#000000;stroke-miterlimit:10;" d="M183.395,88.884c4.096,3.279,9.275,4.806,14.244,6.491
		c5.808,1.969,11.506,4.248,17.155,6.634c0.619,0.262,1.355,0.725,1.238,1.387c1.194,1.589,2.228,3.102,3.422,4.691
		c0.961,1.278,1.953,2.587,3.31,3.432c2.364,1.473,5.399,1.296,7.98,2.342c1.598,0.648,2.999,1.773,3.976,3.193
		c2.395,3.48,6.155,5.181,10.204,6.386c0.841,0.25,1.73,0.451,2.59,0.281c0.861-0.171,1.685-0.802,1.824-1.669
		c0.192-1.189-0.88-2.166-1.843-2.891c-3.357-2.527-6.915-5.052-10.351-7.471c-1.501-1.056-3.044-2.158-3.996-3.727
		c-0.899-1.482-1.187-3.247-1.863-4.842c-0.922-2.175-2.594-4.024-4.665-5.16c-2.731-1.498-6.107-2.647-9.022-3.746
		c-1.421-0.535-2.872-0.993-4.272-1.58c-2.372-0.995-4.587-2.363-6.539-4.037c-3.445-2.955-7.495-5.202-11.224-7.79
		c-1.352-0.938-2.713-1.885-3.851-3.074c-2.502-2.616-3.711-6.167-5.385-9.376c-1.674-3.209-4.227-6.382-7.796-6.986"/>
</g>
<g id="&#xB808;&#xC774;&#xC5B4;_14">
	<path style="fill:none;stroke:#000000;stroke-miterlimit:10;" d="M317.679,59.756c-3.379-1.289-5.217-4.831-7.643-7.513
		c-2.622-2.897-6.293-5.178-7.373-8.934c-1.428-0.823-2.448-2.412-2.962-3.978s-0.612-3.237-0.626-4.885
		c-0.009-1.126,0.021-2.268,0.331-3.351c0.743-2.594,3.026-4.522,5.534-5.517s5.25-1.197,7.943-1.372
		c2.417-0.157,4.891-0.297,7.216,0.382c1.849,0.539,3.576,1.627,4.66,3.219c1.083,1.592,1.452,3.711,0.742,5.501
		c-0.537,1.352-0.078,2.969,0.889,4.057c0.307,0.346,0.693,0.61,1.037,0.919c0.625,0.563,1.109,1.282,1.396,2.074
		c0.108,0.3,0.187,0.64,0.055,0.93c-0.079,0.175-0.225,0.308-0.367,0.437c-0.395,0.358-0.791,0.716-1.186,1.075
		c-0.032,3.548-0.105,6.935-0.136,10.484c-0.003,0.286-0.01,0.589-0.166,0.828c-0.265,0.407-0.832,0.462-1.317,0.436
		c-0.934-0.05-1.86-0.249-2.733-0.586c-0.414-0.16-0.846-0.355-1.284-0.283c-0.621,0.102-1.038,0.712-1.198,1.32
		c-0.16,0.608-0.139,1.251-0.284,1.863C319.917,58.085,318.894,59.432,317.679,59.756z"/>
</g>
<g id="&#xB808;&#xC774;&#xC5B4;_15">
	<path style="fill:none;stroke:#000000;stroke-miterlimit:10;" d="M328.215,41.993c-0.597,0.662-2.043,1.601-2.843,1.209"/>
</g>
<g id="&#xB808;&#xC774;&#xC5B4;_16">
	<path style="fill:none;stroke:#000000;stroke-miterlimit:10;" d="M321.826,53.665c-1.757,0.076-3.571-0.925-4.503-2.417"/>
</g>
<g id="&#xB808;&#xC774;&#xC5B4;_17">
	<path style="fill:none;stroke:#000000;stroke-miterlimit:10;" d="M294.141,64.902c1.742-1.448,3.484-2.896,5.227-4.345
		c0.621-0.516,1.249-1.037,1.975-1.39c1.963-0.953,4.298-0.538,6.393,0.071c1.741,0.506,3.474,1.147,4.928,2.23
		c1.454,1.083,2.612,2.663,2.855,4.46c0.202,1.493-0.239,3.017-0.973,4.333c-0.734,1.315-1.748,2.45-2.778,3.549
		c-1.633,1.745-3.457,3.511-5.787,4.046c-1.65,0.379-3.476,0.117-4.958,0.935c-2.574,1.419-5.855,1.014-8.664,1.878
		c-1.141,0.351-2.252,0.813-3.424,1.038c-2.075,0.398-4.399,0.083-6.137,1.285c-1.644,1.137-2.215,3.262-2.669,5.208
		c-0.317,1.361-1.072,2.441-1.84,3.61c-1.708,2.601-3.547,5.116-5.507,7.533c-1.004,1.237-2.088,2.563-2.202,4.153
		c-0.351,4.892-1.514,9.736-0.67,14.568c0.375,2.147,1.243,4.252,1.059,6.424c-0.018,0.214-0.054,0.444-0.204,0.598
		c-0.402,0.412-1.102-0.12-1.242-0.678c-0.14-0.558-0.072-1.213-0.459-1.639c-0.348-0.384-0.971-0.42-1.436-0.192
		c-0.465,0.228-0.795,0.666-1.036,1.124c-0.478,0.909-0.674,1.964-0.555,2.984c0.038,0.33,0.12,0.677,0.357,0.91
		c0.174,0.17,0.414,0.262,0.582,0.438c0.395,0.414,0.21,1.154-0.246,1.499c-0.456,0.345-1.074,0.381-1.643,0.323
		c-2.302-0.235-4.252-1.731-6.065-3.169c-0.278-0.221-0.562-0.448-0.746-0.752c-0.182-0.302-0.251-0.657-0.317-1.003
		c-0.7-3.681-1.385-7.58-0.089-11.096c0.677-1.837,1.694-3.568,2.841-5.154c0.924-1.278,1.848-2.556,2.771-3.833
		c1.15-1.591,2.351-3.335,2.319-5.298c-0.062-3.836,1.728-7.602,1.981-11.43c0.08-1.213,0.014-2.449,0.316-3.626
		c0.203-0.792,0.569-1.536,0.761-2.331c0.232-0.962,0.202-1.973,0.439-2.935c0.558-2.263,2.723-4.027,5.052-4.117
		c3.11-0.119,6.001-2.599,8.533-4.41c0.787-0.563,1.53-1.188,2.325-1.74C287.879,67.109,291.642,66.979,294.141,64.902z"/>
</g>
<g id="&#xB808;&#xC774;&#xC5B4;_18">
	<path style="fill:none;stroke:#000000;stroke-miterlimit:10;" d="M292.009,66.177c1.413-1.864,3.024-4.266,3.821-6.465
		c0.424-1.169,0.659-2.401,1.119-3.557c1.464-3.677,4.953-6.081,8.255-8.262"/>
</g>
<g id="&#xB808;&#xC774;&#xC5B4;_19">
	<path style="fill:none;stroke:#000000;stroke-miterlimit:10;" d="M294.741,231.779c-0.887,0.542-1.18,1.671-1.398,2.688
		c-0.542,2.537-1.086,5.157-0.599,7.705c0.076,0.4,0.193,0.821,0.498,1.091c0.277,0.246,0.66,0.323,1.025,0.385
		c1.883,0.32,3.795,0.474,5.705,0.46c1.171-0.009,2.351-0.08,3.508,0.099c2.28,0.352,4.328,1.647,6.604,2.02
		c1.265,0.207,2.558,0.122,3.836,0.03c3.502-0.253,7-0.553,10.498-0.853c0.399-0.862,0.058-1.857-0.428-2.673
		s-1.242-1.435-2.022-1.976c-4.224-2.927-9.427-3.955-14.402-5.246C303.265,234.393,298.972,233.136,294.741,231.779z"/>
</g>
<g id="&#xB808;&#xC774;&#xC5B4;_20">
	<path style="fill:none;stroke:#000000;stroke-miterlimit:10;" d="M294.265,231.803c-0.134-0.944,0.259-1.888,0.776-2.69
		c0.517-0.801,1.165-1.516,1.635-2.346c0.551-0.972,0.84-2.068,1.123-3.149c0.66-2.522,1.325-5.074,1.36-7.681
		c0.137-10.149,3.398-21.048,1.834-31.076"/>
</g>
<g id="&#xB808;&#xC774;&#xC5B4;_21">
	<path style="fill:none;stroke:#000000;stroke-miterlimit:10;" d="M307.332,235.408c-0.032-1.694-0.063-3.388-0.095-5.082
		c-0.026-1.372-0.051-2.747,0.084-4.112c0.17-1.716,0.591-3.396,1.011-5.069c1.082-4.307,2.163-8.613,3.245-12.92
		c0.674-2.682,0.697-5.675,1.781-8.219c0.411-0.965,0.925-1.887,1.278-2.875c0.321-0.898,0.503-1.839,0.685-2.775
		c0.41-2.116,0.821-5.056,1.231-7.173"/>
</g>
<g id="&#xB808;&#xC774;&#xC5B4;_22">
	<path style="fill:none;stroke:#000000;stroke-miterlimit:10;" d="M267.801,144.811c-0.54,0.454-1.076,0.947-1.743,1.174
		c-0.464,0.158-0.963,0.176-1.453,0.187c-4.797,0.111-9.606-0.275-14.324-1.15c-1.669-0.309-3.619-0.94-4.072-2.576
		c-0.322-1.161,0.308-2.418,1.24-3.183s2.114-1.138,3.267-1.487c5.355-1.619,10.967-3.082,16.489-2.183
		c2.488,0.405,4.9,1.285,7.416,1.444c0.675,0.043,1.364,0.035,2.011,0.234c0.647,0.199,1.262,0.657,1.433,1.311
		c0.522,2.002-3.144,2.284-4.283,2.718C271.612,142.128,269.579,143.316,267.801,144.811z"/>
</g>
<g id="&#xB808;&#xC774;&#xC5B4;_23">
	<path style="fill:none;stroke:#000000;stroke-miterlimit:10;" d="M266.025,146.205c3.027,3.331,6.109,6.612,9.246,9.841
		c3.212,3.307,5.708,7.071,8.634,10.634c2.154,2.623,4.351,5.221,6.792,7.58c5.873,5.677,10.548,12.944,18.369,15.298
		c0.823,0.248,1.677,0.463,2.532,0.382c1.332-0.127,2.482-0.948,3.561-1.741c0.993-0.73,2.016-1.493,2.62-2.568
		c0.657-1.169,0.739-2.564,0.806-3.904c0.042-0.852,0.171-1.478,0.354-2.311c0.196-0.888,0.392-1.781,0.426-2.69
		c0.075-2.003-0.638-3.943-1.378-5.806c-1.544-0.103-3.259-0.09-4.803-0.193c-2.323-0.155-4.665-0.313-6.913-0.919
		c-2.313-0.624-4.471-1.708-6.611-2.784c-1.243-0.625-2.49-1.253-3.648-2.023c-2.182-1.451-4.001-3.373-5.8-5.278
		c-1.069-1.133-2.236-2.491-2.818-3.935c-0.458-1.137-0.917-2.273-1.375-3.41c-0.546-1.353-1.13-2.762-2.242-3.708
		c-1.253-1.066-2.273-2.516-3.589-3.504c-0.689-0.517-1.454-0.968-1.968-1.659c-0.69-0.927-0.824-2.141-0.935-3.292"/>
</g>
<g id="&#xB808;&#xC774;&#xC5B4;_24">
	<path style="fill:none;stroke:#000000;stroke-miterlimit:10;" d="M281.058,145.717c-0.403-5.066-0.582-10.15-0.535-15.233
		c0.028-3.046,0.253-6.386,2.345-8.6c0.811-0.859,1.907-1.559,2.235-2.694c0.255-0.882-0.259-1.928-0.37-2.84
		c-0.183-1.51,0.116-3.073-0.273-4.544c-0.793-3.003-0.611-6.095-0.703-9.199c-0.084-2.825-0.069-5.79,1.268-8.28
		c0.107-0.198,0.278-0.407,0.356-0.618c0.9-2.419,2.369-4.233,3.111-6.547c0.584-1.823,0.546-3.816,1.259-5.592"/>
</g>
<g id="&#xB808;&#xC774;&#xC5B4;_25">
	<path style="fill:none;stroke:#000000;stroke-miterlimit:10;" d="M317.521,59.712c-0.123,1.998,0.425,4.031,1.535,5.697
		c0.467,0.701,1.03,1.339,1.453,2.068c0.495,0.854,0.784,1.809,1.069,2.754c0.479,1.589,0.96,3.189,1.154,4.837
		c0.217,1.839,0.072,3.702,0.183,5.55c0.098,1.631,0.422,3.309,1.286,4.679c0.262,0.416,0.375,0.914,0.374,1.406
		c-0.005,1.864-0.018,3.671-0.021,5.557c-0.002,1.866-0.006,3.744-0.317,5.581c-0.33,1.949-1.726,4.748-3.07,6.198
		c-0.665,0.717-1.235,1.401-1.887,2.193c-0.751,0.913-1.504,1.828-2.367,2.636c-0.831,0.778-1.76,1.453-2.542,2.28
		c-1.621,1.715-2.53,4.016-2.867,6.352c-0.338,2.336-0.14,4.718,0.222,7.05c0.881,5.678,0.391,11.295,2.473,16.65
		c1.941,4.993,2.776,10.302,4.814,15.252c1.202,2.919,1.24,6.111,0.419,9.16c-0.305,1.131-0.02,2.596-0.559,3.791
		c-0.295,0.654-0.87,1.425-1.585,1.479"/>
</g>
</svg>
