<?xml version="1.0" encoding="iso-8859-1"?>
<!-- Generator: Adobe Illustrator 24.0.1, SVG Export Plug-In . SVG Version: 6.00 Build 0)  -->
<svg version="1.1" xmlns="http://www.w3.org/2000/svg" xmlns:xlink="http://www.w3.org/1999/xlink" x="0px" y="0px"
	 viewBox="0 0 464 261" style="enable-background:new 0 0 464 261;" xml:space="preserve">
<g id="&#xB808;&#xC774;&#xC5B4;_1" style="display:none;">
	<image style="display:inline;overflow:visible;" width="464" height="261" xlink:href="../4.png" >
	</image>
</g>
<g id="&#xB808;&#xC774;&#xC5B4;_2">
	<path style="fill:none;stroke:#000000;stroke-miterlimit:10;" d="M177.514,59.93c-2.456-1.778-4.923-3.563-7.612-4.965
		c-1.138-0.594-2.325-1.124-3.325-1.929c-0.731-0.588-1.378-1.33-2.26-1.648c-1.016-0.366-2.242-0.046-2.951,0.769
		c0.042-1.409,0.079-2.855-0.386-4.185c-0.659-1.886-2.232-3.29-3.252-5.007c-0.994-1.674-1.448-3.663-1.278-5.602
		c0.16-1.831,0-3.671-0.099-5.507c-0.044-0.817-0.086-1.652,0.14-2.438c0.272-0.946,0.914-1.746,1.639-2.412
		c0.893-0.82,1.923-1.474,2.95-2.119c1.07-0.673,2.142-1.342,3.214-2.012c0.924-0.577,1.854-1.157,2.862-1.57
		c2.803-1.149,6.147-0.878,8.728,0.708c3.314,2.037,5.067,5.809,6.639,9.366c0.327,0.741,0.659,1.5,0.72,2.307
		c0.077,1.019-0.147,2.33,0.755,2.809c0.788,0.418,1.633,0.792,2.457,1.134c0.188,0.078,0.38,0.159,0.525,0.302
		c0.249,0.247,0.305,0.623,0.337,0.972c0.06,0.645,0.082,1.294,0.068,1.942c-0.008,0.376-0.022,0.78,0.184,1.095
		c0.191,0.293,0.529,0.445,0.828,0.625c0.508,0.305,0.945,0.728,1.268,1.225c-0.075,1.666-0.144,3.345-0.219,5.011
		c-0.023,0.506-0.047,1.022-0.223,1.497c-0.126,0.341-0.326,0.649-0.536,0.946c-0.608,0.861-1.311,1.655-2.092,2.363
		c-1.525,1.382-4.143,0.593-6.191,0.387c-0.297,0.934,0.061,1.966-0.154,2.923C179.956,58.222,178.657,59.237,177.514,59.93z"/>
</g>
<g id="&#xB808;&#xC774;&#xC5B4;_3">
	<path style="fill:none;stroke:#000000;stroke-miterlimit:10;" d="M178.407,53.6c0.721,0.142,1.442,0.284,2.164,0.427"/>
</g>
<g id="&#xB808;&#xC774;&#xC5B4;_4">
	<path style="fill:none;stroke:#000000;stroke-miterlimit:10;" d="M153.086,66.599c0.011-0.518,0.309-0.982,0.77-1.218
		c1.982-1.014,3.838-2.273,5.512-3.741c0.491-0.43,0.97-0.881,1.529-1.218c1.958-1.18,4.461-0.748,6.656-0.106
		c2.341,0.685,4.698,1.612,6.382,3.399c1.605,1.703,2.102,4.153,1.483,6.41c-0.387,1.414-0.581,2.977-1.462,4.118
		c-0.493,0.638-1.131,1.146-1.787,1.615c-1.261,0.9-2.647,1.688-4.173,1.958c-1.638,0.29-3.321-0.034-4.982,0.049
		c-1.534,0.077-3.497,1.202-4.357,2.475c-1.097,1.624-2.171,3.233-3.289,4.853l-2.457,3.558c-1.042,1.509-2.524,2.601-4.135,3.477
		c-0.605,0.329-1.042,0.954-1.589,1.4c-0.361,0.294-0.732,0.635-0.827,1.09c-0.079,0.378,0.047,0.763,0.116,1.143
		c0.146,0.807,0.025,1.66-0.34,2.395c-0.297,0.598-0.748,1.116-0.991,1.738c-1.804,4.619-2.149,9.674-1.595,14.602
		c0.172,1.534-0.788,2.853-1.38,4.278c-0.225,0.541-0.474,1.112-0.385,1.692c0.042,0.272,0.156,0.527,0.249,0.786
		c0.248,0.693,0.343,1.44,0.277,2.172c-0.326,3.614,0.694,7.157,0.955,10.776c0.064,0.891,0.267,1.779,0.721,2.547
		c0.355,0.6,0.425,1.169,0.84,1.758c0.21,0.298,0.457,0.578,0.595,0.916c0.121,0.299,0.15,0.626,0.203,0.944
		c0.234,1.414,0.962,2.744,0.958,4.178c-0.007,2.338-0.132,4.764-0.758,7.017c-0.119,0.428-0.258,0.865-0.545,1.203
		c-0.288,0.338-0.761,0.556-1.184,0.42c-0.077-0.025-0.149-0.06-0.218-0.102c-0.542-0.45-1.081-0.898-1.623-1.349
		c-0.867-0.829-1.865-1.557-2.644-2.488c-0.558-0.667-0.995-1.426-1.435-2.176c-0.378-0.643-0.755-1.286-1.133-1.929
		c-0.215-0.367-0.429-0.738-0.565-1.142c-0.092-0.275-0.147-0.56-0.189-0.847c-0.204-1.548-0.409-3.096-0.613-4.645
		c-0.581-5.375-2.443-10.695-2.791-16.099c-0.187-2.908,0.524-5.711,0.295-8.632c-0.242-3.093,0.129-6.237,1.201-9.148
		c0.443-1.203,0.581-2.592,0.65-3.846c0.059-1.078-0.135-2.153-0.544-3.152c-1.636-3.997-1.735-8.594-0.295-12.663
		c0.39-1.102,1.214-2.156,1.857-3.133c0.273-0.416,0.547-0.833,0.776-1.275c0.249-0.482,0.444-0.992,0.711-1.464
		c1.011-1.784,2.926-2.827,4.743-3.777c2.759-1.443,5.605-3.266,8.348-4.644c0.684-0.344,1.318-0.792,1.781-1.402
		C153.201,68.323,153.067,67.501,153.086,66.599z"/>
</g>
<g id="&#xB808;&#xC774;&#xC5B4;_5">
	<path style="fill:none;stroke:#000000;stroke-miterlimit:10;" d="M131.635,236.538c-0.925,0.002-1.527,0.957-1.87,1.816
		c-0.71,1.779-1.104,3.684-1.161,5.598c-0.018,0.619,0.019,1.297,0.429,1.762c0.368,0.418,0.95,0.564,1.499,0.654
		c1.242,0.203,2.505,0.227,3.762,0.303c5.559,0.334,11.042,1.674,16.611,1.7c2.53,0.012,5.121,0.166,7.645,0.341
		c1.118,0.078,2.466,0.045,3.058-0.906c0.344-0.553,0.303-1.283,0.028-1.872s-0.755-1.059-1.264-1.464
		c-1.15-0.914-2.505-1.568-3.936-1.9c-2.988-0.693-5.866-1.865-8.785-2.808c-0.875-0.283-1.752-0.566-2.592-0.94
		c-0.766-0.341-1.497-0.757-2.266-1.092C139.313,236.217,135.428,236.531,131.635,236.538z"/>
</g>
<g id="&#xB808;&#xC774;&#xC5B4;_6">
	<path style="fill:none;stroke:#000000;stroke-miterlimit:10;" d="M131.5,236.5c2.327-2.93,4.305-6.457,4.895-10.151
		c0.385-2.414-0.009-5.046,1.193-7.174c0.8-1.417,0.595-3.202,0.937-4.792c0.115-0.533,0.23-1.068,0.426-1.576
		c0.231-0.596,0.569-1.143,0.883-1.699c0.725-1.284,1.329-2.636,1.803-4.032c1.604-4.728,5.746-8.36,7.051-13.179
		c0.441-1.627,0.525-3.357,1.196-4.904c0.857-1.975,2.439-3.516,3.801-5.183s2.59-3.601,2.675-5.752
		c0.041-1.032-0.185-2.054-0.41-3.062c-0.383-1.717-0.766-3.434-1.149-5.151"/>
</g>
<g id="&#xB808;&#xC774;&#xC5B4;_7">
	<path style="fill:none;stroke:#000000;stroke-miterlimit:10;" d="M144.619,238.545c-0.152-3.09,0.396-6.166,0.942-9.211
		c0.298-1.66,0.6-3.336,1.24-4.896c0.554-1.349,1.388-2.622,2.536-3.507c0.39-0.3,0.643-0.751,0.747-1.232
		c0.452-2.11,0.849-4.182,1.318-6.303c0.195-0.879,0.394-1.772,0.824-2.563c0.651-1.2,1.776-2.07,2.555-3.191
		c3.138-4.52,6.966-8.743,8.401-14.134c0.464-1.744,1.416-3.315,2.843-4.42c1.875-1.452,3.636-3.418,5.329-5.058
		c0.522-0.505,1.047-1.014,1.472-1.603c1.14-1.579,1.472-3.711,0.866-5.562"/>
</g>
<g id="&#xB808;&#xC774;&#xC5B4;_8">
	<path style="fill:none;stroke:#000000;stroke-miterlimit:10;" d="M137.36,146.402c-1.352-0.272-2.606,0.742-3.533,1.764
		c-2.794,3.08-4.181,7.007-6.25,10.615c-1.427,2.489-3.816,4.241-5.979,6.125c-0.392,0.341-0.784,0.696-1.046,1.144
		c-0.263,0.448-0.38,1.01-0.189,1.492c2.765,0.024,5.53-0.049,8.29-0.219c2.013-2.566,3.901-5.078,6.047-7.534
		c0.991-1.134,1.982-2.268,2.972-3.401c0.402-0.46,0.805-0.921,1.256-1.333c1.324-1.209,3.042-1.96,4.819-2.199"/>
</g>
<g id="&#xB808;&#xC774;&#xC5B4;_9">
	<path style="fill:none;stroke:#000000;stroke-miterlimit:10;" d="M128.31,167.45c1.857,0.791,3.941,1.042,5.933,0.715
		c0.499-0.082,1.004-0.204,1.427-0.482c0.422-0.277,0.733-0.688,1.082-1.052c1.417-1.479,3.586-2.197,5.606-1.856
		c0.926,0.156,1.804,0.517,2.672,0.874c1.228,0.506,2.456,1.011,3.685,1.517c3.179,1.309,6.361,2.619,9.446,4.136
		c4.728,2.325,9.627,3.7,14.722,5.042c2.593,0.683,5.318,1.294,7.396,2.99c2.881,2.351,6.598,2.48,9.884,4.22
		c1.161,0.614,2.288,1.435,3.6,1.51c1.812,0.104,3.396-1.271,4.354-2.812c0.958-1.541,1.512-3.313,2.538-4.811
		c2.399-3.505,0.995-8.425-0.866-12.243c-0.687-1.409-1.597-2.748-2.87-3.662c-3.755,2.504-8.365,3.399-12.877,3.511
		c-4.512,0.112-8.997-0.708-13.384-1.767c-4.194-1.013-8.071-3.288-12.135-4.736c-1.429-0.509-2.916-0.863-4.294-1.499
		c-1.079-0.498-2.074-1.163-3.131-1.707c-2.239-1.153-3.079-2.855-5.598-2.839"/>
</g>
<g id="&#xB808;&#xC774;&#xC5B4;_10">
	<path style="fill:none;stroke:#000000;stroke-miterlimit:10;" d="M145.962,73.367c0.288-0.898,0.653-1.772,1.091-2.608
		c1.232-2.354,3.011-4.368,4.771-6.358c0.693-0.784,1.401-1.591,1.772-2.569c0.224-0.59,0.316-1.221,0.498-1.825
		c0.182-0.604,0.474-1.208,0.988-1.574c2.392-1.705,4.101-4.354,6.312-6.287"/>
</g>
<g id="&#xB808;&#xC774;&#xC5B4;_11">
	<path style="fill:none;stroke:#000000;stroke-miterlimit:10;" d="M177.383,59.429c1.229,2.172,2.486,4.43,2.707,6.916
		c0.108,1.221-0.04,2.453,0.031,3.677c0.071,1.224,0.403,2.504,1.287,3.354c1.32,1.268,1.923,3.066,2.737,4.706
		c0.977,1.967,1.303,4.183,1.616,6.357c0.69,4.793,1.04,9.622,0.729,14.454c-0.057,0.881-0.021,1.671-0.144,2.546
		c-0.214,1.523-0.717,2.989-1.265,4.426c-0.554,1.452-1.156,2.885-1.806,4.296c-2.116,4.594-5.368,8.529-7.725,13.004
		c-1.612,3.061-0.579,7.14,0.958,10.24c2.799,5.647,7.874,9.74,12.282,14.245c1.922,1.964,4.247,3.693,5.821,5.946
		c1.574,2.253,2.656,4.943,2.544,7.689"/>
</g>
<g id="&#xB808;&#xC774;&#xC5B4;_12">
	<path style="fill:none;stroke:#000000;stroke-miterlimit:10;" d="M179.424,62.739c2.109,1.021,4.027,2.434,5.628,4.145
		c0.492,0.526,0.964,1.095,1.211,1.772c0.197,0.541,0.242,1.124,0.36,1.687c0.297,1.415,1.055,2.685,1.801,3.924
		c0.546,0.907,1.127,1.85,2.035,2.395c4.687,2.811,6.795,8.673,11.722,11.036c3.705,1.777,7.247,3.747,10.71,5.958
		c0.73,0.466,1.46,0.932,2.164,1.436c0.648,0.463,1.273,0.958,1.934,1.401c0.901,0.604,1.864,1.108,2.825,1.612
		c1.423,0.745,2.845,1.491,4.268,2.236c1.4,0.733,2.911,0.888,4.153,1.865c0.81,0.637,1.51,1.4,2.184,2.179
		c2.767,3.197,5.152,6.725,7.088,10.483c4.361,2.652,8.391,5.677,12.443,8.781c0.872,0.668,1.837,1.537,1.729,2.63
		c-0.029,0.293-0.149,0.59-0.382,0.771c-0.348,0.268-0.837,0.215-1.271,0.145c-2.995-0.48-6.043-1.137-8.594-2.777
		c-0.665-0.428-1.289-0.917-1.911-1.406c-0.968-0.761-1.937-1.522-2.905-2.283c-1.125-0.884-2.259-1.774-3.537-2.416
		c-1.278-0.643-2.726-1.028-4.143-0.836c-1.113-0.192-2.308-0.355-3.421-0.547c-0.526-0.091-1.067-0.187-1.522-0.466
		c-0.953-0.587-1.276-1.792-1.569-2.872c-0.326-1.199-0.712-2.382-1.157-3.542c-0.608-1.587-1.419-3.236-2.907-4.057
		c-0.999-0.551-2.176-0.652-3.313-0.743c-2.614-0.208-5.281-1.287-7.648-2.417c-0.897-0.428-1.756-0.93-2.615-1.431
		c-2.308-1.347-4.615-2.693-6.923-4.04c-1.278-0.746-2.584-1.503-4.033-1.803c-0.778-0.161-1.577-0.186-2.368-0.269
		c-1.683-0.176-3.339-0.617-4.886-1.302"/>
</g>
<g id="&#xB808;&#xC774;&#xC5B4;_13">
	<path style="fill:none;stroke:#000000;stroke-miterlimit:10;" d="M303.199,47.363c-0.842-0.956-1.683-1.912-2.525-2.869
		c-0.322-0.366-0.648-0.737-0.875-1.17c-0.434-0.827-0.467-1.801-0.456-2.735c0.014-1.175,0.015-2.458-0.219-3.609
		c-0.091-0.444-0.221-0.88-0.295-1.327c-0.187-1.132-0.002-2.293,0.257-3.411c0.288-1.24,0.682-2.489,1.464-3.493
		c0.89-1.142,1.719-2.426,2.581-3.589c0.711-0.959,1.426-1.923,2.287-2.749c1.675-1.608,4.004-2.662,6.307-2.362
		c1.696,0.221,3.213,1.131,4.674,2.022c0.851,0.518,1.715,1.048,2.374,1.796c1.461,1.657,3.121,2.882,4.575,4.545
		c1.15,1.316,2.267,2.667,3.219,4.133c0.355,0.546,0.689,1.113,1.14,1.583c0.658,0.687,1.529,1.133,2.419,1.472
		c0.87,0.332,1.864,0.646,2.298,1.47c-0.972,0.332-1.81,0.995-2.391,1.843c-0.214,0.312-0.393,0.656-0.461,1.028
		c-0.173,0.944,0.407,1.89,1.17,2.472c0.29,0.221,0.624,0.422,0.777,0.753c0.122,0.264,0.119,0.592,0.316,0.806
		c0.179,1.34-0.727,2.498-0.774,3.849c-0.018,0.503,0.073,1.003,0.15,1.501c0.177,1.146,0.281,2.332-0.009,3.456
		c-0.29,1.123-1.038,2.184-2.127,2.582c-1.292,0.471-2.704-0.242-4.048-0.535c-0.953-0.207-1.938-0.263-2.908-0.163
		c-0.167,0.017-0.35,0.047-0.46,0.174c-0.09,0.104-0.111,0.25-0.128,0.387c-0.08,0.627-0.182,1.25-0.308,1.869
		c-0.164,0.812-0.381,1.645-0.902,2.289c-0.307,0.379-0.757,0.692-1.243,0.66c-0.247-0.016-0.48-0.12-0.702-0.231
		c-1.004-0.505-1.907-1.21-2.64-2.063C312.202,53.633,306.782,51.434,303.199,47.363z"/>
</g>
<g id="&#xB808;&#xC774;&#xC5B4;_14">
	<path style="fill:none;stroke:#000000;stroke-miterlimit:10;" d="M322.799,54.609c-0.546,0.02-1.091,0.05-1.636,0.09
		c-0.241,0.018-1.483,0.038-1.719,0.09"/>
</g>
<g id="&#xB808;&#xC774;&#xC5B4;_15">
	<path style="fill:none;stroke:#000000;stroke-miterlimit:10;" d="M298.483,61.127c3.673-1.226,7.766-1.152,11.393,0.206
		c0.867,0.325,1.711,0.722,2.483,1.232c1.545,1.021,2.784,2.497,3.522,4.195c0.395,0.91,0.651,1.905,0.549,2.892
		c-0.137,1.33-0.898,2.502-1.637,3.617c-0.495,0.746-1.001,1.505-1.696,2.068c-0.656,0.532-1.453,0.866-2.265,1.099
		c-4.191,1.205-8.78-0.12-12.994,1.001c-5.91,1.572-12.049,3.138-16.467,7.368c-0.355,0.34-0.709,0.702-0.9,1.156
		c-0.667,1.588-1.159,3.165-1.343,4.878c-0.06,0.558-0.082,1.128-0.263,1.66c-0.194,0.569-0.559,1.061-0.918,1.543
		c-1.08,1.447-2.16,2.894-3.24,4.341c-1.553,2.081-2.46,4.532-3.302,6.988c-1.378,4.019-1.386,8.503-1.379,12.752
		c0.002,0.886,0.021,1.778,0.192,2.648c0.25,1.27,0.822,2.494,0.787,3.787c-0.008,0.299-0.053,0.61-0.219,0.86
		c-0.344,0.52-1.128,0.602-1.674,0.3s-0.88-0.884-1.072-1.477c-0.191-0.593-0.267-1.218-0.448-1.815
		c-0.044-0.144-0.102-0.298-0.23-0.378c-0.188-0.117-0.433-0.025-0.626,0.085c-0.486,0.277-0.914,0.657-1.245,1.108
		c-0.685,0.932-0.684,2.267-0.501,3.409c0.065,0.404,0.146,0.88-0.14,1.172c-0.203,0.207-0.52,0.24-0.809,0.26
		c-2.23,0.152-4.742,0.161-6.35-1.391c-1.186-1.144-1.577-2.881-1.692-4.525c-0.179-2.562,0.25-5.322,1.964-7.234
		c1.045-1.166,1.44-2.691,2.209-4.055c1.675-2.968,3.357-5.953,4.51-9.159c1.007-2.801,1.02-5.903,0.921-8.877
		c1.172-1.758,1.209-4.039,1.28-6.15c0.071-2.112-0.021-4.262,0.547-6.297c0.67-2.403,2.261-4.518,4.322-5.924
		s4.57-2.114,7.065-2.108c2.497-1.505,5.002-3.071,7.499-4.577c2.598-1.567,5.215-3.142,8.055-4.21
		C295.878,63.008,297.526,62.419,298.483,61.127z"/>
</g>
<g id="&#xB808;&#xC774;&#xC5B4;_16">
	<path style="fill:none;stroke:#000000;stroke-miterlimit:10;" d="M270.346,238.858c-0.382,1.315-0.372,2.71-0.306,4.079
		c0.022,0.446,0.052,0.904,0.244,1.307c0.342,0.719,1.118,1.114,1.862,1.396c1.132,0.429,2.317,0.717,3.52,0.855
		c1.06,0.122,2.129,0.128,3.195,0.133c7.798,0.041,15.596,0.081,23.394,0.122c0.486,0.003,1.073-0.054,1.287-0.49
		c-0.306-1.644-1.702-2.915-3.255-3.536c-1.553-0.62-3.26-0.702-4.931-0.777c-2.277-0.101-4.554-0.202-6.83-0.304
		c-1.036-0.046-2.08-0.092-3.104,0.068c-0.377,0.059-0.759,0.145-1.136,0.085c-1.135-0.18-1.63-1.488-2.344-2.389
		c-0.993-1.254-2.599-1.818-4.116-2.322c-0.8-0.266-1.6-0.531-2.4-0.797c-0.974-0.324-2.231-0.927-3.189-0.315
		C271.298,236.575,270.646,237.826,270.346,238.858z"/>
</g>
<g id="&#xB808;&#xC774;&#xC5B4;_17">
	<path style="fill:none;stroke:#000000;stroke-miterlimit:10;" d="M272.482,235.639c0.605-2.185,1.669-4.241,3.104-5.996
		c1.853-2.265,3.114-4.983,4.176-7.709c1.32-3.387,2.262-6.922,2.814-10.516c0.361-2.353,2.383-4.102,3.149-6.356
		c0.484-1.422,0.677-3.085,1.841-4.034c2.344-1.913,2.72-5.441,4.544-7.855c1.618-2.142,2.617-4.641,4.005-6.939
		c1.262-2.089,1.745-4.684,1.682-7.124c-0.077-2.939,0.293-6.083-0.559-8.897"/>
</g>
<g id="&#xB808;&#xC774;&#xC5B4;_18">
	<path style="fill:none;stroke:#000000;stroke-miterlimit:10;" d="M281.923,239.797c1.274-1.639,3.203-4.544,3.711-6.557
		c0.557-2.21,0.615-4.555,1.498-6.656c0.531-1.262,1.339-2.384,2.14-3.494c0.946-1.31,1.892-2.621,2.838-3.931
		c0.461-0.638,0.928-1.289,1.176-2.036c0.255-0.77,0.262-1.598,0.444-2.389c0.297-1.29,1.076-2.462,2.15-3.235
		c0.97-0.699,11.648-15.474,13.346-18.037c0.617-0.932,1.227-1.874,1.975-2.704c0.931-1.031,2.072-1.884,2.831-3.047
		c1.337-2.049,1.264-4.678,1.144-7.122"/>
</g>
<g id="&#xB808;&#xC774;&#xC5B4;_19">
	<path style="fill:none;stroke:#000000;stroke-miterlimit:10;" d="M274.976,168.567c-3.903-0.693-7.858-1.096-11.82-1.202
		c-0.14-0.004-0.29-0.01-0.404-0.093c-0.291-0.21-0.111-0.668,0.099-0.959c1.916-2.655,4.614-4.866,5.619-7.982
		c0.196-0.608,0.323-1.241,0.578-1.827c0.419-0.962,1.161-1.75,1.971-2.417c1.58-1.302,2.465-3.459,3.728-5.07
		c0.288-0.368,0.588-0.745,0.996-0.972c0.861-0.48,1.93-0.168,2.86,0.157c2.273,0.796,4.618,1.674,6.297,3.4
		c0.407,0.419,0.788,0.937,0.766,1.521c-0.03,0.808-0.786,1.366-1.446,1.832C279.754,158.108,276.576,163.34,274.976,168.567z"/>
</g>
<g id="&#xB808;&#xC774;&#xC5B4;_20">
	<path style="fill:none;stroke:#000000;stroke-miterlimit:10;" d="M274.715,168.519c0.973,0.723,2.408,0.405,3.371-0.331
		s1.607-1.802,2.376-2.739c0.769-0.937,1.785-1.804,2.995-1.87c0.907-0.049,1.769,0.36,2.58,0.769
		c6.399,3.22,12.504,6.989,18.599,10.753c5.196,3.208,10.337,5.817,15.998,8.104c5.662,2.287,12.097,3.383,17.871,1.397
		c3.616-1.243,5.101-5.877,5.699-9.654c0.583-3.683,0.047-7.552-0.336-11.261c-0.111-1.078-0.266-2.197-0.869-3.097
		c-1.734-0.356-3.519-0.564-5.265-0.271c-1.746,0.293-3.447,1.081-4.619,2.408c-1.031,1.168-1.803,2.828-3.333,3.118
		c-0.512,0.097-1.039,0.016-1.551-0.076c-2.711-0.488-5.365-1.293-7.891-2.392c-7.892-3.434-16.97-2.669-25.179-5.255
		c-0.56-0.176-0.94-0.873-1.474-1.119c-1.441-0.666-2.89-1.317-4.338-1.968c-1.218-0.548-2.437-1.096-3.655-1.644"/>
</g>
<g id="&#xB808;&#xC774;&#xC5B4;_21">
	<path style="fill:none;stroke:#000000;stroke-miterlimit:10;" d="M287.245,153.694c-0.144-1.853,0.532-3.658,0.883-5.483
		c0.55-2.855,0.298-5.861-0.722-8.584c-1.546-4.13-1.833-8.656-2.873-12.942c-0.531-2.187-0.37-4.606-0.428-6.856
		c-0.078-3.029-0.092-6.287,1.629-8.78c1.354-1.961,0.455-4.695,0.771-7.057c0.411-3.068,0.119-6.196,0.5-9.268
		c0.321-2.584,0.306-5.263,1.353-7.648c0.454-1.034,1.064-1.991,1.672-2.943c1.163-1.822,2.326-3.644,3.49-5.465"/>
</g>
<g id="&#xB808;&#xC774;&#xC5B4;_22">
	<path style="fill:none;stroke:#000000;stroke-miterlimit:10;" d="M319.559,60.336c0.098,0.848,0.664,1.554,1.052,2.315
		c0.356,0.698,0.567,1.46,0.775,2.216c0.835,3.027,1.669,6.054,2.504,9.081c0.475,1.724,1.126,3.27,1.77,4.939
		c1.12,2.898,2.244,5.811,2.893,8.85c0.649,3.038,0.809,6.234-0.001,9.233c-0.459,1.7-0.232,3.57-0.657,5.279
		c-0.228,0.918-0.571,1.802-0.912,2.684c-0.546,1.409-1.091,2.817-1.637,4.226c-2.368,6.113-6.841,11.533-7.406,18.064
		c-0.119,1.376-0.183,2.774-0.182,4.156c0.001,0.7,0.015,1.406,0.173,2.088c0.352,1.521,1.375,2.785,2.368,3.99
		c2.058,2.497,4.294,4.588,6.539,6.919c0.477,0.495,0.954,0.99,1.471,1.442c1.114,0.974,2.396,1.733,3.622,2.563
		c4.495,3.043,8.292,7.11,11.019,11.804"/>
</g>
<g id="&#xB808;&#xC774;&#xC5B4;_23">
	<path style="fill:none;stroke:#000000;stroke-miterlimit:10;" d="M298.456,61.209c1.048-1.715,2.257-3.33,3.607-4.819
		c1.755-1.936,3.835-3.707,6.348-4.422"/>
</g>
</svg>
