<?xml version="1.0" encoding="iso-8859-1"?>
<!-- Generator: Adobe Illustrator 24.0.1, SVG Export Plug-In . SVG Version: 6.00 Build 0)  -->
<svg version="1.1" xmlns="http://www.w3.org/2000/svg" xmlns:xlink="http://www.w3.org/1999/xlink" x="0px" y="0px"
	 viewBox="0 0 464 261" style="enable-background:new 0 0 464 261;" xml:space="preserve">
<g id="&#xB808;&#xC774;&#xC5B4;_1" style="display:none;">
	<image style="display:inline;overflow:visible;" width="464" height="261" xlink:href="../5.png" >
	</image>
</g>
<g id="&#xB808;&#xC774;&#xC5B4;_2">
	<path style="fill:none;stroke:#000000;stroke-miterlimit:10;" d="M176.326,59.495c-1.747-0.339-3.232-1.448-4.649-2.526
		c-4.615-3.509-9.232-7.021-13.645-10.78c-0.551-0.469-1.122-0.976-1.352-1.662c-0.217-0.643-0.1-1.344-0.05-2.021
		c0.238-3.284-1.175-6.456-1.496-9.733c-0.157-1.6,0.124-3.517,1.545-4.268c1.64-0.867,2.587-2.663,3.883-3.991
		c1.287-1.319,2.662-2.691,4.437-3.185c1.788-0.497,3.683-0.022,5.537,0.06c1.678,0.074,3.447-0.161,4.969,0.55
		c1.464,0.684,2.411,2.114,3.281,3.476c0.83,1.299,1.669,2.616,2.145,4.082c0.454,1.401,0.562,2.897,1.026,4.295
		c0.464,1.398,1.416,2.772,2.843,3.139c0.55,0.141,1.215,0.17,1.526,0.645c0.133,0.202,0.17,0.451,0.193,0.691
		c0.172,1.85-0.331,3.924,0.757,5.43c0.277,0.384,0.646,0.704,0.859,1.127c0.172,0.343,0.23,0.731,0.273,1.112
		c0.14,1.255,0.136,2.55-0.261,3.748c-0.397,1.198-1.229,2.295-2.389,2.792c-1.399,0.6-3.013,0.263-4.514,0.519
		c-0.224,0.038-0.456,0.095-0.623,0.249c-0.176,0.162-0.25,0.403-0.324,0.63C179.57,56.074,178.284,58.263,176.326,59.495z"/>
</g>
<g id="&#xB808;&#xC774;&#xC5B4;_3">
	<path style="fill:none;stroke:#000000;stroke-miterlimit:10;" d="M176.843,52.365c1.775,0.07,1.477,0.058,3.27,0.128
		c1.026,0.04,2.053,0.081,3.079,0.036c0.77-0.034,1.539-0.059,2.309-0.029"/>
</g>
<g id="&#xB808;&#xC774;&#xC5B4;_4">
	<path style="fill:none;stroke:#000000;stroke-miterlimit:10;" d="M154.496,63.981c0.7-0.498,1.363-1.048,1.981-1.644
		c0.711-0.686,1.371-1.439,2.2-1.976c1.158-0.749,2.573-1.02,3.952-1.005c1.379,0.015,2.739,0.297,4.089,0.578
		c0.974,0.203,1.987,0.424,2.762,1.048c0.939,0.756,1.368,1.972,2.149,2.891c0.552,0.65,1.27,1.14,1.837,1.777
		c1.099,1.236,1.544,3,1.254,4.628s-1.286,3.101-2.637,4.055c-1.717,1.213-3.873,1.578-5.949,1.911
		c-1.319,0.212-2.364,0.975-3.669,1.259c-0.694,0.151-1.403,0.25-2.07,0.494c-2.161,0.79-3.494,2.911-4.664,4.893
		c-0.479,0.811-1.313,1.406-1.939,2.11c-1.833,2.059-3.686,4.137-5.932,5.734c-0.981,0.697-2.122,1.427-2.361,2.606
		c-0.524,2.582-0.779,5.192-1.517,7.721c-0.548,1.877-0.711,3.825-1.173,5.725c-0.269,1.104-0.743,2.146-1.081,3.231
		c-0.338,1.085-0.539,2.256-0.246,3.354c1.071,4.008,0.103,8.397-0.111,12.539c-0.098,1.896-0.207,3.922,0.754,5.559
		c0.666,1.134,1.629,2.069,1.667,3.383c0.014,0.494-0.06,0.989-0.015,1.481c0.118,1.294,1.019,2.356,1.779,3.41
		s1.438,2.369,1.037,3.605c-0.866,2.674-0.036,5.661-0.66,8.401c-0.15,0.659-0.487,1.452-1.163,1.475
		c-0.407,0.014-0.754-0.276-1.056-0.548c-1.364-1.23-2.728-2.459-4.092-3.689c-0.688-0.62-1.38-1.245-1.94-1.984
		c-0.432-0.57-0.778-1.199-1.122-1.826c-0.34-0.619-0.683-1.244-0.877-1.922c-0.314-1.095-0.223-2.261-0.377-3.39
		c-0.127-0.928-0.418-1.825-0.708-2.716c-0.251-0.771-0.501-1.542-0.752-2.313c-1.498-4.608,0.897-9.864-0.564-14.484
		c-0.39-1.232-1.051-2.409-1.102-3.7c-0.112-2.814,0.177-5.772,0.258-8.588c0.036-1.262,0.076-2.543,0.458-3.746
		c0.396-1.248,0.51-2.622,0.765-3.906c0.529-2.675-0.163-5.423-0.851-8.061c-0.346-1.325,0.216-2.813,0.284-4.181
		c0.057-1.156,0.117-2.326,0.461-3.431c0.344-1.105,1.008-2.156,2.017-2.724c1.051-2.106,2.98-3.916,4.705-5.518
		c2.415-2.242,4.853-4.503,7.687-6.185c1.201-0.713,2.332-1.892,3.46-2.715C152.722,66.649,153.184,64.914,154.496,63.981z"/>
</g>
<g id="&#xB808;&#xC774;&#xC5B4;_5">
	<path style="fill:none;stroke:#000000;stroke-miterlimit:10;" d="M146.754,70.828c0.66-2.098,2.324-3.716,3.333-5.671
		c0.232-0.449,0.43-0.917,0.688-1.352c0.312-0.527,0.709-0.998,1.103-1.467c0.905-1.075,1.81-2.15,2.715-3.224
		c2.622-3.114,5.829-5.744,9.149-8.101"/>
</g>
<g id="&#xB808;&#xC774;&#xC5B4;_6">
	<path style="fill:none;stroke:#000000;stroke-miterlimit:10;" d="M151.503,87.767c1.156,2.123,1.066,4.702,0.653,7.083
		c-0.526,3.035-1.527,5.988-2.956,8.717c-1.581,3.019-2.024,6.627-2.539,9.996c-0.274,1.787-0.427,3.623-1.129,5.29
		c-0.702,1.667-2.093,3.178-3.882,3.441"/>
</g>
<g id="&#xB808;&#xC774;&#xC5B4;_7">
	<path style="fill:none;stroke:#000000;stroke-miterlimit:10;" d="M131.005,236.57c-0.898,0.964-1.531,2.138-2.218,3.262
		c-0.396,0.648-0.817,1.291-1.073,2.006c-0.256,0.715-0.336,1.526-0.043,2.227c0.438,1.048,1.57,1.604,2.629,2.014
		c1.78,0.688,3.633,1.224,5.535,1.389c0.767,0.067,1.538,0.073,2.307,0.117c2.917,0.168,5.771,0.884,8.605,1.597
		c2.654,0.668,5.392-0.116,8.129-0.16c2.196-0.035,4.562-0.127,6.302-1.467c0.207-0.16,0.408-0.343,0.517-0.581
		c0.224-0.488-0.007-1.087-0.402-1.45c-0.395-0.363-0.921-0.541-1.431-0.707c-3.265-1.062-6.572-1.991-9.878-2.92
		c-0.664-0.187-1.33-0.373-2.008-0.502c-0.563-0.107-1.144-0.176-1.662-0.422c-0.573-0.272-1.025-0.74-1.464-1.198
		c-0.427-0.446-0.854-0.891-1.281-1.337c-0.337-0.351-0.765-0.759-1.237-0.877c-0.472-0.118-0.965-0.11-1.451-0.103
		c-1.105,0.018-2.209,0.036-3.314,0.054c-0.484,0.008-0.976,0.015-1.442-0.117c-0.53-0.15-0.994-0.47-1.501-0.683
		C133.492,236.24,132.227,236.475,131.005,236.57z"/>
</g>
<g id="&#xB808;&#xC774;&#xC5B4;_8">
	<path style="fill:none;stroke:#000000;stroke-miterlimit:10;" d="M130.452,237.026c-0.142-1.459-0.268-3.012,0.4-4.318
		c0.402-0.787,1.057-1.408,1.65-2.064c0.767-0.848,1.448-1.777,2.002-2.777c1.17-2.11,1.756-4.486,2.33-6.83
		c0.773-3.16,0.659-6.095,1.951-9.081c0.549-1.269,1.506-2.312,2.247-3.479c1.616-2.545,2.168-5.602,2.687-8.572
		c0.375-2.147,1.214-4.032,2.554-5.751c1.34-1.72,2.866-3.319,3.896-5.24c0.461-0.86,0.816-1.774,1.278-2.634
		c0.583-1.087,1.33-2.076,2.073-3.06c1.453-1.924,0.695-4.482,0.415-6.877c-0.261-2.232-1.009-4.521-0.354-6.671"/>
</g>
<g id="&#xB808;&#xC774;&#xC5B4;_9">
	<path style="fill:none;stroke:#000000;stroke-miterlimit:10;" d="M143.761,238.479c-0.411-1.362-0.151-2.839,0.288-4.192
		c0.438-1.354,1.052-2.654,1.365-4.042c0.413-1.832,0.286-3.738,0.447-5.61c0.161-1.871,0.684-3.837,2.085-5.088
		c4.463-3.986,5.978-10.332,9.674-15.038c2.495-3.177,3.762-7.064,5.69-10.614c1.348-2.482,2.736-5.015,4.83-6.911
		c1.31-1.186,2.945-2.195,3.537-3.859c0.559-1.571,0.034-3.357,0.517-4.954"/>
</g>
<g id="&#xB808;&#xC774;&#xC5B4;_10">
	<path style="fill:none;stroke:#000000;stroke-miterlimit:10;" d="M126.434,167.319c-0.907,0.028-1.809,0.223-2.646,0.573
		c-0.439,0.183-0.865,0.41-1.328,0.52c-0.679,0.161-1.39,0.061-2.078-0.054c-0.129-0.021-0.263-0.046-0.366-0.127
		c-0.121-0.095-0.174-0.253-0.194-0.406c-0.094-0.74,0.459-1.388,0.974-1.927c1.168-1.223,2.336-2.446,3.504-3.669
		c1.388-1.454,2.546-3.056,3.571-4.785c0.786-1.326,1.572-2.653,2.358-3.979c0.714-1.205,1.09-2.566,1.481-3.91
		c0.313-1.075,0.647-2.308,1.649-2.807c0.454-0.226,0.977-0.258,1.484-0.285c0.566-0.03,1.142-0.06,1.69,0.084
		c1.116,0.292,1.921,1.235,2.649,2.13c0.667,0.82,1.375,1.803,1.15,2.836c-0.109,0.499-0.425,0.924-0.733,1.331
		c-0.771,1.02-1.542,2.04-2.314,3.06c-0.406,0.537-0.682,1.09-1.117,1.605c-1.165,1.379-2.33,2.758-3.496,4.137
		c-0.423,0.501-0.848,1.003-1.324,1.454c-0.762,0.722-1.646,1.302-2.545,1.844c-0.355,0.214-0.718,0.426-1.017,0.713
		C127.269,166.154,127.152,167.296,126.434,167.319z"/>
</g>
<g id="&#xB808;&#xC774;&#xC5B4;_11">
	<path style="fill:none;stroke:#000000;stroke-miterlimit:10;" d="M125.916,167.101c2.079-0.707,4.218,1.5,6.372,1.076
		c1.021-0.201,1.828-0.96,2.574-1.685c0.903-0.878,1.807-1.756,2.71-2.635c0.278-0.271,0.564-0.546,0.916-0.71
		c0.673-0.314,1.484-0.164,2.14,0.183c0.656,0.347,1.197,0.871,1.766,1.348c6.956,5.836,17.762,4.669,25.077,10.048
		c1.224,0.9,2.318,1.964,3.501,2.917c1.687,1.359,3.545,2.486,5.397,3.608c2.091,1.268,4.369,1.956,6.796,2.253
		c2.014,0.247,4.052,0.157,6.078,0.067c1.358-0.06,2.716-0.121,4.072-0.205c0.916-0.057,1.843-0.127,2.711-0.428
		c0.762-0.264,1.453-0.698,2.116-1.157c1.689-1.172,3.242-2.538,4.619-4.063c0.098-2.315,0.299-4.839-0.898-6.824
		c-0.458-0.76-1.08-1.407-1.576-2.142c-0.646-0.957-1.074-2.06-1.241-3.203c-0.155-1.062-0.088-2.152-0.314-3.202
		c-0.225-1.049-0.836-2.113-1.854-2.455c-0.995,0.647-2.015,1.305-3.167,1.591c-0.889,0.221-1.834,0.213-2.691,0.536
		c-1.808,0.681-2.848,2.671-4.623,3.434c-1.171,0.503-2.518,0.402-3.756,0.098c-1.238-0.305-2.424-0.801-3.668-1.078
		c-1.784-0.397-3.684-1.076-5.489-1.365c-0.973-0.156-1.957-0.249-2.923-0.445c-1.141-0.231-2.248-0.604-3.352-0.975
		c-3.843-1.294-7.686-2.587-11.529-3.881c-3.422-1.152-6.853-2.306-10.388-3.04c-0.315-0.372-0.836-0.633-1.216-0.94
		c-0.54-0.436-0.887-1.064-1.37-1.562c-0.62-0.64-1.47-1.052-2.356-1.144"/>
</g>
<g id="&#xB808;&#xC774;&#xC5B4;_12">
	<path style="fill:none;stroke:#000000;stroke-miterlimit:10;" d="M196.826,160.161c-1.02-1.513-1.105-3.465-1.861-5.126
		c-0.54-1.185-1.405-2.187-2.258-3.171c-2.946-3.396-5.931-6.827-9.605-9.42c-0.954-0.673-1.958-1.294-2.776-2.127
		c-0.814-0.83-1.414-1.842-2.122-2.764c-1.219-1.59-2.766-2.924-3.844-4.613c-1.078-1.689-1.616-3.943-0.618-5.68
		c5.517-9.595,9.038-20.141,11.943-30.821c1.462-5.374,0.018-11.346-0.518-16.89c-0.096-0.995-0.218-2.002-0.588-2.93
		c-0.409-1.025-1.104-1.909-1.832-2.739c-1.315-1.499-2.771-2.88-3.953-4.486s-2.092-3.499-2.106-5.493
		c-0.01-1.562,0.512-3.215-0.147-4.632"/>
</g>
<g id="&#xB808;&#xC774;&#xC5B4;_13">
	<path style="fill:none;stroke:#000000;stroke-miterlimit:10;" d="M186.356,94.053c4.151,0.991,7.306,4.266,10.967,6.458
		c6.123,3.666,13.567,4.241,20.261,6.714c1.572,0.581,3.225,1.377,3.973,2.877c0.852,1.708,0.292,3.876,1.193,5.559
		c0.935,1.747,3.091,2.381,5.036,2.757c1.946,0.376,4.093,0.765,5.335,2.309c1.522,1.893,4.324,2.225,6.308,3.626
		c2.367,1.672,4.475,3.689,6.832,5.376c0.663,0.474,1.365,0.931,2.162,1.101c0.797,0.17,1.714-0.001,2.244-0.62
		c0.632-0.737,0.533-1.894,0.031-2.724c-0.502-0.831-1.322-1.411-2.118-1.966c-3.076-2.146-6.152-4.292-9.228-6.437
		c-1.183-0.825-2.391-1.675-3.225-2.852c-0.963-1.358-1.346-3.034-2.072-4.533c-2.067-4.263-6.617-6.638-10.87-8.724
		c-4.753-2.332-9.243-5.688-13.693-8.556c-1.357-0.875-2.697-1.783-4.125-2.536c-3.735-1.968-8.329-3.098-10.498-6.719
		c-2.407-4.018-5.941-7.69-8.268-11.755c-2.328-4.064-5.157-8.175-9.433-10.085"/>
</g>
<g id="&#xB808;&#xC774;&#xC5B4;_14">
	<path style="fill:none;stroke:#000000;stroke-miterlimit:10;" d="M316.883,55.791c-4.319-2.209-9.225-2.93-13.812-4.507
		c-0.34-0.117-0.69-0.246-0.949-0.496c-0.552-0.535-0.509-1.408-0.602-2.171c-0.258-2.115-1.78-3.815-3.029-5.541
		c-1.249-1.727-2.312-3.945-1.523-5.925c0.656-1.646,1.632-3.241,1.309-4.983c-0.151-0.815-0.491-1.639-0.304-2.447
		c0.188-0.811,0.861-1.405,1.498-1.942c1.02-0.859,2.07-1.736,3.331-2.17c0.897-0.309,1.856-0.377,2.804-0.421
		c4.19-0.196,8.399,0.026,12.546,0.66c0.425,0.065,0.854,0.136,1.248,0.305c0.897,0.385,1.502,1.223,2.061,2.022
		c0.544,0.777,1.1,1.582,1.299,2.51c0.169,0.787,0.072,1.632,0.377,2.377c0.408,0.997,1.443,1.587,2.463,1.933
		c1.02,0.346,2.109,0.53,3.04,1.071c-0.163,0.807-0.737,1.46-1.292,2.068c-0.555,0.608-1.134,1.253-1.313,2.057
		s0.216,1.799,1.022,1.971c0.8,3.163,0.037,6.598-1.879,9.238c-0.397,0.548-0.862,1.073-1.47,1.37
		c-1.551,0.758-3.685-0.11-4.984,1.027C318.108,54.336,317.585,55.368,316.883,55.791z"/>
</g>
<g id="&#xB808;&#xC774;&#xC5B4;_15">
	<path style="fill:none;stroke:#000000;stroke-miterlimit:10;" d="M320.594,53.233c-0.295-0.206-0.556-0.459-0.804-0.72
		c-0.591-0.622-1.12-1.298-1.648-1.974c-0.241-0.308-0.482-0.616-0.723-0.924"/>
</g>
<g id="&#xB808;&#xC774;&#xC5B4;_16">
	<path style="fill:none;stroke:#000000;stroke-miterlimit:10;" d="M283.649,61.685c2.128,0.526,4.458-0.507,5.799-2.242
		c0.799-1.033,1.368-2.35,2.544-2.918c1.358-0.655,2.969-0.05,4.472-0.176c3.58-0.301,7.095,0.246,10.518,1.335
		c1.91,0.608,3.956,1.413,4.951,3.154c0.649,1.135,0.742,2.502,0.703,3.809c-0.028,0.94-0.117,1.877-0.232,2.811
		c-0.215,1.741-0.539,3.51-1.405,5.036c-1.46,2.574-4.282,4.112-7.145,4.857s-5.853,0.825-8.783,1.234
		c-5.139,0.718-10.454,1.904-14.701,4.886c-0.46,0.323-0.915,0.666-1.271,1.102c-0.728,0.892-0.967,2.074-1.184,3.204
		c-0.167,0.871-0.334,1.743-0.501,2.614c-0.72,3.759-1.758,7.304-2.528,11.053c-0.56,2.724-1.088,5.492-0.892,8.266
		c0.234,3.309,0,6.489,0.088,9.804c0.029,1.075,0.061,2.172,0.432,3.181c0.379,1.031,1.095,1.911,1.915,2.643
		c0.367,0.328,0.763,0.636,1.03,1.05c0.267,0.413,0.381,0.968,0.139,1.397c-0.34,0.602-1.162,0.678-1.853,0.663
		c-0.633-0.014-1.285-0.05-1.857-0.322c-0.273-0.13-0.522-0.311-0.81-0.401c-0.288-0.09-0.643-0.066-0.838,0.164
		c-0.182,0.214-0.169,0.527-0.146,0.808c0.138,1.695,0.277,3.389,0.415,5.084c0.017,0.214,0.039,0.439,0.162,0.615
		c0.08,0.114,0.195,0.197,0.288,0.3c0.42,0.466,0.247,1.274-0.249,1.658c-0.496,0.384-1.198,0.404-1.796,0.218
		c-0.435-0.136-0.839-0.371-1.172-0.683c-0.516-0.484-0.846-1.129-1.165-1.76c-0.396-0.783-0.792-1.565-1.188-2.348
		c-0.757-1.496-1.517-2.997-2.096-4.571c-0.332-0.903-0.604-1.827-0.833-2.76c-0.268-1.087-0.475-2.258-0.082-3.306
		c0.554-1.479,2.22-2.49,2.303-4.067c0.074-1.414-0.013-2.545-0.076-3.96c-0.039-0.866-0.077-1.736-0.238-2.588
		c-0.163-0.864-0.451-1.701-0.632-2.562c-0.311-1.471-0.31-2.988-0.308-4.491c0.003-2.16-0.425-4.177-0.525-6.335
		c-0.04-0.869-0.08-1.744,0.034-2.606c0.234-1.766,1.097-3.384,1.535-5.111c0.863-3.403,0.037-6.98-0.788-10.392
		c-0.578-2.391,0.406-5.193,1.728-7.268c0.36-0.564,0.771-1.099,1.064-1.701c0.197-0.404,0.34-0.838,0.603-1.202
		c0.482-0.669,1.285-1.007,2.017-1.388c2.633-1.37,4.788-3.657,7.619-4.547C280.226,62.448,282.063,61.723,283.649,61.685z"/>
</g>
<g id="&#xB808;&#xC774;&#xC5B4;_17">
	<path style="fill:none;stroke:#000000;stroke-miterlimit:10;" d="M290.828,57.018c-0.332-1.464,0.64-2.937,1.844-3.834
		c1.204-0.897,2.649-1.416,3.889-2.261c0.445-0.304,0.866-0.65,1.35-0.887c1.057-0.519,2.292-0.466,3.468-0.402"/>
</g>
<g id="&#xB808;&#xC774;&#xC5B4;_18">
	<path style="fill:none;stroke:#000000;stroke-miterlimit:10;" d="M238.87,224.457c-0.733,1.531-0.791,3.325-0.413,4.98
		c0.199,0.871,0.521,1.728,1.07,2.432c1.363,1.747,3.769,2.197,5.715,3.257c0.931,0.507,1.769,1.165,2.607,1.813
		c2.396,1.853,4.858,3.668,7.626,4.898c2.768,1.23,5.893,1.847,8.853,1.204c0.462-0.1,0.941-0.244,1.272-0.582
		c0.492-0.505,0.521-1.291,0.486-1.995c-0.031-0.614-0.094-1.246-0.383-1.787c-0.4-0.748-1.175-1.217-1.953-1.558
		c-1.584-0.695-3.318-1.013-4.875-1.765c-2.217-1.071-3.969-3-5.012-5.231c-0.408-0.873-0.715-1.793-1.159-2.648
		c-1.581-3.047-4.739-4.968-7.962-6.149C242.548,220.522,239.821,222.473,238.87,224.457z"/>
</g>
<g id="&#xB808;&#xC774;&#xC5B4;_19">
	<path style="fill:none;stroke:#000000;stroke-miterlimit:10;" d="M242.905,220.567c1.499-1.66,3.008-3.332,4.171-5.243
		c0.593-0.975,1.093-2.006,1.734-2.951c1.163-1.716,2.757-3.097,4.434-4.316c1.005-0.73,2.054-1.415,2.923-2.303
		c0.679-0.694,1.235-1.497,1.787-2.296c0.9-1.302,1.8-2.605,2.7-3.907c2.286-3.307,4.719-6.929,7.018-10.227
		c1.803-2.587,3.612-5.183,5.054-7.988c0.691-1.344,1.388-2.831,2.737-3.512"/>
</g>
<g id="&#xB808;&#xC774;&#xC5B4;_20">
	<path style="fill:none;stroke:#000000;stroke-miterlimit:10;" d="M253.073,227.465c0.609-3.146,2.728-5.755,4.776-8.219
		c1.022-1.23,2.046-2.461,3.141-3.628c2.74-2.918,5.964-5.481,7.92-8.973c1.432-2.558,4.512-4.238,6.312-6.551
		c2.319-2.979,4.283-6.406,7.485-8.406c2.746-1.714,6.285-2.296,8.366-4.776c2.661-3.17,5.015-6.606,7.547-9.88
		c0.914-1.183,2.028-2.404,2.027-3.899"/>
</g>
<g id="&#xB808;&#xC774;&#xC5B4;_21">
	<path style="fill:none;stroke:#000000;stroke-miterlimit:10;" d="M288.784,167.079c-0.171,1.628-0.351,3.286-1.012,4.783
		c-0.4,0.905-0.971,1.74-1.238,2.693c-0.304,1.086-0.19,2.241-0.307,3.363c-0.135,1.292-0.576,2.532-1.073,3.732
		c-0.416,1.005-0.877,2.001-1.528,2.871c-0.539,0.72-1.198,1.341-1.853,1.958c-1.456,1.371-2.911,2.742-4.367,4.113
		c-0.201,0.189-0.416,0.387-0.686,0.446c-0.551,0.122-1.05-0.378-1.279-0.893c-0.245-0.552-0.323-1.161-0.375-1.763
		c-0.463-5.372,0.948-10.702,1.678-16.045c0.22-1.611,0.383-3.251,0.971-4.766c0.507-1.309,1.313-2.478,2.111-3.633
		c0.922-1.334,1.976-2.763,3.545-3.168c0.786-0.203,1.613-0.12,2.421-0.035c0.939,0.098,3.104,0.233,3.531,1.292
		c0.192,0.476-0.194,1.784-0.248,2.303C288.977,165.245,288.88,166.162,288.784,167.079z"/>
</g>
<g id="&#xB808;&#xC774;&#xC5B4;_22">
	<path style="fill:none;stroke:#000000;stroke-miterlimit:10;" d="M287.318,173.032c3.256-0.948,6.729-0.42,10.112-0.194
		c7.224,0.484,14.54-0.463,21.403-2.769c2.391-0.804,4.752-1.776,7.25-2.125c1.492-0.208,3.005-0.19,4.511-0.188
		c5.857,0.007,11.714-0.245,17.548-0.757c1.487-0.13,3.244-0.465,3.837-1.835c0.614-1.42,0.932-3.076,0.271-4.475
		c-0.66-1.399-1.792-2.509-2.853-3.635c-2.074-2.201-3.998-4.639-4.984-7.498c-0.096-0.278-0.188-0.569-0.384-0.789
		c-0.583-0.654-1.648-0.33-2.442,0.041c-2.954,1.379-5.909,2.759-8.863,4.138c-1.255,0.586-2.516,1.175-3.669,1.943
		c-0.558,0.372-1.098,0.789-1.726,1.025c-2.668,1.001-5.41-1.575-8.258-1.496c-1.074,0.03-2.096,0.439-3.091,0.843
		c-1.769,0.718-3.539,1.435-5.308,2.153c-1.915,0.777-3.848,1.559-5.884,1.913c-1.477,0.257-2.983,0.284-4.477,0.409
		c-3.678,0.308-7.304,1.221-10.69,2.69"/>
</g>
<g id="&#xB808;&#xC774;&#xC5B4;_23">
	<path style="fill:none;stroke:#000000;stroke-miterlimit:10;" d="M279.533,163.418c-0.6-8.367,0.57-16.857,3.411-24.75
		c0.569-1.581,1.209-3.186,1.189-4.866v-1.276c-0.04-1.418-0.137-2.833-0.177-4.251c-0.12-4.253,0.418-8.393,1.088-12.594
		c0.226-1.416,0.453-2.837,0.866-4.21c0.305-1.012,0.709-1.991,1.075-2.982c0.635-1.718,1.157-3.477,1.562-5.262
		c1.74-7.667,2.172-15.77,2.03-23.631"/>
</g>
<g id="&#xB808;&#xC774;&#xC5B4;_24">
	<path style="fill:none;stroke:#000000;stroke-miterlimit:10;" d="M343.113,147.654c-0.463-2.114-1.812-3.909-3.125-5.629
		c-2.841-3.722-5.802-7.55-9.901-9.813c-1.792-0.99-3.746-1.646-5.687-2.297c-2.447-0.82-4.894-1.641-7.342-2.461
		c-0.958-0.321-1.979-0.687-2.572-1.505s-0.452-2.227,0.502-2.561c1.64-2.209,1.985-5.3,3.067-7.83
		c1.716-4.014,4.311-7.581,6.436-11.395c2.125-3.813,3.818-8.079,3.462-12.43c-0.541-6.613,2.036-13.69,0.275-20.088
		c-1.761-6.397-5.834-12.222-11.513-15.653"/>
</g>
<g id="&#xB808;&#xC774;&#xC5B4;_25">
	<path style="fill:none;stroke:#000000;stroke-miterlimit:10;" d="M305.16,151.138c2.443,0.086,4.927,0.18,7.24,0.972
		c0.655,0.225,1.291,0.503,1.925,0.782c1.058,0.464,3.117,1.144,4.175,1.608"/>
</g>
<g id="&#xB808;&#xC774;&#xC5B4;_26">
	<path style="fill:none;stroke:#000000;stroke-miterlimit:10;" d="M309.251,157.901c0.073-1.042,0.489-2.026,0.899-2.987
		c0.175-0.411,0.35-0.821,0.526-1.232c0.26-0.608,0.519-1.217,0.779-1.825"/>
</g>
<g id="&#xB808;&#xC774;&#xC5B4;_27">
	<path style="fill:none;stroke:#000000;stroke-miterlimit:10;" d="M328.238,83.323c4.069-1.227,7.373-4.148,10.535-6.987
		c1.36-1.221,2.755-2.489,3.526-4.145c0.66-1.418,0.81-3.012,1.212-4.523c0.263-0.987,0.75-2.061,1.722-2.375
		c0.81-0.262,1.68,0.097,2.531,0.094c1.245-0.005,2.439-0.882,2.816-2.069c0.3-0.946,0.133-2.052,0.695-2.87
		c0.591-0.861,1.823-1.075,2.824-0.778s1.827,0.993,2.622,1.671c0.78,0.667,1.561,1.334,2.341,2.001
		c0.537,0.459,1.08,0.924,1.477,1.508c1.051,1.546,0.884,3.64,0.218,5.387c-0.725,1.905-1.963,3.564-3.184,5.195
		c-3.04,4.061-6.121,8.164-10.043,11.381c-0.738,0.605-1.511,1.182-2.38,1.578c-0.816,0.371-1.702,0.576-2.509,0.966
		c-1.381,0.667-2.448,1.83-3.479,2.966c-1.947,2.145-3.894,4.29-5.84,6.435c-1.153,1.27-2.323,2.555-3.762,3.487
		c-1.439,0.933-3.202,1.489-4.883,1.147"/>
</g>
</svg>
