<?xml version="1.0" encoding="iso-8859-1"?>
<!-- Generator: Adobe Illustrator 24.0.1, SVG Export Plug-In . SVG Version: 6.00 Build 0)  -->
<svg version="1.1" id="&#xB808;&#xC774;&#xC5B4;_1" xmlns="http://www.w3.org/2000/svg" xmlns:xlink="http://www.w3.org/1999/xlink"
	 x="0px" y="0px" viewBox="0 0 464 261" style="enable-background:new 0 0 464 261;" xml:space="preserve">
<g id="&#xB808;&#xC774;&#xC5B4;_1_1_" style="display:none;">
	<image style="display:inline;overflow:visible;enable-background:new    ;" width="464" height="261" xlink:href="../7.png" >
	</image>
</g>
<g id="&#xB808;&#xC774;&#xC5B4;_2_1_">
	<path style="fill:none;stroke:#000000;stroke-miterlimit:10;" d="M177.489,56.528c-2.805-0.401-4.689-3.037-7.188-4.372
		c-1.541-0.823-3.293-1.135-4.977-1.599c-1.004-0.277-1.993-0.61-2.959-0.999c-0.427-0.172-0.855-0.357-1.219-0.64
		c-1.074-0.835-1.387-2.337-2.316-3.33c-0.911-0.974-1.752-2.027-2.095-3.316s-0.382-2.637-0.386-3.971
		c-0.007-2.313,0.086-4.644,0.612-6.896c0.213-0.912,0.505-1.826,1.058-2.581c0.545-0.744,1.31-1.291,2.061-1.825
		c0.873-0.62,1.77-1.253,2.804-1.533c1.262-0.342,2.603-0.127,3.904-0.25c1.521-0.143,2.955-0.741,4.414-1.193
		c1.459-0.452,3.041-0.758,4.502-0.311c1.894,0.58,3.199,2.29,4.905,3.296c1.105,0.652,2.49,1.116,2.99,2.299
		c0.659,1.558-0.564,3.692,0.621,4.899c0.39,0.398,0.957,0.57,1.386,0.926c0.777,0.646,0.935,1.916,0.339,2.733
		c-0.377,0.517-1.035,0.95-0.978,1.588c0.052,0.583,0.677,0.912,1.219,1.134c0.695,0.285,1.39,0.569,2.085,0.854
		c0.393,0.161,0.834,0.374,0.942,0.785c0.071,0.269-0.026,0.553-0.139,0.807c-0.808,1.818-2.482,3.171-3.153,5.044
		c-0.262,0.732-0.274,1.511-0.201,2.285c0.046,0.491,0.122,1.054-0.213,1.415c-0.318,0.343-0.858,0.334-1.319,0.258
		c-0.882-0.146-1.737-0.446-2.517-0.883c-0.654-0.366-1.422-0.842-2.09-0.503c-0.609,0.308-0.74,1.125-0.654,1.802
		c0.11,0.866,0.449,1.714,0.373,2.583S178.353,56.652,177.489,56.528z"/>
</g>
<g id="&#xB808;&#xC774;&#xC5B4;_3">
	<path style="fill:none;stroke:#000000;stroke-miterlimit:10;" d="M180.8,50.72c-1.247-0.516-2.403-1.25-3.399-2.16"/>
</g>
<g id="&#xB808;&#xC774;&#xC5B4;_4">
	<path style="fill:none;stroke:#000000;stroke-miterlimit:10;" d="M151.771,56.717c0.997-0.951,2.474-1.169,3.851-1.221
		c4.292-0.162,8.542,0.83,12.664,2.039c0.768,0.225,1.552,0.467,2.19,0.951c0.6,0.455,1.035,1.102,1.337,1.792
		c0.854,1.951,0.691,4.181,0.423,6.294c-0.191,1.504-0.438,3.033-1.133,4.381c-0.695,1.348-1.918,2.505-3.413,2.755
		c-3.324,0.556-5.981,2.739-9.272,3.462c-4.143,0.91-8.578,1.122-12.215,3.306c-1.512,0.908-2.975,2.179-4.738,2.166
		c-0.603-0.005-1.222-0.164-1.8,0.009c-1.12,0.334-1.528,1.679-1.762,2.825c-0.69,3.375,0.847,6.705-0.155,10.001
		c-0.682,2.242-2.471,4.017-3.164,6.255c-0.485,1.567-0.718,3.27-1.019,4.883c-0.4,2.141-0.802,4.324-0.523,6.484
		c0.104,0.805,0.306,1.606,0.697,2.317c0.37,0.673,0.897,1.244,1.399,1.825c1.417,1.639,2.748,3.707,2.296,5.826
		c-0.347,1.627,0.446,3.279-0.402,4.711c-0.358,0.605-0.874,1.097-1.344,1.62c-1.095,1.219-1.965,2.641-2.55,4.171
		c-0.27,0.707-0.5,1.468-1.048,1.99c-0.706,0.673-1.772,0.789-2.746,0.742c-0.19-0.009-0.388-0.025-0.551-0.123
		c-0.407-0.245-0.39-0.825-0.392-1.3c-0.005-1.228-0.497-2.447-1.345-3.335c-0.35-0.366-0.759-0.68-1.056-1.09
		c-0.501-0.692-0.63-1.576-0.745-2.422c-0.295-2.18-0.59-4.401-0.208-6.568c0.268-1.52,0.865-2.991,0.902-4.534
		c0.076-3.115-2.133-6.061-1.606-9.132c0.248-1.448,0.222-3.33,0.304-4.797c0.145-2.598-0.364-5.251,0.243-7.781
		c0.981-4.083,1.413-8.409,2.45-12.477c0.295-1.155,0.625-2.316,0.65-3.508c0.038-1.832,0.222-3.685-0.195-5.47
		c-0.277-1.186-0.725-2.407-0.427-3.588c0.41-1.623,2.114-2.599,3.761-2.898c1.647-0.299,3.349-0.112,5.003-0.364
		c1.396-0.213,2.724-0.734,4.039-1.251c1.469-0.578,2.938-1.155,4.407-1.733c2.09-0.822,4.226-1.672,5.911-3.156
		C151.73,59.68,152.02,58.353,151.771,56.717z"/>
</g>
<g id="&#xB808;&#xC774;&#xC5B4;_5">
	<path style="fill:none;stroke:#000000;stroke-miterlimit:10;" d="M152.156,56.113c2.946-2.459,5.941-4.86,8.981-7.201"/>
</g>
<g id="&#xB808;&#xC774;&#xC5B4;_6">
	<path style="fill:none;stroke:#000000;stroke-miterlimit:10;" d="M97.755,227.189c-0.317,1.578,0.473,3.215,1.637,4.327
		s2.659,1.799,4.124,2.466c4.731,2.154,9.461,4.308,14.192,6.462c1.736,0.79,3.501,1.59,5.389,1.86
		c0.826,0.118,1.69,0.129,2.474-0.156c0.784-0.286,1.48-0.91,1.683-1.719c0.265-1.056-0.359-2.168-1.222-2.833
		c-0.863-0.664-1.931-0.988-2.953-1.363c-6.419-2.353-11.682-7.078-16.291-12.128c-0.954-1.046-1.894-2.15-3.017-3.022
		c-1.251-0.972-1.761-0.702-2.488,0.618C100.266,223.543,98.18,225.072,97.755,227.189z"/>
</g>
<g id="&#xB808;&#xC774;&#xC5B4;_7">
	<path style="fill:none;stroke:#000000;stroke-miterlimit:10;" d="M101.558,220.588c0.004-1.934,1.487-3.506,2.88-4.848
		c5.161-4.97,10.441-9.816,15.835-14.532c0.762-0.666,1.065-1.855,1.068-2.868c0.002-0.74-0.116-1.508,0.144-2.201
		c0.175-0.465,0.505-0.852,0.834-1.225c0.778-0.883,1.58-1.744,2.406-2.582c1.692-1.718,3.307-3.447,4.607-5.479
		c0.684-1.07,1.028-2.314,1.502-3.492c1.133-2.817,4.226-7.055,6.667-8.861"/>
</g>
<g id="&#xB808;&#xC774;&#xC5B4;_8">
	<path style="fill:none;stroke:#000000;stroke-miterlimit:10;" d="M113.737,230.694c-0.485-4.894,1.807-9.97,5.798-12.844
		c2.448-1.762,4.487-4.532,6.616-6.668c1.57-1.575,3.142-3.151,4.617-4.816c2.704-3.051,5.078-6.393,7.069-9.95
		c1.189-2.124,2.806-3.341,3.851-5.539c0.156-0.328,0.307-0.665,0.542-0.942c0.263-0.312,0.617-0.532,0.964-0.747
		c1.306-0.808,2.65-1.631,4.159-1.914c1.671-0.313,3.539,0.03,4.97-0.889c4.815-3.092,6.416-11.215,7.177-16.886"/>
</g>
<g id="&#xB808;&#xC774;&#xC5B4;_9">
	<path style="fill:none;stroke:#000000;stroke-miterlimit:10;" d="M142.63,162.148c-1.5,0.278-3.167,0.773-3.861,2.131
		c-0.288,0.562-0.366,1.205-0.439,1.833c-0.831,7.096-1.662,14.193-2.494,21.289c-0.038,0.322-0.056,0.699,0.184,0.916
		c0.156,0.141,0.381,0.172,0.592,0.181c1.3,0.053,2.568-0.496,3.608-1.28c1.039-0.784,1.883-1.792,2.718-2.791
		c0.995-1.192,2.004-2.406,2.62-3.832c0.461-1.069,0.686-2.225,1.098-3.315c0.609-1.612,1.61-3.044,2.358-4.597
		c0.931-1.935,1.457-4.035,1.977-6.118c0.38-1.523,1.547-5.01-0.757-5.118C147.723,161.328,145.092,161.692,142.63,162.148z"/>
</g>
<g id="&#xB808;&#xC774;&#xC5B4;_10">
	<path style="fill:none;stroke:#000000;stroke-miterlimit:10;" d="M150.179,170.025c5.179-1.252,10.598-0.323,15.926-0.233
		c10.202,0.172,20.26-2.761,30.464-2.677c3.738,0.031,7.486,0.467,11.206,0.098c1.126-0.112,2.287-0.314,3.221-0.954
		c1.109-0.761,1.758-2.072,1.944-3.404s-0.047-2.69-0.412-3.985c-0.374-1.324-0.958-2.697-2.125-3.425
		c-2.359-1.472-3.948-4.194-5.772-6.293c-0.816-0.94-1.703-1.925-2.902-2.261c-0.944-0.264-1.958-0.082-2.89,0.223
		c-2.897,0.949-5.286,3.026-7.35,5.269c-0.698,0.759-1.386,1.557-2.279,2.072c-2.355,1.361-5.339,0.405-8.026,0.825
		c-1.669,0.26-3.199,1.052-4.779,1.648c-1.862,0.702-3.823,1.139-5.806,1.295c-2.603,0.204-5.254-0.072-7.805,0.483
		c-3.908,0.85-7.558,3.622-11.495,2.915"/>
</g>
<g id="&#xB808;&#xC774;&#xC5B4;_11">
	<path style="fill:none;stroke:#000000;stroke-miterlimit:10;" d="M139.049,163.616c0.379-2.468,0.758-4.936,1.136-7.405
		c0.249-1.625,0.505-3.272,1.163-4.779c0.929-2.128,2.664-4.019,2.722-6.341c0.073-2.929-0.356-6.018-0.71-8.927
		s-0.484-5.963,0.653-8.663c1.891-4.491,2.993-9.57,3.942-14.349c1.114-5.602,0.808-11.393,1.206-17.091
		c0.076-1.093,0.169-2.237,0.755-3.162c0.451-0.711,0.838-1.502,1.087-2.306c0.181-0.585,0.232-1.201,0.283-1.811
		c0.082-0.986,0.164-1.973,0.245-2.959c0.086-1.039,0.172-2.09,0.012-3.12c-0.204-1.309-0.794-2.522-1.378-3.712"/>
</g>
<g id="&#xB808;&#xC774;&#xC5B4;_12">
	<path style="fill:none;stroke:#000000;stroke-miterlimit:10;" d="M202.728,146.901c-0.256-1.928-1.1-3.775-2.39-5.23
		c-0.98-1.105-2.194-1.974-3.419-2.799c-5.202-3.503-10.8-6.389-16.554-8.882c-1.65-0.715-3.383-1.449-4.517-2.844
		c-0.552-0.68-1.444-1.259-1.643-2.112s-0.143-1.744-0.048-2.615c0.128-1.17,0.326-2.34,0.715-3.451
		c0.925-2.645,2.857-4.795,4.743-6.867c1.129-1.241,1.922-2.746,2.833-4.154c0.704-1.088,1.384-2.205,1.822-3.424
		c0.701-1.952,0.761-4.109,1.633-5.991c1.878-4.053,1.07-8.778,1.3-13.239c0.298-5.791,0.047-7.205,0.032-10.805
		c-0.011-2.662,0.923-5.507-0.594-7.694c-0.69-0.995-1.803-2.192-2.549-3.146c-0.391-0.5-0.848-0.945-1.228-1.453
		c-0.536-0.716-0.909-1.539-1.381-2.299c-0.878-1.413-2.11-2.604-3.552-3.433"/>
</g>
<g id="&#xB808;&#xC774;&#xC5B4;_13">
	<path style="fill:none;stroke:#000000;stroke-miterlimit:10;" d="M245.205,115.897c-1.23-1.251-2.231-1.706-3.161-3.193
		c-1.975-3.157-4.534-7.178-7.289-9.683c-2.756-2.505-5.958-4.606-9.544-5.613c-2.002-0.562-3.707-2.019-5.576-2.933
		c-1.182-0.577-2.371-1.16-3.425-1.946c-0.916-0.684-1.722-1.516-2.687-2.129c-1.248-0.792-2.711-1.185-3.989-1.928
		c-0.795-0.462-1.506-1.052-2.265-1.569c-1.325-0.902-2.802-1.583-4.349-2.004c-3.388-4.181-7.036-8.405-10.205-12.755
		c-2.826-3.88-5.783-8.071-9.879-10.573"/>
	<path style="fill:none;stroke:#000000;stroke-miterlimit:10;" d="M187.689,90.052c7.17,3.005,14.341,6.011,21.511,9.016
		c1.298,0.544,2.602,1.091,3.815,1.804c0.802,0.471,1.561,1.013,2.369,1.475c1.192,0.681,2.477,1.179,3.738,1.723
		c2.305,0.993,4.729,2.342,5.629,4.685c0.504,1.31,0.464,2.795,1.065,4.063c0.543,1.146,1.611,2.03,2.839,2.349
		c1.467,0.382,3.008-0.019,4.521-0.106c1.513-0.086,3.271,0.302,3.964,1.65c2.123,4.126,4.489,3.674,8.065,6.245"/>
</g>
<g id="&#xB808;&#xC774;&#xC5B4;_14">
	<path style="fill:none;stroke:#000000;stroke-miterlimit:10;" d="M165.5,158.5c1.651-1.361,3.357-4.328,3.462-6.465
		c0.015-0.297,0.035-0.642,0.276-0.815c0.173-0.124,0.404-0.116,0.616-0.103c2.754,0.168,5.508,0.335,8.263,0.503
		c0.799,0.049,1.603,0.098,2.377,0.3c1.86,0.485,3.375,1.797,4.816,3.068"/>
</g>
<g id="&#xB808;&#xC774;&#xC5B4;_15">
	<path style="fill:none;stroke:#000000;stroke-miterlimit:10;" d="M302.088,47.857c0.2,0.714,0.074,1.471,0.063,2.212
		c-0.012,0.741,0.134,1.56,0.713,2.022c0.531,0.424,1.27,0.43,1.949,0.45c2.336,0.068,4.66,0.535,6.841,1.373
		c2.377,0.914,4.642,2.279,7.177,2.521c0.958,0.091,1.923,0.018,2.882-0.056c0.453-0.035,0.916-0.072,1.329-0.261
		c0.413-0.188,0.772-0.561,0.814-1.013c0.039-0.418-0.174-0.912,0.113-1.22c0.217-0.232,0.587-0.197,0.901-0.153
		c0.949,0.131,1.91,0.17,2.867,0.118c0.962-0.053,2.045-0.278,2.55-1.099c0.378-0.615,0.318-1.407,0.108-2.098
		c-0.21-0.691-0.553-1.339-0.719-2.041c-0.262-1.114-0.442-2.17-0.711-3.282c-0.149-0.616-0.486-1.215-0.399-1.843
		c0.072-0.519,0.435-0.965,0.878-1.244c0.444-0.279,0.962-0.413,1.478-0.507c0.354-0.065,0.754-0.14,0.949-0.443
		c0.296-0.462-0.102-1.049-0.499-1.427c-0.401-0.382-0.825-0.739-1.269-1.069c-1.638-1.217-2.773-3.168-3.801-4.931
		c-0.611-1.048-1.078-2.182-1.783-3.169c-1.097-1.538-2.761-2.662-4.597-3.105c-1.218-0.294-2.484-0.295-3.737-0.285
		c-2.619,0.02-5.255,0.081-7.818,0.62c-0.784,0.165-1.566,0.377-2.271,0.756c-0.618,0.332-1.162,0.784-1.701,1.233
		c-1.017,0.846-2.043,1.703-2.834,2.763c-1.298,1.74-1.882,3.997-1.592,6.149c0.226,1.68,0.955,3.257,1.235,4.929
		C301.423,45.069,301.729,46.575,302.088,47.857z"/>
</g>
<g id="&#xB808;&#xC774;&#xC5B4;_16">
	<path style="fill:none;stroke:#000000;stroke-miterlimit:10;" d="M325.519,53.816c-0.549-0.004-1.097-0.057-1.636-0.161
		c-0.342-0.066-0.685-0.153-0.987-0.328c-0.171-0.099-0.325-0.224-0.491-0.33c-0.331-0.212-0.711-0.35-1.101-0.399
		c-0.197-0.025-0.396-0.028-0.595-0.03c-0.743-0.01-1.486-0.02-2.229-0.03"/>
</g>
<g id="&#xB808;&#xC774;&#xC5B4;_17">
	<path style="fill:none;stroke:#000000;stroke-miterlimit:10;" d="M293.135,57.577c2.223-0.78,4.465-1.565,6.801-1.868
		s4.803-0.092,6.874,1.029c2.357,1.276,4.002,3.642,4.807,6.199s0.839,5.3,0.558,7.966c-0.217,2.057-0.721,4.273-2.33,5.572
		c-1.352,1.092-3.193,1.297-4.924,1.46c-5.043,0.473-10.301,0.828-15.366,0.759c-1.566-0.021-3.135-0.076-4.694,0.07
		c-3.82,0.358-7.514,1.954-10.393,4.49c-1.916,1.688-2.312,4.353-3.723,6.481c-0.722,1.089-1.507,2.135-2.236,3.219
		c-0.83,1.234-1.588,2.514-2.346,3.794c-0.976,1.649-1.952,3.299-2.929,4.948c-0.619,1.047-1.243,2.103-1.638,3.253
		c-0.455,1.326-0.594,2.747-0.515,4.147c0.098,1.74,0.24,3.246,0.623,4.947c0.843,3.748,1.12,7.623,0.818,11.453
		c-0.037,0.466-0.122,0.999-0.521,1.243c-0.667,0.407-1.466-0.395-1.624-1.16c-0.157-0.766-0.052-1.634-0.524-2.257
		c-0.387-0.509-1.091-0.708-1.722-0.608c-0.632,0.1-1.196,0.458-1.672,0.885c-0.746,0.67-1.345,1.679-1.071,2.644
		c0.204,0.718,0.831,1.219,1.265,1.826s0.623,1.565,0.031,2.019c-0.187,0.143-0.422,0.208-0.654,0.251
		c-1.137,0.21-2.312-0.037-3.403-0.419c-2.73-0.956-5.172-2.814-6.637-5.308c-1.464-2.494-1.889-5.623-0.94-8.355
		c0.929-2.673,3.014-4.746,4.804-6.938s3.401-4.854,3.072-7.665c-0.31-2.659,1.294-5.573,1.99-8.157
		c0.318-1.181,0.638-2.366,1.097-3.5c0.865-2.135,2.204-4.037,3.335-6.043c1.132-2.006,2.08-4.212,2.04-6.515
		c-0.019-1.133-0.269-2.323,0.187-3.36c0.355-0.807,1.085-1.383,1.829-1.856c1.151-0.731,2.404-1.301,3.711-1.687
		c5.485-1.621,10.462-4.294,15.744-6.488c0.752-0.312,1.506-0.628,2.197-1.059c1.452-0.907,2.546-2.276,3.821-3.418
		C290.155,58.43,291.436,57.367,293.135,57.577z"/>
</g>
<g id="&#xB808;&#xC774;&#xC5B4;_18">
	<path style="fill:none;stroke:#000000;stroke-miterlimit:10;" d="M296.5,56.5c1,0,3.396-1.676,4.388-2.033
		c0.378-0.136,0.776-0.216,1.145-0.374c0.688-0.296,1.25-0.871,1.531-1.565"/>
</g>
<g id="&#xB808;&#xC774;&#xC5B4;_19">
	<path style="fill:none;stroke:#000000;stroke-miterlimit:10;" d="M224.151,230.08c0.392,0.27,0.785,0.539,1.177,0.809
		c0.239,0.164,0.513,0.337,0.798,0.283c0.269-0.05,0.459-0.286,0.623-0.505c2.85-3.812,5.636-7.673,8.355-11.58
		c0.364-0.523,0.728-1.048,1.016-1.616c0.253-0.498,0.445-1.025,0.601-1.561c0.718-2.459,0.685-5.065,0.646-7.627
		c-0.016-1.018-0.018-1.951,0.262-2.929c0.309-1.079,0.748-2.144,0.763-3.266c0.015-1.122-0.534-2.355-1.599-2.707
		c-0.718-0.237-1.502-0.031-2.212,0.227c-3.058,1.114-5.743,3.23-7.54,5.943c-0.268,0.404-0.52,0.831-0.622,1.304
		c-0.311,1.444,0.814,2.769,1.199,4.195c0.375,1.39,0.025,2.892-0.623,4.178s-1.576,2.405-2.442,3.556
		c-0.403,0.536-0.802,1.099-0.959,1.751c-0.101,0.421-0.096,0.86-0.091,1.293c0.024,1.848,0.047,3.697,0.071,5.545
		C223.587,228.271,223.411,229.572,224.151,230.08z"/>
</g>
<g id="&#xB808;&#xC774;&#xC5B4;_20">
	<path style="fill:none;stroke:#000000;stroke-miterlimit:10;" d="M237.935,199.588c1.568-0.289,2.811-1.449,3.957-2.557
		c2.682-2.593,5.363-5.186,8.045-7.778c2.338-2.26,4.675-4.52,7.013-6.78c1.891-1.829,3.784-3.658,5.57-5.59
		c1.31-1.416,2.566-2.891,4.02-4.159c2.861-2.495,6.463-4.13,10.226-4.64c0.357-0.048,0.73-0.092,1.032-0.288
		c0.373-0.242,0.572-0.671,0.74-1.083c0.918-2.26,1.872-4.775,1.963-7.213"/>
</g>
<g id="&#xB808;&#xC774;&#xC5B4;_22">
	<path style="fill:none;stroke:#000000;stroke-miterlimit:10;" d="M237.466,211.898c4.504-6.326,11.282-10.584,17.88-14.678
		c2.812-1.745,5.624-3.489,8.436-5.234c2.205-1.368,4.419-2.741,6.794-3.788c4.642-2.047,9.801-2.805,14.315-5.121
		c3.068-1.574,5.124-4.569,6.668-7.652c0.695-1.389,1.435-3.018,2.934-3.425"/>
</g>
<g id="&#xB808;&#xC774;&#xC5B4;_23">
	<path style="fill:none;stroke:#000000;stroke-miterlimit:10;" d="M292.365,78.808c-0.07,1.033,0.025,2.093,0.426,3.047
		c0.443,1.054,1.235,1.931,1.697,2.977c0.465,1.053,0.573,2.222,0.812,3.348c0.692,3.27,2.506,6.258,2.894,9.578
		c0.419,3.582-0.027,7.114-0.291,10.711c-0.165,2.249-0.349,4.554-1.3,6.598c0.456,2.74-0.705,5.537-1.692,8.134
		c-1.179,3.105-2.381,6.25-4.334,8.937c-1.23,1.692-2.734,3.167-3.996,4.834c-1.262,1.667-2.301,3.609-2.379,5.699
		c-0.074,1.996-0.095,4.014-0.595,5.948c-0.29,1.122-0.745,2.194-1.159,3.277c-0.933,2.447-1.655,4.975-2.154,7.546
		c0.956,0.721,1.97,0.979,3.073,1.445c1.345,0.569,2.509,1.485,3.647,2.401c1.912,1.54,3.798,3.11,5.659,4.711
		c0.315,0.271,0.635,0.55,0.846,0.908c0.437,0.743,0.331,1.688,0.647,2.489c0.083,0.21,0.208,0.422,0.415,0.513
		c0.425,0.187,0.858-0.223,1.143-0.59c1.991-2.569,3.982-5.138,5.974-7.707c0.808-1.042,1.612-1.944,2.485-2.932
		c1.656-1.876,3.313-3.751,4.969-5.627c1.612-1.826,3.225-3.652,4.837-5.478c0.165-0.187,0.371-0.39,0.618-0.362
		c0.138,0.016,0.255,0.102,0.367,0.184c2.715,1.986,6.174,2.742,9.537,2.734c3.364-0.008,6.681-0.724,9.968-1.437
		c1.724-0.374,3.487-0.362,5.221-0.686c1.068-0.2,1.692-1.366,2.257-2.293c1.395-2.287,2.319-4.834,3.707-7.125
		s3.398-4.4,6.005-5.012c0.252-0.059,0.584-0.234,0.483-0.472c-0.048-0.114-0.179-0.164-0.297-0.202
		c-0.559-0.181-1.117-0.362-1.676-0.543c-2.495-0.808-4.808-2.216-7.025-3.617c-4.074-2.574-8.514-4.508-12.962-6.364
		c-0.726-0.303-1.485-0.628-1.971-1.246c-0.406-0.516-0.572-1.176-0.72-1.816c-0.387-1.674-0.652-3.639,0.484-4.927
		c0.757-0.858,0.899-2.172,1.507-3.141c0.361-0.575,0.771-1.119,1.108-1.708c0.481-0.84,0.808-1.759,1.131-2.671
		c0.741-2.09,1.483-4.18,2.224-6.269c2.017-5.683,0.371-12.114-0.07-18.129c-0.22-2.997-0.858-5.931-1.442-8.879
		c-0.32-1.618-0.669-3.275-1.561-4.663c-1.355-2.107-0.744-5.023-1.977-7.204c-0.529-0.935-1.206-1.777-1.902-2.596
		c-1.316-1.548-2.711-3.029-4.178-4.436"/>
</g>
<g id="&#xB808;&#xC774;&#xC5B4;_21">
	<path style="fill:none;stroke:#000000;stroke-miterlimit:10;" d="M314.152,199.46c-0.223,0.933-0.445,1.911-0.205,2.839
		c0.17,0.658,0.563,1.237,1.006,1.752c2.81,3.265,7.56,4.206,10.637,7.221c0.827,0.81,1.512,1.751,2.241,2.65
		c1.279,1.578,2.706,3.038,4.276,4.326c0.675,0.554,1.388,1.083,2.204,1.392s1.756,0.379,2.551,0.02
		c1.355-0.612,1.929-2.331,1.646-3.79s-1.231-2.695-2.236-3.791c-2.13-2.322-4.724-4.406-5.802-7.367
		c-0.512-1.406-0.667-2.98-1.547-4.192c-1.626-2.24-5.057-2.391-6.904-4.453c-0.478-0.534-0.826-1.173-1.3-1.71
		s-1.137-0.983-1.851-0.934c-0.433,0.03-0.834,0.238-1.193,0.483C315.729,195.233,314.685,197.227,314.152,199.46z"/>
</g>
<g id="&#xB808;&#xC774;&#xC5B4;_24">
	<path style="fill:none;stroke:#000000;stroke-miterlimit:10;" d="M320.234,193.759c1.568-2.126,3.136-4.253,4.704-6.379
		c0.802-1.088,1.606-2.178,2.292-3.343c0.57-0.968,1.056-1.983,1.541-2.996c1.103-2.305,2.206-4.61,3.309-6.915
		c1.184-2.474,2.035-4.9,3.679-7.096c2.011-2.686,3.645-5.632,5.272-8.566c0.71-1.28,1.426-2.575,1.823-3.984
		c0.324-1.151,0.428-2.363,0.304-3.552c-0.024-0.235-0.068-0.488-0.241-0.648c-0.148-0.136-0.359-0.174-0.558-0.206
		c-0.666-0.106-1.332-0.213-1.998-0.319"/>
</g>
<g id="&#xB808;&#xC774;&#xC5B4;_25">
	<path style="fill:none;stroke:#000000;stroke-miterlimit:10;" d="M352.439,135.182c1.557,0.131,2.511,1.821,3.975,2.366
		c1.168,0.435,2.521,0.087,3.684,0.539c0.633,0.246,1.154,0.709,1.639,1.183c1.802,1.76,3.365,3.901,3.833,6.376
		c0.203,1.072,0.194,2.171,0.184,3.262c-0.013,1.523-0.029,3.065-0.427,4.535s-1.228,2.883-2.535,3.665
		c-5.389,3.222-7.999,9.699-12.496,14.081c-3.392,3.306-7.043,6.459-9.511,10.502c-1.903,3.117-4.68,5.517-7.04,8.304
		c-2.391,2.823-4.899,5.928-5.107,9.621"/>
</g>
<g id="&#xB808;&#xC774;&#xC5B4;_26">
	<path style="fill:none;stroke:#000000;stroke-miterlimit:10;" d="M330.925,110.831c4.069-1.855,6.692-5.822,9.095-9.593
		c1.493-2.343,2.986-4.685,4.479-7.028c1.17-1.836,2.34-3.672,3.51-5.507c4.572-7.174,9.28-14.738,9.904-23.223
		c0.342-4.648,0.081-9.299-0.056-13.958c-0.023-0.772-0.055-1.57-0.39-2.266c-0.574-1.196-1.948-1.842-3.272-1.919
		s-2.626,0.318-3.893,0.712c-1.137,0.354-2.398,0.817-2.89,1.901c-0.392,0.866-0.166,1.881,0.162,2.773
		c0.328,0.892,0.757,1.78,0.757,2.731s-0.61,1.992-1.557,2.076c-0.935,0.083-1.978-0.742-2.721-0.169
		c-0.401,0.31-0.464,0.881-0.495,1.387c-0.083,1.393-0.105,2.962,0.862,3.969c0.322,0.335,0.738,0.584,1.003,0.966
		c0.374,0.54,0.384,1.246,0.337,1.901c-0.23,3.165-1.465,6.158-2.685,9.087c-2.012,4.833-4.288,9.982-8.761,12.702"/>
</g>
</svg>
