<?xml version="1.0" encoding="iso-8859-1"?>
<!-- Generator: Adobe Illustrator 24.0.1, SVG Export Plug-In . SVG Version: 6.00 Build 0)  -->
<svg version="1.1" id="&#xB808;&#xC774;&#xC5B4;_1" xmlns="http://www.w3.org/2000/svg" xmlns:xlink="http://www.w3.org/1999/xlink"
	 x="0px" y="0px" viewBox="0 0 464 261" style="enable-background:new 0 0 464 261;" xml:space="preserve">
<g id="&#xB808;&#xC774;&#xC5B4;_1_1_" style="display:none;">
	<image style="display:inline;overflow:visible;enable-background:new    ;" width="464" height="261" xlink:href="../8.png" >
	</image>
</g>
<g id="&#xB808;&#xC774;&#xC5B4;_2_1_">
	<path style="fill:none;stroke:#000000;stroke-miterlimit:10;" d="M80.236,206.448c-0.316,1.447-0.232,2.947-0.358,4.423
		c-0.108,1.266-0.373,2.521-0.373,3.792c0,1.228,0.246,2.44,0.432,3.653c0.392,2.553,0.52,5.147,0.381,7.726
		c-0.067,1.249-0.117,2.701,0.833,3.514c0.925,0.793,2.416,0.526,3.346-0.26s1.434-1.952,1.908-3.074
		c1.924-4.563,3.848-9.126,5.772-13.689c0.166-0.393,0.334-0.8,0.326-1.226c-0.022-1.107-1.152-1.813-1.763-2.737
		c-0.643-0.973-0.702-2.227-0.522-3.38s0.574-2.264,0.764-3.415c0.066-0.401,0.091-0.862-0.183-1.162
		c-0.364-0.4-1.007-0.279-1.534-0.154c-1.992,0.471-4.219-0.124-5.869,1.158C81.827,202.836,80.664,204.49,80.236,206.448z"/>
</g>
<g id="&#xB808;&#xC774;&#xC5B4;_3">
	<path style="fill:none;stroke:#000000;stroke-miterlimit:10;" d="M133.817,155.959c-1.382,2.218,0.3,5.258-0.661,7.688
		c-0.255,0.644-0.682,1.202-1.103,1.75c-0.48,0.624-0.959,1.248-1.439,1.872c-0.451,0.586-0.906,1.178-1.473,1.653
		c-0.573,0.48-1.242,0.827-1.906,1.171c-1.2,0.62-2.399,1.241-3.599,1.861c-2.3,1.19-4.796,2.4-6.941,3.852
		c-1.228,0.831-2.312,1.855-3.372,2.891c-1.865,1.822-3.675,3.7-5.428,5.63c-2.715,2.989-5.201,6.031-7.761,9.154
		c-0.65,0.793-1.307,1.593-2.115,2.224c-0.968,0.757-2.116,1.244-3.173,1.869c-1.314,0.777-3.361,1.761-4.347,2.926"/>
</g>
<g id="&#xB808;&#xC774;&#xC5B4;_4">
	<path style="fill:none;stroke:#000000;stroke-miterlimit:10;" d="M92.244,210.469c5.785-6.61,13.024-11.942,21.052-15.508
		c1.568-0.696,3.18-1.335,4.582-2.324c1.686-1.19,2.992-2.835,4.566-4.169c1.525-1.293,3.301-2.288,5.2-2.913
		c2.491-0.821,5.158-1.002,7.649-1.826c3.621-1.198,6.762-3.784,8.633-7.107c2.262-4.018,6.033-6.839,9.518-9.858
		c1.039-0.9,2.076-1.979,2.248-3.343"/>
</g>
<g id="&#xB808;&#xC774;&#xC5B4;_5">
	<path style="fill:none;stroke:#000000;stroke-miterlimit:10;" d="M147.36,58.358c3.512,0.153,6.737-2.208,10.252-2.214
		c2.504-0.005,4.976,1.285,6.405,3.342c2.12,3.051,1.803,7.119,1.278,10.796c-0.126,0.885-0.267,1.791-0.706,2.57
		c-0.563,0.998-1.566,1.684-2.63,2.107c-5.552,2.208-12.009-2.086-17.689-0.233c-1.024,0.334-1.976,0.858-2.984,1.238
		c-2.67,1.006-5.599,0.959-8.448,1.114s-5.841,0.586-8.092,2.339c-4.926,3.834-2.046,12.061-1.377,18.267
		c0.287,2.661,0.574,5.322,0.861,7.983c0.149,1.379,0.319,2.818,1.088,3.972c1.073,1.609,3.075,2.324,4.423,3.71
		c1.124,1.156,1.747,2.783,1.682,4.394c-0.036,0.89-0.807,2.02-1.56,1.545c-0.364-0.788-1.167-2.437-2.266-1.588
		c-0.689,0.532-0.754,1.575-0.211,2.254c1.255,1.567,0.571,4.24,0.446,6.258c-0.044,0.705-0.158,1.474-0.68,1.951
		c-0.52,0.476-1.311,0.53-1.993,0.505c-0.818-0.031-1.632-0.216-2.381-0.544c-5.895-2.585-4.488-7.362-5.828-11.359
		c-0.575-1.714-1.634-3.224-2.329-4.893c-0.694-1.667-0.984-3.678-0.034-5.213c0.002-0.004,0.003-0.008,0.004-0.012
		c0.088-5.024,0.104-10.434,0.192-15.458c0.025-1.419,0.049-2.845-0.146-4.251c-0.557-4.024-2.891-7.815-2.488-11.857
		c0.43-4.323,4.561-7.276,8.508-9.09c3.947-1.813,8.367-2.349,12.711-2.397c1.486-0.016,3,0.018,4.422-0.412
		C141.146,62.169,143.861,58.555,147.36,58.358z"/>
</g>
<g id="&#xB808;&#xC774;&#xC5B4;_6">
	<path style="fill:none;stroke:#000000;stroke-miterlimit:10;" d="M154.5,56.5c0-1,4.049-3.152,6.306-4.294"/>
</g>
<g id="&#xB808;&#xC774;&#xC5B4;_7">
	<path style="fill:none;stroke:#000000;stroke-miterlimit:10;" d="M160.735,51.995"/>
	<path style="fill:none;stroke:#000000;stroke-miterlimit:10;" d="M148.392,74.091c-0.889,5.111,1.614,10.108,3.074,15.087
		c1.958,6.678,2.048,13.892,0.258,20.617c-1.345,5.052-0.426,10.795-3.727,14.85c-1.476,1.813-3.525,3.275-4.285,5.486
		c-1.419,4.125-3.858,8.042-4.578,12.344c-0.416,2.483-0.384,5.14-1.644,7.319c-1.246,2.153-3.673,3.681-4.12,6.128
		c4.568,0.677,8.741,2.951,13.221,4.073c3.32,0.832,7.01,1.127,9.553,3.418c1.401-2.625,3.018-5.135,4.829-7.496
		c1.315-1.714,3.018-3.231,4.56-4.744c0.78-0.765,1.621-1.564,2.69-1.786c0.936-0.195,1.897,0.085,2.82,0.332
		c7.207,1.925,14.921,1.916,22.124-0.025c0.336-0.091,0.685-0.192,0.944-0.425c0.296-0.266,0.431-0.661,0.58-1.03
		c1.811-4.471,6.807-6.624,10.156-10.097c0.434-0.45,0.863-0.974,0.902-1.598c0.058-0.93-0.747-1.663-1.492-2.223
		c-5.345-4.019-11.387-7.107-17.775-9.085c-1.575-0.488-3.213-0.929-4.527-1.925s-2.238-2.718-1.765-4.298
		c0.967-3.229,2.417-6.526,4.333-9.299c0.771-1.115,1.622-2.183,2.231-3.394c0.557-1.106,0.898-2.306,1.197-3.508
		c0.64-2.579,1.094-5.203,1.359-7.847c0.826-8.268-0.479-16.993-4.359-24.341c-2.444-4.628-3.367-9.813-7.25-13.322
		c-0.296-0.268-0.611-0.534-0.993-0.653"/>
</g>
<g id="&#xB808;&#xC774;&#xC5B4;_8">
	<path style="fill:none;stroke:#000000;stroke-miterlimit:10;" d="M164.5,53.5c-4-2-5.917-1.974-7.043-2.419
		c-0.906-0.358-1.583-1.153-2.004-2.031s-0.616-1.845-0.807-2.799c-0.226-1.131-0.453-2.263-0.573-3.41
		c-0.198-1.891-0.104-3.8-0.011-5.699c0.058-1.176,0.121-2.376,0.556-3.47s1.316-2.082,2.469-2.322
		c1.331-0.277,2.232-1.66,3.319-2.476c1.174-0.881,2.387-1.781,3.804-2.164c1.372-0.37,2.825-0.226,4.232-0.031
		c2.532,0.35,5.094,0.871,7.312,2.141s4.065,3.405,4.428,5.935c0.149,1.037,0.062,2.154,0.581,3.065
		c0.496,0.871,1.443,1.368,2.349,1.798c0.657,0.312,1.44,0.839,1.282,1.549c-0.081,0.364-0.395,0.619-0.642,0.899
		c-0.943,1.066-0.927,2.848,0.036,3.897c0.456,0.496,1.072,0.823,1.524,1.323c1.228,1.359,0.883,3.478,0.366,5.236
		c-0.096,0.328-0.205,0.67-0.452,0.906c-0.247,0.237-0.598,0.333-0.937,0.379c-2.42,0.325-4.73-1.431-7.163-1.227
		c0.212,1.356,0.26,2.679,0.211,4.051c-0.489,0.266-1.131,0.208-1.67,0.071s-1.039-0.396-1.546-0.624
		C171.128,54.733,167.434,54.967,164.5,53.5z"/>
</g>
<g id="&#xB808;&#xC774;&#xC5B4;_9">
	<path style="fill:none;stroke:#000000;stroke-miterlimit:10;" d="M177.5,52.5c-5-1-3.025-0.489-5.123-1.06"/>
</g>
<g id="&#xB808;&#xC774;&#xC5B4;_10">
	<path style="fill:none;stroke:#000000;stroke-miterlimit:10;" d="M172.308,193.34c-1.165-0.186-2.183,0.74-2.998,1.593
		c-1.311,1.371-2.621,2.741-3.932,4.112c-0.232,0.243-0.48,0.523-0.471,0.859c0.007,0.269,0.179,0.503,0.344,0.716
		c2.443,3.161,4.993,6.415,8.518,8.296c0.979,0.523,2.017,0.928,3.015,1.414c3.721,1.811,6.801,4.679,10.127,7.141
		c0.875,0.647,1.821,1.288,2.903,1.4s2.316-0.5,2.525-1.568c0.132-0.678-0.163-1.362-0.499-1.965
		c-0.954-1.713-2.306-3.203-3.918-4.319c-0.514-0.356-1.062-0.681-1.47-1.153c-1.126-1.302-0.891-3.303-1.673-4.836
		c-0.787-1.544-2.559-2.523-2.984-4.203c-0.065-0.257-0.098-0.53-0.235-0.757c-0.252-0.417-0.787-0.568-1.273-0.579
		c-0.487-0.011-0.978,0.082-1.458-0.002c-0.472-0.083-0.896-0.428-1.248-0.754c-0.413-0.382-0.67-0.898-0.952-1.385
		C175.649,195.658,174.239,193.649,172.308,193.34z"/>
</g>
<g id="&#xB808;&#xC774;&#xC5B4;_11">
	<path style="fill:none;stroke:#000000;stroke-miterlimit:10;" d="M172.5,193.5c1.748-1.957,2.311-4.32,3.886-6.419
		c0.838-1.117,1.651-2.253,2.541-3.328c0.976-1.18,2.044-2.284,2.969-3.505c1.56-2.06,2.683-4.411,3.795-6.743
		c1.042-2.185,2.944-3.604,4.165-5.694c0.642-1.101,0.949-2.358,1.355-3.566c1.202-3.572,3.354-6.819,6.174-9.319
		c0.311-1.098,0.19-2.244,0.196-3.386c0.002-0.502-0.034-1.032-0.31-1.452c-0.272-0.412-0.746-0.658-1.229-0.759
		c-0.484-0.101-0.984-0.076-1.477-0.049"/>
</g>
<g id="&#xB808;&#xC774;&#xC5B4;_12">
	<path style="fill:none;stroke:#000000;stroke-miterlimit:10;" d="M205.615,135.676c1.362-0.032,2.635,0.632,3.803,1.333
		c3.757,2.255,7.162,5.094,10.056,8.384c0.349,0.397,0.695,0.807,0.916,1.287c0.28,0.611,0.34,1.3,0.337,1.972
		c-0.01,1.625-0.368,3.225-0.724,4.81c-0.289,1.285-0.652,2.687-1.725,3.45c-4.586,3.261-7.47,8.317-11.682,12.048
		c-2.058,1.823-4.022,3.76-6.116,5.542c-2.691,2.29-6.279,3.744-7.973,6.844c-1.7,3.113-5.107,4.962-7.649,7.435
		c-1.822,1.772-3.736,3.708-4.213,6.204c-0.249,1.306-0.317,3.197-0.144,4.515"/>
</g>
<g id="&#xB808;&#xC774;&#xC5B4;_13">
	<path style="fill:none;stroke:#000000;stroke-miterlimit:10;" d="M245.09,116.116c-2.008-1.878-4.393-3.411-5.944-5.681
		c-0.647-0.947-1.128-1.996-1.682-3.001c-3.273-5.942-9.254-10.322-15.907-11.649c-2.529-0.504-4.242-3.036-6.301-4.588
		c-2.925-2.205-6.359-3.605-9.666-5.181s-6.605-3.415-8.932-6.244c-1.248-1.517-2.159-3.406-2.899-5.225
		c-0.416-1.023-0.75-2.089-1.321-3.035c-0.527-0.871-1.239-1.613-1.858-2.421c-0.974-1.271-1.719-2.708-2.718-3.959
		c-1.787-2.238-4.384-3.814-7.194-4.366"/>
	<path style="fill:none;stroke:#000000;stroke-miterlimit:10;" d="M189.631,91.741c8.95,2.298,17.347,6.32,25.678,10.317
		c1.046,0.502,2.091,1.003,3.137,1.505c1.038,0.498,2.076,0.996,3.114,1.494c1.38,0.662,2.884,1.456,3.407,2.894
		c0.11,0.303,0.17,0.622,0.275,0.926c0.394,1.144,1.368,1.975,2.301,2.746c1.952,1.615,3.975,3.478,6.504,3.639
		c0.618,0.039,1.242,0.011,1.854,0.104c2.234,0.34,3.877,2.179,5.557,3.691c1.352,1.216,1.163,0.997,2.486,2.06"/>
</g>
<g id="&#xB808;&#xC774;&#xC5B4;_14">
	<path style="fill:none;stroke:#000000;stroke-miterlimit:10;" d="M318.921,57.367c-2.461,0.1-4.814-0.96-6.971-2.149
		c-2.157-1.19-4.269-2.55-6.659-3.147c-0.741-0.185-1.568-0.333-2.045-0.93c-0.738-0.925-0.209-2.356-0.715-3.426
		c-1.052-2.224-1.649-4.847-1.578-7.306c0.071-2.46,0.875-4.938,2.486-6.797c1.362-1.572,2.693-3.203,4.302-4.521
		c1.406-1.153,3.246-1.597,5.017-2.01c1.019-0.237,2.038-0.474,3.057-0.711c1.018-0.237,2.061-0.475,3.099-0.354
		c1.833,0.214,3.337,1.496,4.718,2.721c1.526,1.353,3.096,2.766,3.922,4.631c0.566,1.278,0.756,2.72,1.486,3.912
		c0.538,0.878,1.36,1.58,2.312,1.974c0.436,0.18,0.907,0.302,1.284,0.586s0.638,0.8,0.449,1.233
		c-0.106,0.242-0.329,0.409-0.548,0.557c-0.86,0.578-1.912,1.157-2.079,2.18c-0.16,0.978,0.584,1.849,1.274,2.56
		c0.89,0.917,1.059,2.319,1.131,3.595c0.072,1.276-0.32,2.622-1.256,3.491c-0.878,0.814-2.135,1.124-3.33,1.066
		c-1.196-0.058-2.349-0.449-3.464-0.885c-0.222-0.087-0.456-0.177-0.692-0.14c-0.448,0.07-0.703,0.565-0.747,1.016
		s0.048,0.913-0.048,1.356c-0.169,0.787-0.91,1.349-1.69,1.548C320.856,57.614,319.725,57.335,318.921,57.367z"/>
</g>
<g id="&#xB808;&#xC774;&#xC5B4;_15">
	<path style="fill:none;stroke:#000000;stroke-miterlimit:10;" d="M325.48,53.8c-1.48-0.283-2.881-0.871-4.269-1.456
		c-0.312-0.131-0.625-0.263-0.924-0.42c-0.549-0.288-1.057-0.663-1.639-0.877"/>
</g>
<g id="&#xB808;&#xC774;&#xC5B4;_16">
	<path style="fill:none;stroke:#000000;stroke-miterlimit:10;" d="M285.233,61.613c5.38-1.885,10.981-3.14,16.651-3.731
		c2.018-0.21,4.169-0.312,5.958,0.645c2.699,1.443,3.718,4.854,3.657,7.914c-0.091,4.569-2.222,9.237-6.107,11.643
		c-0.625,0.387-1.294,0.716-2.009,0.887c-1.622,0.389-3.311-0.058-4.946-0.386c-3.276-0.657-6.672-0.835-9.962-0.252
		c-4.625,0.82-8.723,2.733-13.195,4.168c-0.581,0.186-1.182,0.384-1.628,0.799c-0.792,0.736-0.891,1.934-0.939,3.014
		c-0.08,1.792-0.761,3.507-1.671,5.053c-0.774,1.315-1.78,2.475-2.781,3.627c-2.019,2.324-4.038,4.649-6.057,6.973
		c-3.362,3.87-3.011,9.371-3.113,14.496c-0.054,2.697,0.522,4.901,0.594,7.597c0.02,0.738,0.018,1.515-0.342,2.16
		c-0.36,0.645-1.204,1.079-1.859,0.738c-1.219-0.636-0.386-2.748-1.342-3.736c-0.527-0.545-1.457-0.517-2.097-0.111
		s-1.04,1.099-1.335,1.797c-0.573,1.358-0.844,2.843-0.785,4.316c0.009,0.227,0.019,0.477-0.119,0.658
		c-0.121,0.158-0.328,0.223-0.525,0.25c-1.236,0.169-2.317-0.775-3.205-1.651c-1.703-1.68-3.484-3.498-3.989-5.836
		c-0.653-3.028,1.008-6.045,2.797-8.575c1.789-2.529,3.848-5.106,4.142-8.19c0.33-3.457,0.521-6.842,2.16-9.904
		c0.664-1.24,1.53-2.36,2.224-3.583c1.71-3.009,2.314-6.508,2.75-9.941c0.266-2.091,1.212-4.159,1.806-6.182
		c0.334-1.138,0.686-2.309,1.439-3.225c1.477-1.794,4.033-2.134,6.318-2.562c3.899-0.73,6.856-3.91,10.388-5.716
		C280.366,63.615,282.841,62.451,285.233,61.613z"/>
</g>
<g id="&#xB808;&#xC774;&#xC5B4;_17">
	<path style="fill:none;stroke:#000000;stroke-miterlimit:10;" d="M300.215,57.9c0.574-0.588,1.174-1.15,1.798-1.683
		c1.383-1.182,2.905-2.247,3.965-3.725"/>
</g>
<g id="&#xB808;&#xC774;&#xC5B4;_18">
	<path style="fill:none;stroke:#000000;stroke-miterlimit:10;" d="M291.5,77.5c0,2,3.994,5.415,4.821,7.687
		c0.982,2.698,0.355,5.676,0.338,8.547c-0.009,1.585,0.172,3.173,0.026,4.751c-0.128,1.386-0.508,2.758-0.414,4.146
		c0.194,2.845-0.153,5.633-0.085,8.484c0.026,1.114,0.053,2.232-0.063,3.34c-0.193,1.854-0.78,3.648-1.499,5.368
		c-1.751,4.194-5.452,7.71-5.98,12.224c-0.569,4.864-2.104,9.566-4.065,14.053c-0.778,1.78-1.484,3.518-2.726,5.011
		s-2.397,3.502-1.615,5.28c0.428,0.972,1.344,1.619,2.131,2.332c1.607,1.453,2.783,3.316,4.238,4.921
		c1.16,1.28,2.493,2.391,3.82,3.497c1.033,0.861,2.066,1.721,3.099,2.582c0.362,0.302,0.798,0.623,1.258,0.522
		c0.263-0.058,0.475-0.245,0.673-0.427c4.798-4.403,8.888-9.508,12.958-14.591c0.875-1.093,1.75-2.186,2.626-3.279
		c0.943-1.178,1.937-2.507,1.847-4.013c2.366,0.352,4.684,1.025,6.87,1.996c3.051,1.355,6.475,1.444,9.807,1.25
		c1.364-0.08,2.721-0.252,4.076-0.425c1.979-0.252,3.958-0.504,5.936-0.756c0.479-0.061,0.993-0.137,1.347-0.466
		c0.456-0.423,0.502-1.114,0.73-1.693c0.331-0.839,1.056-1.447,1.587-2.175c0.375-0.513,0.654-1.088,0.963-1.643
		c1.962-3.531,5.079-6.252,8.133-8.897c-0.009-0.525-0.398-1.128-0.821-1.44s-0.925-0.494-1.411-0.693
		c-1.71-0.699-3.303-1.65-4.927-2.529c-4.497-2.432-9.283-4.329-14.226-5.637c-0.925-0.245-1.881-0.48-2.66-1.037
		c-0.726-0.518-1.256-1.304-1.464-2.171c-0.772-3.211,0.97-6.442,2.646-9.287c1.169-1.985,2.693-3.777,3.549-5.916
		c1.241-3.1,3.258-6.054,3.172-9.392c-0.136-5.268-0.147-10.54-0.406-15.803c-0.077-1.577-0.169-3.17-0.612-4.686
		c-0.313-1.071,0.051-2.356-0.088-3.463c-0.081-0.65-0.189-1.304-0.434-1.912c-0.238-0.592-0.599-1.124-0.957-1.652
		c-0.57-0.84-1.141-1.68-1.711-2.52c-2.572-3.788-5.222-7.657-8.946-10.32"/>
</g>
<g id="&#xB808;&#xC774;&#xC5B4;_19">
	<path style="fill:none;stroke:#000000;stroke-miterlimit:10;" d="M314.697,148.275c-1.419-0.269-2.835-0.548-4.25-0.838"/>
</g>
<g id="&#xB808;&#xC774;&#xC5B4;_20">
	<path style="fill:none;stroke:#000000;stroke-miterlimit:10;" d="M331.056,109.565c1.931-0.059,4.048-0.19,5.457-1.512
		c0.868-0.814,1.326-1.961,1.828-3.04c1.999-4.295,5.063-8.031,7.775-11.84c1.787-2.51,3.813-4.832,5.806-7.181
		c1.718-2.025,2.639-4.92,3.771-7.359c0.555-1.197,0.997-2.439,1.307-3.721c0.701-2.903,1.155-5.866,1.354-8.846
		c0.33-4.926,0.415-10.012,0.452-14.948c0.008-1.034-0.033-2.188-0.764-2.92c-0.73-0.731-1.888-0.775-2.918-0.696
		c-1.319,0.101-2.628,0.328-3.903,0.676c-1.858,0.507-3.922,1.624-4.1,3.542c-0.108,1.166,0.544,2.308,0.405,3.471
		c-0.138,1.152-1.183,2.065-2.312,2.231c-0.968,0.142-1.586,1.126-1.118,1.986c0.014,0.025,0.028,0.05,0.042,0.074
		c0.388,0.661,0.982,1.174,1.453,1.779c1.388,1.785,1.563,4.423,0.424,6.376c-0.646,1.107-1.64,1.961-2.451,2.954
		s-1.463,2.258-1.217,3.516c-0.629,1.672-1.508,3.407-2.601,4.821c-0.526,0.68-1.103,1.326-1.535,2.069
		c-0.295,0.507-0.518,1.053-0.739,1.596c-0.393,0.963-0.786,1.927-1.179,2.89"/>
</g>
<g id="&#xB808;&#xC774;&#xC5B4;_21">
	<path style="fill:none;stroke:#000000;stroke-miterlimit:10;" d="M237.35,216.955c-0.969,1.637-2.868,2.578-3.759,4.259
		c-0.499,0.941-0.632,2.025-0.891,3.058c-0.558,2.226-1.743,4.29-3.384,5.894c-0.401,0.392-0.881,0.778-1.442,0.779
		c-0.651,0.001-1.199-0.541-1.432-1.149s-0.222-1.277-0.238-1.928c-0.061-2.419-0.534-4.808-0.757-7.218
		c-0.222-2.41-0.178-4.913,0.748-7.149c0.434-1.048,1.06-2.035,1.255-3.153c0.14-0.803,0.049-1.63,0.142-2.441
		c0.155-1.345,0.818-2.594,1.693-3.628c1.752-2.073,4.408-3.354,7.121-3.435c0.894-0.027,1.994,0.231,2.222,1.095
		c0.19,0.719-0.348,1.4-0.767,2.015c-1.283,1.878-1.585,4.33-0.986,6.505c0.323,1.173,1.177,1.954,1.598,3.007
		C238.828,214.356,237.876,216.067,237.35,216.955z"/>
</g>
<g id="&#xB808;&#xC774;&#xC5B4;_22">
	<path style="fill:none;stroke:#000000;stroke-miterlimit:10;" d="M238.5,201.5c8.619-8.278,17.331-17.253,25.95-25.531
		c0.921-0.885,1.852-1.777,2.94-2.446c2.266-1.393,5.082-1.737,7.257-3.268c3.36-2.366,4.318-6.829,5.199-10.842
		c0.184-0.837,0.435-1.759,1.162-2.212"/>
</g>
<g id="&#xB808;&#xC774;&#xC5B4;_23">
	<path style="fill:none;stroke:#000000;stroke-miterlimit:10;" d="M238.774,214.209c0.825,0.071,1.561-0.584,1.911-1.335
		c0.35-0.75,0.418-1.596,0.595-2.405c0.779-3.554,3.618-6.26,6.487-8.498c7.019-5.474,15.011-9.54,22.948-13.571
		c2.667-1.354,5.353-2.716,8.224-3.554c1.99-0.58,4.161-0.959,5.676-2.373c1.082-1.009,1.768-2.245,2.807-3.297
		c1.273-1.289,2.347-2.757,3.416-4.22c1.138-1.557,2.277-3.114,3.415-4.671"/>
</g>
<g id="&#xB808;&#xC774;&#xC5B4;_24">
	<path style="fill:none;stroke:#000000;stroke-miterlimit:10;" d="M316.191,195.316c-1.85,1.189-3.63,2.712-4.357,4.787
		c-0.728,2.075-0.023,4.775,1.993,5.654c0.753,0.329,1.593,0.377,2.401,0.527c4.035,0.75,7.076,3.951,10.091,6.735
		s6.826,5.455,10.871,4.763c0.778-0.133,1.639-0.493,1.863-1.25c0.113-0.382,0.037-0.793-0.081-1.174
		c-0.945-3.049-4.254-4.739-5.766-7.55c-0.778-1.448-1.044-3.134-1.874-4.553c-1.589-2.718-4.736-3.866-7.3-5.419
		c-1.396-0.845-2.292-1.897-3.474-2.953C319.101,193.583,317.762,194.306,316.191,195.316z"/>
</g>
<g id="&#xB808;&#xC774;&#xC5B4;_25">
	<path style="fill:none;stroke:#000000;stroke-miterlimit:10;" d="M319.5,194.5c6.223-5.916,10.18-14.267,13.109-22.338
		c1.903-5.244,6.166-8.268,9.497-12.744c0.722-0.971,1.456-1.963,1.838-3.112c0.448-1.349,0.375-2.809,0.272-4.227
		c-0.058-0.795-0.142-1.639-0.629-2.27s-1.091-1.296-2.087-1.31"/>
</g>
<g id="&#xB808;&#xC774;&#xC5B4;_26">
	<path style="fill:none;stroke:#000000;stroke-miterlimit:10;" d="M328.5,200.5c0-1,0.008-3.357,0.514-4.652
		c0.312-0.799,0.824-1.501,1.337-2.189c3.415-4.58,7.094-8.963,11.012-13.121c4.824-5.12,9.885-10.036,14.463-15.376
		c1.045-1.218,2.079-2.457,2.898-3.836c1.205-2.029,1.997-4.421,3.859-5.871c0.936-0.729,2.08-1.16,3-1.908
		c0.921-0.748,0.916-1.047,1.147-3.111c0.321-1.114-0.164-2.426-0.745-3.429c-0.829-1.433-2.379-2.256-3.688-3.27
		c-1.708-1.323-3.062-3.037-4.583-4.571c-1.52-1.534-4.216-2.665-6.216-3.665"/>
</g>
</svg>
