<?xml version="1.0" encoding="iso-8859-1"?>
<!-- Generator: Adobe Illustrator 24.0.1, SVG Export Plug-In . SVG Version: 6.00 Build 0)  -->
<svg version="1.1" id="&#xB808;&#xC774;&#xC5B4;_1" xmlns="http://www.w3.org/2000/svg" xmlns:xlink="http://www.w3.org/1999/xlink"
	 x="0px" y="0px" viewBox="0 0 464 261" style="enable-background:new 0 0 464 261;" xml:space="preserve">
<g id="&#xB808;&#xC774;&#xC5B4;_1_1_" style="display:none;">
	<image style="display:inline;overflow:visible;enable-background:new    ;" width="464" height="261" xlink:href="../9.png" >
	</image>
</g>
<g id="&#xB808;&#xC774;&#xC5B4;_2_1_">
	<path style="fill:none;stroke:#000000;stroke-miterlimit:10;" d="M176.616,57.69c-1.578-0.374-3.159-0.748-4.767-0.959
		c-2.905-0.381-6.031-0.274-8.509-1.836c-0.741-0.467-1.389-1.065-2.032-1.66c-1.529-1.415-3.059-2.829-4.588-4.244
		c-1.249-1.155-2.542-2.375-3.12-3.975c-0.796-2.203-0.648-4.765-0.451-7.098c0.197-2.334,0.953-4.69,2.538-6.414
		c0.644-0.7,1.408-1.281,2.064-1.971c0.395-0.416,0.753-0.873,1.201-1.231c0.727-0.582,1.643-0.866,2.547-1.091
		c1.855-0.462,3.759-0.727,5.67-0.788c2.365-0.076,4.776,0.169,6.966,1.068c2.189,0.9,4.146,2.504,5.153,4.646
		c1.08,2.298,1.065,5.129,2.714,7.06c0.203,0.237,0.436,0.473,0.502,0.778c0.081,0.378-0.117,0.759-0.126,1.145
		c-0.024,1.088,1.289,1.601,2.078,2.35c0.928,0.88,1.177,2.26,1.177,3.539c0,1.207-0.176,2.406-0.352,3.599
		c-0.167,1.133-0.478,2.459-1.54,2.887c-1.224,0.493-2.653-0.564-3.895-0.119c-0.478,0.171-0.854,0.545-1.188,0.929
		C177.762,55.333,177.117,56.423,176.616,57.69z"/>
</g>
<g id="&#xB808;&#xC774;&#xC5B4;_3">
	<path style="fill:none;stroke:#000000;stroke-miterlimit:10;" d="M170.5,51.5c1.079,0.288,6.106,1.095,7.209,1.273
		c0.332,0.054,0.661,0.123,0.991,0.187c0.635,0.124,1.225,0.196,1.862,0.306"/>
</g>
<g id="&#xB808;&#xC774;&#xC5B4;_4">
	<path style="fill:none;stroke:#000000;stroke-miterlimit:10;" d="M145.142,56.749c1.652-0.225,3.312-0.453,4.906-0.94
		c1.885-0.576,3.75-1.523,5.712-1.334c1.804,0.174,3.364,1.282,4.826,2.353c1.17,0.856,2.367,1.74,3.158,2.956
		c1.287,1.98,1.296,4.499,1.262,6.86c-0.012,0.81-0.026,1.636-0.283,2.404c-0.467,1.395-1.657,2.403-2.793,3.336
		c-1.084,0.89-2.204,1.799-3.543,2.216c-1.108,0.345-2.292,0.327-3.452,0.286c-1.281-0.046-2.588-0.122-3.777-0.602
		c-0.522-0.211-1.013-0.497-1.545-0.683c-1.439-0.502-3.134-0.185-4.293,0.804c-3.711,3.166-8.911,4.846-13.779,5.154
		c-1.902,0.12-3.851-0.094-5.689,0.411c-1.838,0.505-3.605,2.024-3.563,3.93c0.167,7.549,1.407,15.022,2.116,22.539
		c0.51,0.69,0.935,1.292,1.445,1.982c1.593,2.156,3.187,4.312,4.78,6.468c0.313,0.424,0.633,0.862,0.762,1.372
		c0.129,0.511,0.022,1.118-0.396,1.438c-0.458,0.35-1.122,0.25-1.643,0.003c-0.521-0.247-0.982-0.62-1.529-0.804
		c-0.547-0.183-1.251-0.109-1.558,0.379c-0.135,0.214-0.172,0.474-0.206,0.725c-0.102,0.751-0.204,1.502-0.307,2.253
		c-0.118,0.865-0.271,1.842-0.197,2.712c0.074,0.87,0.421,1.755,1.113,2.289c0.219,0.169,0.467,0.299,0.669,0.488
		c0.873,0.819,0.419,2.424-0.608,3.039s-2.336,0.478-3.483,0.137c-1.958-0.582-3.752-1.71-5.125-3.223
		c-2.033-2.24-3.078-5.192-3.88-8.109c-0.911-3.315-1.575-6.697-1.983-10.11c-0.61-5.1-2.337-9.813-2.64-14.941
		c-0.128-2.167,0.052-4.341,0.279-6.5c0.358-3.405,0.832-6.798,1.422-10.17c0.257-1.469,0.618-3.072,1.806-3.973
		c3.711-2.815,7.56-6.258,11.939-7.844c0.671-0.243,1.352-0.461,2.047-0.622c0.954-0.22,1.93-0.331,2.896-0.494
		C135.312,62.036,139.812,57.477,145.142,56.749z"/>
</g>
<g id="&#xB808;&#xC774;&#xC5B4;_5">
	<path style="fill:none;stroke:#000000;stroke-miterlimit:10;" d="M155.963,54.506c1.028-1.122,2.184-2.127,3.439-2.989"/>
</g>
<g id="&#xB808;&#xC774;&#xC5B4;_6">
	<path style="fill:none;stroke:#000000;stroke-miterlimit:10;" d="M147.3,73.122c-0.861,6.394-0.175,12.991,1.984,19.071
		c0.505,1.422,1.091,2.825,1.391,4.304c0.351,1.734,0.298,3.522,0.219,5.289c-0.142,3.217-0.362,6.431-0.659,9.638
		c-0.148,1.599-0.319,3.216-0.869,4.725c-0.633,1.738-1.739,3.255-2.714,4.827c-2.204,3.554-3.785,7.493-4.65,11.585
		c-0.855,4.043-0.025,8.581-2.327,12.013c-1.193,1.779-2.776,3.276-3.918,5.089c-1.504,2.388-2.179,5.287-1.884,8.094
		c0.023,0.214,0.052,0.433,0.153,0.623c0.265,0.5,0.904,0.633,1.457,0.752c4.269,0.922,7.872,4.425,8.914,8.667
		c0.241,0.981,0.498,2.17,1.452,2.503c0.523,0.183,1.101,0.028,1.617-0.175c2.773-1.096,4.774-3.507,6.65-5.824
		c3.922-4.842,7.843-9.685,11.765-14.527c0.423-0.522,0.93-1.088,1.601-1.114c0.37-0.014,0.721,0.143,1.066,0.278
		c2.373,0.931,4.999,0.91,7.548,0.855c4.809-0.104,9.617-0.282,14.42-0.533c1.427-0.075,2.941-0.186,4.098-1.023
		c0.999-0.723,1.575-1.877,2.178-2.953c1.68-2.997,3.855-5.717,6.408-8.017c0.91-0.819,1.915-2.232,1.03-3.078
		c-0.234-0.223-0.552-0.329-0.859-0.43c-6.62-2.172-13.021-5.012-19.074-8.461c-0.734-0.418-1.477-0.857-2.023-1.502
		c-0.749-0.886-1.046-2.069-1.179-3.222c-0.475-4.113,0.941-8.406,3.77-11.429c1.343-1.435,1.687-3.756,2.072-5.684
		c0.451-2.264,0.422-4.592,0.392-6.9c-0.083-6.28-0.169-12.598-1.328-18.771c-0.769-4.098-1.256-8.01-3.208-11.694
		c-1.589-2.999-3.3-6.068-6.002-8.122"/>
</g>
<g id="&#xB808;&#xC774;&#xC5B4;_7">
	<path style="fill:none;stroke:#000000;stroke-miterlimit:10;" d="M245.923,117.308c-2.312-1.83-3.962-2.975-6.428-4.592
		c-0.618-0.405-1.26-0.823-1.659-1.445c-0.593-0.926-0.535-2.106-0.7-3.193c-0.272-1.782-1.222-3.452-2.615-4.596
		c-1.813-1.489-3.851-2.82-5.737-4.216c-1.475-1.093-2.96-2.191-4.598-3.019c-1.791-0.905-3.732-1.47-5.591-2.224
		c-4.133-1.675-7.821-4.262-11.469-6.827c-3.843-2.702-8.163-4.782-11.471-8.117c-1.743-1.757-3.241-3.756-4.44-5.921
		c-1.608-2.904-2.68-6.104-4.534-8.858c-1.854-2.754-4.789-5.107-8.109-5.036"/>
	<path style="fill:none;stroke:#000000;stroke-miterlimit:10;" d="M187.619,89.45c8.588,1.002,15.796,6.742,23.884,9.797
		c2.639,0.997,5.523,1.798,7.415,3.891c1.106,1.224,1.76,2.778,2.562,4.221c0.721,1.296,1.571,2.515,2.42,3.731
		c0.737,1.057,1.534,2.164,2.716,2.678c1.195,0.52,2.567,0.338,3.855,0.539c1.965,0.307,3.666,1.49,5.288,2.641
		c1.753,1.244,4.043,1.745,5.956,2.726c1.314,0.674,1.485,0.664,2.823,1.272"/>
</g>
<g id="&#xB808;&#xC774;&#xC5B4;_8">
	<path style="fill:none;stroke:#000000;stroke-miterlimit:10;" d="M79.93,203.612c-0.159,0.432-0.178,0.901-0.196,1.361
		c-0.294,7.777-0.402,15.561-0.323,23.344c0.007,0.692,0.122,1.544,0.77,1.785c0.43,0.16,0.905-0.042,1.301-0.274
		c2.548-1.499,3.996-4.291,5.312-6.938c0.951-1.912,1.913-3.856,2.291-5.957c0.156-0.868,0.227-1.796,0.74-2.514
		c0.616-0.863,1.863-1.484,1.732-2.535c-0.104-0.831-1.023-1.251-1.602-1.856c-3.061-3.203,3.62-6.448-0.223-9.28
		C86.903,198.664,81.177,200.215,79.93,203.612z"/>
</g>
<g id="&#xB808;&#xC774;&#xC5B4;_9">
	<path style="fill:none;stroke:#000000;stroke-miterlimit:10;" d="M90.388,200.885c1.705-0.363,3.043-1.64,4.284-2.864
		c1.808-1.783,3.617-3.566,5.425-5.349c2.231-2.199,4.482-4.424,6.16-7.07c0.742-1.169,1.375-2.426,2.33-3.429
		c0.827-0.869,1.859-1.51,2.88-2.142c1.997-1.236,3.993-2.471,5.99-3.707c2.391-1.48,4.657-4.008,6.712-5.927
		c1.348-1.258,2.825-2.579,4.655-2.801c1.141-0.139,2.465,0.12,3.307-0.662c0.555-0.516,0.698-1.326,0.81-2.076
		c0.305-2.039,1.253-4.319,1.558-6.358"/>
</g>
<g id="&#xB808;&#xC774;&#xC5B4;_10">
	<path style="fill:none;stroke:#000000;stroke-miterlimit:10;" d="M91.522,211.527c0.673,0.186,1.393-0.171,1.878-0.675
		s0.8-1.141,1.196-1.717c1.95-2.831,5.57-3.864,8.456-5.731c2.708-1.752,4.803-4.28,7.126-6.518s5.079-4.284,8.283-4.657
		c5.085-0.592,7.618-7.265,12.526-8.722c2.007-0.596,4.157-0.463,6.21-0.873c2.053-0.41,4.2-1.62,4.673-3.659
		c0.704-3.029,2.507-5.699,4.033-8.409"/>
</g>
<g id="&#xB808;&#xC774;&#xC5B4;_11">
	<path style="fill:none;stroke:#000000;stroke-miterlimit:10;" d="M172.335,209.253c1.251,0.848,2.691,1.361,4.053,2.015
		c3.45,1.656,6.385,4.211,9.696,6.13c0.863,0.501,1.922,0.965,2.822,0.532c1.046-0.503,1.245-1.937,0.969-3.065
		c-0.701-2.869-3.314-4.773-5.252-7.001c-1.414-1.625-2.519-3.518-3.239-5.549c-0.283-0.797-0.514-1.629-1.001-2.32
		c-0.449-0.637-1.086-1.111-1.712-1.574c-1.565-1.158-3.13-2.316-4.696-3.474c-0.438-0.324-0.898-0.658-1.435-0.75
		c-1.756-0.303-2.717,1.679-3.638,2.78c-1.06,1.267-2.214,1.742-1.958,3.519C167.399,203.646,169.717,207.479,172.335,209.253z"/>
</g>
<g id="&#xB808;&#xC774;&#xC5B4;_12">
	<path style="fill:none;stroke:#000000;stroke-miterlimit:10;" d="M171.5,194.5c0-2,5.014-6.283,6.532-9.2
		c0.771-1.482,1.369-3.058,2.258-4.472c1.361-2.166,3.373-3.906,4.475-6.215c1.643-3.442,3.1-7.14,4.605-10.645
		c1.742-4.057,4.717-7.462,6.723-11.395c0.384-0.753,0.74-1.564,0.686-2.407s-0.648-1.709-1.489-1.788"/>
</g>
<g id="&#xB808;&#xC774;&#xC5B4;_13">
	<path style="fill:none;stroke:#000000;stroke-miterlimit:10;" d="M180.5,199.5c-0.032,0.087,3.682-9.691,7.048-13.511
		c3.34-3.789,7.316-6.958,11.254-10.121c5.466-4.39,9.827-10.164,15.126-14.754c1.129-0.978,2.298-1.978,2.978-3.308
		c0.587-1.147,0.773-2.474,1.417-3.591c0.825-1.431,2.433-2.836,1.838-4.377c-0.683-1.77-0.002-4.133-1.14-5.651
		c-0.516-0.687-1.223-1.204-1.94-1.678c-2.311-1.528-4.842-2.736-6.974-4.504c-0.823-0.682-1.588-1.449-2.515-1.981
		s-2.076-0.807-3.071-0.416"/>
</g>
<g id="&#xB808;&#xC774;&#xC5B4;_14">
	<path style="fill:none;stroke:#000000;stroke-miterlimit:10;" d="M315.814,58.231c-1.057,0.201-2.151,0.372-3.2,0.135
		c-1.448-0.326-2.609-1.375-3.697-2.385c-1.126-1.044-2.252-2.089-3.378-3.133c-0.927-0.86-1.854-1.72-2.782-2.58
		c-0.902-0.837-1.816-1.688-2.452-2.741s-0.968-2.354-0.61-3.531c0.524-1.723-0.173-3.703-0.17-5.504
		c0.002-1.937,0.032-3.977,1.01-5.649c0.591-1.01,1.489-1.806,2.44-2.489c2.039-1.463,4.417-2.489,6.91-2.784
		c2.492-0.295,5.097,0.168,7.247,1.462c1.187,0.715,2.215,1.661,3.233,2.601c0.676,0.624,1.359,1.255,1.87,2.02
		c0.957,1.432,1.237,3.212,2.042,4.734c1.084,2.05,3.047,3.505,4.257,5.483c0.23,0.375,0.433,0.85,0.226,1.238
		c-0.407,0.764-1.602,0.191-2.428,0.45c-0.841,0.264-1.091,1.315-1.165,2.193c-0.207,2.478-0.106,4.982,0.3,7.435
		c0.025,0.151,0.051,0.309,0.003,0.454c-0.118,0.36-0.603,0.44-0.971,0.348c-1.247-0.313-2.067-1.789-3.352-1.777
		c-0.661,0.006-1.291,0.479-1.482,1.112c-0.132,0.437-0.075,0.937-0.32,1.322c-0.239,0.376-0.697,0.538-1.121,0.674
		C317.501,57.554,316.559,58.089,315.814,58.231z"/>
</g>
<g id="&#xB808;&#xC774;&#xC5B4;_15">
	<path style="fill:none;stroke:#000000;stroke-miterlimit:10;" d="M322.003,54.41c-0.935-0.568-2.521-1.428-3.503-1.91"/>
</g>
<g id="&#xB808;&#xC774;&#xC5B4;_16">
	<path style="fill:none;stroke:#000000;stroke-miterlimit:10;" d="M285.092,61.474c0.566-0.862,1.132-1.724,1.697-2.586
		c0.231-0.352,0.469-0.712,0.81-0.959c0.362-0.263,0.809-0.378,1.251-0.452c1.222-0.204,2.471-0.133,3.707-0.047
		c1.284,0.09,2.567,0.195,3.848,0.317c1.325,0.126,2.666,0.272,3.911,0.743c1.131,0.428,2.146,1.109,3.123,1.82
		c1.226,0.891,2.478,1.937,2.89,3.395c0.196,0.693,0.183,1.426,0.168,2.146c-0.019,0.957-0.038,1.913-0.058,2.87
		c-0.026,1.299-0.054,2.614-0.395,3.869s-1.031,2.462-2.125,3.163c-1.257,0.806-2.842,0.843-4.336,0.829
		c-7.1-0.063-14.059,1.796-20.893,3.718c-1.006,0.283-2.022,0.57-2.933,1.082c-0.546,0.307-1.049,0.691-1.622,0.943
		c-1.124,0.493-2.437,0.436-3.542,0.972c-0.167-0.12-0.334-0.241-0.502-0.361c-1.518,5.383-4.47,10.318-7.016,15.298
		c-0.254,0.497-0.503,1.003-0.63,1.546c-1.356,5.809-3.149,12.101-3.43,17.371c-0.151,2.646-0.148,5.204-0.284,7.851
		c-0.017,0.328-0.055,0.689-0.297,0.911c-0.418,0.383-1.137,0.047-1.396-0.456c-0.259-0.504-0.237-1.1-0.356-1.654
		s-0.487-1.147-1.053-1.176c-0.343-0.018-0.656,0.18-0.941,0.372c-0.543,0.366-1.087,0.75-1.49,1.266
		c-0.402,0.516-0.649,1.191-0.513,1.831c0.253,1.185,1.665,1.831,1.964,3.005c0.091,0.36,0.006,0.831-0.346,0.948
		c-0.139,0.046-0.291,0.025-0.436,0.001c-2.25-0.373-4.439-1.28-6.156-2.782c-1.716-1.502-2.93-3.623-3.143-5.894
		c-0.053-0.56-0.045-1.132,0.102-1.675c0.162-0.602,0.487-1.145,0.808-1.679c0.677-1.125,1.353-2.25,2.03-3.375
		c0.78-1.296,1.56-2.594,2.229-3.951c0.751-1.524,1.358-3.119,1.811-4.757c0.994-3.594,1.652-7.205,2.27-10.883
		c0.287-1.707,0.694-3.391,1.027-5.09c0.543-2.774,0.887-5.582,1.23-8.388c0.451-3.69,3.062-7.194,6.011-9.458
		c0.887-0.681,1.852-1.253,2.815-1.823c1.34-0.794,2.68-1.588,4.021-2.382c0.827-0.49,1.657-0.981,2.542-1.356
		c0.975-0.413,2.004-0.68,3.029-0.946c1.434-0.371,2.868-0.743,4.302-1.114c0.857-0.222,1.719-0.446,2.528-0.806
		C282.682,63.084,284.275,62.719,285.092,61.474z"/>
</g>
<g id="&#xB808;&#xC774;&#xC5B4;_17">
	<path style="fill:none;stroke:#000000;stroke-miterlimit:10;" d="M270.95,83.175"/>
	<path style="fill:none;stroke:#000000;stroke-miterlimit:10;" d="M297.242,57.524c0.231-0.287,0.462-0.573,0.693-0.86
		c0.273-0.338,0.55-0.68,0.896-0.943c0.249-0.188,0.528-0.332,0.793-0.497c0.382-0.24,0.739-0.529,1.159-0.695
		c0.305-0.12,0.632-0.171,0.948-0.258c1.118-0.308,2.052-1.06,2.952-1.793"/>
</g>
<g id="&#xB808;&#xC774;&#xC5B4;_18">
	<path style="fill:none;stroke:#000000;stroke-miterlimit:10;" d="M289.471,77.513c-0.655,1.551-0.641,3.291-0.615,4.975
		c0.028,1.856,0.068,3.774,0.835,5.465c0.279,0.616,0.648,1.186,0.949,1.791c0.931,1.872,1.176,3.999,1.407,6.077
		c0.558,5.017,2.97,9.629,2.662,14.668c-0.152,2.472-0.392,4.962-1.114,7.331c-0.208,0.683-0.449,1.358-0.581,2.06
		c-0.34,1.792,0,3.799-1.005,5.321c-0.286,0.433-0.666,0.796-1.005,1.189c-0.99,1.147-1.633,2.545-2.262,3.923
		c-1.419,3.106-2.455,6.348-4.212,9.276c-0.878,1.464-1.858,2.879-2.522,4.452c-0.517,1.223-0.834,2.519-1.149,3.808
		c-0.311,1.272-0.622,2.544-0.932,3.816c-0.333,1.363-0.646,2.886,0.057,4.1c0.441,0.761,1.211,1.262,1.953,1.735
		c3.102,1.975,6.204,3.95,9.307,5.925c1.011,0.643,2.041,1.296,3.196,1.613c1.155,0.317,2.476,0.255,3.445-0.449
		c0.956-0.694,1.418-1.881,1.666-3.036s0.333-2.354,0.764-3.454c0.421-1.076,1.149-1.999,1.867-2.904
		c1.858-2.343,3.716-4.686,5.574-7.029c0.387-0.488,0.825-1.008,1.435-1.128c0.534-0.105,1.072,0.123,1.569,0.347
		c1.554,0.699,3.108,1.399,4.662,2.098c5.981,2.692,12.686,2.781,19.184,3.67c0.984,0.134,1.979,0.26,2.966,0.154
		c0.283-0.031,0.578-0.087,0.794-0.271c0.355-0.303,0.378-0.835,0.367-1.302c-0.039-1.632-0.149-3.287,0.205-4.88
		c0.124-0.559,0.308-1.11,0.603-1.601c0.287-0.476,0.672-0.885,1.054-1.289c1.301-1.376,2.606-2.756,4.074-3.952
		c0.864-0.704,1.865-1.487,1.937-2.599c-1.136-0.244-2.381-0.607-3.436-1.094c-1.025-0.473-1.935-1.159-2.836-1.839
		c-1.909-1.442-3.818-2.884-5.727-4.326c-1.292-0.976-2.586-1.953-3.816-3.006c-1.632-1.397-3.26-2.987-5.357-3.453
		c-0.678-0.151-1.388-0.177-2.037-0.425s-1.254-0.8-1.275-1.495c-0.03-0.996-0.143-2.01,0.113-2.973
		c0.148-0.559,0.337-1.155,0.145-1.701c-0.249-0.707-1.03-1.054-1.525-1.617c-0.117-0.133-0.222-0.291-0.225-0.467
		c-0.003-0.21,0.137-0.391,0.27-0.553c0.26-0.317,0.52-0.634,0.781-0.951c0.712-0.867,1.424-1.735,2.14-2.599
		c1.875-2.265,3.908-4.533,5.297-7.125s2.255-5.54,1.976-8.468c-0.525-5.507-0.4-10.84-0.599-16.368
		c-0.096-2.67,0.421-5.535,0.321-8.205c-0.1-2.67-0.838-5.474-2.801-7.287c-2.638-2.438-5.921-4.215-8.875-6.258"/>
</g>
<g id="&#xB808;&#xC774;&#xC5B4;_19">
	<path style="fill:none;stroke:#000000;stroke-miterlimit:10;" d="M329.69,102.521c4.717-1.553,8.696-5.211,10.639-9.781
		c0.611-1.436,1.484-2.956,2.256-4.312c2.853-5.006,4.786-10.536,5.672-16.229c0.892-5.729,2.547-11.403,2.509-17.2
		c-0.007-1.035,0.022-2.296-0.637-3.095c-0.344-0.417-0.791-0.734-1.248-1.023c-1.789-1.13-3.955-1.896-6.017-1.423
		c-0.585,0.134-1.178,0.39-1.522,0.881c-0.583,0.832-0.247,1.987,0.237,2.88c0.484,0.894,1.117,1.791,1.081,2.806
		c-0.014,0.388-0.135,0.781-0.393,1.071c-0.597,0.668-1.655,0.576-2.528,0.373s-1.862-0.442-2.607,0.057
		c-0.905,0.606-0.898,1.991-0.385,2.953c0.512,0.961,1.384,1.677,2.017,2.563c0.902,1.263,1.282,2.814,1.644,4.323
		c0.222,0.925,0.445,1.863,0.422,2.814c-0.023,0.951-0.323,1.933-1.009,2.592c-1.653,1.589-2.907,3.594-3.409,5.832
		c-0.103,0.458-0.165,0.931-0.358,1.359s-0.553,0.815-1.016,0.891c-0.599,0.097-1.139-0.333-1.625-0.697
		c-0.811-0.607-1.71-1.096-2.66-1.449"/>
</g>
<g id="&#xB808;&#xC774;&#xC5B4;_20">
	<path style="fill:none;stroke:#000000;stroke-miterlimit:10;" d="M218.355,196.711c-0.608,0.38-1.225,0.781-1.656,1.354
		c-0.545,0.723-0.739,1.643-1.098,2.475c-0.572,1.326-1.56,2.421-2.532,3.489c-0.767,0.844-1.857,1.769-2.908,1.327
		c-0.9-0.379-1.14-1.533-1.143-2.509c-0.003-1.546,0.281-3.093,0.834-4.536c0.876-2.286,2.405-4.289,3.171-6.615
		c0.487-1.478,0.655-3.06,1.284-4.484c1.027-2.329,3.146-3.96,5.182-5.488c1.342-1.008,2.745-2.044,4.392-2.368
		c0.801-0.158,1.661-0.132,2.398,0.219c0.737,0.352,1.327,1.066,1.393,1.88c0.131,1.625-1.651,2.717-2.249,4.234
		c-0.496,1.258-0.129,2.666,0.002,4.012C225.819,193.771,221.187,194.94,218.355,196.711z"/>
</g>
<g id="&#xB808;&#xC774;&#xC5B4;_21">
	<path style="fill:none;stroke:#000000;stroke-miterlimit:10;" d="M226.987,179.661c2.424-0.503,5.006,0.248,7.39-0.423
		c0.955-0.269,1.833-0.756,2.689-1.257c2.117-1.239,4.176-2.596,6.426-3.571c1.196-0.518,2.443-0.928,3.584-1.558
		c0.663-0.366,1.284-0.804,1.92-1.216c4.978-3.222,10.974-4.843,16.897-4.569c1.101-0.736,2.662-0.695,3.929-1.078
		c1.673-0.507,2.876-1.954,4.403-2.806c1.375-0.767,3.129-1.149,3.903-2.52c0.442-0.783,0.454-1.726,0.585-2.616
		s0.469-1.855,1.27-2.263"/>
</g>
<g id="&#xB808;&#xC774;&#xC5B4;_22">
	<path style="fill:none;stroke:#000000;stroke-miterlimit:10;" d="M225.72,190.093c1.419-0.493,2.164-2.086,3.484-2.802
		c0.814-0.441,1.771-0.509,2.695-0.568c13.495-0.856,27.022-1.661,40.366-3.846c1.612-0.264,3.222-0.548,4.85-0.684
		c2.411-0.202,5.147-0.205,6.789-1.982c2.253-2.439,5.385-3.936,7.687-6.33s4.248-5.196,5.255-8.361"/>
</g>
<g id="&#xB808;&#xC774;&#xC5B4;_23">
	<path style="fill:none;stroke:#000000;stroke-miterlimit:10;" d="M274.26,167.593"/>
	<path style="fill:none;stroke:#000000;stroke-miterlimit:10;" d="M277.819,161.035"/>
	<path style="fill:none;stroke:#000000;stroke-miterlimit:10;" d="M336.768,201.94c-0.515,0.396-0.826,0.995-1.121,1.575
		c-0.373,0.733-0.746,1.467-1.119,2.2c-0.597,1.173-1.197,2.579-0.585,3.744c0.237,0.451,0.63,0.798,1.024,1.121
		c1.512,1.242,3.169,2.31,4.928,3.168c1.004,0.489,2.039,0.91,3.074,1.33c3.898,1.583,7.795,3.167,11.693,4.75
		c1.221,0.496,2.463,0.997,3.774,1.135c1.54,0.161,3.13-0.205,4.444-1.023c0.67-0.417,1.302-1.003,1.465-1.775
		c0.139-0.658-0.092-1.353-0.488-1.897s-0.942-0.958-1.498-1.336c-2.88-1.96-6.2-3.165-9.531-4.182
		c-1.585-0.484-3.214-0.946-4.569-1.899c-0.741-0.521-1.377-1.174-2.045-1.786c-1.536-1.407-3.251-2.6-5.005-3.718
		C340.047,202.607,338.191,200.846,336.768,201.94z"/>
</g>
<g id="&#xB808;&#xC774;&#xC5B4;_24">
	<path style="fill:none;stroke:#000000;stroke-miterlimit:10;" d="M337.483,201.018c0.483-2.418,0.772-4.874,0.862-7.338
		c0.045-1.233,0.041-2.474,0.262-3.687c0.217-1.19,0.646-2.335,0.838-3.53c0.174-1.084,0.149-2.189,0.124-3.287
		c-0.075-3.248-0.149-6.496-0.224-9.744c-0.084-3.648-0.026-7.2,0.043-10.849c0.047-2.511,0.115-5.113,1.207-7.375
		c0.305-0.633,0.653-1.482,0.126-1.946c-0.556-0.49-1.509,0.033-2.144-0.349"/>
</g>
<g id="&#xB808;&#xC774;&#xC5B4;_25">
	<path style="fill:none;stroke:#000000;stroke-miterlimit:10;" d="M343.52,204.257c0.479-2.017,0.074-4.137,0.297-6.198
		c0.227-2.097,1.095-4.063,1.93-6c1.831-4.251,3.551-8.55,5.159-12.89c1.362-3.678,1.058-7.739,2.722-11.291
		c1.664-3.552,3.704-6.945,4.941-10.667c0.861-2.591-0.119-5.579-0.407-8.295c-0.165-1.554-0.405-3.159-1.256-4.47
		c-0.686-1.057-1.718-1.839-2.774-2.526c-2.375-1.543-4.99-2.715-7.722-3.463"/>
</g>
</svg>
