<?xml version="1.0" encoding="iso-8859-1"?>
<!-- Generator: Adobe Illustrator 24.0.1, SVG Export Plug-In . SVG Version: 6.00 Build 0)  -->
<svg version="1.1" xmlns="http://www.w3.org/2000/svg" xmlns:xlink="http://www.w3.org/1999/xlink" x="0px" y="0px"
	 viewBox="0 0 464 261" style="enable-background:new 0 0 464 261;" xml:space="preserve">
<g id="&#xB808;&#xC774;&#xC5B4;_1" style="display:none;">
	<image style="display:inline;overflow:visible;" width="464" height="261" xlink:href="../11.png" >
	</image>
</g>
<g id="&#xB808;&#xC774;&#xC5B4;_2">
	<path style="fill:none;stroke:#000000;stroke-miterlimit:10;" d="M177.897,57.323c-1.102-0.168-2.247-0.046-3.289,0.35
		c-0.855,0.325-1.637,0.829-2.507,1.114c-2.101,0.69-4.483-0.016-6.207-1.401c-0.83-0.666-1.534-1.477-2.354-2.155
		c-0.799-0.662-1.705-1.198-2.427-1.944c-0.813-0.841-1.361-1.934-1.548-3.088c-0.129-0.795-0.089-1.609-0.186-2.409
		c-0.137-1.138-0.555-2.241-1.204-3.186c-0.748-1.087-1.371-2.413-1.352-3.733c0.019-1.32,0.325-2.629,0.258-3.947
		c-0.042-0.838-0.235-1.673-0.153-2.507c0.115-1.173,0.771-2.24,1.612-3.067c0.841-0.826,1.861-1.442,2.876-2.041
		c0.927-0.547,1.875-1.093,2.921-1.346c0.981-0.238,2.005-0.207,3.015-0.174c2.519,0.081,5.118,0.181,7.401,1.247
		c1.087,0.507,2.065,1.219,3.007,1.961c0.377,0.297,0.753,0.604,1.045,0.985c0.978,1.278,0.806,3.056,1.109,4.636
		c0.284,1.479,1.033,2.866,2.113,3.915c0.775,0.752,1.813,1.582,1.604,2.641c-0.14,0.711-0.844,1.264-0.816,1.989
		c0.021,0.558,0.468,0.99,0.797,1.441c1.162,1.595,0.954,3.77,0.695,5.726c-0.103,0.779-0.215,1.583-0.62,2.256
		c-0.405,0.673-1.187,1.185-1.957,1.027c-0.501-0.103-0.905-0.46-1.353-0.708s-1.054-0.37-1.437-0.031
		C178.319,55.424,178.637,56.947,177.897,57.323z"/>
</g>
<g id="&#xB808;&#xC774;&#xC5B4;_3">
	<path style="fill:none;stroke:#000000;stroke-miterlimit:10;" d="M180.507,54.949c-0.691-0.456-1.528-0.62-2.303-0.912
		c-0.563-0.212-1.097-0.494-1.63-0.774c-0.372-0.196-0.75-0.397-1.045-0.697c-0.379-0.387-0.589-0.909-0.928-1.331"/>
</g>
<g id="&#xB808;&#xC774;&#xC5B4;_4">
	<path style="fill:none;stroke:#000000;stroke-miterlimit:10;" d="M146.373,55.579c1.274-0.649,2.764-0.786,4.183-0.612
		s2.785,0.643,4.121,1.156c1.207,0.463,2.399,0.964,3.574,1.502c2.413,1.105,4.96,2.599,5.788,5.121
		c0.256,0.78,0.325,1.608,0.393,2.426c0.164,1.992,0.315,4.076-0.465,5.916c-0.481,1.136-1.288,2.1-2.117,3.013
		c-1.21,1.332-3.024,2.05-4.772,2.478c-1.024,0.251-2.077,0.364-3.128,0.456c-7.658,0.667-15.363,0.213-23.051,0.212
		c-0.947,0-2.095,0.128-2.492,0.988c-0.247,0.535-0.672,1.041-0.967,1.552c-0.367,0.638-0.739,1.286-0.915,2.001
		c-0.244,0.989-0.095,2.028,0.077,3.031c0.224,1.309,0.487,2.612,0.787,3.905c1.127,4.859,0.682,10.206,2.757,14.742
		c0.201,0.439,0.427,0.865,0.607,1.313c0.371,0.921,0.536,1.91,0.799,2.867c0.501,1.83,1.355,3.546,2.313,5.184
		c0.297,0.508,0.612,1.028,0.696,1.611s-0.124,1.253-0.647,1.524c-0.605,0.313-1.358-0.021-1.843-0.5
		c-0.485-0.478-0.825-1.095-1.347-1.533c-0.522-0.438-1.351-0.646-1.864-0.198c-0.331,0.289-0.429,0.756-0.508,1.189
		c-0.088,0.482-0.176,0.965-0.264,1.447c-0.447,2.454-0.27,4.915-0.341,7.409c-0.003,0.121-0.01,0.251-0.084,0.348
		c-0.122,0.16-0.365,0.151-0.56,0.1c-0.587-0.154-1.081-0.539-1.552-0.922c-2.026-1.647-3.962-3.443-5.469-5.576
		c-1.507-2.133-2.572-4.633-2.711-7.241c-0.225-4.231-0.11-8.56-0.714-12.754c-0.312-2.169-0.491-4.361-0.796-6.531
		c-0.305-2.17-0.417-4.471,0.495-6.464c0.757-1.654,0.424-3.591-0.079-5.339c-0.502-1.748-1.223-3.438-1.553-5.227
		c-0.156-0.842-0.211-1.759,0.204-2.508c0.227-0.41,0.578-0.735,0.931-1.043c0.877-0.768,1.802-1.483,2.766-2.138
		c2.025-1.376,3.655-3.453,5.829-4.579c2.936-1.521,6.32-1.87,9.614-2.157c0.607-0.053,1.219-0.105,1.802-0.284
		c0.383-0.117,0.747-0.288,1.106-0.463c1.818-0.888,3.561-1.927,5.207-3.102C143.367,57.054,145.079,56.238,146.373,55.579z"/>
</g>
<g id="&#xB808;&#xC774;&#xC5B4;_5">
	<path style="fill:none;stroke:#000000;stroke-miterlimit:10;" d="M129.553,75.143"/>
	<path style="fill:none;stroke:#000000;stroke-miterlimit:10;" d="M128.276,78.442c0.258-0.374,0.503-0.758,0.733-1.15
		c0.077-0.131,0.152-0.263,0.207-0.404c0.063-0.16,0.099-0.329,0.16-0.49c0.04-0.105,0.09-0.207,0.129-0.313
		c0.07-0.193,0.101-0.401,0.089-0.606"/>
</g>
<g id="&#xB808;&#xC774;&#xC5B4;_6">
	<path style="fill:none;stroke:#000000;stroke-miterlimit:10;" d="M153.486,55.591c2.115-1.629,4.867-2.407,7.522-2.128"/>
</g>
<g id="&#xB808;&#xC774;&#xC5B4;_7">
	<path style="fill:none;stroke:#000000;stroke-miterlimit:10;" d="M148.204,77.394c0.213,1.206,0.426,2.411,0.639,3.617
		c0.109,0.616,0.218,1.235,0.232,1.861c0.018,0.83-0.132,1.653-0.281,2.47c-0.142,0.776-0.284,1.552-0.425,2.328
		c-1.563,8.553-0.376,17.48,2.745,25.596c0.388,1.009-0.063,1.739-0.56,2.699c-0.324,0.626-0.864,1.108-1.321,1.645
		c-1.532,1.803-2.106,4.206-2.633,6.512c-1.081,4.729-2.932,9.003-5.058,13.363c-1.205,2.472-2.707,4.894-3.029,7.625
		c-0.179,1.523,0.014,3.118-0.533,4.551c-0.412,1.083-1.242,2.081-1.149,3.235c0.161,1.998,2.677,2.649,4.576,3.292
		c1.916,0.649,3.731,1.874,4.609,3.697c0.956,1.987,1.113,4.896,3.252,5.433c1.473,0.37,2.859-0.765,3.954-1.817
		c1.977-1.901,3.946-3.809,5.907-5.726c1.563-1.527,3.144-3.089,4.189-5.008c0.868-1.595,1.358-3.422,2.538-4.802
		c1.18-1.38,3.46-2.109,4.794-0.877c4.949-0.656,9.884,2.521,14.586,4.2c2.532,0.904,5.187,1.466,7.869,1.666
		c0.344,0.026,0.724,0.035,0.993-0.182c0.288-0.231,0.348-0.638,0.388-1.005c0.251-2.334,0.494-4.698,1.297-6.904
		c0.803-2.206,2.24-4.276,4.33-5.345c1.578-0.807,3.526-1.065,4.683-2.408c-1.126-0.827-2.253-1.655-3.379-2.482
		c-6.542-4.805-13.202-9.893-20.453-13.542c-1.301-0.655-2.746-1.434-3.152-2.832c-0.181-0.621-0.123-1.287-0.009-1.923
		c0.389-2.172,1.436-4.222,2.966-5.811c1.122-1.165,1.808-2.891,2.787-4.179c0.933-1.228,1.875-2.471,2.481-3.889
		c1.464-3.43,0.774-7.359,1.275-11.054c0.773-5.697,0.178-11.451,0.334-17.197c0.067-2.476,0.124-5.02-0.715-7.351
		c-1.6-4.451-6.027-7.136-10.143-9.466"/>
</g>
<g id="&#xB808;&#xC774;&#xC5B4;_8">
</g>
<g id="&#xB808;&#xC774;&#xC5B4;_9">
	<path style="fill:none;stroke:#000000;stroke-miterlimit:10;" d="M187.37,91.169c5.194,2.184,10.685,3.556,16.061,5.24
		c6.802,2.131,13.443,4.772,19.851,7.894c0.411,0.2,0.838,0.417,1.1,0.79c0.241,0.343,0.311,0.774,0.375,1.188
		c0.207,1.345,0.415,2.691,0.622,4.036c0.143,0.924,0.446,2.036,1.352,2.267c2.371,0.604,4.685,2.074,7.132,2.055
		c1.025-0.008,2.069-0.054,3.053,0.233c2.974,0.867,4.386,4.38,7.147,5.783"/>
	<path style="fill:none;stroke:#000000;stroke-miterlimit:10;" d="M186.58,66.985c3.454,1.98,6.521,4.914,7.847,8.668
		c0.361,1.022,0.591,2.094,1.057,3.072c0.974,2.041,2.867,3.464,4.689,4.804c0.751,0.552,1.223,1.068,2.052,1.493
		c3.202,1.643,6.405,3.286,9.607,4.929c1.069,0.548,2.137,1.097,3.206,1.645c3.475,1.783,6.951,3.566,10.494,5.211
		c1.381,0.641,2.651,1.103,4.071,1.652c1.648,0.638,3.405,1.363,4.358,2.85c0.511,0.798,0.768,1.787,1.492,2.398
		c0.29,0.245,0.571,1.019,0.752,1.353c2.288,4.225,5.55,7.919,9.461,10.712"/>
</g>
<g id="&#xB808;&#xC774;&#xC5B4;_10">
	<path style="fill:none;stroke:#000000;stroke-miterlimit:10;" d="M66.301,203.473c-0.165-5.134,1.663-10.307,5.016-14.198
		c0.41-0.476,0.846-0.939,1.16-1.484c0.774-1.345,0.723-3.04,1.473-4.399c0.772-1.398,2.305-2.243,3.869-2.561
		c1.565-0.318,3.181-0.179,4.772-0.038c0.265,0.023,0.565,0.066,0.718,0.283c0.168,0.237,0.081,0.561-0.007,0.837
		c-0.756,2.371-1.142,4.859-1.138,7.348c0.002,1.101,0.07,2.25-0.391,3.25c-0.365,0.791-1.023,1.401-1.666,1.989
		c-2.782,2.547-5.606,5.057-8.329,7.667C70.728,203.171,66.301,207.284,66.301,203.473z"/>
</g>
<g id="&#xB808;&#xC774;&#xC5B4;_11">
	<path style="fill:none;stroke:#000000;stroke-miterlimit:10;" d="M83.982,180.571c2.915-0.423,5.83-0.846,8.744-1.269
		c2.068-0.3,4.146-0.602,6.147-1.205c4.533-1.365,8.46-4.198,12.239-7.048c0.755-0.57,1.515-1.146,2.368-1.557
		c1.917-0.923,4.147-0.939,6.15-1.656c1.813-0.649,3.429-1.869,5.329-2.189c1.658-0.28,3.395,0.155,5.023-0.262
		c1.928-0.494,3.369-2.095,4.448-3.767c1.333-2.066,2.304-4.364,2.855-6.76"/>
</g>
<g id="&#xB808;&#xC774;&#xC5B4;_12">
	<path style="fill:none;stroke:#000000;stroke-miterlimit:10;" d="M82.357,191.92c2.608-3.163,6.562-5.177,10.654-5.429
		c1.972-0.121,3.948,0.147,5.924,0.11c4.53-0.085,8.859-1.762,13.304-2.636c7.863-1.546,15.996-0.564,23.978-1.284
		c1.403-0.127,2.824-0.312,4.117-0.871s2.46-1.543,2.953-2.862c1.268-3.396,2.938-6.412,5.472-9.004
		c1.3-1.33,2.807-2.83,2.687-4.686"/>
</g>
<g id="&#xB808;&#xC774;&#xC5B4;_13">
	<path style="fill:none;stroke:#000000;stroke-miterlimit:10;" d="M192.178,208.715c5.736,6.758,14.277,10.61,22.94,12.488
		c1.938,0.42,4.011,0.743,5.861,0.031c0.455-0.175,0.903-0.424,1.183-0.823c0.541-0.772,0.279-1.89-0.339-2.602
		c-0.618-0.712-1.507-1.117-2.361-1.517c-3.477-1.627-6.831-3.5-10.182-5.372c-1.619-0.904-3.244-1.812-4.728-2.924
		c-1.152-0.862-2.211-1.84-3.319-2.759c-1.486-1.233-5.026-4.897-6.877-3.029c-0.726,0.733-1.023,2.072-1.667,2.917
		C191.664,206.472,190.852,207.153,192.178,208.715z"/>
</g>
<g id="&#xB808;&#xC774;&#xC5B4;_14">
	<path style="fill:none;stroke:#000000;stroke-miterlimit:10;" d="M195.839,200.529c-0.453-8.101-0.906-16.204-1.098-24.316
		c-0.095-4.011,0.003-8.404,2.591-11.471c2.282-2.705,1.209-7.132,1.503-10.659c0.013-0.151,0.02-0.319-0.076-0.436
		c-0.12-0.146-0.339-0.146-0.528-0.139c-1.392,0.053-2.796-0.211-4.074-0.767"/>
</g>
<g id="&#xB808;&#xC774;&#xC5B4;_15">
	<path style="fill:none;stroke:#000000;stroke-miterlimit:10;" d="M200.419,203.816c0.094-3.73,0.194-7.502,1.156-11.107
		c1.062-3.983,3.133-7.61,5.183-11.186c4.004-6.986,2-16.372,6.517-23.037c1.525-2.251,3.696-4.362,3.776-7.08
		c0.071-2.445-1.598-4.555-3.177-6.422c-2.669-3.156-5.634-6.496-9.671-7.382"/>
</g>
<g id="&#xB808;&#xC774;&#xC5B4;_16">
	<path style="fill:none;stroke:#000000;stroke-miterlimit:10;" d="M316.257,63.203c-0.181,0.038-0.363,0.075-0.545,0.107
		c-2.202,0.378-4.483-0.202-6.477-1.209s-3.749-2.423-5.486-3.828c-0.93-0.752-1.866-1.51-2.635-2.425
		c-0.555-0.66-1.016-1.394-1.474-2.125c-1.021-1.626-2.051-3.272-2.656-5.094c-0.605-1.822-0.751-3.867-0.003-5.635
		c0.987-2.332,3.272-4.045,5.552-5.147c1.635-0.79,3.444-1.136,5.228-1.474c1.528-0.289,3.093-0.58,4.629-0.337
		c1.241,0.196,2.399,0.731,3.611,1.061c1.027,0.279,2.09,0.41,3.12,0.679c1.03,0.268,2.055,0.693,2.8,1.453
		c0.745,0.76,1.16,1.91,0.829,2.922c-0.159,0.486,0.177,0.961,0.391,1.425c0.226,0.49,0.452,0.981,0.677,1.471
		c0.18,0.39,0.39,0.812,0.783,0.987c0.558,0.248,1.373-0.05,1.716,0.455c0.32,0.472-0.161,1.067-0.601,1.431
		c-0.547,0.452-1.094,0.904-1.641,1.356c-0.187,0.155-0.382,0.319-0.47,0.545c-0.131,0.336,0.01,0.725,0.241,1.002
		c0.231,0.277,0.543,0.472,0.823,0.699c0.686,0.554,1.223,1.395,1.121,2.271c-0.07,0.606,0.008,1.223,0.041,1.833
		c0.062,1.155,0.08,2.441-0.688,3.305c-0.522,0.588-1.334,0.861-2.12,0.858c-0.786-0.003-1.551-0.255-2.267-0.58
		c-0.177-0.08-0.365-0.168-0.557-0.139c-0.161,0.024-0.299,0.126-0.422,0.234C318.537,60.388,317.871,62.868,316.257,63.203z"/>
</g>
<g id="&#xB808;&#xC774;&#xC5B4;_17">
	<path style="fill:none;stroke:#000000;stroke-miterlimit:10;" d="M320.783,59.214c-0.455-0.18-0.914-0.362-1.324-0.63
		c-0.164-0.107-0.319-0.228-0.485-0.331c-0.267-0.166-0.56-0.286-0.838-0.432c-0.512-0.269-0.971-0.626-1.427-0.981
		c-0.13-0.101-0.261-0.203-0.374-0.323"/>
</g>
<g id="&#xB808;&#xC774;&#xC5B4;_18">
	<path style="fill:none;stroke:#000000;stroke-miterlimit:10;" d="M287.311,63.492c2.393-0.368,4.83-0.253,7.248-0.137
		c1.361,0.065,2.739,0.133,4.039,0.539c1.253,0.391,2.387,1.081,3.508,1.764c0.758,0.462,1.532,0.939,2.08,1.637
		c0.844,1.076,1.031,2.514,1.142,3.877c0.158,1.938,0.181,4.046-0.945,5.631c-0.731,1.029-1.872,1.707-3.067,2.113
		c-4.25,1.445-8.486,2.787-12.897,3.62c-1.451,0.274-2.905,0.549-4.375,0.685c-1.702,0.158-3.416,0.13-5.12,0.257
		c-2.837,0.21-5.641,0.85-8.288,1.89c-0.656,0.258-1.41,0.691-1.412,1.397c-2.224,2.732-4.012,5.764-5.112,9.111
		c-0.985,2.995-2.95,5.535-4.46,8.303c-1.507,2.763-3.048,5.641-3.241,8.783c-0.196,3.184-0.079,6.315,0.086,9.501
		c0.064,1.23,0.549,2.313,0.886,3.497c0.107,0.375,0.214,0.763,0.161,1.149c-0.054,0.386-0.314,0.772-0.697,0.843
		c-0.496,0.093-0.925-0.348-1.195-0.774c-0.254-0.401-0.465-0.828-0.628-1.274c-0.091-0.247-0.186-0.524-0.419-0.647
		c-0.312-0.165-0.715,0.055-0.877,0.369c-0.162,0.314-0.151,0.685-0.145,1.038c0.017,1.016-0.04,2.033-0.171,3.04
		c-0.084,0.646-0.202,1.298-0.491,1.881c-0.795,1.605-2.786,2.358-4.562,2.128c-1.776-0.23-3.351-1.264-4.683-2.461
		c-0.669-0.601-1.313-1.278-1.623-2.122c-0.337-0.918-0.242-1.941-0.008-2.89c0.655-2.658,2.333-4.964,3.091-7.594
		c0.247-0.857,0.393-1.74,0.602-2.608c0.719-2.998,2.161-5.766,3.635-8.474c1.76-3.232,1.217-7.25,2.25-10.783
		c0.427-1.461,0.93-2.9,1.504-4.31c0.797-1.956,1.122-4.014,1.18-6.125c0.042-1.526-0.097-3.091,0.351-4.55
		c0.476-1.551,1.591-2.851,2.918-3.785s2.86-1.531,4.41-2.011c1.198-0.371,2.396-1.116,3.513-1.685
		c0.678-0.345,1.333-0.737,2.029-1.043c2.302-1.015,4.981-1.076,7.146-2.357c0.76-0.449,1.429-1.035,2.108-1.599
		c1.713-1.422,3.519-2.728,5.323-4.033c0.783-0.566,1.578-1.139,2.483-1.478C285.456,63.483,286.387,63.423,287.311,63.492z"/>
</g>
<g id="&#xB808;&#xC774;&#xC5B4;_19">
	<path style="fill:none;stroke:#000000;stroke-miterlimit:10;" d="M296.004,63.386c0.953-1.518,2.345-2.756,3.964-3.524
		c0.408-0.194,0.832-0.359,1.218-0.595c0.652-0.398,1.17-0.977,1.678-1.548"/>
</g>
<g id="&#xB808;&#xC774;&#xC5B4;_20">
	<path style="fill:none;stroke:#000000;stroke-miterlimit:10;" d="M285.972,82.829c0.572,0.91,1.118,1.836,1.638,2.777
		c0.51,0.923,1.01,1.94,0.862,2.984c-0.874,6.179,0.762,12.334,1.164,18.562c0.183,2.84,0.365,5.713-0.127,8.517
		c-1.683,9.591-3.644,19.195-3.164,28.921c-4.224,6.031-7.742,13.001-7,20.327c0.031,0.309,0.076,0.631,0.253,0.886
		c0.263,0.376,0.744,0.513,1.18,0.655c2.516,0.822,4.59,2.594,6.881,3.92c2.291,1.326,5.154,2.209,7.553,1.091
		c1.382-0.644,2.399-1.858,3.369-3.034c0.805-0.977,1.611-1.954,2.416-2.931c1.184-1.436,2.392-2.915,2.982-4.68
		c0.972-2.905,0.294-6.55,2.496-8.68c2.361-0.12,4.205,1.901,6.323,2.949c2.035,1.007,4.377,1.112,6.62,1.465
		c3.79,0.595,7.458,1.95,10.725,3.961c3.138,1.932,6.311,4.578,9.978,4.21c0.829-1.223,1.729-2.578,2.558-3.801
		c0.835-1.231,1.712-2.503,2.996-3.254c1.081-0.633,2.353-0.836,3.529-1.266s2.36-1.21,2.679-2.421
		c0.273-1.037-0.163-2.141-0.792-3.01c-1.074-1.48-2.669-2.479-4.223-3.441c-2.406-1.489-4.811-2.977-7.217-4.466
		c-6.272-3.881-12.557-8.835-18.096-13.704c-0.667-0.587-1.347-1.203-1.72-2.01c-0.681-1.475-0.187-3.199,0.315-4.745
		c1.296-3.992,3.281-7.175,5.072-10.971c3.021-6.401,2.003-15.44,1.022-22.325c-0.41-2.879-0.999-5.759-0.881-8.665
		c0.139-3.411,0.103-6.968,0.17-10.381c0.017-0.871,0.023-1.789-0.4-2.551c-0.537-0.968-1.63-1.456-2.622-1.946
		c-1.896-0.938-3.677-2.109-5.289-3.48"/>
</g>
<g id="&#xB808;&#xC774;&#xC5B4;_21">
	<path style="fill:none;stroke:#000000;stroke-miterlimit:10;" d="M326.63,106.302c2.038-0.311,3.822-1.537,5.349-2.922
		s2.882-2.964,4.517-4.219c1.231-0.945,2.601-1.691,3.87-2.582c2.453-1.722,4.491-3.958,6.508-6.175
		c0.522-0.574,1.049-1.154,1.423-1.833c0.4-0.724,0.612-1.534,0.82-2.334c0.691-2.656,1.382-5.311,2.073-7.967
		c0.822-3.157,0.979-6.438,0.878-9.699c-0.067-2.147-0.242-4.367-1.26-6.258s-3.096-3.369-5.219-3.049
		c-0.787,0.119-1.658,0.674-1.59,1.467c0.036,0.414,0.32,0.755,0.536,1.109c0.682,1.121,0.714,2.506,0.727,3.818
		c0.005,0.513-0.004,1.07-0.322,1.473c-0.533,0.677-1.57,0.544-2.42,0.406c-0.85-0.138-1.951-0.081-2.272,0.719
		c-0.334,0.832,0.479,1.63,1.1,2.275c1.361,1.415,2.118,3.392,2.051,5.354c-0.068,1.962-0.959,3.883-2.414,5.201
		c-1.348,1.221-2.634,2.515-3.991,3.728c-1.039,0.93-2.459,1.921-3.704,1.293c-0.837-0.422-1.198-1.443-1.22-2.38
		s0.215-1.863,0.216-2.8c0.004-2.226-1.294-4.218-2.543-6.061c-1.376-2.029-2.751-4.058-4.127-6.088"/>
</g>
<g id="&#xB808;&#xC774;&#xC5B4;_22">
	<path style="fill:none;stroke:#000000;stroke-miterlimit:10;" d="M220.556,179.438c-1.439,0.478-2.833,1.093-4.156,1.833
		c-0.929,0.519-1.828,1.104-2.603,1.833c-0.365,0.343-0.702,0.718-1.097,1.027c-1.54,1.205-3.68,1.219-5.626,1.026
		c-0.372-0.037-0.772-0.092-1.044-0.349c-0.286-0.27-0.356-0.698-0.342-1.091c0.078-2.21,2.174-3.789,2.937-5.864
		c0.445-1.21,0.459-2.638,1.323-3.594c0.479-0.53,1.152-0.831,1.745-1.229c0.877-0.589,1.581-1.395,2.283-2.183
		c2.755-3.094,5.642-6.072,8.649-8.921c0.481-0.456,0.981-0.918,1.598-1.16c0.721-0.283,1.524-0.234,2.297-0.182
		c0.834,0.057,1.668,0.114,2.502,0.17c0.335,0.023,0.689,0.052,0.963,0.246c0.292,0.206,0.437,0.559,0.543,0.9
		c0.412,1.328,0.436,2.774,0.068,4.114c-0.756,2.751-3.001,4.781-4.843,6.959c-1.185,1.401-1.606,2.57-1.794,4.331
		C223.81,178.714,221.701,179.057,220.556,179.438z"/>
</g>
<g id="&#xB808;&#xC774;&#xC5B4;_23">
	<path style="fill:none;stroke:#000000;stroke-miterlimit:10;" d="M224.053,177.649c4.078-0.831,8.296-0.313,12.425,0.208
		c8.258,1.041,16.557,2.091,24.55,4.412c2.005,0.582,3.988,1.244,6.002,1.796c3.986,1.093,8.09,1.754,12.218,1.969
		c1.492,0.078,3.017,0.093,4.444-0.352c1.426-0.445,2.757-1.421,3.286-2.818c0.44-1.162,0.917-2.079,1.323-3.254
		c0.272-0.789,0.681-1.53,1.203-2.182c1.56-1.948,4.123-3.116,5.072-5.424"/>
</g>
<g id="&#xB808;&#xC774;&#xC5B4;_24">
	<path style="fill:none;stroke:#000000;stroke-miterlimit:10;" d="M231.126,164.674c1.619,0.089,3.189,0.557,4.76,0.96
		c10.646,2.731,21.792,2.535,32.782,2.419c1.218-0.013,2.439-0.024,3.653,0.084c1.933,0.173,3.841,0.652,5.611,1.45
		c0.134,0.061,0.284,0.124,0.425,0.081c0.275-0.084,0.286-0.461,0.268-0.747c-0.063-1.004,0.212-2.027,0.771-2.864"/>
</g>
<g id="&#xB808;&#xC774;&#xC5B4;_25">
	<path style="fill:none;stroke:#000000;stroke-miterlimit:10;" d="M358.134,225.494c4.386,0.141,8.732,0.975,13.12,1.038
		s8.993-0.745,12.426-3.479c1.298-1.034,2.455-2.852,1.564-4.252c-0.671-1.055-2.116-1.221-3.365-1.28
		c-9.038-0.422-18.715-1.898-27.734-1.147c-2.758,0.23-5.859,1.452-4.977,4.775C350.251,225.223,354.717,225.384,358.134,225.494z"
		/>
</g>
<g id="&#xB808;&#xC774;&#xC5B4;_26">
	<path style="fill:none;stroke:#000000;stroke-miterlimit:10;" d="M349.177,218.599c-0.143-9.343-0.504-19.119-5.111-27.248
		c-1.45-2.558-3.367-5.173-3.071-8.098c0.601-5.932-0.474-11.721-1.611-17.574"/>
</g>
<g id="&#xB808;&#xC774;&#xC5B4;_27">
	<path style="fill:none;stroke:#000000;stroke-miterlimit:10;" d="M362.496,215.902c-3.23-7.426-5.192-15.33-7.139-23.19
		c-0.918-3.706-1.836-7.412-2.755-11.117c-1.005-4.058,0.492-8.776,0.525-12.957c0.011-1.367,0.023-2.75,0.367-4.073
		c0.412-1.585,1.292-3.063,1.378-4.698c0.105-1.995-1.13-3.993-2.961-4.791"/>
</g>
</svg>
