<?xml version="1.0" encoding="iso-8859-1"?>
<!-- Generator: Adobe Illustrator 24.0.1, SVG Export Plug-In . SVG Version: 6.00 Build 0)  -->
<svg version="1.1" xmlns="http://www.w3.org/2000/svg" xmlns:xlink="http://www.w3.org/1999/xlink" x="0px" y="0px"
	 viewBox="0 0 464 261" style="enable-background:new 0 0 464 261;" xml:space="preserve">
<g id="&#xB808;&#xC774;&#xC5B4;_1" style="display:none;">
	<image style="display:inline;overflow:visible;" width="464" height="261" xlink:href="../12.png" >
	</image>
</g>
<g id="&#xB808;&#xC774;&#xC5B4;_2">
	<path style="fill:none;stroke:#000000;stroke-miterlimit:10;" d="M179.453,61.953c-0.476,0.58-1.34,0.598-2.09,0.567
		c-1.627-0.066-3.255-0.133-4.882-0.199c-1.465-0.06-2.99-0.135-4.279-0.835c-0.646-0.351-1.202-0.844-1.752-1.332
		c-2.381-2.117-4.763-4.233-7.144-6.35c-0.566-0.503-1.142-1.018-1.516-1.676c-0.301-0.529-0.458-1.126-0.591-1.719
		c-0.388-1.732-0.599-3.55-0.176-5.275c0.763-3.109,3.397-5.347,5.885-7.362c1.062-0.86,2.163-1.741,3.477-2.116
		c1.008-0.287,2.08-0.257,3.121-0.132c2.895,0.346,5.655,1.388,8.381,2.422c0.423,0.16,0.851,0.323,1.218,0.587
		c0.466,0.336,0.807,0.814,1.138,1.283c1.462,2.07,2.924,4.14,4.387,6.21c0.489,0.692,0.993,1.422,1.092,2.264
		c0.124,1.056-1.408,2.062-1.737,3.073c-0.328,1.012,0.619,2.295,1.449,2.961c0.212,1.359,0.105,2.613-0.065,3.977
		c-0.038,0.302-0.091,0.618-0.279,0.857c-0.293,0.371-0.821,0.451-1.294,0.442c-0.636-0.011-1.269-0.129-1.866-0.349
		c-0.237-0.087-0.485-0.192-0.733-0.146c-0.275,0.051-0.48,0.273-0.665,0.482C179.969,60.228,179.995,61.292,179.453,61.953z"/>
</g>
<g id="&#xB808;&#xC774;&#xC5B4;_3">
	<path style="fill:none;stroke:#000000;stroke-miterlimit:10;" d="M181.901,59.21c-0.876-0.12-1.688-0.53-2.422-1.023
		s-1.406-1.072-2.127-1.583"/>
</g>
<g id="&#xB808;&#xC774;&#xC5B4;_4">
	<path style="fill:none;stroke:#000000;stroke-miterlimit:10;" d="M150.414,62.889c2.375-0.65,4.892-0.372,7.338-0.09
		c0.943,0.109,1.896,0.22,2.786,0.549c1.554,0.575,2.792,1.763,3.935,2.963c0.403,0.423,0.808,0.862,1.044,1.397
		c0.231,0.524,0.284,1.108,0.283,1.681c-0.007,2.31-0.859,4.525-1.722,6.669c-0.712,1.767-1.488,3.596-2.936,4.834
		c-2.192,1.874-5.381,1.951-8.245,1.61c-1.971,0.472-3.83,0.827-5.726,1.543c-1.053,0.398-2.081,0.871-3.162,1.187
		c-4.044,1.182-8.346,0.076-12.515-0.534c-0.629-0.092-1.286-0.17-1.887,0.035c-0.601,0.205-1.125,0.779-1.058,1.411
		c0.045,0.426,0.336,0.78,0.615,1.105c1.919,2.242,0.361,5.92,0.378,8.871c0.014,2.411,0.212,4.821,0.591,7.203
		c0.104,0.651,0.223,1.305,0.469,1.917c0.355,0.881,0.979,1.696,0.998,2.646c0.013,0.632-0.248,1.282-0.043,1.88
		c0.16,0.466,0.569,0.794,0.959,1.095c0.562,0.434,1.124,0.868,1.686,1.302c1.934,0.219,3.577,1.448,4.222,3.284
		c0.487,1.386,0.38,2.948,1.001,4.279c0.231,0.496,0.558,0.944,0.767,1.45c0.199,0.481,0.287,1,0.373,1.514
		c0.044,0.262,0.087,0.535,0.005,0.788c-0.082,0.253-0.331,0.472-0.592,0.425c-0.31-0.056-0.444-0.412-0.639-0.659
		c-0.51-0.646-1.727-0.439-1.994,0.339c-0.504,1.47-0.929,3.192,0.159,4.301c0.565,0.575,1.421,1.125,1.288,1.919
		c-0.072,0.43-0.449,0.761-0.865,0.89c-0.416,0.129-0.865,0.089-1.294,0.014c-3.177-0.557-5.73-2.907-7.79-5.389
		c-3.053-3.679-5.537-8.135-5.538-12.915c0-2.208,0.387-4.384-0.117-6.534c-0.256-1.09-0.656-2.14-1.014-3.201
		c-1.298-3.853-2.04-7.892-2.194-11.955c-0.096-2.539-0.487-4.989-0.498-7.53c-0.013-2.942,1.022-5.984,3.234-7.923
		c2.355-2.065,5.671-2.627,8.803-2.658c1.421-0.014,3.017-0.002,4.028-1.002c2.919-2.888,6.832-4.93,10.241-7.22
		C147.088,63.506,148.872,62.611,150.414,62.889z"/>
</g>
<g id="&#xB808;&#xC774;&#xC5B4;_5">
	<path style="fill:none;stroke:#000000;stroke-miterlimit:10;" d="M161.946,64.061c0.496-0.8,0.684-1.757,0.719-2.697
		c0.035-0.94-0.072-1.88-0.119-2.819c-0.026-0.52-0.005-1.112,0.384-1.457"/>
</g>
<g id="&#xB808;&#xC774;&#xC5B4;_6">
	<path style="fill:none;stroke:#000000;stroke-miterlimit:10;" d="M149.713,83.411c-0.848,6.289-0.947,12.679-0.296,18.992
		c0.488,4.733,0.435,9.403,1.032,14.124c0.216,1.707,0.669,3.384,0.761,5.102s-0.229,3.551-1.365,4.843
		c-1.869,2.126-2.496,5.194-2.88,7.999c-0.086,0.625-0.142,1.269,0.017,1.879c0.125,0.481,0.379,0.919,0.538,1.39
		c0.24,0.714,0.253,1.481,0.264,2.233c0.033,2.244,0.052,4.565-0.824,6.631c-0.608,1.434-2.116,2.301-3.03,3.562
		c-1.265,1.745-2.558,3.547-3.079,5.638c-0.579,2.321-0.15,4.761,0.281,7.114c2.528,1.018,5.517,0.674,8.168,1.306
		c2.761,0.658,5.288,2.185,7.259,4.227c0.375,0.389,0.892,0.835,1.385,0.614c0.132-0.059,0.239-0.161,0.343-0.261
		c3.071-2.966,5.717-6.371,7.831-10.081c0.774-1.357,0.49-2.921,1.37-4.212c0.487-0.715,1.314-1.145,2.164-1.309
		c0.849-0.164,1.726-0.086,2.582,0.043c2.448,0.37,4.83,1.164,7.011,2.336c5.979,3.214,11.817,6.853,18.54,7.792
		c0.864-1.64,1.146-3.706,1.972-5.366c1.018-2.048,2.841-3.574,4.73-4.863c1.889-1.289,3.908-2.414,5.591-3.961
		c-7.289-7.666-17.4-12.496-26.54-17.821c-0.937-0.546-1.889-1.119-2.568-1.964c-0.679-0.845-1.039-2.031-0.633-3.036
		c0.397-0.984,1.474-1.75,1.37-2.806c-0.307-3.137,0.308-7.406,1.782-10.192c0.634-1.198,1.518-2.262,2.045-3.51
		c0.588-1.392,0.701-2.933,0.777-4.443c0.26-5.153,0.183-10.322-0.231-15.465c-0.336-4.176,0.124-8.976,0.173-13.165
		c0.019-1.592,0.033-3.215-0.447-4.733c-0.327-1.036-0.874-1.988-1.416-2.93c-1.382-2.4-2.765-4.801-4.147-7.201"/>
</g>
<g id="&#xB808;&#xC774;&#xC5B4;_7">
	<path style="fill:none;stroke:#000000;stroke-miterlimit:10;" d="M90.567,162.968c-0.025-0.389-0.065-0.792-0.265-1.126
		c-0.579-0.965-2.006-0.791-3.091-0.491c-3.787,1.044-7.737,2.178-10.593,4.876c-1.002,0.946-1.834,2.056-2.784,3.055
		c-1.723,1.811-3.845,3.27-5.229,5.352c-1.668,2.51-2.07,5.625-2.428,8.616c-0.043,0.358-0.081,0.745,0.096,1.06
		c0.275,0.49,0.927,0.588,1.488,0.631c1.155,0.088,2.367,0.166,3.42-0.318c0.751-0.345,1.348-0.946,2.001-1.453
		c1.933-1.502,4.356-2.188,6.561-3.25C86.27,176.775,91.029,170.288,90.567,162.968z"/>
</g>
<g id="&#xB808;&#xC774;&#xC5B4;_8">
	<path style="fill:none;stroke:#000000;stroke-miterlimit:10;" d="M90.803,164.34c3.866,0.075,7.566,1.458,11.327,2.355
		c5.425,1.293,11.033,1.579,16.603,1.86c1.932,0.097,3.867,0.195,5.8,0.127c2.871-0.1,5.836-0.551,8.551,0.387
		c2.596,0.897,4.678,2.982,7.322,3.727c0.358-3.221,0.716-6.442,1.074-9.663"/>
</g>
<g id="&#xB808;&#xC774;&#xC5B4;_9">
	<path style="fill:none;stroke:#000000;stroke-miterlimit:10;" d="M86.458,174.939c5.98-1.249,12.398-0.277,17.74,2.687
		c2.162,1.2,4.198,2.731,6.598,3.327c1.916,0.476,3.923,0.317,5.896,0.374c6.493,0.186,12.673,2.706,19.071,3.833
		c4.068,0.716,8.765,0.678,11.705-2.224c2.746-2.709,6.218-5.486,7.632-9.075c0.615-1.562,0.696-3.457,1.955-4.566"/>
</g>
<g id="&#xB808;&#xC774;&#xC5B4;_10">
	<path style="fill:none;stroke:#000000;stroke-miterlimit:10;" d="M212.293,217.465c-1.719,0.576-1.934,2.939-1.5,4.699
		c0.088,0.358,0.196,0.723,0.43,1.007c0.3,0.363,0.765,0.541,1.215,0.682c4.722,1.484,9.932,0.508,14.688,1.88
		c1.877,0.541,3.648,1.441,5.565,1.816c4.493,0.879,9.188-1.336,12.234-4.753c0.881-0.988,1.694-2.235,1.477-3.541
		c-0.217-1.306-2.034-2.25-2.927-1.272c-7.066-0.181-14.525-3.933-21.413-2.349C218.834,216.375,215.525,218.194,212.293,217.465z"
		/>
</g>
<g id="&#xB808;&#xC774;&#xC5B4;_11">
	<path style="fill:none;stroke:#000000;stroke-miterlimit:10;" d="M212.913,217.374c-2.661-4.425-5.378-9.001-6.132-14.109
		c-0.282-1.908-0.281-3.856-0.669-5.746c-0.773-3.77-3.021-7.043-4.6-10.553c-2.151-4.78-3.07-10.108-2.645-15.333
		c0.237-2.918,0.869-5.961-0.175-8.695"/>
</g>
<g id="&#xB808;&#xC774;&#xC5B4;_12">
	<path style="fill:none;stroke:#000000;stroke-miterlimit:10;" d="M223.87,214.906c-4.141-4.718-5.383-11.238-6.467-17.421
		c-0.652-3.715-1.304-7.43-1.955-11.144c-0.556-3.168-1.099-5.925-1.981-9.018c-0.713-2.5-1.737-4.911-2.294-7.45
		c-0.557-2.539-0.608-5.305,0.566-7.624c0.438-0.864,1.033-1.641,1.475-2.504c1.873-3.652,0.373-8.657-3.2-10.677"/>
</g>
<g id="&#xB808;&#xC774;&#xC5B4;_13">
	<path style="fill:none;stroke:#000000;stroke-miterlimit:10;" d="M186.168,93.149c4.388,2.026,8.776,4.051,13.164,6.077
		c1.603,0.74,3.206,1.48,4.768,2.304c4.569,2.411,8.89,5.58,13.962,6.564c1.254,0.243,2.612,0.38,3.592,1.199
		c0.517,0.432,0.887,1.026,1.437,1.414c2.086,1.473,2.175,4.645,2.933,7.083c0.341,1.098,0.741,2.351,1.793,2.816
		c0.547,0.242,1.17,0.215,1.767,0.183c1.352-0.071,2.704-0.143,4.056-0.214c0.851-0.045,1.732-0.085,2.527,0.222
		c0.453,0.175,0.857,0.456,1.256,0.734c1.496,1.044,2.993,2.088,4.489,3.132"/>
</g>
<g id="&#xB808;&#xC774;&#xC5B4;_14">
	<path style="fill:none;stroke:#000000;stroke-miterlimit:10;" d="M184.419,68.265c1.404,0.13,2.407,1.369,3.239,2.506
		c0.657,0.898,1.316,1.798,1.901,2.744c1.919,3.101,3.073,6.72,5.569,9.378c0.706,0.752,1.506,1.41,2.31,2.057
		c4.051,3.258,8.284,6.291,12.671,9.08c5.996,3.812,12.633,6.217,19.09,9.183c2.58,1.185,5.346,2.646,6.417,5.276
		c0.349,0.857,0.508,1.822,1.108,2.527c0.628,0.737,1.269,1.431,1.817,2.229c1.198,1.743,2.413,3.506,4.009,4.893
		c0.826,0.718,1.747,1.327,2.732,1.806"/>
</g>
<g id="&#xB808;&#xC774;&#xC5B4;_15">
	<path style="fill:none;stroke:#000000;stroke-miterlimit:10;" d="M319.68,64.479c-1.423,0.266-2.911-0.043-4.225-0.65
		s-2.476-1.499-3.577-2.44c-1.585-1.355-3.07-2.828-4.721-4.1c-0.761-0.586-1.56-1.133-2.227-1.824s-1.201-1.559-1.291-2.515
		c-1.54-1.589-2.587-3.742-2.946-5.926c-0.187-1.136-0.185-2.339,0.277-3.394c0.483-1.103,1.416-1.935,2.327-2.723
		c0.765-0.663,1.534-1.321,2.307-1.975c0.72-0.609,1.456-1.222,2.319-1.603c1-0.441,2.111-0.544,3.201-0.624
		c1.434-0.106,2.887-0.182,4.299,0.092c0.761,0.148,1.498,0.395,2.232,0.642c1.034,0.347,2.068,0.695,3.102,1.042
		c0.457,0.154,0.941,0.326,1.236,0.706c0.244,0.313,0.321,0.72,0.432,1.101c0.44,1.499,1.485,2.734,2.521,3.903
		c0.812,0.917,1.712,1.869,2.904,2.151c0.51,0.121,1.125,0.156,1.401,0.601c0.125,0.201,0.148,0.446,0.168,0.682
		c0.069,0.803,0.005,1.83-0.75,2.11c-0.368,0.136-0.841,0.053-1.104,0.344c-0.379,0.42,0.075,1.043,0.417,1.494
		c1.286,1.699,0.935,4.08,0.523,6.17c-0.184,0.932-1.267,1.478-2.112,1.913c-0.563,0.29-1.196,0.513-1.822,0.414
		c-0.686-0.108-1.25-0.581-1.776-1.035c-0.449,0.308-0.364,0.977-0.491,1.507c-0.165,0.691-0.74,1.201-1.069,1.832
		C320.841,63.134,320.519,64.322,319.68,64.479z"/>
</g>
<g id="&#xB808;&#xC774;&#xC5B4;_16">
	<path style="fill:none;stroke:#000000;stroke-miterlimit:10;" d="M323.256,59.414c-0.454-0.511-1.071-0.846-1.574-1.309
		c-0.341-0.315-0.663-0.708-1.119-0.793"/>
</g>
<g id="&#xB808;&#xC774;&#xC5B4;_17">
	<path style="fill:none;stroke:#000000;stroke-miterlimit:10;" d="M287.862,65.849c2.674-0.917,5.418-1.634,8.199-2.142
		c0.72-0.131,1.452-0.249,2.182-0.193c1.037,0.08,2.013,0.507,2.961,0.936c1.609,0.728,3.269,1.53,4.351,2.926
		c1.592,2.054,1.575,4.888,1.487,7.485c-0.077,2.265-0.281,4.807-2.001,6.283c-0.999,0.857-2.336,1.182-3.618,1.48
		c-1.927,0.448-3.853,0.896-5.78,1.343c-1.504,0.35-3.012,0.7-4.544,0.892c-3.848,0.483-7.791-0.037-11.602,0.683
		c-2.186,0.413-4.541,0.824-6.227,2.276c-0.898,0.773-1.33,1.956-1.584,3.114s-0.371,2.356-0.805,3.458
		c-0.339,0.859-0.869,1.643-1.54,2.278c-2.11,1.996-3.312,4.768-4.97,7.153c-0.821,1.181-1.652,2.381-2.119,3.742
		c-0.418,1.215-0.529,2.521-0.432,3.802c-1.454,3.004-1.704,6.7-1.746,10.037c-0.042,3.337,0.186,6.691-0.233,10.002
		c-0.093,0.732-0.441,1.656-1.178,1.621c-0.791-0.039-1-1.127-0.853-1.905c0.147-0.779,0.346-1.747-0.284-2.228
		c-0.103-0.079-0.222-0.136-0.348-0.167c-0.903-0.223-1.542,0.849-1.851,1.726c-0.574,1.631-1.796,3.179-1.454,4.874
		c0.072,0.358,0.177,0.719,0.14,1.083c-0.085,0.834-0.928,1.435-1.763,1.501c-0.835,0.065-1.647-0.286-2.373-0.704
		c-2.079-1.197-3.756-2.969-5.401-4.715c-0.488-0.518-0.981-1.044-1.31-1.675c-0.516-0.991-0.58-2.147-0.634-3.264
		c-0.063-1.319-0.121-2.677,0.319-3.922c0.304-0.861,0.832-1.624,1.388-2.348c0.928-1.207,1.952-2.338,3.061-3.381
		c1.359-1.278,2.781-2.752,3.981-4.18c0.624-0.743,1.259-1.505,1.605-2.412c0.295-0.774,0.362-1.613,0.427-2.44
		c0.088-1.121,0.175-2.243,0.263-3.364c0.274-3.509,1.708-6.905,2.121-10.4c0.203-1.72,0.313-3.459,0.736-5.139
		c0.741-2.941,2.403-5.552,4.04-8.105c1.176-1.834,2.729-3.407,4.324-4.891c0.811-0.754,1.761-1.339,2.704-1.919
		c2.661-1.636,5.356-3.287,8.338-4.217c0.865-0.27,1.76-0.481,2.55-0.926c0.537-0.302,1.012-0.705,1.536-1.031
		C282.167,67.482,285.365,66.705,287.862,65.849z"/>
</g>
<g id="&#xB808;&#xC774;&#xC5B4;_18">
	<path style="fill:none;stroke:#000000;stroke-miterlimit:10;" d="M299.001,63.578c1.412-1.708,2.956-3.307,4.612-4.78
		c0.886-0.788,1.855-1.565,3.017-1.802"/>
</g>
<g id="&#xB808;&#xC774;&#xC5B4;_19">
	<path style="fill:none;stroke:#000000;stroke-miterlimit:10;" d="M292.26,84.797c-0.203,3.994,0.853,7.956,0.848,11.956
		c-0.004,3.157,0.333,6.275,0.862,9.387c0.412,2.423,1.029,4.851,0.845,7.302c-0.979,13.06-3.148,26.751-9.009,38.463
		c-2.124,4.245-4.705,8.438-5.221,13.156c-0.122,1.119-0.112,2.305,0.415,3.299c1.595,3.008,6.126,2.141,9.23,3.541
		c1.925,0.868,3.263,2.632,4.826,4.053c0.552,0.502,1.197,0.988,1.943,1.01c0.834,0.025,1.561-0.533,2.181-1.092
		c5.168-4.663,8.277-11.53,8.372-18.49c0.015-1.105-0.028-2.271,0.501-3.24c0.714-1.308,2.33-1.911,3.818-1.845
		c1.489,0.066,2.892,0.678,4.255,1.28c5.52,2.439,11.04,4.879,16.561,7.318c3.039,1.343,6.471,2.704,9.581,1.534
		c1.502-0.565,2.731-1.665,4.087-2.523c2.47-1.562,5.434-2.328,8.352-2.158c1.105,0.064,2.399,0.19,3.133-0.639
		c0.687-0.776,0.488-1.978,0.142-2.955c-2.161-6.107-8.115-10.025-14.064-12.591c-5.949-2.566-12.371-4.301-17.578-8.155
		c-2.46-1.821-4.77-4.748-3.868-7.673c1.392-4.515,4.15-9.579,5.173-14.192c1.215-5.476,2.084-11.164,1.054-16.678
		c-1.251-6.693,1.171-14.169,0.877-20.972c-0.105-2.417-0.368-4.998-1.899-6.871c-1.552-1.899-4.066-2.66-6.426-3.325"/>
</g>
<g id="&#xB808;&#xC774;&#xC5B4;_20">
	<path style="fill:none;stroke:#000000;stroke-miterlimit:10;" d="M329.93,74.526c3.557,2.695,6.02,6.793,6.731,11.199
		c0.11,0.684,0.356,1.553,1.047,1.604c0.349,0.026,0.664-0.19,0.947-0.397c0.553-0.404,1.106-0.808,1.659-1.212
		c1.707-1.247,3.429-2.508,4.815-4.104c1.385-1.596,1.951-3.66,2.511-5.698c0.468-1.705-0.552-3.452-1.701-4.796
		c-0.4-0.468-0.837-0.946-0.975-1.545s0.164-1.352,0.771-1.457c0.555-0.096,1.114,0.368,1.654,0.207
		c0.41-0.122,0.644-0.584,0.637-1.012s-0.2-0.829-0.401-1.207c-0.762-1.433-1.693-2.776-2.766-3.994
		c-0.391-0.443-0.826-0.929-0.831-1.52c-0.009-1.007,1.179-1.558,2.178-1.687c2.263-0.293,4.78,0.378,6.143,2.208
		c1.048,1.407,0.858,3.353,1.483,4.993c1.958,5.133,2.477,10.807,1.471,16.209c-0.14,0.75-0.398,1.482-0.807,2.126
		c-0.985,1.551-2.573,3.037-3.974,4.209c-2.14,1.791-4.28,3.583-6.42,5.374c-1.334,1.116-2.673,2.239-3.817,3.549
		c-0.984,1.128-1.529,2.9-2.662,3.879c-1.567,1.353-2.505,1.927-4.119,2.626c-0.695,0.301-1.527,0.154-2.033-0.409
		c-0.056-0.063-0.107-0.125-0.15-0.184c-0.583-0.803-1.444-1.365-2.18-2.03"/>
	<path style="fill:none;stroke:#000000;stroke-miterlimit:10;" d="M329.198,101.085"/>
</g>
<g id="&#xB808;&#xC774;&#xC5B4;_21">
	<path style="fill:none;stroke:#000000;stroke-miterlimit:10;" d="M212.582,174.5c1.434-1.313,3.144-2.331,4.402-3.814
		c0.517-0.61,0.948-1.287,1.396-1.949c1.719-2.538,3.724-4.881,5.965-6.971c0.324-0.302,0.661-0.605,1.065-0.786
		c0.418-0.187,0.883-0.235,1.339-0.267c1.163-0.083,2.331-0.085,3.494-0.006c0.723,0.049,1.481,0.143,2.069,0.567
		c0.777,0.56,1.079,1.558,1.327,2.483c0.617,2.303,1.179,4.863,0.084,6.981c-0.89,1.721-2.675,2.747-4.146,4.009
		c-2.294,1.968-3.991,4.688-6.674,6.081c-1.383,0.718-3.006,1.071-4.104,2.177c-0.545,0.549-0.915,1.244-1.376,1.865
		c-0.462,0.621-1.069,1.197-1.831,1.334"/>
</g>
<g id="&#xB808;&#xC774;&#xC5B4;_22">
	<path style="fill:none;stroke:#000000;stroke-miterlimit:10;" d="M234.405,166.762c2.11-0.618,4.378-0.322,6.52,0.176
		c2.142,0.498,4.252,1.194,6.444,1.373c1.925,0.157,3.856-0.091,5.777-0.286c6.725-0.685,13.497-0.741,20.257-0.796
		c1.674-0.014,3.413-0.014,4.93,0.694c0.971,0.453,1.905,1.203,2.97,1.087"/>
</g>
<g id="&#xB808;&#xC774;&#xC5B4;_23">
	<path style="fill:none;stroke:#000000;stroke-miterlimit:10;" d="M227.16,176.659c10.378,0.247,20.732,1.486,30.874,3.695
		c2.888,0.629,5.76,1.337,8.588,2.195c4.441,1.347,8.776,3.063,13.295,4.121c1.958,0.458,4.011,0.102,5.963-0.379
		c3.601-0.887,6.469-3.525,9.168-6.068c0.893-0.842,1.851-1.819,1.884-3.047"/>
</g>
<g id="&#xB808;&#xC774;&#xC5B4;_24">
	<path style="fill:none;stroke:#000000;stroke-miterlimit:10;" d="M353.789,224.25c0.316,1.101,0.813,2.307,1.878,2.728
		c1.251,0.495,2.587-0.325,3.868-0.735c2.329-0.745,4.841-0.109,7.255,0.283c4.5,0.73,9.102,0.587,13.634,0.093
		c2.607-0.284,5.365-0.757,7.314-2.512c1.948-1.755,2.563-5.215,0.577-6.927c-0.791-0.682-1.837-0.977-2.857-1.203
		c-1.85-0.411-3.735-0.661-5.628-0.745c-1.268-0.057-2.577-0.032-3.747,0.458c-0.72,0.301-1.362,0.769-2.087,1.057
		c-2.27,0.903-4.793-0.088-7.214-0.41c-1.404-0.187-2.827-0.142-4.242-0.098c-2.333,0.073-6.619-0.652-8.687,0.694
		C351.413,218.523,353.789,222.108,353.789,224.25z"/>
</g>
<g id="&#xB808;&#xC774;&#xC5B4;_25">
	<path style="fill:none;stroke:#000000;stroke-miterlimit:10;" d="M353.307,217.417c-1.029-1.569-1.147-3.542-1.321-5.41
		c-0.606-6.505-2.275-12.91-4.923-18.883c-0.864-1.949-0.723-4.558-1.358-6.592c-1.073-3.438-4.197-5.81-5.931-8.967
		c-2.389-4.35-1.901-9.647-1.346-14.58"/>
</g>
<g id="&#xB808;&#xC774;&#xC5B4;_26">
	<path style="fill:none;stroke:#000000;stroke-miterlimit:10;" d="M365.928,216.168c-2.304-2.837-2.576-6.763-2.741-10.414
		s-0.422-7.574-2.705-10.427c-0.301-2.726-1.387-5.407-2.496-7.915c-1.11-2.511-2.626-4.921-2.95-7.646
		c-0.242-2.029,0.201-4.07,0.641-6.065c0.432-1.956,0.863-3.913,1.295-5.869c0.361-1.637,0.371-3.35,0.757-4.981
		c0.233-0.983,0.514-1.961,0.598-2.968c0.083-1.007-0.048-2.065-0.587-2.92"/>
</g>
</svg>
