<?xml version="1.0" encoding="iso-8859-1"?>
<!-- Generator: Adobe Illustrator 24.0.1, SVG Export Plug-In . SVG Version: 6.00 Build 0)  -->
<svg version="1.1" xmlns="http://www.w3.org/2000/svg" xmlns:xlink="http://www.w3.org/1999/xlink" x="0px" y="0px"
	 viewBox="0 0 464 261" style="enable-background:new 0 0 464 261;" xml:space="preserve">
<g id="&#xB808;&#xC774;&#xC5B4;_1" style="display:none;">
	<image style="display:inline;overflow:visible;" width="464" height="261" xlink:href="../14.png" >
	</image>
</g>
<g id="&#xB808;&#xC774;&#xC5B4;_2">
	<path style="fill:none;stroke:#000000;stroke-miterlimit:10;" d="M174.566,61.934c-1.564,1.231-3.568,1.835-5.558,1.886
		s-3.968-0.427-5.81-1.18c-0.671-0.274-1.331-0.588-1.918-1.014c-0.517-0.375-0.969-0.831-1.398-1.302
		c-2.937-3.225-4.923-7.305-5.648-11.606c-0.256-1.517-0.203-3.155,0.039-4.674c0.226-1.414,0.501-2.928,1.513-3.941
		c0.571-0.572,1.327-0.925,1.931-1.462c0.442-0.393,0.794-0.876,1.211-1.295c1.533-1.54,3.842-2.096,6.011-1.965
		s4.249,0.871,6.295,1.603c1.397,0.5,2.794,1,4.19,1.499c0.553,0.198,1.123,0.406,1.546,0.814c1.494,1.44,0.329,4.359,1.835,5.787
		c0.305,0.289,0.69,0.479,1.02,0.74c0.742,0.589,1.165,1.559,1.091,2.504c-0.074,0.945-0.642,1.837-1.466,2.304
		c-0.117,0.066-0.24,0.125-0.336,0.219c-0.35,0.339-0.188,0.949,0.132,1.316c0.321,0.367,0.767,0.618,1.042,1.02
		c0.249,0.364,0.332,0.814,0.395,1.251c0.218,1.52,0.26,3.066,0.126,4.596c-0.017,0.189-0.04,0.389-0.157,0.539
		c-0.132,0.17-0.354,0.238-0.564,0.287c-1.543,0.36-3.207,0.178-4.636-0.505C175.527,60.239,175.264,61.384,174.566,61.934z"/>
</g>
<g id="&#xB808;&#xC774;&#xC5B4;_3">
	<path style="fill:none;stroke:#000000;stroke-miterlimit:10;" d="M176.585,59.739c-1.195-0.415-2.453-0.873-3.252-1.854"/>
</g>
<g id="&#xB808;&#xC774;&#xC5B4;_4">
	<path style="fill:none;stroke:#000000;stroke-miterlimit:10;" d="M146.998,62.896c1.51-0.443,3.106-0.47,4.679-0.493
		c1.665-0.025,3.405-0.033,4.891,0.718c0.868,0.438,1.593,1.111,2.267,1.811c1.352,1.403,2.601,3.074,2.774,5.015
		c0.125,1.404-0.336,2.81-1.046,4.028c-0.711,1.217-1.662,2.273-2.607,3.32c-1.067,1.182-2.18,2.398-3.636,3.043
		c-0.43,0.19-0.887,0.329-1.274,0.596c-4.444,3.059-10.416,2.696-15.738,3.58c-3.081,0.512-6.193,1.026-9.311,0.841
		c-0.868-0.051-1.915-0.076-2.399,0.647c0.935,7.637-0.326,15.403,0.057,23.088c1.191,1.768,2.962,3.047,4.608,4.403
		s3.259,2.909,3.941,4.929c0.244,0.724,0.364,1.497,0.728,2.169c0.515,0.951,1.473,1.616,1.927,2.598
		c0.115,0.25,0.196,0.532,0.129,0.799c-0.127,0.5-0.744,0.743-1.248,0.632c-0.504-0.11-0.911-0.473-1.279-0.834
		c-0.379-0.373-0.99-0.773-1.373-0.405c-0.192,0.185-0.208,0.483-0.204,0.749c0.014,0.934,0.115,1.867,0.302,2.782
		c0.033,0.163,0.074,0.335,0.189,0.455c0.123,0.127,0.313,0.178,0.421,0.317c0.167,0.216,0.051,0.554-0.171,0.713
		c-0.222,0.159-0.51,0.186-0.782,0.201c-1.621,0.092-3.253-0.024-4.844-0.346c-0.704-0.142-1.423-0.335-1.985-0.783
		c-0.458-0.365-0.777-0.872-1.087-1.369c-1.061-1.7-2.121-3.4-3.182-5.1c-0.537-0.861-1.081-1.736-1.36-2.712
		c-0.289-1.01-0.28-2.077-0.269-3.127c0.015-1.458,0.031-2.915,0.046-4.373c0.013-1.259,0.011-2.583-0.599-3.684
		c-1.523-2.752-1.699-6.161-2.526-9.195c-0.332-1.219-0.666-2.443-0.817-3.697c-0.211-1.751-0.067-3.55-0.499-5.26
		c-0.624-2.471,0.256-5.139-0.358-7.612c-0.227-0.912-0.525-1.833-0.447-2.77c0.151-1.796,1.679-3.215,3.35-3.89
		c1.671-0.675,3.506-0.781,5.283-1.084c1.468-0.25,2.984-0.68,4.039-1.73c3.961-3.94,10.869-3.033,15.239-6.513
		C144.103,64.338,145.434,63.355,146.998,62.896z"/>
</g>
<g id="&#xB808;&#xC774;&#xC5B4;_5">
	<path style="fill:none;stroke:#000000;stroke-miterlimit:10;" d="M154.638,62.602c0.455-0.342,0.827-0.778,1.209-1.2
		c0.825-0.911,1.71-1.768,2.647-2.563"/>
</g>
<g id="&#xB808;&#xC774;&#xC5B4;_6">
	<path style="fill:none;stroke:#000000;stroke-miterlimit:10;" d="M142.067,84.007c0.048,2.108,1.007,4.087,2.117,5.879
		c0.345,0.557,0.711,1.113,0.898,1.741c0.143,0.481,0.176,0.986,0.208,1.487c0.06,0.939,0.12,1.882,0.043,2.82
		c-0.053,0.636-0.169,1.269-0.162,1.908c0.011,1.05,0.365,2.093,0.995,2.933c-0.076,2.333-0.127,4.617,0.218,6.925
		c0.141,0.941,0.352,1.873,0.429,2.822c0.116,1.42-0.071,2.865-0.546,4.209c-1.503,4.25-1.085,9.038-0.984,13.545
		c0.07,3.14,0.353,6.511-0.613,9.5c-0.346,1.071-0.246,2.393-0.724,3.412c-0.479,1.019-1.134,1.942-1.738,2.891
		c-0.909,1.429-1.708,2.928-2.387,4.48c-0.836,1.911-1.404,3.928-1.758,5.983c-0.177,1.027-0.306,2.08-0.738,3.028
		c-0.237,0.52-0.562,1-0.76,1.537c-0.295,0.803-0.285,1.682-0.272,2.538c0.009,0.572-0.081,1.223-0.1,1.794
		c2.978,1.155,5.852,2.577,8.577,4.244c0.914,0.559,1.821,1.154,2.555,1.935c0.535,0.569,0.968,1.229,1.524,1.778
		c0.556,0.549,1.281,0.993,2.062,0.97c0.695-0.02,1.337-0.413,1.809-0.924c0.471-0.511,0.798-1.136,1.119-1.753
		c0.54-1.038,1.403-1.834,2.09-2.781c1.151-1.588,2.303-3.176,3.454-4.764c0.746-1.028,1.505-2.083,1.86-3.303
		c0.214-0.732,0.275-1.504,0.514-2.228c0.454-1.381,1.504-2.47,2.522-3.508c0.191-0.195,0.421-0.405,0.693-0.383
		c0.13,0.01,0.25,0.074,0.364,0.137c2.002,1.092,4.003,2.183,6.005,3.275c4.681,2.553,10.36,2.942,15.645,3.647
		c1.474-0.92,2.018-2.844,2.74-4.425c1.296-2.838,3.509-5.247,6.227-6.778c0.735-0.414,1.511-0.769,2.176-1.288
		c0.666-0.519,1.227-1.24,1.33-2.077c-2.12-2.016-4.477-3.72-7.005-5.194c-1.136-0.663-2.307-1.266-3.418-1.97
		c-1.056-0.669-2.057-1.427-2.986-2.263c-1.403-1.262-2.662-2.716-4.279-3.689c-1.117-0.672-2.366-1.091-3.619-1.449
		c-0.962-0.275-2.128-0.739-2.208-1.736c-0.146-1.824-0.126-3.662,0.288-5.445c0.396-1.706,0.792-3.412,1.188-5.117
		c0.259-1.118,0.521-2.242,0.978-3.295c0.661-1.523,1.71-2.846,2.471-4.322c0.511-0.99,0.89-2.048,1.126-3.136
		c1-4.622,0.086-9.4,0.384-14.12c0.347-5.498,0.187-10.872-0.164-16.37c-0.217-3.401-1.351-6.835-3.256-9.66
		c-0.531-0.788-1.154-1.508-1.775-2.227c-0.864-1.001-1.728-2.001-2.593-3.002"/>
</g>
<g id="&#xB808;&#xC774;&#xC5B4;_7">
	<path style="fill:none;stroke:#000000;stroke-miterlimit:10;" d="M75.743,179.805c-0.955,0.198-1.949,0.214-2.876,0.515
		c-2.455,0.797-3.905,3.373-6.204,4.545c-1.373,0.7-3.017,0.848-4.492,0.405c-0.264-0.079-0.536-0.186-0.712-0.399
		c-0.213-0.259-0.24-0.618-0.259-0.953c-0.072-1.318-0.141-2.669,0.245-3.932c0.348-1.141,1.047-2.139,1.772-3.086
		c1.082-1.411,2.249-2.756,3.494-4.025c0.829-0.845,1.693-1.658,2.472-2.55c0.903-1.035,1.686-2.172,2.612-3.188
		c0.918-1.008,1.967-1.886,3.013-2.76c0.721-0.603,1.442-1.207,2.164-1.81c0.859-0.719,1.742-1.451,2.794-1.834
		c1.979-0.72,4.373,0.02,5.662,1.686c1.289,1.666,1.423,4.115,0.392,5.951c-0.832,1.482-2.32,2.566-2.912,4.159
		c-0.324,0.872-0.338,1.81-0.554,2.707c-0.242,1.001-0.788,1.338-1.583,1.948C79.265,178.337,77.627,179.414,75.743,179.805z"/>
</g>
<g id="&#xB808;&#xC774;&#xC5B4;_8">
	<path style="fill:none;stroke:#000000;stroke-miterlimit:10;" d="M86.53,164.454c1.436-0.46,3.013-0.132,4.407,0.442
		c1.394,0.574,2.681,1.386,4.079,1.949c1.771,0.713,3.676,1.01,5.563,1.3c1.705,0.262,3.42,0.523,5.145,0.508
		c2.31-0.021,4.586-0.536,6.885-0.761c2.53-0.248,5.08-0.143,7.62-0.038c1.604,0.066,3.213,0.133,4.794,0.406
		c2.404,0.415,4.703,1.299,6.915,2.327c0.551,0.256,1.173,0.527,1.746,0.322c0.903-0.323,1.03-1.516,1.102-2.472
		c0.123-1.634,0.536-3.245,1.215-4.736"/>
</g>
<g id="&#xB808;&#xC774;&#xC5B4;_9">
	<path style="fill:none;stroke:#000000;stroke-miterlimit:10;" d="M82.022,175.69c0.859-0.014,1.719-0.029,2.578-0.043
		c0.828-0.014,1.659-0.028,2.483,0.054c1.157,0.114,2.287,0.414,3.41,0.713c2.659,0.707,5.318,1.413,7.977,2.12
		c4.583,1.218,9.217,2.444,13.958,2.579c6.035,0.172,11.861,2.736,17.649,4.454c1.996,0.593,4.054,1.228,6.123,0.989
		c1.989-0.23,3.817-1.263,5.32-2.587c1.503-1.324,2.719-2.935,3.925-4.534c0.659-0.874,1.46-1.627,2.282-2.349
		c0.443-0.389,0.904-0.758,1.325-1.171c1.024-1.003,1.792-2.235,2.512-3.475"/>
</g>
<g id="&#xB808;&#xC774;&#xC5B4;_10">
	<path style="fill:none;stroke:#000000;stroke-miterlimit:10;" d="M208.703,217.193c-1.527,1.941-1.381,5.002,0.325,6.788
		c1.123,1.176,2.733,1.759,4.327,2.077c6.092,1.216,12.344-0.901,18.555-0.776c1.259,0.025,2.551,0.139,3.749-0.249
		c1.342-0.435,2.405-1.447,3.419-2.428c0.69-0.668,1.68-1.387,2.045-2.276c0.366-0.888,0.243-2.051-0.531-2.621
		c-0.56-0.412-1.309-0.429-2.004-0.429c-1.041,0-2.082,0-3.123,0c-0.981,0-1.974-0.002-2.924-0.243
		c-0.923-0.235-1.774-0.688-2.659-1.04c-3.444-1.366-7.335-1.15-10.933-0.264c-0.581,0.143-1.163,0.304-1.761,0.323
		c-0.85,0.027-1.678-0.234-2.5-0.45c-0.92-0.243-1.88-0.435-2.82-0.288S209.292,216.445,208.703,217.193z"/>
</g>
<g id="&#xB808;&#xC774;&#xC5B4;_11">
	<path style="fill:none;stroke:#000000;stroke-miterlimit:10;" d="M186.968,159.782c2.147,0.534,4.027,2.06,4.99,4.052
		c1.186,2.451,0.972,5.324,1.541,7.987c0.746,3.497,2.848,6.649,3.197,10.207c0.282,2.877-0.573,6,0.8,8.544
		c0.582,1.079,1.509,1.922,2.316,2.845c1.221,1.397,2.191,3.013,2.849,4.748c1.851,4.882,1.889,10.321,3.312,15.344
		c0.27,0.952,0.553,1.905,0.702,2.883c0.184,1.208,0.198,2.542,0.991,3.472"/>
</g>
<g id="&#xB808;&#xC774;&#xC5B4;_12">
	<path style="fill:none;stroke:#000000;stroke-miterlimit:10;" d="M199.575,145.375c3.161,1.552,5.96,3.837,8.111,6.625
		c0.307,0.397,0.605,0.814,0.756,1.293c0.172,0.549,0.137,1.138,0.093,1.711c-0.145,1.868-0.376,3.73-0.691,5.578
		c-0.901,5.272-0.964,10.77-0.194,16.063c0.46,3.165,1.307,6.375,1.93,9.511c0.278,1.401,0.557,2.804,0.962,4.174
		c1.047,3.545,2.95,7.013,2.576,10.69c-0.295,2.895,0.511,5.894,1.389,8.668c0.217,0.685,0.458,1.369,0.829,1.985
		c0.992,1.645,2.781,2.61,4.486,3.497"/>
</g>
<g id="&#xB808;&#xC774;&#xC5B4;_13">
	<path style="fill:none;stroke:#000000;stroke-miterlimit:10;" d="M312.48,60.614c-2.108-1.469-3.695-3.552-5.489-5.392
		s-3.969-3.524-6.523-3.812c-0.43-0.048-0.958-0.121-1.109-0.526c-0.058-0.156-0.042-0.328-0.031-0.494
		c0.175-2.704-1.263-5.226-1.81-7.88c-0.455-2.211-0.277-4.548,0.509-6.665c0.888-2.392,3.596-3.854,5.699-5.3
		c2.103-1.446,4.613-2.433,7.161-2.28c1.382,0.083,2.719,0.494,4.06,0.836c1.85,0.471,3.794,0.84,5.341,1.96
		c3.057,2.214,3.67,6.665,6.507,9.156c0.485,0.425,1.035,0.794,1.4,1.326c0.366,0.531,0.496,1.3,0.09,1.801
		c-0.361,0.446-0.995,0.53-1.511,0.782c-1.289,0.629-1.736,2.278-1.621,3.707s0.637,2.81,0.682,4.243
		c0.024,0.775-0.138,1.635-0.752,2.109c-0.521,0.403-1.235,0.428-1.891,0.384c-1.024-0.068-2.04-0.264-3.016-0.579
		c-0.415-0.134-0.876-0.288-1.269-0.101c-0.218,0.104-0.377,0.297-0.529,0.484C316.576,56.573,314.578,58.696,312.48,60.614z"/>
</g>
<g id="&#xB808;&#xC774;&#xC5B4;_14">
	<path style="fill:none;stroke:#000000;stroke-miterlimit:10;" d="M320.534,54.103c-0.299-0.15-0.642-0.18-0.972-0.24
		c-1.049-0.19-2.009-0.698-2.949-1.199"/>
</g>
<g id="&#xB808;&#xC774;&#xC5B4;_15">
	<path style="fill:none;stroke:#000000;stroke-miterlimit:10;" d="M279.448,68.798c1.468-0.996,2.936-1.991,4.404-2.987
		c0.684-0.464,1.383-0.934,2.178-1.157c0.563-0.157,1.154-0.184,1.739-0.194c2.73-0.048,5.522,0.251,7.997,1.402
		c2.475,1.152,4.606,3.255,5.304,5.894c0.279,1.054,0.326,2.155,0.305,3.245c-0.032,1.63-0.241,3.335-1.173,4.672
		c-0.952,1.367-2.516,2.153-4.013,2.884c-1.837,0.896-4.091,1.166-6.061,1.71c-3.439,0.951-6.892,1.904-10.43,2.361
		c-1.337,0.173-2.687,0.275-4,0.578c-2.817,0.65-5.405,2.212-8.28,2.512c0.012,1.047-0.084,2.096-0.288,3.124
		c-1.291,6.508-7.196,11.572-7.964,18.162c-0.547,4.689-2.718,9.065-3.503,13.72c-0.21,1.247-0.374,2.534-0.106,3.77
		c0.143,0.66,0.406,1.287,0.577,1.94c0.171,0.653,0.245,1.36,0.011,1.993c-0.234,0.633-0.842,1.163-1.516,1.133
		c-0.674-0.03-1.271-0.774-1.017-1.399c0.145-0.357-0.2-0.689-0.205-1.074c-0.782,0.109-1.576,0.227-2.29,0.563
		s-1.35,0.923-1.555,1.686c-0.313,1.167,0.38,2.61-0.413,3.521c-0.722,0.829-2.088,0.497-3.02-0.086
		c-2.195-1.373-3.676-3.763-4.126-6.312c-0.45-2.549,0.09-5.228,1.314-7.508c1.091-2.03,2.704-3.772,3.579-5.904
		c0.759-1.849,0.916-3.88,1.065-5.873c0.18-2.407,1.284-4.545,1.65-6.93c0.239-1.557,0.322-3.134,0.53-4.695
		c0.143-1.076,0.345-2.142,0.547-3.208c0.456-2.409,0.912-4.818,1.368-7.227c0.18-0.949,0.362-1.908,0.759-2.789
		c0.425-0.944,1.079-1.764,1.73-2.569c1.584-1.956,3.369-4,5.815-4.592c1.266-0.307,2.778-0.275,3.595-1.289
		C269.672,75.676,274.379,72.236,279.448,68.798z"/>
</g>
<g id="&#xB808;&#xC774;&#xC5B4;_16">
	<path style="fill:none;stroke:#000000;stroke-miterlimit:10;" d="M285.42,64.734c1.522-1.868,3.496-3.304,5.446-4.718
		c2.385-1.729,4.771-3.459,7.156-5.188c1.194-0.866,2.534-2.081,2.229-3.524"/>
</g>
<g id="&#xB808;&#xC774;&#xC5B4;_17">
	<path style="fill:none;stroke:#000000;stroke-miterlimit:10;" d="M284.315,85.619c0.091,3.078,0.182,6.16,0.054,9.236
		c-0.134,3.212-0.506,6.428-0.261,9.634c0.087,1.141,0.252,2.283,0.182,3.425c-0.088,1.431-0.544,2.844-0.416,4.272
		c0.311,3.467-1.487,6.71-2.172,10.123c-0.685,3.413-0.909,7.066,0.429,10.279c1.41,3.387,1.484,7.185,1.365,10.852
		c-0.176,5.428-0.173,10.974,0.068,16.4c0.039,0.885,0.117,1.782,0.438,2.608c0.567,1.457,1.816,2.521,3.018,3.521
		c1.577,1.312,3.095,2.666,4.469,4.188c0.409,0.453,0.803,0.926,1.273,1.316c0.942,0.784,2.135,1.197,3.322,1.503
		c2.158,0.556,4.393,0.809,6.621,0.75c0.229-0.006,0.479-0.024,0.647-0.18c0.292-0.273,0.15-0.754-0.008-1.122
		c-0.668-1.562-1.235-3.168-1.696-4.804c-0.069-0.245-0.135-0.507-0.054-0.748c0.12-0.359,0.52-0.54,0.891-0.618
		c1.215-0.257,2.475,0.147,3.592,0.691c1.117,0.543,2.172,1.233,3.357,1.608s2.576,0.383,3.567-0.366
		c2.16-1.633,4.745-3.049,6.745-4.874c0.608-0.555,1.217-1.17,1.451-1.959c0.408-1.377-0.452-2.817-1.49-3.808
		c-3.14-3-4.328-7.688-5.469-11.879c-0.457-1.68-0.755-3.409-1.379-5.035c-0.216-0.564-0.472-1.115-0.627-1.698
		c-0.272-1.019-0.227-2.093-0.18-3.147c0.171-3.855-0.253-7.938,1.228-11.501c1.017-2.446,1.996-4.77,2.8-7.295
		c0.937-2.943,0.63-6.338,2.377-8.885c1.277-1.862,1.651-4.244,1.754-6.499c0.031-0.676-0.004-1.373,0.228-2.009
		c0.321-0.88,1.1-1.504,1.592-2.3c1.057-1.708,0.666-3.908,1.087-5.871c0.637-2.974,0.484-5.969,0.903-8.982
		c0.494-3.546,0.234-7.148-0.027-10.719c-0.319-4.353,0.48-8.763-1.132-12.818c-0.345-0.868-0.813-1.743-1.604-2.241
		c-1.083-0.682-2.582-0.536-3.559-1.364"/>
</g>
<g id="&#xB808;&#xC774;&#xC5B4;_18">
	<path style="fill:none;stroke:#000000;stroke-miterlimit:10;" d="M317.728,110.291c3.614,2.96,5.22,7.716,8.325,11.205
		c1.041,1.17,2.244,2.19,3.231,3.406c0.986,1.216,1.762,2.696,1.731,4.261c-0.019,0.946-0.33,1.859-0.483,2.793
		c-0.153,0.934-0.122,1.971,0.456,2.72c0.577,0.75,1.849,0.991,2.462,0.27c0.206-0.242,0.321-0.561,0.57-0.758
		c0.537-0.424,1.382-0.008,1.685,0.606c0.303,0.614,0.255,1.332,0.311,2.014c0.056,0.682,0.286,1.438,0.898,1.745
		c0.345,0.173,0.748,0.168,1.133,0.159c0.806-0.018,1.693-0.067,2.279-0.621c0.324-0.306,0.509-0.728,0.665-1.145
		c2.004-5.363,0.058-11.941-4.541-15.35c-0.982-0.728-2.066-1.322-2.969-2.146c-1.723-1.572-2.63-3.823-3.482-5.994
		c-0.427-1.087-0.854-2.173-1.28-3.26c-1.758-4.476-1.221-9.72-1.508-14.52c-0.154-2.586,0.123-5.306-0.552-7.808
		c-0.258-0.957-0.585-1.897-0.796-2.866c-0.364-1.672-0.436-3.545-1.596-4.803"/>
</g>
<g id="&#xB808;&#xC774;&#xC5B4;_19">
	<path style="fill:none;stroke:#000000;stroke-miterlimit:10;" d="M243.264,134.291c-2.683,0.142-5.387-0.12-7.993-0.775
		c-2.082-0.523-4.198-1.303-6.315-0.947c-2.278,0.383-4.254,2.185-4.845,4.418c-0.22,0.833-0.217,1.829,0.401,2.429
		c0.47,0.456,1.168,0.562,1.817,0.646c3.694,0.477,7.389,0.953,11.083,1.43c1.793,0.231,3.592,0.464,5.34,0.925
		c3.233,0.853,6.323,2.49,9.667,2.525c1.45,0.015,2.885-0.276,4.333-0.368c0.899-0.057,1.802-0.038,2.697,0.058
		c0.165,0.018,0.347,0.034,0.484-0.06c0.178-0.122,0.201-0.372,0.207-0.588c0.033-1.226,0.066-2.452,0.099-3.678
		c0.036-1.349,0.034-2.822-0.807-3.878c-0.809-1.016-2.182-1.369-3.468-1.553c-2.091-0.299-4.222-0.315-6.317-0.045"/>
</g>
<g id="&#xB808;&#xC774;&#xC5B4;_20">
	<path style="fill:none;stroke:#000000;stroke-miterlimit:10;" d="M251.314,145.41c3.545,3.383,7.049,6.808,10.51,10.276
		c1.67,1.673,3.088,3.328,4.495,5.227c0.748,1.009,1.441,2.06,2.225,3.042c1.684,2.111,3.762,3.877,5.498,5.944
		c2.26,2.691,3.926,5.873,6.434,8.335c2.4,2.356,3.792,5.451,6.528,7.406c2.736,1.955,6.335,3.011,9.519,1.931
		c2.027-0.687,3.691-2.155,5.158-3.715c0.546-0.581,1.081-1.191,1.414-1.916c0.316-0.689,0.435-1.45,0.509-2.204
		c0.179-1.813,0.119-3.65-0.177-5.448"/>
</g>
<g id="&#xB808;&#xC774;&#xC5B4;_21">
	<path style="fill:none;stroke:#000000;stroke-miterlimit:10;" d="M260.364,143.731c2.961,3.48,6.271,6.661,9.866,9.48
		c0.861,0.675,1.74,1.331,2.531,2.088c0.57,0.545,1.09,1.138,1.648,1.696c2.723,2.724,6.225,4.503,9.664,6.237"/>
</g>
<g id="&#xB808;&#xC774;&#xC5B4;_22">
	<path style="fill:none;stroke:#000000;stroke-miterlimit:10;" d="M336.192,233.535c-0.61,0.532-0.754,1.435-0.647,2.237
		c0.35,2.621,2.884,4.482,5.466,5.055c2.581,0.573,5.263,0.175,7.904,0.06c0.782-0.034,1.575-0.042,2.337,0.139
		c1.061,0.252,2.003,0.855,3.032,1.217c2.484,0.874,5.262,0.27,7.67-0.796c0.745-0.33,1.481-0.71,2.089-1.253
		c1.247-1.114,1.843-2.911,1.509-4.55s-1.587-3.059-3.171-3.595c-0.872-0.295-1.807-0.334-2.728-0.36
		c-1.333-0.038-2.669-0.053-4,0.024c-1.674,0.097-3.373,0.34-5.014-0.008c-1.781-0.378-3.431-1.441-5.251-1.4
		c-1.749,0.04-3.235,1.068-4.819,1.671C339.288,232.463,337.226,232.634,336.192,233.535z"/>
</g>
<g id="&#xB808;&#xC774;&#xC5B4;_23">
	<path style="fill:none;stroke:#000000;stroke-miterlimit:10;" d="M310.629,169.271c-0.279,2.309,0.435,4.611,1.157,6.822
		c1.236,3.788,2.52,7.559,3.851,11.315c0.794,2.239,1.576,4.435,2.92,6.394c0.713,1.039,1.543,2.013,2.06,3.163
		c0.304,0.676,0.491,1.396,0.705,2.105c0.856,2.833,2.159,5.53,3.846,7.962c3.627,5.227,6.601,10.892,7.936,17.113
		c0.549,2.558,0.462,5.248,1.296,7.727c0.281,0.835,0.713,1.689,1.489,2.106"/>
</g>
<g id="&#xB808;&#xC774;&#xC5B4;_24">
	<path style="fill:none;stroke:#000000;stroke-miterlimit:10;" d="M320.076,162.858c1.399,1.025,2.818,2.07,3.874,3.447
		c2.478,3.233,2.527,7.626,3.037,11.668c0.287,2.275,0.752,4.528,1.39,6.731c1.066,3.683,4.049,6.626,5.025,10.334
		c0.494,1.875,0.697,3.824,1.314,5.662c1.862,5.553,7.315,9.647,8.052,15.457c0.28,2.211-0.118,4.358,0.372,6.533
		c0.547,2.428,1.233,4.862,1.188,7.35"/>
</g>
<g id="&#xB808;&#xC774;&#xC5B4;_25">
	<path style="fill:none;stroke:#000000;stroke-miterlimit:10;" d="M182.467,95.296c5.043,1.585,9.87,3.779,14.682,5.967
		c1.234,0.561,2.469,1.123,3.645,1.797c1.307,0.749,2.534,1.634,3.843,2.379c2.25,1.28,4.738,2.138,7.299,2.516
		c1.71,0.253,3.486,0.304,5.066,1.005c1.58,0.701,2.941,2.3,2.678,4.008c0.687,1.494,1.45,2.864,2.137,4.357
		c0.27,0.587,0.551,1.19,1.019,1.635c0.907,0.863,2.298,0.946,3.543,0.814s2.512-0.428,3.731-0.142
		c1.169,0.275,2.145,1.051,3.105,1.772c2.675,2.007,5.557,3.738,8.585,5.157"/>
</g>
<g id="&#xB808;&#xC774;&#xC5B4;_26">
	<path style="fill:none;stroke:#000000;stroke-miterlimit:10;" d="M177.899,66.508c2.513,0.921,5.168,1.944,6.781,4.081
		c1.014,1.344,1.508,2.995,2.164,4.546c1.82,4.304,4.942,7.916,8.167,11.299c2.27,2.381,5.366,3.866,8.275,5.401
		c2.115,1.116,4.176,2.331,6.241,3.537c5.775,3.375,11.592,6.696,17.648,9.536c2.371,1.112,4.298,3.114,5.267,5.547
		c0.352,0.886,0.58,1.824,1.03,2.665c0.558,1.041,1.428,1.877,2.313,2.659c2.444,2.162,5.116,4.068,7.957,5.675"/>
</g>
</svg>
