<?xml version="1.0" encoding="iso-8859-1"?>
<!-- Generator: Adobe Illustrator 24.0.1, SVG Export Plug-In . SVG Version: 6.00 Build 0)  -->
<svg version="1.1" xmlns="http://www.w3.org/2000/svg" xmlns:xlink="http://www.w3.org/1999/xlink" x="0px" y="0px"
	 viewBox="0 0 464 261" style="enable-background:new 0 0 464 261;" xml:space="preserve">
<g id="&#xB808;&#xC774;&#xC5B4;_1" style="display:none;">
	<image style="display:inline;overflow:visible;" width="464" height="261" xlink:href="../16.png" >
	</image>
</g>
<g id="&#xB808;&#xC774;&#xC5B4;_2">
	<path style="fill:none;stroke:#000000;stroke-miterlimit:10;" d="M173.684,54.383c-2.368,1.368-5.514,1.252-7.775-0.285
		c-1.414-0.961-2.544-2.441-4.196-2.876c-0.289-0.076-0.61-0.13-0.806-0.355c-0.206-0.235-0.207-0.581-0.201-0.894
		c0.048-2.525-0.138-5.055-0.556-7.546c-0.423-2.519-1.081-4.999-1.368-7.537c-0.287-2.538-0.18-5.191,0.87-7.519
		s3.175-4.277,5.708-4.605c3.219-0.416,6.288-1.772,9.458-1.075c3.17,0.697,6.148,2.864,7.145,5.953
		c0.867,2.685,0.2,5.751,1.397,8.306c0.338,0.721,0.801,1.626,0.278,2.227c-0.372,0.427-1.146,0.51-1.269,1.064
		c-0.102,0.458,0.337,0.833,0.692,1.14c0.974,0.842,1.657,2.155,1.375,3.411s-1.799,2.2-2.936,1.595
		c-0.406-0.216-0.792-0.607-1.243-0.514c-0.258,0.053-0.455,0.258-0.617,0.466c-1.334,1.708-1.535,4.281-3.33,5.496
		c-0.389,0.263-0.849,0.457-1.118,0.843c-0.307,0.439-0.293,1.017-0.41,1.539C174.663,53.74,174.216,54.445,173.684,54.383z"/>
</g>
<g id="&#xB808;&#xC774;&#xC5B4;_3">
	<path style="fill:none;stroke:#000000;stroke-miterlimit:10;" d="M181.446,45.318c-0.493-0.376-1.021-0.714-1.601-0.933
		c-0.58-0.219-1.216-0.316-1.826-0.205c-0.559,0.102-1.132,0.078-1.694,0.162"/>
</g>
<g id="&#xB808;&#xC774;&#xC5B4;_4">
	<path style="fill:none;stroke:#000000;stroke-miterlimit:10;" d="M146.964,64.255c0.303-1.628,1.373-3.096,2.829-3.884
		c1.438-0.779,3.225-0.881,4.742-0.27c0.972,0.391,1.812,1.046,2.638,1.692c0.576,0.451,1.165,0.916,1.544,1.542
		c0.409,0.676,0.537,1.479,0.694,2.254c0.444,2.195,1.177,4.338,1.403,6.566c0.226,2.228-0.129,4.645-1.606,6.329
		c0.018,1.517-0.829,2.927-1.54,4.267s-1.53,2.64-1.969,4.092c-0.492,1.626-2.095,2.596-3.092,3.972
		c-1.053,1.453-1.491,3.33-2.47,4.795c-0.222,0.332,0.056,0.763,0.449,0.696c0.595-0.101,1.19-0.099,1.739,0.138
		c0.432,0.187,0.791,0.504,1.165,0.789c2.518,1.921,5.805,2.457,8.957,2.774c2.477,0.249,4.963,0.402,7.452,0.458
		c2.988,0.067,6.117-0.116,8.921-1.151c1.328-0.49,2.595-1.134,3.916-1.643c2.171-0.835,4.485-1.299,6.81-1.365
		c0.739-0.021,1.577,0.042,2.052,0.61c0.411,0.492,0.406,1.199,0.38,1.84c-0.049,1.2-0.108,2.442-0.642,3.518
		c-0.255,0.513-0.625,1.04-0.517,1.603c0.164,0.856,1.345,1.263,1.423,2.131c0.046,0.507-0.336,0.974-0.796,1.191
		c-0.46,0.218-0.984,0.239-1.493,0.257c-1.395,0.049-2.789,0.099-4.184,0.148c-5.956,0.211-12.118,0.401-18.074,0.621
		c-1.175,0.044-2.35,0.087-3.526,0.098c-4.137,0.038-8.277-0.332-12.341-1.102c-4.907-0.93-10.116-0.636-15.108-0.764
		c-1.098-0.028-2.215-0.059-3.257-0.408c-0.774-0.259-1.508-0.708-1.973-1.379c-0.331-0.478-0.512-1.045-0.631-1.615
		c-0.587-2.799,0.294-5.865,2.277-7.926c2.667-2.771,2.759-7.206,4.721-10.514c0.794-1.339,1.003-2.799,1.636-4.221
		c0.355-0.797,0.715-1.603,1.249-2.293c0.496-0.641,1.128-1.165,1.635-1.797c0.654-0.816,1.081-1.786,1.499-2.744
		C145.189,70.56,146.365,67.475,146.964,64.255z"/>
</g>
<g id="&#xB808;&#xC774;&#xC5B4;_5">
	<path style="fill:none;stroke:#000000;stroke-miterlimit:10;" d="M139.786,79.331c0.555-3.416,1.11-6.831,1.664-10.247
		c0.211-1.296,0.455-2.667,1.323-3.652c2.696-3.06,3.601-7.177,5.432-10.821c0.643-1.28,1.29-2.567,2.127-3.729
		c0.638-0.886,1.383-1.692,2.181-2.437c2.324-2.169,5.084-3.805,7.821-5.423"/>
</g>
<g id="&#xB808;&#xC774;&#xC5B4;_6">
	<path style="fill:none;stroke:#000000;stroke-miterlimit:10;" d="M139.541,106.462c-0.191,4.24-0.382,8.48-0.572,12.72
		c-0.093,2.065-0.185,4.14,0.062,6.192c0.631,5.236,5.92,8.475,9.454,12.39c0.629,0.697,1.273,1.394,1.734,2.212
		c1.668,2.954,0.766,7.066,3.04,9.583c0.213,0.236,0.449,0.45,0.697,0.648c1.981,1.579,3.826,3.376,5.846,4.906
		c0.568,0.43,1.172,0.87,1.877,0.974c0.12-0.817,1.295-1.007,2.12-0.963c2.867,0.152,5.734,0.304,8.601,0.455
		c1.669,0.088,3.351,0.179,4.968,0.599c1.316,0.342,2.659,0.905,3.988,0.616c0.318-0.069,0.651-0.209,0.803-0.496
		c0.091-0.171,0.104-0.372,0.115-0.565c0.118-2.038,0.233-4.107-0.21-6.1c-0.784-3.527-3.267-6.605-3.71-10.149
		c-0.058-0.462-0.28-0.879-0.521-1.277c-0.294-0.486-0.401-1.018-0.626-1.652c-0.871-2.448-1.742-4.899-2.401-7.413
		c-0.38-1.45-0.695-2.933-1.358-4.277c-0.445-0.903-1.039-1.724-1.551-2.591c-0.509-0.862-0.937-1.772-1.277-2.714
		c-0.317-0.877-0.559-1.814-0.417-2.736c0.229-1.485,1.391-2.632,2.043-3.986c0.694-1.443,0.788-3.163,0.254-4.673"/>
</g>
<g id="&#xB808;&#xC774;&#xC5B4;_7">
	<path style="fill:none;stroke:#000000;stroke-miterlimit:10;" d="M176.61,100.12c1.019-0.803,1.875-1.791,2.723-2.773
		c0.329-0.381,0.664-0.77,0.858-1.235c0.188-0.451,0.233-0.947,0.288-1.432c0.18-1.582,0.492-3.149,0.932-4.68
		c1.732-6.017,0.915-12.291,1.6-18.515c0.391-3.555,1.107-7.628,0.063-11.049c-0.719-2.357-2.126-4.443-3.026-6.737
		c-0.583-1.484-1.037-3.17-2.349-4.076"/>
</g>
<g id="&#xB808;&#xC774;&#xC5B4;_8">
	<path style="fill:none;stroke:#000000;stroke-miterlimit:10;" d="M133.735,127.437c-0.248-0.425-0.65-0.734-1.053-1.016
		c-5.513-3.867-12.709-4.736-19.359-3.672c-1.723,0.276-3.475,0.693-4.91,1.687c-1.435,0.994-2.502,2.677-2.332,4.414
		c0.05,0.508,0.211,1.022,0.559,1.395c0.386,0.415,0.949,0.609,1.497,0.751c2.285,0.596,4.684,0.561,7.014,0.949
		c2.495,0.415,4.898,1.313,7.408,1.627c0.7,0.087,1.418,0.128,2.104-0.036c0.652-0.155,1.246-0.488,1.831-0.816
		c1.541-0.866,3.083-1.732,4.624-2.598c0.676-0.38,1.365-0.769,1.891-1.34c0.127-0.138,0.217-0.319,0.318-0.477
		C133.491,128.048,133.694,127.74,133.735,127.437z"/>
</g>
<g id="&#xB808;&#xC774;&#xC5B4;_9">
	<path style="fill:none;stroke:#000000;stroke-miterlimit:10;" d="M123.564,133.782c1.549,2.022,3.115,4.062,5.072,5.692
		c2.237,1.862,4.906,3.122,7.291,4.79c2.596,1.815,4.826,4.094,7.198,6.193c1.942,1.719,3.984,3.321,6.025,4.923
		c1.54,1.209,3.08,2.417,4.62,3.626c0.808,0.634,1.623,1.276,2.262,2.079c0.441,0.555,0.789,1.177,1.171,1.775
		c2.081,3.258,5.13,5.759,8.127,8.201c1.745,1.423,3.517,2.862,5.575,3.776c2.058,0.914,4.471,1.256,6.562,0.423
		c1.357-0.54,2.487-1.531,3.481-2.602c2.113-2.275,3.806-5.41,2.96-8.398c-0.797-2.817-3.63-4.705-4.415-7.525"/>
</g>
<g id="&#xB808;&#xC774;&#xC5B4;_10">
	<path style="fill:none;stroke:#000000;stroke-miterlimit:10;" d="M133.5,127.5c3.039,1.515,12,8,17,13"/>
</g>
<g id="&#xB808;&#xC774;&#xC5B4;_11">
	<path style="fill:none;stroke:#000000;stroke-miterlimit:10;" d="M159.033,220.579c-0.502,0.433-0.79,1.06-1.019,1.683
		c-0.72,1.962-0.998,4.085-0.807,6.166c0.057,0.623,0.158,1.251,0.408,1.825c0.589,1.353,1.909,2.222,3.191,2.953
		c8.096,4.619,17.531,6.859,26.84,6.372c0.501-0.026,1.007-0.061,1.486-0.213c1.078-0.342,1.932-1.307,2.141-2.418
		c0.209-1.111-0.238-2.32-1.118-3.029c-0.685-0.552-1.568-0.792-2.435-0.938c-2.745-0.464-5.616-0.135-8.283-0.932
		c-1.028-0.307-2-0.775-2.966-1.241c-2.088-1.006-4.251-2.071-5.681-3.896c-0.606-0.773-1.057-1.657-1.647-2.443
		c-1.201-1.602-2.934-2.708-4.794-3.398C163.016,220.576,160.272,219.512,159.033,220.579z"/>
</g>
<g id="&#xB808;&#xC774;&#xC5B4;_12">
	<path style="fill:none;stroke:#000000;stroke-miterlimit:10;" d="M158.854,220.38c0.189-5.869,0.378-11.739,0.567-17.608
		c0.044-1.38,0.089-2.766-0.074-4.137c-0.423-3.577-2.241-6.985-1.981-10.578c0.169-2.342,2.202-3.957,3.144-6.108
		c1.847-4.218,0.059-9.204,1.207-13.662"/>
</g>
<g id="&#xB808;&#xC774;&#xC5B4;_13">
	<path style="fill:none;stroke:#000000;stroke-miterlimit:10;" d="M174.324,175.788c1.575,6.857-0.105,14.006-1.999,20.782
		c-1.096,3.92-0.188,8.098-1.103,12.064c-0.34,1.474-0.788,2.921-1.141,4.391c-0.895,3.729-1.169,7.607-0.81,11.425"/>
</g>
<g id="&#xB808;&#xC774;&#xC5B4;_14">
	<path style="fill:none;stroke:#000000;stroke-miterlimit:10;" d="M304.228,53.423c-1.126-0.251-2.33-0.547-3.094-1.412
		c-0.787-0.89-0.916-2.164-1.037-3.347c-0.356-3.474-0.974-6.962-2.391-10.153c-0.394-0.889-0.85-1.753-1.155-2.677
		c-0.326-0.989-0.473-2.028-0.586-3.063c-0.164-1.502-0.256-3.049,0.164-4.501c0.505-1.744,1.701-3.191,2.868-4.583
		c0.553-0.661,1.116-1.33,1.823-1.822c0.916-0.638,2.019-0.942,3.107-1.195c4.03-0.938,8.349-1.311,12.235,0.108
		c3.886,1.419,7.2,4.986,7.293,9.122c0.015,0.686-0.053,1.389,0.152,2.044c0.304,0.972,1.149,1.663,1.697,2.522
		c0.548,0.859,0.678,2.21-0.203,2.722c-0.573,0.333-1.383,0.176-1.856,0.64c-0.248,0.243-0.338,0.602-0.406,0.942
		c-0.279,1.384-0.383,2.804-0.312,4.214c0.029,0.577,0.084,1.18-0.143,1.712c-0.227,0.531-0.854,0.945-1.385,0.718
		c-0.52-0.222-0.83-0.971-1.387-0.877c-0.187,0.031-0.341,0.159-0.486,0.283c-0.357,0.305-0.715,0.611-1.072,0.916
		c-0.388,0.332-0.781,0.668-1.07,1.089c-0.361,0.527-0.538,1.155-0.723,1.766c-0.502,1.652-1.112,3.271-1.826,4.843
		c-0.836,1.843-2.33,1.287-4.031,1.114C308.32,54.337,306.27,53.879,304.228,53.423z"/>
</g>
<g id="&#xB808;&#xC774;&#xC5B4;_15">
	<path style="fill:none;stroke:#000000;stroke-miterlimit:10;" d="M321.5,45.5c-0.613-0.982-2.622-1.797-3.774-1.915
		c-1.151-0.118-2.348-0.06-3.423-0.488"/>
</g>
<g id="&#xB808;&#xC774;&#xC5B4;_16">
	<path style="fill:none;stroke:#000000;stroke-miterlimit:10;" d="M283.971,57.952c2.484-1.171,5.321-1.289,8.067-1.299
		c1.824-0.007,3.776,0.064,5.261,1.124c0.874,0.624,1.495,1.533,2.098,2.422c0.757,1.118,1.531,2.273,1.806,3.594
		c0.339,1.631-0.119,3.306-0.388,4.95c-0.299,1.825-0.364,3.687-0.755,5.494s-1.156,3.613-2.575,4.798
		c-1.577,1.317-3.731,1.691-5.784,1.797c-1.388,0.071-2.782,0.042-4.166-0.087c-6.717,0.064-13.659,0.165-20.131,1.967
		c-0.265,1.845-0.922,3.649-1.775,5.306c-1.296,2.518-2.145,5.424-3.12,8.083c-0.967,2.639-1.79,5.408-3.436,7.686
		c-0.542,0.75-1.151,1.474-1.477,2.34c-0.785,2.088,0.238,4.464-0.256,6.64c-0.337,1.484-0.524,2.936-0.739,4.443
		c-0.162,1.134-0.308,2.363,0.252,3.362c0.303,0.541,0.788,0.961,1.096,1.499c0.523,0.915,0.418,2.187-0.347,2.912
		c-0.765,0.725-2.152,0.709-2.81-0.114c-0.441-0.551-0.505-1.3-0.643-1.992c-0.138-0.692-0.44-1.446-1.097-1.704
		c-1.007-0.394-2.033,0.693-2.215,1.759c-0.182,1.066,0.112,2.171-0.075,3.235c-0.057,0.322-0.165,0.649-0.397,0.879
		c-0.234,0.232-0.565,0.336-0.887,0.404c-2.994,0.629-6.022-1.326-7.747-3.853c-0.359-0.525-0.682-1.086-0.845-1.7
		c-0.171-0.645-0.16-1.33-0.038-1.987c0.272-1.471,1.071-2.786,1.898-4.033c2.483-3.742,5.431-7.373,6.383-11.762
		c0.545-2.512,1.82-4.937,2.188-7.481c0.168-1.162,0.214-2.34,0.367-3.504c0.094-0.721,0.229-1.436,0.373-2.149
		c0.966-4.809,2.304-9.543,3.999-14.146c0.785-2.132,1.908-4.485,4.086-5.129c6.085-1.8,10.515-6.994,15.774-10.546
		c0.943-0.637,1.891-1.276,2.92-1.761C280.299,58.711,282.505,58.643,283.971,57.952z"/>
</g>
<g id="&#xB808;&#xC774;&#xC5B4;_17">
	<path style="fill:none;stroke:#000000;stroke-miterlimit:10;" d="M285.576,57.207c1.048-1.508,2.477-2.701,3.889-3.876
		c0.791-0.658,1.581-1.315,2.372-1.973c1.149-0.955,2.308-1.918,3.627-2.618c1.32-0.701,2.828-1.129,4.31-0.937"/>
</g>
<g id="&#xB808;&#xC774;&#xC5B4;_18">
	<path style="fill:none;stroke:#000000;stroke-miterlimit:10;" d="M276.227,81.156c1.099,2.64,0.87,5.623,1.37,8.438
		c0.638,3.59,2.482,7.129,1.743,10.7c-0.897,4.333-0.982,8.874-1.48,13.271c-0.195,1.723-0.228,3.459-0.262,5.193
		c-0.033,1.693-0.065,3.386-0.098,5.079c-0.017,0.883-0.033,1.778,0.185,2.633c0.226,0.886,0.691,1.688,1.161,2.472
		c4.442,7.411,9.745,14.305,15.768,20.499c0.548,3.231,2.054,5.898,5.165,6.927c0.424,0.14,0.876,0.25,1.315,0.166
		c0.518-0.099,0.946-0.452,1.432-0.656c0.707-0.297,1.503-0.267,2.269-0.233c4.949,0.224,9.898,0.448,14.848,0.672
		c0.38,0.017,0.804,0.019,1.083-0.24c0.23-0.214,0.294-0.547,0.34-0.857c0.822-5.487-0.129-11.225-2.676-16.154
		c-1.6-3.097-2.384-7.057-3.808-10.239c-1.16-2.593-1.647-5.43-2.078-8.237c-0.518-3.378-0.963-6.888,0.002-10.167
		c3.468-11.78,4.106-23.841,7.933-35.51c1.754-5.349,3.735-10.814,3.386-16.433c-0.14-2.25-0.703-4.568-2.165-6.283
		c-1.463-1.716-3.988-2.659-6.064-1.781"/>
</g>
<g id="&#xB808;&#xC774;&#xC5B4;_19">
	<path style="fill:none;stroke:#000000;stroke-miterlimit:10;" d="M316.942,89.442c0.687-0.022,1.444-0.018,1.964,0.43
		c0.282,0.243,0.455,0.588,0.609,0.927c0.567,1.252,0.982,2.574,1.232,3.925c0.094,0.507,0.172,1.036,0.462,1.462
		c0.207,0.304,0.508,0.532,0.813,0.738c1.291,0.873,2.765,1.474,4.299,1.752c0.734,0.133,1.489,0.195,2.182,0.47
		c1.601,0.635,2.623,2.478,2.313,4.172c-0.214,1.171-0.963,2.164-1.689,3.108c-0.445,0.578-0.889,1.156-1.334,1.734
		c-0.3,0.39-0.612,0.79-1.043,1.027c-0.472,0.259-1.031,0.292-1.569,0.3c-1.323,0.021-2.647-0.068-3.955-0.266
		c-0.179-0.027-0.37-0.063-0.498-0.191c-0.095-0.096-0.139-0.231-0.171-0.362c-0.211-0.866-0.009-1.771,0.05-2.661
		c0.059-0.889-0.078-1.89-0.768-2.454c-0.57-0.466-1.372-0.514-2.024-0.857c-0.52-0.274-0.923-0.724-1.41-1.051
		c-0.487-0.327-1.147-0.522-1.654-0.226"/>
</g>
<g id="&#xB808;&#xC774;&#xC5B4;_20">
	<path style="fill:none;stroke:#000000;stroke-miterlimit:10;" d="M258.057,124.691c2.312-0.551,4.732-0.23,7.084,0.107
		c1.087,0.156,2.191,0.32,3.19,0.777c1.441,0.659,2.543,1.867,3.603,3.044c0.173,0.192,0.357,0.416,0.333,0.672
		c-0.021,0.232-0.206,0.411-0.379,0.567c-1.685,1.518-3.501,3.102-5.738,3.472c-1.087,0.18-2.198,0.056-3.293-0.06
		c-3.465-0.367-6.955-0.655-10.431-0.41c-3.037,0.214-6.07,0.834-9.102,0.553c-0.427-0.04-0.908-0.13-1.14-0.491
		c-0.347-0.538,0.1-1.231,0.565-1.671c2.349-2.226,5.587-3.193,8.696-4.089c0.627-0.181,1.061-0.723,1.609-1.076
		c0.548-0.353,1.145-0.664,1.792-0.74"/>
</g>
<g id="&#xB808;&#xC774;&#xC5B4;_21">
	<path style="fill:none;stroke:#000000;stroke-miterlimit:10;" d="M272.408,129.44c0.807-0.054,1.617,0.005,2.424,0.063
		c1.365,0.099,2.729,0.198,4.094,0.297"/>
</g>
<g id="&#xB808;&#xC774;&#xC5B4;_22">
	<path style="fill:none;stroke:#000000;stroke-miterlimit:10;" d="M252.618,133.033c3.714,3.02,8.838,3.471,13.23,5.377
		c1.185,0.514,2.321,1.137,3.516,1.628c2.113,0.867,4.382,1.307,6.495,2.175c2.113,0.868,4.153,2.288,5.006,4.407
		c2.705,2.047,5.075,4.44,7.306,6.996c0.888,1.017,1.737,2.073,2.466,3.21c1.58,2.46,2.589,5.275,4.368,7.595
		c0.93,1.213,2.052,2.265,3.191,3.284c2.113,1.889,4.326,3.697,6.81,5.06c2.485,1.364,5.269,2.273,8.103,2.257
		c1.081-0.006,2.189-0.155,3.141-0.669c0.44-0.238,0.835-0.548,1.229-0.856c1.253-0.983,2.507-1.966,3.76-2.949
		c1.139-0.894,1.183-2.788,1.051-4.23c-0.132-1.442-0.554-2.843-0.725-4.281c-0.099-0.835-0.113-1.678-0.197-2.515
		c-0.118-1.173-0.374-2.329-0.682-3.468"/>
</g>
<g id="&#xB808;&#xC774;&#xC5B4;_23">
	<path style="fill:none;stroke:#000000;stroke-miterlimit:10;" d="M297.174,226.059c-0.187,0.529-0.14,1.11-0.058,1.665
		c0.225,1.537,0.693,3.04,1.392,4.427c0.678,1.345,1.708,2.673,3.18,2.992c1.165,0.253,2.353-0.177,3.522-0.411
		c4.738-0.946,9.44,1.343,14.161,2.369c1.166,0.253,2.349,0.43,3.51,0.706c1.563,0.37,3.121,0.921,4.724,0.835
		s3.312-1.033,3.641-2.604c0.185-0.881-0.091-1.798-0.501-2.599c-0.566-1.106-1.393-2.077-2.396-2.81
		c-1.741-1.274-3.908-1.787-6.01-2.272c-2.277-0.525-4.554-1.05-6.831-1.575c-1.143-0.264-2.29-0.528-3.457-0.646
		c-1.444-0.147-2.899-0.07-4.35-0.064c-2.05,0.008-4.102-0.126-6.133-0.403C300.286,225.496,297.782,224.343,297.174,226.059z"/>
</g>
<g id="&#xB808;&#xC774;&#xC5B4;_24">
	<path style="fill:none;stroke:#000000;stroke-miterlimit:10;" d="M297.522,224.543c0.333-0.775,0.162-1.659,0.107-2.501
		c-0.15-2.298,0.62-4.545,0.958-6.823c0.161-1.083,0.224-2.178,0.287-3.272c0.16-2.786,0.321-5.572,0.481-8.359
		c0.258-4.478,0.655-8.859,0.747-13.344c0.065-3.215-0.382-6.416-0.828-9.601c-0.475-3.393,1.002-6.948,3.147-9.62"/>
</g>
<g id="&#xB808;&#xC774;&#xC5B4;_25">
	<path style="fill:none;stroke:#000000;stroke-miterlimit:10;" d="M309.601,225.705c0.036-3.427,0.461-6.837,0.885-10.238
		c1.073-8.595-0.025-17.474,2.796-25.663c0.644-1.869,1.847-3.53,2.853-5.232c0.737-1.247,1.474-2.496,2.301-3.686
		c0.606-0.872,1.263-1.717,1.722-2.674c1.059-2.209,0.962-4.774,0.843-7.221"/>
	<path style="fill:none;stroke:#000000;stroke-miterlimit:10;" d="M183.122,79.975c2.704,1.628,5.407,3.257,8.111,4.885
		c1.21,0.729,2.426,1.461,3.726,2.015c1.495,0.638,3.092,1.034,4.711,1.17c5.389,0.452,9.662,4.864,14.994,5.764
		c1.209,0.204,2.455,0.278,3.598,0.722s2.2,1.367,2.376,2.58c0.304,2.102,0.893,4.318,1.974,6.146
		c0.262,0.442,0.552,0.882,0.964,1.189c0.538,0.4,1.226,0.531,1.893,0.6c1.916,0.199,3.911-0.016,5.722,0.643
		c2.96,1.077,4.632,4.148,7.048,6.171c1.493,1.25,3.275,2.096,5.035,2.929"/>
</g>
<g id="&#xB808;&#xC774;&#xC5B4;_26">
	<path style="fill:none;stroke:#000000;stroke-miterlimit:10;" d="M179.259,52.962c1.377,0.146,2.61,0.952,3.58,1.94
		c1.61,1.641,2.607,3.772,3.934,5.648c2.994,4.233,7.678,7.187,10.067,11.788c1.029,1.982,1.743,4.378,3.712,5.431
		c4.754,2.54,8.923,5.492,13.82,7.743c3.895,1.791,8.424,2.685,11.34,5.827c0.775,0.836,1.878,1.323,2.785,2.014
		c1.063,0.81,2.165,1.667,2.734,2.876c0.471,1.002,0.533,2.162,1.03,3.151c0.421,0.839,1.125,1.496,1.821,2.127
		c3.775,3.423,7.746,6.631,11.886,9.603"/>
</g>
</svg>
