<?xml version="1.0" encoding="iso-8859-1"?>
<!-- Generator: Adobe Illustrator 24.0.1, SVG Export Plug-In . SVG Version: 6.00 Build 0)  -->
<svg version="1.1" xmlns="http://www.w3.org/2000/svg" xmlns:xlink="http://www.w3.org/1999/xlink" x="0px" y="0px"
	 viewBox="0 0 464 261" style="enable-background:new 0 0 464 261;" xml:space="preserve">
<g id="&#xB808;&#xC774;&#xC5B4;_1" style="display:none;">
	<image style="display:inline;overflow:visible;" width="464" height="261" xlink:href="../17.png" >
	</image>
</g>
<g id="&#xB808;&#xC774;&#xC5B4;_2">
	<path style="fill:none;stroke:#000000;stroke-miterlimit:10;" d="M176.067,52.299c-0.215,1.43-0.6,3.093-1.926,3.668
		c-0.542,0.235-1.161,0.236-1.74,0.124c-2.484-0.48-4.212-2.822-6.612-3.62c-1.137-0.378-2.479-0.446-3.277-1.338
		c-0.875-0.979-0.684-2.465-0.671-3.778c0.015-1.496-0.278-2.995-0.855-4.376c-0.753-1.802-2-3.466-2.142-5.414
		c-0.159-2.174-0.717-4.306-0.474-6.472c0.134-1.196,0.28-2.415,0.78-3.51c0.868-1.9,2.691-3.185,4.559-4.119
		c3.66-1.83,7.933-2.654,11.905-1.671c3.972,0.983,7.542,3.955,8.663,7.891c0.422,1.481,0.509,3.077,1.225,4.441
		c0.247,0.47,0.577,0.958,0.495,1.483c-0.179,1.157-1.939,1.163-2.688,2.064c-0.569,0.685-0.405,1.717-0.048,2.533
		s0.879,1.59,0.956,2.477c0.093,1.077-0.507,2.11-1.287,2.859c-0.78,0.748-1.737,1.28-2.618,1.906
		C178.68,48.603,176.364,50.321,176.067,52.299z"/>
</g>
<g id="&#xB808;&#xC774;&#xC5B4;_3">
	<path style="fill:none;stroke:#000000;stroke-miterlimit:10;" d="M183.642,44.544c-0.874,0.195-1.802,0.136-2.644-0.168
		c-0.379-0.136-0.739-0.32-1.118-0.454c-0.787-0.277-1.652-0.33-2.467-0.15"/>
</g>
<g id="&#xB808;&#xC774;&#xC5B4;_4">
	<path style="fill:none;stroke:#000000;stroke-miterlimit:10;" d="M145.745,68.984c1.31-1.527,2.055-3.452,3.176-5.123
		c1.12-1.671,2.861-3.18,4.871-3.098c0.844,0.034,1.653,0.349,2.398,0.745c2.379,1.264,4.266,3.427,5.198,5.954
		c0.931,2.528,0.898,5.398-0.091,7.903c-1.48,3.747-2.193,7.949-4.266,11.403c-1.494,2.489-3.342,4.862-3.983,7.693
		c-0.113,0.498-0.185,1.022-0.05,1.514c0.336,1.222,1.747,1.754,2.984,2.029c1.917,0.427,3.875,0.674,5.838,0.738
		c8.637,0.279,17.756-0.181,26.222-1.916c1.763-0.361,4.009-0.581,4.962,0.945c1.339,2.143-1.514,5.192-0.16,7.325
		c0.191,0.3,0.465,0.578,0.489,0.933c0.035,0.515-0.465,0.898-0.935,1.111c-1.087,0.493-2.331,0.634-3.501,0.398
		c-2.65,0.805-5.648-0.146-8.417-0.217c-1.36-0.035-2.716,0.14-4.065,0.309c-3.881,0.487-7.774,0.935-11.685,1.001
		c-8.21,0.138-16.344-1.407-24.409-2.945c-1.485,0.229-3.479,0.105-4.973-0.056c-0.813-0.087-1.701-0.281-2.188-0.937
		c-0.351-0.473-0.418-1.095-0.428-1.683c-0.044-2.559,0.793-5.124,2.338-7.164c1.908-2.518,2.598-6.006,3.816-8.921
		C141.345,81.042,141.592,73.824,145.745,68.984z"/>
</g>
<g id="&#xB808;&#xC774;&#xC5B4;_5">
	<path style="fill:none;stroke:#000000;stroke-miterlimit:10;" d="M160.625,42.764c-4.028,4.193-8.056,8.385-12.084,12.578
		c-0.67,0.697-1.344,1.4-1.86,2.217c-1.077,1.706-1.387,3.787-1.418,5.804s0.192,4.036,0.072,6.049"/>
	<path style="fill:none;stroke:#000000;stroke-miterlimit:10;" d="M142.183,106.257c-0.402,3.932-1.583,7.782-3.455,11.263
		c-0.448,0.833-0.949,1.699-0.932,2.645c0.02,1.106,0.737,2.055,1.262,3.029c0.978,1.815,1.338,3.905,2.249,5.755
		c0.928,1.884,2.387,3.443,3.784,5.013c3.041,3.418,5.896,7.052,7.957,11.136c0.784,1.554,1.47,3.196,2.648,4.477
		c2.334,2.539,6.172,3.216,8.577,5.688c0.698,0.718,1.594,1.664,2.506,1.25c0.432-0.196,0.678-0.648,1.01-0.987
		c0.778-0.793,1.994-0.931,3.104-0.943c4.055-0.044,8.117,0.99,11.657,2.967c0.597,0.333,1.374,0.685,1.908,0.258
		c0.485-0.388,0.395-1.136,0.26-1.742c-0.245-1.098-0.489-2.195-0.734-3.293c-0.463-2.077-0.926-4.154-1.389-6.231
		c-0.73-3.277-1.472-6.588-2.93-9.613c-2.18-4.522-5.923-8.338-7.065-13.227c-0.58-2.482-0.439-5.068-0.295-7.612
		c0.076-1.34,0.155-2.696,0.56-3.976c0.469-1.482,1.378-2.822,2.582-3.806"/>
	<path style="fill:none;stroke:#000000;stroke-miterlimit:10;" d="M179.203,98.022c3.021-2.083,3.686-6.189,4.089-9.836
		c0.228-2.058,0.455-4.12,0.47-6.191c0.013-1.872-0.148-3.74-0.165-5.612c-0.047-5.146,0.994-10.247,1.121-15.392
		c0.026-1.06,0.006-2.159-0.438-3.122c-0.34-0.739-0.905-1.346-1.372-2.012c-0.465-0.663-0.834-1.388-1.293-2.055
		c-0.947-1.377-2.278-2.487-3.802-3.172"/>
</g>
<g id="&#xB808;&#xC774;&#xC5B4;_7">
	<path style="fill:none;stroke:#000000;stroke-miterlimit:10;" d="M120.457,133.799c2.233,3.374,6.294,4.925,9.963,6.631
		c2.455,1.142,4.839,2.437,7.133,3.875c0.977,0.613,1.939,1.251,2.877,1.922c4.253,3.037,8.04,6.726,11.187,10.899
		c2.303,3.053,5.368,5.173,8.274,7.659c1.655,1.416,3.346,2.802,4.815,4.409c1.398,1.529,2.607,3.268,4.288,4.479
		c3.049,2.197,7.11,2.292,10.853,1.956c0.781-0.07,1.575-0.159,2.291-0.479c1.885-0.842,2.766-3.102,2.732-5.166
		c-0.034-2.064-0.778-4.039-1.267-6.045s-0.7-4.222,0.26-6.05"/>
</g>
<g id="&#xB808;&#xC774;&#xC5B4;_6">
	<path style="fill:none;stroke:#000000;stroke-miterlimit:10;" d="M131.025,132.643c-0.586,0.325-1.269,0.42-1.934,0.504
		c-2.249,0.283-4.506,0.509-6.766,0.676c-1.015,0.075-2.048,0.137-3.041-0.086c-0.439-0.099-0.867-0.253-1.263-0.466
		c-0.442-0.238-0.842-0.547-1.263-0.82c-0.517-0.334-1.067-0.614-1.616-0.892c-0.518-0.263-1.037-0.527-1.586-0.717
		c-1.013-0.351-2.109-0.448-3.085-0.892c-0.642-0.292-1.46-0.336-2.16-0.418c-0.371-0.044-0.76-0.094-1.062-0.315
		c-0.519-0.38-0.599-1.144-0.419-1.762c0.303-1.043,1.156-1.819,1.977-2.53c1.01-0.874,2.057-1.753,3.309-2.218
		c1.155-0.43,2.414-0.48,3.646-0.451c6.399,0.154,12.639,2.336,19.04,2.304c0.548-0.003,1.127-0.014,1.603,0.256
		c0.211,0.12,0.389,0.289,0.561,0.46c0.661,0.659,1.297,1.483,1.238,2.415c-0.052,0.819-0.631,1.503-1.241,2.051
		C135.395,131.15,132.869,131.619,131.025,132.643z"/>
</g>
<g id="&#xB808;&#xC774;&#xC5B4;_8">
	<path style="fill:none;stroke:#000000;stroke-miterlimit:10;" d="M136.64,129.966c1.162,0.5,2.334,1.007,3.361,1.745
		c0.559,0.402,1.068,0.869,1.611,1.293c1.352,1.057,2.912,1.846,4.565,2.307"/>
</g>
<g id="&#xB808;&#xC774;&#xC5B4;_9">
	<path style="fill:none;stroke:#000000;stroke-miterlimit:10;" d="M159.504,223.983c-0.155,1.455-0.309,2.91-0.464,4.365
		c-0.151,1.424-0.251,3.029,0.683,4.116c0.986,1.148,2.692,1.234,4.198,1.373c3.694,0.34,7.307,1.525,10.484,3.439
		c0.776,0.468,1.535,0.982,2.389,1.288c0.994,0.356,2.068,0.41,3.123,0.436c3.546,0.085,7.1-0.117,10.614-0.604
		c1.509-0.209,3.253-0.654,3.836-2.061c0.125-0.302,0.177-0.668-0.001-0.942c-0.145-0.223-0.408-0.334-0.655-0.432
		c-6.32-2.511-12.768-4.702-19.309-6.561c-1.818-0.517-3.984-1.38-4.224-3.254c-0.07-0.55,0.029-1.178-0.332-1.599
		c-0.185-0.216-0.459-0.33-0.725-0.432c-2.008-0.766-4.087-1.137-6.225-1.27C160.898,221.719,159.762,221.557,159.504,223.983z"/>
</g>
<g id="&#xB808;&#xC774;&#xC5B4;_10">
	<path style="fill:none;stroke:#000000;stroke-miterlimit:10;" d="M159.718,221.815c0.36-4.539,0.72-9.079,1.079-13.618
		c0.247-3.114,0.492-6.27-0.073-9.342c-0.435-2.369-1.347-4.652-1.538-7.053c-0.217-2.737,0.513-5.451,1.237-8.1
		c0.603-2.208,2.207-4.171,2.691-6.408c0.164-0.757,0.17-1.538,0.21-2.311c0.106-2.038,0.455-4.063,1.036-6.019"/>
</g>
<g id="&#xB808;&#xC774;&#xC5B4;_11">
	<path style="fill:none;stroke:#000000;stroke-miterlimit:10;" d="M169.977,223.029c1.908-1.57,2.177-4.341,2.291-6.809
		c0.271-5.897,0.492-11.879,2.251-17.514c0.701-2.244,1.633-4.604,1.817-6.948c0.215-2.744-0.171-5.582,0.684-8.197
		c0.373-1.14,0.97-2.192,1.423-3.303c0.571-1.398,0.912-2.889,1.007-4.397"/>
</g>
<g id="&#xB808;&#xC774;&#xC5B4;_12">
	<path style="fill:none;stroke:#000000;stroke-miterlimit:10;" d="M316.752,54.738c-0.255-0.044-0.509-0.092-0.763-0.144
		c-0.712,1.737-2.7,3.183-4.288,4.184c-2.38-1.601-5.03-2.799-7.803-3.529c-0.683-0.18-1.457-0.394-1.781-1.022
		c-0.147-0.285-0.174-0.616-0.189-0.937c-0.069-1.545,0.091-3.129-0.348-4.612c-0.805-2.718-3.411-4.49-4.775-6.975
		c-0.762-1.387-1.114-2.958-1.409-4.514c-0.387-2.044-0.688-4.156-0.264-6.193c0.853-4.104,4.606-7.156,8.663-8.207
		c4.058-1.05,8.365-0.414,12.418,0.655c2.518,0.664,5.122,1.578,6.819,3.553c2.008,2.338,2.325,5.661,2.305,8.743
		c-0.005,0.793-0.014,1.634,0.398,2.311c0.65,1.071,2.126,1.375,2.855,2.394c0.163,0.227,0.285,0.494,0.287,0.773
		c0.005,0.739-0.781,1.218-1.492,1.419c-0.711,0.201-1.523,0.324-1.975,0.909c-0.341,0.442-0.383,1.038-0.405,1.595
		c-0.126,3.163-0.052,6.334,0.22,9.487c0.007,0.077-2.054,0.312-2.246,0.331c-0.772,0.075-1.548,0.112-2.324,0.111
		c-1.474-0.003-3.065-0.075-4.497-0.441c-0.168-0.043-0.342-0.108-0.447-0.247c-0.1-0.132-0.118-0.307-0.133-0.471
		c-0.037-0.401-0.092-0.838-0.382-1.118c-0.25-0.241-0.62-0.308-0.967-0.316c-0.347-0.007-0.699,0.033-1.039-0.041"/>
</g>
<g id="&#xB808;&#xC774;&#xC5B4;_13">
	<path style="fill:none;stroke:#000000;stroke-miterlimit:10;" d="M284.118,66.181c1.566-1.394,3.552-2.252,5.593-2.735
		c2.04-0.484,4.146-0.613,6.241-0.698c1.53-0.062,3.165-0.074,4.457,0.75c1.378,0.879,2.054,2.514,2.51,4.084
		c0.709,2.441,1.062,5.152,0,7.462c-0.764,1.662-2.17,2.924-3.539,4.137c-3.794,3.36-7.708,7.081-12.716,7.854
		c-1.2,0.185-2.423,0.198-3.62,0.409c-2.711,0.477-5.222,2.005-6.893,4.192c-3.475,4.548-7.767,8.256-11.811,12.305
		c-0.937,0.938-1.874,1.876-2.81,2.814c-1.883,1.885-3.766,3.771-5.735,5.566c0.435,3.375-1.477,6.564-2.296,9.867
		c-0.507,2.041-0.741,4.391-2.388,5.699c-0.364-1.168-0.728-2.337-1.093-3.505c-0.085-0.271-0.178-0.557-0.39-0.745
		c-0.471-0.419-1.209-0.148-1.758,0.161c-1.1,0.617-2.182,1.349-2.872,2.405s-0.91,2.501-0.249,3.575
		c0.355,0.578,0.953,1.273,0.547,1.816c-0.151,0.202-0.408,0.297-0.657,0.335c-1.211,0.184-2.299-0.724-3.12-1.633
		c-2.319-2.566-4.09-6.09-3.153-9.419c1.351-4.798,7.591-7.005,8.763-11.85c0.375-1.548,0.274-3.415,1.512-4.418
		c1.579-1.279,2.424-3.395,3.705-4.973c1.191-1.467,2.387-2.942,3.32-4.584c0.68-1.197,1.214-2.472,1.886-3.674
		c0.687-1.229,1.515-2.372,2.34-3.512c1.404-1.939,2.856-3.925,4.875-5.211c0.72-0.459,1.171-1.444,1.846-1.967
		c2.985-2.309,6.292-4.166,9.369-6.351C279.058,72.149,281.3,68.691,284.118,66.181z"/>
</g>
<g id="&#xB808;&#xC774;&#xC5B4;_15">
	<path style="fill:none;stroke:#000000;stroke-miterlimit:10;" d="M274.306,88.45c0.147,0.186,0.294,0.373,0.442,0.559
		c0.088,0.111,0.179,0.225,0.3,0.299c0.141,0.085,0.309,0.108,0.472,0.126c0.804,0.092,1.615,0.124,2.424,0.095"/>
	<path style="fill:none;stroke:#000000;stroke-miterlimit:10;" d="M287.702,63.712c2.971-2.322,4.912-5.814,8.045-7.914
		c0.565-0.379,1.162-0.707,1.713-1.107c1.398-1.015,2.587-2.528,4.298-2.773"/>
</g>
<g id="&#xB808;&#xC774;&#xC5B4;_14">
	<path style="fill:none;stroke:#000000;stroke-miterlimit:10;" d="M286.598,87.022c-0.882,8.859-1.382,17.756-1.5,26.658
		c-1.158,1.644-2.354,3.253-2.725,5.23c-0.92,4.896-2.524,9.911-2.411,14.891c0.043,1.917-0.572,3.674-0.644,5.59
		c-0.036,0.971-0.058,1.952,0.125,2.906c0.225,1.171,0.751,2.26,1.272,3.333c1.302,2.683,2.604,5.366,3.906,8.048
		c1.715,3.535,2.461,6.864,4.33,10.32c0.739,1.366,1.581,2.775,2.935,3.534c0.799,0.448,1.716,0.633,2.622,0.763
		c3.715,0.536,7.545,0.26,11.145-0.805c1.067-0.315,2.16-0.73,2.9-1.561c0.617-0.694,0.922-1.607,1.16-2.504
		c0.962-3.618,1.097-7.453,0.391-11.13c-0.166-0.864-0.339-1.876,0.257-2.523c1.344,0.791,2.353,2.031,3.477,3.112
		c1.125,1.081,2.5,2.061,4.059,2.102c0.759,0.02,1.503-0.186,2.234-0.39c1.637-0.457,3.274-0.913,4.911-1.37
		c2.652-0.74,5.544-0.89,8.251-0.393c0.245,0.045,0.542,0.078,0.703-0.111c0.143-0.168,0.099-0.419,0.045-0.632
		c-0.824-3.257-2.211-6.371-4.082-9.161c-1.715-2.558-3.819-4.828-5.913-7.086c-3.979-4.289-7.317-9.622-8.341-15.382
		c-0.526-2.963-0.449-6.294,1.456-8.624c0.726-5.338,4.757-9.873,6.137-15.081c0.87-3.284,0.721-6.741,0.565-10.135
		c-0.141-3.079,0.018-6.145,0.326-9.211c0.527-5.25-0.264-10.627-2.282-15.502c-0.556-1.343-1.235-2.69-2.353-3.62
		c-1.269-1.055-2.946-1.447-4.556-1.807"/>
</g>
<g id="&#xB808;&#xC774;&#xC5B4;_16">
	<path style="fill:none;stroke:#000000;stroke-miterlimit:10;" d="M321.427,101.372c1.728-1.39,4.061-1.73,6.026-2.758
		c1.033-0.54,1.961-1.27,3.013-1.772c3.058-1.461,6.905-0.894,9.699-2.814c1.264-0.869,2.194-2.212,2.563-3.701
		c0.26-1.052-0.058-1.915-0.077-2.998c-0.018-1.008-0.104-2.074-0.686-2.896c-0.426-0.601-1.072-1.003-1.597-1.52
		c-0.484-0.476-0.869-1.053-1.404-1.471s-1.301-0.65-1.893-0.318c-0.824,0.463-0.812,1.634-0.691,2.572
		c0.072,0.559,0.145,1.118,0.217,1.676c0.061,0.475,0.05,1.087-0.391,1.273c-0.379,0.16-0.801-0.14-1.025-0.484
		c-0.225-0.344-0.361-0.758-0.674-1.025c-0.328-0.279-0.829-0.336-1.212-0.138c-0.383,0.198-0.625,0.64-0.586,1.069
		c0.027,0.302,0.177,0.577,0.278,0.863c0.362,1.022,0.048,2.249-0.761,2.972c-0.694,0.62-1.419,1.258-2.34,1.386
		c-0.921,0.129-1.866-0.132-2.679-0.584c-0.304-0.169-0.601-0.372-0.791-0.662c-0.194-0.296-0.26-0.655-0.321-1.003
		c-0.555-3.137-1.111-6.273-1.666-9.41c-0.072-0.405-0.104-0.806-0.19-1.208c-0.077-0.358-0.013-0.767-0.015-1.133"/>
</g>
<g id="&#xB808;&#xC774;&#xC5B4;_17">
	<path style="fill:none;stroke:#000000;stroke-miterlimit:10;" d="M277.284,145.86c-0.419,0.357-0.935,0.575-1.432,0.812
		c-2.38,1.135-4.493,2.827-6.121,4.902c-0.661,0.843-1.25,1.754-2.036,2.482c-0.913,0.844-2.048,1.4-3.081,2.092
		c-1.191,0.797-2.247,1.774-3.344,2.696c-0.801,0.673-1.661,1.334-2.677,1.582c-1.016,0.248-2.231-0.025-2.8-0.902
		c-0.698-1.077-0.176-2.528,0.566-3.575c1.595-2.251,4.05-3.718,6.017-5.652c1.17-1.151,2.165-2.467,3.308-3.644
		c1.143-1.178,2.476-2.238,4.051-2.699c1.295-0.379,2.672-0.331,4.019-0.253c1.013,0.059,2.025,0.133,3.036,0.223
		C278.114,144.038,278.249,145.039,277.284,145.86z"/>
</g>
<g id="&#xB808;&#xC774;&#xC5B4;_18">
	<path style="fill:none;stroke:#000000;stroke-miterlimit:10;" d="M267.197,154.486c0.807,0.949,2.245,0.981,3.482,0.835
		c1.016-0.12,2.039-0.309,3.056-0.194c0.78,0.088,1.527,0.352,2.264,0.621c3.864,1.405,7.671,2.966,11.408,4.679"/>
</g>
<g id="&#xB808;&#xC774;&#xC5B4;_19">
	<path style="fill:none;stroke:#000000;stroke-miterlimit:10;" d="M277.83,144.956c0.928-0.143,1.893-0.037,2.768,0.304"/>
</g>
<g id="&#xB808;&#xC774;&#xC5B4;_20">
	<path style="fill:none;stroke:#000000;stroke-miterlimit:10;" d="M310.487,155.213c2.254,0.127,4.515,0.253,6.767,0.094"/>
</g>
<g id="&#xB808;&#xC774;&#xC5B4;_21">
	<path style="fill:none;stroke:#000000;stroke-miterlimit:10;" d="M270.834,234.194c0.25,1.294,0.77,2.667,1.92,3.312
		c0.909,0.509,2.024,0.455,3.05,0.273c1.026-0.182,2.051-0.476,3.09-0.399c1.188,0.089,2.28,0.656,3.333,1.211
		c2.153,1.134,4.305,2.269,6.458,3.403c1.136,0.599,2.282,1.201,3.516,1.557c1.234,0.355,2.578,0.449,3.791,0.028
		c0.737-0.256,1.401-0.693,1.986-1.208c0.228-0.201,0.448-0.418,0.598-0.683c0.173-0.304,0.245-0.657,0.26-1.007
		c0.057-1.316-0.693-2.587-1.76-3.358c-1.067-0.771-2.412-1.086-3.729-1.103c-0.687-0.009-1.382,0.058-2.054-0.079
		c-0.552-0.113-1.068-0.36-1.568-0.619c-2.288-1.185-4.415-2.681-6.303-4.435c-0.655-0.608-1.294-1.257-2.084-1.675
		c-0.894-0.474-1.921-0.62-2.926-0.735c-1.335-0.152-2.637-0.155-3.977-0.144c-0.749,0.006-1.616-0.149-2.343,0.089
		C269.979,229.317,270.519,232.564,270.834,234.194z"/>
</g>
<g id="&#xB808;&#xC774;&#xC5B4;_22">
	<path style="fill:none;stroke:#000000;stroke-miterlimit:10;" d="M271.241,228.907c5.151-11.647,9.834-23.502,14.035-35.524
		c0.855-2.447,1.667-5.013,2.858-7.315c0.594-1.148,1.467-2.152,1.914-3.365c1.167-3.167-0.837-6.903,0.498-10.003
		c0.184-0.428,0.429-0.832,0.564-1.278c0.446-1.478-0.391-3.068-0.155-4.594"/>
</g>
<g id="&#xB808;&#xC774;&#xC5B4;_23">
	<path style="fill:none;stroke:#000000;stroke-miterlimit:10;" d="M280.819,229.134c1.841-2.058,3.701-4.144,4.982-6.589
		c1.797-3.428,2.407-7.469,4.73-10.566c0.644-0.858,1.413-1.633,1.909-2.584c0.555-1.063,0.735-2.281,1.201-3.386
		c1.153-2.73,3.9-4.465,5.373-7.037c0.669-1.169,1.054-2.474,1.559-3.722c1.174-2.906,2.992-5.498,4.795-8.061
		c2.615-3.72,1.849-8.781,1.869-13.328c0.01-2.296,0.02-4.592,0.03-6.889"/>
</g>
<g id="&#xB808;&#xC774;&#xC5B4;_24">
	<path style="fill:none;stroke:#000000;stroke-miterlimit:10;" d="M307.379,168.324c7.867,2.6,15.794,5.214,24.014,6.256
		c1.828,0.232,3.69,0.385,5.509,0.086c1.819-0.298,3.61-1.088,4.817-2.482c1.207-1.393,1.729-3.444,1.035-5.151
		c-0.389-0.956-1.11-1.736-1.608-2.64c-0.768-1.393-0.976-3.02-1.545-4.505c-1.065-2.781-3.315-4.91-5.496-6.938"/>
</g>
<g id="&#xB808;&#xC774;&#xC5B4;_25">
	<path style="fill:none;stroke:#000000;stroke-miterlimit:10;" d="M310.632,155.267c2.21,0.074,4.441,0.146,6.612-0.271"/>
</g>
<g id="&#xB808;&#xC774;&#xC5B4;_26">
	<path style="fill:none;stroke:#000000;stroke-miterlimit:10;" d="M183.694,84.059c3.35-0.099,6.118,2.405,8.727,4.508
		c7.566,6.097,16.828,9.922,26.39,11.647c1.165,0.21,2.419,0.432,3.252,1.274c0.802,0.811,1.025,2.01,1.278,3.122
		c0.398,1.75,0.96,3.462,1.677,5.107c0.377,0.866,0.837,1.759,1.643,2.252c1.586,0.972,3.676-0.017,5.486,0.41
		c0.807,0.19,1.518,0.654,2.21,1.11c2.046,1.347,4.092,2.694,6.138,4.042"/>
</g>
<g id="&#xB808;&#xC774;&#xC5B4;_27">
	<path style="fill:none;stroke:#000000;stroke-miterlimit:10;" d="M184.202,57.487c1.412,0.575,2.467,1.816,3.148,3.18
		s1.037,2.863,1.427,4.336c0.909,3.435,2.079,6.896,4.313,9.659c0.883,1.093,1.923,2.059,3.076,2.861
		c1.546,1.075,2.584,2.738,3.904,4.081c0.498,0.507,0.999,1.015,1.56,1.451c0.822,0.639,1.758,1.111,2.683,1.587
		c8.187,4.212,16.026,9.063,23.855,13.909c1.819,1.126,3.8,2.101,5.53,3.36c1.729,1.259,3.301,2.976,3.622,5.091
		c0.104,0.685,0.075,1.4,0.316,2.05c0.39,1.051,1.397,1.723,2.344,2.322c1.25,0.791,2.499,1.583,3.749,2.374"/>
</g>
</svg>
