<?xml version="1.0" encoding="iso-8859-1"?>
<!-- Generator: Adobe Illustrator 24.0.1, SVG Export Plug-In . SVG Version: 6.00 Build 0)  -->
<svg version="1.1" xmlns="http://www.w3.org/2000/svg" xmlns:xlink="http://www.w3.org/1999/xlink" x="0px" y="0px"
	 viewBox="0 0 464 261" style="enable-background:new 0 0 464 261;" xml:space="preserve">
<g id="&#xB808;&#xC774;&#xC5B4;_1" style="display:none;">
	<image style="display:inline;overflow:visible;" width="464" height="261" xlink:href="../18.png" >
	</image>
</g>
<g id="&#xB808;&#xC774;&#xC5B4;_2">
	<path style="fill:none;stroke:#000000;stroke-miterlimit:10;" d="M175.377,55.287c-1.908-0.681-4.216-0.106-5.56,1.417
		c-0.416,0.472-0.77,1.041-1.344,1.297c-0.617,0.276-1.333,0.12-1.984-0.06c-1.974-0.547-3.895-1.282-5.73-2.192
		c-0.544-0.27-1.108-0.581-1.413-1.106c-0.255-0.438-0.294-0.966-0.317-1.472c-0.092-2.066-0.027-4.185-0.707-6.138
		c-0.402-1.153-1.05-2.201-1.591-3.296c-1.784-3.608-2.369-7.785-1.71-11.753c0.511-3.08,3.268-6.71,6.163-7.879
		c2.346-0.947,4.924-1.171,7.453-1.123c1.904,0.036,3.834,0.227,5.609,0.917c3.589,1.394,6.225,4.84,6.906,8.629
		c0.255,1.419,0.261,2.886,0.666,4.27c0.263,0.899,0.745,1.785,1.433,2.399c0.522,0.467,0.541,1.242,0.093,1.781
		c-0.686,0.825-1.131,1.853-1.238,2.921c-0.147,1.478,0.32,2.951,0.323,4.437c0.003,1.486-0.7,3.189-2.15,3.514
		c-0.703,0.158-1.43-0.045-2.15-0.079c-0.72-0.034-1.557,0.189-1.84,0.852c-0.252,0.591,0.042,1.258,0.076,1.9
		C176.398,55.137,175.955,55.494,175.377,55.287z"/>
</g>
<g id="&#xB808;&#xC774;&#xC5B4;_3">
	<path style="fill:none;stroke:#000000;stroke-miterlimit:10;" d="M178.73,51.767c-2.325,0.151-4.672-0.028-6.948-0.528"/>
</g>
<g id="&#xB808;&#xC774;&#xC5B4;_4">
	<path style="fill:none;stroke:#000000;stroke-miterlimit:10;" d="M145.489,69.966c0.496-1.446,1.351-2.768,2.466-3.813
		c0.673-0.63,1.499-1.182,2.421-1.202c0.745-0.016,1.447,0.317,2.118,0.642c2.628,1.274,5.392,2.668,6.942,5.144
		c1.813,2.896,1.548,6.562,1.855,9.965c0.178,1.976,0.57,3.932,1.166,5.824c0.711,2.255-0.183,4.682-0.967,6.912
		c-0.365,1.037-0.822,2.063-0.909,3.158c-0.086,1.096,0.291,2.314,1.239,2.87c0.477,0.28,1.044,0.363,1.597,0.388
		c2.098,0.095,4.148-0.568,6.14-1.235c2.474-0.828,4.944-1.677,7.34-2.707c1.952-0.839,3.931-1.815,6.056-1.835
		c0.752-0.007,1.523,0.106,2.245-0.103c1.694-0.49,2.425-2.461,3.769-3.603c0.778-0.661,1.026-1.547,1.726-2.291
		c0.635-0.675,1.322-1.326,2.152-1.739c1.422-0.707,3.091-0.641,4.676-0.551c1.059,0.06,2.197,0.152,3.015,0.829
		c1.1,0.91,1.227,2.521,1.263,3.948c0.026,1.043,0.034,2.144-0.484,3.05c-0.36,0.629-0.945,1.104-1.308,1.731
		c-0.138,0.239-0.246,0.502-0.447,0.691c-0.196,0.184-0.46,0.278-0.72,0.345c-0.918,0.237-1.882,0.212-2.82,0.348
		c-0.938,0.137-1.914,0.481-2.469,1.25c-1.954,2.712-5.327,3.641-8.36,5.044c-1.054,0.488-2.109,0.976-3.181,1.424
		c-7.152,2.993-14.928,4.179-22.655,4.811c-2.325,0.19-4.676,0.337-6.916,0.988c-1.708,0.497-3.671,1.251-5.138,0.245
		c-0.84-0.575-1.25-1.583-1.616-2.533c-0.563-1.46-1.125-2.921-1.688-4.381c-1.07-2.777-1.163-5.611-1.255-8.586
		c-0.035-1.149-0.022-2.3-0.009-3.45c0.025-2.201,0.05-4.402,0.075-6.603c0.023-2.064,0.047-4.134,0.312-6.182
		c0.363-2.798,1.172-5.518,2.047-8.2C145.272,70.252,145.169,70.042,145.489,69.966z"/>
</g>
<g id="&#xB808;&#xC774;&#xC5B4;_5">
	<path style="fill:none;stroke:#000000;stroke-miterlimit:10;" d="M158.741,50.433c-1.005-0.194-2.056,0.157-2.898,0.739
		c-0.842,0.582-1.509,1.379-2.15,2.178c-2.263,2.821-4.341,5.79-6.215,8.883c-0.91,1.502-2.517,2.666-3.249,4.262
		c-0.424,0.925-0.739,1.906-1.284,2.766c-0.358,0.564-0.81,1.068-1.131,1.654c-0.698,1.272-0.714,2.794-0.712,4.245
		c0.003,3.278,0.011,6.601,0.861,9.767c2.231,8.309-0.121,17.047-0.63,25.636c-0.137,2.317-1.172,4.739-2.298,6.769
		c-1.126,2.03-2.522,3.913-3.481,6.027c-1.889,4.168-1.914,9.142-0.065,13.329c2.678,6.067,3.959,12.039,6.098,18.316
		c1.01,2.963,2.053,5.967,3.858,8.524c0.573,0.811,1.225,1.578,2.021,2.173c2.382,1.781,5.609,1.769,8.582,1.681
		c1.237-0.037,2.497-0.077,3.667-0.48c2.581-0.887,4.313-3.438,4.927-6.097s0.287-5.437-0.127-8.134
		c-0.058-0.38-0.117-0.779,0.017-1.14c0.335-0.909,1.58-1.002,2.534-0.832c3.058,0.546,5.828,2.125,8.419,3.84
		c1.149,0.76,2.464,1.591,3.803,1.268c1.537-0.37,2.345-2.076,3.72-2.856c0.799-0.453,1.741-0.565,2.654-0.667
		c2.056-0.231,4.112-0.462,6.167-0.693c0.402-0.045,0.82-0.096,1.161-0.313c0.622-0.397,0.807-1.257,0.63-1.973
		s-0.64-1.322-1.092-1.905c-1.964-2.538-4.311-4.914-6.175-7.526c-3.602-5.048-8.401-9.179-11.774-14.383
		c-1.029-1.587-1.934-3.315-2.157-5.193c-0.151-1.279,0.021-2.572,0.218-3.844c0.484-3.131,1.12-6.238,1.904-9.307"/>
</g>
<g id="&#xB808;&#xC774;&#xC5B4;_6">
	<path style="fill:none;stroke:#000000;stroke-miterlimit:10;" d="M185.246,92.963c-1.137-0.944-1.659-2.457-1.796-3.929
		c-0.137-1.472,0.058-2.952,0.09-4.43c0.073-3.401-0.72-6.755-1.508-10.065c-1.543-6.482-3.099-13.004-5.766-19.11"/>
</g>
<g id="&#xB808;&#xC774;&#xC5B4;_7">
	<path style="fill:none;stroke:#000000;stroke-miterlimit:10;" d="M127.883,228.207c-0.68,0.865-0.294,2.131-0.533,3.206
		c-0.154,0.693-0.57,1.299-0.786,1.975c-0.216,0.676-0.164,1.54,0.425,1.937c0.311,0.209,0.703,0.242,1.073,0.296
		c2.159,0.313,4.066,1.516,5.976,2.569c5.316,2.932,11.17,4.882,17.182,5.724c1.722,0.241,3.829,0.224,4.766-1.241
		c0.813-1.272,0.221-3.054-0.902-4.062c-1.123-1.008-2.635-1.438-4.082-1.866c-3.06-0.905-6.121-1.953-8.786-3.708
		c-1.502-0.989-2.863-2.194-4.434-3.07c-1.899-1.059-3.804-1.12-5.823-1.694C130.696,227.912,128.972,226.822,127.883,228.207z"/>
</g>
<g id="&#xB808;&#xC774;&#xC5B4;_8">
	<path style="fill:none;stroke:#000000;stroke-miterlimit:10;" d="M129.172,227.496c0.004-3.164,0.508-6.304,1.01-9.429
		c0.237-1.474,0.483-2.977,1.171-4.301c1.07-2.061,3.126-3.529,3.966-5.693c1.96-5.047,4.648-10.131,7.005-15.005
		c0.605-1.25,1.21-2.502,1.717-3.796c1.275-3.254,1.91-6.757,1.858-10.252c-0.038-2.584,0.4-5.172,0.513-7.753
		c0.022-0.51,0.045-1.023,0.163-1.52c0.113-0.472,0.31-0.92,0.468-1.379c0.295-0.86,0.45-1.768,0.458-2.678"/>
</g>
<g id="&#xB808;&#xC774;&#xC5B4;_9">
	<path style="fill:none;stroke:#000000;stroke-miterlimit:10;" d="M136.731,229.16c2.226-3.015,4.452-6.031,6.678-9.046
		c0.902-1.221,1.815-2.464,2.342-3.888c0.383-1.035,0.555-2.146,1.028-3.143c0.801-1.687,2.396-2.902,3.162-4.605
		c1.047-2.326,0.434-5.299,2.01-7.304c1.745-2.219,3.071-4.661,4.68-6.98c1.234-1.779,2.48-3.581,3.251-5.604
		c0.526-1.38,0.82-2.835,1.112-4.283c0.516-2.557,1.031-5.113,1.547-7.67c0.748-3.709,0.113-7.595-0.173-11.368"/>
</g>
<g id="&#xB808;&#xC774;&#xC5B4;_10">
	<path style="fill:none;stroke:#000000;stroke-miterlimit:10;" d="M137.935,143.474c-3.044-0.052-6.088-0.073-9.133-0.063
		c-1.241,0.004-2.497,0.015-3.695,0.34c-2.531,0.686-4.475,2.664-6.265,4.581c-1.072,1.148-2.143,2.314-2.949,3.662
		c-0.806,1.348-1.338,2.906-1.229,4.472c0.013,0.187,0.04,0.386,0.165,0.525c0.135,0.151,0.35,0.195,0.55,0.228
		c1.506,0.252,3.06,0.389,4.551,0.058s2.921-1.189,3.651-2.529c0.302-0.555,0.49-1.192,0.944-1.632
		c0.258-0.251,0.585-0.418,0.911-0.57c1.592-0.741,3.312-1.203,5.061-1.363c0.585-0.054,1.135-0.312,1.493-0.777
		c1.491-1.936,3.878-3.16,5.199-5.245c0.252-0.398,0.437-0.711,0.695-1.106C137.998,143.881,138.015,143.667,137.935,143.474z"/>
</g>
<g id="&#xB808;&#xC774;&#xC5B4;_11">
	<path style="fill:none;stroke:#000000;stroke-miterlimit:10;" d="M123.204,155.395c2.079,0.158,4.188,0.315,6.236-0.076
		c0.669-0.128,1.326-0.314,1.999-0.419c0.799-0.125,1.61-0.136,2.418-0.146c2.659-0.035,5.403-0.054,7.862,0.958"/>
</g>
<g id="&#xB808;&#xC774;&#xC5B4;_12">
	<path style="fill:none;stroke:#000000;stroke-miterlimit:10;" d="M163.059,164.064c2.428,1.355,4.857,2.71,7.285,4.065
		c1.606,0.896,3.215,1.794,4.885,2.564c4.595,2.118,9.602,3.243,14.634,3.767c2.177,0.227,4.419,0.338,6.517-0.286
		c2.098-0.624,4.052-2.109,4.709-4.197c0.412-1.31,0.291-2.736,0.345-4.08c0.059-1.474-0.345-2.934-1.253-4.097
		c-0.619-0.793-1.227-1.534-1.516-2.432c-0.184-0.572-0.48-1.097-0.936-1.488c-1.418-1.215-2.782-2.825-3.051-4.564
		c-0.06-0.386-0.092-0.779-0.204-1.154c-0.184-0.615-0.579-1.157-1.077-1.563"/>
</g>
<g id="&#xB808;&#xC774;&#xC5B4;_13">
	<path style="fill:none;stroke:#000000;stroke-miterlimit:10;" d="M177.369,155.617c0.806,0.425,1.513,1.035,2.051,1.77
		c0.161,0.22,0.311,0.455,0.529,0.618c0.363,0.272,0.86,0.305,1.232,0.564"/>
</g>
<g id="&#xB808;&#xC774;&#xC5B4;_14">
	<path style="fill:none;stroke:#000000;stroke-miterlimit:10;" d="M314.334,58.581c-1.542,0.682-3.332,0.345-4.95-0.133
		c-1.048-0.309-2.106-0.676-3.178-0.852c-1.133-0.186-1.984-1.131-1.977-2.279c0.004-0.662,0.011-1.325-0.131-1.966
		c-0.246-1.116-0.93-2.11-1.088-3.242c-0.103-0.735,0.023-1.483-0.024-2.223c-0.059-0.928-0.386-1.816-0.709-2.687
		c-0.573-1.543-1.153-3.101-2.049-4.482c-0.548-0.845-1.213-1.621-1.637-2.534c-0.979-2.108-0.561-4.685-0.64-6.777
		c-0.02-0.525,0.057-1.052,0.275-1.53c0.573-1.252,1.489-2.308,2.393-3.345c1.064-1.221,2.177-2.478,3.655-3.14
		c0.986-0.441,2.072-0.588,3.153-0.658c1.961-0.127,3.927-0.096,5.886,0.059c4.47,0.352,9.81,1.311,12.862,4.933
		c0.607,0.72,1.11,1.537,1.393,2.435c0.453,1.439,0.319,2.985,0.339,4.493s0.241,3.12,1.24,4.25
		c0.665,0.752,1.622,1.225,2.192,2.052c0.57,0.826,0.435,2.281-0.549,2.48c-0.381,0.077-0.784-0.062-1.162,0.029
		c-0.831,0.201-1.013,1.279-1.063,2.133c-0.129,2.209-0.505,4.403-1.12,6.529c-0.161,0.555-0.35,1.128-0.753,1.542
		c-0.89,0.915-2.39,0.705-3.624,0.38c-0.862-0.227-2-0.373-2.443,0.4c-0.226,0.394-0.164,0.897-0.362,1.306
		c-0.354,0.728-1.33,0.848-2.138,0.809c-0.808-0.039-1.74-0.092-2.292,0.5C315.352,57.582,314.982,58.294,314.334,58.581z"/>
</g>
<g id="&#xB808;&#xC774;&#xC5B4;_15">
	<path style="fill:none;stroke:#000000;stroke-miterlimit:10;" d="M322.435,53.927c-0.428-0.101-0.879-0.044-1.314-0.117
		c-0.206-0.035-0.407-0.099-0.606-0.162c-0.352-0.112-0.704-0.225-1.045-0.368c-1.055-0.443-1.965-1.163-2.954-1.738"/>
</g>
<g id="&#xB808;&#xC774;&#xC5B4;_16">
	<path style="fill:none;stroke:#000000;stroke-miterlimit:10;" d="M288.678,62.643c2.121-0.84,4.515-0.444,6.728,0.109
		c1.677,0.418,3.358,0.931,4.81,1.867c2.279,1.468,3.838,3.922,4.474,6.558s0.395,5.436-0.41,8.026
		c-0.404,1.3-0.959,2.576-1.837,3.616c-1.984,2.351-5.277,3.134-8.352,3.233s-6.18-0.344-9.215,0.158
		c-4.85,0.802-9.204,4.156-11.216,8.641c-1.475,3.287-3.837,6.257-5.97,9.161c-0.731,0.996-1.505,1.983-2.496,2.721
		c-1.829,1.36-4.252,1.76-6.02,3.198c-2.275,1.849-2.98,4.967-3.546,7.843c-0.493,2.504-0.969,4.589-1.083,7.138
		c-0.051,1.145-0.07,2.392-0.794,3.28c-0.724,0.888-2.46,0.947-2.806-0.146c-0.135-0.427-0.022-0.903-0.167-1.327
		c-0.361-1.053-2.042-0.941-2.731-0.067c-0.689,0.874-0.712,2.077-0.841,3.182c-0.129,1.106-0.512,2.346-1.531,2.793
		c-1.108,0.486-2.397-0.238-3.172-1.168c-0.775-0.93-1.278-2.082-2.165-2.906c-0.852-0.792-2.008-1.23-2.768-2.111
		c-1.065-1.236-1.1-3.117-0.473-4.623c0.627-1.506,1.807-2.707,3.019-3.799c3.002-2.703,6.426-5.039,8.716-8.366
		c0.275-0.4,0.544-0.87,0.439-1.344c-0.076-0.345-0.336-0.616-0.504-0.927c-0.798-1.471,0.571-3.145,1.822-4.256
		c6.247-5.548,10.502-12.489,14.29-19.936c0.413-0.811,0.817-1.641,1.421-2.321c0.762-0.857,1.791-1.421,2.78-2.001
		c6.139-3.605,11.442-8.448,16.695-13.253C286.73,64.741,287.477,63.119,288.678,62.643z"/>
</g>
<g id="&#xB808;&#xC774;&#xC5B4;_17">
	<path style="fill:none;stroke:#000000;stroke-miterlimit:10;" d="M291.78,62.23c1.787-2.523,3.609-5.085,6.045-6.989
		c0.772-0.604,1.603-1.138,2.313-1.813c0.433-0.412,0.819-0.874,1.28-1.254c0.461-0.381,1.018-0.683,1.615-0.697"/>
</g>
<g id="&#xB808;&#xC774;&#xC5B4;_18">
	<path style="fill:none;stroke:#000000;stroke-miterlimit:10;" d="M282.449,87.012c1.402,1.326,2.773,2.685,4.112,4.075
		c0.53,0.551,1.065,1.121,1.382,1.816c0.24,0.527,0.345,1.105,0.425,1.679c0.353,2.528,0.271,5.117-0.244,7.618
		c-0.94,4.566-1.585,9.441-4.377,13.175c-1.839,2.459-4.274,4.623-5.125,7.573c-0.363,1.259-0.408,2.612-0.102,3.886
		c3.139,13.068,4.117,27.538,12.056,38.382c0.309,0.422,0.634,0.847,1.074,1.13c0.698,0.448,1.576,0.475,2.405,0.487
		c2.582,0.038,5.163,0.075,7.745,0.113c1.528,0.022,3.18,0.007,4.409-0.902c1.627-1.204,1.908-3.486,2.05-5.506
		c0.235-3.325,0.471-6.649,0.706-9.974c0.029-0.403,0.125-0.896,0.511-1.015c0.226-0.069,0.466,0.026,0.681,0.124
		c1.314,0.597,2.553,1.36,3.677,2.266c0.768,0.619,1.515,1.322,2.457,1.616c1.356,0.423,2.803-0.084,4.165-0.488
		c4.769-1.414,9.824-1.579,14.79-1.308c0.745,0.041,1.587,0.057,2.121-0.465c0.533-0.522,0.218-1.728-0.518-1.6
		c-6.882-4.249-11.595-11.705-15.918-18.541c-0.816-1.29-1.635-2.585-2.287-3.965c-2.424-5.126-2.347-11.365,0.202-16.43
		c0.582-1.156,0.498-2.574,1.131-3.703c0.468-0.834,1.011-1.625,1.482-2.458c0.8-1.416,1.384-2.941,1.964-4.46
		c1.891-4.947,3.807-10.023,3.874-15.32c0.055-4.365-1.153-8.636-2.351-12.835c-1.473-5.162-2.95-10.337-4.988-15.303"/>
</g>
<g id="&#xB808;&#xC774;&#xC5B4;_19">
	<path style="fill:none;stroke:#000000;stroke-miterlimit:10;" d="M320.635,105.779c2.623,0.131,4.964-1.517,7.068-3.088
		c0.969-0.723,1.938-1.447,2.906-2.17c0.7-0.523,1.402-1.047,2.15-1.5c1.251-0.758,2.626-1.311,4.053-1.631
		c2.375-0.532,4.914-0.432,7.14-1.415c0.884-0.39,1.805-1.193,1.601-2.137c-0.37-1.709,0.108-3.563,0.068-5.311
		c-0.013-0.558-0.035-1.127-0.225-1.652c-0.166-0.459-0.454-0.865-0.779-1.228c-1.774-1.982-4.821-2.703-7.295-1.727
		c-0.312,0.123-0.632,0.285-0.808,0.571c-0.264,0.428-0.12,0.993,0.125,1.431c0.246,0.439,0.588,0.83,0.739,1.31
		c0.29,0.924-0.3,2.014-1.218,2.321c-0.918,0.308-2.016-0.171-2.46-1.031c-0.272-0.526-0.375-1.217-0.904-1.481
		c-0.516-0.257-1.174,0.095-1.433,0.611c-0.259,0.516-0.216,1.128-0.12,1.697c0.096,0.569,0.239,1.144,0.159,1.716
		c-0.15,1.081-1.046,1.893-1.939,2.52c-1.223,0.859-2.677,1.589-4.153,1.362"/>
</g>
<g id="&#xB808;&#xC774;&#xC5B4;_20">
	<path style="fill:none;stroke:#000000;stroke-miterlimit:10;" d="M270.439,233.871c-0.102,0.75-0.107,1.545,0.223,2.227
		c0.521,1.077,1.765,1.628,2.955,1.75c1.19,0.123,2.387-0.092,3.584-0.103c3.385-0.032,6.542,1.542,9.701,2.757
		c4.04,1.553,8.289,2.561,12.596,2.987c0.582,0.058,1.188,0.102,1.738-0.099c0.579-0.211,1.032-0.672,1.397-1.169
		c1.214-1.655,1.489-4.262-0.076-5.59c-0.664-0.564-1.537-0.802-2.378-1.033c-4.707-1.296-9.341-2.858-13.871-4.677
		c-1.09-0.438-2.244-0.948-2.865-1.945c-0.253-0.406-0.407-0.881-0.74-1.225c-0.865-0.894-2.331-0.467-3.574-0.427
		c-1.094,0.035-2.116-0.766-3.128-0.693c-0.919,0.066-1.886,0.961-2.533,1.552C271.85,229.657,270.736,231.696,270.439,233.871z"/>
</g>
<g id="&#xB808;&#xC774;&#xC5B4;_21">
	<path style="fill:none;stroke:#000000;stroke-miterlimit:10;" d="M276.299,225.777c0.521-7.358,2.505-14.609,5.802-21.208
		c1.25-2.5,2.689-4.915,3.693-7.524c0.987-2.564,1.538-5.276,2.458-7.864c0.92-2.589,2.281-5.132,4.49-6.766
		c2.114-1.564,0.333-5.322-0.053-7.923c-0.4-2.696-0.8-5.392-1.2-8.088"/>
</g>
<g id="&#xB808;&#xC774;&#xC5B4;_22">
	<path style="fill:none;stroke:#000000;stroke-miterlimit:10;" d="M282.876,227.495c1.552-2.72,3.103-5.44,4.655-8.16
		c0.822-1.441,1.644-2.882,2.466-4.323c1.92-3.365,3.841-6.734,5.522-10.224c0.636-1.32,1.239-2.661,2.019-3.902
		c0.734-1.167,1.617-2.232,2.476-3.31c2.116-2.655,4.104-5.408,6.091-8.161c0.903-1.251,1.847-2.632,1.778-4.173
		c-0.136-3.01-0.036-6.26-0.84-9.164s-1.771-5.831-1.686-8.842"/>
</g>
<g id="&#xB808;&#xC774;&#xC5B4;_23">
	<path style="fill:none;stroke:#000000;stroke-miterlimit:10;" d="M281.585,148.732c0.482-0.732,0.497-1.685,0.298-2.539
		s-0.588-1.649-0.869-2.478c-0.267-0.787-0.508-1.699-1.244-2.084c-0.46-0.241-1.013-0.211-1.524-0.124
		c-1.806,0.307-3.451,1.233-4.936,2.305c-1.486,1.073-2.852,2.305-4.361,3.345c-1.313,0.905-2.73,1.66-4.214,2.245
		c-1.314,0.518-2.7,0.914-3.865,1.713c-1.428,0.98-2.4,2.479-3.334,3.938c-0.451,0.705-0.915,1.446-0.987,2.28
		c-0.123,1.429,1.039,2.769,2.429,3.124c1.39,0.355,2.896-0.134,4.035-1.006c0.433-0.332,0.83-0.72,1.318-0.963
		c0.451-0.225,0.956-0.312,1.44-0.456c2.592-0.772,4.611-3.168,7.307-3.37c0.786-0.059,1.615,0.072,2.336-0.247
		c1.215-0.539,1.595-2.086,2.589-2.968c0.546-0.484,1.25-0.742,1.88-1.11c0.118-0.069,0.226-0.099,0.344-0.168
		c0.196-0.115,0.393-0.231,0.573-0.37C281.136,149.537,281.35,149.088,281.585,148.732z"/>
</g>
<g id="&#xB808;&#xC774;&#xC5B4;_25">
	<path style="fill:none;stroke:#000000;stroke-miterlimit:10;" d="M306.539,165.826c7.68,4.674,16.435,7.567,25.388,8.389
		c2.992,0.275,6.066,0.313,8.937-0.573c0.568-0.175,1.14-0.395,1.578-0.796c0.795-0.728,0.992-1.89,1.075-2.965
		c0.539-6.939-1.867-14.059-6.506-19.247"/>
</g>
<g id="&#xB808;&#xC774;&#xC5B4;_24">
	<path style="fill:none;stroke:#000000;stroke-miterlimit:10;" d="M275.453,154.356c2.381-0.221,4.885-0.424,7.069,0.549
		c1.39,0.619,2.537,1.669,3.632,2.726"/>
</g>
<g id="&#xB808;&#xC774;&#xC5B4;_26">
	<path style="fill:none;stroke:#000000;stroke-miterlimit:10;" d="M308.76,154.374c2.842,0.19,5.707,0.028,8.509-0.482"/>
</g>
<g id="&#xB808;&#xC774;&#xC5B4;_27">
	<path style="fill:none;stroke:#000000;stroke-miterlimit:10;" d="M178.401,61.688c1.474,0.004,2.876,0.718,3.986,1.688
		c1.11,0.97,1.971,2.188,2.82,3.392c0.932,1.322,1.866,2.647,2.692,4.038c0.821,1.383,1.535,2.832,2.436,4.165
		c1.089,1.614,2.435,3.035,3.774,4.449c0.549,0.579,1.102,1.163,1.757,1.62c0.86,0.601,1.86,0.96,2.805,1.416
		c1.558,0.751,2.97,1.767,4.373,2.777c4.91,3.536,9.82,7.072,14.73,10.608c4.752,3.422,10.658,5.218,14.006,10.022
		c1.122,1.61,1.963,3.414,3.218,4.922c0.674,0.81,1.458,1.522,2.273,2.19c1.376,1.128,2.849,2.138,4.397,3.015"/>
</g>
<g id="&#xB808;&#xC774;&#xC5B4;_28">
	<path style="fill:none;stroke:#000000;stroke-miterlimit:10;" d="M183.388,87.041c1.933,0.709,3.705,1.851,5.15,3.317"/>
</g>
<g id="&#xB808;&#xC774;&#xC5B4;_29">
	<path style="fill:none;stroke:#000000;stroke-miterlimit:10;" d="M198.935,96.366c3.916,2.245,8.224,3.806,12.669,4.592
		c1.696,0.3,3.475,0.511,4.916,1.454c1.589,1.04,2.526,2.818,3.229,4.581c0.703,1.764,1.256,3.621,2.357,5.168
		c0.432,0.607,0.955,1.166,1.608,1.523c1.116,0.611,2.457,0.564,3.727,0.633c4.193,0.228,8.291,1.932,11.409,4.746"/>
</g>
</svg>
