<?xml version="1.0" encoding="iso-8859-1"?>
<!-- Generator: Adobe Illustrator 24.0.1, SVG Export Plug-In . SVG Version: 6.00 Build 0)  -->
<svg version="1.1" xmlns="http://www.w3.org/2000/svg" xmlns:xlink="http://www.w3.org/1999/xlink" x="0px" y="0px"
	 viewBox="0 0 464 261" style="enable-background:new 0 0 464 261;" xml:space="preserve">
<g id="&#xB808;&#xC774;&#xC5B4;_1" style="display:none;">
	<image style="display:inline;overflow:visible;" width="464" height="261" xlink:href="../19.png" >
	</image>
</g>
<g id="&#xB808;&#xC774;&#xC5B4;_2">
	<path style="fill:none;stroke:#000000;stroke-miterlimit:10;" d="M164.431,58.015c-3.566-1.268-6.206-4.804-6.408-8.584
		c-0.117-2.196,0.501-4.501-0.316-6.543c-0.401-1.002-1.115-1.841-1.66-2.772c-1.302-2.226-1.592-4.947-1.171-7.491
		c0.42-2.544,1.507-4.936,2.807-7.163c0.345-0.592,0.721-1.19,1.28-1.587c0.69-0.49,1.567-0.61,2.406-0.717
		c4.924-0.623,10.24-1.176,14.568,1.253c2.338,1.312,4.199,3.455,5.171,5.953c0.383,0.984,0.632,2.035,0.587,3.09
		c-0.053,1.238-0.49,2.571,0.11,3.656c0.35,0.632,0.989,1.04,1.506,1.544c0.517,0.504,0.942,1.251,0.686,1.927
		c-0.235,0.622-0.952,0.933-1.277,1.513c-0.261,0.466-0.233,1.035-0.185,1.567c0.117,1.307,0.307,2.622,0.163,3.927
		c-0.144,1.305-0.672,2.632-1.723,3.419c-1.43,1.07-3.403,0.898-5.174,0.675c0.078,0.01-0.729,3.478-0.976,3.831
		c-0.576,0.821-1.917,1.547-2.802,1.985C169.694,58.65,166.891,58.89,164.431,58.015z"/>
</g>
<g id="&#xB808;&#xC774;&#xC5B4;_3">
	<path style="fill:none;stroke:#000000;stroke-miterlimit:10;" d="M177.71,51.804c-0.802-0.033-1.6-0.141-2.395-0.248
		c-0.662-0.09-1.327-0.18-1.97-0.363c-0.672-0.192-1.315-0.485-1.901-0.866"/>
</g>
<g id="&#xB808;&#xC774;&#xC5B4;_4">
	<path style="fill:none;stroke:#000000;stroke-miterlimit:10;" d="M146.734,71.192c-0.198-1.552,0.6-3.122,1.804-4.121
		s2.761-1.489,4.314-1.682c0.958-0.119,1.956-0.129,2.858,0.215c0.703,0.268,1.308,0.736,1.903,1.198
		c1.009,0.784,2.035,1.585,2.763,2.636c0.578,0.834,0.946,1.795,1.238,2.767c0.746,2.484,1.024,5.08,1.299,7.659
		c0.136,1.271,0.271,2.55,0.183,3.826c-0.155,2.252-0.997,4.392-1.83,6.489c-0.886,2.234-0.74,4.796-0.936,7.191
		c-0.046,0.565-0.041,1.238,0.421,1.567c0.247,0.175,0.566,0.202,0.868,0.217c1.848,0.091,3.708-0.053,5.518-0.436
		c1.392-0.295,2.753-0.73,4.156-0.968c1.352-0.229,2.727-0.271,4.09-0.426c5.81-0.659,11.356-3.434,15.367-7.689
		c1.696-1.8,3.216-3.92,5.484-4.908c0.541-0.235,1.17-0.397,1.711-0.162c0.345,0.15,0.606,0.441,0.85,0.728
		c1.724,2.024,3.289,4.604,2.69,7.194c-0.403,1.742-1.71,3.11-2.964,4.385c-0.255,0.259-0.518,0.524-0.847,0.678
		c-0.29,0.135-0.614,0.176-0.932,0.197c-1.153,0.076-2.315-0.088-3.465,0.028c-2.456,0.248-4.589,1.728-6.599,3.16
		c-3.343,2.382-6.705,5.065-10.435,6.778c-2.494,1.146-5.131,1.946-7.779,2.668c-2.461,0.671-4.963,1.279-7.512,1.363
		c-1.654,0.054-3.307-0.113-4.951-0.306c-2.711-0.317-5.414-0.703-8.105-1.156c-0.594-0.1-1.214-0.215-1.686-0.588
		c-0.56-0.443-0.809-1.165-0.99-1.856c-0.632-2.414-0.795-4.993-1.967-7.196c-0.272-0.511-0.597-0.998-0.797-1.542
		c-0.276-0.751-0.3-1.575-0.193-2.368c0.45-3.318,3.089-6.119,3.16-9.467c0.069-3.3,0.166-6.884,0.196-10.185
		C145.633,75.222,146.968,73.036,146.734,71.192z"/>
</g>
<g id="&#xB808;&#xC774;&#xC5B4;_5">
	<path style="fill:none;stroke:#000000;stroke-miterlimit:10;" d="M157.817,49.932c-3.27,3.856-7.078,7.233-10.292,11.136
		c-3.214,3.903-5.876,8.511-6.259,13.552c-0.406,5.335,0.033,10.781,0.197,16.129c0.068,2.227,0.138,4.469,0.62,6.645"/>
</g>
<g id="&#xB808;&#xC774;&#xC5B4;_6">
	<path style="fill:none;stroke:#000000;stroke-miterlimit:10;" d="M145.195,106.678c-0.664,1.345-1.339,2.686-2.013,4.026
		c-1.639,3.256-3.284,6.521-5.294,9.562c-0.667,1.009-1.381,2.005-1.813,3.135c-0.477,1.248-0.588,2.606-0.577,3.941
		c0.03,3.68,0.701,7.185,1.739,10.716c0.848,2.885,1.698,5.776,2.862,8.549c0.739,1.76,1.601,3.465,2.463,5.169
		c2.341,4.629,4.682,9.258,7.023,13.887c0.193,0.382,0.398,0.779,0.74,1.037c0.49,0.37,1.153,0.382,1.766,0.378
		c3.277-0.019,6.555-0.038,9.832-0.057c0.503-0.003,1.048-0.02,1.439-0.336c0.417-0.337,0.538-0.912,0.627-1.441
		c0.677-3.991,1.143-8.018,1.396-12.058c0.076-1.217,0.494-2.811,1.713-2.831c0.404-0.007,0.783,0.187,1.12,0.408
		c1.51,0.994,2.492,2.601,3.804,3.845s3.321,2.13,4.904,1.258c0.701-0.386,1.193-1.053,1.764-1.615
		c1.661-1.634,4.01-2.375,6.318-2.695c2.308-0.32,4.655-0.273,6.961-0.609c1.091-0.159,2.336-0.539,2.726-1.57
		c-0.68-1.301-1.72-2.415-2.594-3.595c-1.525-2.059-2.679-4.369-4.147-6.47c-3.686-5.273-9.197-9.019-13.127-14.112
		c-0.39-0.506-0.769-1.032-0.996-1.63c-0.353-0.931-0.312-1.96-0.227-2.951c0.187-2.174-0.263-4.455,0.223-6.582
		c0.486-2.127,1.274-4.171,2.061-6.206"/>
</g>
<g id="&#xB808;&#xC774;&#xC5B4;_7">
	<path style="fill:none;stroke:#000000;stroke-miterlimit:10;" d="M187.109,92.833c-1.661-1.906-1.769-4.66-1.946-7.182
		c-0.314-4.481-1.106-8.913-1.897-13.334c-0.275-1.538-0.55-3.076-0.825-4.615c-0.614-3.434-3.41-6.086-4.641-9.351
		c-0.56-1.484-1.067-3.081-2.256-4.13"/>
</g>
<g id="&#xB808;&#xC774;&#xC5B4;_8">
	<path style="fill:none;stroke:#000000;stroke-miterlimit:10;" d="M134.115,148.314c-0.615,0.464-1.255,0.904-1.963,1.207
		c-0.761,0.327-1.585,0.49-2.341,0.829c-0.906,0.406-1.681,1.05-2.518,1.584c-1.626,1.038-3.52,1.684-4.929,3.001
		c-0.802,0.75-1.454,1.719-2.462,2.154c-0.499,0.216-1.052,0.282-1.595,0.28c-0.469-0.002-0.938-0.052-1.396-0.151
		c-0.519-0.111-1.062-0.311-1.357-0.753c-0.418-0.626-0.18-1.47,0.141-2.151c0.55-1.169,1.308-2.24,2.227-3.148
		c0.935-0.923,2.027-1.672,3.005-2.55c1.036-0.93,1.939-2,2.972-2.934s2.235-1.745,3.603-2.009c0.657-0.127,1.332-0.123,2.001-0.114
		c1.138,0.014,2.277,0.04,3.411,0.145c0.915,0.084,2.294,0.083,3.082,0.611C137.503,145.326,134.9,147.722,134.115,148.314z"/>
</g>
<g id="&#xB808;&#xC774;&#xC5B4;_9">
	<path style="fill:none;stroke:#000000;stroke-miterlimit:10;" d="M124.783,153.33c1.752,1.368,3.85,2.288,6.043,2.649
		c1.591,0.262,3.215,0.234,4.819,0.406c0.789,0.084,1.572,0.217,2.363,0.281c2.416,0.195,4.93-0.244,7.216,0.559"/>
</g>
<g id="&#xB808;&#xC774;&#xC5B4;_10">
	<path style="fill:none;stroke:#000000;stroke-miterlimit:10;" d="M136.495,144.612c0.93-0.015,1.86-0.062,2.787-0.141"/>
</g>
<g id="&#xB808;&#xC774;&#xC5B4;_11">
	<path style="fill:none;stroke:#000000;stroke-miterlimit:10;" d="M129.472,229.204c-0.297,1.026-0.595,2.052-0.892,3.078
		c-0.261,0.901-0.521,1.878-0.196,2.759c0.338,0.916,1.249,1.512,2.185,1.789c0.936,0.278,1.926,0.301,2.892,0.444
		c1.613,0.24,3.174,0.825,4.547,1.706c1.429,0.916,2.64,2.136,4.039,3.097c1.469,1.009,3.119,1.717,4.761,2.411
		c0.684,0.289,1.375,0.578,2.104,0.716c0.806,0.152,1.638,0.115,2.448-0.01c1.493-0.231,2.94-0.762,4.227-1.553
		c0.633-0.389,1.242-0.854,1.642-1.48c0.4-0.626,0.565-1.44,0.28-2.126c-0.47-1.132-1.869-1.488-3.076-1.699
		c-1.473-0.257-2.947-0.514-4.42-0.771c-2.103-0.367-4.306-0.777-5.967-2.12c-1.671-1.351-2.565-3.473-4.208-4.857
		c-0.643-0.542-1.383-0.956-2.14-1.323c-1.627-0.789-3.352-1.377-5.122-1.746c-0.548-0.114-1.437-0.469-1.979-0.238
		C129.947,227.557,129.647,228.599,129.472,229.204z"/>
</g>
<g id="&#xB808;&#xC774;&#xC5B4;_12">
	<path style="fill:none;stroke:#000000;stroke-miterlimit:10;" d="M130.516,226.925c-0.379-1.938,1.197-3.644,1.949-5.47
		c0.775-1.883,0.67-4.001,1.103-5.99c0.456-2.096,1.498-4.011,2.528-5.893c1.151-2.103,2.302-4.206,3.453-6.309
		c0.82-1.498,1.588-3.285,2.393-4.791c1.69-3.164,3.397-6.368,4.261-9.849c0.243-0.981,0.422-1.99,0.863-2.899
		c0.703-1.45,2.064-2.648,2.189-4.254c0.149-1.912,0.171-3.714,0.109-5.631c-0.042-1.291-0.297-2.568-0.34-3.858
		c-0.064-1.888,0.324-3.759,0.71-5.609"/>
</g>
<g id="&#xB808;&#xC774;&#xC5B4;_13">
	<path style="fill:none;stroke:#000000;stroke-miterlimit:10;" d="M138.32,229.763c-0.204-2.05,0.494-4.099,1.51-5.891
		c1.016-1.792,2.345-3.382,3.548-5.054c1.554-2.159,2.904-4.464,4.026-6.876c2.09-4.489,3.869-9.2,6.826-13.172
		c0.806-1.083,1.758-2.057,2.487-3.194c1.632-2.546,2.023-5.699,3.415-8.384c0.751-1.449,1.784-2.742,2.476-4.221
		c0.804-1.718,1.116-3.619,1.392-5.496c0.532-3.626,0.92-7.511-0.704-10.796"/>
</g>
<g id="&#xB808;&#xC774;&#xC5B4;_14">
	<path style="fill:none;stroke:#000000;stroke-miterlimit:10;" d="M163.476,166.134c3.848-0.575,7.698,0.916,11.154,2.706
		c3.455,1.789,6.803,3.931,10.59,4.823c3.206,0.755,6.552,0.569,9.836,0.311c1.584-0.125,3.193-0.271,4.674-0.847
		c0.459-0.179,0.912-0.405,1.25-0.762c0.445-0.469,0.648-1.115,0.781-1.748c0.403-1.912,0.287-3.932-0.332-5.785
		c-0.66-1.974-1.858-3.716-3.041-5.428c-1.996-2.888-3.992-5.776-5.988-8.663"/>
</g>
<g id="&#xB808;&#xC774;&#xC5B4;_15">
	<path style="fill:none;stroke:#000000;stroke-miterlimit:10;" d="M310.708,54.713c0.043,0.65,0.084,1.32-0.126,1.937
		c-0.21,0.617-0.735,1.174-1.386,1.214c-0.404,0.025-0.791-0.147-1.16-0.315c-3.903-1.787-7.772-3.647-11.604-5.58
		c-0.434-0.219-0.893-0.463-1.123-0.892c-0.269-0.5-0.152-1.114,0.008-1.659c0.507-1.724,1.391-3.431,1.164-5.214
		c-0.344-2.704-3.024-4.399-4.497-6.693c-0.986-1.535-1.433-3.41-1.245-5.225c0.165-1.59-0.631-3.299-0.234-4.847
		c0.274-1.069,0.789-2.064,1.4-2.984c2.195-3.305,5.712-5.696,9.584-6.561c3.872-0.865,8.057-0.204,11.494,1.777
		c1.573,0.907,3.072,2.199,3.529,3.956c0.348,1.339,0.064,2.845,0.731,4.057c0.326,0.592,0.847,1.047,1.358,1.49
		c1.504,1.302,3.007,2.604,4.511,3.906c0.351,0.304,0.733,0.678,0.702,1.141c-0.02,0.299-0.213,0.555-0.414,0.777
		c-0.403,0.447-0.871,0.835-1.383,1.151c-0.405,0.249-0.852,0.466-1.13,0.851c-0.359,0.498-0.356,1.161-0.339,1.774
		c0.064,2.268,0.129,4.537,0.193,6.805c0.009,0.319,0.016,0.649-0.105,0.944c-0.391,0.95-1.722,0.941-2.735,0.769
		c-0.7-0.119-1.399-0.237-2.099-0.356c-0.209-0.035-0.435-0.068-0.623,0.029c-0.205,0.106-0.308,0.338-0.395,0.552
		c-0.416,1.014-0.886,2.078-1.787,2.703c-0.372,0.258-0.803,0.429-1.16,0.708C310.819,51.73,310.623,53.419,310.708,54.713z"/>
</g>
<g id="&#xB808;&#xC774;&#xC5B4;_16">
	<path style="fill:none;stroke:#000000;stroke-miterlimit:10;" d="M316.66,47.035c-1.908-0.155-3.777-0.776-5.399-1.793"/>
</g>
<g id="&#xB808;&#xC774;&#xC5B4;_17">
	<path style="fill:none;stroke:#000000;stroke-miterlimit:10;" d="M286.539,62.331c1.628-1.86,4.515-2.154,6.857-1.364
		c2.342,0.79,4.27,2.453,6.132,4.078c1.117,0.975,2.234,1.949,3.351,2.924c0.524,0.457,1.062,0.933,1.359,1.562
		c0.293,0.62,0.321,1.327,0.344,2.013c0.074,2.164,0.131,4.417-0.758,6.392c-0.906,2.014-2.679,3.481-4.394,4.873
		c-0.764,0.62-1.549,1.253-2.48,1.569c-1.071,0.364-2.234,0.278-3.364,0.248c-2.495-0.067-4.999,0.157-7.442,0.667
		c-3.368,0.703-6.813,2.362-9.405,4.624c-0.585,0.511-1.145,1.061-1.581,1.704c-0.438,0.647-0.742,1.375-1.115,2.062
		c-1.182,2.176-3.036,3.897-4.856,5.577c-4.449,4.103-8.548,8.314-12.928,12.491c-0.373,0.356-0.753,0.721-0.99,1.179
		c-0.298,0.577-0.341,1.247-0.378,1.895c-0.194,3.374-0.388,6.748-0.583,10.122c-0.044,0.769-0.117,1.607-0.647,2.165
		c-0.53,0.558-1.682,0.522-1.891-0.219c-0.079-0.28-0.006-0.578-0.001-0.87c0.021-1.479-1.968-2.394-3.266-1.685
		s-1.748,2.46-1.34,3.882c0.219,0.764,0.645,1.508,0.552,2.297c-0.167,1.415-1.993,2.109-3.343,1.654
		c-1.35-0.455-2.295-1.646-3.161-2.778c-1.592-2.082-3.268-4.435-3.04-7.046c0.189-2.164,1.656-3.978,3.119-5.583
		c1.723-1.892,3.531-3.705,5.417-5.434c0.981-0.899,1.998-1.792,2.7-2.923c0.595-0.959,0.939-2.048,1.369-3.091
		c1.82-4.411,5.195-7.999,7.379-12.241c1.399-2.717,2.293-5.673,3.723-8.374c2.367-4.472,6.213-8.145,10.789-10.305
		c1.362-0.643,2.785-1.155,4.111-1.869C281.32,70.085,283.142,66.213,286.539,62.331z"/>
</g>
<g id="&#xB808;&#xC774;&#xC5B4;_18">
	<path style="fill:none;stroke:#000000;stroke-miterlimit:10;" d="M284.559,64.569c-0.021-2.762,0.816-5.524,2.367-7.809
		c0.694-1.023,1.523-1.946,2.349-2.866c0.723-0.805,1.446-1.61,2.169-2.415c0.845-0.941,1.96-1.974,3.19-1.676"/>
</g>
<g id="&#xB808;&#xC774;&#xC5B4;_19">
	<path style="fill:none;stroke:#000000;stroke-miterlimit:10;" d="M281.195,87.042c1.549,3.134,4.263,5.676,5.279,9.021
		c0.989,3.257,0.205,6.807-1.127,9.94c-1.207,2.84-2.861,5.489-4.881,7.822c-1.263,1.458-2.761,3.022-2.706,4.95
		c0.11,3.854-1.276,7.649-1.8,11.469c-0.301,2.193-0.599,4.415-0.329,6.611c0.28,2.279,1.16,4.438,1.652,6.681
		c1.093,4.98,0.243,10.154,0.312,15.251c0.005,0.381,0.026,0.792,0.265,1.09c0.338,0.42,0.958,0.442,1.497,0.428
		c4.487-0.117,8.973-0.256,13.459-0.417c0.987-0.035,2.007-0.08,2.895-0.514c1.164-0.569,1.921-1.716,2.565-2.84
		c1.771-3.088,3.133-6.411,4.039-9.853c0.138-0.522,0.277-1.071,0.644-1.468c0.681-0.738,1.897-0.67,2.798-0.225
		c0.9,0.444,1.623,1.181,2.484,1.696c2.632,1.574,6.057,0.855,8.934,1.921c1.685,0.624,3.243,1.87,5.036,1.753
		c2.04-0.133,3.487-1.944,4.864-3.456c2.305-2.531,5.119-4.596,8.225-6.037c0.4-0.185,0.834-0.388,1.034-0.78
		c0.401-0.784-0.372-1.636-1.065-2.178c-5.638-4.414-11.276-8.828-16.913-13.241c-2.371-1.857-4.915-3.993-5.403-6.965
		c-0.651-3.972,2.581-7.389,4.185-11.081c1.808-4.161,3.398-8.219,5.079-12.433c0.703-1.762,1.409-3.534,1.82-5.387
		c0.848-3.825,0.397-7.845-0.682-11.611c-0.803-2.805-1.963-5.694-1.352-8.548c0.84-3.925-0.201-8.535-2.015-12.116
		c-0.761-1.502-1.826-2.833-2.997-4.043c-1.029-1.063-2.145-2.042-3.333-2.923"/>
</g>
<g id="&#xB808;&#xC774;&#xC5B4;_20">
	<path style="fill:none;stroke:#000000;stroke-miterlimit:10;" d="M241.928,227.91c-0.009,1.051,0.045,2.247,0.848,2.925
		c0.403,0.341,0.931,0.485,1.407,0.715c0.649,0.314,1.203,0.79,1.746,1.263c2.803,2.437,5.582,4.951,8.804,6.799
		c3.222,1.848,6.981,3,10.656,2.458c0.44-0.065,0.883-0.156,1.277-0.362c1.742-0.912,1.616-3.651,0.275-5.089
		c-1.34-1.439-3.371-1.947-5.258-2.499c-4.197-1.23-8.542-3.278-10.562-7.157c-1.162-2.232-2.207-6.494-5.569-6.272
		C242.296,220.904,241.949,225.544,241.928,227.91z"/>
</g>
<g id="&#xB808;&#xC774;&#xC5B4;_21">
	<path style="fill:none;stroke:#000000;stroke-miterlimit:10;" d="M244.15,220.519c0.545-2.102,1.854-3.911,3.137-5.663
		c2.502-3.419,5.004-6.837,7.506-10.256c4.936-6.744,9.872-13.489,14.618-20.367c1.393-2.018,3.376-3.372,4.906-5.288
		c1.534-1.923,2.276-4.349,2.847-6.742c0.909-3.807,1.472-7.697,1.68-11.606"/>
</g>
<g id="&#xB808;&#xC774;&#xC5B4;_22">
	<path style="fill:none;stroke:#000000;stroke-miterlimit:10;" d="M251.173,225.166c6.008-6.397,11.578-13.206,16.657-20.364
		c2.331-3.285,4.676-6.755,8.159-8.777c6.911-4.013,12.891-10.367,15.595-17.888c0.574-1.598,1.131-3.396,2.6-4.247
		c2.019-1.169,3.006-3.495,3.997-5.606c0.663-1.413,1.023-2.949,1.281-4.489c0.529-3.162,0.645-6.393,0.341-9.584"/>
</g>
<g id="&#xB808;&#xC774;&#xC5B4;_23">
	<path style="fill:none;stroke:#000000;stroke-miterlimit:10;" d="M299.87,158.221c3.946,0.385,7.941,0.264,11.857-0.362
		c2.22-0.354,4.452-0.885,6.392-2.021c1.94-1.136,3.571-2.953,4.054-5.149"/>
</g>
<g id="&#xB808;&#xC774;&#xC5B4;_24">
	<path style="fill:none;stroke:#000000;stroke-miterlimit:10;" d="M298.59,167.177c6.822,0.115,13.562,1.612,20.383,1.776
		c8.263,0.199,16.435-1.559,24.514-3.307c2.548-0.551,5.134-1.117,7.429-2.353c0.504-0.272,1.009-0.592,1.313-1.077
		c0.335-0.536,0.379-1.198,0.413-1.829c0.099-1.804,0.191-3.656-0.361-5.376c-0.764-2.38-2.653-4.2-4.474-5.913
		c-2.157-2.03-4.315-4.06-6.472-6.091c-1.498-1.409-3.143-2.891-5.185-3.136"/>
</g>
<g id="&#xB808;&#xC774;&#xC5B4;_25">
	<path style="fill:none;stroke:#000000;stroke-miterlimit:10;" d="M324.286,82.769c3.824-1.275,6.72-4.965,7.05-8.982
		c0.159-1.933-0.197-4.021,0.765-5.705c0.362,0.817,0.723,1.634,1.085,2.452c0.272,0.614,0.794,1.349,1.43,1.135
		c0.389-0.131,0.574-0.568,0.684-0.963c0.285-1.029,0.379-2.111,0.273-3.174c-0.058-0.585-0.156-1.243,0.21-1.702
		c0.471-0.59,1.471-0.447,2,0.091c0.529,0.539,0.706,1.321,0.848,2.062c0.416,2.174,0.722,4.369,0.916,6.573
		c0.158,1.789,0.237,3.626-0.27,5.348c-0.415,1.409-1.204,2.677-2.057,3.873c-1.798,2.521-3.91,4.8-6.015,7.071
		c-2.933,3.164-6.14,6.49-10.356,7.407"/>
</g>
<g id="&#xB808;&#xC774;&#xC5B4;_26">
	<path style="fill:none;stroke:#000000;stroke-miterlimit:10;" d="M182.026,67.698c2.306,2.665,4.613,5.33,6.919,7.994
		c1.35,1.559,2.707,3.126,4.289,4.449c4.481,3.744,10.511,5.321,14.804,9.279c1.199,1.105,2.236,2.375,3.418,3.498
		c3.064,2.911,6.976,4.732,10.79,6.554c2.897,1.384,5.9,2.894,7.779,5.498c1.14,1.579,1.783,3.455,2.72,5.163
		c1.751,3.19,5.499,4.39,8.157,6.877"/>
</g>
<g id="&#xB808;&#xC774;&#xC5B4;_27">
	<path style="fill:none;stroke:#000000;stroke-miterlimit:10;" d="M198.327,97.136c4.756,0.464,9.301,2.127,13.785,3.777
		c0.965,0.355,1.933,0.711,2.834,1.206c2.105,1.157,3.781,3.075,4.644,5.317c0.346,0.899,0.568,1.852,1.025,2.7
		c0.596,1.105,1.565,1.973,2.638,2.624c1.35,0.818,2.891,1.321,4.464,1.455c1.709,0.146,3.568-0.101,5.016,0.817
		c2.138,1.356,3.977,3.38,5.922,5"/>
</g>
</svg>
