<?xml version="1.0" encoding="iso-8859-1"?>
<!-- Generator: Adobe Illustrator 24.0.1, SVG Export Plug-In . SVG Version: 6.00 Build 0)  -->
<svg version="1.1" xmlns="http://www.w3.org/2000/svg" xmlns:xlink="http://www.w3.org/1999/xlink" x="0px" y="0px"
	 viewBox="0 0 464 261" style="enable-background:new 0 0 464 261;" xml:space="preserve">
<g id="&#xB808;&#xC774;&#xC5B4;_1" style="display:none;">
	<image style="display:inline;overflow:visible;" width="464" height="261" xlink:href="../20.png" >
	</image>
</g>
<g id="&#xB808;&#xC774;&#xC5B4;_2">
	<path style="fill:none;stroke:#000000;stroke-miterlimit:10;" d="M162.164,51.683c-0.828-0.499-1.686-1.027-2.208-1.84
		c-1.542-2.401,0.573-5.783-0.619-8.376c-0.715-1.556-2.421-2.377-3.534-3.678c-2.009-2.346-1.81-5.808-1.416-8.871
		c0.338-2.625,0.802-5.388,2.5-7.418c2.459-2.942,6.707-3.481,10.533-3.731c2.156-0.141,4.373-0.249,6.423,0.431
		c2.05,0.68,3.922,2.331,4.226,4.469c0.185,1.304-0.218,2.648,0.032,3.94c0.517,2.668,3.659,4.477,3.541,7.192
		c-0.074,1.708-1.484,3.342-0.925,4.958c0.369,1.068,1.481,1.684,2.101,2.629c1.047,1.598,0.246,4.075-1.538,4.757
		c-1.211,0.463-2.6,0.163-3.835,0.556c-1.436,0.457-2.414,1.752-3.294,2.975C169.763,55.767,168.512,55.651,162.164,51.683z"/>
</g>
<g id="&#xB808;&#xC774;&#xC5B4;_3">
	<path style="fill:none;stroke:#000000;stroke-miterlimit:10;" d="M150.237,63.121c-1.598,0.851-3.055,2.138-3.654,3.847
		c-0.647,1.843-0.217,3.87,0.218,5.774c1.249,5.467,2.499,10.934,3.748,16.401c1.827,7.995,3.671,16.044,6.948,23.562
		c0.16,0.368,0.333,0.747,0.636,1.011c0.362,0.315,0.86,0.421,1.338,0.465c4.513,0.417,8.094-3.445,11.896-5.911
		c2.784-1.806,5.949-2.937,8.834-4.577c5.412-3.077,9.643-7.823,13.77-12.484c2.922-3.299,5.843-6.599,8.765-9.898
		c2.189-2.472,4.408-4.99,5.804-7.982c1.396-2.992,1.877-6.581,0.505-9.584s-4.924-5.091-8.079-4.118
		c-3.212,0.991-4.903,4.537-5.485,7.847c-0.582,3.31-0.46,6.799-1.779,9.891c-1.961,4.597-6.634,7.329-11.011,9.743
		c-2.908,1.604-5.817,3.208-8.725,4.812c-1.031,0.568-2.244,1.152-3.334,0.706c-1.293-0.528-1.646-2.161-1.819-3.547
		c-0.593-4.742-1.185-9.484-1.778-14.225c-0.52-4.159-0.155-8.058-3.747-10.696C159.608,61.456,154.282,60.966,150.237,63.121z"/>
</g>
<g id="&#xB808;&#xC774;&#xC5B4;_4">
	<path style="fill:none;stroke:#000000;stroke-miterlimit:10;" d="M158.993,49.012c-4.213,3.244-8.476,6.536-11.737,10.735
		s-5.466,9.477-4.922,14.767c0.408,3.965,2.298,7.607,3.384,11.442c2.511,8.862,0.647,18.349-1.905,27.199
		c-2.028,7.034-4.455,13.187-4.52,20.507c-0.086,9.542-0.171,19.084-0.257,28.626c5.42,1.312,11.389,0.151,15.922-3.097
		c4.534-3.248,7.553-8.525,8.055-14.079c4.911,2.211,9.933,4.173,15.042,5.876c1.302,0.434,2.656,0.857,4.021,0.72
		c4.557-0.455,6.492-6.445,10.762-8.099c1.809-0.7,3.827-0.531,5.732-0.892c1.905-0.361,3.94-1.601,4.09-3.535
		c-5.883-2.34-11.166-6.313-15.24-11.16c-1.512-1.799-2.886-3.762-4.773-5.162c-1.469-1.09-3.272-1.869-4.225-3.431
		c-0.985-1.615-0.807-3.655-0.597-5.535c0.267-2.385,0.534-4.769,0.8-7.154c0.162-1.448,0.529-3.172,1.895-3.678"/>
</g>
<g id="&#xB808;&#xC774;&#xC5B4;_5">
	<path style="fill:none;stroke:#000000;stroke-miterlimit:10;" d="M186.058,84.327c0.047-2.343,0.095-4.685,0.142-7.028
		c0.048-2.351,0.094-4.717-0.265-7.041c-0.282-1.829-0.813-3.61-1.341-5.383c-0.915-3.069-1.848-6.181-3.557-8.889
		c-1.709-2.708-4.322-5.008-7.467-5.606"/>
</g>
<g id="&#xB808;&#xC774;&#xC5B4;_6">
	<path style="fill:none;stroke:#000000;stroke-miterlimit:10;" d="M105.338,221.894c-1.475,0.939-2.357,2.573-2.972,4.21
		c-0.413,1.098-0.738,2.274-0.563,3.433c0.237,1.574,1.349,2.865,2.508,3.957c4.854,4.57,11.33,7.247,17.952,8.019
		c0.965,0.112,1.962,0.184,2.89-0.101c0.929-0.285,1.783-1.001,1.967-1.954c0.147-0.762-0.147-1.545-0.559-2.203
		c-1.522-2.436-4.433-3.531-7.067-4.676c-2.634-1.145-5.439-2.802-6.156-5.584c-0.193-0.749-0.226-1.56-0.627-2.222
		C111.287,222.426,107.957,220.225,105.338,221.894z"/>
</g>
<g id="&#xB808;&#xC774;&#xC5B4;_7">
	<path style="fill:none;stroke:#000000;stroke-miterlimit:10;" d="M106.056,221.274c0.659-2.064,1.786-3.976,3.272-5.552
		c1.985-2.104,4.588-3.608,6.305-5.936c1.72-2.331,2.381-5.255,2.988-8.088c0.811-3.788,2.467-6.935,5.042-9.83
		c3.291-3.7,7.82-6.337,10.311-10.616c0.617-1.059,1.346-2.247,2.09-3.221c0.769-1.006,1.553-2.041,1.921-3.253
		c0.198-0.652,0.269-1.335,0.34-2.014c0.352-3.401,0.703-6.802,1.055-10.203"/>
</g>
<g id="&#xB808;&#xC774;&#xC5B4;_8">
	<path style="fill:none;stroke:#000000;stroke-miterlimit:10;" d="M113.155,226.412c4.342-3.585,6.026-9.675,10.433-13.179
		c1.639-1.303,3.634-2.229,4.878-3.914c1.908-2.585,1.587-6.327,3.5-8.909c3.165-4.273,5.854-8.466,10.746-10.551
		c1.206-0.514,2.468-0.926,3.572-1.634c2.356-1.513,3.35-3.931,4.372-6.403c1.087-2.628,2.786-4.649,4.174-7.099
		c0.753-1.328,1.191-2.807,1.622-4.272c0.834-2.829,1.668-5.658,2.502-8.487c0.842-2.855,1.691-5.775,1.557-8.748"/>
</g>
<g id="&#xB808;&#xC774;&#xC5B4;_9">
	<path style="fill:none;stroke:#000000;stroke-miterlimit:10;" d="M160.121,157.495c2.662-0.22,5.339,0.084,8.01,0.045
		c2.671-0.038,5.441-0.458,7.655-1.954c0.786-0.531,1.501-1.196,2.388-1.533c0.793-0.3,1.666-0.315,2.476-0.564
		s1.62-0.859,1.671-1.705"/>
</g>
<g id="&#xB808;&#xC774;&#xC5B4;_10">
	<path style="fill:none;stroke:#000000;stroke-miterlimit:10;" d="M157.158,168.726c6.629-1.982,13.642-2.171,20.558-2.346
		c7.777-0.196,15.553-0.392,23.33-0.589c3.195-0.081,6.472-0.178,9.43-1.388c2.958-1.21,5.574-3.793,5.871-6.975
		c0.217-2.316-0.814-4.604-2.281-6.408c-1.467-1.804-3.352-3.212-5.171-4.662c-2.299-1.833-4.522-3.762-6.66-5.78"/>
</g>
<g id="&#xB808;&#xC774;&#xC5B4;_11">
	<path style="fill:none;stroke:#000000;stroke-miterlimit:10;" d="M179.107,46.412c-1.48,0.331-3.064,0.175-4.45-0.439"/>
</g>
<g id="&#xB808;&#xC774;&#xC5B4;_12">
	<path style="fill:none;stroke:#000000;stroke-miterlimit:10;" d="M308.817,53.892c-3.152-1.9-6.803-2.965-10.482-3.055
		c1.065-1.522,2.128-3.083,2.688-4.854c0.56-1.771,0.554-3.809-0.441-5.377c-1.122-1.768-3.284-2.66-4.434-4.411
		c-1.054-1.605-1.086-3.651-1.082-5.571c0.005-2.286,0.022-4.638,0.884-6.755c1.355-3.327,4.679-5.573,8.184-6.357
		c3.506-0.784,7.179-0.287,10.658,0.609c0.775,0.2,1.582,0.44,2.146,1.008c0.679,0.684,0.87,1.7,1.009,2.653
		c0.396,2.724,0.766,5.755,2.864,7.537c0.963,0.818,2.192,1.268,3.169,2.068c0.977,0.8,1.679,2.212,1.072,3.32
		c-0.24,0.437-0.651,0.762-0.889,1.2c-0.291,0.535-0.291,1.175-0.284,1.784c0.039,3.448,0.077,6.895,0.116,10.343
		c-2.613,0.242-4.925-0.411-7.335-1.294C316.073,50.945,314.123,57.091,308.817,53.892z"/>
</g>
<g id="&#xB808;&#xC774;&#xC5B4;_13">
	<path style="fill:none;stroke:#000000;stroke-miterlimit:10;" d="M317.865,47.099c-0.907-0.212-1.768-0.615-2.512-1.175"/>
</g>
<g id="&#xB808;&#xC774;&#xC5B4;_14">
	<path style="fill:none;stroke:#000000;stroke-miterlimit:10;" d="M283.703,66.906c1.491-1.12,2.982-2.241,4.472-3.361
		c1.346-1.012,2.742-2.047,4.376-2.453c2.148-0.533,4.395,0.092,6.52,0.712c0.704,0.206,1.422,0.418,2.022,0.84
		c0.837,0.589,1.354,1.52,1.843,2.418c2.062,3.788,4.187,8.122,2.884,12.233c-0.409,1.29-1.136,2.454-1.905,3.567
		c-0.832,1.203-1.763,2.402-3.052,3.093c-1.258,0.675-2.729,0.799-4.153,0.909c-3.858,0.299-7.717,0.599-11.575,0.898
		c-2.374,0.184-4.245,2.208-6.47,3.058c-1.157,0.442-2.414,0.972-2.97,2.079c-0.249,0.496-0.327,1.058-0.5,1.586
		c-0.474,1.444-1.627,2.544-2.738,3.581c-2.83,2.641-5.66,5.282-8.491,7.923c-2.982,2.783-5.614,6.112-7.596,9.677
		c-1.982,3.565-3.158,7.718-2.501,11.744c0.103,0.633,0.251,1.274,0.163,1.909c-0.088,0.635-0.48,1.281-1.1,1.442
		c-1.06,0.276-1.921-0.958-2.039-2.047s0.118-2.263-0.388-3.235c-1.013-0.253-2.103,0.394-2.586,1.319
		c-0.482,0.926-0.445,2.049-0.151,3.05c0.295,1.004,0.798,2.196,0.12,2.994c-0.598,0.703-1.726,0.559-2.571,0.187
		c-1.791-0.788-3.171-2.266-4.498-3.705c-0.94-1.02-1.905-2.08-2.352-3.393c-0.743-2.184,0.123-4.638,1.545-6.454
		c1.422-1.816,3.344-3.16,5.103-4.652c2.847-2.414,5.317-5.273,7.292-8.44c1.841-2.951,3.963-5.809,6.049-8.592
		c2.105-2.811,4.286-5.802,4.683-9.292c0.099-0.872,0.085-1.767,0.353-2.602c0.604-1.879,2.462-3.023,4.211-3.937
		C273.764,76.796,278.236,71.015,283.703,66.906z"/>
</g>
<g id="&#xB808;&#xC774;&#xC5B4;_15">
	<path style="fill:none;stroke:#000000;stroke-miterlimit:10;" d="M286.409,64.502c-0.158-1.365,0.112-2.767,0.701-4.008
		c0.923-1.943,2.562-3.434,4.161-4.873c2.087-1.878,4.213-3.783,6.749-4.987"/>
	<path style="fill:none;stroke:#000000;stroke-miterlimit:10;" d="M283.966,86.676c4.296,1.937,7.417,6.265,7.897,10.954
		c0.256,2.504-0.193,5.04-0.976,7.433c-0.779,2.38-1.889,4.651-3.289,6.727c-2.131,3.161-4.978,5.97-6.07,9.623
		c-0.954,3.195-0.435,6.613-0.123,9.933c0.859,9.131,0.069,18.415-2.321,27.269c-0.203,0.751-0.403,1.605,0.015,2.261
		c0.51,0.8,1.634,0.861,2.583,0.833c6.099-0.176,12.198-0.353,18.298-0.529c0.477-0.014,0.969-0.031,1.406-0.223
		c1.015-0.447,1.414-1.659,1.635-2.745c0.733-3.595,0.807-7.474,2.776-10.57c0.272-0.427,0.594-0.848,1.049-1.07
		c1.019-0.497,2.197,0.175,3.128,0.823c3.596,2.502,7.696,5.144,12.011,4.392c5.804-1.012,9.013-7.598,14.503-9.736
		c1.115-0.434,2.551-0.976,2.567-2.172c0.01-0.804-0.679-1.42-1.309-1.919c-4.695-3.718-9.39-7.436-14.085-11.154
		c-2.537-2.009-5.293-4.422-5.457-7.655c-0.162-3.195,2.286-5.882,3.201-8.947c0.845-2.829,0.351-5.873,0.678-8.807
		c0.403-3.62,2.037-6.966,3.232-10.406c3.027-8.717,3.226-18.391,0.559-27.224c-1.645-5.451-4.542-10.783-9.298-13.914"/>
</g>
<g id="&#xB808;&#xC774;&#xC5B4;_16">
	<path style="fill:none;stroke:#000000;stroke-miterlimit:10;" d="M322.443,103.583c3.993-1.805,7.342-4.999,9.333-8.903
		c0.732-1.436,1.292-2.971,2.218-4.29c2.676-3.81,8.005-5.287,10.162-9.413c1.351-2.584,1.155-5.696,0.585-8.556
		c-0.344-1.726-0.853-3.502-2.057-4.785s-3.285-1.898-4.772-0.957c0.029,1.793,0.287,3.582,0.767,5.31
		c-1.183-0.763-2.479-1.351-3.833-1.739c-0.372,1.327,0.384,2.677,0.642,4.03c0.444,2.327-0.642,4.734-2.271,6.453
		c-1.629,1.719-3.749,2.876-5.832,4.004"/>
</g>
<g id="&#xB808;&#xC774;&#xC5B4;_17">
	<path style="fill:none;stroke:#000000;stroke-miterlimit:10;" d="M242.987,226.725c-0.568,0.503-1.193,0.975-1.557,1.64
		s-0.375,1.602,0.208,2.087c0.763,0.635,1.889,0.136,2.874,0.01c1.511-0.193,2.99,0.6,4.116,1.625
		c1.127,1.025,2.012,2.289,3.11,3.344c2.53,2.433,5.989,3.594,9.327,4.683c1.638,0.534,3.275,1.069,4.913,1.603
		c0.332,0.108,0.697,0.217,1.023,0.092c0.837-0.318,0.526-1.583,0.005-2.31c-1.028-1.434-2.306-2.668-3.577-3.892
		c-3.658-3.525-7.316-7.049-10.974-10.574c-0.779-0.75-1.58-1.516-2.571-1.951C246.222,221.477,245.225,224.744,242.987,226.725z"/>
</g>
<g id="&#xB808;&#xC774;&#xC5B4;_18">
	<path style="fill:none;stroke:#000000;stroke-miterlimit:10;" d="M246.02,223.344c-0.353-1.526,0.62-3.079,1.859-4.037
		c1.239-0.958,2.74-1.51,4.066-2.344c4.919-3.096,6.578-9.336,8.196-14.919c1.2-4.141,2.962-8.659,6.878-10.462
		c5.461-2.514,9.503-9.267,11.204-15.033c0.645-2.186,0.832-4.476,1.016-6.747c0.214-2.642,0.428-5.285,0.642-7.927"/>
</g>
<g id="&#xB808;&#xC774;&#xC5B4;_19">
	<path style="fill:none;stroke:#000000;stroke-miterlimit:10;" d="M252.883,224.95c3.123-2.969,6.247-5.938,9.37-8.907
		c3.072-2.921,6.16-5.858,8.715-9.24c1.544-2.044,2.883-4.236,4.418-6.287c1.8-2.405,3.86-4.603,5.961-6.749
		c1.677-1.713,3.417-3.421,5.529-4.555c1.163-0.625,2.427-1.068,3.522-1.806c1.432-0.966,2.492-2.379,3.524-3.765
		c1.121-1.507,2.271-3.073,2.682-4.905c1.268-5.654,3.678-11.679,4.645-17.392"/>
</g>
<g id="&#xB808;&#xC774;&#xC5B4;_20">
	<path style="fill:none;stroke:#000000;stroke-miterlimit:10;" d="M298.265,173.049c2.038-2.264,5.35-3.51,6.401-6.369
		c0.296-0.804,0.377-1.669,0.456-2.522c0.145-1.564,0.289-3.128,0.434-4.691c-0.842-0.005-1.683-0.009-2.525-0.014"/>
</g>
<g id="&#xB808;&#xC774;&#xC5B4;_21">
	<path style="fill:none;stroke:#000000;stroke-miterlimit:10;" d="M305.458,159.263c3.251-1.849,7.501-0.793,10.878-2.4
		c2.531-1.205,4.453-4.649,7.164-5.362"/>
</g>
<g id="&#xB808;&#xC774;&#xC5B4;_22">
	<path style="fill:none;stroke:#000000;stroke-miterlimit:10;" d="M303.966,168.047c14.873-1.234,29.746-2.468,44.618-3.702
		c1.765-0.146,3.613-0.32,5.093-1.293c3.133-2.059,3.186-6.869,1.293-10.105c-1.893-3.236-5.137-5.392-7.988-7.827
		c-2.276-1.944-4.539-4.218-7.486-4.743"/>
</g>
<g id="&#xB808;&#xC774;&#xC5B4;_23">
	<path style="fill:none;stroke:#000000;stroke-miterlimit:10;" d="M182.677,59.945c1.182,0.61,2.217,1.502,2.996,2.581
		c0.514,0.713,0.916,1.504,1.446,2.205c0.716,0.947,1.647,1.71,2.412,2.617c1.785,2.115,2.631,4.964,4.688,6.814"/>
</g>
<g id="&#xB808;&#xC774;&#xC5B4;_24">
	<path style="fill:none;stroke:#000000;stroke-miterlimit:10;" d="M202.467,81.675c4.676,1.566,9.02,4.211,12.373,7.826
		c1.016,1.095,1.943,2.279,3.063,3.268c1.196,1.057,2.586,1.868,3.978,2.648c4.644,2.602,9.437,4.938,14.347,6.995
		c0.413,0.173,0.869,0.386,1.023,0.807c0.115,0.315,0.027,0.662-0.002,0.996c-0.148,1.69,1.213,3.093,2.467,4.236
		c1.612,1.47,3.223,2.94,4.835,4.41"/>
</g>
<g id="&#xB808;&#xC774;&#xC5B4;_25">
	<path style="fill:none;stroke:#000000;stroke-miterlimit:10;" d="M192.912,92.146c7.489,2.327,14.189,6.94,21.852,8.609
		c1.795,0.391,3.641,0.62,5.348,1.299c1.707,0.679,3.31,1.905,3.905,3.642c0.678,1.977,0.107,4.572,1.75,5.862
		c0.698,0.548,1.624,0.68,2.497,0.841c4.1,0.756,7.999,2.574,11.214,5.227"/>
</g>
</svg>
