<?xml version="1.0" encoding="iso-8859-1"?>
<!-- Generator: Adobe Illustrator 24.0.1, SVG Export Plug-In . SVG Version: 6.00 Build 0)  -->
<svg version="1.1" xmlns="http://www.w3.org/2000/svg" xmlns:xlink="http://www.w3.org/1999/xlink" x="0px" y="0px"
	 viewBox="0 0 464 261" style="enable-background:new 0 0 464 261;" xml:space="preserve">
<g id="&#xB808;&#xC774;&#xC5B4;_1" style="display:none;">
	<image style="display:inline;overflow:visible;" width="464" height="261" xlink:href="../21.png" >
	</image>
</g>
<g id="&#xB808;&#xC774;&#xC5B4;_2">
	<path style="fill:none;stroke:#000000;stroke-miterlimit:10;" d="M173.661,52.473c0.781,1.056-0.149,2.671-1.404,3.058
		c-1.255,0.387-2.599-0.05-3.839-0.484c-2.761-0.967-5.731-2.095-7.283-4.575c-1.981-3.166-0.995-7.522-2.916-10.725
		c-0.722-1.204-1.805-2.15-2.598-3.309c-1.681-2.456-1.873-5.851-0.48-8.48c1.674-3.159,2.261-7.032,5.365-8.808
		s6.806-2.23,10.378-2.072c0.971,0.043,1.963,0.134,2.846,0.541c0.912,0.421,1.641,1.148,2.35,1.86
		c1.818,1.828,3.71,3.783,4.34,6.283c0.438,1.736,0.345,3.84,1.755,4.942c0.729,0.57,1.707,0.715,2.494,1.203
		c0.787,0.488,1.325,1.666,0.664,2.314c-0.5,0.49-1.433,0.4-1.815,0.987c-0.143,0.219-0.174,0.492-0.188,0.753
		c-0.065,1.261,0.197,2.537,0.754,3.67c0.44,0.897,1.071,1.733,1.215,2.722c0.259,1.778-1.268,3.471-3.025,3.851
		c-0.891,0.192-1.819,0.119-2.721,0.254c-0.902,0.135-1.848,0.551-2.233,1.377c-0.201,0.432-0.227,0.93-0.433,1.36
		C176.235,50.556,173.915,50.988,173.661,52.473z"/>
</g>
<g id="&#xB808;&#xC774;&#xC5B4;_3">
	<path style="fill:none;stroke:#000000;stroke-miterlimit:10;" d="M180.774,46.294c-0.914-0.073-1.841,0.024-2.721,0.284
		c-0.091,0.027-0.184,0.056-0.279,0.047c-0.133-0.013-0.247-0.099-0.348-0.186c-0.324-0.277-0.611-0.595-0.853-0.945"/>
</g>
<g id="&#xB808;&#xC774;&#xC5B4;_4">
	<path style="fill:none;stroke:#000000;stroke-miterlimit:10;" d="M166.954,70.697c0.303-1.201-0.015-2.492-0.614-3.576
		c-0.599-1.084-1.462-1.996-2.324-2.885c-0.707-0.729-1.429-1.458-2.289-1.997c-0.83-0.52-1.765-0.847-2.701-1.135
		c-1.677-0.517-3.538-0.916-5.143-0.207c-1.357,0.6-2.268,1.879-3.111,3.1c-0.475,0.689-0.953,1.381-1.326,2.13
		c-1.626,3.267-1.087,7.148-0.479,10.746c0.215,1.27,0.439,2.558,0.995,3.72c0.476,0.995,1.178,1.863,1.729,2.819
		c2.191,3.801,1.789,8.553,3.245,12.691c0.387,1.1,0.906,2.16,1.135,3.303c0.275,1.373,0.15,2.904,0.965,4.041
		c1.052,1.468,0.433,3.762,0.627,5.557c0.094,0.871,0.193,1.76,0.567,2.552c0.929,1.969,3.41,2.84,5.555,2.466
		s3.986-1.737,5.555-3.247c1.569-1.51,2.964-3.212,4.697-4.531c0.943-0.717,1.973-1.311,2.998-1.905
		c7.3-4.234,14.651-8.763,20.003-15.288c2.703-3.295,4.905-7.326,8.255-9.961c1.231-0.969,2.587-1.821,3.556-3.053
		c1.342-1.707,1.783-3.933,2.158-6.071c0.272-1.555,0.531-3.156,0.204-4.7c-0.326-1.544-1.37-3.039-2.898-3.435
		c-1.73-0.448-3.834,0.512-5.22-0.617c-0.236-0.192-0.43-0.435-0.684-0.604c-0.805-0.534-1.879-0.159-2.756,0.247
		c-0.765,0.354-1.549,0.744-2.076,1.401c-0.582,0.724-0.776,1.679-0.911,2.598c-0.344,2.329-0.428,4.697-0.25,7.044
		c0.112,1.475,0.326,2.956,0.164,4.426c-0.161,1.47-0.76,2.969-1.956,3.838c-3.554,2.58-6.922,5.877-10.994,7.522
		c-2.219,0.896-4.602,1.401-6.71,2.534c-1.51,0.812-2.899,1.951-4.581,2.278c-0.155,0.03-0.327,0.05-0.46-0.034
		c-0.133-0.084-0.189-0.246-0.231-0.397c-0.525-1.898-0.174-3.91-0.056-5.876s-0.075-4.126-1.42-5.564
		c-0.731-0.781-1.796-1.355-2.078-2.387c-0.136-0.498-0.06-1.026-0.008-1.539C168.304,74.538,167.599,72.771,166.954,70.697z"/>
</g>
<g id="&#xB808;&#xC774;&#xC5B4;_5">
	<path style="fill:none;stroke:#000000;stroke-miterlimit:10;" d="M160.284,48.957c-1.463,0.687-2.947,1.388-4.161,2.454
		c-1.245,1.093-2.158,2.529-3.292,3.698c-1.001,1.218-1.992,2.425-2.993,3.644c-0.928,1.47-2.383,2.748-3.098,4.419
		c-0.591,1.383-0.633,2.93-0.638,4.434c-0.005,1.738,0.027,3.476,0.06,5.214c0.026,1.386,0.052,2.772,0.078,4.158
		c0.031,1.641,0.064,3.302,0.504,4.883c0.3,1.077,0.781,2.092,1.197,3.129c1.039,2.591,1.67,5.324,2.307,8.04
		c0.9,3.837,0.517,7.814-0.769,11.539c-0.811,2.348-0.966,5.829-3.005,7.94c-5.484,5.68-8.952,14.324-7.842,22.142
		c0.576,4.059,2.162,7.902,3.046,11.905c1.011,4.576,1.09,9.355,0.231,13.962c5.904,0.507,11.808,1.014,17.712,1.52
		c0.433,0.037,0.912,0.062,1.254-0.205c0.362-0.282,0.445-0.79,0.469-1.249c0.089-1.662-0.222-3.318-0.282-4.981
		c-0.145-3.997,1.219-8.03,3.759-11.119c2.408,0.08,3.631,3.043,5.837,4.012c1.942,0.853,4.269,0.002,6.281,0.673
		c2.795,0.932,5.012,4.668,7.797,3.038c0.595-0.348,1.049-0.89,1.409-1.479c2.84-4.648,7.356-8.221,12.493-10.008
		c1.282-0.446,1.621-2.085,0.638-3.021c-4.262-4.06-8.77-7.862-13.49-11.379c-2.553-1.902-5.307-3.898-6.418-6.882
		c-1.293-3.473,0.982-7.319,2.252-10.801c0.944-2.587,3.879-6.138,2.832-8.762"/>
</g>
<g id="&#xB808;&#xC774;&#xC5B4;_6">
	<path style="fill:none;stroke:#000000;stroke-miterlimit:10;" d="M187.438,85.174c0.883-7.814-0.468-15.867-3.852-22.965
		c-0.393-0.825-0.817-1.648-1.004-2.543c-0.18-0.865-0.131-1.761-0.234-2.639c-0.375-3.181-2.975-5.973-6.121-6.573"/>
</g>
<g id="&#xB808;&#xC774;&#xC5B4;_7">
	<path style="fill:none;stroke:#000000;stroke-miterlimit:10;" d="M104.227,231.22c0.858,2.514,3.248,4.135,5.527,5.499
		c3.036,1.816,6.215,3.529,9.692,4.177c3.477,0.649,7.337,0.092,10.015-2.219c0.689-0.594,1.327-1.41,1.229-2.314
		c-0.09-0.825-0.77-1.461-1.478-1.894c-1.835-1.123-4.043-1.396-6.144-1.86c-2.1-0.465-4.3-1.249-5.538-3.009
		c-0.701-0.998-1.024-2.22-1.705-3.231c-0.477-0.707-1.125-1.298-1.874-1.706c-1.028-0.561-2.207-0.768-3.361-0.967
		c-2.207-0.381-4.305-1.514-5.616,0.464C103.808,225.921,103.557,229.271,104.227,231.22z"/>
</g>
<g id="&#xB808;&#xC774;&#xC5B4;_8">
	<path style="fill:none;stroke:#000000;stroke-miterlimit:10;" d="M105.613,222.951c2.457-4.635,5.371-9.027,8.685-13.093
		c1.753-2.15,3.647-4.258,4.717-6.817c0.766-1.832,1.077-3.825,1.782-5.681c3.035-7.998,12.555-11.893,16.172-19.646
		c1.015-2.175,0.731-5.087,0.95-7.477c0.073-0.799,0.15-1.61,0.444-2.356c0.189-0.479,0.463-0.919,0.736-1.356
		c1.094-1.752,2.189-3.505,3.283-5.257"/>
</g>
<g id="&#xB808;&#xC774;&#xC5B4;_9">
	<path style="fill:none;stroke:#000000;stroke-miterlimit:10;" d="M115.641,225.612c1.716-3.018,4.05-5.632,6.379-8.207
		c4.764-5.271,9.696-10.669,12.182-17.325c0.553-1.481,0.988-3.029,1.854-4.351c0.689-1.05,1.625-1.916,2.614-2.691
		c2.237-1.751,4.795-3.091,7.508-3.931c2.901-0.898,5.646-3.158,7.723-5.372c1.612-1.718,2.301-4.112,2.575-6.452
		s0.186-4.714,0.51-7.047c0.394-2.842,1.404-5.596,2.939-8.019"/>
</g>
<g id="&#xB808;&#xC774;&#xC5B4;_10">
	<path style="fill:none;stroke:#000000;stroke-miterlimit:10;" d="M157.314,170.901c2.523-0.744,4.515-3.045,4.889-5.649
		c0.09-0.627,0.094-1.266,0.228-1.885c0.298-1.379,1.232-2.752,0.765-4.083c-0.632-0.007-1.264-0.015-1.896-0.022"/>
</g>
<g id="&#xB808;&#xC774;&#xC5B4;_11">
	<path style="fill:none;stroke:#000000;stroke-miterlimit:10;" d="M163.597,159.101c5.13-0.611,10.482-1.302,14.753-4.209
		c0.486-0.33,0.959-0.691,1.503-0.913c1.203-0.492,2.65-0.269,3.759-0.948"/>
</g>
<g id="&#xB808;&#xC774;&#xC5B4;_12">
	<path style="fill:none;stroke:#000000;stroke-miterlimit:10;" d="M162.056,167.367c2.085-1.376,4.835-0.644,7.272-0.1
		c13.579,3.035,27.541-1.379,41.232-3.859c2.329-0.422,4.891-0.914,6.357-2.773c1.437-1.822,1.338-4.503,0.335-6.595
		c-1.003-2.092-2.757-3.715-4.517-5.227c-3.995-3.432-8.238-6.576-12.684-9.399"/>
</g>
<g id="&#xB808;&#xC774;&#xC5B4;_13">
	<path style="fill:none;stroke:#000000;stroke-miterlimit:10;" d="M302.796,49.431c-0.241-0.842-0.228-1.734-0.358-2.6
		c-0.321-2.149-1.497-4.06-2.625-5.918c-0.538-0.886-1.078-1.791-1.331-2.796c-0.214-0.852-0.213-1.742-0.18-2.62
		c0.029-0.779,0.083-1.564,0.287-2.317c0.359-1.326,1.164-2.488,2.065-3.525c0.948-1.091,2.04-2.09,3.346-2.708
		c1.276-0.604,2.696-0.819,4.093-1.026c4.198-0.624,8.529-1.242,12.64-0.191c2.036,0.52,3.967,1.447,5.648,2.709
		c0.795,0.597,1.55,1.289,2.004,2.173c0.787,1.532,0.555,3.36,0.434,5.078s-0.036,3.641,1.176,4.866
		c0.309,0.312,0.679,0.564,0.951,0.908c0.272,0.345,0.43,0.832,0.235,1.225c-0.514,1.036-2.382,0.106-3.164,0.959
		c-0.247,0.269-0.312,0.655-0.349,1.018c-0.147,1.457,0,2.943,0.429,4.343c0.256,0.835,0.615,1.67,0.568,2.543
		c-0.073,1.324-1.128,2.462-2.381,2.896c-1.253,0.433-2.651,0.254-3.892-0.212c-0.907-0.341-2.037-0.794-2.739-0.126
		c-0.854,0.811-0.118,2.464-0.937,3.311c-0.375,0.388-0.983,0.469-1.507,0.344c-0.525-0.125-0.989-0.423-1.445-0.71
		c-2.286-1.438-4.664-2.731-7.115-3.867C306.734,52.299,303.459,51.748,302.796,49.431z"/>
</g>
<g id="&#xB808;&#xC774;&#xC5B4;_14">
	<path style="fill:none;stroke:#000000;stroke-miterlimit:10;" d="M321.637,53.955c-0.735-0.298-1.588-0.156-2.333-0.43
		c-0.198-0.073-0.384-0.173-0.567-0.278c-0.458-0.263-0.907-0.565-1.231-0.982"/>
</g>
<g id="&#xB808;&#xC774;&#xC5B4;_15">
	<path style="fill:none;stroke:#000000;stroke-miterlimit:10;" d="M298.623,63.378c2.506-3.632,7.32-5.501,11.62-4.513
		c4.3,0.989,7.814,4.773,8.483,9.134c0.251,1.637,0.132,3.307-0.025,4.956c-0.248,2.609-0.736,5.478-2.777,7.121
		c-1.879,1.511-4.504,1.525-6.914,1.603c-2.694,0.087-5.382,0.342-8.044,0.764c-2.068,0.327-4.144,0.763-6.036,1.659
		c-2.016,0.955-3.754,2.399-5.468,3.827c-1.45,1.208-2.899,2.416-4.349,3.624c-0.981,0.817-1.967,1.64-2.8,2.607
		c-0.6,0.697-1.114,1.462-1.657,2.205c-2.544,3.482-5.737,6.489-9.367,8.817c-2.201,4.992-4.582,10.219-4.928,15.664
		c-0.104,1.632-0.037,3.286-0.374,4.886c-0.157,0.745-0.532,1.593-1.282,1.723c-0.866,0.15-1.554-0.805-1.629-1.68
		s0.217-1.75,0.153-2.626c-0.064-0.876-0.722-1.844-1.593-1.726c-0.657,0.089-1.083,0.75-1.264,1.387
		c-0.526,1.846,0.226,3.779,0.791,5.613c0.197,0.637,0.336,1.427-0.144,1.89c-0.611,0.589-1.614,0.131-2.318-0.343
		c-1.116-0.752-2.232-1.503-3.348-2.255c-0.539-0.363-1.088-0.735-1.49-1.245c-0.501-0.636-0.737-1.436-0.961-2.214
		c-0.495-1.718-0.994-3.455-1.073-5.241c-0.079-1.786,0.3-3.653,1.403-5.06c0.744-0.949,1.764-1.633,2.75-2.327
		c1.297-0.912,2.562-1.868,3.795-2.865c1.72-1.392,3.4-2.896,4.546-4.788c0.676-1.116,1.148-2.341,1.658-3.542
		c3.266-7.695,8.163-14.607,13.644-20.919c2.465-2.839,6.344-4.387,9.247-6.776C292.339,69.883,296.071,67.076,298.623,63.378z"/>
</g>
<g id="&#xB808;&#xC774;&#xC5B4;_16">
	<path style="fill:none;stroke:#000000;stroke-miterlimit:10;" d="M297.027,65.904c-0.12-2.185,0.24-4.396,1.047-6.43
		c0.267-0.672,0.583-1.329,0.757-2.031c0.14-0.563,0.187-1.151,0.396-1.692c0.257-0.665,0.741-1.215,1.248-1.716
		c1.156-1.142,2.482-2.11,3.922-2.863"/>
</g>
<g id="&#xB808;&#xC774;&#xC5B4;_17">
	<path style="fill:none;stroke:#000000;stroke-miterlimit:10;" d="M296.779,83.752c-0.263,2.586,0.018,5.193,0.298,7.778
		c0.192,1.765,0.383,3.529,0.575,5.294c0.233,2.148,0.463,4.349-0.062,6.445c-1.601,6.388-9.547,9.753-10.806,16.217
		c-0.43,2.206,0.003,4.478,0.001,6.725c-0.002,2.247-0.592,4.726-2.447,5.995c-1.476,1.01-2.23,2.773-3.259,4.236
		c-3.893,5.534-7.882,11.289-9.155,17.935c-0.181,0.948-0.297,1.969,0.112,2.843c0.693,1.483,2.529,1.933,3.961,2.727
		c3.179,1.762,4.987,5.793,8.538,6.569c3.051,0.666,5.964-1.388,8.413-3.325c3.738-2.956,7.476-5.911,11.214-8.867
		c3.168-2.505,6.457-5.163,8.07-8.866c1.959-0.664,3.76,0.169,5.649,1.011c7.104,3.167,14.831,4.929,22.605,5.156
		c0.453,0.013,0.949,0.007,1.297-0.283c0.217-0.181,0.344-0.448,0.429-0.717c0.526-1.664-0.301-3.44-0.28-5.185
		c0.032-2.642,2.012-4.891,4.245-6.304c2.233-1.413,4.791-2.248,7.039-3.637c0.259-0.16,0.543-0.381,0.534-0.685
		c-0.008-0.251-0.217-0.444-0.416-0.598c-1.165-0.896-2.527-1.493-3.862-2.109c-8.163-3.762-15.828-8.505-23.471-13.235
		c-0.44-0.272-0.893-0.557-1.187-0.983c-0.569-0.825-0.397-1.932-0.203-2.915c2.515-2.862,4.598-6.121,5.825-9.729
		c0.551-1.62,0.811-3.323,1-5.023c0.582-5.226,0.511-10.524-0.209-15.733c-0.634-4.584-1.184-9.255-3.841-13.044
		c-0.831-1.185-1.808-2.3-2.312-3.657c-0.415-1.119-0.483-2.338-0.839-3.476c-0.837-2.675-3.134-4.589-5.32-6.344"/>
</g>
<g id="&#xB808;&#xC774;&#xC5B4;_18">
	<path style="fill:none;stroke:#000000;stroke-miterlimit:10;" d="M218.579,206.837c-0.252,1.241,0.226,2.514,0.83,3.628
		c0.604,1.113,1.351,2.169,1.706,3.385c1.022,3.495-1.421,7.162-0.97,10.776c0.31,2.483,1.947,4.615,2.481,7.059
		c0.162,0.741,0.228,1.525,0.609,2.18c0.559,0.96,1.663,1.437,2.694,1.85c0.52,0.209,1.206,0.38,1.564-0.051
		c0.16-0.193,0.198-0.457,0.23-0.706c0.673-5.24,1.346-10.481,2.019-15.721c0.576-4.482,1.151-9.024,0.559-13.503
		c-0.114-0.861-0.282-1.746-0.768-2.466c-0.939-1.392-2.906-1.815-4.511-1.323c-1.67,0.513-2.356,1.925-3.74,2.721
		C220.114,205.341,218.936,205.079,218.579,206.837z"/>
</g>
<g id="&#xB808;&#xC774;&#xC5B4;_19">
	<path style="fill:none;stroke:#000000;stroke-miterlimit:10;" d="M226.5,201.5c8.241-7.337,16.832-16.052,22.632-25.438
		c0.618-1,1.226-2.017,2.024-2.88c4.409-4.767,13.063-3.494,17.186-8.511c1.629-1.982,2.249-4.655,3.932-6.591"/>
</g>
<g id="&#xB808;&#xC774;&#xC5B4;_20">
	<path style="fill:none;stroke:#000000;stroke-miterlimit:10;" d="M230.607,211.012c3.645-1.907,6.217-5.324,9.333-8.01
		c1.408-1.214,2.935-2.283,4.396-3.434c5.926-4.665,10.934-10.766,17.882-13.699c1.379-0.582,2.811-1.027,4.215-1.548
		c2.149-0.798,4.228-1.771,6.303-2.744c1.234-0.578,2.523-1.201,3.32-2.306c0.738-1.024,0.969-2.355,1.75-3.346
		c2.704-3.431,6.363-5.036,8.457-8.869"/>
</g>
<g id="&#xB808;&#xC774;&#xC5B4;_21">
	<path style="fill:none;stroke:#000000;stroke-miterlimit:10;" d="M316.567,189.669c-2.193,1.504-5.391,2.089-6.29,4.591
		c-0.566,1.576,0.091,3.362,1.133,4.674c1.042,1.311,2.434,2.291,3.646,3.447c3.556,3.392,5.418,8.13,7.803,12.426
		c0.544,0.98,1.125,1.95,1.88,2.778c1.407,1.543,3.327,2.502,5.2,3.426c0.556,0.274,1.151,0.556,1.768,0.488
		c1.153-0.127,1.838-1.454,1.754-2.611c-0.084-1.157-0.698-2.195-1.175-3.252c-3.075-6.829-0.657-15.457-4.689-21.768
		c-1.924-3.012-5.114-4.33-5.956-7.901C319.56,186.488,318.267,188.503,316.567,189.669z"/>
</g>
<g id="&#xB808;&#xC774;&#xC5B4;_22">
	<path style="fill:none;stroke:#000000;stroke-miterlimit:10;" d="M321.5,186.5c7.246-8.253,13.822-18.404,19.494-27.808
		c0.564-0.936,1.125-1.883,1.852-2.7c0.936-1.052,2.111-1.847,3.321-2.579c0.264-0.16,0.174-0.553-0.133-0.588
		c-1.528-0.173-3.231-0.776-4.533-1.325"/>
</g>
<g id="&#xB808;&#xC774;&#xC5B4;_23">
	<path style="fill:none;stroke:#000000;stroke-miterlimit:10;" d="M353.656,135.421c2.939,1.527,5.21,4.097,7.052,6.85
		c1.501,2.244,2.41,3.639,3.778,5.703c0.49,0.739,0.905,1.529,1.27,2.338c0.001,0.003,0.002,0.005,0.004,0.008
		c0.054,0.119,0.108,0.239,0.162,0.358c0.032,0.072,0.057,0.183,0.135,0.195c0.966,1.86,1.021,4.167,0.145,6.072
		c-0.305,0.663-0.713,1.273-1.157,1.854c-1.783,2.335-3.94,4.362-6.313,6.094c-5.085,3.712-10.227,7.344-15.426,10.895
		c-2.534,1.73-5.1,3.458-7.236,5.661c-1.058,1.091-1.999,2.288-2.939,3.483c-0.814,1.035-1.628,2.07-2.442,3.105
		c-1.296,1.649-2.606,3.321-3.443,5.244"/>
</g>
<g id="&#xB808;&#xC774;&#xC5B4;_24">
	<path style="fill:none;stroke:#000000;stroke-miterlimit:10;" d="M183.035,57.243c1.551,4.11,5.717,6.679,7.768,10.564
		c0.747,1.416,1.194,2.973,1.915,4.403s1.803,2.787,3.318,3.305"/>
</g>
<g id="&#xB808;&#xC774;&#xC5B4;_25">
	<path style="fill:none;stroke:#000000;stroke-miterlimit:10;" d="M202.642,81.592c1.121,2.379,4.302,2.657,6.705,3.727
		c2.464,1.098,4.286,3.221,6.319,4.994c6.031,5.262,14.1,7.546,20.658,12.134c0.441,0.308,0.889,0.644,1.14,1.119
		c0.318,0.604,0.266,1.326,0.263,2.008c-0.008,1.836,0.593,3.87,1.928,5.01c0.712,0.608,1.4,1.237,1.992,1.962
		c0.706,0.864,1.689,1.479,2.736,2.046c2.381,1.289,4.762,2.579,7.142,3.868"/>
</g>
<g id="&#xB808;&#xC774;&#xC5B4;_26">
	<path style="fill:none;stroke:#000000;stroke-miterlimit:10;" d="M194.545,92.287c5.431,0.353,10.499,2.718,15.42,5.044
		c4.173,1.972,8.345,3.944,12.518,5.916c1.638,0.774,3.42,1.699,4.062,3.393c0.698,1.843,0.056,4.489,1.805,5.4
		c0.626,0.326,1.37,0.278,2.075,0.288c8.013,0.121,14.258,8.41,22.076,10.173"/>
</g>
</svg>
