<?xml version="1.0" encoding="iso-8859-1"?>
<!-- Generator: Adobe Illustrator 24.0.1, SVG Export Plug-In . SVG Version: 6.00 Build 0)  -->
<svg version="1.1" xmlns="http://www.w3.org/2000/svg" xmlns:xlink="http://www.w3.org/1999/xlink" x="0px" y="0px"
	 viewBox="0 0 464 261" style="enable-background:new 0 0 464 261;" xml:space="preserve">
<g id="&#xB808;&#xC774;&#xC5B4;_1" style="display:none;">
	<image style="display:inline;overflow:visible;" width="464" height="261" xlink:href="../24.png" >
	</image>
</g>
<g id="&#xB808;&#xC774;&#xC5B4;_2">
	<path style="fill:none;stroke:#000000;stroke-miterlimit:10;" d="M160.773,50.284c-0.262-0.105-0.534-0.226-0.702-0.453
		c-0.156-0.211-0.2-0.483-0.225-0.744c-0.201-2.089,0.471-4.2,0.191-6.28c-0.276-2.05-1.444-3.856-2.128-5.808
		c-0.639-1.824-0.852-3.797-0.616-5.715c0.129-1.054,0.415-2.135,1.118-2.93c0.602-0.68,1.449-1.084,2.272-1.47
		c1.661-0.779,3.323-1.558,4.984-2.336c1.068-0.501,2.152-1.006,3.314-1.205c1.261-0.215,2.558-0.058,3.808,0.212
		c3.151,0.683,6.142,2.096,8.671,4.096c0.515,0.407,1.023,0.854,1.323,1.437c0.871,1.692-0.257,3.928,0.67,5.59
		c0.655,1.174,2.081,1.619,3.236,2.306s2.177,2.182,1.426,3.296c-0.56,0.831-1.802,0.929-2.439,1.702
		c-0.918,1.115-0.083,2.734,0.388,4.1c0.399,1.156,0.505,2.412,0.304,3.619c-0.063,0.379-0.173,0.783-0.475,1.021
		c-0.49,0.387-1.206,0.155-1.766-0.121c-0.731-0.359-1.478-0.779-2.293-0.776c-0.815,0.003-1.695,0.63-1.627,1.441
		c0.031,0.37,0.247,0.697,0.34,1.056c0.545,2.11-1.862,1.417-2.854,1.063c-1.797-0.641-3.785-0.86-5.669-1.081
		C168.243,51.862,164.349,51.718,160.773,50.284z"/>
</g>
<g id="&#xB808;&#xC774;&#xC5B4;_3">
	<path style="fill:none;stroke:#000000;stroke-miterlimit:10;" d="M181.181,58.327c-0.302-1.671-1.642-2.957-3.324-3.186
		c-2.625-0.358-5.26-0.719-7.874-1.074c-0.722-0.098-1.459-0.196-2.176-0.067c-0.768,0.138-1.47,0.53-2.085,1.009
		c-2.825,2.198-3.807,5.965-4.615,9.451c-0.153,0.659-0.306,1.342-0.177,2.006c0.199,1.022,1.018,1.794,1.51,2.712
		c0.719,1.341,0.713,2.934,0.998,4.428c0.36,1.881,1.213,3.666,2.451,5.128c5.805,6.852,12.825,13.259,19.73,19
		c0.749,0.622,1.582,1.271,2.555,1.29c0.766,0.014,1.484-0.371,2.11-0.808c1.204-0.84,2.198-1.948,2.958-3.205
		c1.093-1.808,2.007-3.806,2.504-5.853c0.518-2.136,0.792-4.34,1.549-6.403c0.875-2.386,2.372-4.514,3.163-6.93
		c1.102-3.365,0.756-7.018,1.301-10.517c0.32-2.056,0.946-4.05,1.447-6.069c0.925-3.728,1.424-7.562,1.485-11.403
		c0.023-1.448-0.021-2.927-0.509-4.29c-1.141-3.194-4.91-5.188-8.193-4.336c-0.935,0.243-1.9,0.778-2.193,1.698
		c-0.315,0.99,0.247,2.016,0.539,3.013c0.511,1.746,0.147,3.725-0.951,5.176c-0.339,0.448-0.908,0.882-1.415,0.639
		c-0.313-0.15-0.468-0.508-0.746-0.716c-0.643-0.481-1.577,0.046-2.03,0.709c-0.911,1.336-0.882,3.112-0.491,4.681
		c0.391,1.569,1.102,3.047,1.461,4.623c0.374,1.64,0.358,3.34,0.34,5.023c-0.023,2.122-0.045,4.243-0.068,6.365
		c-0.013,1.231-0.033,2.498-0.508,3.634c-0.475,1.136-1.519,2.124-2.75,2.149c-1.13,0.023-2.149-0.77-2.721-1.745
		s-0.781-2.114-0.98-3.226c-0.639-3.569-1.278-7.139-1.917-10.708C181.427,59.781,181.312,59.051,181.181,58.327z"/>
</g>
<g id="&#xB808;&#xC774;&#xC5B4;_4">
	<path style="fill:none;stroke:#000000;stroke-miterlimit:10;" d="M159.872,49.876c-1.741,0.444-3.093,1.887-3.852,3.516
		s-1.006,3.443-1.205,5.228c-1.269,11.391-0.855,23.23,3.443,33.855c1.167,2.884,1.383,5.956,1.405,9.067
		c0.009,1.242-0.062,2.504-0.468,3.677c-0.605,1.746-1.899,3.153-2.862,4.73c-0.958,1.569-1.591,3.314-2.498,4.913
		c-1.215,2.143-2.898,3.981-4.257,6.036c-2.076,3.141-3.375,6.792-3.749,10.538c-0.142,1.425-0.155,2.874-0.525,4.258
		c-0.434,1.624-1.338,3.076-2.23,4.501c-0.683,1.09-1.365,2.181-2.048,3.271c-0.735,1.175-1.675,2.226-2.586,3.269
		c-1.648,1.886-3.139,3.908-4.455,6.039c-0.685,1.109-1.334,2.28-1.534,3.569c-0.2,1.288,0.129,2.729,1.129,3.567
		c1.083,0.908,2.631,0.912,3.995,1.284c1.528,0.416,2.87,1.32,4.3,2c5.176,2.46,11.709,1.755,16.24-1.754
		c1.489-1.153,2.754-2.563,4.011-3.966c3.866-4.314,7.732-8.628,11.598-12.943c0.282-0.314,0.585-0.643,0.99-0.761
		c0.346-0.101,0.717-0.033,1.068,0.052c1.448,0.35,2.828,0.975,4.046,1.833c5.969,4.205,13.527,5.604,20.688,7.028
		c0.918,0.183,1.862,0.35,2.785,0.195c1.722-0.288,3.055-1.625,4.216-2.929c0.778-0.874,1.559-1.807,1.857-2.938
		c0.216-0.819,0.162-1.685,0.303-2.521c0.381-2.26,2.11-4.02,3.78-5.59c1.467-1.379,3.167-2.821,5.18-2.788
		c0.471,0.008,0.943,0.098,1.41,0.032c0.466-0.066,0.948-0.341,1.067-0.797c0.124-0.477-0.187-0.957-0.543-1.298
		c-0.638-0.61-1.45-0.998-2.248-1.375c-2.942-1.393-5.884-2.786-8.827-4.178c-1.663-0.787-3.332-1.577-5.088-2.125
		c-2.2-0.687-4.503-0.985-6.727-1.588c-2.492-0.676-4.877-1.737-7.073-3.094c-0.791-0.489-1.587-1.047-2.03-1.864
		s-0.42-1.959,0.29-2.56c3.29-2.784,2.592-8.27,3.347-12.514c0.636-3.57,1.271-7.141,1.907-10.711"/>
</g>
<g id="&#xB808;&#xC774;&#xC5B4;_5">
	<path style="fill:none;stroke:#000000;stroke-miterlimit:10;" d="M180.024,53.538c2.033,1.967,2.553,4.981,3.87,7.484
		c0.479,0.91,1.068,1.759,1.56,2.662c1.301,2.388,1.887,5.088,2.491,7.739c0.313,1.372,0.669,2.81,1.63,3.837"/>
</g>
<g id="&#xB808;&#xC774;&#xC5B4;_6">
	<path style="fill:none;stroke:#000000;stroke-miterlimit:10;" d="M197.634,82.112c1.815,2.068,4.094,3.668,6.363,5.225
		c1.342,0.921,2.696,1.838,4.164,2.541c1.142,0.547,2.344,0.959,3.499,1.476c2.807,1.257,5.31,3.122,7.545,5.235
		c0.963,0.91,1.885,1.873,2.953,2.658c2.732,2.009,6.098,2.595,9.384,3.436c1.465,0.375,3.055,0.705,4.087,1.811
		c0.975,1.044,1.229,2.545,1.551,3.937c0.322,1.392,0.857,2.891,2.106,3.583c5.534,3.068,9.89,7.66,14.229,12.266
		c0.823,0.873,1.624,1.904,1.651,3.103c0.006,0.25-0.036,0.525-0.223,0.69c-0.128,0.113-0.302,0.154-0.47,0.18
		c-1.577,0.245-3.124-0.53-4.475-1.381c-1.03-0.649-2.024-1.357-2.974-2.119c-2.317-1.858-4.367-4.03-6.688-5.884
		c-0.751-0.6-1.545-1.175-2.454-1.489c-1.622-0.561-3.396-0.236-5.111-0.17c-1.715,0.066-3.657-0.258-4.646-1.662
		c-0.399-0.566-0.594-1.249-0.748-1.925c-0.329-1.452-0.498-2.952-1.051-4.335c-0.552-1.383-1.583-2.679-3.018-3.076
		c-7.131-1.972-13.396-6.444-20.427-8.747c-1.469-0.481-2.979-0.826-4.487-1.169c-1.449-0.33-2.899-0.661-4.348-0.991"/>
</g>
<g id="&#xB808;&#xC774;&#xC5B4;_7">
	<path style="fill:none;stroke:#000000;stroke-miterlimit:10;" d="M204.406,204.59c-1.086-0.619-2.156-0.818-3.23,0.493
		c-0.717,0.876-1.047,1.997-1.353,3.087c-0.215,0.767-0.426,1.583-0.202,2.348c0.2,0.685,0.721,1.223,1.223,1.73
		c3.402,3.439,6.805,6.878,10.207,10.317c1.492,1.508,2.992,3.023,4.704,4.275c3.482,2.546,7.807,3.917,12.12,3.842
		c1.066-0.018,2.22-0.162,2.987-0.902c1.004-0.971,0.952-2.668,0.262-3.883c-0.69-1.215-1.868-2.059-3.01-2.864
		c-2.868-2.023-5.736-4.046-8.604-6.068c-1.781-1.257-3.631-2.589-4.62-4.532c-0.412-0.81-0.661-1.703-1.159-2.463
		c-1.375-2.101-4.041-2.569-6.213-3.431c-3.451-1.369-3.1-3.874-3.257-7.125c-0.179-3.711-0.037-7.507,1.257-11.029
		c0.584-1.59,1.39-3.09,1.977-4.679c0.619-1.674,0.987-3.429,1.354-5.176c1.359-6.476,2.718-12.952,4.077-19.428
		c0.101-0.483,0.202-0.992,0.056-1.463c-0.265-0.854-1.209-1.267-2.049-1.574c-2.43-0.89-4.86-1.78-7.29-2.67"/>
</g>
<g id="&#xB808;&#xC774;&#xC5B4;_8">
	<path style="fill:none;stroke:#000000;stroke-miterlimit:10;" d="M220.622,135.531c2.452,1.694,4.875,3.431,7.266,5.21
		c0.747,0.556,1.5,1.125,2.07,1.862c1.143,1.479,1.408,3.438,1.596,5.298c0.199,1.974,0.356,3.952,0.471,5.933
		c0.083,1.427,0.143,2.875-0.166,4.27c-0.337,1.523-1.096,2.913-1.821,4.294c-1.065,2.029-2.075,4.087-3.068,6.153
		c-2.091,4.349-4.112,8.747-5.608,13.335c-2.927,8.979-3.803,18.581-7.35,27.334c0.268,0.004,0.536,0.009,0.805,0.013"/>
</g>
<g id="&#xB808;&#xC774;&#xC5B4;_9">
	<path style="fill:none;stroke:#000000;stroke-miterlimit:10;" d="M71.749,195.478c-0.362,0.149-0.729,0.321-0.984,0.618
		c-0.386,0.451-0.434,1.09-0.482,1.682c-0.686,8.462-5.037,16.476-4.627,24.955c0.037,0.758,0.268,1.698,1.013,1.843
		c0.279,0.054,0.565-0.027,0.831-0.125c1.774-0.651,3.237-2.102,3.903-3.871c0.412-1.095,0.529-2.286,0.972-3.369
		c1.204-2.947,4.503-4.482,6.209-7.17c1.166-1.838,1.497-4.066,1.802-6.221c0.249-1.761,0.498-3.522,0.747-5.283
		C81.916,192.993,74.899,194.183,71.749,195.478z"/>
</g>
<g id="&#xB808;&#xC774;&#xC5B4;_10">
	<path style="fill:none;stroke:#000000;stroke-miterlimit:10;" d="M132.749,159.405c-0.996,1.286-1.595,2.875-1.695,4.499
		c-0.062,1,0.057,2.034-0.274,2.98c-0.725,2.076-3.196,2.856-5.338,3.354c-2.603,0.605-5.205,1.211-7.808,1.816
		c-3.264,0.759-6.567,1.532-9.543,3.072c-2.254,1.166-4.088,2.63-5.698,4.592c-2.781,3.39-4.888,7.668-8.855,9.535
		c-2.281,1.073-4.877,1.182-7.356,1.644c-2.479,0.461-5.089,1.447-6.383,3.61"/>
</g>
<g id="&#xB808;&#xC774;&#xC5B4;_11">
	<path style="fill:none;stroke:#000000;stroke-miterlimit:10;" d="M153.619,163.942c-3.679,2.318-7.574,4.884-9.23,8.905
		c-0.348,0.846-0.589,1.742-1.052,2.53c-0.512,0.873-1.271,1.57-2.023,2.247c-4.137,3.722-8.918,7.446-14.482,7.522
		c-2.926,0.04-5.904-0.95-8.731-0.198c-3.285,0.875-5.564,3.887-8.671,5.267c-2.163,0.961-4.596,1.075-6.881,1.693
		c-4.047,1.094-7.48,3.715-10.797,6.278c-2.023,1.563-4.046,3.125-6.069,4.688c-1.845,0.237-3.514,0.437-5.242,1.126"/>
</g>
<g id="&#xB808;&#xC774;&#xC5B4;_12">
	<path style="fill:none;stroke:#000000;stroke-miterlimit:10;" d="M314.996,52.508c-0.008,0.89-0.245,2.004-1.114,2.197
		c-0.392,0.087-0.795-0.058-1.172-0.197c-4.423-1.634-9.013-2.816-13.676-3.521c-0.451-0.068-0.932-0.145-1.27-0.45
		c-0.372-0.336-0.486-0.869-0.541-1.367c-0.193-1.731,0.047-3.557-0.639-5.158c-0.68-1.588-2.199-2.755-2.652-4.422
		c-0.23-0.847-0.159-1.743-0.087-2.618c0.196-2.359,0.391-4.717,0.587-7.076c0.058-0.695,0.118-1.403,0.373-2.052
		c0.472-1.203,1.549-2.058,2.648-2.737c3.151-1.946,6.869-2.92,10.573-2.928c2.41-0.005,4.867,0.406,6.979,1.568
		c4.224,2.325,6.341,7.155,7.804,11.749c0.29,0.911,0.586,1.862,1.246,2.554c0.443,0.465,1.028,0.788,1.413,1.302
		s0.474,1.356-0.055,1.721c-0.223,0.154-0.504,0.187-0.757,0.282c-1.35,0.503-1.433,2.382-1.093,3.783
		c0.34,1.4,0.808,3.047-0.123,4.147c-0.836,0.988-2.343,0.952-3.631,0.834C317.265,49.884,314.996,49.17,314.996,52.508z"/>
	<path style="fill:none;stroke:#000000;stroke-miterlimit:10;" d="M312.237,48.525c0.443,0.152,0.887,0.304,1.33,0.456
		c0.396,0.136,0.792,0.271,1.196,0.378c1.384,0.365,2.838,0.381,4.235,0.691"/>
</g>
<g id="&#xB808;&#xC774;&#xC5B4;_13">
	<path style="fill:none;stroke:#000000;stroke-miterlimit:10;" d="M297.815,59.722c1.285-1.539,2.721-3.171,4.683-3.58
		c1.216-0.253,2.473,0.006,3.688,0.264c1.608,0.342,3.216,0.684,4.824,1.026c0.648,0.138,1.304,0.279,1.891,0.585
		c0.629,0.328,1.15,0.834,1.586,1.394c1.297,1.667,1.862,3.81,1.964,5.92c0.101,2.11-0.229,4.213-0.557,6.3
		c-0.113,0.716-0.229,1.443-0.533,2.101c-0.599,1.296-1.873,2.178-3.224,2.64c-1.351,0.462-2.794,0.561-4.216,0.684
		c-5.271,0.455-10.721,1.371-15.048,4.416c-1.095,0.771-2.163,1.696-3.481,1.933c-1.027,0.184-2.233-0.028-2.989,0.69
		c-0.285,0.271-0.456,0.637-0.62,0.994c-0.562,1.223-1.124,2.446-1.685,3.669c-1.951,4.247-5.885,7.227-9.461,10.238
		c-1.841,1.55-3.799,2.969-5.498,4.673c-1.698,1.705-3.15,3.749-3.695,6.093c-0.323,1.39-0.317,2.832-0.309,4.258
		c0.009,1.712,0.019,3.424,0.028,5.136c0.004,0.731-0.011,1.521-0.453,2.103s-1.484,0.735-1.851,0.104
		c-0.106-0.181-0.139-0.394-0.166-0.602c-0.135-1.055-0.155-2.169-0.684-3.091c-0.529-0.923-1.811-1.528-2.679-0.913
		c-0.527,0.373-0.729,1.068-0.732,1.714c-0.006,1.485,0.835,2.835,1.122,4.293c0.041,0.207,0.069,0.427-0.005,0.624
		c-0.122,0.324-0.479,0.488-0.811,0.589c-2.949,0.897-6.323-0.838-7.726-3.582c-1.403-2.744-0.999-6.194,0.59-8.835
		c2.354-3.914,7.053-6.367,8.262-10.772c0.367-1.339,0.383-2.797,1.057-4.011c0.403-0.726,1.013-1.309,1.583-1.914
		c2.194-2.33,3.865-5.093,5.701-7.714c3.59-5.124,7.868-9.766,12.683-13.762c4.158-3.451,8.887-5.895,13.034-9.36
		C295.524,62.822,296.615,61.159,297.815,59.722z"/>
</g>
<g id="&#xB808;&#xC774;&#xC5B4;_14">
	<path style="fill:none;stroke:#000000;stroke-miterlimit:10;" d="M297.984,50.378c-4.231,3.699-6.587,9.444-6.17,15.049"/>
</g>
<g id="&#xB808;&#xC774;&#xC5B4;_15">
	<path style="fill:none;stroke:#000000;stroke-miterlimit:10;" d="M292.614,81.423c3.787,7.105,4.347,15.516,3.626,23.535
		c-0.177,1.974-0.432,3.961-1.113,5.822c-0.921,2.516-2.581,4.691-4.356,6.698c-4.396,4.97-9.865,9.554-11.465,15.994
		c-1.051,4.231-0.327,8.992-2.588,12.719c-1.159,1.911-2.98,3.312-4.463,4.984s-2.68,3.897-2.163,6.072
		c0.139,0.585,0.415,1.159,0.885,1.535c1.136,0.907,2.786,0.334,4.24,0.358c4.04,0.068,6.455,4.817,10.338,5.934
		c2.703,0.778,5.862-0.575,7.165-3.068c0.548-1.048,0.788-2.241,1.389-3.26c0.778-1.318,2.083-2.222,3.347-3.084
		c4.985-3.397,9.97-6.794,14.955-10.191c9.301,1.398,17.593,5.332,26.893,6.738c0.666,0.101,1.349,0.187,2.008,0.05
		c1.112-0.231,2.009-1.076,2.616-2.036c0.968-1.532,1.326-3.377,2.22-4.952c2.191-3.861,6.999-5.291,10.28-8.283
		c0.289-0.264,0.584-0.577,0.612-0.967c0.037-0.525-0.417-0.942-0.842-1.253c-1.145-0.837-2.387-1.539-3.694-2.089
		c-1.975-0.83-3.797-2.574-5.59-3.747c-1.628-1.066-3.532-1.614-5.404-2.148c-4.942-1.409-9.885-2.818-14.827-4.227
		c-1.553-0.443-3.359-1.137-3.723-2.711c-0.144-0.62-0.023-1.267,0.099-1.892c0.489-2.515,0.977-5.03,1.466-7.545
		c1.857-9.559,4.055-19.188,2.637-28.821c-0.177-1.204-0.414-2.411-0.893-3.53c-0.464-1.082-1.144-2.057-1.665-3.113
		c-0.715-1.448-1.121-3.024-1.625-4.558c-1.194-3.638-2.945-7.064-4.69-10.473c-0.87-1.701-1.741-3.402-2.611-5.104
		c-0.185-0.361-0.753-0.397-1.146-0.5"/>
</g>
<g id="&#xB808;&#xC774;&#xC5B4;_16">
	<path style="fill:none;stroke:#000000;stroke-miterlimit:10;" d="M327.247,93.758c0.335-0.882,1.04-1.561,1.634-2.295
		c1.666-2.056,2.524-4.648,3.105-7.23c0.214-0.952,0.396-1.914,0.7-2.841c0.416-1.27,1.061-2.464,1.894-3.509
		c1.908-2.392,3.618-6.351,4.239-9.347c0.992-4.783,1.984-9.567,2.976-14.35c0.308-1.485,0.617-2.989,0.543-4.504
		c-0.073-1.502-0.521-2.957-0.966-4.394c-0.181-0.586-0.378-1.198-0.816-1.627c-0.424-0.415-1.016-0.601-1.585-0.774
		c-1.058-0.321-2.146-0.645-3.248-0.56c-1.102,0.085-2.237,0.674-2.646,1.7c-0.386,0.969-0.051,2.079,0.445,2.997
		s1.156,1.759,1.479,2.752c0.323,0.992,0.21,2.236-0.622,2.866c-1.088,0.824-2.636,0.177-3.814-0.512
		c-0.466-0.273-1.025-0.557-1.518-0.339c-0.448,0.198-0.634,0.725-0.764,1.198c-0.413,1.499-0.711,3.219,0.147,4.516
		c0.399,0.603,1.015,1.047,1.368,1.678c0.359,0.641,0.41,1.403,0.453,2.137c0.102,1.737,0.203,3.493-0.109,5.205
		c-0.6,3.289-2.801,6.248-5.779,7.767"/>
</g>
<g id="&#xB808;&#xC774;&#xC5B4;_17">
	<path style="fill:none;stroke:#000000;stroke-miterlimit:10;" d="M218.966,190.863c2.22,0.334,4.513,0.178,6.668-0.454
		c1.537-0.451,3.011-1.146,4.276-2.129c0.981-0.762,1.824-1.685,2.661-2.603c1.458-1.599,2.916-3.197,4.374-4.796
		c0.902-0.989,1.819-1.991,2.951-2.707c3.03-1.919,7.071-1.494,10.193-3.26c2.494-1.41,4.537-3.069,7.148-4.247
		c1.211-0.546,2.473-0.976,3.67-1.554c4.309-2.08,7.611-6.14,8.77-10.782c0.158,0.137,0.315,0.274,0.473,0.411"/>
</g>
<g id="&#xB808;&#xC774;&#xC5B4;_18">
	<path style="fill:none;stroke:#000000;stroke-miterlimit:10;" d="M216.045,203.833c2.726-2,5.523-3.944,8.602-5.342
		c7.474-3.395,16.018-3.342,23.946-5.47c6.768-1.817,12.994-5.197,19.149-8.547c2.09-1.138,4.2-2.29,5.981-3.869
		c1.246-1.105,2.311-2.403,3.55-3.516c1.468-1.318,3.164-2.363,4.639-3.673c1.584-1.406,2.887-3.095,4.18-4.773
		c0.914-1.186,1.828-2.372,2.742-3.558"/>
</g>
<g id="&#xB808;&#xC774;&#xC5B4;_19">
	<path style="fill:none;stroke:#000000;stroke-miterlimit:10;" d="M202.206,213.122c-0.675,3.029-1.082,6.265-0.025,9.183
		c2.183,0.262,4.471-0.886,5.567-2.792"/>
</g>
<g id="&#xB808;&#xC774;&#xC5B4;_20">
	<path style="fill:none;stroke:#000000;stroke-miterlimit:10;" d="M341.673,152.451c0.985,0.851,2.155,1.488,3.405,1.854
		c0.525,0.153,1.088,0.273,1.491,0.643c0.538,0.494,0.641,1.292,0.7,2.02c0.513,6.427,0.105,12.899-0.715,19.294
		c-0.88,6.853-2.231,13.636-3.581,20.412c-0.253,1.268-0.505,2.537-0.758,3.805c-0.182,0.915-0.183,2.601-0.692,3.376
		c-0.405,0.618-1.287,0.874-1.716,1.633c-0.416,0.737-0.444,1.455-0.591,2.256c-0.547,2.975-0.942,6.43,1.087,8.674
		c1.38,1.526,3.533,2.054,5.238,3.205c1.977,1.335,3.298,3.472,5.251,4.842c0.848,0.595,1.794,1.03,2.699,1.533
		c1.785,0.994,3.408,2.256,5.181,3.271c1.773,1.016,3.765,1.793,5.805,1.679c0.385-0.021,0.791-0.084,1.087-0.331
		c0.442-0.368,0.503-1.025,0.43-1.595c-0.201-1.573-1.129-2.946-2.053-4.235c-3.746-5.228-7.856-10.183-11.963-15.132
		c-0.93-1.121-1.879-2.259-3.095-3.059c-1.619-1.066-4.539-2.569-6.503-2.742c-0.334-0.029-0.647,0.013-0.935,0.113"/>
</g>
<g id="&#xB808;&#xC774;&#xC5B4;_21">
</g>
<g id="&#xB808;&#xC774;&#xC5B4;_22">
	<path style="fill:none;stroke:#000000;stroke-miterlimit:10;" d="M357.004,136.016c1.462,1.16,3.416,1.529,4.938,2.61
		c1.053,0.748,1.846,1.8,2.606,2.844c1.607,2.207,3.163,4.483,4.189,7.013s1.498,5.355,0.875,8.013
		c-0.93,3.967-4.092,6.989-5.888,10.647c-2.292,4.669-2.261,10.155-4.135,15.007c-0.979,2.535-2.459,4.845-3.549,7.334
		c-2.483,5.675-2.895,12.178-5.992,17.542"/>
</g>
</svg>
