<?xml version="1.0" encoding="iso-8859-1"?>
<!-- Generator: Adobe Illustrator 24.0.1, SVG Export Plug-In . SVG Version: 6.00 Build 0)  -->
<svg version="1.1" xmlns="http://www.w3.org/2000/svg" xmlns:xlink="http://www.w3.org/1999/xlink" x="0px" y="0px"
	 viewBox="0 0 464 261" style="enable-background:new 0 0 464 261;" xml:space="preserve">
<g id="&#xB808;&#xC774;&#xC5B4;_1" style="display:none;">
	<image style="display:inline;overflow:visible;" width="464" height="261" xlink:href="../26.png" >
	</image>
</g>
<g id="&#xB808;&#xC774;&#xC5B4;_2">
	<g>
		<path d="M174.521,28.152L174.521,28.152c3.122,0,6.159,1.841,7.557,4.581c0.324,0.636,0.576,1.325,0.842,2.053
			c0.501,1.37,1.019,2.788,2.078,3.948c0.581,0.636,1.252,1.112,1.901,1.572c0.423,0.3,0.823,0.583,1.18,0.897
			c0.647,0.569,1.319,1.523,1.084,2.339c-0.142,0.494-0.611,0.962-1.108,1.457c-0.76,0.758-1.622,1.617-1.669,2.928
			c-0.045,1.273,0.725,2.278,1.404,3.165c0.698,0.911,1.006,1.381,0.818,1.752c-0.194,0.385-0.921,0.443-1.337,0.443
			c-0.197,0-0.41-0.012-0.635-0.036c-0.372-0.04-0.806-0.083-1.252-0.083c-1.254,0-2.153,0.358-2.749,1.094
			c-0.643,0.795-0.721,1.758-0.778,2.461c-0.018,0.217-0.043,0.528-0.085,0.684c-0.017,0.001-0.037,0.002-0.061,0.002
			c-0.106,0-0.238-0.015-0.393-0.044c-0.915-0.174-1.933-0.623-3.011-1.098c-0.992-0.438-2.018-0.89-3.039-1.152
			c-4.007-1.027-7.982-2.336-11.815-3.892c-0.739-0.3-1.389-0.583-1.855-1.016c-0.754-0.7-1.087-1.827-1.415-3.121
			c-0.662-2.608-1.176-4.949-0.757-7.193c0.615-3.299,3.253-6.311,8.066-9.21c1.937-1.167,4.039-2.276,6.284-2.495
			C174.022,28.164,174.272,28.152,174.521,28.152 M174.521,27.152c-0.28,0-0.56,0.013-0.84,0.041
			c-2.41,0.235-4.629,1.385-6.703,2.634c-3.846,2.316-7.711,5.47-8.533,9.884c-0.472,2.531,0.138,5.127,0.771,7.623
			c0.332,1.308,0.715,2.689,1.704,3.607c0.608,0.565,1.39,0.898,2.159,1.21c3.886,1.577,7.879,2.893,11.942,3.934
			c2.015,0.516,4.183,1.898,6.112,2.264c0.222,0.042,0.413,0.062,0.579,0.062c1.758,0,0.643-2.21,1.701-3.517
			c0.465-0.575,1.204-0.723,1.971-0.723c0.385,0,0.777,0.037,1.145,0.077c0.239,0.026,0.49,0.042,0.742,0.042
			c0.913,0,1.838-0.216,2.23-0.992c0.902-1.789-2.186-3.329-2.116-5.332c0.059-1.689,2.271-2.519,2.738-4.143
			c0.354-1.232-0.422-2.52-1.385-3.367c-0.962-0.847-2.138-1.446-3.003-2.393c-1.448-1.587-1.792-3.867-2.768-5.781
			C181.393,29.189,177.978,27.152,174.521,27.152L174.521,27.152z"/>
	</g>
</g>
<g id="&#xB808;&#xC774;&#xC5B4;_3">
	<path style="fill:none;stroke:#000000;stroke-miterlimit:10;" d="M203.074,66.891c0.013-1.842,0.168-3.683,0.461-5.502
		c0.099-0.612,0.227-1.251,0.625-1.726c0.398-0.475,1.153-0.708,1.652-0.34c0.268,0.925,0.865,2.069,1.812,1.894
		c0.684-0.127,1.015-0.884,1.306-1.516c0.481-1.046,1.177-2.031,2.161-2.629c0.984-0.598,2.289-0.746,3.286-0.17
		c0.705,0.407,1.18,1.11,1.629,1.79c1.465,2.215,2.992,4.652,2.783,7.299c-0.133,1.686-0.968,3.235-1.901,4.646
		c-3.772,5.704-9.515,10.079-16.016,12.2c-3.969,1.295-3.757,7.885-6.771,10.774c-1.833,1.757-4.346,2.578-6.5,3.922
		c-1.328,0.829-2.527,1.864-3.913,2.591c-4.215,2.212-9.938,0.958-12.842-2.815c-1.271-1.651-2.004-3.643-2.718-5.601
		c-0.545-1.493-1.09-2.987-1.635-4.48c-1.32-3.619-0.816-7.612-1.029-11.458c-0.233-4.205-2.662-8.584-0.858-12.389
		c0.602-1.27,1.617-2.288,2.613-3.279c0.97-0.966,1.941-1.932,2.911-2.897c0.528-0.525,1.078-1.065,1.775-1.325
		c0.66-0.245,1.394-0.215,2.083-0.071c3.874,0.809,6.172,4.702,7.991,8.216c0.726,1.402,1.469,2.869,1.492,4.447
		c0.034,2.269-1.416,4.299-1.762,6.542c-0.256,1.658,0.104,3.343,0.461,4.982c0.308,1.411,0.616,2.821,0.923,4.232
		c0.19,0.87,0.6,1.936,1.49,1.969c0.467,0.017,0.879-0.281,1.249-0.565c5.059-3.884,10.119-7.769,15.178-11.653
		c0.538-0.413,1.085-0.836,1.465-1.398C203.41,71.203,203.062,68.555,203.074,66.891z"/>
</g>
<g id="&#xB808;&#xC774;&#xC5B4;_4">
	<path style="fill:none;stroke:#000000;stroke-miterlimit:10;" d="M190.463,96.055c0.151,4.546,0.201,9.453-2.409,13.178
		c-0.527,0.753-1.151,1.435-1.664,2.197c-1.351,2.006-1.861,4.444-2.344,6.814c-0.673,3.305-1.278,7.006,0.565,9.83
		c0.765,1.172,1.882,2.061,2.979,2.929c3.587,2.838,7.752,5.099,10.831,8.482c1.678,1.844,3.357,3.688,5.035,5.531
		c0.578,0.635,1.187,1.56,0.707,2.272c-0.478,0.71-1.557,0.5-2.38,0.737c-0.788,0.227-1.358,0.893-1.878,1.526
		c-1.045,1.27-2.091,2.541-3.136,3.811c-1.256,1.526-2.4,3.577-2.781,5.517c-0.2,1.02-0.4,2.04-0.601,3.06
		c-0.064,0.325-0.138,0.671-0.373,0.905c-0.455,0.454-1.219,0.253-1.816,0.016c-6.135-2.435-11.982-5.598-17.376-9.403
		c-2.215-1.562-4.39-3.251-6.918-4.227c-1.202,3.27-4.439,5.23-7.123,7.45c-3.283,2.716-5.973,6.146-7.829,9.983
		c-0.831,1.718-1.805,3.768-3.691,4.053c-1.161,0.176-2.29-0.414-3.289-1.032c-4.023-2.491-7.678-5.826-12.259-7.008
		c-0.368-0.095-0.759-0.185-1.033-0.449c-0.283-0.272-0.387-0.679-0.444-1.068c-0.225-1.537,0.102-3.148,0.908-4.475
		c0.618-1.016,1.491-1.849,2.212-2.795c1.241-1.627,2.012-3.555,2.768-5.457c0.782-1.967,1.564-3.934,2.346-5.9
		c0.915-2.302,2.622-4.124,3.035-6.566c0.371-2.193,0.742-4.386,1.114-6.579c0.482-2.845,1.007-5.8,2.688-8.147
		c2.251-3.143,6.203-4.674,8.623-7.689c2.074-2.584,2.809-5.996,3.045-9.301c-0.101-1.055-0.642-2.11-0.561-3.167
		c0.266-3.439-0.517-6.951-2.219-9.951c-0.612-1.078-1.34-2.095-1.839-3.23c-2.474-5.62,0.188-11.131,0.114-17.271
		c-0.046-3.835,0.311-7.674,1.062-11.435c0.278-1.393,0.622-2.804,1.372-4.011c1.584-2.547,3.597-3.767,6.595-3.686
		c0.164,0.004,0.33,0.072,0.494,0.082"/>
</g>
<g id="&#xB808;&#xC774;&#xC5B4;_5">
	<path style="fill:none;stroke:#000000;stroke-miterlimit:10;" d="M188.597,83.497c-0.198-4.799-0.442-9.776-2.662-14.035
		c-0.761-1.46-1.741-2.803-2.444-4.292c-1.091-2.309-1.479-4.877-1.854-7.403"/>
</g>
<g id="&#xB808;&#xC774;&#xC5B4;_6">
	<path style="fill:none;stroke:#000000;stroke-miterlimit:10;" d="M78.368,162.364c-0.057-0.784-0.164-1.63-0.708-2.197
		c-0.938-0.978-2.564-0.597-3.804-0.05c-8.654,3.813-14.529,11.891-19.983,19.617c-0.607,0.859-1.237,1.956-0.764,2.895
		c0.259,0.514,0.799,0.83,1.347,1.005c2.048,0.651,4.269-0.337,5.972-1.649c1.703-1.311,3.154-2.972,5.045-3.995
		c3.608-1.952,7.695-1.651,10.455-5.075C78.613,169.584,78.675,166.617,78.368,162.364z"/>
</g>
<g id="&#xB808;&#xC774;&#xC5B4;_7">
	<path style="fill:none;stroke:#000000;stroke-miterlimit:10;" d="M132.861,162.314c-0.347,1.293-0.383,2.688-1.001,3.875
		c-0.82,1.577-2.557,2.511-4.31,2.809c-1.753,0.298-3.547,0.051-5.307-0.196c-0.634-0.089-1.267-0.178-1.901-0.267
		c-11.851-1.663-23.348-5.378-35.147-3.378c-2.126,0.36-4.487,0.882-6.303-0.282"/>
</g>
<g id="&#xB808;&#xC774;&#xC5B4;_8">
	<path style="fill:none;stroke:#000000;stroke-miterlimit:10;" d="M75.39,173.301c5.371-1.07,10.514,2.184,15.67,4.028
		c2.072,0.741,4.214,1.262,6.352,1.782c7.706,1.873,15.412,3.746,23.118,5.619c2.667,0.648,5.358,1.3,8.102,1.368
		c2.744,0.068,5.581-0.494,7.82-2.081c1.342-0.952,2.429-2.238,3.817-3.123c1.711-1.091,2.341-3.855,3.983-5.047
		c0.857-0.622,1.825-1.083,2.656-1.74c0.83-0.657,1.539-1.584,1.576-2.643c0.006-0.169,0.003-0.36,0.126-0.476
		c0.123-0.116,0.397-0.006,0.33,0.149"/>
</g>
<g id="&#xB808;&#xC774;&#xC5B4;_9">
	<path style="fill:none;stroke:#000000;stroke-miterlimit:10;" d="M218.159,231.156c0.743,0.84,1.933,1.089,3.038,1.279
		c8.201,1.41,16.513,2.17,24.833,2.268c0.538,0.006,1.102,0.004,1.576-0.249c0.781-0.416,1.095-1.44,0.885-2.3
		c-0.21-0.859-0.842-1.56-1.556-2.081c-3.683-2.691-8.914-1.136-13.296-2.404c-3.184-0.922-5.8-3.313-9.008-4.146
		c-3.117-0.81-6.842-0.594-10.027-0.792c0.59,1.224,1.83,2.003,2.304,3.396C217.458,227.741,216.949,229.789,218.159,231.156z"/>
</g>
<g id="&#xB808;&#xC774;&#xC5B4;_10">
	<path style="fill:none;stroke:#000000;stroke-miterlimit:10;" d="M192.558,162.898c1.697,1.85,4.759,1.545,6.829,2.965
		c1.453,0.996,2.238,2.743,2.514,4.483s0.113,3.515,0.056,5.275c-0.138,4.229,0.34,8.452,0.817,12.656
		c0.132,1.166,0.269,2.349,0.708,3.438c0.682,1.688,2.057,3.06,2.543,4.815c1.857,6.706,4.982,13.021,4.808,19.977
		c-0.027,1.082-0.089,2.211,0.36,3.196c0.321,0.704,0.88,1.273,1.471,1.772c0.749,0.633,1.569,1.181,2.44,1.631"/>
</g>
<g id="&#xB808;&#xC774;&#xC5B4;_11">
	<path style="fill:none;stroke:#000000;stroke-miterlimit:10;" d="M204.081,146.844c1.274,1.903,3.508,2.897,5.206,4.434
		c2.008,1.818,3.211,4.346,4.243,6.851c1.372,3.331,2.548,6.836,2.668,10.416c0.031,0.92,0.293,1.806,0.656,2.652
		c1.438,3.348,0.346,7.41,1.097,11.146c0.441,2.192,1.36,4.261,1.872,6.437c0.693,2.948,0.625,6.022,1.135,9.006
		c0.575,3.368,1.875,6.563,2.792,9.855c1.376,4.942,1.882,10.125,1.488,15.24"/>
</g>
<g id="&#xB808;&#xC774;&#xC5B4;_12">
	<path style="fill:none;stroke:#000000;stroke-miterlimit:10;" d="M187.078,72.337c2.739,1.838,5.532,3.595,8.375,5.268"/>
</g>
<g id="&#xB808;&#xC774;&#xC5B4;_13">
	<path style="fill:none;stroke:#000000;stroke-miterlimit:10;" d="M195.009,92.862c1.202,1.41,2.447,2.854,4.092,3.706
		c1.064,0.551,2.246,0.827,3.413,1.098c3.721,0.863,7.77,1.983,11.492,2.846c2.507,0.582,5.087,0.833,7.606,1.365
		c0.624,0.132,1.27,0.273,1.783,0.654c1.234,0.916,1.195,2.721,1.446,4.238c0.55,3.313,3.214,6.175,6.479,6.961
		c0.805,0.194,1.641,0.272,2.417,0.56c0.983,0.364,1.813,1.042,2.624,1.708c2.391,1.966,4.782,3.932,7.173,5.898
		c2.176,1.789,4.434,3.622,7.142,4.397c1.013,0.29,2.365,0.278,2.818-0.673c0.524-1.102-0.655-2.213-1.664-2.9
		c-4.716-3.208-8.883-6.778-12.783-10.94c-0.955-1.019-1.019-2.573-1.663-3.812c-0.598-1.151-1.661-1.971-2.602-2.862
		c-1.931-1.83-3.445-4.084-5.496-5.778c-6.066-5.009-15.579-4.214-21.338-9.573c-2.404-2.236-3.941-5.388-6.699-7.169"/>
</g>
<g id="&#xB808;&#xC774;&#xC5B4;_14">
	<g>
		<path d="M313.62,28.257c0.925,0,1.82,0.13,2.661,0.386c1.368,0.417,2.64,1.184,3.81,1.95c1.447,0.947,2.87,2.023,3.486,3.472
			c0.254,0.599,0.391,1.292,0.537,2.027c0.269,1.36,0.573,2.901,1.769,3.988c0.652,0.592,1.438,0.913,2.133,1.197l0.338,0.139
			c0.578,0.243,1.206,0.557,1.487,1.037c0.1,0.172,0.132,0.425,0.076,0.615c-0.014,0.05-0.048,0.138-0.106,0.168
			c-0.113,0.058-0.365,0.062-0.608,0.066c-0.279,0.005-0.596,0.01-0.932,0.085c-1.785,0.398-2.629,2.399-2.412,4.104
			c0.115,0.909,0.441,1.714,0.756,2.493c0.172,0.425,0.334,0.827,0.457,1.229c0.244,0.804,0.315,1.932-0.286,2.465
			c-0.268,0.238-0.605,0.344-1.092,0.344c-0.557,0-1.199-0.14-1.878-0.289c-0.481-0.105-0.979-0.214-1.472-0.276
			c-0.154-0.019-0.314-0.032-0.473-0.032c-0.822,0-1.302,0.33-1.561,0.608c-0.463,0.496-0.524,1.122-0.561,1.496l-0.432,4.418
			c-0.647-0.393-1.732-1.504-2.131-1.913c-0.282-0.289-0.505-0.517-0.681-0.672c-1.375-1.209-2.933-2.579-4.842-3.328
			c-1.359-0.533-2.814-0.728-4.22-0.916c-2.013-0.27-3.915-0.524-5.206-1.737c-1.134-1.065-1.635-2.768-2.076-4.269
			c-0.829-2.82-1.86-6.329-0.881-9.373c0.697-2.168,2.434-4.184,5.309-6.164C306.781,30.06,310.131,28.257,313.62,28.257
			 M313.62,27.257c-3.366,0-6.766,1.539-9.603,3.492c-2.455,1.69-4.781,3.844-5.694,6.681c-1.037,3.224-0.082,6.712,0.873,9.962
			c0.502,1.707,1.054,3.499,2.351,4.716c2.502,2.35,6.551,1.603,9.746,2.856c1.725,0.677,3.155,1.924,4.547,3.148
			c0.655,0.576,2.673,2.97,3.763,2.97c0.367,0,0.629-0.271,0.698-0.975c0.146-1.494,0.292-2.988,0.438-4.481
			c0.032-0.324,0.074-0.673,0.296-0.911c0.208-0.223,0.517-0.29,0.83-0.29c0.117,0,0.235,0.009,0.348,0.024
			c1.132,0.143,2.373,0.573,3.476,0.573c0.65,0,1.252-0.149,1.755-0.595c0.937-0.83,0.944-2.306,0.58-3.504
			c-0.364-1.198-1.02-2.315-1.177-3.557c-0.158-1.242,0.416-2.73,1.638-3.002c0.589-0.131,1.244,0.038,1.78-0.238
			c0.737-0.379,0.854-1.462,0.436-2.177s-1.198-1.132-1.962-1.454c-0.764-0.322-1.573-0.598-2.186-1.155
			c-1.51-1.371-1.26-3.788-2.058-5.665c-0.728-1.713-2.302-2.898-3.859-3.917c-1.277-0.836-2.606-1.624-4.066-2.069
			C315.601,27.39,314.612,27.257,313.62,27.257L313.62,27.257z"/>
	</g>
</g>
<g id="&#xB808;&#xC774;&#xC5B4;_15">
	<path style="fill:none;stroke:#000000;stroke-miterlimit:10;" d="M319.202,53.576c0.21,0.063,0.429,0.098,0.648,0.105
		c0.735,0.024,1.435,0.273,2.17,0.293c0.508,0.014,1.038-0.03,1.505,0.169"/>
</g>
<g id="&#xB808;&#xC774;&#xC5B4;_16">
	<path style="fill:none;stroke:#000000;stroke-miterlimit:10;" d="M298.435,66.483c1.597-2.044,3.487-4.006,5.935-4.863
		c2.311-0.81,4.843-0.542,7.277-0.264c1.271,0.145,2.589,0.305,3.68,0.974c1.49,0.914,2.293,2.604,2.948,4.225
		c0.502,1.239,0.968,2.506,1.159,3.829c0.389,2.698-0.435,5.522-2.109,7.674s-4.155,3.629-6.818,4.212
		c-4.555-0.347-9.044,2.148-12.825,4.711c-3.781,2.564-6.932,5.934-10.046,9.276c-2.095,2.249-3.976,5.018-5.721,7.548
		c-1.162,1.685-2.164,3.511-3.645,4.924c-1.091,1.042-2.429,1.846-3.306,3.074c-1.131,1.586-1.326,3.633-1.484,5.575
		c-0.191,2.347-0.845,4.639-1.154,6.973c-0.072,0.547-0.151,1.113-0.442,1.582c-0.291,0.469-0.856,0.816-1.39,0.676
		c-1.156-0.302-0.825-2.025-1.243-3.144c-0.333-0.891-1.349-1.467-2.284-1.295c-0.935,0.172-1.68,1.072-1.675,2.023
		c0.005,0.813,0.487,1.646,0.185,2.401c-0.396,0.99-1.79,1.05-2.806,0.729c-2.748-0.869-4.869-3.323-5.576-6.117
		c-0.707-2.794-0.069-5.847,1.483-8.275c3.366-5.265,10.508-7.536,13.003-13.266c3.933-9.033,9.213-17.122,16.646-23.588
		c1.975-1.718,4.202-3.724,6.311-5.276C296.047,69.689,297.28,67.961,298.435,66.483z"/>
</g>
<g id="&#xB808;&#xC774;&#xC5B4;_17">
	<path style="fill:none;stroke:#000000;stroke-miterlimit:10;" d="M301.5,51.5c-0.895-0.018-1.521,0.881-2.168,1.556
		c-1.043,1.088-1.799,2.423-2.603,3.697c-0.398,0.631-0.821,1.293-1.062,1.999c-0.687,2.012-1.012,4.126-1.334,6.228
		c-0.322,2.101-0.511,4.419-0.833,6.52"/>
</g>
<g id="&#xB808;&#xC774;&#xC5B4;_18">
	<path style="fill:none;stroke:#000000;stroke-miterlimit:10;" d="M293.51,89.765c1.882,4.585,3.011,9.479,3.327,14.425
		c0.117,1.832,0.118,3.709-0.444,5.457c-0.541,1.681-1.603,3.19-3.004,4.265c-1.111,2.889-4.202,4.702-6.326,6.953
		c-2.868,3.039-4.964,6.801-6.037,10.839c-0.78,2.931-1.649,5.79-2.497,8.702c-1.588,5.452-3.232,11.023-6.549,15.633
		c-1.033,1.436-2.269,3.287-1.346,4.796c0.651,1.064,2.049,1.314,3.26,1.614c3.666,0.908,6.962,3.235,9.044,6.386
		c0.849,1.285,1.897,2.91,3.422,2.696c0.879-0.123,1.53-0.853,2.089-1.541c1.845-2.268,3.602-4.614,5.613-6.736
		c3.713-3.916,8.408-7.245,10.331-12.287c0.173-0.455,0.42-1,0.905-1.041c0.231-0.019,0.45,0.09,0.656,0.196
		c8.381,4.323,16.761,8.647,25.142,12.97c0.567,0.293,1.219,0.592,1.819,0.377c0.938-0.336,1.047-1.587,1.102-2.582
		c0.296-5.319,3.681-9.982,7.541-13.653c0.322-0.307,0.66-0.624,0.815-1.041c0.479-1.283-0.936-2.424-2.144-3.069
		c-5.399-2.884-8.95-8.649-13.928-12.209c-1.886-1.349-3.933-2.748-4.788-4.903c-1.023-2.579-0.053-5.473,0.915-8.073
		c0.809-2.173,2.133-4.052,2.96-6.219c0.714-1.869,0.934-3.885,1.148-5.874c0.687-6.391,1.375-12.782,2.062-19.173
		c0.457-4.253,0.834-8.879-1.453-12.493c-0.825-1.304-1.959-2.397-2.73-3.733c-1.952-3.381-1.558-8.187-4.678-10.533"/>
</g>
<g id="&#xB808;&#xC774;&#xC5B4;_19">
	<path style="fill:none;stroke:#000000;stroke-miterlimit:10;" d="M326.816,98.921c2.167,0.07,4.219-1.087,5.76-2.611
		s2.668-3.406,3.878-5.205c2.346-3.489,5.058-6.732,8.077-9.658c1.898-1.839,3.083-4.659,5.121-6.342
		c1.986-1.639,3.851-3.426,5.575-5.339c0.873-0.969,1.723-1.991,2.23-3.193c0.507-1.202,0.634-2.623,0.061-3.795
		c-0.818-1.675-2.765-2.413-4.535-3.002c-1.059-0.352-2.118-0.705-3.177-1.057c-0.541-0.18-1.098-0.362-1.667-0.325
		c-0.569,0.037-1.158,0.348-1.351,0.885c-0.246,0.684,0.213,1.408,0.274,2.133c0.072,0.855-0.458,1.698-1.209,2.113
		c-0.751,0.414-1.681,0.433-2.497,0.167c-0.689-0.224-1.443-0.637-2.085-0.3c-0.727,0.382-0.723,1.411-0.584,2.22
		c0.358,2.097,0.934,4.156,1.714,6.135c-0.341,2.267-2.827,3.125-4.673,4.485c-1.26,0.928-2.448,1.955-3.549,3.068
		c-1.629,1.647-3.322,3.616-5.633,3.783"/>
</g>
<g id="&#xB808;&#xC774;&#xC5B4;_20">
	<path style="fill:none;stroke:#000000;stroke-miterlimit:10;" d="M353.643,221.757c-0.834-0.406-1.848,0.392-2.023,1.303
		c-0.175,0.911,0.214,1.825,0.594,2.671c0.81,1.804,1.809,3.788,3.681,4.426c1.825,0.623,3.882-0.27,5.742,0.239
		c0.704,0.193,1.338,0.578,1.972,0.94c5.916,3.384,12.718,5.203,19.533,5.225c1.986,0.006,4.418-0.459,5.033-2.347
		c0.387-1.188-0.159-2.494-0.936-3.473c-1.91-2.406-5.042-3.461-8.052-4.078c-3.01-0.617-6.149-0.943-8.869-2.372
		c-2.508-1.317-5.005-3.609-7.739-2.866C359.964,222.139,356.081,222.944,353.643,221.757z"/>
</g>
<g id="&#xB808;&#xC774;&#xC5B4;_21">
	<path style="fill:none;stroke:#000000;stroke-miterlimit:10;" d="M332.5,163.5c1.773,1.921,4.605,3.512,7.201,3.813
		c2.696,5.862,2.66,12.818,5.312,18.7c0.802,1.779,1.864,3.468,2.288,5.373c1.287,5.779,2.637,11.726,3.781,17.534
		c0.845,4.29,1.476,8.208,1.418,12.58"/>
</g>
<g id="&#xB808;&#xC774;&#xC5B4;_22">
	<path style="fill:none;stroke:#000000;stroke-miterlimit:10;" d="M342.5,145.5c0.264,1.012,0.444,1.418,1.165,2.175
		c3.2,3.359,6.4,6.718,9.6,10.077c0.725,0.761,1.465,1.545,1.869,2.516c0.306,0.736,0.402,1.539,0.495,2.331
		c0.121,1.031,0.241,2.061,0.362,3.092c0.871,7.442,1.673,15.047,2.755,22.461c0.266,1.825,0.534,3.657,1.065,5.423
		c0.83,2.761,2.283,5.296,3.197,8.03c0.412,1.232,0.455,2.598,0.665,3.88c0.262,1.605,0.523,3.21,0.785,4.815
		c0.599,3.673,1.194,7.465,0.305,11.079"/>
</g>
<g id="&#xB808;&#xC774;&#xC5B4;_23">
	<path style="fill:none;stroke:#000000;stroke-miterlimit:10;" d="M217.408,174.869c5.272-0.324,10.465,1.336,15.336,3.381
		c4.87,2.044,9.596,4.502,14.686,5.914c7.071,1.962,14.524,1.825,21.835,2.457c1.561,0.135,3.147,0.304,4.685,0.007
		c1.539-0.297,3.057-1.146,3.749-2.552c0.497-1.011,1.399-1.768,2.234-2.524c0.622-0.562,1.299-1.064,1.883-1.666
		c1.964-2.022,3.06-5.637,3.683-8.386"/>
</g>
<g id="&#xB808;&#xC774;&#xC5B4;_24">
	<path style="fill:none;stroke:#000000;stroke-miterlimit:10;" d="M270.754,160.871c-0.101,1.104-0.203,2.209-0.304,3.313
		c-0.052,0.571-0.112,1.165-0.409,1.655c-0.467,0.772-1.403,1.11-2.283,1.31c-1.969,0.448-4.031,0.484-6.014,0.107
		c-13.871-2.638-28.275-3.816-42.244-1.756"/>
</g>
<g id="&#xB808;&#xC774;&#xC5B4;_25">
	<path style="fill:none;stroke:#000000;stroke-miterlimit:10;" d="M217.5,172.5c0.482-0.578,0.34-1.223,0.699-1.884
		c0.451-0.832,0.438-1.831,0.523-2.774c0.024-0.265,0.038-0.538,0.151-0.778c0.139-0.297,0.413-0.509,0.589-0.787
		c0.366-0.576,0.249-1.36-0.118-1.935c-0.367-0.575-0.941-0.983-1.515-1.352c-0.733-0.471-2.46-1.406-3.328-1.489"/>
</g>
<g id="&#xB808;&#xC774;&#xC5B4;_26">
	<path style="fill:none;stroke:#000000;stroke-miterlimit:10;" d="M201.821,182.3c-1.657-0.215-3.376,0.085-4.863,0.847
		c-0.586,0.3-1.136,0.671-1.743,0.926c-1.497,0.63-3.297,0.483-4.672-0.381c-0.197-0.124-0.392-0.268-0.504-0.472
		c-0.122-0.222-0.131-0.487-0.134-0.74c-0.01-0.901,0.024-1.821,0.339-2.665c0.514-1.38,1.698-2.38,2.835-3.316
		c2.561-2.107,5.421-6.999,8.421-7.999"/>
</g>
</svg>
