<?xml version="1.0" encoding="iso-8859-1"?>
<!-- Generator: Adobe Illustrator 24.0.1, SVG Export Plug-In . SVG Version: 6.00 Build 0)  -->
<svg version="1.1" xmlns="http://www.w3.org/2000/svg" xmlns:xlink="http://www.w3.org/1999/xlink" x="0px" y="0px"
	 viewBox="0 0 464 261" style="enable-background:new 0 0 464 261;" xml:space="preserve">
<g id="&#xB808;&#xC774;&#xC5B4;_1" style="display:none;">
	<image style="display:inline;overflow:visible;" width="464" height="261" xlink:href="../27.png" >
	</image>
</g>
<g id="&#xB808;&#xC774;&#xC5B4;_2">
	<path style="fill:none;stroke:#000000;stroke-miterlimit:10;" d="M174.968,59.001c-2.997-2.944-7.18-4.308-11.265-5.291
		c-1.947-0.468-3.969-0.898-5.605-2.052c-1.81-1.277-2.963-3.345-3.442-5.507c-0.479-2.163-0.335-4.421,0.058-6.601
		c0.379-2.1,0.15-4.793,1.587-6.37c1.611-1.767,3.972-2.609,6.233-3.386c1.666-0.573,3.331-1.145,4.997-1.718
		c0.896-0.308,1.809-0.62,2.756-0.657c2.238-0.089,4.221,1.331,6.005,2.685c1.393,1.057,2.879,2.254,3.265,3.959
		c0.162,0.717,0.112,1.471,0.288,2.185c0.395,1.604,1.837,2.716,3.275,3.529c1.031,0.583,2.279,1.366,2.173,2.547
		c-0.035,0.393-0.227,0.752-0.397,1.108c-0.894,1.878-1.248,4.009-1.008,6.074c0.133,1.147,0.445,2.29,0.329,3.439
		c-0.116,1.149-0.814,2.354-1.945,2.583c-0.849,0.172-1.692-0.234-2.515-0.503c-0.823-0.269-1.854-0.356-2.437,0.285
		c-0.477,0.525-0.454,1.32-0.402,2.027c0.051,0.708,0.073,1.503-0.406,2.026S175.5,59.5,174.968,59.001z"/>
</g>
<g id="&#xB808;&#xC774;&#xC5B4;_3">
	<path style="fill:none;stroke:#000000;stroke-miterlimit:10;" d="M212.881,69.261c1.741-3.55,1.342-8.052-0.997-11.239
		c-0.577-0.787-1.282-1.511-2.167-1.923c-0.885-0.412-1.974-0.47-2.815,0.026c-1.821,1.075-1.538,3.824-2.698,5.593
		c-0.159,0.242-0.354,0.473-0.616,0.597c-0.634,0.301-1.414-0.152-1.74-0.774s-0.332-1.354-0.38-2.054s-0.17-1.449-0.658-1.953
		c-0.488-0.504-1.456-0.582-1.826,0.014c-0.186,0.298-0.178,0.673-0.165,1.024c0.126,3.298,0.251,6.596,0.377,9.894
		c0.045,1.169-0.516,2.066-1.299,2.935c-1.419,1.576-2.838,3.151-4.258,4.727c-0.781,0.867-1.567,1.739-2.486,2.459
		c-0.986,0.773-2.104,1.355-3.215,1.933c-2.7,1.404-5.399,2.808-8.099,4.212c-0.887,0.461-2.054,0.896-2.8,0.229
		c-0.41-0.366-0.531-0.958-0.541-1.508c-0.03-1.645,0.696-3.396-0.037-4.868c-0.422-0.847-1.277-1.448-1.577-2.347
		c-0.565-1.697,1.043-3.237,2.119-4.666c2.441-3.242,2.306-8.17-0.309-11.273c-1.278-1.517-3.01-2.567-4.71-3.59
		c-0.742-0.446-1.513-0.903-2.372-1.004c-1.023-0.121-2.04,0.281-2.924,0.81c-2.034,1.217-3.575,3.096-5.027,4.97
		c-1.942,2.506-3.908,5.619-2.936,8.636c0.276,0.858,0.777,1.629,1.069,2.482c0.378,1.106,0.39,2.301,0.353,3.469
		c-0.063,1.953-0.253,3.902-0.568,5.831c-0.158,0.969-0.349,1.95-0.24,2.926c0.189,1.693,1.243,3.147,2.262,4.513
		c2.148,2.879,4.296,5.758,6.443,8.637c0.905,1.213,1.831,2.447,3.069,3.319c1.237,0.871,2.861,1.335,4.29,0.836
		c2.082-0.726,3.088-3.157,5.024-4.213c0.771-0.42,1.646-0.598,2.477-0.881c3.628-1.24,6.206-4.421,8.396-7.569
		s4.309-6.526,7.569-8.545c1.949-1.208,4.189-1.85,6.251-2.853C209.032,76.173,210.966,73.165,212.881,69.261z"/>
</g>
<g id="&#xB808;&#xC774;&#xC5B4;_4">
	<path style="fill:none;stroke:#000000;stroke-miterlimit:10;" d="M156.421,50.327c-0.013,1.301-0.059,2.705-0.856,3.733
		c-0.718,0.927-1.892,1.347-2.897,1.952c-2.634,1.586-4.219,4.76-3.904,7.818c0.045,0.434,0.105,0.924-0.029,1.318
		c-0.129,0.378-0.24,0.754-0.218,1.153c0.173,3.239-0.187,7.071-0.583,10.196c-0.252,1.988-0.627,4.006-0.288,5.981
		c0.326,1.897,1.287,3.615,1.946,5.423c1.148,3.151,1.371,6.551,1.582,9.898c0.22,3.474,2.165,6.86,2.407,10.332
		c0.021,0.301,0.038,0.608-0.035,0.9c-0.201,0.803-1,1.279-1.709,1.706c-2.435,1.466-4.621,3.384-6.228,5.728
		c-1.634,2.381-3.292,4.403-5.321,6.457c-0.797,0.806-1.627,1.612-2.14,2.623c-0.403,0.793-0.59,1.675-0.758,2.549
		c-0.59,3.073-0.986,6.183-1.186,9.306c-0.125,1.954-0.323,4.188-1.595,5.551c-0.494,0.53-0.943,1.092-1.242,1.752
		c-1.219,2.692-2.558,5.398-3.737,8.086c-1.139,2.599-2.301,5.35-2.25,8.147c0.012,0.672,0.493,1.229,1.144,1.394
		c3.82,0.974,7.308,3.23,9.746,6.331c0.774,0.985,1.46,2.066,2.449,2.834c0.989,0.768,2.399,1.164,3.505,0.576
		c1.138-0.606,1.565-1.98,2.111-3.148c1.463-3.132,4.333-5.376,6.145-8.319c1.021-1.659,1.69-3.516,2.719-5.171
		c1.469-2.363,3.608-4.22,5.713-6.038c0.187-0.162,0.39-0.33,0.636-0.359c0.261-0.03,0.51,0.105,0.738,0.237
		c5.284,3.052,10.304,6.559,14.988,10.47c2.601,2.171,5.149,4.5,8.234,5.901c0.299,0.136,0.673,0.256,0.935,0.057
		c0.138-0.105,0.207-0.276,0.27-0.438c1.27-3.268,2.701-6.474,4.286-9.602c1.287-2.54,2.767-5.129,5.148-6.69
		c0.997-0.654,2.152-1.129,2.855-2.112c0.686-0.96,0.42-2.317-0.523-3.026c-5.425-4.081-10.039-9.741-14.987-14.369
		c-1.622-1.517-3.332-3.189-3.737-5.372c-0.217-1.169-0.032-2.371,0.153-3.545c0.269-1.709,0.539-3.418,0.808-5.127
		c0.768-4.87,1.797-9.725,4.106-14.081c1.019-1.923,2.024-3.967,1.98-6.143"/>
</g>
<g id="&#xB808;&#xC774;&#xC5B4;_5">
	<path style="fill:none;stroke:#000000;stroke-miterlimit:10;" d="M184.127,82.378c-0.485-0.26-0.466-0.944-0.442-1.494
		c0.07-1.63,0.092-3.429-0.824-4.78c-0.338-0.498-0.54-1.088-0.58-1.688c-0.135-2.046-2.54-3.701-4.517-4.244"/>
</g>
<g id="&#xB808;&#xC774;&#xC5B4;_6">
	<path style="fill:none;stroke:#000000;stroke-miterlimit:10;" d="M178.5,65.5c2.483,0.638,3.983,2.308,5.918,3.989
		c1.222,1.061,2.498,2.202,2.99,3.744c0.214,0.671,0.268,1.389,0.539,2.039c0.523,1.258,2.393,2.514,3.553,3.228"/>
	<path style="fill:none;stroke:#000000;stroke-miterlimit:10;" d="M195.5,83.5c6.532,3.208,13.007,8.023,18.746,12.497
		c1.354,1.056,2.657,2.178,4.036,3.202c2.651,1.97,5.568,3.568,8.607,4.862c3.352,1.427,6.173,3.983,8.037,7.113
		c0.762,1.279,1.365,2.654,2.208,3.882c2.275,3.311,6.026,5.215,9.397,7.401c1.023,0.663,2.045,1.386,2.732,2.393
		c0.687,1.007,0.984,2.362,0.458,3.461c-1.491,0.215-2.947-0.531-4.196-1.373c-4.676-3.154-8.575-8.164-14.178-8.814
		c-2.251-0.261-4.781,0.173-6.58-1.206c-1.988-1.523-1.336-4.564-2.588-6.733c-0.728-1.261-2.125-1.952-3.442-2.572
		c-3.121-1.469-6.245-2.94-9.455-4.203c-1.882-0.741-3.798-1.412-5.597-2.335c-1.807-0.927-3.484-2.101-5.338-2.929
		c-3.581-1.6-7.602-1.822-11.52-2.02"/>
</g>
<g id="&#xB808;&#xC774;&#xC5B4;_7">
	<path style="fill:none;stroke:#000000;stroke-miterlimit:10;" d="M66.849,173.584c-1.712,0.341-3.233,1.287-4.711,2.215
		c-2.054,1.29-4.108,2.58-6.162,3.87c-1.486,0.934-3.004,1.881-4.706,2.312c-1.702,0.431-3.648,0.27-5.003-0.847
		c-0.17-0.889,0.475-1.707,1.076-2.383c5.987-6.723,12.25-13.65,20.522-17.201c1.232-0.529,2.565-0.985,3.89-0.781
		s2.605,1.271,2.611,2.612c0.004,0.759-0.385,1.527-0.163,2.253c0.152,0.496,0.568,0.879,0.71,1.377
		c0.429,1.502-2.388,3.63-3.166,4.801C70.329,173.951,69.354,173.085,66.849,173.584z"/>
</g>
<g id="&#xB808;&#xC774;&#xC5B4;_8">
	<path style="fill:none;stroke:#000000;stroke-miterlimit:10;" d="M128.5,162.5c0.28,2.472-0.313,4.73-2.518,5.883
		c-0.685,0.358-1.477,0.448-2.25,0.468c-2.209,0.057-4.393-0.406-6.564-0.815c-13.328-2.512-27.025-3.053-40.509-1.6
		c-0.573,0.062-0.961,0.278-1.532,0.194"/>
</g>
<g id="&#xB808;&#xC774;&#xC5B4;_9">
	<path style="fill:none;stroke:#000000;stroke-miterlimit:10;" d="M143.045,172.449c-4.257,4.471-8.513,8.942-12.77,13.413
		c-0.488,0.512-1.014,1.048-1.7,1.221c-0.602,0.152-1.234,0.001-1.835-0.156c-6.586-1.713-13.033-4.05-19.759-5.082
		c-6.539-1.003-13.318-0.771-19.605-2.829c-5.255-1.72-10.565-4.978-15.875-6.517"/>
</g>
<g id="&#xB808;&#xC774;&#xC5B4;_10">
	<path style="fill:none;stroke:#000000;stroke-miterlimit:10;" d="M185.974,165.51c0.51,0.326,1.092,0.515,1.668,0.701
		c2.775,0.895,5.562,1.794,8.44,2.263c0.172,0.028,0.353,0.058,0.491,0.164c0.158,0.122,0.232,0.32,0.298,0.508
		c0.447,1.266,0.9,2.574,0.827,3.915c-0.271,4.974,1.359,9.747,1.829,14.706c0.02,0.207-0.034,0.421-0.052,0.629
		c-0.012,0.137-0.027,0.273-0.023,0.41c0.005,0.181,0.028,0.373,0.046,0.553c0.118,1.224,0.271,2.449,0.588,3.637
		c0.312,1.169,0.779,2.291,1.245,3.408c0.961,2.306,1.923,4.612,2.884,6.918c0.761,1.827,1.539,3.759,1.288,5.722
		c-0.259,2.029,1.01,3.725,1.425,5.728c0.128,0.618,0.256,1.236,0.428,1.843c0.498,1.754,1.358,3.381,2.211,4.992"/>
</g>
<g id="&#xB808;&#xC774;&#xC5B4;_11">
	<path style="fill:none;stroke:#000000;stroke-miterlimit:10;" d="M199.028,146.489c2.931,2.637,5.658,5.508,8.073,8.625
		c1.653,2.135,3.176,4.416,4.054,6.97c1.046,3.044,1.126,6.323,1.197,9.542c0.165,7.573,2.05,15.167,3.591,22.583
		c0.211,1.014,0.428,2.027,0.646,3.039c1.385,6.442,0.751,13.497,2.182,19.929c0.109,0.492,0.446,0.645,0.648,1.107
		c0.885,2.026,0.197,4.19,1.081,6.216"/>
</g>
<g id="&#xB808;&#xC774;&#xC5B4;_12">
	<path style="fill:none;stroke:#000000;stroke-miterlimit:10;" d="M209.675,228.346c0.034,0.418,0.144,0.822,0.305,1.21
		c0.504,1.218,0.348,2.789,1.352,3.64c0.504,0.427,1.188,0.556,1.841,0.653c4.841,0.719,9.823,0.483,14.57,1.67
		c4.399,1.101,8.771,3.423,13.222,2.431c1.121-0.25,2.203-0.736,2.992-1.57c2.375-2.511,0.405-5.741-2.157-6.815
		c-2.021-0.848-4.3-0.707-6.49-0.611c-2.19,0.096-4.501,0.105-6.419-0.956c-5.126-2.838-11.312-3.406-16.66-5.765
		c-0.601-0.265-1.236-0.425-1.885-0.528c-0.212-0.033-0.43-0.043-0.624,0.042c-0.482,0.211-0.562,0.85-0.567,1.376
		C209.139,224.637,209.538,226.693,209.675,228.346z"/>
</g>
<g id="&#xB808;&#xC774;&#xC5B4;_13">
	<path style="fill:none;stroke:#000000;stroke-miterlimit:10;" d="M194.915,164.191c1.124,0.617,1.784,1.853,2.083,3.1
		s0.299,2.543,0.454,3.816"/>
</g>
<g id="&#xB808;&#xC774;&#xC5B4;_14">
	<path style="fill:none;stroke:#000000;stroke-miterlimit:10;" d="M320.625,51.463c0.026,0.727-0.796,1.249-1.521,1.19
		c-0.725-0.059-1.349-0.514-1.931-0.951c-2.208-1.66-4.416-3.321-6.624-4.981c-0.97-0.73-1.963-1.471-3.115-1.856
		c-0.881-0.294-1.828-0.369-2.693-0.706c-2.655-1.036-3.77-4.116-4.58-6.848c-1.058-3.57-0.677-7.668,0.501-11.2
		c0.271-0.811,0.599-1.621,1.148-2.278c0.861-1.031,2.166-1.574,3.449-1.971c3.098-0.961,6.443-1.29,9.602-0.551
		s6.11,2.616,7.801,5.384c0.36,0.589,0.664,1.216,1.095,1.755c1.063,1.329,2.746,1.957,4.297,2.657
		c0.482,0.218,0.977,0.462,1.303,0.879c0.326,0.417,0.43,1.055,0.098,1.467c-0.236,0.292-0.626,0.406-0.925,0.634
		c-0.976,0.745-0.642,2.266-0.212,3.417c0.759,2.032,1.836,4.119,1.285,6.217c-0.132,0.502-0.38,1.009-0.83,1.266
		c-0.352,0.201-0.776,0.22-1.182,0.234c-1.639,0.057-3.277,0.114-4.916,0.171c-0.476,0.017-1.006,0.057-1.326,0.409
		c-0.413,0.454-0.261,1.16-0.173,1.768C321.354,48.794,320.58,50.227,320.625,51.463z"/>
</g>
<g id="&#xB808;&#xC774;&#xC5B4;_15">
	<path style="fill:none;stroke:#000000;stroke-miterlimit:10;" d="M319.283,45.598c0.126,0,0.252,0,0.378,0
		c1.231,0,2.408-0.195,3.638-0.222"/>
</g>
<g id="&#xB808;&#xC774;&#xC5B4;_16">
	<path style="fill:none;stroke:#000000;stroke-miterlimit:10;" d="M262.742,123.928c0.15-0.678,0.272-1.378,0.165-2.064
		s-0.482-1.365-1.103-1.674c-1.205-0.601-2.687,0.503-3.029,1.806s0.078,2.667,0.412,3.972c0.17,0.664,0.286,1.462-0.191,1.954
		c-0.336,0.346-0.861,0.417-1.343,0.419c-2.242,0.011-4.417-1.056-5.98-2.663s-2.548-3.716-3.052-5.9
		c-0.231-0.999-0.358-2.084,0.056-3.022c0.746-1.689,2.966-2.332,3.735-4.011c1.547-3.375,5.289-5.314,7.847-8.004
		s4.874-5.712,6.105-9.215c1.971-5.607,4.676-10.425,7.706-15.538c0.474-0.8,0.958-1.599,1.543-2.323
		c1.477-1.827,3.601-3.12,5.902-3.595c2.673-0.552,4.321-2.863,6.282-4.761c2.043-1.978,4.085-3.955,6.128-5.933
		c2.237-2.165,4.483-4.342,6.362-6.824c0.846-1.118,1.622-2.302,2.645-3.262c2.314-2.172,5.852-2.941,8.858-1.925
		c2.22,0.75,4.223,1.362,5.958,2.937c0.967,0.877,1.88,1.858,2.407,3.052c0.574,1.299,0.651,2.755,0.711,4.174
		c0.106,2.483,0.158,5.098-0.999,7.298c-1.26,2.396-3.733,3.879-6.162,5.074c-2.807,1.381-5.721,2.544-8.708,3.474
		c-2.973,0.926-4.981,3.452-8.003,4.2c-1.405,0.348-2.854,0.526-4.228,0.983s-2.709,1.241-3.446,2.488
		c-2.384,4.036-6.172,6.925-8.843,10.777c-3.196,4.609-7.618,8.448-11.872,12.103c-1.122,0.964-2.268,2.077-2.541,3.531
		c-0.3,1.597-1.343,3.158-1.308,4.782c0.013,0.59,0.116,1.174,0.186,1.76c0.192,1.604,0.138,3.238-0.161,4.826
		c-0.113,0.598-0.298,1.247-0.808,1.58C263.463,124.735,262.61,124.522,262.742,123.928z"/>
	<path style="fill:none;stroke:#000000;stroke-miterlimit:10;" d="M304.094,43.733c-0.761,0.374-1.521,0.748-2.282,1.122
		c-1.405,0.691-2.821,1.389-4.057,2.349c-1.237,0.96-2.297,2.214-2.761,3.709c-0.731,2.351-1.944,4.294-2.311,6.728
		c-0.367,2.434-0.442,4.904-0.763,7.344"/>
	<path style="fill:none;stroke:#000000;stroke-miterlimit:10;" d="M319.083,52.892c0.423,2.501,1.26,4.93,2.468,7.16
		c1.49,2.752,3.527,5.18,4.998,7.943c1.471,2.762,2.348,6.077,1.293,9.023c-1.099,3.07-1.491,5.921-2.174,9.109
		c-0.348,1.622-0.476,3.282-0.603,4.937c-0.306,3.987-0.611,7.974-0.917,11.961c-0.204,2.657-0.534,5.478-1.306,8.029
		c-0.31,1.026-0.676,2.044-0.804,3.108c-0.167,1.387,0.076,2.787,0.319,4.163c0.233,1.324,0.467,2.649,0.7,3.973
		c1.384,7.85,6.398,14.619,11.72,20.553c0.762,0.85,1.572,1.677,2.117,2.679c0.545,1.003,0.795,2.235,0.365,3.292
		c-2.294,5.636-8.319,10.385-8.605,16.463c-4.497-2.373-8.428-5.672-12.32-8.944c-2.955-2.484-5.91-4.969-8.865-7.453
		c-1.309-1.101-3.179-2.244-4.58-1.262c-0.448,0.314-0.743,0.799-0.998,1.284c-2.108,4.014-2.253,8.811-4.203,12.905
		c-0.962,2.019-2.355,3.831-4.06,5.278c-0.175,0.149-0.363,0.298-0.588,0.346c-0.209,0.044-0.425-0.005-0.633-0.055
		c-1.8-0.427-3.6-0.854-5.4-1.281c-3.326-0.789-6.763-4.268-10.106-4.984c-0.614-0.131-1.289-0.27-1.678-0.762
		c-0.477-0.605-0.322-1.476-0.143-2.226c1.084-4.544,2.168-9.089,3.252-13.633c0.489-2.049,0.98-4.106,1.734-6.073
		c0.869-2.264,2.075-4.381,3.276-6.488c2.591-4.543,1.405-10.02,2.214-15.186c0.144-0.921,0.293-1.856,0.684-2.703
		c0.511-1.106,1.4-1.983,2.251-2.855c1.776-1.821,3.489-3.766,4.556-6.075c1.067-2.309,1.425-5.052,0.45-7.402
		c-1.993-4.803,0.138-10.312,0.385-15.506"/>
</g>
<g id="&#xB808;&#xC774;&#xC5B4;_17">
</g>
<g id="&#xB808;&#xC774;&#xC5B4;_18">
	<path style="fill:none;stroke:#000000;stroke-miterlimit:10;" d="M360.295,223.721c-0.276-0.129-0.563-0.278-0.866-0.247
		c-0.736,0.074-0.94,1.041-0.939,1.781c0.002,2.256,0.114,4.513,0.336,6.758c0.17,1.721,0.569,3.69,2.089,4.513
		c1.286,0.696,2.855,0.283,4.29,0.003c3.74-0.729,7.595-0.419,11.4-0.607c4.462-0.221,8.874-1.13,13.34-1.261
		c1.502-0.044,3.171-0.062,4.262-1.095c0.83-0.785,1.119-2.032,0.927-3.158c-0.193-1.126-0.812-2.141-1.567-2.999
		c-0.576-0.654-1.25-1.242-2.05-1.587c-0.769-0.331-1.618-0.423-2.453-0.49c-2.027-0.163-4.064-0.201-6.095-0.115
		c-2.071,0.088-4.188,0.3-6.183-0.261c-1.701-0.478-3.211-1.494-4.907-1.992c-1.969-0.578-4.143-0.39-6.003,0.467
		c-0.804,0.37-1.386,0.896-2.277,0.982C362.508,224.517,361.273,224.177,360.295,223.721z"/>
</g>
<g id="&#xB808;&#xC774;&#xC5B4;_19">
	<path style="fill:none;stroke:#000000;stroke-miterlimit:10;" d="M328.528,165.108c0.664,1.613,3.247,1.089,4.528,2.272
		c0.842,0.777,0.893,2.065,0.92,3.211c0.171,7.232,1.77,14.428,4.679,21.051c0.684,1.557,1.44,3.085,2.346,4.524
		c0.89,1.414,1.919,2.734,2.947,4.052c1.666,2.136,3.331,4.272,4.997,6.408c-0.041,1.878,0.619,3.879,1.235,5.653
		c0.811,2.337,1.716,4.662,3.045,6.749c1.329,2.086,3.115,3.938,5.342,5.014"/>
</g>
<g id="&#xB808;&#xC774;&#xC5B4;_20">
	<path style="fill:none;stroke:#000000;stroke-miterlimit:10;" d="M337.5,148.5c1.354,2.934,3.502,5.467,5.195,8.22
		c1.488,2.419,3.104,4.762,4.461,7.257c1.893,3.481,3.27,7.242,4.071,11.123c0.307,1.487,0.535,3.009,1.152,4.395
		c0.5,1.122,1.238,2.118,1.904,3.15c2.398,3.712,3.905,7.996,4.359,12.392c0.661,6.391,1.608,13.102,3.609,19.207
		c0.415,1.267,0.877,2.535,1.618,3.644c1.259,1.886,3.22,3.166,5.127,4.394"/>
</g>
<g id="&#xB808;&#xC774;&#xC5B4;_21">
	<path style="fill:none;stroke:#000000;stroke-miterlimit:10;" d="M204.784,151.538c6.679-0.634,12.393-5.031,18.878-6.75
		c1.105-0.293,2.305-0.502,3.369-0.082s1.862,1.689,1.391,2.731c-0.254,0.56-0.795,0.926-1.312,1.259
		c-5.724,3.691-11.886,7.154-18.666,7.805"/>
</g>
<g id="&#xB808;&#xC774;&#xC5B4;_22">
	<path style="fill:none;stroke:#000000;stroke-miterlimit:10;" d="M290.817,167.136c-0.97,1.002-0.902,2.573-1.173,3.942
		c-0.399,2.012-1.623,3.751-2.865,5.383c-1.657,2.177-3.401,4.287-5.227,6.323c-1.588,1.772-3.616,3.634-5.978,3.35
		c-1.786-0.214-3.163-1.603-4.488-2.82c-3.234-2.972-7.014-5.348-11.095-6.974c-2.313-0.921-4.722-1.604-6.979-2.653
		c-5.946-2.764-10.576-7.937-16.673-10.351c-3.318-1.314-6.4-3.996-9.754-5.217c-3.392-1.234-7.057-1.899-10.072-3.885"/>
	<path style="fill:none;stroke:#000000;stroke-miterlimit:10;" d="M227.434,148.282c4.154,0.98,8.15,2.633,11.782,4.874
		c0.767,0.473,1.52,0.974,2.338,1.352c1.061,0.491,2.206,0.766,3.329,1.09c2.41,0.694,4.745,1.62,7.077,2.545
		c6.113,2.425,12.226,4.851,18.339,7.276c1.784,0.708,3.971,1.368,5.482,0.185c1.234-0.966,1.421-2.731,1.508-4.297"/>
</g>
<g id="&#xB808;&#xC774;&#xC5B4;_23">
</g>
<g id="&#xB808;&#xC774;&#xC5B4;_24">
	<path style="fill:none;stroke:#000000;stroke-miterlimit:10;" d="M277.902,167.809c-0.213-0.117-0.427-0.233-0.64-0.35
		c-0.999-0.546-2.165-0.871-3.271-1.139c-0.514-0.125-1.046-0.155-1.574-0.185"/>
</g>
<g id="&#xB808;&#xC774;&#xC5B4;_25">
	<path style="fill:none;stroke:#000000;stroke-miterlimit:10;" d="M325.793,86.302c3.179-0.443,6.326,0.756,9.489,1.303
		c3.105,0.536,6.279,0.443,9.429,0.348c0.929-0.028,1.882-0.061,2.741-0.417c0.909-0.378,1.65-1.094,2.57-1.446
		s2.209-0.142,2.514,0.794c0.142,0.436,0.032,0.927,0.191,1.358c0.332,0.9,1.546,1.014,2.501,0.925
		c0.575-0.054,1.188-0.141,1.619-0.525c0.671-0.597,0.703-1.736,1.452-2.232c0.61-0.404,1.478-0.18,2.004,0.328
		c0.526,0.508,0.783,1.23,0.981,1.935c0.473,1.686,0.707,3.484,0.306,5.189c-0.401,1.705-1.517,3.304-3.139,3.965
		c-0.859,0.349-1.801,0.423-2.726,0.479c-1.348,0.082-2.698,0.138-4.048,0.166c-1.628,0.034-3.28,0.026-4.851-0.404
		c-1.086-0.297-2.108-0.789-3.185-1.115c-1.985-0.601-4.093-0.623-6.167-0.622c-4.298,0.002-8.595,0.082-12.89,0.241"/>
</g>
</svg>
