<?xml version="1.0" encoding="iso-8859-1"?>
<!-- Generator: Adobe Illustrator 24.0.1, SVG Export Plug-In . SVG Version: 6.00 Build 0)  -->
<svg version="1.1" xmlns="http://www.w3.org/2000/svg" xmlns:xlink="http://www.w3.org/1999/xlink" x="0px" y="0px"
	 viewBox="0 0 464 261" style="enable-background:new 0 0 464 261;" xml:space="preserve">
<g id="&#xB808;&#xC774;&#xC5B4;_1" style="display:none;">
	<image style="display:inline;overflow:visible;" width="464" height="261" xlink:href="../30.png" >
	</image>
</g>
<g id="&#xB808;&#xC774;&#xC5B4;_2">
	<g>
		<path d="M163.409,13.734c1.092,0,2.201,0.078,3.273,0.153c2.604,0.182,5.556,0.389,7.785,1.889
			c1.915,1.289,3.106,3.366,4.366,5.564c0.453,0.79,0.922,1.608,1.427,2.386l0.229,0.348c0.409,0.619,0.796,1.203,0.985,1.818
			c0.162,0.528,0.159,1.229-0.21,1.603c-0.123,0.124-0.316,0.246-0.52,0.374c-0.334,0.21-0.713,0.448-1.031,0.832
			c-0.702,0.845-0.831,2.136-0.336,3.369c0.23,0.573,0.544,1.062,0.847,1.535c0.154,0.239,0.308,0.479,0.446,0.727
			c0.665,1.198,0.911,2.659,0.677,4.008c-0.087,0.502-0.224,0.855-0.417,1.08c-0.435,0.508-1.257,0.572-2.127,0.639
			c-0.161,0.013-0.319,0.025-0.475,0.04c-0.153-0.038-0.498-0.187-0.711-0.278c-0.552-0.237-1.028-0.441-1.473-0.441
			c-0.147,0-0.287,0.022-0.417,0.066c-0.861,0.29-1.079,1.084-1.21,1.558c-0.022,0.08-0.052,0.189-0.079,0.267
			c-0.389,0.092-0.818,0.138-1.275,0.138c-3.048,0-6.551-1.966-7.916-2.812c-1.545-0.957-2.594-1.879-3.302-2.902
			c-0.473-0.684-0.83-1.465-1.209-2.293c-0.544-1.19-1.106-2.42-2.067-3.444c-0.525-0.559-1.122-1.005-1.699-1.437
			c-0.76-0.568-1.478-1.104-1.888-1.805c-0.497-0.849-0.558-1.958-0.582-3.214c-0.05-2.534,0.01-4.959,1.273-6.767
			c1.3-1.861,3.544-2.529,4.766-2.761C161.387,13.812,162.326,13.734,163.409,13.734 M163.409,12.734
			c-1.027,0-2.049,0.066-3.058,0.257c-2.103,0.4-4.173,1.416-5.399,3.171c-1.457,2.086-1.503,4.815-1.453,7.36
			c0.025,1.27,0.077,2.602,0.719,3.699c0.856,1.462,2.561,2.186,3.721,3.421c1.479,1.576,1.953,3.844,3.183,5.621
			c0.918,1.326,2.227,2.334,3.598,3.184c2.186,1.354,5.54,2.961,8.443,2.961c0.577,0,1.137-0.064,1.665-0.205
			c0.827-0.222,0.479-1.561,1.218-1.81c0.028-0.009,0.061-0.014,0.098-0.014c0.48,0,1.683,0.724,2.168,0.724
			c0.015,0,0.029-0.001,0.042-0.002c1.152-0.118,2.506-0.065,3.335-1.03c0.371-0.432,0.546-0.999,0.643-1.56
			c0.275-1.584-0.007-3.259-0.788-4.665c-0.402-0.724-0.931-1.38-1.24-2.149c-0.308-0.768-0.352-1.721,0.177-2.358
			c0.402-0.484,1.051-0.695,1.494-1.142c0.649-0.657,0.725-1.715,0.455-2.599s-0.828-1.644-1.331-2.419
			c-1.874-2.885-3.219-6.313-6.074-8.235c-2.386-1.606-5.404-1.856-8.273-2.057C165.642,12.811,164.523,12.734,163.409,12.734
			L163.409,12.734z"/>
	</g>
	<path style="fill:none;stroke:#000000;stroke-miterlimit:10;" d="M173.341,37.129c0.576-0.022,1.129,0.268,1.542,0.669
		c0.414,0.401,0.709,0.905,0.992,1.407c0.11,0.196,0.088,0.428,0.099,0.652"/>
	<path style="fill:none;stroke:#000000;stroke-miterlimit:10;" d="M175.068,37.918c0.2,0.913,0.127,1.861,0.054,2.793"/>
</g>
<g id="&#xB808;&#xC774;&#xC5B4;_3">
	<path style="fill:none;stroke:#000000;stroke-miterlimit:10;" d="M156.061,50.268c0.697-1.907,1.499-3.948,3.212-5.039
		c0.861-0.548,1.874-0.798,2.866-1.039c1.402-0.34,2.887-0.679,4.265-0.254c1.326,0.41,2.347,1.471,3.159,2.597
		c2.461,3.412,3.51,7.81,2.854,11.965c-0.181,1.146-0.491,2.285-1.059,3.296c-0.424,0.753-0.984,1.423-1.4,2.18
		c-1.598,2.903-0.904,6.681-2.597,9.529c-0.614,1.033-1.558,2.197-1.036,3.28c-0.624,2.915,0.39,6.234,2.096,8.679
		s4.096,4.327,6.566,5.997c2.275,1.539,4.737,2.961,7.462,3.31c1.832,0.235,3.722-0.025,5.516,0.415
		c1.277,0.313,2.465,0.983,3.394,1.913c0.352,0.353,0.679,0.765,0.767,1.256c0.088,0.491-0.136,1.066-0.605,1.234
		c-0.39,0.139-0.814-0.026-1.226-0.074c-0.411-0.048-0.938,0.132-0.964,0.545c-0.02,0.313,0.269,0.557,0.551,0.692
		c1.252,0.599,2.927,0.2,3.946,1.143c0.608,0.562,0.784,1.441,0.887,2.263c0.133,1.063,0.199,2.134,0.197,3.205
		c-0.003,1.266-0.162,2.667-1.099,3.519c-1.399,1.271-3.612,0.619-5.345-0.135c-10.632-4.63-20.635-10.567-30.606-16.487
		c-1.4-0.831-2.804-1.666-4.075-2.683c-1.417-1.135-2.689-2.55-3.234-4.282c-0.476-1.511-0.363-3.135-0.246-4.715
		c0.174-2.336,0.347-4.672,0.521-7.008c0.283-3.81,1.689-7.554,2.015-11.36c0.152-1.767,0.162-3.547,0.395-5.305
		C153.629,55.943,155.035,53.075,156.061,50.268z"/>
</g>
<g id="&#xB808;&#xC774;&#xC5B4;_4">
	<path style="fill:none;stroke:#000000;stroke-miterlimit:10;" d="M160.366,34.563c-1.446,1.04-2.891,2.08-4.337,3.12
		c-0.88,0.633-1.77,1.275-2.458,2.112c-0.9,1.093-1.404,2.451-1.892,3.781c-0.569,1.55-1.137,3.1-1.706,4.65
		c-2.015,5.494-3.564,11.127-5.005,16.799c-0.563,2.215-1.128,4.445-1.283,6.725c-0.416,6.117,2.128,12.344,0.637,18.292
		c-0.369,1.473-0.98,2.883-1.259,4.375c-0.378,2.015-0.138,4.088-0.194,6.137c-0.057,2.049-0.477,4.223-1.899,5.699
		c-1.923,1.997-3.683,3.998-4.549,6.632c-0.693,2.111-0.775,4.367-0.824,6.589c-0.135,6.046-0.118,12.292-2.509,17.847
		c-1.919,4.459-0.045,9.737-0.118,14.591c-0.009,0.586-0.002,1.222,0.356,1.685c0.231,0.299,0.577,0.481,0.912,0.655
		c4.138,2.149,8.275,4.297,12.413,6.446c1.462,0.759,3.206,1.527,4.683,0.798c1.781-0.879,1.981-3.261,2.49-5.181
		c0.75-2.831,2.71-5.321,5.288-6.712c0.441-0.238,0.924-0.45,1.423-0.408c0.372,0.031,0.718,0.201,1.039,0.391
		c2.477,1.459,3.979,4.092,5.992,6.144c0.53,0.54,1.172,1.072,1.929,1.073c0.594,0.001,1.132-0.329,1.633-0.648
		c4.755-3.026,9.51-6.052,14.265-9.078c0.783-0.499,1.615-1.054,1.949-1.92c0.293-0.758,0.145-1.61-0.055-2.398
		c-0.633-2.494-1.752-4.864-3.277-6.937c-3.706-5.039-3.447-11.952-7.626-16.605c-1.433-1.596-3.386-2.963-3.816-5.064
		c-0.171-0.833-0.074-1.696,0.041-2.538c0.356-2.6,0.883-5.177,1.576-7.707"/>
</g>
<g id="&#xB808;&#xC774;&#xC5B4;_5">
	<path style="fill:none;stroke:#000000;stroke-miterlimit:10;" d="M178.072,92.965c0.988-8.339,1.801-16.7,2.439-25.073
		c0.164-2.152,0.316-4.321,0.06-6.465c-0.247-2.072-0.871-4.079-1.492-6.071c-1.371-4.4-2.743-8.801-4.114-13.201"/>
</g>
<g id="&#xB808;&#xC774;&#xC5B4;_6">
	<path style="fill:none;stroke:#000000;stroke-miterlimit:10;" d="M96.666,138.383c-0.728,0.518-1.682,0.562-2.576,0.568
		c-6.555,0.043-13.066-0.967-19.543-1.975c-0.665-0.103-1.369-0.224-1.876-0.667c1.122-2.221,2.244-4.441,3.366-6.662
		c0.249-0.492,0.512-1.002,0.95-1.337c0.652-0.498,1.543-0.505,2.362-0.467c2.96,0.135,5.913,0.566,8.874,0.453
		c2.779-0.107,5.539-0.698,8.118-1.739c1.768-0.714,3.837-1.625,5.455-0.617c0.785,0.489,1.262,1.337,1.701,2.151
		c0.624,1.157,1.25,2.357,1.382,3.665c0.132,1.308-0.348,2.765-1.489,3.418c-1.2,0.687-2.738,0.511-3.991,1.038
		C98.192,136.719,97.712,137.64,96.666,138.383z"/>
</g>
<g id="&#xB808;&#xC774;&#xC5B4;_7">
	<path style="fill:none;stroke:#000000;stroke-miterlimit:10;" d="M96.623,138.716c2.597,2.868,5.2,5.732,7.806,8.592
		c3.655,4.01,7.358,8.047,11.8,11.164c0.65,0.456,1.51,1.376,1.924,2.054c3.867,6.341,9.678,11.295,15.408,16.062
		c1.765,1.468,3.74,3.01,6.036,2.996c2.315-0.014,4.281-1.605,6.037-3.114c1.837-1.578,2.848-2.896,4.451-4.548
		c0.26-0.268,0.48-0.575,0.638-0.913c0.19-0.406,0.478-0.997,0.777-1.509c1.713-2.933,0.558-5.633,1-9"/>
</g>
<g id="&#xB808;&#xC774;&#xC5B4;_8">
	<path style="fill:none;stroke:#000000;stroke-miterlimit:10;" d="M104.404,134.518c1.989,0.121,2.857,2.496,4.199,3.969
		c1.335,1.465,3.321,2.103,5.154,2.856c5.018,2.063,9.496,5.423,12.88,9.664c0.938,1.175,1.816,2.439,3.044,3.306
		c1.228,0.868,3.508,0.924,4.819,0.187"/>
</g>
<g id="&#xB808;&#xC774;&#xC5B4;_9">
	<path style="fill:none;stroke:#000000;stroke-miterlimit:10;" d="M194.781,220.745c0.284,2.045,0.567,4.09,0.851,6.134
		c0.087,0.626,0.195,1.296,0.633,1.751c0.325,0.336,0.786,0.502,1.24,0.618c1.907,0.485,3.966,0.272,5.808,0.963
		c0.881,0.331,1.679,0.858,2.558,1.193c1.276,0.486,2.667,0.548,4.031,0.604c5.496,0.225,10.993,0.433,16.491,0.624
		c0.36,0.012,0.746,0.018,1.045-0.181c0.35-0.233,0.483-0.68,0.532-1.097c0.24-2.055-1.011-4.055-2.674-5.285
		s-3.694-1.836-5.679-2.421c-3.177-0.935-6.354-1.871-9.531-2.806c-1.746-0.514-3.581-1.082-4.819-2.416
		c-0.564-0.607-1.065-1.405-1.882-1.54c-0.89-0.148-1.668,0.568-2.528,0.841C197.799,218.699,194.024,215.292,194.781,220.745z"/>
</g>
<g id="&#xB808;&#xC774;&#xC5B4;_10">
	<path style="fill:none;stroke:#000000;stroke-miterlimit:10;" d="M169.732,156.64c1.233,1.594,3.47,2.01,5.009,3.311
		c1.798,1.52,2.402,4.026,2.568,6.375c0.382,5.411-0.97,11.068,0.919,16.153c1.161,3.126,4.492,5.495,6.026,8.455
		c0.913,1.762,1.345,3.725,1.929,5.621c0.797,2.588,1.888,5.075,2.976,7.555c1.887,4.3,4.455,9.09,6.341,13.39"/>
</g>
<g id="&#xB808;&#xC774;&#xC5B4;_11">
	<path style="fill:none;stroke:#000000;stroke-miterlimit:10;" d="M185.995,146.724c-0.584,1.809,0.27,3.784,1.44,5.281
		c1.17,1.497,2.669,2.734,3.694,4.334c1.674,2.613,1.9,5.88,1.86,8.982c-0.041,3.103-0.29,6.276,0.596,9.249
		c2.053,6.888,2.652,13.729,3.343,20.883c0.438,4.531,0.617,9.246,2.703,13.292c1.448,2.808,3.746,5.801,4.868,8.754"/>
</g>
<g id="&#xB808;&#xC774;&#xC5B4;_12">
	<path style="fill:none;stroke:#000000;stroke-miterlimit:10;" d="M308.999,39.03c-2.638-1.531-4.912-3.604-7.16-5.666
		c-1.968-1.805-4.033-3.781-4.617-6.387c-0.242-1.079-0.209-2.199-0.175-3.304c0.085-2.776,0.247-5.768,1.988-7.931
		c2.243-2.787,6.317-3.224,9.877-2.866c4.227,0.425,8.644,1.844,11.251,5.199c1.756,2.259,2.574,5.248,4.76,7.094
		c0.557,0.471,1.203,0.867,1.592,1.484c0.389,0.617,0.4,1.563-0.212,1.96c-0.777,0.503-2.041-0.148-2.636,0.561
		c-0.269,0.321-0.257,0.786-0.214,1.202c0.127,1.219,0.401,2.423,0.813,3.578c0.329,0.921,0.749,1.825,0.856,2.796
		c0.108,0.972-0.169,2.061-0.974,2.616c-1.002,0.691-2.37,0.318-3.488-0.162c-0.427-0.183-0.882-0.383-1.338-0.295
		c-1.051,0.202-0.754,1.187-1.301,1.761c-0.653,0.685-1.285,0.616-2.277,0.557C313.36,41.084,311.049,40.22,308.999,39.03z"/>
</g>
<g id="&#xB808;&#xC774;&#xC5B4;_13">
	<path style="fill:none;stroke:#000000;stroke-miterlimit:10;" d="M315.456,38.416c0.6-0.07,1.214-0.021,1.796,0.141
		c1.264,0.353,2.622,0.057,3.776,0.682c0.165,0.089,0.386,0.165,0.558,0.24"/>
</g>
<g id="&#xB808;&#xC774;&#xC5B4;_14">
	<path style="fill:none;stroke:#000000;stroke-miterlimit:10;" d="M289.288,56.347c2.952-2.468,5.904-4.935,8.856-7.403
		c0.872-0.729,1.759-1.468,2.799-1.928c1.127-0.499,2.377-0.645,3.608-0.71c2.398-0.126,4.867,0.049,7.063,1.018
		s4.092,2.835,4.636,5.174c0.265,1.141,0.204,2.332,0.086,3.498c-0.253,2.492-0.793,5.038-2.232,7.088
		c-1.258,1.792-3.581,2.524-5.602,3.415c-1.228,0.542-2.029,1.467-3.32,1.788c-3.416,0.847-6.974,1.222-10.221,2.58
		c-1.979,0.828-3.824,2.015-5.908,2.523c-1.764,0.43-3.614,0.35-5.398,0.686c-0.336,0.063-0.681,0.147-0.949,0.359
		c-1.059,0.84-0.103,2.781-0.989,3.801c-3.285,3.784-8.217,6.349-12.419,9.079c-1.729,1.123-3.529,2.232-4.783,3.869
		c-0.887,1.157-1.455,2.524-1.959,3.892c-1.169,3.177-2.042,6.462-2.605,9.8c-0.442,2.619-1.883,4.858-2.366,7.47
		c-0.458,2.475-0.945,5.288-3.056,6.658c-0.807-0.486-1.013-1.571-0.947-2.511c0.066-0.94,0.318-1.893,0.105-2.811
		s-1.15-1.772-2.035-1.448c-0.83,0.304-1.044,1.357-1.13,2.236c-0.117,1.187-0.234,2.374-0.351,3.561
		c-0.031,0.313-0.067,0.642-0.248,0.9c-0.471,0.67-1.513,0.435-2.242,0.062c-3.1-1.586-5.516-4.458-6.549-7.784
		c-0.427-1.376-0.616-2.905-0.058-4.234c0.529-1.257,1.643-2.156,2.714-3c1.904-1.5,3.808-3,5.712-4.5
		c1.173-0.924,2.375-1.882,3.112-3.18c0.749-1.322,0.948-2.875,1.435-4.315s1.431-2.899,2.909-3.251
		c5.565-5.875,11.095-12.515,15.763-19.125c0.638-0.903,1.266-1.828,2.082-2.574c0.946-0.865,2.105-1.455,3.183-2.15
		C281.781,62.43,285.818,59.248,289.288,56.347z"/>
</g>
<g id="&#xB808;&#xC774;&#xC5B4;_15">
	<path style="fill:none;stroke:#000000;stroke-miterlimit:10;" d="M308.362,66.482"/>
	<path style="fill:none;stroke:#000000;stroke-miterlimit:10;" d="M304.306,66.37"/>
</g>
<g id="&#xB808;&#xC774;&#xC5B4;_16">
	<path style="fill:none;stroke:#000000;stroke-miterlimit:10;" d="M286.951,58.164c0.182-2.738,0.387-5.565,1.648-8.001
		c0.905-1.749,2.302-3.188,3.718-4.558c2.803-2.711,5.761-5.26,8.857-7.631c1.111-0.851,2.422-1.724,3.796-1.461"/>
</g>
<g id="&#xB808;&#xC774;&#xC5B4;_17">
	<path style="fill:none;stroke:#000000;stroke-miterlimit:10;" d="M176.72,46.902c4.307,2.394,6.842,6.993,9.01,11.418
		c2.168,4.426,4.351,9.114,8.324,12.03c1.3,0.954,2.749,1.682,4.133,2.511c2.07,1.239,3.995,2.702,6.01,4.027
		c5.952,3.913,12.622,6.575,19.239,9.211c3.285,1.309,6.679,3.051,7.52,6.486c0.368,1.502,0.15,3.132,0.724,4.568
		c0.464,1.159,1.391,2.058,2.293,2.921c2.17,2.075,4.34,4.151,6.511,6.226"/>
</g>
<g id="&#xB808;&#xC774;&#xC5B4;_18">
	<path style="fill:none;stroke:#000000;stroke-miterlimit:10;" d="M178.935,77.927c4.475,0.518,8.813,2.174,12.494,4.77
		c1.334,0.941,2.583,2.003,3.974,2.856c1.813,1.112,3.827,1.847,5.826,2.574c3.847,1.4,7.701,2.801,11.661,3.839
		c1.119,0.293,2.265,0.565,3.262,1.153c0.996,0.589,1.84,1.562,1.956,2.714c0.265,2.632,1.595,5.448,4.043,6.45
		c3.08,1.259,6.811,0.195,9.757,1.743c1.564,0.822,2.68,2.272,3.939,3.512s2.881,2.353,4.641,2.188"/>
</g>
<g id="&#xB808;&#xC774;&#xC5B4;_19">
	<path style="fill:none;stroke:#000000;stroke-miterlimit:10;" d="M288.519,73.587c-0.388,2.904,0.773,5.764,1.209,8.661
		c0.453,3.014,0.107,6.144-0.996,8.985c-0.405,1.045-0.912,2.058-1.163,3.15c-0.547,2.382,0.177,4.89-0.167,7.309
		c-0.722,5.08-5.875,8.6-6.823,13.643c-0.453,2.409-1.945,4.248-2.929,6.493c-0.724,1.652-0.798,3.505-0.862,5.308
		c-0.312,8.866-0.624,17.732-0.936,26.598c1.579,0.989,3.642,0.611,5.428,1.144c1.838,0.549,3.235,2.013,4.541,3.418
		c2.071,2.228,5.347,2.702,7.724,4.6c0.379,0.302,0.801,0.631,1.285,0.603c0.689-0.041,1.107-0.76,1.381-1.394
		c1.777-4.111,2.866-8.518,3.208-12.983c0.018-0.236,0.041-0.49,0.194-0.67c0.188-0.221,0.51-0.261,0.8-0.256
		c1.308,0.022,2.525,0.645,3.647,1.316c2.113,1.262,4.092,2.747,5.895,4.423c1.01,0.939,2.128,2.008,3.508,1.984
		c1.28-0.022,2.318-0.981,3.288-1.816c3.007-2.585,6.602-4.482,10.433-5.506c0.55-0.147,1.165-0.32,1.447-0.815
		c0.162-0.284,0.18-0.627,0.168-0.954c-0.044-1.227-0.447-2.408-0.846-3.569c-0.905-2.631-1.809-5.263-2.714-7.894
		c-2.089-6.077-2.532-12.636-4.917-18.602c-0.625-1.563-1.263-3.144-2.255-4.504c-0.715-0.98-1.609-1.837-2.187-2.904
		s-0.78-2.464-0.073-3.451c0.014-3.387,0.715-7.217,1.864-10.404c0.551-1.528,1.234-3.038,1.399-4.654
		c0.897-8.784,5.78-17.053,4.425-25.779c-1.256-8.086-2.39-16.287-6.151-23.555"/>
</g>
<g id="&#xB808;&#xC774;&#xC5B4;_20">
	<path style="fill:none;stroke:#000000;stroke-miterlimit:10;" d="M294.644,163.439c-1.208,2.383-0.476,5.282-1.07,7.887
		c-0.369,1.618-1.24,3.073-2.167,4.45c-0.861,1.278-1.782,2.516-2.758,3.708c-0.884,1.079-1.886,2.168-3.222,2.567
		c-0.74,0.221-1.531,0.21-2.297,0.118c-3.178-0.38-6.066-2.108-8.425-4.273c-2.358-2.164-4.263-4.765-6.236-7.286
		c-5.633-7.196-11.945-13.861-18.819-19.883c-3.437-3.011-7.014-5.863-10.718-8.539c-1.906-1.377-2.876-1.564-5.078-2.132
		c-1.966-0.507-3.751-1.553-5.72-2.05c-2.97-0.749-6.029-1.149-9.092-1.182c-0.607-0.007-1.3-0.037-1.687-0.504
		c-0.328-0.395-0.314-0.963-0.282-1.476c0.135-2.2,0.547-4.823,2.558-5.724c0.782-0.35,1.67-0.355,2.527-0.353
		c4.227,0.009,8.454,0.018,12.682,0.028c2.361,0.005,4.935-0.063,6.751-1.571c0.58-0.482,1.088-1.113,1.815-1.318
		c1.055-0.296,2.171,0.473,2.654,1.456c0.483,0.983,0.494,2.122,0.516,3.217c0.022,1.095,0.079,2.242,0.636,3.185
		c0.863,1.461,1.188,2.038,2.635,3.161c1.63,1.265,3.244,2.548,4.85,3.842c3.213,2.589,6.387,5.224,9.562,7.859
		c1.373,1.139,2.745,2.278,4.118,3.418c1.14,0.946,2.302,1.906,3.667,2.482c1.689,0.713,3.639,0.785,5.376,0.198"/>
</g>
<g id="&#xB808;&#xC774;&#xC5B4;_21">
	<path style="fill:none;stroke:#000000;stroke-miterlimit:10;" d="M339.261,220.782c-0.038,1.215,0.377,2.394,0.786,3.539
		c0.406,1.135,0.812,2.271,1.217,3.406c0.183,0.512,0.391,1.058,0.84,1.365c0.796,0.544,1.853,0.078,2.794-0.13
		c1.898-0.42,3.837,0.307,5.675,0.944c5.552,1.924,11.354,3.11,17.21,3.606c1.235,0.105,2.646,0.116,3.507-0.776
		c0.995-1.03,0.702-2.811-0.205-3.919c-0.608-0.743-1.426-1.28-2.237-1.795c-5.443-3.459-11.169-6.471-17.102-8.998
		c-1.167-0.497-2.363-0.98-3.625-1.109C345.171,216.616,339.384,216.857,339.261,220.782z"/>
</g>
<g id="&#xB808;&#xC774;&#xC5B4;_22">
</g>
<g id="&#xB808;&#xC774;&#xC5B4;_23">
	<path style="fill:none;stroke:#000000;stroke-miterlimit:10;" d="M312.783,156.276c1.329,1.796,3.111,3.255,5.136,4.201
		c0.397,0.186,0.813,0.359,1.123,0.669c0.537,0.537,0.64,1.358,0.713,2.114c0.584,6.044,1.147,12.216,3.595,17.773
		c1.377,3.125,3.376,6.189,3.262,9.603c1.174,1.886,0.881,4.589,1.441,6.738c1.014,3.887,4.922,6.565,5.731,10.5
		c0.315,1.531,0.126,3.14,0.512,4.655c0.37,1.456,1.244,2.724,2.101,3.957c1.057,1.521,2.114,3.043,3.171,4.564"/>
</g>
<g id="&#xB808;&#xC774;&#xC5B4;_24">
	<path style="fill:none;stroke:#000000;stroke-miterlimit:10;" d="M328.221,148.018c1.596,3.089,3.192,6.179,4.789,9.268
		c1.064,2.059,2.134,4.133,2.791,6.355c1.053,3.56,1.004,7.335,1.182,11.042c0.199,4.163,0.695,8.311,1.481,12.403
		c0.76,3.954,1.254,8.075,2.141,12.003c1.5,6.647,3.656,13.695,9.053,17.854"/>
</g>
<g id="&#xB808;&#xC774;&#xC5B4;_25">
	<path style="fill:none;stroke:#000000;stroke-miterlimit:10;" d="M317.034,97.216c3.913,0.882,8.042,0.783,11.908-0.286
		c1.078-0.298,2.592-0.47,2.979,0.58c0.291,0.787-0.374,1.577-0.983,2.154c2.087,0.87,4.594,0.651,6.499-0.566
		c0.213-0.136,0.463-0.291,0.701-0.206c0.167,0.06,0.273,0.222,0.359,0.377c1.694,3.066,0.067,7.202-2.876,9.103
		s-6.754,1.944-10.159,1.118s-6.561-2.43-9.84-3.662"/>
</g>
<g id="&#xB808;&#xC774;&#xC5B4;_26">
	<path style="fill:none;stroke:#000000;stroke-miterlimit:10;" d="M234.675,140.167c0.674,0.329,1.389,0.574,2.123,0.726
		c0.258,0.053,0.531,0.095,0.78,0.01c0.222-0.075,0.399-0.24,0.57-0.399c2.458-2.273,5.425-4.149,8.737-4.637
		c0.448-0.066,0.965-0.146,1.199-0.533"/>
</g>
</svg>
