<?xml version="1.0" encoding="iso-8859-1"?>
<!-- Generator: Adobe Illustrator 24.0.1, SVG Export Plug-In . SVG Version: 6.00 Build 0)  -->
<svg version="1.1" xmlns="http://www.w3.org/2000/svg" xmlns:xlink="http://www.w3.org/1999/xlink" x="0px" y="0px"
	 viewBox="0 0 464 261" style="enable-background:new 0 0 464 261;" xml:space="preserve">
<g id="&#xB808;&#xC774;&#xC5B4;_1" style="display:none;">
	<image style="display:inline;overflow:visible;" width="464" height="261" xlink:href="../31.png" >
	</image>
</g>
<g id="&#xB808;&#xC774;&#xC5B4;_2">
	<path style="fill:none;stroke:#000000;stroke-miterlimit:10;" d="M177.98,41.673c0.039,0.339-0.211,0.713-0.542,0.858
		c-0.411,0.18-0.885,0.109-1.326,0.024c-4.425-0.852-8.644-2.753-12.213-5.504c-0.935-0.721-1.845-1.522-2.412-2.557
		c-1.065-1.945-0.887-4.618-2.607-6.017c-0.616-0.501-1.408-0.763-1.979-1.313c-0.665-0.64-0.938-1.577-1.15-2.475
		c-0.572-2.425-0.887-4.91-0.94-7.401c-0.03-1.419,0.119-3.036,1.24-3.906c0.607-0.471,1.395-0.629,2.154-0.747
		c4.144-0.646,8.376-0.515,12.48,0.352c2.023,0.427,3.639,0.728,5.599,1.418c1.634,0.575,3.369,1.36,4.147,2.908
		c0.765,1.521,0.438,3.491,1.467,4.847c0.669,0.881,1.766,1.3,2.684,1.918s1.74,1.709,1.382,2.756
		c-0.298,0.872-1.269,1.301-1.846,2.019c-0.742,0.923-0.76,2.249-0.439,3.389c0.321,1.139,0.932,2.173,1.359,3.278
		c0.545,1.411,0.769,3.054,0.085,4.403c-0.684,1.349-2.514,2.16-3.797,1.358c-0.625-0.391-1.044-1.09-1.787-1.276
		C178.585,39.766,177.866,40.694,177.98,41.673z"/>
</g>
<g id="&#xB808;&#xC774;&#xC5B4;_3">
	<path style="fill:none;stroke:#000000;stroke-miterlimit:10;" d="M174.111,37.113c1.296,0.447,2.557,0.997,3.767,1.642
		c0.585,0.312,1.056,0.769,1.631,1.099c0.123,0.071,0.251,0.134,0.366,0.219c0.085,0.062,0.161,0.136,0.24,0.204
		c0.199,0.172,0.425,0.317,0.587,0.525"/>
</g>
<g id="&#xB808;&#xC774;&#xC5B4;_4">
	<path style="fill:none;stroke:#000000;stroke-miterlimit:10;" d="M159.216,47.859c1.953-1.568,3.979-3.174,6.393-3.843
		c2.413-0.67,5.338-0.161,6.804,1.87c1.159,1.606,1.172,3.741,1.139,5.722c-0.07,4.236-0.162,8.585-1.757,12.511
		c-1.885,4.637-1.171,10.138-1.647,15.12c-0.212,2.22-0.298,4.79,1.345,6.297c5.59,5.124,11.524,10.667,19.102,10.389
		c0.755-0.028,1.56-0.084,2.213,0.296s0.981,1.397,0.412,1.894c-0.307,0.268-0.748,0.291-1.143,0.392
		c-0.395,0.101-0.823,0.383-0.803,0.79c0.02,0.4,0.451,0.636,0.834,0.752c1.399,0.425,3.106,0.411,3.997,1.57
		c0.564,0.733,0.61,1.729,0.608,2.654c-0.002,1.367-0.058,2.735-0.165,4.098c-0.064,0.805-0.166,1.659-0.676,2.284
		c-0.488,0.597-1.277,0.879-2.046,0.937c-1.461,0.111-2.88-0.479-4.184-1.146c-4.319-2.209-8.188-5.426-12.869-6.701
		c-3.237-0.881-6.844-0.833-9.618-2.721c-1.517-1.033-2.626-2.551-3.96-3.812c-0.875-0.828-1.848-1.544-2.818-2.259
		c-1.258-0.927-2.517-1.853-3.775-2.78c-1.009-0.743-1.973-1.881-3.008-2.586c-0.584-0.398-1.229-0.761-1.606-1.359
		c-0.447-0.71-0.429-1.608-0.395-2.446c0.102-2.554,0.204-5.107,0.306-7.661c0.092-2.309,0.203-4.696,1.223-6.77
		c1.729-3.515,1.014-8.148,1.845-11.976c0.438-2.018,1.127-3.972,1.814-5.919C157.434,51.597,157.68,49.092,159.216,47.859z"/>
</g>
<g id="&#xB808;&#xC774;&#xC5B4;_5">
	<path style="fill:none;stroke:#000000;stroke-miterlimit:10;" d="M161.658,35.068c-2.037,1.929-4.075,3.859-6.112,5.788
		c-0.428,0.406-0.86,0.816-1.191,1.304c-1.307,1.929-2.587,3.95-3.723,5.984c-0.495,0.885-0.993,1.778-1.313,2.74
		c-0.4,1.203-0.511,2.483-0.849,3.704c-0.326,1.178-0.858,2.29-1.226,3.455c-0.483,1.529-0.679,3.149-0.574,4.75
		c0.136,2.072-0.352,4.149-0.327,6.225c0.013,1.089,0.041,2.184,0.25,3.252c0.266,1.365,0.821,2.658,1.136,4.012
		c0.254,1.091,0.35,2.211,0.421,3.329c0.139,2.17,0.186,4.357-0.121,6.509c-0.322,2.262-1.031,4.448-1.735,6.622
		c-1.326,4.088,0.132,9.082-2.091,12.76c-0.913,1.509-2.354,2.62-3.436,4.013c-1.633,2.101-2.395,4.858-2.073,7.5
		c0.286,2.342-0.474,4.821-0.62,7.175c-0.047,0.751-0.094,1.507-0.274,2.238c-0.207,0.836-0.583,1.62-0.849,2.439
		c-0.481,1.48-0.594,3.051-0.704,4.604c-0.186,2.623,0.123,5.353,0.157,7.983c0.034,2.63-0.25,5.363-1.595,7.623
		c-0.401,0.674-0.893,1.299-1.192,2.024c-0.299,0.725-0.376,1.602,0.05,2.26c0.233,0.361,0.592,0.62,0.944,0.867
		c4.371,3.058,9.137,5.55,14.142,7.396c1.762,0.65,3.749,1.214,5.473,0.469c1.53-0.661,2.472-2.199,3.208-3.694
		c0.98-1.991,1.776-4.072,2.372-6.21c0.371-1.329,0.837-2.881,2.134-3.353c1.48-0.538,2.965,0.693,4.062,1.823
		c1.316,1.357,2.633,2.713,3.949,4.07c0.95,0.98,2.159,2.044,3.494,1.759c1.464-0.313,2.195-2.096,3.616-2.568
		c3.965-1.315,7.361-3.952,11.052-5.91c0.297-0.158,0.609-0.329,0.782-0.617c0.473-0.785-0.335-1.678-0.838-2.443
		c-0.579-0.88-0.781-1.946-1.02-2.972c-0.722-3.113-1.887-6.122-3.448-8.911c-1.435-2.562-1.991-5.686-3.19-8.367
		c-0.315-0.705-0.64-1.41-1.055-2.062c-0.71-1.115-1.676-2.065-2.269-3.247c-0.567-1.13-0.759-2.404-0.943-3.655
		c-0.574-3.89-1.114-8.041,0.537-11.61"/>
</g>
<g id="&#xB808;&#xC774;&#xC5B4;_6">
	<path style="fill:none;stroke:#000000;stroke-miterlimit:10;" d="M180.321,92.299c0.756-4.241,1.511-8.482,2.267-12.723
		c0.37-2.077,0.741-4.203,0.397-6.284c-0.474-2.867,0.08-5.728-0.085-8.629c-0.163-2.878-0.44-5.824-1.685-8.425
		c-1.333-2.783-2.881-5.686-3.486-8.712c-0.146-0.731-0.191-1.477-0.236-2.221c-0.051-0.848-0.102-1.695-0.152-2.543"/>
</g>
<g id="&#xB808;&#xC774;&#xC5B4;_7">
	<path style="fill:none;stroke:#000000;stroke-miterlimit:10;" d="M79.162,134.991c-1.379-0.07-3.223-0.313-3.391-1.684
		c-0.063-0.513,0.171-1.015,0.443-1.455c0.901-1.457,2.301-2.599,3.909-3.189c1.425-0.522,2.965-0.613,4.48-0.698
		c6.361-0.359,12.722-0.718,19.083-1.077c0.513-0.029,1.038-0.057,1.532,0.085c1.904,0.546,2.265,3.047,2.261,5.028
		c-0.001,0.552-0.013,1.14-0.323,1.596c-0.308,0.453-0.845,0.682-1.353,0.887c-4.083,1.652-7.7,4.758-12.235,4.137
		C88.633,137.946,84.179,135.266,79.162,134.991z"/>
</g>
<g id="&#xB808;&#xC774;&#xC5B4;_8">
	<path style="fill:none;stroke:#000000;stroke-miterlimit:10;" d="M133.741,153.583c-1.378-0.356-2.705-0.905-3.932-1.626
		c-0.796-0.468-1.548-1.006-2.299-1.544c-2.23-1.597-4.461-3.194-6.691-4.791c-1.731-1.239-3.611-2.532-5.218-3.927
		c-1.737-1.508-3.474-3.015-5.21-4.523c-1.221-1.06-2.442-2.12-3.663-3.18"/>
</g>
<g id="&#xB808;&#xC774;&#xC5B4;_9">
	<path style="fill:none;stroke:#000000;stroke-miterlimit:10;" d="M95.657,138.545c1.686,1.346,3.822,2.002,5.614,3.203
		c1.093,0.733,2.042,1.657,2.984,2.576c3.009,2.936,6.015,5.877,9.147,8.68c3.366,3.013,6.875,5.866,10.208,8.916
		c0.671,0.615,1.337,1.238,1.939,1.921c0.831,0.943,1.533,1.989,2.233,3.033c1.036,1.544,2.072,3.089,3.109,4.633
		c2.064,3.076,5.493,4.586,8.128,7.188c1.221,1.206,2.686,2.548,4.385,2.307c0.926-0.132,1.713-0.725,2.439-1.316
		c2.771-2.257,5.351-4.812,7.215-7.862s2.979-6.637,2.676-10.199"/>
</g>
<g id="&#xB808;&#xC774;&#xC5B4;_10">
	<path style="fill:none;stroke:#000000;stroke-miterlimit:10;" d="M197.392,216.999"/>
	<path style="fill:none;stroke:#000000;stroke-miterlimit:10;" d="M199.862,217.034c0.806-0.132,1.451-0.711,2.12-1.178
		c0.67-0.467,1.53-0.848,2.283-0.532c0.795,0.334,1.103,1.269,1.563,1.999c1.273,2.019,3.897,2.591,6.223,3.123
		c5.528,1.264,10.851,3.277,16.155,5.284c1.081,0.409,2.252,0.894,2.796,1.914c0.262,0.491,0.346,1.055,0.386,1.61
		c0.044,0.616,0.036,1.254-0.198,1.826c-0.611,1.491-2.439,1.986-4.025,2.266c-2.971,0.524-5.982,0.966-8.995,0.809
		c-3.013-0.157-6.055-0.948-8.512-2.698c-1.002-0.714-1.918-1.59-3.067-2.03c-1.087-0.417-2.285-0.404-3.425-0.639
		c-1.409-0.29-2.708-0.952-3.989-1.606c-0.345-0.176-0.704-0.365-0.924-0.684c-0.173-0.251-0.241-0.558-0.305-0.856
		c-0.28-1.298-0.56-2.596-0.84-3.895c-0.199-0.922-0.399-1.854-0.387-2.798c0.004-0.308,0.036-0.632,0.208-0.888
		c0.287-0.425,0.86-0.606,1.368-0.679C198.805,217.31,199.356,217.117,199.862,217.034z"/>
</g>
<g id="&#xB808;&#xC774;&#xC5B4;_11">
	<path style="fill:none;stroke:#000000;stroke-miterlimit:10;" d="M174.291,155.946c0.689,2.267,1.781,4.412,3.208,6.304
		c0.475,0.63,0.99,1.236,1.381,1.922c1.184,2.076,1.106,4.61,0.995,6.997c-0.081,1.736,0.152,3.474,0.217,5.211
		c0.037,0.993,0.075,1.992,0.288,2.962c0.225,1.027,0.64,2.002,1.054,2.969c0.693,1.621,1.386,3.242,2.078,4.864
		c2.265,5.3,4.812,10.535,7.327,15.721c0.652,1.344,1.311,2.697,2.214,3.887c0.543,0.716,1.175,1.372,1.605,2.161
		c0.402,0.737,0.612,1.561,0.818,2.375c0.55,2.172,1.1,4.344,1.65,6.516"/>
</g>
<g id="&#xB808;&#xC774;&#xC5B4;_12">
	<path style="fill:none;stroke:#000000;stroke-miterlimit:10;" d="M188.162,147.87c1.348,2.107,2.696,4.215,4.044,6.323
		c1.376,2.151,2.796,4.438,2.889,6.99c0.067,1.827-0.562,3.632-0.459,5.457c0.172,3.072,0.368,6.144,0.626,9.21
		c0.138,1.643,0.277,3.294,0.653,4.899c0.618,2.637,1.86,5.089,2.58,7.7c0.602,2.182,0.833,4.466,0.681,6.724
		c-0.458,6.777,3.583,13.161,4.587,19.878"/>
</g>
<g id="&#xB808;&#xC774;&#xC5B4;_13">
	<path style="fill:none;stroke:#000000;stroke-miterlimit:10;" d="M317.912,38.734c-0.17,0.782-0.999,1.278-1.797,1.332
		c-0.798,0.053-1.576-0.236-2.324-0.52c-2.141-0.814-4.282-1.627-6.423-2.441c-1.54-0.585-3.089-1.175-4.498-2.028
		c-0.693-0.419-1.361-0.914-1.819-1.582c-0.473-0.69-0.691-1.519-0.9-2.329c-0.571-2.208-1.142-4.417-1.713-6.625
		c-0.573-2.216,0.205-5.237,1.519-7.111c1.509-2.152,4.364-2.804,6.965-3.184c2.618-0.383,5.251-0.659,7.892-0.826
		c1.543-0.098,3.114-0.156,4.615,0.214c1.501,0.37,2.947,1.225,3.702,2.574c0.991,1.77,0.646,4.035,1.548,5.852
		c1.021,2.058,3.345,3.045,5.121,4.501c0.562,0.461,1.099,1.015,1.276,1.72s-0.139,1.575-0.832,1.793
		c-0.782,0.246-1.769-0.363-2.391,0.17c-0.236,0.202-0.336,0.517-0.415,0.817c-0.375,1.438-0.489,2.943-0.333,4.421
		c0.038,0.356,0.087,0.734-0.064,1.059c-0.188,0.403-0.633,0.613-1.056,0.752c-2.261,0.745-4.875,0.316-6.779-1.113
		c-0.22-0.165-0.447-0.35-0.72-0.383c-0.473-0.058-0.889,0.384-0.979,0.851C317.415,37.117,318.013,38.269,317.912,38.734z"/>
</g>
<g id="&#xB808;&#xC774;&#xC5B4;_14">
	<path style="fill:none;stroke:#000000;stroke-miterlimit:10;" d="M319.97,36.663c-0.406-0.242-0.814-0.485-1.173-0.792
		c-0.083-0.071-0.165-0.146-0.258-0.204c-0.13-0.081-0.278-0.125-0.425-0.169c-0.248-0.074-0.496-0.148-0.743-0.221
		c-0.319-0.095-0.66-0.125-0.987-0.188"/>
</g>
<g id="&#xB808;&#xC774;&#xC5B4;_15">
	<path style="fill:none;stroke:#000000;stroke-miterlimit:10;" d="M299.846,46.942c0.416-1.892,2.377-3.124,4.304-3.324
		c1.927-0.2,3.837,0.406,5.679,1.003c1.73,0.561,3.46,1.122,5.19,1.683c0.562,0.182,1.145,0.377,1.57,0.788
		c0.469,0.454,0.677,1.108,0.843,1.739c0.84,3.207,0.988,6.645,0.036,9.821c-0.952,3.175-3.07,6.059-6.012,7.588
		c-1.65,0.858-3.266,1.768-5.085,2.16c-5.739,1.238-11.314,3.131-16.873,5.019c-1.182,0.401-2.376,0.808-3.432,1.473
		c-1.535,0.966-2.712,2.436-4.281,3.345c-4.297,2.491-8.079,5.991-11.115,9.922c-0.85,1.101-1.645,2.25-2.603,3.259
		c-1.135,1.196-2.48,2.175-3.643,3.344c-1.163,1.169-2.169,2.601-2.37,4.238c-0.564,4.605-0.683,8.974-1.236,13.58
		c-0.148,1.237-0.33,2.52-1.017,3.56c-0.328,0.496-0.927,0.958-1.472,0.719c-0.61-0.267-0.599-1.115-0.573-1.781
		c0.034-0.894-0.089-1.794-0.362-2.646c-0.107-0.335-0.262-0.69-0.576-0.848c-0.223-0.112-0.485-0.101-0.733-0.076
		c-0.959,0.096-1.933,0.388-2.646,1.036s-1.108,1.703-0.785,2.611c0.389,1.093,1.721,1.967,1.376,3.075
		c-0.179,0.576-0.796,0.926-1.396,0.979c-0.601,0.053-1.194-0.13-1.77-0.311c-1.488-0.469-3.04-0.976-4.133-2.09
		c-0.799-0.815-1.279-1.888-1.639-2.971c-0.522-1.571-0.823-3.214-0.893-4.868c-0.023-0.554-0.019-1.122,0.168-1.644
		c0.189-0.531,0.553-0.978,0.91-1.414c2.234-2.727,4.469-5.455,6.703-8.182c0.904-1.103,1.812-2.213,2.528-3.447
		c0.545-0.94,0.974-1.946,1.565-2.858c0.816-1.26,1.936-2.321,3.238-3.067c4.729-2.712,7.674-8.244,11.221-12.384
		c0.861-1.005,1.719-2.024,2.363-3.179c0.71-1.273,1.146-2.698,1.269-4.151c0.082-0.96,0.039-1.97,0.476-2.828
		c0.575-1.127,1.824-1.71,2.986-2.212c6.159-2.663,11.428-7.181,16.225-11.872C295.668,49.956,297.615,48.156,299.846,46.942z"/>
</g>
<g id="&#xB808;&#xC774;&#xC5B4;_16">
	<path style="fill:none;stroke:#000000;stroke-miterlimit:10;" d="M300.829,33.06c-2.065,1.893-3.619,4.265-5.151,6.61
		c-0.735,1.125-1.147,2.509-1.69,3.739c-0.434,0.981-0.869,1.968-1.13,3.008c-0.588,2.339-0.279,4.876-1.165,7.118"/>
</g>
<g id="&#xB808;&#xC774;&#xC5B4;_17">
	<path style="fill:none;stroke:#000000;stroke-miterlimit:10;" d="M287.761,73.994c0.562,7.985-0.539,16.289-4.548,23.217
		c-0.955,1.651-2.066,3.209-2.976,4.886c-2.963,5.46-3.627,12.122-1.799,18.059c1.731,5.622,1.424,11.714,4.279,16.856
		c0.723,1.303,1.714,2.436,2.726,3.53c1.491,1.614,3.045,3.17,4.656,4.663c2.625,2.433,5.575,4.783,9.099,5.413
		c1.389,0.248,2.811,0.217,4.221,0.184c4.322-0.1,8.644-0.2,12.966-0.3c0.431-0.01,0.893-0.03,1.241-0.286
		c0.497-0.367,0.575-1.067,0.611-1.684c0.171-2.974,0.342-5.947,0.513-8.921c0.272-4.739-0.544-9.55-2.316-13.953
		c-1.097-2.726-2.583-5.281-3.693-8.001c-0.705-1.729-1.256-3.517-1.805-5.302c-0.332-1.078-0.666-2.174-0.691-3.301
		c-0.02-0.951,0.181-1.892,0.414-2.814c0.718-2.847,1.772-5.665,3.582-7.977c1.534-1.958,1.989-4.69,3.239-6.84
		c0.983-1.691,2.377-3.124,3.279-4.86c1.864-3.591,1.372-7.898,0.832-11.908c-0.437-3.242-0.021-6.212,0.063-9.482
		c0.048-1.886,0.096-3.774,0.042-5.66c-0.149-5.213-1.085-10.403-2.765-15.34c-0.469-1.378-1.023-2.78-2.054-3.807"/>
</g>
<g id="&#xB808;&#xC774;&#xC5B4;_18">
	<path style="fill:none;stroke:#000000;stroke-miterlimit:10;" d="M251.6,119.092c-1.849,0.26-3.702,0.284-5.54,0.615
		c-1.059,0.19-2.267,0.441-3.044,1.185c-0.771,0.738-1.076,2.073-0.369,2.873c0.408,0.462,1.039,0.644,1.635,0.799
		c3.012,0.786,6.059,1.46,9.011,2.448c2.864,0.958,6.002,2.517,9.093,2.451c2.418-0.051,3.929-2.234,6.561-1.854
		c0.416,0.06,0.861,0.163,1.241-0.017c0.596-0.281,0.703-1.07,0.723-1.729c0.091-2.938,0.075-5.879-0.048-8.815
		c-2.393-0.333-4.824-0.104-7.228,0.125c-0.875,0.083-1.751,0.171-2.615,0.327c-1.113,0.201-2.214,0.471-3.333,0.631
		c-0.526,0.075-1.055,0.126-1.584,0.177c-0.735,0.07-1.471,0.141-2.206,0.211"/>
</g>
<g id="&#xB808;&#xC774;&#xC5B4;_19">
	<path style="fill:none;stroke:#000000;stroke-miterlimit:10;" d="M262.5,129.5c5.275,7.506,14.117,11.707,18.413,19.812
		c3.551,6.699,7.205,13.535,12.772,18.682c2.243,2.073,4.927,3.901,7.969,4.172c0.661,0.059,1.346,0.039,1.963-0.206
		c0.724-0.288,1.293-0.86,1.822-1.433c4.965-5.381,7.859-12.804,9.061-20.027"/>
</g>
<g id="&#xB808;&#xC774;&#xC5B4;_20">
	<path style="fill:none;stroke:#000000;stroke-miterlimit:10;" d="M270.825,126.653c1.247,1.944,2.676,3.772,4.263,5.45
		c1.125,1.19,2.365,2.329,3.877,2.959c1.165,0.486,2.747,0.452,3.536,1.438"/>
</g>
<g id="&#xB808;&#xC774;&#xC5B4;_21">
	<path style="fill:none;stroke:#000000;stroke-miterlimit:10;" d="M305.96,218.268c-0.37,0.617-0.47,1.354-0.543,2.07
		c-0.245,2.404-0.284,4.829-0.115,7.24c0.035,0.494,0.087,1.013,0.374,1.417c0.781,1.096,2.459,0.567,3.757,0.212
		c2.36-0.645,4.874-0.295,7.258,0.257c3.972,0.919,7.812,2.381,11.825,3.101c4.012,0.72,8.36,0.63,11.898-1.394
		c0.474-0.272,0.939-0.584,1.27-1.019c1.029-1.355,0.349-3.438-0.976-4.506c-1.325-1.068-3.079-1.394-4.748-1.725
		c-4.641-0.921-9.427-2.257-12.892-5.48c-0.446-0.414-0.891-0.873-1.475-1.046c-0.924-0.273-1.871,0.24-2.79,0.53
		C315.708,218.901,307.843,215.134,305.96,218.268z"/>
	<path style="fill:none;stroke:#000000;stroke-miterlimit:10;" d="M306.5,169.5c-0.133,2.113-0.462,5.494,0.451,7.404
		c0.47,0.983,1.191,1.832,1.626,2.831c0.76,1.745,0.569,3.738,0.364,5.631c-0.489,4.507-0.977,9.014-1.466,13.52
		c-0.263,2.423,0.271,4.858-0.113,7.265c-0.194,1.218-0.491,2.416-0.71,3.63c-0.454,2.514-0.571,5.088-0.348,7.633"/>
</g>
<g id="&#xB808;&#xC774;&#xC5B4;_22">
</g>
<g id="&#xB808;&#xC774;&#xC5B4;_23">
	<path style="fill:none;stroke:#000000;stroke-miterlimit:10;" d="M317.5,150.5c0.665,2.318,1.815,5.075,3.005,7.172
		c0.656,1.157,1.473,2.249,1.846,3.526c0.282,0.966,0.295,1.988,0.289,2.995c-0.048,8.107-1.142,16.207-3.246,24.035
		c-1.665,6.193,0.254,13.103,0.296,19.516c0.021,3.106,0.066,6.325,1.389,9.135"/>
	<path style="fill:none;stroke:#000000;stroke-miterlimit:10;" d="M178.642,50.611c1.185,0.307,2.099,1.229,2.911,2.145
		c6.066,6.839,10.083,15.538,17.242,21.223c1.772,1.407,3.703,2.599,5.628,3.787c7.591,4.684,15.248,9.401,23.633,12.443
		c2.567,0.931,4.227,3.732,5.289,6.247c0.443,1.049,0.696,2.179,1.243,3.177c0.789,1.44,2.122,2.489,3.419,3.496
		c2.021,1.569,4.041,3.139,6.062,4.708"/>
</g>
<g id="&#xB808;&#xC774;&#xC5B4;_24">
	<path style="fill:none;stroke:#000000;stroke-miterlimit:10;" d="M182.64,77.287c2.438,1.273,4.876,2.547,7.313,3.82
		c1.747,0.912,3.495,1.826,5.165,2.872c1.172,0.734,2.306,1.534,3.527,2.183c1.486,0.79,3.083,1.347,4.673,1.902
		c5.22,1.82,10.439,3.639,15.659,5.459c0.738,0.257,1.511,0.538,2.019,1.132c0.563,0.658,0.691,1.572,0.796,2.432
		c0.208,1.697,0.416,3.393,0.623,5.09c0.086,0.7,0.19,1.444,0.646,1.982c0.528,0.622,1.391,0.815,2.191,0.973
		c3.161,0.624,6.323,1.247,9.484,1.871c2.44,0.481,4.284,2.15,6.541,3.196c1.19,0.552,2.401,1.118,3.365,2.008"/>
</g>
</svg>
