<?xml version="1.0" encoding="iso-8859-1"?>
<!-- Generator: Adobe Illustrator 24.0.1, SVG Export Plug-In . SVG Version: 6.00 Build 0)  -->
<svg version="1.1" xmlns="http://www.w3.org/2000/svg" xmlns:xlink="http://www.w3.org/1999/xlink" x="0px" y="0px"
	 viewBox="0 0 464 261" style="enable-background:new 0 0 464 261;" xml:space="preserve">
<g id="&#xB808;&#xC774;&#xC5B4;_1" style="display:none;">
	<image style="display:inline;overflow:visible;" width="464" height="261" xlink:href="../32.png" >
	</image>
</g>
<g id="&#xB808;&#xC774;&#xC5B4;_2">
	<g>
		<path d="M164.998,14.533c4.237,0,8.492,1.174,12.148,2.274c0.53,0.159,1.023,0.326,1.244,0.606
			c0.262,0.333,0.239,0.918,0.214,1.595c-0.015,0.396-0.03,0.806,0.01,1.227c0.192,2.021,1.533,3.404,2.829,4.741
			c0.723,0.746,1.407,1.451,1.869,2.236c0.389,0.662,0.532,1.615,0.114,1.926c-0.074,0.055-0.195,0.115-0.323,0.178
			c-0.236,0.117-0.53,0.262-0.801,0.506c-0.809,0.731-1.004,1.959-0.536,3.37c0.044,0.133,0.091,0.266,0.139,0.4
			c0.193,0.543,0.375,1.056,0.281,1.433c-0.11,0.441-0.661,0.763-1.149,0.855c-0.177,0.033-0.364,0.049-0.573,0.049
			c-0.517,0-1.064-0.099-1.642-0.204l-0.053-0.01c-0.418-0.076-0.829-0.114-1.222-0.114c-2.239,0-2.839,1.261-2.994,1.804
			c-0.147,0.519-0.17,1.009-0.191,1.442c-0.019,0.409-0.036,0.762-0.147,1.087c-0.112,0.329-0.257,0.672-0.411,1.036
			c-0.181,0.429-0.368,0.872-0.521,1.337c-0.137,0.419-0.426,0.684-0.519,0.687c-0.086-0.018-0.301-0.202-0.404-0.291
			c-0.675-0.58-1.345-1.169-2.015-1.758c-2.832-2.491-5.76-5.067-9.135-6.969l-0.324-0.181c-1.092-0.609-2.124-1.184-2.566-2.093
			c-0.205-0.421-0.29-0.943-0.374-1.531c-0.368-2.601-0.593-5.25-0.669-7.876c-0.066-2.295,0.087-5.109,1.879-6.51
			c0.731-0.572,1.73-0.91,3.237-1.097C163.231,14.586,164.107,14.533,164.998,14.533 M164.998,13.533
			c-0.909,0-1.818,0.051-2.727,0.164c-1.323,0.164-2.679,0.481-3.729,1.302c-2.093,1.636-2.34,4.671-2.263,7.326
			c0.077,2.672,0.304,5.34,0.678,7.987c0.088,0.625,0.188,1.26,0.464,1.828c0.633,1.301,2.038,1.998,3.298,2.708
			c4.062,2.29,7.452,5.576,10.989,8.615c0.255,0.219,0.526,0.444,0.855,0.512c0.069,0.014,0.137,0.021,0.204,0.021
			c0.681,0,1.244-0.696,1.466-1.377c0.265-0.809,0.667-1.597,0.928-2.361c0.296-0.869,0.108-1.715,0.353-2.579
			c0.234-0.821,1.119-1.077,2.032-1.077c0.356,0,0.716,0.039,1.043,0.098c0.619,0.112,1.249,0.23,1.874,0.23
			c0.253,0,0.506-0.019,0.757-0.066c0.869-0.163,1.722-0.739,1.935-1.596c0.198-0.798-0.182-1.609-0.441-2.389
			c-0.259-0.78-0.352-1.761,0.258-2.313c0.303-0.274,0.722-0.38,1.049-0.624c0.951-0.707,0.752-2.214,0.151-3.236
			c-1.374-2.335-4.309-3.867-4.565-6.565c-0.108-1.142,0.276-2.445-0.433-3.346c-0.415-0.528-1.099-0.752-1.742-0.946
			C173.385,14.631,169.196,13.533,164.998,13.533L164.998,13.533z"/>
	</g>
</g>
<g id="&#xB808;&#xC774;&#xC5B4;_3">
	<path style="fill:none;stroke:#000000;stroke-miterlimit:10;" d="M172.982,36.482c0.26-0.035,0.52-0.069,0.78-0.104
		c0.602-0.08,1.191-0.165,1.795-0.234c0.917-0.106,1.859-0.21,2.751,0.026"/>
</g>
<g id="&#xB808;&#xC774;&#xC5B4;_4">
	<path style="fill:none;stroke:#000000;stroke-miterlimit:10;" d="M151.623,58.733c-0.943-4.103,1.699-8.154,4.629-11.177
		c1.664-1.717,3.527-3.336,5.781-4.133s4.977-0.626,6.772,0.954c1.804,1.588,2.305,4.165,2.573,6.553
		c0.55,4.9,0.394,10.363-2.864,14.065c-0.578,0.657-1.242,1.241-1.754,1.951c-1.13,1.568-1.407,3.574-1.65,5.491
		c-0.508,4.007-0.308,8.459-2.588,11.793c-0.568,0.83-1.268,1.618-1.492,2.598c-0.122,0.532-0.093,1.085-0.047,1.628
		c0.081,0.961,0.213,1.919,0.395,2.866c0.459,2.383,2.048,4.458,2.881,6.737c1.451,3.968,1.361,8.307,1.323,12.532
		c-0.015,1.705-0.017,3.428,0.356,5.092c0.312,1.389,0.878,2.705,1.4,4.03c2.311,5.867,3.793,12.06,4.388,18.338
		c0.041,0.434,0.072,0.899-0.139,1.28c-0.383,0.694-1.343,0.776-2.129,0.672c-1.652-0.219-3.315-0.947-4.268-2.314
		c-0.435-0.624-0.701-1.348-0.961-2.063c-1.631-4.494-3.176-9.019-4.72-13.543c-0.977-2.861-1.956-5.73-2.597-8.684
		c-0.493-2.271-1.294-4.288-2.421-6.32c-1.997-3.601-3.583-7.43-4.716-11.388c-0.604-2.11-1.093-4.289-2.19-6.189
		c-0.486-0.841-1.094-1.638-1.324-2.582c-0.201-0.825-0.094-1.691,0.039-2.529c0.321-2.026,0.784-4.029,1.386-5.99
		c0.502-1.634,1.34-2.976,1.652-4.656c0.229-1.234,0.263-2.508,0.625-3.71c0.277-0.919,0.739-1.775,0.988-2.702
		c0.233-0.867,0.273-1.773,0.311-2.67C151.346,62.718,152.058,60.628,151.623,58.733z"/>
</g>
<g id="&#xB808;&#xC774;&#xC5B4;_5">
	<path style="fill:none;stroke:#000000;stroke-miterlimit:10;" d="M160.135,33.615c-1.73,0.988-4.212,0.443-5.57,1.901
		c-0.987,1.06-0.899,2.685-1.089,4.121c-0.212,1.604-0.852,3.15-1.836,4.435c-0.623,0.814-1.379,1.521-1.972,2.358
		c-1.4,1.976-1.773,4.478-2.105,6.876c-0.883,6.367-2.509,12.793-2.971,19.204c-0.15,2.077-0.249,4.179,0.124,6.228
		c0.167,0.917,0.427,1.821,0.487,2.751c0.052,0.809-0.049,1.619-0.15,2.424c-0.197,1.565-0.393,3.13-0.59,4.694
		c-0.253,2.011-0.533,4.1-1.64,5.798c-0.939,1.44-2.547,2.697-3.662,4.005c-1.368,1.606-2.768,3.269-3.415,5.276
		c-0.504,1.563-0.517,3.235-0.526,4.877c-0.04,7.314-0.047,14.824,2.554,21.661c1.067,2.805,1.506,5.911,2.556,8.722
		c1.375,3.679,2.876,7.538,5.926,10.012c3.77,3.057,9.018,3.312,13.871,3.364c2.849,0.031,5.722,0.037,8.516-0.526
		c2.794-0.562,5.535-1.737,7.53-3.772c0.265-0.27,0.52-0.56,0.683-0.902c0.251-0.527,0.264-1.136,0.216-1.718
		c-0.376-4.543-4.046-8.124-5.336-12.496c-0.721-2.443-0.671-5.036-0.925-7.571c-0.422-4.208-1.69-8.279-2.524-12.425
		c-0.833-4.146-1.218-8.525,0.102-12.543c0.868-2.641,2.405-5.028,4.154-7.189c2.599-3.212,5.879-6.181,6.8-10.209
		c0.281-1.227,0.322-2.495,0.363-3.753c0.134-4.146-1.094-8.233-1.644-12.345c-1.049-7.853-2.124-15.805-5.116-23.141"/>
</g>
<g id="&#xB808;&#xC774;&#xC5B4;_6">
	<path style="fill:none;stroke:#000000;stroke-miterlimit:10;" d="M110.354,126.478c-1.624-0.302-3.291-0.275-4.93-0.487
		c-1.638-0.212-3.316-0.703-4.507-1.848c-1.19-1.145-1.738-3.078-0.908-4.507c0.939-1.617,3.085-1.968,4.95-2.104
		c6.191-0.449,12.415-0.416,18.603,0.062c0.594,0.046,1.204,0.1,1.742,0.355c1.303,0.618,1.812,2.191,2.048,3.614
		c0.243,1.465,0.34,2.955,0.289,4.439c-0.016,0.472-0.082,1.009-0.468,1.281c-0.322,0.227-0.753,0.185-1.145,0.148
		c-1.399-0.133-2.878-0.051-4.216,0.408c-1.161,0.399-2.233,1.711-3.397,1.873c-1.269,0.177-2.487-1.012-3.547-1.576
		C113.447,127.381,111.942,126.773,110.354,126.478z"/>
	<path style="fill:none;stroke:#000000;stroke-miterlimit:10;" d="M179.686,81.32c2.229,0.501,4.476,1.008,6.552,1.96
		c1.667,0.764,3.191,1.801,4.764,2.742c2.831,1.695,5.585,3.645,8.753,4.57c3.101,0.905,6.201,1.81,9.302,2.716
		c1.154,0.337,2.342,0.691,3.274,1.451c1.84,1.5,2.202,4.115,3.227,6.257c0.881,1.841,2.385,3.443,4.305,4.136
		c1.866,0.673,3.949,0.452,5.85,1.021c1.7,0.509,3.147,1.616,4.56,2.69c4.618,3.51,9.806,7.064,15.603,6.859
		c0.843-1.333,0.364-3.168-0.662-4.366s-2.482-1.921-3.862-2.684c-5.316-2.942-10.201-7.131-12.582-12.722
		c-0.727-1.707-1.266-3.603-2.658-4.83c-0.862-0.759-1.964-1.176-3.039-1.578c-3.243-1.212-6.954-1.916-9.87-3.78
		c-4.765-3.046-9.424-6.257-13.966-9.627c-1.617-1.2-3.219-2.42-4.822-3.639c-3.723-2.834-7.519-5.745-10.097-9.65
		c-2.845-4.307-4.311-9.895-8.731-12.561c-0.141-0.085-0.328-0.131-0.482-0.188"/>
</g>
<g id="&#xB808;&#xC774;&#xC5B4;_7">
	<path style="fill:none;stroke:#000000;stroke-miterlimit:10;" d="M117.946,129.681c0.51,2.28,2.402,3.94,4.054,5.592
		c1.79,1.791,3.403,3.75,5.005,5.711c7.025,8.595,13.927,17.29,20.703,26.083c1.236,1.603,2.493,3.236,4.145,4.406
		c3.388,2.4,8.294,2.401,11.682,0.001c1.693-1.199,2.976-2.889,4.09-4.639c2.181-3.427,3.81-7.17,5.429-10.895
		c0.908-2.088,1.834-4.277,1.683-6.548"/>
</g>
<g id="&#xB808;&#xC774;&#xC5B4;_8">
	<path style="fill:none;stroke:#000000;stroke-miterlimit:10;" d="M127.243,126.702c2.545,1.322,4.922,2.967,7.056,4.883
		c0.518,0.465,1.025,0.949,1.603,1.339c1.169,0.789,2.701,1.279,3.264,2.571"/>
</g>
<g id="&#xB808;&#xC774;&#xC5B4;_9">
	<path style="fill:none;stroke:#000000;stroke-miterlimit:10;" d="M154.598,155.876c-0.628,0.117-1.282-0.075-1.833-0.399
		s-1.015-0.774-1.473-1.219c-0.75-0.728-1.499-1.456-2.249-2.185c-0.65-0.631-1.315-1.284-1.685-2.11
		c-0.078-0.173-0.298-0.285-0.424-0.427"/>
</g>
<g id="&#xB808;&#xC774;&#xC5B4;_10">
	<path style="fill:none;stroke:#000000;stroke-miterlimit:10;" d="M167.119,227.753c2.634,1.965,6.001,2.619,9.261,3.031
		c6.008,0.759,12.097,0.881,18.131,0.361c1.204-0.104,2.576-0.334,3.21-1.363c0.603-0.978,0.233-2.317-0.547-3.16
		c-0.78-0.843-1.878-1.304-2.94-1.742c-5.04-2.076-10.079-4.151-15.119-6.227c-1.257-0.518-2.599-1.045-3.937-0.809
		c-1.314,0.232-2.405,1.167-3.697,1.497c-2.316,0.59-6.614-2.097-7.789,0.681C162.597,222.606,165.214,226.331,167.119,227.753z"/>
</g>
<g id="&#xB808;&#xC774;&#xC5B4;_11">
	<path style="fill:none;stroke:#000000;stroke-miterlimit:10;" d="M164.669,170.037c0.037,2.218,0.512,4.402,0.828,6.598
		c0.86,5.976,0.529,12.122-0.966,17.972c-2.046,8.004-1.112,16.687-0.918,24.947c0.006,0.244-0.028,0.521-0.009,0.764"/>
</g>
<g id="&#xB808;&#xC774;&#xC5B4;_12">
	<path style="fill:none;stroke:#000000;stroke-miterlimit:10;" d="M176.665,217.522c-2.598-10.34,0.372-21.139,0.104-31.797
		c-0.122-4.826,1.726-9.458,2.571-14.211c1.479-8.321-0.137-16.845-1.748-25.141c-0.027-0.138-0.128-0.264-0.19-0.391
		c-0.075-0.154-0.151-0.309-0.261-0.44"/>
</g>
<g id="&#xB808;&#xC774;&#xC5B4;_13">
	<path style="fill:none;stroke:#000000;stroke-miterlimit:10;" d="M309.595,50.33c-1.113-0.549-2.276-1.14-2.979-2.164
		c-0.528-0.769-0.74-1.705-0.994-2.603c-0.91-3.215-2.488-6.226-3.192-9.492c-0.704-3.266-0.344-7.06,2.087-9.352
		c2.097-1.977,5.193-2.378,8.069-2.556c2.971-0.184,5.999-0.23,8.874,0.542s5.614,2.46,7.079,5.051
		c2.374,4.199,1.071,9.942,4.039,13.744c-0.851,1.056-2.87,0.256-3.721,1.311c-0.434,0.537-0.344,1.31-0.265,1.996
		c0.144,1.259,0.171,2.532,0.083,3.796c-0.117,1.676-1.837,2.727-3.436,2.21c-0.85-0.275-1.709-0.396-2.394-0.198
		c-1.715,0.496-0.746,2.148-2.443,2.653c-1.371,0.408-3.831-1.497-5.004-2.076C313.583,52.298,311.208,51.54,309.595,50.33z"/>
	<path style="fill:none;stroke:#000000;stroke-miterlimit:10;" d="M292.593,65.807c1.253-1.938,2.576-3.831,4.194-5.476
		c0.874-0.888,1.823-1.761,2.979-2.238c1.226-0.506,2.59-0.531,3.916-0.521c2.344,0.019,4.719,0.132,6.955,0.834
		c2.236,0.702,4.346,2.057,5.531,4.08c1.063,1.816,1.297,3.991,1.36,6.094c0.052,1.753-0.008,3.554-0.669,5.178
		c-0.849,2.085-2.59,3.653-4.275,5.145c-1.648,1.459-3.337,2.944-5.37,3.788c-1.537,0.638-3.203,0.88-4.836,1.2
		c-5.212,1.021-10.257,2.89-14.876,5.511c-0.995,0.565-2.06,1.317-2.521,2.301c-0.377,0.805-0.851,1.555-1.542,2.115
		c-5.775,4.683-11.652,9.465-17.41,14.132c-1.461,1.184-2.967,2.42-3.455,4.373c-0.233,0.935-0.021,1.917,0.492,2.733
		c2.35,3.731-0.31,8.861-1.222,13.205c-0.11,0.523-0.285,1.114-0.772,1.335c-0.751,0.341-1.548-0.516-1.655-1.334
		c-0.107-0.818,0.157-1.659-0.002-2.468c-0.186-0.953-1.004-1.75-1.962-1.912c-0.958-0.162-1.992,0.323-2.481,1.162
		c-0.668,1.148-0.293,2.583-0.149,3.903c0.145,1.32-0.199,2.979-1.476,3.345c-1.249,0.358-2.581-0.81-3.372-1.331
		c-1.093-0.72-2.068-1.623-2.714-2.761c-3.522-6.202,0.649-10.09,4.058-13.723c2.798-2.981,5.302-6.237,7.467-9.705
		c4.083-6.542,8.416-12.92,12.988-19.13c1.487-2.02,2.955-4.142,4.947-5.691c1.493-1.16,3.228-1.958,4.846-2.937
		c3.316-2.007,6.149-4.807,8.196-8.099C290.606,67.562,291.753,67.106,292.593,65.807z"/>
</g>
<g id="&#xB808;&#xC774;&#xC5B4;_14">
</g>
<g id="&#xB808;&#xC774;&#xC5B4;_15">
	<path style="fill:none;stroke:#000000;stroke-miterlimit:10;" d="M267.869,144.635c-2.686,0.945-5.589,1.052-8.437,1.026
		c-1.886-0.018-3.772-0.09-5.654-0.216c-1.645-0.11-3.548-0.422-4.351-1.862c-0.992-1.779,0.522-4.073,2.417-4.818
		c1.896-0.745,4.013-0.488,6.047-0.596c2.913-0.154,5.723-1.073,8.543-1.819c1.888-0.5,13.929-2.416,12.97,2.141
		c-0.31,1.472-3.603,2.323-4.738,2.845C272.385,142.388,270.247,143.798,267.869,144.635z"/>
</g>
<g id="&#xB808;&#xC774;&#xC5B4;_16">
	<path style="fill:none;stroke:#000000;stroke-miterlimit:10;" d="M307.137,48.628c-2.77,2.538-3.93,6.678-7.161,8.596
		c-0.609,0.361-1.024,0.9-1.392,1.505"/>
</g>
<g id="&#xB808;&#xC774;&#xC5B4;_17">
	<path style="fill:none;stroke:#000000;stroke-miterlimit:10;" d="M289.5,88.5c-0.785,9.104-1.335,17.589-1.163,26.725
		c0.038,1.998,0.094,4.032-0.451,5.955c-0.957,3.38-3.741,6.457-3.08,9.907c0.988,5.157-0.788,11.073,1.006,16.008
		c1.808,4.972,5.614,9.001,9.905,12.094c4.082,2.942,7.72,5.997,12.574,7.32c2.54,0.693,5.08,1.385,7.62,2.078
		c2.29,0.624,5.197,1.059,6.632-0.831c0.962-1.266,0.777-3.032,0.546-4.605c-1.155-7.874-2.309-15.747-3.464-23.621
		c-0.505-3.446-1.054-7.011-2.944-9.936c-0.642-0.994-1.433-1.902-1.915-2.982c-0.483-1.08-0.604-2.426,0.085-3.388
		c4.55-6.357,6.366-14.297,9.439-21.485c1.298-3.036,2.526-6.145,2.98-9.416c0.696-5.023-0.471-10.097-1.63-15.035
		c-0.737-3.138-0.93-6.651-1.283-9.855c-0.495-4.494-1.08-9.226-3.785-12.849"/>
</g>
<g id="&#xB808;&#xC774;&#xC5B4;_18">
	<path style="fill:none;stroke:#000000;stroke-miterlimit:10;" d="M264.863,145.379c5.394,4.376,10.787,8.752,16.181,13.128
		c2.607,2.115,5.233,4.249,7.358,6.848c1.64,2.005,2.953,4.253,4.259,6.49c1.275,2.184,2.549,4.367,3.824,6.551
		c1.906,3.266,3.866,6.596,6.734,9.06s6.866,3.944,10.491,2.867c1.863-0.554,3.485-1.729,4.897-3.065
		c3.762-3.56,6.32-8.983,4.821-13.941c-0.434-1.437-0.576-3.012-1.152-4.399"/>
	<path style="fill:none;stroke:#000000;stroke-miterlimit:10;" d="M278.834,139.609c0.674,2.331,2.221,4.309,3.898,6.062
		s3.525,3.354,5.011,5.272"/>
</g>
<g id="&#xB808;&#xC774;&#xC5B4;_19">
	<path style="fill:none;stroke:#000000;stroke-miterlimit:10;" d="M298.436,242.787c1.802,0.569,3.745,0.265,5.635,0.262
		c2.748-0.005,5.45,0.639,8.122,1.279c2.432,0.583,4.865,1.165,7.297,1.748c1.631,0.391,3.596,0.695,4.774-0.498
		c0.412-0.417,0.66-0.965,0.861-1.515c0.422-1.153,0.66-2.487,0.089-3.574c-0.909-1.731-3.253-1.94-5.207-2.001
		c-6.146-0.192-11.84-1.407-17.769-2.827c-2.001-0.479-4.367,0.096-5.829,1.639C294.491,239.323,296.074,242.041,298.436,242.787z"
		/>
</g>
<g id="&#xB808;&#xC774;&#xC5B4;_20">
	<path style="fill:none;stroke:#000000;stroke-miterlimit:10;" d="M300.29,234.432"/>
	<path style="fill:none;stroke:#000000;stroke-miterlimit:10;" d="M304.352,188.514c0.065,2.928,0.13,5.855,0.196,8.783
		c0.148,6.637,0.292,13.327-0.9,19.858c-0.987,5.413-2.884,10.665-3.352,16.147c-0.063,0.742-0.113,1.517-0.144,2.261
		c0.046,0.001,0.093,0.002,0.139,0.003"/>
</g>
<g id="&#xB808;&#xC774;&#xC5B4;_21">
	<path style="fill:none;stroke:#000000;stroke-miterlimit:10;" d="M322.746,181.156c-0.052,3.11-0.106,6.244-0.766,9.284
		c-1.036,4.776-3.544,9.223-3.892,14.097c-0.322,4.506-3.192,8.737-4.739,12.981c-0.642,1.763-1.072,3.594-1.499,5.421
		c-0.442,1.888-0.884,3.776-1.326,5.664c-0.677,2.891,0.046,6.078,0.976,8.898c0.184-0.039,0.234,0.104,0.418,0.065"/>
</g>
</svg>
