<?xml version="1.0" encoding="iso-8859-1"?>
<!-- Generator: Adobe Illustrator 24.0.1, SVG Export Plug-In . SVG Version: 6.00 Build 0)  -->
<svg version="1.1" xmlns="http://www.w3.org/2000/svg" xmlns:xlink="http://www.w3.org/1999/xlink" x="0px" y="0px"
	 viewBox="0 0 464 261" style="enable-background:new 0 0 464 261;" xml:space="preserve">
<g id="&#xB808;&#xC774;&#xC5B4;_1" style="display:none;">
	
		<image style="display:inline;overflow:visible;" width="464" height="261" xlink:href="../1.png"  transform="matrix(1 0 0 1 0 -0.5)">
	</image>
</g>
<g id="&#xB808;&#xC774;&#xC5B4;_2">
	<path style="fill:none;stroke:#000000;" d="M169.692,51.105c-1.12-0.453-2.244-0.907-3.301-1.493
		c-5.033-2.795-7.992-8.275-9.712-13.769c-0.515-1.645-0.948-3.371-0.711-5.079s1.287-3.402,2.925-3.939
		c2.191-0.718,3.276-2.491,5.248-3.684c0.648-0.392,1.306-0.784,2.029-1.008c0.68-0.211,1.399-0.268,2.111-0.281
		c3.554-0.066,7.121,0.947,10.109,2.871c1.055,0.679,2.516,0.897,3.439,1.747c2.709,2.498,1.534,7.4,4.06,10.083
		c0.529,0.562,1.205,1.003,1.582,1.675c0.377,0.673,0.277,1.715-0.446,1.985c-1.367,0.511-2.13,2.42-2.015,3.875
		c0.129,1.618,1.294,2.928,2.14,4.314c0.846,1.386,1.343,3.325,0.25,4.525c-1.988,2.183-6.32-0.744-8.377,1.374
		c-1.179,1.214-1.035,3.671-2.663,4.132c-0.724,0.205-1.502-0.142-2.073-0.632c-0.571-0.491-1.006-1.121-1.551-1.64
		c-0.748-0.712-1.692-1.203-2.394-1.96S169.124,51.967,169.692,51.105z"/>
</g>
<g id="&#xB808;&#xC774;&#xC5B4;_3">
	<path style="fill:none;stroke:#000000;" d="M182.495,53.367c-2.063-1.002-3.261-1.724-5.517-2.138"/>
</g>
<g id="&#xB808;&#xC774;&#xC5B4;_4">
	<path style="fill:none;stroke:#000000;" d="M117.468,145.76c-2.512-0.213-5.016-0.508-7.508-0.886
		c-1.679-0.255-3.609-0.734-4.311-2.28c-0.396-0.872-0.282-1.91,0.1-2.789c0.596-1.371,1.787-2.415,3.108-3.115
		c1.321-0.701,2.778-1.095,4.222-1.484c1.443-0.389,2.886-0.778,4.329-1.167c1.795-0.484,3.668-0.971,5.492-0.612
		c1.013,0.199,1.955,0.65,2.927,0.998c1.768,0.633,3.658,0.925,5.534,0.856c0.815-0.03,1.637-0.127,2.442,0.004
		c0.805,0.131,1.617,0.535,1.999,1.255c0.293,0.554,0.296,1.217,0.196,1.836c-0.123,0.756-0.401,1.507-0.927,2.064
		c-0.436,0.462-1.013,0.763-1.59,1.027c-2.548,1.167-5.19,1.314-7.829,2.065c-1.157,0.329-2.186,0.953-3.265,1.467
		C120.753,145.776,119.259,145.912,117.468,145.76z"/>
</g>
<g id="&#xB808;&#xC774;&#xC5B4;_5">
	<path style="fill:none;stroke:#000000;" d="M122.003,145.331c0.14,2.356,2.619,3.716,4.585,5.021
		c1.935,1.285,3.623,2.903,5.299,4.512c6.38,6.124,12.761,12.248,19.141,18.373c3.34,3.206,6.719,6.459,9.146,10.402
		c0.701,1.139,1.345,2.361,2.393,3.192c1.312,1.04,3.073,1.314,4.748,1.331c3.367,0.033,6.739-0.847,9.661-2.52
		c0.562-0.322,1.121-0.685,1.497-1.212c1.114-1.561,0.202-3.734,0.491-5.629c0.522-3.431-0.093-7.14-0.539-10.582
		c-2.983,2.671-7.516,2.007-11.321,0.762c-6.078-1.988-11.122-6.238-15.84-10.556c-4.487-4.107-8.86-8.395-12.418-13.329
		c-1.202-1.668-3.187-2.647-4.773-3.955"/>
</g>
<g id="&#xB808;&#xC774;&#xC5B4;_6">
	<path style="fill:none;stroke:#000000;" d="M151.931,239.96c-0.143,0.532-0.272,1.147,0.05,1.594
		c0.183,0.255,0.48,0.399,0.764,0.531c6.203,2.876,12.879,4.727,19.677,5.456c3.058,0.328,6.354,0.378,8.966-1.245
		c1.456-0.905,2.659-2.788,1.81-4.277c-0.449-0.787-1.333-1.202-2.165-1.559c-5.644-2.426-11.457-4.46-17.381-6.085
		c-1.96-0.537-6.911-2.716-8.837-2.091C152.946,232.891,152.449,238.035,151.931,239.96z"/>
</g>
<g id="&#xB808;&#xC774;&#xC5B4;_7">
	<path style="fill:none;stroke:#000000;" d="M161.198,185.232c0.58,3.57,1.163,7.162,1.108,10.779
		c-0.187,12.25-7.625,23.707-6.843,35.933"/>
</g>
<g id="&#xB808;&#xC774;&#xC5B4;_8">
	<path style="fill:none;stroke:#000000;" d="M164.565,234.953c-0.532-6.526,1.974-12.86,4.067-19.065
		c3.258-9.658,5.608-19.622,7.007-29.718"/>
</g>
<g id="&#xB808;&#xC774;&#xC5B4;_9">
	<path style="fill:none;stroke:#000000;" d="M178.102,168.404c1.448-6.165,0.847-12.793-1.687-18.596
		c-1.357-3.109-3.294-6.176-3.153-9.566c0.098-2.347,0.081-4.892-0.399-7.192c-0.22-1.053-0.569-2.074-0.816-3.12
		c-0.886-3.756-0.417-7.726,0.673-11.428c0.673-2.285,1.783-4.537,2.656-6.754c1.218-3.096,2.45-6.217,4.277-8.998
		c1.03-1.566,2.244-3.017,3.115-4.677c0.871-1.66,1.382-3.615,0.871-5.418c-2.457-8.674-1.961-17.966-3.271-26.885
		c-0.395-2.688-0.96-5.623-3.067-7.337"/>
</g>
<g id="&#xB808;&#xC774;&#xC5B4;_10">
	<path style="fill:none;stroke:#000000;" d="M140.151,98.86c1.259,6.814,2.519,13.628,3.778,20.442
		c1.213,6.563,2.422,13.364,0.838,19.848c-0.245,1.001-0.533,2.14,0.04,2.996c0.516,0.77,1.53,0.994,2.443,1.155
		c2.823,0.498,6.021,0.913,8.3-0.826c1.958-1.495,2.612-4.218,2.348-6.668s-1.285-4.742-2.111-7.063
		c-1.657-4.661-2.552-9.592-2.639-14.538c-0.061-3.436,0.246-6.808-0.653-10.125c-0.437-1.612-1.042-3.434-0.161-4.853
		c0.452-0.728,1.218-1.189,1.941-1.648c2.861-1.817,5.48-4.013,7.769-6.512c1.242-1.356,2.425-2.883,2.756-4.691
		c0.393-2.145-0.416-4.601,0.819-6.399c1.749-2.547,2.256-5.985,5.124-7.133c1.377-1.808,2.17-5.229,2.088-7.5
		c-0.085-2.363-1.271-4.67-3.16-6.092c-1.89-1.422-4.449-1.921-6.726-1.285c-2.77,0.773-4.895,3.067-6.238,5.609
		c-1.343,2.543-2.037,5.367-2.921,8.103c-1.869,5.78-4.639,11.268-8.179,16.205C143.296,91.108,139.43,94.959,140.151,98.86z"/>
</g>
<g id="&#xB808;&#xC774;&#xC5B4;_11">
	<path style="fill:none;stroke:#000000;" d="M146.034,153.434c-0.774-0.77-1.669-2.257-2.313-3.139
		c-1.505-2.062-2.199-4.59-2.818-7.067c-0.99-3.961-1.869-8.018-1.59-12.091c0.279-4.073,1.86-8.219,5.034-10.786"/>
</g>
<g id="&#xB808;&#xC774;&#xC5B4;_12">
	<path style="fill:none;stroke:#000000;" d="M147.034,86.205c-1.96-14.558,4.475-29.951,16.212-38.783"/>
</g>
<g id="&#xB808;&#xC774;&#xC5B4;_13">
	<path style="fill:none;stroke:#000000;" d="M182.904,89.105c8.569,6.285,19.47,8.156,29.549,11.526
		c1.098,0.367,2.212,0.765,3.126,1.476c2.794,2.173,2.966,6.578,5.697,8.83c2.257,1.862,5.532,1.682,8.261,2.736
		c4.055,1.566,6.548,5.684,10.285,7.905c2.337,1.39,5.139,1.982,7.839,1.659c0.609-0.073,1.262-0.219,1.658-0.687
		c0.873-1.029-0.134-2.568-1.182-3.418c-5.09-4.132-12.529-5.845-15.49-11.695c-0.913-1.803-1.291-3.851-2.3-5.602
		c-1.711-2.973-4.974-4.677-8.177-5.905c-3.203-1.228-6.598-2.181-9.312-4.278c-7.997-6.18-18.217-10.2-23.861-18.585
		c-3.031-4.503-5.182-10.072-9.991-12.589"/>
</g>
<g id="&#xB808;&#xC774;&#xC5B4;_14">
	<path style="fill:none;stroke:#000000;" d="M318.96,58.752c-0.312,0.846-1.412,1.17-2.279,0.923s-1.546-0.907-2.177-1.552
		c-4.551-4.653-8.604-9.793-12.067-15.304c-1.458-2.319-2.833-4.761-3.345-7.453c-0.512-2.691-0.035-5.701,1.837-7.701
		c4.484-4.794,12.754-4.539,19.217-3.392c1.049,0.186,2.108,0.466,2.985,1.071c2.365,1.631,2.666,4.942,2.783,7.812
		c0.118,2.87,1.203,6.512,3.001,8.687c-0.705,0.762-1.287,0.638-1.714,1.584c-1.267,2.805,0.291,6.033,0.404,9.109
		c0.026,0.711-0.019,1.563-0.629,1.93c-0.397,0.239-0.897,0.177-1.355,0.107c-0.996-0.151-1.992-0.303-2.987-0.454
		c-0.692-0.105-1.544-0.146-1.938,0.432c-0.213,0.312-0.217,0.715-0.244,1.092C320.378,56.7,319.327,57.758,318.96,58.752z"/>
</g>
<g id="&#xB808;&#xC774;&#xC5B4;_16">
	<path style="fill:none;stroke:#000000;" d="M325.229,42.502c0.943,0.06,1.889,0.072,2.834,0.036"/>
</g>
<g id="&#xB808;&#xC774;&#xC5B4;_15">
	<path style="fill:none;stroke:#000000;" d="M316.995,51.318c0.145,0.408,0.525,0.679,0.892,0.91
		c1.016,0.639,2.781,1.408,3.905,1.831"/>
</g>
<g id="&#xB808;&#xC774;&#xC5B4;_17">
	<path style="fill:none;stroke:#000000;" d="M266.405,129.677c-2.023-0.057-3.975-0.715-5.892-1.367
		c-0.559-0.19-1.128-0.386-1.597-0.744c-0.468-0.359-0.826-0.916-0.79-1.505c0.152-2.498-0.45-4.984-0.51-7.487
		c-0.028-1.158-0.055-2.329,0.183-3.463c1.04-4.963,6.808-8.092,7.252-13.143c0.644-7.331,2.31-14.437,3.937-21.615
		c0.227-1.001,0.466-2.023,1.017-2.889s1.484-1.56,2.51-1.543c2.609,0.041,5.023-1.752,7.172-3.234
		c2.461-1.697,4.518-4.047,7.288-5.17c2.264-0.918,4.857-0.945,6.988-2.139c2.663-1.493,4.151-4.554,6.798-6.075
		c1.838-1.057,4.307-0.655,6.356-0.107c2.049,0.547,3.925,1.595,5.737,2.695c1.053,0.639,2.137,1.346,2.724,2.429
		c1.063,1.961,0.15,4.371-0.84,6.369c-1.409,2.845-3.295,5.881-6.374,6.655c-2.863,0.72-5.588,2.265-8.5,2.751
		c-4.338,0.724-8.676,1.447-13.014,2.171c-1.992,0.332-4.273,0.87-5.163,2.682c-2.481,5.049-5.025,9.894-8.709,14.146
		c-1.405,1.622-2.892,3.45-2.868,5.595c0.037,3.332-0.021,6.379-0.109,9.711c-0.046,1.751-0.088,3.535,0.408,5.215
		c0.473,1.604,1.436,3.19,1.096,4.827c-0.123,0.591-0.537,1.221-1.14,1.217c-0.764-0.005-1.109-0.931-1.325-1.664
		c-0.216-0.733-0.835-1.602-1.541-1.31c-0.846,0.35-1.746,0.926-2.029,1.797c-0.283,0.871-0.107,1.877,0.456,2.6
		c0.333,0.428,0.796,0.77,1.007,1.27C267.143,128.855,266.948,129.693,266.405,129.677z"/>
</g>
<g id="&#xB808;&#xC774;&#xC5B4;_18">
	<path style="fill:none;stroke:#000000;" d="M291.032,66.134c0.776-1.021,2.552-3.043,3.328-4.064
		c0.769-1.012,1.552-2.052,1.933-3.265c0.502-1.599,0.285-3.435,1.177-4.854c0.313-0.498,0.745-0.909,1.171-1.314
		c2.028-1.926,4.246-3.947,7.016-4.338"/>
</g>
<g id="&#xB808;&#xC774;&#xC5B4;_19">
	<path style="fill:none;stroke:#000000;" d="M294.642,231.896c-0.601,0.181-1.04,0.72-1.261,1.308
		c-0.22,0.588-0.255,1.226-0.288,1.853c-0.102,1.949-0.203,3.898-0.305,5.847c-0.027,0.514-0.052,1.041,0.104,1.531
		s0.536,0.943,1.042,1.034c3.941,0.711,8.027,0.386,11.898,1.412c1.464,0.388,2.866,0.997,4.35,1.3
		c1.658,0.339,3.367,0.286,5.059,0.232c2.169-0.069,4.339-0.138,6.508-0.208c1.203-0.038,2.679-0.264,3.084-1.397
		c0.411-1.15-0.63-2.277-1.617-2.998c-1.053-0.769-2.164-1.46-3.319-2.064c-2.918-1.525-6.091-2.487-9.242-3.44
		c-1.484-0.449-2.968-0.897-4.452-1.346C302.468,233.83,298.379,230.772,294.642,231.896z"/>
</g>
<g id="&#xB808;&#xC774;&#xC5B4;_20">
	<path style="fill:none;stroke:#000000;" d="M294.229,231.924c0.531-2.112,2.203-4.28,2.969-6.318
		c0.373-0.991,0.522-2.049,0.668-3.097c0.168-1.203,0.336-2.406,0.504-3.61c1.492-10.677,4.061-23.439,2.303-34.075"/>
	<path style="fill:none;stroke:#000000;" d="M306.954,234.877c0.114-5.945,0.252-12.524,2.35-18.088
		c1.342-3.56,0.636-7.573,1.541-11.268c0.84-3.429,3.371-6.231,4.368-9.618c0.688-2.337,0.607-4.822,0.521-7.257"/>
</g>
<g id="&#xB808;&#xC774;&#xC5B4;_21">
	<path style="fill:none;stroke:#000000;" d="M251.166,145c-1.849-0.366-4.054-1.208-4.277-3.079
		c-0.228-1.917,1.82-3.258,3.621-3.955c8.199-3.176,17.534-3.316,25.824-0.389c0.722,0.255,1.538,0.645,1.69,1.396
		c0.142,0.696-0.399,1.378-1.044,1.677c-0.644,0.3-1.376,0.324-2.08,0.422c-2.008,0.279-3.842,1.189-5.512,2.304
		c-1.503,1.003-2.715,2.505-4.471,2.817C260.692,146.946,255.319,145.823,251.166,145z"/>
</g>
<g id="&#xB808;&#xC774;&#xC5B4;_22">
	<path style="fill:none;stroke:#000000;" d="M265.404,146.083c13.787,12.224,22.854,29.24,37.37,40.588
		c1.591,1.244,3.264,1.916,5.226,2.396c2.392,0.586,5.063,1.139,7.2-0.085c1.345-0.77,2.252-2.152,2.759-3.616
		s0.655-3.024,0.8-4.567c0.337-3.581,0.253-7.097-0.84-10.524c-6.752,1.152-13.486-1.008-19.556-4.182
		c-3.116-1.63-6.321-3.82-8.697-6.412c-0.805-0.878-1.607-1.791-2.076-2.885c-0.555-1.295-0.603-2.747-1.006-4.097
		c-0.389-1.303-1.115-2.503-2.088-3.452c-1.991-1.943-4.312-3.715-5.933-5.977c-0.662-0.923-1.284-2.074-0.902-3.143"/>
</g>
<g id="&#xB808;&#xC774;&#xC5B4;_23">
	<path style="fill:none;stroke:#000000;" d="M281.234,146.34c-0.756-6.389-0.854-13.856-0.292-20.265
		c0.073-0.838,0.221-1.787,0.919-2.257c0.91-0.613,1.053-1.751,1.574-2.717c0.496-0.918,1-1.863,1.134-2.898
		c0.071-0.545,0.036-1.098,0.001-1.646c-0.075-1.173-0.15-2.345-0.225-3.518c-0.259-4.043-0.975-8.067-0.854-12.116
		c0.063-2.103,0.143-4.28,1.07-6.168c1.515-0.906,1.55-3.005,2.337-4.586c0.597-1.198,1.419-2.284,1.903-3.532
		c0.585-1.508,0.641-3.166,0.589-4.782"/>
</g>
<g id="&#xB808;&#xC774;&#xC5B4;_24">
	<path style="fill:none;stroke:#000000;" d="M317.494,59.888c0.157,4.381,3.827,7.834,4.957,12.07
		c1.151,4.314-0.394,9.205,1.61,13.195c0.962,1.915,0.076,4.099,0.154,6.241c0.06,1.654,0.102,3.383-0.329,4.956
		c-0.302,1.1-0.469,2.225-0.616,3.356c-0.132,1.021-0.538,2.016-1.047,2.946c-0.543,0.992-1.228,1.899-1.976,2.747l-4.567,5.184
		c-3.499,3.972-4.959,9.566-4.061,14.782c0.016,0.092,0.044,0.198,0.13,0.233c0.086,0.035,0.193-0.101,0.112-0.147
		c0.053,3.114,0.003,6.16,0.522,9.23c1.059,6.264,4.012,12.08,5.141,18.332c0.495,2.737,0.569,5.081,0.718,7.858
		c0.068,1.263,0.135,2.525,0.203,3.788c0.097,1.813,0.178,3.712-0.596,5.355"/>
</g>
</svg>
