<?xml version="1.0" encoding="iso-8859-1"?>
<!-- Generator: Adobe Illustrator 24.0.1, SVG Export Plug-In . SVG Version: 6.00 Build 0)  -->
<svg version="1.1" xmlns="http://www.w3.org/2000/svg" xmlns:xlink="http://www.w3.org/1999/xlink" x="0px" y="0px"
	 viewBox="0 0 464 261" style="enable-background:new 0 0 464 261;" xml:space="preserve">
<g id="&#xB808;&#xC774;&#xC5B4;_1" style="display:none;">
	<image style="display:inline;overflow:visible;" width="464" height="261" xlink:href="../10.png" >
	</image>
</g>
<g id="&#xB808;&#xC774;&#xC5B4;_2">
	<path style="fill:none;stroke:#000000;stroke-miterlimit:10;" d="M162.854,51.117c-0.572-1.077-0.941-2.258-1.575-3.299
		c-0.576-0.944-1.355-1.748-1.979-2.66c-2.651-3.876-2-9.526,1.139-13.017c3.139-3.492,8.35-4.784,12.902-3.632
		c1.109,0.281,2.196,0.699,3.127,1.363c0.921,0.657,1.66,1.531,2.389,2.397c1.995,2.368,4.048,4.846,4.817,7.845
		c0.322,1.257,0.564,2.786,1.751,3.309c0.556,0.245,1.411,0.462,1.276,1.054c-0.107,0.67-1.306,0.736-1.344,1.413
		c-0.011,0.195,0.09,0.377,0.183,0.549c1.319,2.44,1.704,5.26,2.067,8.011c0.043,0.328,0.075,0.699-0.139,0.951
		c-1.296,1.53-6.247-0.261-8.267,0.578c-1.524,0.633-2.399,2.175-3.879,2.83C171.267,60.602,164.58,54.37,162.854,51.117z"/>
</g>
<g id="&#xB808;&#xC774;&#xC5B4;_3">
	<path style="fill:none;stroke:#000000;stroke-miterlimit:10;" d="M182.191,55.769c-0.843,0.006-1.634-0.414-2.3-0.93
		s-1.249-1.136-1.93-1.631c-0.509-0.37-1.084-0.68-1.451-1.191"/>
</g>
<g id="&#xB808;&#xC774;&#xC5B4;_4">
	<path style="fill:none;stroke:#000000;stroke-miterlimit:10;" d="M145.194,58.923c0.748-0.824,1.496-1.648,2.244-2.472
		c0.501-0.553,1.015-1.115,1.665-1.481c1.166-0.658,2.589-0.595,3.923-0.48c0.92,0.079,1.839,0.174,2.756,0.286
		c0.801,0.097,1.613,0.21,2.35,0.538c0.547,0.243,1.037,0.598,1.509,0.967c1.398,1.09,2.687,2.321,3.84,3.668
		c1.455,1.7,2.741,3.726,2.773,5.963c0.017,1.192,0.375,2.327,0.29,3.516s-0.43,2.39-1.179,3.318
		c-0.48,0.595-1.107,1.055-1.759,1.456c-1.699,1.045-3.597,1.724-5.513,2.277c-0.739,0.213-1.484,0.409-2.239,0.551
		c-1.974,0.371-3.997,0.371-6.005,0.369c-4.651,0.603-9.382,0.637-14.063,0.348c-1.469-0.091-2.954-0.225-4.402,0.038
		c-1.448,0.263-2.884,0.984-3.651,2.24c-1.637,2.682-0.317,6.368,0.762,9.319c0.361,0.985,0.844,1.92,1.267,2.881
		c0.921,2.092,1.551,4.312,1.868,6.576c0.257,1.837-0.258,3.724,0.136,5.537c0.759,3.489,2.938,6.468,4.56,9.65
		c0.255,0.5,0.502,1.029,0.498,1.589s-0.332,1.159-0.877,1.291c-0.496,0.12-1.006-0.172-1.352-0.547s-0.588-0.836-0.933-1.211
		c-0.346-0.375-0.856-0.667-1.351-0.548c-0.496,0.119-0.815,0.814-0.453,1.173c0.248,1.776-0.139,3.623-0.64,5.345
		c-0.147,0.504-0.352,1.035-0.791,1.322c-0.7,0.457-1.675,0.073-2.233-0.549s-0.853-1.433-1.322-2.125
		c-1.017-1.502-2.747-2.318-4.241-3.346c-1.495-1.028-2.916-2.598-2.724-4.401c0.298-2.796-0.336-5.773-1.077-8.486
		c-0.707-2.587-2.239-4.941-2.572-7.602c-0.506-4.043,0.223-8.146,0.328-12.219c0.021-0.803,0.102-1.727,0.756-2.194
		c0.09-1.374,0.183-2.913-0.266-4.214c-0.356-1.032-1.038-1.955-1.208-3.033c-0.191-1.213,0.355-2.513,1.354-3.226
		c1.617-1.154,3.05-3.144,4.7-4.251c0.955-0.64,1.91-1.281,2.865-1.921c1.271-0.852,2.558-1.713,3.997-2.236
		c1.412-0.513,2.923-0.683,4.421-0.812C137.194,61.442,142.5,61.89,145.194,58.923z"/>
</g>
<g id="&#xB808;&#xC774;&#xC5B4;_5">
	<path style="fill:none;stroke:#000000;stroke-miterlimit:10;" d="M156.246,54.745c1.295-0.053,2.575-0.441,3.681-1.116
		c0.657-0.401,1.263-0.905,1.986-1.166c0.514-0.186,1.065-0.241,1.61-0.294"/>
</g>
<g id="&#xB808;&#xC774;&#xC5B4;_6">
	<path style="fill:none;stroke:#000000;stroke-miterlimit:10;" d="M149.53,77.465c0.667,1.406,1.27,2.841,1.808,4.301
		c1.116,3.03,0.512,6.46,0.764,9.678c0.223,2.841,0.448,5.701,1.176,8.457c1.834,6.951,0.266,14.497-1.822,21.376
		c-1.448,4.77-4.677,9.107-6.343,13.805c-0.435,1.228-0.875,2.474-0.964,3.774c-0.191,2.791-1.085,5.726-2.157,8.309
		c-0.718,1.731-1.625,3.385-2.24,5.155c-0.26,0.747-0.449,1.631,0,2.281c0.715,1.034,2.29,0.636,3.538,0.788
		c1.424,0.174,2.592,1.188,3.575,2.233c1.717,1.826,3.176,3.895,4.318,6.126c0.333,0.65,0.736,1.391,1.452,1.531
		c0.815,0.159,1.516-0.551,2.043-1.194c0.893-1.089,1.786-2.177,2.678-3.266c2.946-3.592,6.361-6.574,9.046-10.365
		c0.429-0.606,0.861-1.217,1.16-1.898c0.159-0.363,0.282-0.748,0.515-1.069c0.506-0.698,1.423-0.955,2.28-1.048
		c2.349-0.256,4.713,0.368,6.901,1.261s4.257,2.057,6.441,2.958c3.263,1.347,6.771,2.097,10.3,2.202
		c0.308,0.009,0.626,0.012,0.912-0.104c0.675-0.274,0.927-1.075,1.157-1.766c0.439-1.319,1.08-2.569,1.895-3.695
		c2.025-2.797,3.385-6.287,6.275-8.177c0.837-0.547,1.878-1.195,1.819-2.193c-0.053-0.895-0.972-1.437-1.747-1.888
		c-1.544-0.9-2.935-2.062-4.095-3.421c-4.104-4.808-10.463-7.123-16.223-9.726c-0.745-0.337-1.521-0.648-2.128-1.195
		c-0.857-0.773-1.276-1.951-1.301-3.105c-0.025-1.154,0.309-2.289,0.766-3.349c1.115-2.586,2.875-5.118,4.953-7.018
		c0.686-0.627,1.483-1.148,2.044-1.89c0.905-1.195,1.071-2.776,1.204-4.269c0.433-4.863,0.048-9.862-0.071-14.743
		c-0.064-2.641,0.282-5.373,0.434-8.01c0.212-3.676,0.385-7.549-1.272-10.837c-0.587-1.164-1.384-2.208-2.176-3.244
		c-2.336-3.055-4.873-6.261-8.493-7.557"/>
</g>
<g id="&#xB808;&#xC774;&#xC5B4;_7">
	<path style="fill:none;stroke:#000000;stroke-miterlimit:10;" d="M82.234,179.695c-1.349,0.542-2.515,1.465-3.539,2.497
		c-1.676,1.69-3.008,3.683-4.329,5.662c-1.059,1.587-2.119,3.174-3.178,4.762c-0.32,0.479-0.642,0.962-0.867,1.493
		c-0.334,0.786-0.444,1.645-0.643,2.475c-0.687,2.868-2.466,5.566-2.187,8.502c0.035,0.366,0.121,0.762,0.408,0.99
		c0.297,0.236,0.72,0.22,1.092,0.144c1.661-0.34,2.979-1.605,3.993-2.964c1.014-1.359,1.832-2.876,3.021-4.085
		c0.848-0.862,1.859-1.541,2.848-2.234c1.692-1.186,3.343-2.43,4.949-3.73c0.535-0.433,1.086-0.901,1.335-1.543
		c0.287-0.742,0.117-1.569,0.074-2.363c-0.059-1.108,0.143-2.228,0.587-3.245c0.478-1.096,1.224-2.059,1.697-3.156
		c0.491-1.138,0.836-3.053-0.587-3.507C85.437,178.921,83.644,179.129,82.234,179.695z"/>
</g>
<g id="&#xB808;&#xC774;&#xC5B4;_8">
	<path style="fill:none;stroke:#000000;stroke-miterlimit:10;" d="M87.977,180.52c2.9-0.532,6.019,0.28,8.767-0.788
		c1.172-0.455,2.19-1.225,3.269-1.869c4.857-2.901,11.027-3.316,15.454-6.838c1.834-1.459,3.355-3.44,5.565-4.22
		c2.152-0.76,4.525-0.224,6.801-0.399c2.906-0.223,5.697-1.68,7.543-3.935c1.794-2.193,2.659-4.994,4.188-7.379"/>
</g>
<g id="&#xB808;&#xC774;&#xC5B4;_9">
	<path style="fill:none;stroke:#000000;stroke-miterlimit:10;" d="M85.332,190.499c2.247-0.528,3.544-2.866,5.509-4.077
		c2.126-1.31,4.795-1.181,7.292-1.159c11.462,0.1,22.74-2.957,34.196-3.354c2.016-0.07,4.06-0.06,6.01-0.576
		c1.95-0.515,3.841-1.642,4.769-3.433c2.415-4.661,6.882-8.234,9.806-12.593"/>
	<path style="fill:none;stroke:#000000;stroke-miterlimit:10;" d="M243.5,113.5c-1.769-0.518-2.193-1.068-3.314-2.53
		c-0.924-1.204-1.087-2.813-1.705-4.199c-0.821-1.839-2.408-3.212-4.017-4.422c-2.822-2.122-5.867-3.947-9.07-5.434
		c-4.207-1.953-8.713-3.342-12.568-5.92c-1.731-1.157-3.302-2.537-5.003-3.738c-2.082-1.47-4.348-2.666-6.408-4.166
		c-2.06-1.5-3.951-3.372-4.894-5.74c-0.977-2.455-0.617-5.404-2.029-7.637c-1.413-2.233-3.326-4.099-5.254-5.906
		c-1.549-1.451-3.33-2.966-5.452-2.97"/>
	<path style="fill:none;stroke:#000000;stroke-miterlimit:10;" d="M189.633,91.069c10.481,2.995,20.683,6.965,30.431,11.843
		c1.517,0.759,3.053,1.562,4.228,2.785c1.113,1.159,1.835,2.626,2.64,4.017c0.822,1.422,1.746,2.785,2.761,4.076
		c0.544,0.692,1.141,1.384,1.941,1.75c0.822,0.377,1.759,0.366,2.661,0.413c2.523,0.131,4.205-0.453,7.205,1.547"/>
</g>
<g id="&#xB808;&#xC774;&#xC5B4;_10">
	<path style="fill:none;stroke:#000000;stroke-miterlimit:10;" d="M318.432,56.275c-1.097,0.916-1.658,2.418-2.904,3.118
		c-0.804,0.452-1.769,0.493-2.69,0.468c-1.014-0.027-2.027-0.122-3.029-0.282c-1.07-0.172-2.18-0.445-2.981-1.176
		c-0.521-0.475-0.867-1.106-1.218-1.718c-1.097-1.911-2.327-3.746-3.679-5.486c-1.534-1.975-3.312-4.05-3.36-6.55
		c-0.051-2.686,0.106-5.436,0.318-8.115c0.103-1.31,0.236-2.645,0.772-3.844c1.214-2.717,4.254-4.175,7.194-4.639
		c2.208-0.348,4.508-0.257,6.626,0.459c1.041,0.352,2.026,0.849,3.007,1.344c1.26,0.636,2.565,1.309,3.417,2.435
		c1.371,1.813,1.238,4.3,1.701,6.525c0.123,0.592,0.338,1.235,0.866,1.53c0.855,0.477,2.169-0.157,2.788,0.602
		c0.452,0.555,0.101,1.397-0.369,1.936c-0.471,0.539-1.082,1.045-1.173,1.755c-0.164,1.277,1.385,2.064,1.904,3.242
		c0.311,0.706,0.228,1.515,0.14,2.281c-0.116,1.007-0.232,2.015-0.348,3.022c-0.132,1.144-0.352,2.438-1.316,3.069
		c-0.437,0.286-0.967,0.386-1.487,0.439C321.221,56.83,319.751,56.732,318.432,56.275z"/>
</g>
<g id="&#xB808;&#xC774;&#xC5B4;_11">
	<path style="fill:none;stroke:#000000;stroke-miterlimit:10;" d="M319.495,56.524c-0.435-0.006-0.848-0.2-1.201-0.454
		c-0.353-0.254-0.658-0.568-0.983-0.856c-0.635-0.563-1.357-1.037-1.893-1.696"/>
</g>
<g id="&#xB808;&#xC774;&#xC5B4;_12">
	<path style="fill:none;stroke:#000000;stroke-miterlimit:10;" d="M287.721,57.395c1.028-1.452,2.758-2.287,4.512-2.58
		s3.551-0.098,5.312,0.155c0.699,0.101,1.413,0.216,2.033,0.553c0.676,0.367,1.191,0.971,1.647,1.591
		c2.246,3.051,3.455,6.852,3.383,10.641c-0.016,0.846-0.374,1.633-0.738,2.397c-0.333,0.7-0.666,1.399-1,2.099
		c-0.292,0.614-0.59,1.236-1.028,1.756c-0.728,0.864-1.796,1.385-2.894,1.652c-1.098,0.267-2.236,0.302-3.365,0.345
		c-3.583,0.135-7.163,0.354-10.737,0.656c-1.836,0.155-3.859,0.425-5.071,1.814c-0.995,1.14-2.646,1.389-3.972,2.118
		c-1.199,0.659-2.422,1.328-3.764,1.593c-0.827,0.163-1.69,0.171-2.485,0.452c-0.795,0.281-1.545,0.941-1.578,1.784
		c-0.826,0.567-0.667,1.899-0.927,2.867c-0.251,0.937-0.922,1.694-1.546,2.437c-1.31,1.558-2.507,3.212-3.577,4.944
		c-0.594,0.961-0.633,2.222-1.271,3.154c-0.507,0.742-1.162,1.397-1.504,2.228c-0.281,0.682-0.334,1.442-0.634,2.116
		c-0.248,0.557-0.652,1.028-0.973,1.546c-0.321,0.518-0.565,1.134-0.436,1.73c0.548,2.531,0.096,5.269-0.179,7.843
		c-0.122,1.137-0.293,2.269-0.372,3.41c-0.217,3.149,0.275,6.337-0.208,9.456c-0.054,0.349-0.165,0.754-0.495,0.88
		c-0.176,0.067-0.376,0.035-0.55-0.035c-1.566-0.632-0.97-3.458-2.491-4.193c-0.394-0.19-0.855-0.185-1.286-0.112
		c-1.085,0.183-2.116,0.809-2.666,1.762c-0.549,0.953-0.551,2.232,0.102,3.118c0.254,0.344,0.604,0.642,0.701,1.058
		c0.172,0.735-0.591,1.419-1.344,1.463c-0.754,0.044-1.457-0.345-2.111-0.722c-1.486-0.856-2.971-1.711-4.457-2.567
		c-1.563-0.9-3.295-2.04-3.538-3.827c-0.21-1.538,0.781-2.954,1.709-4.2c2.739-3.678,5.369-7.447,7.616-11.444
		c0.666-1.185,2.032-2.016,2.595-3.253c0.249-0.548,0.296-1.165,0.315-1.767c0.118-3.717-0.653-7.639,0.883-11.026
		c2.256-4.973,2.73-10.867,6.105-15.159c0.752-0.956,1.572-1.871,2.542-2.606c1.864-1.412,4.174-2.085,6.452-2.61
		c1.096-0.252,2.088-0.901,3.104-1.383c0.803-0.381,1.497-0.951,2.196-1.5c3.301-2.594,6.881-4.834,10.658-6.667
		c0.6-0.291,1.21-0.575,1.749-0.968C285.278,59.566,286.39,57.851,287.721,57.395z"/>
</g>
<g id="&#xB808;&#xC774;&#xC5B4;_13">
	<path style="fill:none;stroke:#000000;stroke-miterlimit:10;" d="M297.623,54.86c0.431-0.392,0.997-0.593,1.498-0.89
		c1.073-0.635,1.88-1.728,3.069-2.106"/>
</g>
<g id="&#xB808;&#xC774;&#xC5B4;_14">
	<path style="fill:none;stroke:#000000;stroke-miterlimit:10;" d="M286.968,76.545c0.219,0.73,0.378,1.477,0.475,2.233
		c0.063,0.491,0.102,0.996,0.301,1.45c0.156,0.354,0.402,0.66,0.609,0.987c0.654,1.037,0.901,2.279,1.467,3.367
		c0.423,0.813,1.043,1.611,0.975,2.525c-0.54,7.213,1.108,14.133,0.45,21.337c-0.316,3.46-0.632,6.92-0.948,10.381
		c-0.597,6.542-3.659,12.657-7.5,17.986c-0.761,1.055-1.569,2.083-2.185,3.229c-1.954,3.636-1.763,8-1.522,12.12
		c0.03,0.521,0.065,1.056,0.287,1.528c0.275,0.583,0.802,1,1.307,1.401c2.808,2.234,5.454,4.672,7.911,7.287
		c1.012,1.077,2.211,2.278,3.685,2.173c1.256-0.089,2.22-1.109,3.035-2.07c3.294-3.884,6.361-7.962,9.179-12.205
		c1.125-1.693,2.549-3.611,4.582-3.624c1.412-0.01,2.621,0.931,3.837,1.649c3.781,2.234,8.363,2.516,12.749,2.742
		c2.794,0.144,5.587,0.288,8.381,0.432c0.42,0.022,0.861,0.039,1.238-0.145c0.941-0.459,0.931-1.764,0.99-2.81
		c0.199-3.545,2.684-6.488,5.043-9.142c0.465-0.523,0.959-1.127,0.913-1.825c-0.054-0.823-0.821-1.387-1.509-1.841
		c-4.823-3.184-9.366-6.793-13.559-10.77c-2.699-2.56-5.658-5.455-9.377-5.53c0.493-5.231,6.825-8.752,6.606-14.001
		c-0.434-10.44,2.276-21.157,2.759-31.595c0.15-3.234,0.204-6.676-1.46-9.453c-1.81-3.019-5.246-4.593-8.476-5.991"/>
</g>
<g id="&#xB808;&#xC774;&#xC5B4;_15">
	<path style="fill:none;stroke:#000000;stroke-miterlimit:10;" d="M324.38,100.105c0.703-0.248,1.485,1.827,2.193,1.593
		c0.489-0.162,3.918-1.464,4.339-1.762c2.703-1.913,2.434-0.853,4.601-3.357c0.601-0.695,1.166-1.451,1.426-2.332
		c0.291-0.987,0.173-2.046,0.319-3.065c0.287-2.009,1.566-3.723,2.886-5.265c1.971-2.304,2.972-5.185,4.55-7.774
		c0.55-0.903,1.108-1.824,1.365-2.849c0.264-1.054,0.195-2.159,0.309-3.239c0.35-3.333,2.417-6.339,2.55-9.688
		c0.096-2.437,1.077-4.701,1.062-7.14c-0.008-1.382-0.234-2.913-1.296-3.797c-0.428-0.357-0.954-0.572-1.472-0.779
		c-1.273-0.51-2.591-1.014-3.962-1.007c-0.363,0.002-0.74,0.045-1.047,0.238c-0.83,0.522-0.715,1.733-0.638,2.71
		c0.069,0.884,0.022,1.778-0.141,2.649c-0.091,0.487-0.234,0.995-0.595,1.334s-1.005,0.419-1.33,0.045
		c-0.113-0.13-0.175-0.297-0.278-0.435c-0.433-0.586-1.423-0.422-1.898,0.13c-0.475,0.553-0.576,1.325-0.656,2.049
		c-0.118,1.061-0.237,2.128-0.184,3.194c0.101,2.041,0.827,4.01,0.953,6.05c0.173,2.806-0.793,5.545-1.774,8.18
		c-0.206,0.553-0.416,1.112-0.757,1.594c-0.27,0.382-0.615,0.706-0.909,1.07c-0.604,0.747-0.988,1.67-1.094,2.624
		c-1.472-2.615-3.055-5.347-5.633-6.882"/>
	<path style="fill:none;stroke:#000000;stroke-miterlimit:10;" d="M219.498,180.416c-0.692,0.027-1.406-0.059-2.061,0.164
		c-0.863,0.293-1.475,1.081-1.83,1.92c-0.696,1.645-0.575,3.518-1.06,5.237c-0.705,2.501-2.63,4.476-4.703,6.043
		c-0.736,0.556-1.524,1.103-1.975,1.908c-0.439,0.783-0.504,1.713-0.56,2.608c-0.129,2.078-0.214,4.327,0.949,6.054
		c0.159,0.236,0.353,0.468,0.62,0.567c0.233,0.086,0.493,0.06,0.737,0.008c2.546-0.543,3.843-3.403,6.066-4.757
		c0.633-0.386,1.338-0.645,1.958-1.051c0.722-0.472,1.304-1.125,1.877-1.77c1.451-1.634,2.932-3.314,3.726-5.35
		c1.099-2.816,0.842-6.195,2.691-8.587c0.451-0.584,1.014-1.084,1.387-1.721C229.811,177.434,220.8,180.364,219.498,180.416z"/>
</g>
<g id="&#xB808;&#xC774;&#xC5B4;_16">
	<path style="fill:none;stroke:#000000;stroke-miterlimit:10;" d="M333.943,78.554c-0.909,1.027-1.076,2.494-1.202,3.86
		c-0.065,0.712-0.131,1.425-0.196,2.137"/>
	<path style="fill:none;stroke:#000000;stroke-miterlimit:10;" d="M225.5,179.5c3.168-0.64,7.59-1.23,10.819-1.079
		c2.867-1.906,5.906-3.908,9.298-4.5c0.817-0.143,1.658-0.206,2.434-0.499c1.185-0.448,2.105-1.384,3.047-2.232
		c1.388-1.249,2.904-2.356,4.517-3.298c0.891-0.521,1.824-0.996,2.831-1.223c1.008-0.228,2.053-0.2,3.086-0.177
		c3.599,0.077,7.23,0.068,10.758-0.646c0.794-0.161,1.638-0.391,2.152-1.017c0.341-0.415,0.489-0.949,0.661-1.458
		c1.109-3.287,3.497-6.098,4.163-9.503"/>
</g>
<g id="&#xB808;&#xC774;&#xC5B4;_17">
	<path style="fill:none;stroke:#000000;stroke-miterlimit:10;" d="M223.957,189.62c1.544-1.047,3.111-2.106,4.874-2.712
		c1.058-0.364,2.165-0.557,3.269-0.738c12.663-2.079,25.555-2.757,38.366-2.018c1.876,0.108,3.803,0.241,5.593-0.33
		c1.965-0.627,3.636-2.118,4.481-3.999c1.994-4.438,6.061-7.492,9.076-11.311c0.935-1.184,1.87-2.369,2.76-3.588"/>
</g>
<g id="&#xB808;&#xC774;&#xC5B4;_18">
	<path style="fill:none;stroke:#000000;stroke-miterlimit:10;" d="M196.63,201.909c-0.625,0.515-0.946,1.303-1.242,2.056
		c-0.565,1.436-1.131,2.873-1.696,4.309c-0.296,0.751-0.556,1.704,0.007,2.283c0.249,0.256,0.607,0.368,0.95,0.467
		c1.468,0.426,2.959,0.799,4.364,1.403c4.484,1.927,7.806,6.071,12.429,7.635c2.586,0.875,5.384,0.868,8.106,0.669
		c1.274-0.093,2.544-0.226,3.81-0.398c0.21-0.029,0.439-0.068,0.581-0.225c0.118-0.131,0.151-0.318,0.151-0.494
		c-0.003-0.667-0.418-1.278-0.944-1.688c-0.526-0.411-1.158-0.657-1.774-0.915c-2.687-1.126-5.23-2.565-7.765-4
		c-0.836-0.473-1.675-0.948-2.443-1.525c-0.781-0.586-1.48-1.271-2.217-1.911c-2.033-1.767-4.331-3.183-6.52-4.74
		c-1.084-0.771-2.195-1.565-3.152-2.493C198.493,201.587,197.663,201.058,196.63,201.909z"/>
</g>
<g id="&#xB808;&#xC774;&#xC5B4;_19">
	<path style="fill:none;stroke:#000000;stroke-miterlimit:10;" d="M197.763,201.14c-0.97-2.368-0.921-5.011-0.857-7.569
		c0.116-4.664,0.232-9.329,0.348-13.993c0.127-5.09,3.353-9.85,3.176-14.938c-0.094-2.701,0.323-5.388,0.469-8.087
		c0.032-0.586,0.069-1.195,0.348-1.712c0.221-0.411,0.601-0.819,0.485-1.271c-2.089-0.012-4.187-0.64-6.232-1.069"/>
</g>
<g id="&#xB808;&#xC774;&#xC5B4;_20">
	<path style="fill:none;stroke:#000000;stroke-miterlimit:10;" d="M201.5,154.5c0.358-0.754,0.779-1.43,1.082-2.208"/>
</g>
<g id="&#xB808;&#xC774;&#xC5B4;_21">
	<path style="fill:none;stroke:#000000;stroke-miterlimit:10;" d="M202.574,204.951c-0.431-2.645,0.053-5.348,0.632-7.964
		c0.589-2.66,1.316-5.379,2.98-7.535c0.948-1.227,1.284-2.861,1.741-4.342c1.184-3.836,1.993-7.775,2.801-11.707
		c0.667-3.245,1.797-6.419,3.644-9.169c1.008-1.5,2.179-3.143,2.994-4.757c0.244-0.483,0.471-0.975,0.639-1.489
		c0.359-1.098,0.438-2.266,0.513-3.419c0.09-1.374,0.024-2.903,0.086-4.279c0.035-0.777,0.067-1.577-0.191-2.311
		c-0.26-0.74-0.793-1.349-1.332-1.919c-2.522-2.666-5.442-4.918-8.348-7.159c-0.767-0.591-1.591-1.206-2.556-1.292"/>
</g>
<g id="&#xB808;&#xC774;&#xC5B4;_22">
	<path style="fill:none;stroke:#000000;stroke-miterlimit:10;" d="M335.976,202.772c-0.733,0.339-1.181,1.079-1.586,1.778
		c-0.66,1.141-1.321,2.282-1.981,3.424c-0.29,0.502-0.586,1.019-0.674,1.592c-0.072,0.468,0.014,0.98,0.326,1.335
		c0.199,0.227,0.476,0.375,0.765,0.463c0.79,0.238,1.637,0.043,2.462,0.05c1.38,0.012,2.698,0.6,3.848,1.363
		s2.169,1.706,3.266,2.542c3.376,2.572,7.418,4.092,11.418,5.509c1.089,0.386,2.191,0.769,3.337,0.913
		c0.917,0.115,1.854,0.074,2.758-0.121c0.5-0.108,1.004-0.271,1.393-0.602c0.802-0.683,0.905-1.866,0.924-2.92
		c0.005-0.283,0.007-0.573-0.092-0.837c-0.135-0.36-0.438-0.628-0.741-0.865c-2.772-2.176-6.288-3.104-9.566-4.397
		c-3.274-1.291-6.386-2.99-9.243-5.045c-0.684-0.492-1.354-1.004-2.073-1.442c-0.837-0.509-2.003-0.937-2.563-1.773
		C337.473,203.023,337.096,202.254,335.976,202.772z"/>
</g>
<g id="&#xB808;&#xC774;&#xC5B4;_23">
	<path style="fill:none;stroke:#000000;stroke-miterlimit:10;" d="M336.63,202.323c1.361-5.893,1.924-11.971,1.668-18.014
		c-0.074-1.757-0.044-3.519,0.055-5.274c0.102-1.796,0.203-3.595,0.164-5.393c-0.06-2.713-0.441-5.434-0.128-8.129
		c0.275-2.372,1.08-4.647,1.927-6.879c0.314-0.827,0.637-1.664,0.718-2.544c0.08-0.88-0.115-1.827-0.721-2.47
		c-1.291-1.369-4.236-1.091-5.812-2.119"/>
</g>
<g id="&#xB808;&#xC774;&#xC5B4;_24">
	<path style="fill:none;stroke:#000000;stroke-miterlimit:10;" d="M341.749,206.408c0.736-1.76,2.011-3.231,3.018-4.851
		c2.948-4.743,3.495-10.542,3.967-16.106c0.498-5.868,1.449-11.756,3.419-17.306c1.736-4.89,3.582-10.008,2.668-15.117
		c-0.194-1.087-0.246-2.3-0.268-3.404c-0.017-0.867-0.039-1.76-0.382-2.557c-0.284-0.66-0.771-1.211-1.275-1.724
		c-3.01-3.069-6.827-5.197-10.586-7.282"/>
</g>
</svg>
