<?xml version="1.0" encoding="iso-8859-1"?>
<!-- Generator: Adobe Illustrator 24.0.1, SVG Export Plug-In . SVG Version: 6.00 Build 0)  -->
<svg version="1.1" xmlns="http://www.w3.org/2000/svg" xmlns:xlink="http://www.w3.org/1999/xlink" x="0px" y="0px"
	 viewBox="0 0 464 261" style="enable-background:new 0 0 464 261;" xml:space="preserve">
<g id="&#xB808;&#xC774;&#xC5B4;_1" style="display:none;">
	<image style="display:inline;overflow:visible;" width="464" height="261" xlink:href="../13.png" >
	</image>
</g>
<g id="&#xB808;&#xC774;&#xC5B4;_2">
	<path style="fill:none;stroke:#000000;stroke-miterlimit:10;" d="M171.337,62.43c-1.15,0.024-2.332,0.043-3.408-0.363
		c-1.606-0.605-2.716-2.043-3.866-3.317c-1.07-1.185-2.243-2.277-3.502-3.26c-1.361-1.062-2.906-2.108-3.46-3.743
		c-0.336-0.991-0.253-2.071-0.117-3.109c0.186-1.419,0.465-2.826,0.835-4.209c0.36-1.346,0.826-2.707,1.734-3.763
		c0.668-0.777,1.54-1.347,2.4-1.906c1.363-0.887,2.767-1.791,4.359-2.123c1.446-0.302,2.948-0.108,4.396,0.18
		c3.77,0.752,7.653,2.34,9.746,5.564c0.498,0.767,0.882,1.609,1.449,2.327c0.783,0.993,1.871,1.694,2.767,2.586
		c0.262,0.261,0.526,0.635,0.371,0.971c-0.088,0.19-0.285,0.299-0.463,0.41c-0.65,0.403-1.188,0.983-1.543,1.661
		c-0.104,0.198-0.19,0.443-0.077,0.635c0.137,0.231,0.463,0.234,0.708,0.345c0.539,0.244,0.618,0.962,0.62,1.554
		c0.004,1.521,0.009,3.043,0.013,4.564c0.003,1.107-0.166,2.479-1.204,2.865c-1.275,0.474-2.694-1.041-3.943-0.503
		c-1.226,0.528-1.181,2.203-2.551,2.544C175.052,62.725,172.945,62.396,171.337,62.43z"/>
</g>
<g id="&#xB808;&#xC774;&#xC5B4;_3">
	<path style="fill:none;stroke:#000000;stroke-miterlimit:10;" d="M175.291,56.238c0.6,0.499,0.932,1.25,1.467,1.819
		c0.696,0.74,1.681,1.124,2.64,1.46c0.448,0.157,0.904,0.31,1.378,0.341"/>
</g>
<g id="&#xB808;&#xC774;&#xC5B4;_4">
	<path style="fill:none;stroke:#000000;stroke-miterlimit:10;" d="M144.696,65.03c1.279-1.105,2.739-2.002,4.364-2.468
		c5.011-1.435,10.642-0.082,14.547,3.322c0.311,0.271,0.619,0.564,0.803,0.934c0.195,0.392,0.236,0.841,0.274,1.278
		c0.137,1.582,0.274,3.164,0.357,4.75c0.042,0.803,0.069,1.621-0.136,2.398c-0.383,1.457-1.515,2.579-2.601,3.623
		c-1.403,1.35-3.595,1.67-5.533,1.846c-2.912,0.265-5.973-0.506-8.702,0.543c-0.905,0.348-1.726,0.882-2.595,1.313
		c-1.838,0.912-3.883,1.358-5.763,2.113c-0.984,0.395-2.017,0.666-3.076,0.702c-2.332,0.08-4.67,0.003-6.992-0.229
		c-0.138,1.176-0.125,2.252-0.052,3.434c0.362,5.808,0.054,11.845,0.113,17.664c0.008,0.772,0.02,1.568,0.328,2.276
		c0.233,0.536,0.621,0.987,1.003,1.429c0.723,0.836,1.447,1.673,2.17,2.509c1.106,1.278,2.423,2.53,3.714,3.619
		c1.189,1.003,2.411,2.048,3.09,3.447c0.256,0.527,0.427,1.095,0.506,1.675c0.048,0.35,0.053,0.737-0.157,1.022
		c-0.632,0.857-2.16-0.169-3.027,0.45c-0.497,0.355-0.523,1.071-0.501,1.681c0.009,0.236,0.017,0.473,0.026,0.709
		c0.018,0.493-0.097,1.204,0.337,1.44c0.187,0.101,0.413,0.097,0.61,0.176c0.547,0.219,0.653,0.938,0.641,1.527
		c-0.019,0.964-0.198,2.052-0.994,2.596c-0.783,0.535-1.844,0.323-2.736,0.003c-1.964-0.704-3.773-1.837-5.262-3.297
		c-0.724-0.71-1.593-1.179-2.193-1.996c-0.434-0.591-0.774-1.246-1.112-1.897c-0.685-1.32-1.374-2.65-1.801-4.075
		c-0.612-2.041-0.696-4.29-1.458-6.239c-1.743-4.463-3.064-9.079-3.449-13.855c-0.484-6.006-0.885-12.183-0.735-18.238
		c0.018-0.726,0.046-1.467,0.309-2.144c0.247-0.639,0.688-1.181,1.125-1.709c1.153-1.394,2.345-2.786,3.827-3.824
		c1.153-0.807,2.512-1.386,3.902-1.49c0.74-0.055,1.466-0.26,2.047-0.722c0.148-0.117,0.305-0.223,0.486-0.309
		c1.888-0.892,4.297-0.896,6.286-1.532c0.849-0.272,1.64-0.695,2.425-1.116C141.111,67.298,143.001,66.493,144.696,65.03z"/>
</g>
<g id="&#xB808;&#xC774;&#xC5B4;_5">
	<path style="fill:none;stroke:#000000;stroke-miterlimit:10;" d="M158.513,62.89c0.742-0.729,1.484-1.458,2.226-2.187
		c0.154-0.151,0.308-0.303,0.478-0.437c0.192-0.152,0.401-0.281,0.59-0.437c0.273-0.226,0.498-0.505,0.72-0.781
		c0.235-0.293,0.471-0.585,0.706-0.878"/>
</g>
<g id="&#xB808;&#xC774;&#xC5B4;_6">
	<path style="fill:none;stroke:#000000;stroke-miterlimit:10;" d="M146.486,81.899c0.193,0.886,0.385,1.773,0.479,2.675
		c0.074,0.714,0.086,1.434,0.159,2.148c0.179,1.762,0.731,3.485,1.61,5.022c0.471,0.824,0.943,2.249,0.968,3.197
		c0.127,4.955-0.292,10.072-0.37,15.012c-0.009,0.587-0.017,1.185,0.149,1.749c0.136,0.461,0.384,0.88,0.565,1.325
		c0.63,1.547,0.425,3.292,0.209,4.948c-1.087,8.348-3.142,16.568-4.01,24.941c-0.373,3.597-2.942,6.51-4.711,9.664
		c-0.385,0.686-0.779,1.369-1.081,2.095c-0.478,1.151-0.716,2.403-0.68,3.649c0.029,1.009-0.213,2.204-0.284,3.211
		c5.531,0.63,10.323,3.99,14.897,7.161c0.4,0.278,0.817,0.562,1.296,0.651c1.174,0.219,2.196-0.765,2.986-1.661
		c1.082-1.228,2.313-2.217,3.446-3.398c1.05-1.094,2.111-2.201,2.876-3.509c0.766-1.309,1.221-2.858,0.954-4.351
		c-0.081-0.455-0.227-0.93-0.075-1.366c0.162-0.465,0.617-0.752,1.041-1.003c1.478-0.875,3.132-1.784,4.819-1.458
		c1.781,0.344,3.096,1.987,4.876,2.333c3.811,0.74,6.718,3.52,10.398,4.756c0.781,0.262,1.258,0.785,2.076,0.889
		c1.621-0.969,2.011-3.176,3.053-4.752c0.575-0.87,1.342-1.594,2.122-2.286c2.064-1.832,4.269-3.505,6.589-4.998
		c0.91-0.586,1.863-1.168,2.631-1.916c0.412-0.401,0.293-1.109-0.244-1.317c-1.597-0.62-2.93-2.101-4.301-3.167
		c-1.58-1.23-3.378-2.147-5.04-3.264c-4.34-2.915-7.728-7.163-12.324-9.654c-0.591-0.321-1.21-0.618-1.67-1.115
		c-0.451-0.488-0.6-1.183-0.455-1.832c0.515-2.305,0.907-4.679,2.047-6.743c0.582-1.054,1.301-2.026,1.929-3.054
		c0.695-1.137,1.279-2.341,1.741-3.591c0.567-1.534,0.708-4.086,0.301-5.67c-1.24-4.816,0.301-10.056-0.092-15.047
		c-0.116-1.471,0.043-2.95,0.056-4.426c0.015-1.673,0.03-3.36-0.643-4.968c-0.755-1.804-0.909-3.779-0.48-5.687
		c0.284-1.265,0.359-2.621,0.456-3.928c0.181-2.429-0.424-4.874-1.818-6.871c-1.336-1.914-3.153-3.432-5.023-4.825"/>
</g>
<g id="&#xB808;&#xC774;&#xC5B4;_7">
	<path style="fill:none;stroke:#000000;stroke-miterlimit:10;" d="M82.509,177.816c-3.273,2.46-7.244,3.948-10.258,6.718
		c-0.632,0.581-1.234,1.227-2.011,1.592c-0.939,0.442-2.021,0.424-3.058,0.398c-0.801-0.021-1.693-0.08-2.239-0.666
		c-0.644-0.691-0.509-1.789-0.217-2.687c0.719-2.213,2.107-4.136,3.475-6.018c0.761-1.048,1.523-2.096,2.284-3.144
		c0.952-1.311,1.908-2.626,3.03-3.794c2.748-2.859,6.395-4.735,9.113-7.621c0.553-0.587,1.081-1.226,1.79-1.609
		c1.701-0.917,3.881-0.039,5.219,1.355c0.196,0.204,0.383,0.422,0.517,0.672c0.204,0.38,0.274,0.817,0.314,1.246
		c0.251,2.719-0.685,5.313-2.374,7.419C86.318,173.89,84.821,176.078,82.509,177.816z"/>
</g>
<g id="&#xB808;&#xC774;&#xC5B4;_8">
	<path style="fill:none;stroke:#000000;stroke-miterlimit:10;" d="M90.53,164.253c1.628-0.231,3.277,0.238,4.796,0.87
		c1.518,0.632,2.972,1.432,4.544,1.915c2.183,0.67,4.503,0.702,6.786,0.729c2.845,0.033,5.575,0.199,8.42,0.207
		c0.472,0.001,0.944,0.003,1.414,0.045c0.657,0.059,1.303,0.199,1.954,0.303c2.493,0.397,5.036,0.266,7.557,0.382
		c4.571,0.21,9.102,1.242,13.313,3.032c-0.595-1.608-0.623-3.382-0.284-5.062s0.756-3.402,0.459-5.091"/>
</g>
<g id="&#xB808;&#xC774;&#xC5B4;_9">
	<path style="fill:none;stroke:#000000;stroke-miterlimit:10;" d="M85.305,175.073c2.32-0.345,4.659-0.563,7.003-0.65
		c0.924-0.034,1.877-0.044,2.738,0.292c0.828,0.323,1.501,0.938,2.22,1.462c3.597,2.623,8.305,2.958,12.714,3.574
		c3.742,0.522,7.447,1.312,11.076,2.362c1.797,0.52,3.83,0.768,5.64,1.238c3.516,0.913,7.031,1.827,10.549,2.732
		c1.662,0.428,3.416,0.854,5.072,0.403c2.309-0.629,3.826-2.773,5.146-4.769c1.745-2.639,4.452-4.411,6.544-6.784
		c0.742-0.842,1.492-1.734,1.795-2.815c0.245-0.873,0.194-1.853,0.691-2.611"/>
</g>
<g id="&#xB808;&#xC774;&#xC5B4;_10">
	<path style="fill:none;stroke:#000000;stroke-miterlimit:10;" d="M213.166,216.244c-0.885-0.018-1.878,0.213-2.343,0.966
		c-0.256,0.415-0.308,0.92-0.353,1.406c-0.167,1.796-0.248,3.849,1.024,5.126c0.981,0.985,2.477,1.194,3.86,1.332
		c7.682,0.767,15.493,0.982,23.071-0.491c1.811-0.352,3.636-0.813,5.208-1.777c0.776-0.476,1.499-1.095,1.89-1.917
		c0.391-0.822,0.385-1.875-0.191-2.58c-1.097-1.342-3.213-0.697-4.943-0.811c-1.776-0.118-3.342-1.154-5.026-1.73
		c-1.237-0.423-2.545-0.597-3.847-0.712C225.224,214.497,219.323,216.37,213.166,216.244z"/>
</g>
<g id="&#xB808;&#xC774;&#xC5B4;_11">
	<path style="fill:none;stroke:#000000;stroke-miterlimit:10;" d="M189.046,160.712c2.263,1.665,4.999,2.681,7.801,2.895
		c-0.403,2.137-0.355,4.358,0.141,6.475c0.89,3.799,0.673,7.934,1.328,11.781c0.447,2.624,1.1,5.392,3.007,7.25
		c1.908,1.86,2.478,4.91,3.182,7.48c0.663,2.421,0.794,4.982,1.668,7.335c1.148,3.091,3.542,5.729,3.996,8.995
		c0.187,1.343,0.043,2.781,0.67,3.984"/>
</g>
<g id="&#xB808;&#xC774;&#xC5B4;_12">
	<path style="fill:none;stroke:#000000;stroke-miterlimit:10;" d="M222.5,215.5c-1.564-0.76-1.809-2.504-2.897-3.86
		c-1.976-2.463-2.245-5.849-2.279-9.006c-0.033-3.157,0.051-6.472-1.414-9.268c-1.532-2.925-1.677-6.504-2.931-9.558
		c-0.613-1.493-1.361-2.937-1.814-4.487c-0.614-2.097-0.668-4.313-0.657-6.497c0.013-2.486,0.113-5.01,0.88-7.375
		c0.783-2.414,0.752-5.039,0.947-7.569c0.196-2.53-0.214-5.267-1.915-7.15c-0.625-0.692-1.394-1.235-2.156-1.771
		c-1.518-1.069-3.089-2.163-4.904-2.556"/>
</g>
<g id="&#xB808;&#xC774;&#xC5B4;_13">
	<path style="fill:none;stroke:#000000;stroke-miterlimit:10;" d="M311.698,60.608c-2.802-1.002-5.424-2.504-7.706-4.413
		c-0.838-0.701-1.637-1.461-2.567-2.035c-0.528-0.326-1.107-0.6-1.51-1.07c-0.712-0.83-0.701-2.039-0.653-3.132
		c0.078-1.745-0.547-3.567-0.952-5.267c-0.136-0.573-0.274-1.15-0.519-1.685c-0.286-0.624-0.711-1.179-0.971-1.814
		c-0.535-1.304-0.319-2.78-0.095-4.172c0.582-3.606,3.597-6.724,7.018-8.005c3.421-1.281,7.201-1.219,10.822-0.74
		c2.64,0.349,5.485,1.049,7.103,3.164c1.833,2.397,1.595,6.004,3.679,8.186c0.662,0.693,1.548,1.228,1.913,2.114
		c0.373,0.904,0.09,1.973-0.478,2.77c-0.567,0.797-1.382,1.377-2.181,1.941c-0.22,2.128-0.243,4.184-0.143,6.321
		c0.027,0.584,0.003,1.293-0.504,1.583c-0.215,0.123-0.473,0.138-0.721,0.14c-0.975,0.007-1.951-0.143-2.88-0.441
		c-0.737-0.237-1.46-0.569-2.233-0.607c-0.773-0.038-1.639,0.32-1.89,1.052c-0.214,0.626-0.673,1.057-1.215,1.437
		c-0.522,0.366-1.043,0.732-1.565,1.098c-0.497,0.349-1.028,0.745-1.187,1.331c-0.163,0.605,0.119,1.244,0.063,1.868
		c-0.014,0.152-0.052,0.311-0.161,0.418C312.06,60.76,311.842,60.659,311.698,60.608z"/>
</g>
<g id="&#xB808;&#xC774;&#xC5B4;_14">
	<path style="fill:none;stroke:#000000;stroke-miterlimit:10;" d="M285.683,62.641c1.653-0.731,3.306-1.461,4.959-2.192
		c0.989-0.437,2.083-0.883,3.12-0.574c0.695,0.207,1.248,0.725,1.767,1.232c0.966,0.943,1.914,1.904,2.843,2.884
		c1.387,1.462,2.757,3.003,3.53,4.863s0.857,4.121-0.26,5.797c-1.35,2.026-2.927,3.944-5.119,5.005
		c-3.863,1.87-8.187,2.777-12.476,2.618c-3.179,0.608-6.322,0.578-9.503,1.176c-3.181,0.598-6.453,2.212-7.765,5.171
		c-0.62,1.398-1.155,2.854-1.593,4.32c-0.736,2.458-1.471,4.916-2.207,7.374c-0.403,1.347-0.808,2.699-1.397,3.976
		c-0.893,1.936-2.055,3.646-3.334,5.353c-0.673,0.897-1.402,1.783-1.778,2.839c-0.439,1.232-0.358,2.579-0.272,3.884
		c0.188,2.847,1.169,5.488,1.284,8.339c0.043,1.076-0.003,2.239-0.659,3.093s-2.135,1.125-2.773,0.258
		c-0.5-0.678-0.259-1.617-0.178-2.455c0.095-0.975-0.064-1.973-0.457-2.871c-0.629-0.25-1.362,0.158-1.721,0.731
		c-0.36,0.573-0.445,1.27-0.553,1.938c-0.226,1.389-0.59,2.756-1.086,4.074c-0.246,0.655-0.538,1.318-1.048,1.797
		c-1.212,1.139-3.291,0.81-4.535-0.295c-1.244-1.105-1.836-2.755-2.291-4.356c-0.371-1.307-0.686-2.663-0.536-4.013
		c0.18-1.621,1.009-3.087,1.821-4.501c1.104-1.924,1.882-4.108,2.833-6.112c1.306-2.753,1.91-5.778,2.501-8.767
		c1.674-1.866,1.989-4.319,2.418-6.788c0.429-2.469,0.604-4.999,1.376-7.383c0.661-2.04,1.748-3.935,2.245-6.021
		c0.302-1.267,0.381-2.587,0.799-3.82c0.418-1.233,1.277-2.425,2.535-2.762c1.539-0.413,2.943-1.298,4.464-1.775
		c4.444-1.397,8.124-4.472,12.109-6.883c1.423-0.861,3.001-1.667,4.66-1.541C281.792,66.434,283.492,63.61,285.683,62.641z"/>
</g>
<g id="&#xB808;&#xC774;&#xC5B4;_15">
	<path style="fill:none;stroke:#000000;stroke-miterlimit:10;" d="M294.269,59.938c0.955-0.93,1.922-1.877,2.582-3.036
		c0.231-0.405,0.421-0.832,0.66-1.232c0.562-0.944,1.389-1.727,2.362-2.236"/>
</g>
<g id="&#xB808;&#xC774;&#xC5B4;_16">
	<path style="fill:none;stroke:#000000;stroke-miterlimit:10;" d="M185.514,91.857c2.517,2.365,5.955,3.413,9.216,4.552
		c0.668,0.233,1.337,0.475,1.953,0.823c0.663,0.374,1.253,0.865,1.854,1.332c3.328,2.587,7.102,4.529,10.864,6.428
		c2.784,1.405,5.603,2.806,8.629,3.559c1.113,0.277,2.254,0.465,3.323,0.879c1.07,0.414,2.088,1.089,2.642,2.093
		c1.006,1.826,1.126,4.253,2.415,5.892s3.295,2.797,5.379,2.719c0.982-0.036,1.984-0.335,2.929-0.067
		c0.49,0.139,0.925,0.422,1.364,0.682c1.758,1.039,3.709,2.751,5.723,3.09"/>
</g>
<g id="&#xB808;&#xC774;&#xC5B4;_19">
	<path style="fill:none;stroke:#000000;stroke-miterlimit:10;" d="M251.674,124.026c0.663,0.4,1.325,0.799,1.988,1.199"/>
</g>
<g id="&#xB808;&#xC774;&#xC5B4;_17">
	<path style="fill:none;stroke:#000000;stroke-miterlimit:10;" d="M183.082,66.422c1.303,0.549,2.636,1.118,3.664,2.089
		c0.864,0.817,1.46,1.869,2.124,2.856c1.659,2.467,3.806,4.601,5.249,7.201c1.056,1.902,1.713,4.018,2.898,5.843
		c2.039,3.14,5.416,5.109,8.669,6.963c6.934,3.952,13.631,8.457,21.102,11.265c1.445,0.543,2.943,1.073,4.094,2.102
		c0.816,0.73,1.409,1.672,1.991,2.6c1.034,1.649,2.068,3.298,3.101,4.947c0.875,1.396,1.444,2.89,2.672,3.989
		c1.201,1.074,2.677,1.781,4.132,2.473"/>
</g>
<g id="&#xB808;&#xC774;&#xC5B4;_18">
	<path style="fill:none;stroke:#000000;stroke-miterlimit:10;" d="M250.121,129.255c0.551,0.723,1.423,1.192,2.33,1.251
		c0.907,0.059,1.833-0.296,2.467-0.948c0.297-0.306,0.528-0.669,0.757-1.029"/>
</g>
<g id="&#xB808;&#xC774;&#xC5B4;_20">
	<path style="fill:none;stroke:#000000;stroke-miterlimit:10;" d="M284.137,82.423c0.175,1.16,0.596,2.283,1.228,3.272
		c0.224,0.351,0.476,0.688,0.636,1.072c0.157,0.376,0.22,0.785,0.238,1.192c0.06,1.415-0.447,2.847-1.385,3.909
		c-1.308,1.48-0.516,3.956-0.847,5.903c-0.47,2.769-1.921,5.316-2.237,8.106c-0.134,1.18-0.061,2.379-0.25,3.551
		c-1.242,7.698-3.207,15.47-2.251,23.208c1.048,8.483,1.973,17.333,3.336,25.771c0.164,1.014,0.357,2.084,1.033,2.857
		c0.122,0.139,0.268,0.294,0.247,0.478c-0.021,0.184-0.345,0.266-0.372,0.083c2.745,3.294,5.833,6.295,8.838,9.353
		c0.675,0.687,1.372,1.38,2.234,1.81c0.843,0.421,1.793,0.566,2.725,0.705c1.007,0.15,2.014,0.3,3.02,0.451
		c0.498,0.074,1.042,0.14,1.472-0.122c0.457-0.278,0.642-0.842,0.757-1.364c0.277-1.269,0.341-2.584,0.188-3.873
		c-0.061-0.511-0.15-1.056,0.075-1.519c0.269-0.554,0.919-0.821,1.531-0.882c1.429-0.142,2.784,0.565,4.139,1.042
		c1.355,0.477,3.026,0.674,4.086-0.295c2.044-1.868,4.434-3.657,6.892-4.932c0.356-0.185,0.724-0.369,0.996-0.664
		c0.449-0.488,0.565-1.204,0.501-1.865c-0.254-2.639-2.876-4.509-3.401-7.108c-0.436-2.158-2.804-3.554-3.89-5.469
		c-1.086-1.915-1.856-4.056-1.886-6.257c-0.069-5.095-0.108-10.207,1.506-15.04c1.103-3.302,0.49-7.021,1.854-10.224
		c0.515-1.21,1.145-2.368,1.755-3.533c1.566-2.993,3.006-6.052,4.315-9.167c2.787-6.633,0.798-14.371,1.984-21.467
		c1.007-6.024,0.9-12.272,0.861-18.379c-0.007-1.149-0.058-2.393-0.777-3.289c-0.391-0.487-0.939-0.816-1.476-1.135
		c-0.944-0.561-1.888-1.122-2.832-1.683c-1.02-0.606-2.059-1.22-3.211-1.503"/>
</g>
<g id="&#xB808;&#xC774;&#xC5B4;_21">
	<path style="fill:none;stroke:#000000;stroke-miterlimit:10;" d="M323.773,78.515c0.172,0.558,0.941,0.609,1.4,0.969
		c0.201,0.158,0.343,0.38,0.458,0.608c0.594,1.187,0.528,2.581,0.502,3.908c-0.069,3.527,0.246,7.061,0.937,10.52
		c1.462,7.318,1.774,14.784,4.225,21.833c1.243,3.576,4.205,6.459,6.595,9.395c1.486,1.825,3.144,3.787,3.196,6.14
		c0.033,1.517,0.344,3.101,0.085,4.596c-0.074,0.43-0.178,0.876-0.467,1.203c-0.445,0.506-1.201,0.588-1.874,0.538
		c-1.885-0.14-3.697-1.077-4.902-2.534c-0.422-0.511-0.788-1.095-1.355-1.439c-0.566-0.344-1.428-0.331-1.773,0.234
		c-0.183,0.3-0.18,0.68-0.326,1c-0.254,0.556-1,0.822-1.548,0.552c-0.72-0.354-0.865-1.313-0.81-2.113
		c0.127-1.853,0.823-3.676,0.612-5.521c-0.134-1.168-0.632-2.278-1.335-3.219c-2.367-3.17-3.786-7.07-5.666-10.551
		c-0.465-0.86-0.935-1.729-1.588-2.458c-0.652-0.728-1.513-1.314-2.482-1.446"/>
</g>
<g id="&#xB808;&#xC774;&#xC5B4;_22">
	<path style="fill:none;stroke:#000000;stroke-miterlimit:10;" d="M259.123,145.457c-2.806-0.251-5.641-0.181-8.432,0.209
		c-0.614,0.086-1.241,0.192-1.78,0.498c-0.378,0.215-0.708,0.525-1.122,0.659c-0.859,0.278-1.737-0.273-2.538-0.692
		c-1.749-0.915-3.735-1.271-5.548-2.049c-0.905-0.388-1.761-0.88-2.66-1.282c-3.787-1.696-8.082-1.719-12.134-2.612
		c-0.977-0.215-1.96-0.49-2.804-1.028c-0.682-0.436-1.304-1.205-1.091-1.986c0.105-0.383,0.393-0.687,0.694-0.947
		c1.489-1.284,3.447-1.851,5.339-2.383c0.64-0.18,1.281-0.36,1.939-0.452c2.261-0.314,4.52,0.435,6.679,1.174
		c1.027,0.351,2.067,0.709,2.967,1.317c0.538,0.363,1.019,0.812,1.58,1.139c1.317,0.77,2.922,0.799,4.447,0.807
		c4.819,0.027,9.434-1.611,14.174-0.741c0.523,0.096,1.055,0.232,1.482,0.549c0.448,0.332,0.739,0.831,1.127,1.233
		c0.501,0.519,1.196,0.921,1.401,1.613c0.274,0.923-0.458,1.814-1.134,2.5C260.902,143.805,259.932,144.635,259.123,145.457z"/>
</g>
<g id="&#xB808;&#xC774;&#xC5B4;_23">
	<path style="fill:none;stroke:#000000;stroke-miterlimit:10;" d="M259.363,145.681c2.94,2.625,5.99,5.127,9.14,7.495
		c0.941,0.708,1.892,1.404,2.779,2.178c0.617,0.538,1.202,1.113,1.854,1.609c0.796,0.606,1.68,1.085,2.559,1.562
		c1.034,0.561,2.068,1.121,3.103,1.682c1.386,0.751,2.841,1.522,4.417,1.551"/>
</g>
<g id="&#xB808;&#xC774;&#xC5B4;_24">
	<path style="fill:none;stroke:#000000;stroke-miterlimit:10;" d="M247.248,147.242c2.008,1.097,4.017,2.194,6.025,3.291
		c1.268,0.692,2.542,1.389,3.678,2.28c0.902,0.708,1.706,1.53,2.507,2.35c2.679,2.741,5.397,5.535,7.17,8.933
		c0.744,1.427,1.756,2.569,2.743,3.84c1.415,1.821,2.831,3.644,4.347,5.381c4.862,5.571,10.752,10.243,17.285,13.707
		c0.491,0.26,0.998,0.518,1.548,0.595c0.5,0.07,1.008-0.014,1.501-0.122c2.812-0.614,5.561-2.142,6.965-4.654
		c1.436-2.569,1.267-5.696,1.058-8.632"/>
</g>
<g id="&#xB808;&#xC774;&#xC5B4;_25">
	<path style="fill:none;stroke:#000000;stroke-miterlimit:10;" d="M336.622,239.507c0.151,0.372,0.32,0.753,0.618,1.021
		c0.24,0.216,0.547,0.343,0.861,0.418c2.222,0.534,4.357-1.38,6.642-1.316c1.449,0.041,2.745,0.87,4.139,1.263
		c1.536,0.433,3.165,0.331,4.757,0.225c2.83-0.188,5.659-0.376,8.489-0.563c0.761-0.05,1.611-0.145,2.096-0.733
		c0.29-0.351,0.392-0.821,0.418-1.276c0.093-1.581-0.675-3.186-1.963-4.107c-1.713-1.224-3.984-1.166-6.066-1.48
		c-1.115-0.168-2.208-0.455-3.299-0.741c-1.625-0.427-3.251-0.854-4.876-1.28c-1.391-0.365-2.834-0.757-3.929-1.689
		c-0.178-0.152-0.351-0.32-0.569-0.406c-0.427-0.168-0.901,0.018-1.33,0.179c-1.37,0.514-2.831,0.79-4.294,0.814
		c-1.7,0.028-2.034-0.061-2.542,1.733C335.032,234.185,335.623,237.044,336.622,239.507z"/>
</g>
<g id="&#xB808;&#xC774;&#xC5B4;_26">
	<path style="fill:none;stroke:#000000;stroke-miterlimit:10;" d="M310.722,168.436c0.28,3.88,1.284,7.671,2.418,11.392
		c0.819,2.69,1.709,5.358,2.668,8.002c0.899,2.478,1.608,4.923,2.213,7.488c0.281,1.189,0.525,2.392,0.961,3.534
		c0.526,1.377,1.318,2.633,2.105,3.879c0.651,1.03,1.301,2.06,1.952,3.09c0.694,1.099,1.39,2.2,2.19,3.225
		c1.727,2.211,3.237,4.646,4.345,7.223c0.477,1.11,0.877,2.254,1.39,3.348c1.632,3.479,4.423,6.495,5.082,10.281"/>
</g>
<g id="&#xB808;&#xC774;&#xC5B4;_27">
	<path style="fill:none;stroke:#000000;stroke-miterlimit:10;" d="M319.94,161.871c0.794,1.805,1.917,3.465,3.298,4.873
		c0.713,0.727,1.493,1.387,2.18,2.139c1.002,1.096,1.788,2.368,2.546,3.644c1.552,2.612,3.063,5.568,2.487,8.552
		c-1.013,5.251,0.666,10.686,1.387,15.985c0.232,1.707,0.274,3.433,0.83,5.063c1.608,4.72,6.008,8.17,7.247,13
		c0.263,1.025,0.695,1.871,1.234,2.782c1.845,3.121,2.369,6.823,2.855,10.416"/>
</g>
</svg>
