<?xml version="1.0" encoding="iso-8859-1"?>
<!-- Generator: Adobe Illustrator 24.0.1, SVG Export Plug-In . SVG Version: 6.00 Build 0)  -->
<svg version="1.1" xmlns="http://www.w3.org/2000/svg" xmlns:xlink="http://www.w3.org/1999/xlink" x="0px" y="0px"
	 viewBox="0 0 464 261" style="enable-background:new 0 0 464 261;" xml:space="preserve">
<g id="&#xB808;&#xC774;&#xC5B4;_1" style="display:none;">
	<image style="display:inline;overflow:visible;" width="464" height="261" xlink:href="../15.png" >
	</image>
</g>
<g id="&#xB808;&#xC774;&#xC5B4;_2">
	<path style="fill:none;stroke:#000000;stroke-miterlimit:10;" d="M168.339,60.309c-1.161-0.059-2.178-0.758-3.125-1.431
		c-1.373-0.976-2.746-1.951-4.12-2.927c-1.248-0.886-2.508-1.784-3.519-2.933c-1.586-1.801-2.484-4.194-2.476-6.593
		c0.006-1.885-0.435-3.72-0.859-5.557c-0.25-1.084-0.617-2.156-0.641-3.268c-0.051-2.387,1.491-4.533,3.291-6.102
		c1.849-1.612,3.924-3.013,6.319-3.541c2.396-0.528,4.883-0.469,7.326-0.238c1.517,0.143,3.073,0.366,4.393,1.128
		c1.476,0.852,2.506,2.288,3.49,3.681c0.661,0.936,1.334,1.897,1.625,3.005c0.386,1.469,0.089,3.143,0.899,4.428
		c0.443,0.702,1.159,1.181,1.722,1.791c0.154,0.167,0.302,0.357,0.328,0.582c0.07,0.607-0.719,0.921-1.33,0.917
		c-0.611-0.004-1.355-0.054-1.688,0.458c-0.123,0.189-0.159,0.42-0.187,0.644c-0.084,0.665-0.131,1.335-0.14,2.006
		c-0.013,0.947,0.323,1.84,0.696,2.71c0.478,1.114,0.593,2.38,0.326,3.562c-0.065,0.286-0.163,0.585-0.389,0.772
		c-0.279,0.23-0.685,0.231-1.037,0.146c-0.687-0.167-1.279-0.605-1.958-0.802c-0.679-0.197-1.573-0.033-1.817,0.63
		c-0.168,0.454,0.029,0.992-0.179,1.429c-0.212,0.447-0.753,0.612-1.234,0.73c-0.874,0.215-1.747,0.43-2.621,0.644
		c-1.242,0.305-2.052,1.621-2.338,2.867C169.006,59.432,168.684,60.119,168.339,60.309z"/>
</g>
<g id="&#xB808;&#xC774;&#xC5B4;_3">
	<path style="fill:none;stroke:#000000;stroke-miterlimit:10;" d="M173.139,52.551c0.853-0.004,1.706-0.008,2.559-0.012
		c0.605-0.003,1.237,0,1.776,0.274"/>
</g>
<g id="&#xB808;&#xC774;&#xC5B4;_4">
	<path style="fill:none;stroke:#000000;stroke-miterlimit:10;" d="M139.227,65.731c1.875-1.665,4.511-2.261,7.016-2.147
		c2.505,0.114,4.932,0.868,7.325,1.616c1.688,0.527,3.514,1.157,4.461,2.651c1.22,1.924,0.418,4.605-1.207,6.203
		s-3.864,2.372-6.024,3.098c-1.842,0.619-3.267,1.755-4.729,3.037c-1.06,0.93-2.004,1.984-2.945,3.035
		c-2.324,2.597-4.651,5.196-6.782,7.954c-1.509,1.952-2.938,4.002-4.819,5.599c-1.589,1.349,0.907,3.978,2.303,5.525
		c0.732,0.811,1.464,1.623,2.196,2.434c0.928,1.029,1.863,2.064,2.962,2.909c1.417,1.089,3.065,1.828,4.696,2.558
		c1.652,0.739,3.457,1.495,5.216,1.073c1.911-0.457,3.587-2.26,5.495-1.793c0.646,0.158,1.199,0.566,1.732,0.965
		c1.547,1.157,3.095,2.314,4.642,3.471c0.974,0.728,2.014,1.554,2.29,2.738c0.251,1.075-0.194,2.176-0.629,3.19
		c-0.819,1.909,0.842,4.433-0.254,6.197c-0.945,1.52-3.219,1.596-4.825,0.807c-1.607-0.788-2.819-2.188-4.282-3.219
		c-4.51-3.181-11.02-2.652-15.179-6.279c-4.411-3.846-8.821-8.014-13.154-11.947c-0.889-0.807-1.784-1.621-2.488-2.592
		c-1.542-2.127-2.123-4.94-4.078-6.696c-0.621-0.558-1.367-0.993-1.856-1.669c-1.113-1.538-0.227-4.073,1.601-4.583
		c1.391-2.277,4.256-3.497,5.812-5.664c1.379-1.921,3.006-3.72,4.191-5.766C130.694,73.634,135.078,69.414,139.227,65.731z"/>
</g>
<g id="&#xB808;&#xC774;&#xC5B4;_5">
	<path style="fill:none;stroke:#000000;stroke-miterlimit:10;" d="M143.863,63.541c2.931-2.196,5.909-4.438,8.062-7.401
		c1.244-1.712,2.394-3.797,4.44-4.338"/>
</g>
<g id="&#xB808;&#xC774;&#xC5B4;_6">
	<path style="fill:none;stroke:#000000;stroke-miterlimit:10;" d="M139.205,87.473c1.116,5.115,0.046,10.443,0.412,15.666
		c0.104,1.493,0.32,3.038-0.169,4.452"/>
	<path style="fill:none;stroke:#000000;stroke-miterlimit:10;" d="M137.591,117.691c-0.482,1.003-1.531,1.635-2.048,2.62
		c-0.259,0.493-0.37,1.049-0.462,1.599c-0.786,4.735-0.286,9.677,1.433,14.159c1.276,3.329,1.471,7.05,1.506,10.615
		c0.016,1.621-0.073,3.241-0.162,4.86c-0.082,1.489-0.164,2.977-0.246,4.466c-0.077,1.403-0.133,2.899,0.575,4.113
		c0.434,0.743,1.113,1.303,1.75,1.88c1.746,1.582,3.271,3.408,4.516,5.408c1.078,1.732,2.918,2.843,4.434,4.209
		c2.652,2.388,6.389,3.52,9.921,3.007c0.327-0.048,0.688-0.131,0.872-0.405c0.124-0.184,0.141-0.418,0.149-0.64
		c0.087-2.255-0.28-4.527-1.073-6.64c0.645-0.081,1.245,0.347,1.673,0.836s0.766,1.066,1.282,1.461
		c1.263,0.965,3.405,0.275,3.867-1.245c1.159-3.807,5.879-5.488,9.721-6.526c0.198-0.053,0.41-0.112,0.541-0.269
		c0.157-0.187,0.153-0.459,0.121-0.701c-0.142-1.074-0.672-2.052-1.193-3.002c-1.473-2.687-3.615-5.202-4.946-7.962
		s-2.136-5.848-1.793-8.893c0.513-4.555-0.479-9.244-0.47-13.827c0.002-0.946,0.012-1.906,0.264-2.818
		c0.201-0.729,0.551-1.407,0.899-2.078c0.499-0.964,0.998-1.927,1.497-2.891c2.081-4.019,4.004-8.23,5.559-12.481
		c1.555-4.251,2.417-8.87,1.598-13.322c-0.886-4.815,0.853-9.763,1.143-14.651c0.186-3.145,0.784-6.26,0.909-9.408
		c0.1-2.507,0.077-5.044-0.495-7.486c-0.573-2.443-1.736-4.805-3.621-6.46"/>
</g>
<g id="&#xB808;&#xC774;&#xC5B4;_7">
	<path style="fill:none;stroke:#000000;stroke-miterlimit:10;" d="M114.379,143.822c-0.738,0.145-1.498,0.01-2.243-0.089
		c-1.309-0.173-2.658-0.229-3.936,0.103c-1.209,0.315-2.325,0.969-3.561,1.151c-2.048,0.301-4.023-0.726-5.935-1.519
		c-5.882-2.439-12.467-2.856-18.28-5.456c-0.547-0.245-1.128-0.55-1.369-1.098c-0.166-0.376-0.142-0.811-0.039-1.208
		c0.314-1.212,1.317-2.155,2.452-2.684s2.399-0.702,3.645-0.83c3.682-0.378,7.397-0.425,11.087-0.138
		c1.19,0.092,2.397,0.224,3.498,0.686c0.57,0.239,1.103,0.564,1.687,0.767c0.905,0.316,1.883,0.326,2.84,0.353
		c1.93,0.054,3.868,0.191,5.744,0.644c2.141,0.517,4.181,1.448,5.975,2.725c0.297,0.211,0.591,0.436,0.81,0.727
		c0.475,0.631,0.532,1.502,0.337,2.268C116.76,141.52,115.817,143.539,114.379,143.822z"/>
</g>
<g id="&#xB808;&#xC774;&#xC5B4;_8">
	<path style="fill:none;stroke:#000000;stroke-miterlimit:10;" d="M114.133,144.437c3.128,2.803,6.598,5.224,10.309,7.192
		c2.287,1.213,4.701,2.278,6.617,4.019c1.317,1.197,2.353,2.675,3.65,3.894c1.297,1.219,2.989,2.201,4.761,2.041"/>
</g>
<g id="&#xB808;&#xC774;&#xC5B4;_9">
	<path style="fill:none;stroke:#000000;stroke-miterlimit:10;" d="M103.573,145.526c4.41,2.508,7.514,6.734,10.851,10.556
		c4.806,5.504,10.328,10.371,14.888,16.08c1.597,1.999,2.772,4.188,4.454,6.116c1.07,1.226,2.337,2.262,3.598,3.291
		c1.167,0.953,2.345,1.914,3.684,2.605c2.856,1.473,6.344,1.672,8.869,3.659c0.894,0.703,1.907,1.676,2.981,1.301
		c0.907-0.317,1.218-1.404,1.59-2.289c1.018-2.419,3.308-4.164,4.17-6.643c0.61-1.754,0.432-3.671,0.248-5.519"/>
</g>
<g id="&#xB808;&#xC774;&#xC5B4;_10">
	<path style="fill:none;stroke:#000000;stroke-miterlimit:10;" d="M189.662,235.134c0.251,1.016,0.83,1.923,1.49,2.735
		c1.471,1.811,3.512,3.298,5.834,3.527c1.827,0.18,3.644-0.425,5.479-0.428c2.439-0.004,4.739,1.043,7.11,1.613
		c3.048,0.732,6.284,0.667,9.3-0.187c0.474-0.134,0.962-0.3,1.306-0.652c0.485-0.498,0.574-1.248,0.628-1.941
		c0.114-1.461,0.184-2.954-0.19-4.371c-0.373-1.417-1.259-2.768-2.597-3.365c-0.77-0.343-1.63-0.417-2.473-0.445
		c-3.703-0.12-7.561,0.547-11.016-0.79c-1.873-0.725-3.727-2.041-5.693-1.625c-1.004,0.213-1.862,0.864-2.573,1.604
		c-0.46,0.479-0.893,1.017-1.493,1.302c-0.45,0.214-0.959,0.268-1.458,0.284c-0.84,0.028-2.381-0.504-3.119-0.068
		C189.357,232.826,189.469,234.35,189.662,235.134z"/>
</g>
<g id="&#xB808;&#xC774;&#xC5B4;_11">
	<path style="fill:none;stroke:#000000;stroke-miterlimit:10;" d="M164.055,169.518c0.469,1.935,1.973,3.457,2.649,5.33
		c0.592,1.64,0.513,3.445,0.921,5.141c0.428,1.778,1.377,3.379,2.313,4.95c1.757,2.949,3.514,5.898,5.271,8.847
		c0.442,0.742,0.885,1.486,1.235,2.277c0.41,0.927,0.685,1.907,0.927,2.891c0.542,2.209,0.929,4.487,1.931,6.529
		c0.65,1.324,1.541,2.511,2.374,3.727c2.63,3.837,4.728,8.039,6.214,12.447c0.665,1.973-0.144,3.476,0.03,5.55
		c0.047,0.555,0.102,1.111,0.239,1.651c0.301,1.19,1.002,2.275,1.964,3.038"/>
</g>
<g id="&#xB808;&#xC774;&#xC5B4;_12">
	<path style="fill:none;stroke:#000000;stroke-miterlimit:10;" d="M175.874,161.481c1.239,0.826,2.099,2.105,2.815,3.411
		c1.807,3.296,2.885,6.932,3.95,10.537c0.44,1.488,0.88,2.977,1.319,4.465c1.257,4.252,2.533,8.551,4.765,12.383
		c2.071,3.555,1.817,7.753,3.482,11.515c1.928,4.358,3.857,8.715,5.785,13.073c1.692,3.823,3.422,7.884,2.914,12.034"/>
	<path style="fill:none;stroke:#000000;stroke-miterlimit:10;" d="M317.874,54.481c0.125,1.386-0.001,3.18-1.323,3.613
		c-0.362,0.119-0.754,0.1-1.134,0.078c-3.709-0.222-7.4-0.741-11.026-1.55c-0.691-0.154-1.402-0.329-1.962-0.762
		c-1.122-0.866-1.309-2.46-1.376-3.876c-0.192-4.056-0.174-8.271-1.909-11.943c-0.834-1.765-2.068-3.393-2.387-5.319
		c-0.576-3.481,2.149-6.827,5.411-8.172c3.262-1.345,6.923-1.167,10.446-0.966c3.365,0.191,6.778,0.723,9.664,2.463
		c0.712,0.429,1.417,0.932,1.831,1.654c0.792,1.38,0.314,3.102,0.337,4.693c0.039,2.723,1.771,5.35,4.257,6.461
		c-1.014,0.253-2.075,0.531-2.844,1.239c-1.079,0.993-1.331,2.595-1.307,4.06c0.016,0.992,0.128,1.982,0.334,2.952
		c0.096,0.451,0.212,0.915,0.122,1.367c-0.194,0.965-1.297,1.519-2.278,1.449c-0.981-0.07-1.862-0.598-2.706-1.105
		c-0.474-0.285-1.126-0.554-1.529-0.174c-0.221,0.208-0.266,0.537-0.299,0.838C318.093,52.418,317.789,53.543,317.874,54.481z"/>
	<path style="fill:none;stroke:#000000;stroke-miterlimit:10;" d="M319.636,50.604c-0.73-0.26-1.489-0.539-2.02-1.104
		c-0.244-0.259-0.428-0.568-0.61-0.873c-0.214-0.36-0.292-0.811-0.409-1.213"/>
</g>
<g id="&#xB808;&#xC774;&#xC5B4;_13">
	<path style="fill:none;stroke:#000000;stroke-miterlimit:10;" d="M278.051,63.978c1.163-1.467,2.677-2.653,4.379-3.432
		c0.868-0.397,1.78-0.689,2.659-1.058c2.616-1.097,5.175-2.923,7.988-2.552c1.571,0.207,2.962,1.089,4.28,1.969
		c0.885,0.591,1.775,1.2,2.474,2.002c2.147,2.464,2.05,6.115,1.68,9.362c-0.078,0.682-0.166,1.376-0.45,2
		c-0.369,0.81-1.037,1.438-1.657,2.077c-1.203,1.243-2.285,2.617-3.645,3.685c-1.36,1.069-3.088,1.821-4.797,1.556
		c-5.778,0.41-11.63,0.796-17.409,1.206c-1.164,0.083-2.345,0.168-3.444,0.56c-1.099,0.391-2.126,1.132-2.598,2.2
		c-1.716,3.882-3.523,7.935-5.47,11.706c-1.836,3.558-2.643,7.526-4.41,11.119c-0.612,1.245-1.278,2.575-1.082,3.948
		c0.407,2.845-1.254,5.72-0.806,8.559c0.197,1.248,0.618,2.45,0.843,3.693c0.117,0.649,0.177,1.338-0.066,1.952
		c-0.244,0.613-0.871,1.117-1.524,1.02c-0.849-0.126-1.262-1.101-1.415-1.946c-0.153-0.845-0.265-1.813-0.963-2.313
		c-0.585-0.419-1.426-0.337-2.035,0.047c-1.119,0.705-1.467,2.39-0.718,3.48c0.197,0.287,0.456,0.534,0.61,0.847
		c0.438,0.889-0.168,2.017-1.053,2.462c-0.885,0.445-1.938,0.372-2.914,0.203c-1.578-0.274-3.222-0.844-4.173-2.133
		c-0.62-0.841-0.872-1.89-1.11-2.908c-0.438-1.875-0.872-3.86-0.292-5.697c0.307-0.97,0.879-1.829,1.444-2.675
		c1.388-2.076,2.776-4.153,4.164-6.229c2.429-3.633,0.763-9.053,2.473-13.075c2.445-5.751,4.866-11.672,5.776-17.854
		c0.147-1,0.238-2.04,0.722-2.927c0.701-1.285,2.088-2.013,3.397-2.668c4.629-2.316,9.115-5.083,14.238-5.819
		C274.981,66.082,276.901,65.428,278.051,63.978z"/>
</g>
<g id="&#xB808;&#xC774;&#xC5B4;_14">
	<path style="fill:none;stroke:#000000;stroke-miterlimit:10;" d="M292.456,56.419c0.426-1.746,1.824-3.061,3.165-4.258
		c0.645-0.576,1.291-1.149,1.938-1.722c0.463-0.41,0.942-0.83,1.527-1.032c0.562-0.194,1.172-0.169,1.765-0.142"/>
</g>
<g id="&#xB808;&#xC774;&#xC5B4;_15">
	<path style="fill:none;stroke:#000000;stroke-miterlimit:10;" d="M283.443,79.804c0.026,3.573,0.052,7.146,0.078,10.719
		c0.01,1.405,0.02,2.814-0.146,4.209c-0.554,4.649-0.428,9.288-1.719,13.789c-0.503,1.755-0.867,3.493-1.232,5.282
		c-0.191,0.934-0.383,1.872-0.717,2.764c-0.29,0.774-0.685,1.507-0.943,2.292c-0.885,2.691-0.101,5.763-1.214,8.367"/>
</g>
<g id="&#xB808;&#xC774;&#xC5B4;_16">
	<path style="fill:none;stroke:#000000;stroke-miterlimit:10;" d="M277.532,128.82c0.21,1.135-0.67,2.163-0.938,3.286
		c-0.137,0.57-0.118,1.186-0.38,1.711c-0.506,1.013-1.797,1.28-2.91,1.488c-2.365,0.442-4.672,1.142-6.974,1.841
		c-0.92,0.279-1.888,0.588-2.531,1.304c-0.499,0.556-0.772,1.329-1.404,1.726c-0.491,0.308-1.102,0.326-1.682,0.336
		c-2.486,0.04-4.984,0.079-7.448-0.261c-2.977-0.411-5.852-1.369-8.652-2.462c-0.509-0.199-1.053-0.432-1.334-0.901
		c-0.319-0.532-0.199-1.238,0.137-1.759s0.852-0.895,1.361-1.248c1.417-0.983,2.897-1.911,4.529-2.466
		c2.976-1.013,6.222-0.72,9.342-0.326c0.875,0.111,1.754,0.228,2.635,0.19c0.852-0.037,1.693-0.219,2.511-0.459
		c1.892-0.553,3.694-1.415,5.313-2.54c1.317-0.916,3.066-2.553,4.806-2.096C275.151,126.511,277.274,127.427,277.532,128.82z"/>
</g>
<g id="&#xB808;&#xC774;&#xC5B4;_17">
	<path style="fill:none;stroke:#000000;stroke-miterlimit:10;" d="M276.591,132.567c5.102,1.377,9.676,4.629,12.654,8.995
		c2.819,4.135,4.179,9.096,6.742,13.394c2.073,3.477,6.14,5.576,10.184,5.749c1.409,0.06,2.804-0.241,4.205-0.408
		c2.806-0.334,5.677-0.123,8.404,0.62c0.582,0.158,1.198,0.342,1.777,0.173c0.915-0.266,1.363-1.272,1.696-2.166
		c0.649-1.746,1.307-3.544,1.26-5.406c-0.149-5.91-7.048-9.743-7.853-15.6c-0.552-4.014-1.849-8.266-2.81-12.202
		c-0.961-3.936-1.589-8.09-0.592-12.018c0.512-2.02,1.554-4.25,2.728-5.971c1.57-2.3,3.671-4.341,4.446-7.016
		c0.393-1.358,0.413-2.794,0.659-4.186c0.767-4.345,3.719-8.624,2.32-12.808c1.626-6.183,2.292-12.681,2.173-19.073
		c-0.023-1.262-0.085-2.546-0.503-3.738c-0.876-2.5-3.17-4.218-5.503-5.472"/>
</g>
<g id="&#xB808;&#xC774;&#xC5B4;_18">
	<path style="fill:none;stroke:#000000;stroke-miterlimit:10;" d="M262.776,139.795c3.19,0.402,6.196,1.676,9.154,2.936
		c0.936,0.399,1.876,0.799,2.753,1.315c0.977,0.575,1.866,1.287,2.751,1.996c0.87,0.697,1.74,1.394,2.61,2.091
		c0.511,0.41,1.025,0.822,1.452,1.319c0.739,0.86,1.189,1.938,1.937,2.791c0.654,0.746,1.512,1.291,2.174,2.03
		c0.728,0.812,1.193,1.827,1.888,2.666c0.751,0.908,1.752,1.589,2.486,2.511c0.634,0.796,1.048,1.745,1.625,2.584
		c0.5,0.727,1.116,1.363,1.73,1.997c1.831,1.89,3.663,3.779,5.494,5.669c1.23,1.269,2.68,2.189,4.046,3.31
		c0.998,0.82,1.967,1.675,3.003,2.447c2.355,1.754,5.14,3.08,8.075,3.153c1.124,0.028,2.252-0.127,3.371-0.019
		c1.508,0.146,3.231,0.709,4.396-0.26c1.187-0.987,0.913-2.828,0.753-4.363c-0.147-1.411-0.104-2.842,0.127-4.241
		c0.142-0.858,0.355-1.72,0.279-2.586c-0.171-1.962-1.76-3.514-2.265-5.417"/>
</g>
<g id="&#xB808;&#xC774;&#xC5B4;_19">
	<path style="fill:none;stroke:#000000;stroke-miterlimit:10;" d="M299.318,226.191c-0.453,0.712-0.428,1.617-0.389,2.46
		c0.075,1.596,0.15,3.192,0.226,4.788c0.025,0.531,0.057,1.087,0.331,1.542c0.726,1.211,2.49,0.977,3.897,1.095
		c3.038,0.255,5.345,2.759,8.109,4.046c2.076,0.967,4.398,1.236,6.677,1.465c2.061,0.207,4.124,0.393,6.188,0.556
		c3.181,0.251,6.517,0.425,9.425-0.889c0.184-0.083,0.372-0.177,0.499-0.335c0.164-0.203,0.2-0.482,0.184-0.742
		c-0.103-1.7-1.949-2.658-3.535-3.278c-2.34-0.916-4.699-1.837-7.171-2.287c-1.372-0.25-2.767-0.352-4.141-0.592
		c-2.004-0.349-3.945-0.985-5.878-1.62c-1.866-0.613-3.816-1.277-5.158-2.712c-0.901-0.964-1.477-2.229-2.523-3.033
		C304.819,225.705,300.398,224.492,299.318,226.191z"/>
</g>
<g id="&#xB808;&#xC774;&#xC5B4;_20">
	<path style="fill:none;stroke:#000000;stroke-miterlimit:10;" d="M299.842,224.928c-0.272-5.16-0.544-10.319-0.817-15.479
		c-0.12-2.276-0.227-4.638,0.629-6.75c1.686-4.165,0.554-8.986,0.994-13.457c0.543-5.515,0.74-11.064,0.59-16.604"/>
</g>
<g id="&#xB808;&#xC774;&#xC5B4;_21">
	<path style="fill:none;stroke:#000000;stroke-miterlimit:10;" d="M307.67,227.345c0.352-1.654,0.907-3.266,1.647-4.787
		c0.589-1.21,1.298-2.372,1.698-3.657c0.379-1.216,0.468-2.5,0.555-3.77c0.125-1.836,0.251-3.673,0.376-5.509
		c0.692-10.145-0.071-20.74,2.596-30.552"/>
</g>
<g id="&#xB808;&#xC774;&#xC5B4;_22">
	<path style="fill:none;stroke:#000000;stroke-miterlimit:10;" d="M318.156,103.35c0.216,0.714,0.2,1.474,0.189,2.22
		c-0.011,0.746-0.012,1.509,0.231,2.214s0.778,1.354,1.502,1.531c0.725,0.177,1.601-0.269,1.719-1.005
		c0.015-0.093,0.018-0.188,0.047-0.278c0.116-0.357,0.619-0.466,0.942-0.275c0.323,0.191,0.482,0.576,0.534,0.948
		c0.051,0.372,0.018,0.751,0.065,1.124c0.139,1.09,1.046,2.038,2.129,2.225c0.913,0.158,1.857-0.19,2.599-0.746
		s1.314-1.304,1.861-2.052c0.215-0.294,0.433-0.599,0.528-0.951c0.143-0.527-0.006-1.083-0.038-1.629
		c-0.056-0.962,0.199-2.093-0.494-2.763c-0.311-0.3-0.746-0.424-1.157-0.556c-1.596-0.514-3.097-1.321-4.405-2.369
		c-0.51-0.408-1-0.865-1.303-1.444c-0.393-0.752-0.43-1.632-0.486-2.479c-0.13-1.971-0.407-3.932-0.826-5.862"/>
</g>
<g id="&#xB808;&#xC774;&#xC5B4;_23">
	<path style="fill:none;stroke:#000000;stroke-miterlimit:10;" d="M177.62,85.176c1.871,0.352,3.657,1.145,5.172,2.296
		c1.163,0.884,2.209,1.997,3.59,2.471c1.263,0.434,2.658,0.278,3.95,0.618c1.898,0.5,3.339,1.989,4.845,3.248
		c4.99,4.174,11.378,6.178,17.39,8.666c2.573,1.065,5.282,2.397,6.579,4.861c0.558,1.061,0.815,2.273,1.468,3.279
		c0.971,1.494,2.69,2.335,4.409,2.805s3.511,0.641,5.212,1.173c3.785,1.183,7.218,3.786,10.289,6.296"/>
</g>
<g id="&#xB808;&#xC774;&#xC5B4;_24">
	<path style="fill:none;stroke:#000000;stroke-miterlimit:10;" d="M178.953,60.552c1.427,1.366,3.097,2.447,4.618,3.707
		c1.521,1.259,2.932,2.76,3.585,4.623c0.402,1.148,0.499,2.38,0.826,3.551c1.099,3.931,4.582,6.647,7.862,9.077
		c1.461,1.083,3.052,1.815,4.731,2.515c4.564,1.901,8.799,4.589,12.462,7.909c1.234,1.119,2.415,2.317,3.821,3.208
		c3.219,2.041,7.433,2.364,10.242,4.94c0.978,0.897,2.06,1.83,2.845,2.9c0.74,1.009,1.224,2.179,1.81,3.285
		c2.167,4.09,5.843,7.358,10.158,9.032"/>
</g>
</svg>
