<?xml version="1.0" encoding="iso-8859-1"?>
<!-- Generator: Adobe Illustrator 24.0.1, SVG Export Plug-In . SVG Version: 6.00 Build 0)  -->
<svg version="1.1" xmlns="http://www.w3.org/2000/svg" xmlns:xlink="http://www.w3.org/1999/xlink" x="0px" y="0px"
	 viewBox="0 0 464 261" style="enable-background:new 0 0 464 261;" xml:space="preserve">
<g id="&#xB808;&#xC774;&#xC5B4;_1" style="display:none;">
	<image style="display:inline;overflow:visible;" width="464" height="261" xlink:href="../22.png" >
	</image>
</g>
<g id="&#xB808;&#xC774;&#xC5B4;_2">
	<path style="fill:none;stroke:#000000;stroke-miterlimit:10;" d="M175.561,54.228c-0.061,1.272-0.802,2.369-1.998,2.649
		s-2.44-0.081-3.612-0.452c-3.416-1.08-6.799-2.264-10.144-3.549c-1.067-0.41-2.191-0.877-2.851-1.81
		c-1.232-1.741-0.306-4.114-0.282-6.247c0.056-4.998-5.068-9.622-3.29-14.294c1.235-3.247,5.133-4.444,8.539-5.128
		c4.783-0.961,10.387-1.52,13.936,1.827c4.12,3.886,3.607,11.488,8.469,14.392c0.276,0.675,1.453,0.842,1.568,1.562
		c0.078,0.486-0.36,0.924-0.832,1.062c-0.472,0.138-0.976,0.068-1.467,0.073c-0.492,0.005-1.031,0.113-1.335,0.499
		c-0.158,0.201-0.233,0.454-0.291,0.703c-0.604,2.617,0.373,5.338,0.244,8.021c-0.008,0.175-0.025,0.36-0.123,0.506
		c-0.195,0.29-0.608,0.304-0.956,0.284c-1.902-0.112-3.796-0.364-5.661-0.752C175.465,53.736,175.408,54.172,175.561,54.228z"/>
</g>
<g id="&#xB808;&#xC774;&#xC5B4;_3">
	<path style="fill:none;stroke:#000000;stroke-miterlimit:10;" d="M173.329,52.343c1.069,0.5,2.152,0.968,3.249,1.404"/>
</g>
<g id="&#xB808;&#xC774;&#xC5B4;_4">
	<path style="fill:none;stroke:#000000;stroke-miterlimit:10;" d="M203.764,54.382c0.41-1.446,0.824-2.919,0.792-4.422
		c-0.078-3.737-3.313-7.141-7.042-7.408c-0.743-0.053-1.516,0.009-2.181,0.345c-1.126,0.569-1.753,1.824-1.99,3.063
		c-0.237,1.239-0.16,2.516-0.289,3.771s-0.507,2.562-1.448,3.402c-0.941,0.84-2.564,0.995-3.407,0.057
		c-0.082-0.091-0.156-0.191-0.259-0.258c-0.308-0.199-0.746,0.003-0.928,0.322s-0.178,0.706-0.169,1.072
		c0.071,2.992,0.187,6.145,1.759,8.692c0.639,1.036,1.504,1.94,1.977,3.061c0.473,1.121,0.424,2.61-0.547,3.343
		c-2.194,1.657-2.445,4.691-4.15,6.848c-1.525,1.93-3.443,3.622-4.385,5.894c-0.43,1.038-0.64,2.163-1.148,3.165
		c-0.508,1.002-1.431,1.91-2.554,1.942c-0.408,0.012-0.838-0.108-1.112-0.41c-0.335-0.369-0.369-0.915-0.354-1.413
		c0.052-1.727,0.481-3.464,0.179-5.166c-0.228-1.284-0.857-2.454-1.353-3.66c-1.988-4.826-1.861-10.225-1.703-15.443
		c0.04-1.333-0.801-2.781-2.043-3.266c-0.706-0.275-1.482-0.302-2.24-0.325c-0.786-0.024-1.216,0.277-1.992,0.149
		c-2.601-0.43-5.163,0.889-7.322,2.402c-2.077,1.455-4.116,3.327-4.601,5.816c-0.465,2.386,0.605,4.789,1.813,6.898
		s2.617,4.211,2.921,6.622c0.491,3.897,1.788,7.396,1.99,11.319c0.068,1.318,0.092,2.655,0.456,3.924
		c1.006,3.515,4.325,5.777,7.419,7.725c1.863,1.174,3.858,2.382,6.06,2.394c3.061,0.016,5.62-2.263,7.614-4.586
		c1.342-1.564,2.611-3.27,3.145-5.26c0.466-1.738,0.366-3.661,1.273-5.215c1.554-2.663,3.279-5.393,4.527-8.212
		c0.54-1.22,1.019-2.502,1.904-3.5c0.972-1.096,2.361-1.763,3.306-2.883c0.873-1.035,1.292-2.366,1.692-3.659
		c0.68-2.203,1.363-4.417,1.695-6.699c0.39-2.689,0.354-5.628,1.985-7.801c0.231-0.308,0.341-0.719,0.479-1.078
		C203.708,55.487,203.629,54.857,203.764,54.382z"/>
</g>
<g id="&#xB808;&#xC774;&#xC5B4;_5">
	<path style="fill:none;stroke:#000000;stroke-miterlimit:10;" d="M156.623,51.192c-1.38,1.258-2.76,2.517-4.14,3.775
		c-0.481,0.438-0.971,0.889-1.277,1.463c-0.428,0.803-0.447,1.753-0.457,2.662c-0.064,5.769-0.127,11.538-0.191,17.307
		c-0.022,2.035-0.043,4.09,0.387,6.08c0.265,1.225,0.697,2.41,0.945,3.638c0.234,1.159,0.301,2.344,0.367,3.525
		c0.111,1.976,0.222,3.951,0.332,5.927c0.232,4.141,0.398,8.569-1.745,12.12c-1.314,2.179-3.367,3.789-5.177,5.577
		c-1.81,1.788-3.48,3.97-3.654,6.509c-0.297,4.345-1.235,8.794-3.778,12.329c-1.061,1.475-2.415,2.731-3.377,4.273
		c-0.611,0.98-1.051,2.055-1.488,3.124c-2.159,5.286-4.319,10.572-6.478,15.858c-0.214,0.524-0.385,1.229,0.065,1.573
		c0.175,0.133,0.402,0.169,0.617,0.215c3.677,0.788,5.304,5.322,8.707,6.92c1.019,0.479,2.149,0.667,3.27,0.767
		c1.669,0.149,3.378,0.11,4.979-0.385c3.512-1.085,5.976-4.143,8.407-6.9c4.014-4.554,8.493-8.671,12.964-12.778
		c0.427-0.393,0.908-0.808,1.488-0.824c0.395-0.011,0.767,0.169,1.122,0.345c2.385,1.183,4.77,2.367,7.154,3.55
		c4.934,2.449,10.746,2.645,16.22,3.258c1.007,0.113,2.181,0.149,2.858-0.605c0.885-0.985,0.304-2.52,0.334-3.844
		c0.053-2.338,2.093-4.077,3.957-5.489c2.118-1.605,4.237-3.21,6.355-4.815c0.647-0.49,1.509-0.947,2.211-1.355
		c0.372-0.217,0.781-0.482,0.864-0.905c0.096-0.488-0.289-0.931-0.663-1.259c-2.567-2.245-5.964-3.261-8.876-5.035
		c-1.817-1.107-3.437-2.505-5.188-3.713c-2.452-1.69-5.163-3.003-8.01-3.879c-1.375-0.423-3.093-0.425-4.504-0.704
		c-0.898-0.178-1.924-0.495-2.25-1.351c-0.338-0.885,0.264-1.827,0.834-2.582c0.509-0.675,1.019-1.35,1.528-2.025
		c0.922-1.222,2.529-1.999,3.138-3.404c0.372-0.858,0.549-1.786,0.714-2.706c0.71-3.954,1.248-7.939,1.614-11.94"/>
</g>
<g id="&#xB808;&#xC774;&#xC5B4;_6">
	<path style="fill:none;stroke:#000000;stroke-miterlimit:10;" d="M184.5,77.5c-0.967-3.306-1.964-5.576-3.178-8.799
		c-0.454-1.206-0.913-2.421-1.601-3.51c-0.671-1.061-1.544-1.977-2.35-2.94c-1.393-1.666-2.588-3.486-3.78-5.301"/>
</g>
<g id="&#xB808;&#xC774;&#xC5B4;_7">
	<path style="fill:none;stroke:#000000;stroke-miterlimit:10;" d="M192.069,82.069c2.995,1.505,6.022,3.022,9.277,3.821
		c1.494,0.367,3.035,0.583,4.465,1.151c2.611,1.038,4.625,3.151,6.495,5.249c0.612,0.686,1.225,1.383,1.972,1.919
		c2.285,1.64,5.538,1.582,7.636,3.456c2.735,2.444,7.202,3.595,8.288,7.098c0.314,1.014,0.385,2.114,0.883,3.052
		c0.465,0.877,1.258,1.526,2.03,2.15c3.661,2.96,7.321,5.92,10.982,8.881c0.913,0.738,1.839,1.491,2.506,2.457
		c0.359,0.521,0.603,1.311,0.123,1.723c-0.322,0.276-0.806,0.22-1.218,0.12c-5.685-1.372-9.374-7.623-15.163-8.459
		c-2.363-0.341-4.909,0.269-7.076-0.735c-1.215-0.563-2.155-1.571-3.062-2.555c-0.374-0.405-0.753-0.818-0.991-1.315
		c-0.324-0.674-0.363-1.445-0.54-2.172c-0.599-2.465-2.982-4.377-5.518-4.429c-2.335,0.388-4.309-0.6-6.395-1.719
		s-3.971-2.581-6.041-3.73c-4.265-2.367-9.292-3.334-14.131-2.719"/>
</g>
<g id="&#xB808;&#xC774;&#xC5B4;_8">
	<path style="fill:none;stroke:#000000;stroke-miterlimit:10;" d="M165.774,191.932c-0.806,0.694-1.67,1.64-1.415,2.673
		c0.122,0.494,0.484,0.887,0.833,1.257c2.876,3.05,5.751,6.1,8.627,9.15c0.661,0.701,1.324,1.404,2.074,2.007
		c1.547,1.244,3.449,2.051,4.794,3.51c0.62,0.672,1.109,1.472,1.82,2.047c0.423,0.342,0.91,0.594,1.359,0.9
		c0.668,0.456,1.251,1.037,1.709,1.704c0.498,0.724,1.049,1.662,1.925,1.603c0.589-0.04,1.04-0.556,1.275-1.098
		c0.528-1.218,0.283-2.656-0.308-3.845c-0.591-1.189-1.496-2.186-2.348-3.204c-1.99-2.376-3.747-4.936-5.501-7.491
		c-0.499-0.728-1.004-1.466-1.304-2.296c-0.957-2.651,0.344-5.535,0.489-8.349c0.152-2.946-0.46-8.616-4.327-5.788
		C172.229,187.086,168.829,189.301,165.774,191.932z"/>
</g>
<g id="&#xB808;&#xC774;&#xC5B4;_9">
	<path style="fill:none;stroke:#000000;stroke-miterlimit:10;" d="M175.5,184.5c0.259-1.291,2.417-3.512,3.461-4.313
		c1.447-1.11,2.858-2.269,4.227-3.473c2.018-1.775,3.964-3.67,5.453-5.908c1.489-2.238,2.504-4.856,2.5-7.544
		c2.417-3.432,5.164-6.176,8.573-8.626c0.612-0.44,1.32-1.08,1.096-1.799c-0.187-0.602-0.911-0.818-1.528-0.943
		c-1.548-0.314-3.096-0.628-4.643-0.942"/>
</g>
<g id="&#xB808;&#xC774;&#xC5B4;_10">
	<path style="fill:none;stroke:#000000;stroke-miterlimit:10;" d="M208.193,133.844c1.46,0.198,2.701,1.194,3.612,2.352
		s1.563,2.495,2.373,3.726c1.584,2.408,3.744,4.371,5.86,6.329c0.695,0.643,1.394,1.297,1.907,2.092
		c1.374,2.134,1.082,5.195-0.672,7.03c-0.324,0.339-0.697,0.649-0.896,1.073c-0.26,0.555-0.175,1.201-0.259,1.808
		c-0.326,2.354-2.939,3.538-4.527,5.306c-5.201,5.793-13.103,8.104-19.427,12.643c-0.615,0.442-1.225,0.896-1.89,1.258
		c-0.594,0.323-1.227,0.568-1.832,0.871c-5.469,2.735-8.266,10.225-12.942,14.166"/>
</g>
<g id="&#xB808;&#xC774;&#xC5B4;_11">
	<path style="fill:none;stroke:#000000;stroke-miterlimit:10;" d="M74.611,204.317c-0.469,8.44-2.742,17.056-0.488,25.204
		c0.259,0.937,0.583,1.871,1.128,2.676c1.057,1.562,2.953,2.518,4.838,2.437c0.444-0.019,0.911-0.103,1.248-0.393
		c0.411-0.354,0.537-0.93,0.615-1.466c0.582-3.991-0.159-8.307,1.693-11.891c0.949-1.837,2.539-3.367,3.041-5.372
		c0.49-1.956-0.158-4.04-1.186-5.774c-0.513-0.864-1.125-1.684-1.445-2.636c-0.262-0.779-0.315-1.611-0.367-2.431
		c-0.107-1.713-0.214-3.426-0.321-5.139c-0.007-0.115-0.015-0.233-0.06-0.339c-0.135-0.317-0.562-0.414-0.89-0.307
		s-0.583,0.36-0.843,0.586c-1.474,1.281-3.019,1.474-4.854,1.741C74.971,201.467,74.708,202.571,74.611,204.317z"/>
</g>
<g id="&#xB808;&#xC774;&#xC5B4;_12">
	<path style="fill:none;stroke:#000000;stroke-miterlimit:10;" d="M83.191,198.78c0.526-0.637,1.417-0.797,2.176-1.124
		c0.976-0.42,1.778-1.153,2.56-1.872c2.704-2.487,5.44-5.013,7.404-8.118c0.767-1.213,1.416-2.512,2.356-3.596
		c1.313-1.515,3.105-2.512,4.73-3.686c2.601-1.878,4.81-4.24,7.274-6.296c2.73-2.278,5.76-4.167,8.796-6.019
		c0.868-0.529,1.743-1.06,2.503-1.735c2.814-2.501,3.635-6.542,5.838-9.594"/>
</g>
<g id="&#xB808;&#xC774;&#xC5B4;_13">
	<path style="fill:none;stroke:#000000;stroke-miterlimit:10;" d="M86.179,210.366c4.986-5.083,10.019-10.206,15.954-14.14
		c2.093-1.388,4.294-2.624,6.265-4.18c1.669-1.317,3.176-2.864,5.03-3.903c1.018-0.571,2.129-0.981,3.079-1.658
		c1.81-1.288,2.953-3.479,4.998-4.347c1.383-0.587,2.949-0.465,4.438-0.663c3.247-0.432,6.124-2.422,8.274-4.894
		c2.15-2.471,3.669-5.416,5.167-8.329c0.693-1.347,2.115-2.753,2.115-3.753"/>
</g>
<g id="&#xB808;&#xC774;&#xC5B4;_14">
	<path style="fill:none;stroke:#000000;stroke-miterlimit:10;" d="M317.136,53.856c0.051,1.28-0.077,2.568-0.378,3.813
		c-0.102,0.421-0.249,0.873-0.612,1.109c-0.297,0.192-0.675,0.196-1.029,0.179c-2.884-0.139-5.656-1.238-8.123-2.739
		c-2.467-1.501-4.664-3.399-6.848-5.287c-0.572-0.494-1.153-0.999-1.551-1.642c-0.398-0.643-0.591-1.457-0.326-2.165
		c0.968-2.589-0.984-5.49-1.738-8.149c-0.59-2.081-0.768-4.254-0.943-6.41c-0.082-1.011-0.164-2.021-0.246-3.032
		c-0.047-0.579-0.092-1.177,0.099-1.725c0.268-0.77,0.96-1.317,1.684-1.693c3.079-1.597,6.809-0.752,10.243-1.24
		c1.727-0.245,3.432-0.838,5.171-0.695c1.137,0.093,2.224,0.499,3.277,0.94c2.162,0.907,4.454,2.213,5.14,4.456
		c0.567,1.852-0.114,3.937,0.565,5.751c0.803,2.145,3.208,3.211,4.564,5.057c0.215,0.293,0.41,0.631,0.393,0.994
		c-0.026,0.552-0.546,0.973-1.084,1.099s-1.099,0.033-1.65-0.008c-0.302-0.022-0.655-0.006-0.833,0.239
		c-0.128,0.176-0.119,0.412-0.102,0.629c0.231,2.835,1.126,5.641,0.826,8.469c-0.097,0.916-0.407,1.933-1.236,2.334
		c-0.426,0.206-0.918,0.209-1.39,0.19C319.657,54.277,318.445,54.203,317.136,53.856z"/>
</g>
<g id="&#xB808;&#xC774;&#xC5B4;_15">
	<path style="fill:none;stroke:#000000;stroke-miterlimit:10;" d="M313.208,52.408c0.637,0.016,1.273,0.048,1.908,0.096
		c0.463,0.035,0.953,0.089,1.321,0.373c0.17,0.131,0.303,0.304,0.462,0.448c0.267,0.244,0.535,0.476,0.881,0.582
		c0.359,0.109,0.733,0.176,1.095,0.275"/>
</g>
<g id="&#xB808;&#xC774;&#xC5B4;_16">
	<path style="fill:none;stroke:#000000;stroke-miterlimit:10;" d="M299.412,82.842c2.385-0.895,5-0.881,7.514-1.297
		s5.162-1.441,6.418-3.658c0.869-1.533,0.924-3.375,1.3-5.097c0.27-1.236,0.714-2.437,0.862-3.694
		c0.264-2.248-0.485-4.596-2.003-6.275c-1.388-1.535-3.339-2.479-5.352-2.961c-2.013-0.482-4.102-0.535-6.172-0.52
		c-0.738,0.005-1.495,0.023-2.18,0.296c-0.467,0.186-0.88,0.483-1.279,0.789c-1.088,0.835-2.107,1.76-3.043,2.762
		c-2.733,2.925-6.669,4.925-9.561,7.693c-1.614,1.545-3.149,3.2-5.011,4.435c-0.846,0.561-1.752,1.029-2.577,1.62
		c-2.318,1.659-3.869,4.186-5.017,6.795c-1.148,2.609-1.723,5.592-3.115,8.079c-2.559,4.575-7.286,7.436-10.943,11.191
		c-0.633,0.649-1.252,1.356-1.527,2.22c-0.173,0.543-0.203,1.128-0.426,1.653c-0.246,0.58-0.705,1.038-1.154,1.48
		c-1.166,1.149-2.332,2.298-3.498,3.448c-0.691,0.681-1.391,1.373-1.888,2.206c-0.595,0.999-0.872,2.154-1.049,3.303
		c-0.331,2.151-0.215,4.653,1.426,6.084c0.68,0.593,1.544,0.924,2.388,1.243c1.304,0.493,2.607,0.986,3.911,1.479
		c0.5,0.189,1.16,0.339,1.492-0.08c0.146-0.185,0.178-0.433,0.205-0.668c0.057-0.504,0.114-1.008,0.171-1.512
		c0.077-0.685,0.165-1.4,0.552-1.97c0.387-0.57,1.174-0.933,1.786-0.617c0.99,0.511,0.917,2.337,2.017,2.508
		c0.485,0.075,0.956-0.273,1.18-0.709c0.224-0.436,0.256-0.942,0.28-1.432c0.103-2.125,0.135-4.252,0.098-6.379
		c-0.024-1.377-0.074-2.789,0.368-4.094c0.723-2.138,2.626-3.629,4.475-4.923s3.259-3.071,4.961-4.555
		c3.897-3.398,7.751-6.867,11.168-10.747c2.488-2.825,4.919-5.995,8.454-7.289c0.77-0.282,1.654-0.083,2.473-0.129
		c0.293-0.017,0.587-0.035,0.875-0.094C298.488,83.326,298.936,83.02,299.412,82.842z"/>
</g>
<g id="&#xB808;&#xC774;&#xC5B4;_17">
	<path style="fill:none;stroke:#000000;stroke-miterlimit:10;" d="M291.603,66.28c0.572-1.717,1.151-3.468,1.166-5.278
		c0.013-1.55-0.376-3.176,0.231-4.602c0.531-1.246,1.715-2.068,2.841-2.821c1.377-0.92,2.788-1.857,4.393-2.266"/>
</g>
<g id="&#xB808;&#xC774;&#xC5B4;_18">
	<path style="fill:none;stroke:#000000;stroke-miterlimit:10;" d="M292.013,84.954c0.879,5.496,1.57,11.092,0.909,16.618
		c-0.661,5.527-2.798,11.042-6.848,14.86c-1.74,1.64-3.86,3.022-4.876,5.186c-1.576,3.359,0.038,7.352-0.568,11.012
		c-0.915,5.527-6.494,8.973-9.021,13.973c-0.863,1.708-1.356,3.575-1.842,5.426c-0.626,2.382-1.216,5.065,0.038,7.186
		c0.74,1.252,2.009,2.081,3.233,2.866c1.683,1.079,3.367,2.158,5.05,3.236c0.987,0.632,2.03,1.284,3.2,1.356
		c1.549,0.095,2.953-0.837,4.209-1.748c7.825-5.68,15.084-12.139,21.635-19.251c0.82-0.89,1.728-0.835,2.907-0.563
		s2.235,0.911,3.332,1.423c2.445,1.142,5.125,1.669,7.773,2.186c4.439,0.867,8.878,1.734,13.318,2.6
		c0.463,0.09,0.953,0.179,1.395,0.016c1.143-0.421,1.121-2.005,1.069-3.222c-0.261-6.094,4.739-11.953,10.798-12.655
		c1.137-0.132,2.664-0.459,2.671-1.604c0.004-0.694-0.624-1.204-1.193-1.603c-7.319-5.139-14.827-10.369-23.448-12.744
		c-1.157-0.319-2.401-0.626-3.21-1.513c-0.808-0.887-0.836-2.575,0.251-3.083c0.636-2.702,1.116-4.854,1.751-7.556
		c0.383-1.626,0.766-3.254,1.256-4.851c1.255-4.087,3.234-8.335,2.08-12.452c-0.947-3.38-0.591-7.163-1.611-10.522
		c-0.773-2.546-1.546-5.092-2.319-7.638c-0.489-1.611-0.982-3.231-1.746-4.731c-1.566-3.076-3.155-6.339-5.707-8.663"/>
</g>
<g id="&#xB808;&#xC774;&#xC5B4;_19">
	<path style="fill:none;stroke:#000000;stroke-miterlimit:10;" d="M224.86,199.888c-2.169,0.858-4.402,1.554-6.674,2.079
		c-0.694,0.16-1.418,0.317-1.982,0.753c-0.708,0.548-1.042,1.442-1.291,2.301c-1.264,4.356-1.189,9.091,0.213,13.405
		c0.886,2.726,0.564,6.152,0.372,9.012c-0.122,1.823-0.414,3.684,0.039,5.453c0.453,1.77,1.919,3.453,3.746,3.433
		c1.391-0.015,2.619-1.021,3.298-2.235c0.678-1.215,0.91-2.621,1.131-3.995c0.381-2.373,0.762-4.746,1.143-7.119
		c1.042-6.488,2.086-13.084,1.245-19.601C225.951,202.23,225.311,200.949,224.86,199.888z"/>
</g>
<g id="&#xB808;&#xC774;&#xC5B4;_20">
	<path style="fill:none;stroke:#000000;stroke-miterlimit:10;" d="M224.589,199.972c5.202-4.049,9.793-8.882,13.568-14.286
		c1.495-2.14,2.876-4.384,4.702-6.25c1.826-1.865,4.195-3.352,6.8-3.518c4.818-0.306,8.391-5.202,12.378-7.924
		c1.778-1.214,3.623-2.573,4.416-4.575c0.745-1.88,1.367-3.795,3.047-4.92"/>
</g>
<g id="&#xB808;&#xC774;&#xC5B4;_21">
	<path style="fill:none;stroke:#000000;stroke-miterlimit:10;" d="M226.5,209.5c4.278-0.599,7.266-3.063,10.351-6.087
		c3.085-3.024,5.924-6.399,9.635-8.612c1.544-0.921,3.207-1.62,4.795-2.463c3.018-1.604,5.732-3.714,8.429-5.813
		c3.724-2.898,7.725-4.283,11.091-7.59c1.083-1.064,1.955-2.324,3.002-3.424c3.582-3.761,8.694-5.219,10.697-10.011"/>
</g>
<g id="&#xB808;&#xC774;&#xC5B4;_22">
	<path style="fill:none;stroke:#000000;stroke-miterlimit:10;" d="M308.142,190.89c-0.596,0.483-1.223,1.028-1.395,1.776
		c-0.204,0.892,0.323,1.814,1.034,2.391c0.711,0.577,1.587,0.899,2.405,1.31c2.115,1.061,3.9,2.769,5.051,4.836
		c0.74,1.329,1.218,2.786,1.887,4.152c0.743,1.517,1.714,2.909,2.682,4.294c1.571,2.249,3.142,4.498,4.712,6.747
		c0.648,0.928,1.335,1.891,2.337,2.418c1.002,0.527,2.416,0.459,3.079-0.459c0.465-0.643,0.451-1.504,0.402-2.296
		c-0.15-2.459-0.465-4.974-1.612-7.154c-0.632-1.2-1.498-2.263-2.149-3.454c-1.276-2.335-1.663-5.032-2.263-7.624
		c-0.903-3.899-2.471-7.917-5.344-10.8c-1.642-1.647-2.739-2.053-4.729-0.784C312.105,187.607,310.106,189.297,308.142,190.89z"/>
</g>
<g id="&#xB808;&#xC774;&#xC5B4;_23">
	<path style="fill:none;stroke:#000000;stroke-miterlimit:10;" d="M316.265,185.229c3.966-5.2,7.932-10.4,11.997-15.523
		c0.99-1.247,1.987-2.492,3.094-3.637c1.146-1.184,2.413-2.266,3.373-3.605c1.048-1.462,1.69-3.174,2.636-4.704
		c1.248-2.02,3.032-3.706,5.12-4.838c-2.34-0.491-4.681-0.981-7.021-1.472"/>
</g>
<g id="&#xB808;&#xC774;&#xC5B4;_24">
	<path style="fill:none;stroke:#000000;stroke-miterlimit:10;" d="M323.116,194.239c0.508-3.258,2.973-5.811,5.315-8.132
		c4.246-4.208,8.493-8.416,12.739-12.624c1.652-1.637,3.313-3.282,5.209-4.627c4.262-3.024,9.496-4.392,13.89-7.22
		c0.422-0.271,0.842-0.562,1.152-0.957c0.417-0.532,0.599-1.207,0.768-1.862c0.868-3.349,1.698-6.854,0.957-10.233
		c-0.897-4.09-3.953-7.346-7.155-10.044c-1.979-1.667-3.319-2.634-5.491-4.039"/>
</g>
</svg>
