<?xml version="1.0" encoding="iso-8859-1"?>
<!-- Generator: Adobe Illustrator 24.0.1, SVG Export Plug-In . SVG Version: 6.00 Build 0)  -->
<svg version="1.1" xmlns="http://www.w3.org/2000/svg" xmlns:xlink="http://www.w3.org/1999/xlink" x="0px" y="0px"
	 viewBox="0 0 464 261" style="enable-background:new 0 0 464 261;" xml:space="preserve">
<g id="&#xB808;&#xC774;&#xC5B4;_1" style="display:none;">
	<image style="display:inline;overflow:visible;" width="464" height="261" xlink:href="../23.png" >
	</image>
</g>
<g id="&#xB808;&#xC774;&#xC5B4;_2">
	<path style="fill:none;stroke:#000000;stroke-miterlimit:10;" d="M176.698,57.025c-6.148-0.123-12.199-2.878-16.329-7.433
		c-0.396-0.437-0.782-0.9-0.996-1.45c-0.2-0.515-0.238-1.078-0.267-1.63c-0.186-3.602-0.08-7.25-0.857-10.772
		c-0.379-1.718-0.97-3.449-0.744-5.194c0.263-2.031,1.652-3.812,3.418-4.85c1.765-1.038,3.867-1.395,5.914-1.34
		c3.481,0.093,6.825,1.308,10.07,2.571c1.651,0.643,3.123,0.98,4.466,2.136c1.497,1.29,1.906,3.396,2.463,5.292
		c0.656,2.234,1.635,4.372,2.898,6.328c0.739,1.144,1.607,2.328,1.603,3.69c-0.001,0.281-0.052,0.585-0.256,0.778
		c-0.398,0.376-1.036,0.103-1.584,0.092c-0.879-0.018-1.622,0.738-1.89,1.576c-0.268,0.838-0.172,1.742-0.083,2.617
		c0.115,1.138,0.208,2.32-0.178,3.396c-0.386,1.076-1.388,2.018-2.53,1.961c-1.115-0.055-2.295-0.991-3.223-0.372
		C177.837,54.928,177.605,57.043,176.698,57.025z"/>
</g>
<g id="&#xB808;&#xC774;&#xC5B4;_3">
	<path style="fill:none;stroke:#000000;stroke-miterlimit:10;" d="M180.696,54.53c-0.37-0.111-0.741-0.221-1.111-0.332
		c-0.19-0.057-0.379-0.113-0.569-0.17c-0.295-0.088-0.597-0.181-0.841-0.369c-0.565-0.438-1.295-0.674-1.756-1.22
		c-0.056-0.067-0.111-0.135-0.173-0.196"/>
</g>
<g id="&#xB808;&#xC774;&#xC5B4;_4">
	<path style="fill:none;stroke:#000000;stroke-miterlimit:10;" d="M172.527,60.08c2.007,1.148,3.075,3.471,3.457,5.752
		c0.383,2.281,0.207,4.616,0.392,6.922c0.352,4.387,2.007,8.661,1.758,13.055c-0.02,0.347-0.045,0.721,0.142,1.015
		c0.27,0.424,0.894,0.493,1.352,0.287c0.458-0.206,0.789-0.614,1.1-1.008c3.973-5.033,11.144-9.627,10.579-16.014
		c-0.119-1.351,0.124-2.707,0.125-4.063c0.002-4.263-2.383-8.294-2.174-12.552c0.027-0.552,0.168-1.201,0.678-1.414
		c0.582-0.244,1.203,0.257,1.57,0.771c0.367,0.514,0.723,1.135,1.34,1.269c0.611,0.133,1.227-0.305,1.522-0.856
		s0.35-1.194,0.434-1.813c0.181-1.341,0.523-2.66,1.016-3.92c0.611-1.561,1.571-3.137,3.132-3.748
		c0.738-0.289,1.554-0.334,2.341-0.244c2.171,0.25,4.195,1.565,5.303,3.449c1.108,1.884,1.276,4.291,0.44,6.311
		c-0.487,1.175-1.279,2.197-1.857,3.329c-1.222,2.393-2.391,5.137-1.727,7.741c0.562,2.204,0.312,4.604-0.69,6.646
		c-0.661,1.347-1.624,2.518-2.568,3.685c-4.499,5.562-8.797,11.39-11.595,17.974c-0.454,1.069-0.869,2.158-1.408,3.187
		c-0.783,1.496-1.817,2.845-2.88,4.157c-0.874,1.079-1.796,2.161-2.992,2.869c-2.529,1.498-5.814,1.026-8.454-0.268
		c-3.777-1.852-6.237-5.846-6.294-10.052c-0.043-3.175-0.711-6.34-1.956-9.261c-0.459-1.077-0.994-2.12-1.529-3.161
		c-1.065-2.075-1.947-4.444-3.26-6.372c-1.059-1.554-1.26-3.518-1.429-5.391c-0.093-1.032-0.186-2.064-0.28-3.096
		c-0.035-0.388-0.07-0.783,0-1.166c0.207-1.128,1.242-1.888,2.212-2.5c1.124-0.71,2.139-1.964,3.412-2.345
		c1.273-0.382,2.614-0.473,3.942-0.512C169.319,58.695,171.107,59.267,172.527,60.08z"/>
</g>
<g id="&#xB808;&#xC774;&#xC5B4;_5">
	<path style="fill:none;stroke:#000000;stroke-miterlimit:10;" d="M161.945,50.954c-1.095,0.31-2.191,0.62-3.286,0.93
		c-1.874,0.531-3.861,1.132-5.125,2.613c-0.882,1.033-1.306,2.395-1.429,3.748c-0.123,1.353,0.032,2.714,0.187,4.064
		c1.038,9.048,1.547,18.342,2.407,27.408c0.337,3.55,0.674,7.126,0.342,10.677c-0.332,3.551-1.378,7.116-3.555,9.941
		c-2.713,3.52-5.673,7.114-6.747,11.426c-0.806,3.234-0.926,6.658-2.224,9.729c-1.492,3.53-4.393,6.252-6.419,9.504
		c-2.397,3.849-3.51,8.338-4.589,12.742c-0.22,0.9-0.441,1.842-0.222,2.742c0.178,0.732,0.63,1.362,1.081,1.965
		c0.864,1.154,1.762,2.281,2.694,3.381c0.733,0.865,1.501,1.725,2.463,2.326c1.077,0.672,2.347,0.984,3.613,1.084
		c3.598,0.283,7.171-1.09,10.147-3.132c2.977-2.042,5.447-4.724,7.889-7.382c1.79-1.949,3.581-3.897,5.371-5.846
		c0.977-1.063,1.98-2.17,2.441-3.538c0.258-0.766,0.362-1.636,0.93-2.211c0.664-0.672,1.78-0.698,2.645-0.317
		c0.864,0.381,1.535,1.087,2.182,1.776c2.822,3.006,6.658,4.446,10.601,5.651c3.494,1.068,7.02,2.143,10.661,2.443
		c1.639,0.135,3.588-0.044,4.451-1.444c1.039-1.687-0.215-3.89,0.137-5.84c0.233-1.292,1.165-2.358,2.224-3.133
		c1.059-0.775,2.265-1.324,3.372-2.029c2.03-1.293,3.694-3.093,5.127-5.027c0.386-0.521,0.767-1.078,0.864-1.719
		c0.237-1.566-1.234-2.808-2.542-3.701c-2.945-2.012-5.923-4.041-9.246-5.336c-3.052-1.19-6.313-1.728-9.453-2.657
		c-1.711-0.506-3.426-1.151-4.787-2.305s-2.324-2.905-2.133-4.679c0.156-1.454,1.035-2.716,1.886-3.906
		c1.91-2.671,4.278-4.795,5.341-7.902c1.063-3.107,1.477-6.392,1.886-9.651c0.257-2.05,0.514-4.115,0.374-6.176"/>
</g>
<g id="&#xB808;&#xC774;&#xC5B4;_6">
	<path style="fill:none;stroke:#000000;stroke-miterlimit:10;" d="M186.561,79.48c-0.186-6.364-2.825-12.397-5.896-17.974
		c-0.907-1.647-1.894-3.315-3.39-4.455"/>
</g>
<g id="&#xB808;&#xC774;&#xC5B4;_7">
	<path style="fill:none;stroke:#000000;stroke-miterlimit:10;" d="M190.513,97.535c7.589,2.354,15.261,4.439,22.997,6.251
		c3.041,0.712,6.305,1.505,8.368,3.85c1.806,2.053,2.329,4.896,2.889,7.572c0.07,0.336,0.146,0.68,0.336,0.965
		c0.242,0.364,0.644,0.591,1.054,0.743c1.285,0.477,2.707,0.328,4.067,0.507c1.737,0.228,3.396,1.016,4.672,2.217
		c3.564,3.356,8.009,4.891,12.389,7.078c1.514,0.756,3.091,1.496,4.78,1.605c0.337,0.022,0.691,0.014,0.991-0.14
		c0.609-0.312,0.79-1.149,0.562-1.795c-0.228-0.646-0.759-1.133-1.296-1.557c-2.757-2.179-6.125-3.41-9.195-5.12
		c-3.07-1.71-6.029-4.164-6.924-7.563c-0.271-1.028-0.34-2.105-0.662-3.119c-0.576-1.811-1.931-3.293-3.495-4.372
		s-3.342-1.8-5.103-2.513c-5.887-2.381-10.85-6.317-15.93-10.128c-1.105-0.829-2.228-1.694-3.549-2.1
		c-1.927-0.592-4.19-0.183-5.841-1.341c-2.108-1.478-2.394-4.981-4.82-5.843c-0.624-0.222-1.496-0.545-2.148-0.666"/>
</g>
<g id="&#xB808;&#xC774;&#xC5B4;_8">
	<path style="fill:none;stroke:#000000;stroke-miterlimit:10;" d="M87.304,199.605c-1.606,1.127-3.623,1.454-5.563,1.747
		c-1.174,0.178-2.459,0.414-3.214,1.331c-0.664,0.806-0.741,1.931-0.787,2.974c-0.081,1.817-0.144,3.574-0.642,5.323
		c-0.71,2.493-2.291,4.909-1.833,7.461c0.121,0.676,0.384,1.317,0.555,1.982c0.321,1.241,0.322,2.538,0.421,3.816
		c0.126,1.629,0.414,3.24,0.701,4.848c0.197,1.104,0.407,2.241,1.019,3.181c0.416,0.639,0.999,1.153,1.622,1.591
		c1.383,0.971,3.044,1.605,4.734,1.564c0.434-0.01,0.884-0.071,1.248-0.309c0.691-0.452,0.86-1.378,0.932-2.201
		c0.355-4.065-0.115-8.197,0.601-12.215c0.53-2.972,1.707-5.876,1.556-8.891c-0.018-0.361-0.061-0.739-0.267-1.037
		c-0.17-0.247-0.435-0.414-0.619-0.65c-0.301-0.387-0.351-0.909-0.377-1.399c-0.078-1.455-0.052-2.916,0.076-4.367
		c0.112-1.27,0.298-2.583-0.102-3.794C87.269,200.268,86.996,199.625,87.304,199.605z"/>
</g>
<g id="&#xB808;&#xC774;&#xC5B4;_9">
	<path style="fill:none;stroke:#000000;stroke-miterlimit:10;" d="M87.274,199.821c2.197-1.027,3.792-2.983,5.309-4.876
		c3.22-4.019,6.44-8.039,9.66-12.058c0.63-0.787,1.266-1.579,2.036-2.23c0.791-0.668,1.705-1.171,2.563-1.751
		c3.14-2.125,5.537-5.304,8.928-7.001c1.138-0.569,2.373-0.963,3.416-1.691c2.271-1.586,3.536-4.67,6.225-5.333
		c0.693-0.171,1.555-0.245,1.855-0.892c0.158-0.34,0.095-0.736,0.058-1.109c-0.274-2.754,1.185-5.605,3.578-6.994"/>
</g>
<g id="&#xB808;&#xC774;&#xC5B4;_10">
	<path style="fill:none;stroke:#000000;stroke-miterlimit:10;" d="M88.934,211.574c2.199-2.866,4.435-5.77,7.326-7.936
		c1.611-1.207,3.397-2.162,5.026-3.345c1.385-1.006,2.655-2.176,4.124-3.055c1.209-0.724,2.531-1.238,3.781-1.887
		c6.527-3.389,10.792-10.26,17.482-13.317c3.685-1.684,8.037-2.179,11.027-4.914c2.661-2.435,3.715-6.2,6.173-8.84
		c1.386-1.489,3.231-2.642,4.066-4.497"/>
</g>
<g id="&#xB808;&#xC774;&#xC5B4;_11">
	<path style="fill:none;stroke:#000000;stroke-miterlimit:10;" d="M167.778,193.902c-0.334,0.373-0.661,0.808-0.668,1.31
		c-0.006,0.433,0.232,0.832,0.501,1.172c0.633,0.798,1.489,1.416,2.444,1.766c0.327,0.12,0.67,0.211,0.968,0.392
		c0.374,0.227,0.651,0.579,0.92,0.924c2.534,3.257,4.983,6.584,7.208,10.06c0.734,1.147,1.458,2.328,2.484,3.223
		c0.715,0.625,1.555,1.09,2.404,1.516c1.027,0.516,2.079,0.982,3.151,1.398c0.41,0.159,0.879,0.309,1.276,0.12
		c0.212-0.101,0.371-0.287,0.508-0.478c1.334-1.866,1.053-4.404,0.608-6.654c-0.236-1.19-0.511-2.399-1.145-3.434
		c-0.913-1.488-2.469-2.457-3.582-3.803c-1.002-1.211-1.627-2.729-1.769-4.294c-0.108-1.188,0.056-2.39-0.066-3.577
		c-0.122-1.187-0.607-2.435-1.642-3.028c-0.557-0.32-1.21-0.415-1.835-0.563c-1.202-0.285-2.351-0.79-3.378-1.478
		c-1.423-0.953-1.553-1.153-2.715,0.208C171.77,190.644,169.497,191.98,167.778,193.902z"/>
</g>
<g id="&#xB808;&#xC774;&#xC5B4;_12">
	<path style="fill:none;stroke:#000000;stroke-miterlimit:10;" d="M174.749,187.325c5.325-5.367,10.65-10.735,15.975-16.102
		c0.981-0.988,1.975-1.995,2.639-3.218c1.088-2.003,1.206-4.425,2.309-6.419c0.449-0.811,1.049-1.528,1.693-2.195
		c1.236-1.278,2.648-2.386,4.184-3.283c0.586-0.342,1.204-0.666,1.639-1.187c0.434-0.521,0.636-1.307,0.277-1.883
		c-0.382-0.613-1.201-0.75-1.92-0.812c-1.408-0.121-2.821-0.183-4.234-0.185"/>
</g>
<g id="&#xB808;&#xC774;&#xC5B4;_13">
	<path style="fill:none;stroke:#000000;stroke-miterlimit:10;" d="M182.881,192.508c0.35-1.07,0.699-2.141,1.049-3.211
		c0.19-0.582,0.388-1.178,0.774-1.653c0.453-0.558,1.119-0.892,1.774-1.189c3.186-1.444,6.631-2.39,9.532-4.346
		c1.946-1.311,3.594-3.044,5.613-4.239c0.92-0.544,1.911-0.974,2.763-1.618c1.083-0.82,1.911-1.965,3.081-2.655
		c5.618-3.313,10.267-8.121,15.382-12.167c1.429-1.131,2.909-2.345,3.596-4.033c0.776-1.906,0.387-4.128-0.556-5.958
		c-0.942-1.83-2.385-3.345-3.807-4.833c-1.159-1.213-1.859-3.082-3.016-4.297c-0.808-0.848-1.739-1.571-2.546-2.42
		c-2.089-2.196-3.463-5.302-6.275-6.435"/>
</g>
<g id="&#xB808;&#xC774;&#xC5B4;_14">
	<path style="fill:none;stroke:#000000;stroke-miterlimit:10;" d="M318.54,52.952c-0.638,0.397-1.45,0.336-2.195,0.239
		c-1.133-0.148-2.26-0.349-3.375-0.603c-2.004-0.456-3.965-1.08-5.923-1.703c-2.592-0.825-5.183-1.65-7.775-2.475
		c-0.478-0.152-0.971-0.313-1.343-0.649c-0.972-0.878-0.693-2.443-0.335-3.703c0.949-3.337-1.424-6.946-1.174-10.406
		c0.085-1.176,0.377-2.325,0.675-3.466c0.233-0.892,0.482-1.808,1.032-2.548c0.521-0.7,1.272-1.19,2.025-1.631
		c0.826-0.483,1.681-0.93,2.597-1.207c1.804-0.546,3.735-0.409,5.611-0.229c2.403,0.231,4.825,0.531,7.093,1.359
		c2.268,0.827,4.395,2.232,5.686,4.272c1.508,2.382,1.849,5.537,3.977,7.387c0.926,0.805,2.12,1.284,2.945,2.192
		c0.215,0.237,0.412,0.55,0.326,0.858c-0.049,0.178-0.186,0.318-0.329,0.435c-0.466,0.383-1.059,0.609-1.662,0.634
		c-0.586,0.024-1.212-0.129-1.735,0.137c-0.913,0.464-0.846,1.771-0.644,2.775c0.322,1.602,0.519,2.939,0.494,4.573
		c-0.009,0.551-0.11,1.211-0.613,1.435c-0.341,0.152-0.736,0.034-1.09-0.085c-0.622-0.209-1.244-0.418-1.866-0.627
		c-0.484-0.163-1.118-0.282-1.419,0.13c-0.117,0.16-0.148,0.365-0.158,0.563c-0.023,0.429,0.036,0.865-0.057,1.284
		C319.216,52.313,318.905,52.725,318.54,52.952z"/>
</g>
<g id="&#xB808;&#xC774;&#xC5B4;_15">
	<path style="fill:none;stroke:#000000;stroke-miterlimit:10;" d="M317.271,49.56c0.879-0.086,1.769-0.06,2.641,0.075
		c0.315,0.049,0.631,0.113,0.922,0.244c0.161,0.072,0.32,0.166,0.496,0.166"/>
</g>
<g id="&#xB808;&#xC774;&#xC5B4;_16">
	<path style="fill:none;stroke:#000000;stroke-miterlimit:10;" d="M301.744,60.129c2.115-1.28,2.884-4.231,5.142-5.239
		c1.095-0.489,2.347-0.42,3.543-0.342c1.888,0.123,3.798,0.251,5.599,0.83s3.51,1.669,4.45,3.31c1.016,1.773,1.02,3.943,0.794,5.975
		c-0.251,2.258-0.752,4.488-1.491,6.637c-0.244,0.71-0.541,1.448-1.138,1.903c-0.495,0.377-1.13,0.506-1.744,0.61
		c-4.32,0.737-9.068,0.895-12.429,3.708c-4.114,3.443-9.453,4.217-13.121,8.131c-0.984,1.05-1.841,2.21-2.749,3.327
		c-2.121,2.611-4.524,4.992-7.154,7.089c-2.948,2.35-6.188,4.353-8.872,6.999c-2.685,2.647-4.827,6.134-4.805,9.904
		c0.012,2.007,0.631,4.045,0.142,5.992c-0.449,0.203-0.933-0.275-1.048-0.754c-0.115-0.479-0.038-0.999-0.226-1.455
		c-0.182-0.442-0.594-0.757-1.039-0.932c-1.719-0.676-3.87,0.964-3.674,2.801c0.065,0.608,0.333,1.177,0.424,1.781
		c0.091,0.604-0.061,1.322-0.6,1.61c-0.217,0.116-0.469,0.146-0.715,0.161c-3.605,0.216-6.983-2.731-7.711-6.269
		c-0.727-3.538,0.945-7.327,3.761-9.589c1.568-1.259,3.438-2.095,5.029-3.324c2.915-2.253,4.68-5.643,6.356-8.923
		c2.38-4.658,7.306-7.78,10.195-12.141c1.521-2.296,2.84-4.74,4.625-6.837C288.661,68.775,294.648,64.424,301.744,60.129z"/>
</g>
<g id="&#xB808;&#xC774;&#xC5B4;_17">
	<path style="fill:none;stroke:#000000;stroke-miterlimit:10;" d="M292.541,66.277c-0.171-6.635,2.939-13.275,8.146-17.391"/>
</g>
<g id="&#xB808;&#xC774;&#xC5B4;_18">
	<path style="fill:none;stroke:#000000;stroke-miterlimit:10;" d="M295.787,82.213c1.554,6.983,2.333,14.138,2.318,21.291
		c-0.005,2.137-0.095,4.341-0.984,6.284c-1.886,4.121-6.793,6.001-9.316,9.766c-1.979,2.953-2.256,6.678-3.079,10.136
		c-2.132,8.955-8.071,16.42-13.063,24.153c-0.954,1.479-1.779,3.686-0.391,4.767c0.537,0.419,1.253,0.499,1.915,0.659
		c4.965,1.203,8.49,7.495,13.477,6.388c1.84-0.409,3.283-1.791,4.624-3.115c5.318-5.254,10.637-10.508,15.955-15.762
		c0.846-0.836,1.751-1.705,2.905-1.99c0.885-0.218,1.815-0.064,2.707,0.119c9.41,1.935,18.053,7.072,27.61,8.04
		c0.387,0.039,0.797,0.067,1.145-0.106c0.48-0.239,0.706-0.784,0.912-1.279c2.258-5.414,6.826-9.818,12.318-11.879
		c0.992-0.372,2.052-0.696,2.796-1.45s1.007-2.113,0.237-2.839c-0.255-0.24-0.585-0.38-0.908-0.515
		c-6.406-2.683-12.812-5.366-19.218-8.049c-2.747-1.151-5.532-2.323-7.873-4.164s-4.226-4.465-4.51-7.43
		c-0.412-4.289,2.472-8.13,3.602-12.288c0.848-3.12,0.696-6.414,0.537-9.643c-0.249-5.071-0.498-10.148-1.11-15.188
		c-1.102-9.079-3.4-19.379-10.894-24.621"/>
	<path style="fill:none;stroke:#000000;stroke-miterlimit:10;" d="M215.781,194.174c-1.508,1.494-1.446,3.887-1.632,6.002
		c-0.362,4.101-2.081,8.071-4.824,11.141c-2.478,2.773-5.942,5.173-6.433,8.859c-0.164,1.231,0.039,2.481,0.33,3.688
		c0.155,0.643,0.357,1.316,0.847,1.759c0.694,0.628,1.796,0.606,2.639,0.197s1.486-1.128,2.106-1.83
		c1.387-1.57,2.778-3.146,3.955-4.88c1.74-2.565,2.978-5.431,4.205-8.277c1.674-3.881,3.371-7.856,3.946-12.076
		c0.203-1.491,0.771-3.996-0.527-5.027C219.117,192.717,216.87,193.096,215.781,194.174z"/>
</g>
<g id="&#xB808;&#xC774;&#xC5B4;_19">
</g>
<g id="&#xB808;&#xC774;&#xC5B4;_20">
	<path style="fill:none;stroke:#000000;stroke-miterlimit:10;" d="M220.671,193.693c0.906-0.979,2.466-0.75,3.798-0.827
		c2.725-0.158,5.074-1.881,7.245-3.535c1.251-0.953,2.502-1.906,3.754-2.859c5.04-3.839,10.097-7.693,14.576-12.173
		c0.966-0.966,1.918-1.972,3.087-2.679c4.037-2.444,9.599-0.789,13.649-3.211c1.718-1.028,2.956-2.678,4.148-4.286
		c1.082-1.46,2.214-3.072,2.156-4.888"/>
</g>
<g id="&#xB808;&#xC774;&#xC5B4;_21">
	<path style="fill:none;stroke:#000000;stroke-miterlimit:10;" d="M220.384,202.771c3.159-3.213,7.407-5.116,11.672-6.569
		s8.676-2.538,12.748-4.467c1.397-0.662,2.754-1.423,4.214-1.93c2.146-0.746,4.44-0.921,6.701-1.135
		c6.907-0.655,14.18-1.913,19.422-6.458c2.441-2.117,4.289-4.828,6.564-7.122c1.355-1.367,2.866-2.59,4.052-4.106
		c1.186-1.516,2.04-3.42,1.793-5.329"/>
</g>
<g id="&#xB808;&#xC774;&#xC5B4;_22">
	<path style="fill:none;stroke:#000000;stroke-miterlimit:10;" d="M342.675,205.295c-1.492-0.336-3.087,0.153-4.329,1.046
		c-1.242,0.893-2.173,2.154-2.948,3.473c-0.318,0.54-0.621,1.13-0.588,1.756c0.047,0.874,0.753,1.589,1.539,1.974
		c0.786,0.385,1.667,0.523,2.501,0.789c3.948,1.258,6.355,5.101,9.162,8.147c2.559,2.777,5.675,5.039,9.108,6.613
		c3.365,1.543,7.155,2.426,10.79,1.725c0.958-0.185,1.924-0.493,2.665-1.128s1.215-1.653,0.983-2.601
		c-0.243-0.993-1.153-1.661-2.032-2.182c-4.539-2.693-10.13-3.984-13.485-8.057c-0.194-1.364-0.613-2.98-1.764-3.737
		c-0.551-0.362-1.223-0.486-1.821-0.765c-2.197-1.024-2.926-3.816-4.777-5.382C346.252,205.756,344.501,205.706,342.675,205.295z"/>
</g>
<g id="&#xB808;&#xC774;&#xC5B4;_23">
	<path style="fill:none;stroke:#000000;stroke-miterlimit:10;" d="M340.5,205.5c0-1,3.526-2.919,4.29-4.189
		c0.699-1.163,0.966-2.528,1.195-3.865c0.382-2.237,0.689-4.487,0.92-6.745c0.194-1.894,0.335-3.799,0.729-5.661
		c0.544-2.563,1.561-5.007,2.094-7.572c0.719-3.458,0.541-7.032,0.83-10.552c0.169-2.056,0.498-4.099,0.984-6.104
		c0.351-1.448,0.657-3.281-0.543-4.164c-0.33-0.243-0.731-0.367-1.123-0.486c-3.013-0.918-4.362-2.743-7.375-3.661"/>
</g>
<g id="&#xB808;&#xC774;&#xC5B4;_24">
	<path style="fill:none;stroke:#000000;stroke-miterlimit:10;" d="M354.626,213.331c-1.153-7.553-1.395-15.497,1.386-22.613
		c0.918-2.349,2.147-4.561,3.226-6.841c2.51-5.306,4.195-10.96,6.428-16.388c2.181-5.302,4.937-10.608,4.958-16.341
		c0.009-2.41-0.712-5.144-2.861-6.235c-0.971-0.493-0.978-2.223-1.615-3.106c-0.257-0.356-0.582-0.656-0.905-0.954
		c-2.122-1.955-4.421-3.998-7.271-4.444"/>
</g>
<g id="&#xB808;&#xC774;&#xC5B4;_25">
	<path style="fill:none;stroke:#000000;stroke-miterlimit:10;" d="M327.601,72.019c1.703-1.001,2.722-2.837,3.517-4.646
		c1.07-2.432,1.844-5.391,0.412-7.629c-0.406-0.635-1.002-1.306-0.802-2.033c0.169-0.612,0.869-0.941,1.504-0.925
		c0.634,0.016,1.229,0.289,1.826,0.504c0.273,0.098,0.567,0.186,0.85,0.12c0.462-0.107,0.736-0.578,0.903-1.022
		c0.834-2.22,0.241-4.906-1.45-6.568c-0.247-0.242-0.537-0.519-0.505-0.864c0.022-0.24,0.2-0.434,0.379-0.597
		c1.947-1.774,4.844-2.006,7.466-1.748c0.511,0.05,1.033,0.119,1.486,0.361c1.382,0.736,1.527,2.64,1.373,4.199
		c-0.284,2.88-0.97,5.703-1.654,8.516c-1.352,5.558-2.704,11.117-4.056,16.675c-0.321,1.32-0.644,2.646-1.167,3.899
		c-0.556,1.332-1.329,2.56-2.01,3.832c-0.828,1.546-1.526,3.166-2.471,4.644c-0.945,1.478-2.177,2.835-3.773,3.564"/>
</g>
</svg>
