<?xml version="1.0" encoding="iso-8859-1"?>
<!-- Generator: Adobe Illustrator 24.0.1, SVG Export Plug-In . SVG Version: 6.00 Build 0)  -->
<svg version="1.1" xmlns="http://www.w3.org/2000/svg" xmlns:xlink="http://www.w3.org/1999/xlink" x="0px" y="0px"
	 viewBox="0 0 464 261" style="enable-background:new 0 0 464 261;" xml:space="preserve">
<g id="&#xB808;&#xC774;&#xC5B4;_1" style="display:none;">
	<image style="display:inline;overflow:visible;" width="464" height="261" xlink:href="../25.png" >
	</image>
</g>
<g id="&#xB808;&#xC774;&#xC5B4;_2">
	<g>
		<path d="M170.033,24.626L170.033,24.626c0.556,0,1.065,0.037,1.556,0.114c2.574,0.401,4.958,1.983,7.061,3.378
			c1.123,0.745,2.395,1.589,2.981,2.774c0.346,0.7,0.483,1.559,0.629,2.469c0.238,1.489,0.509,3.177,1.856,4.308
			c0.44,0.369,0.932,0.615,1.366,0.832c0.357,0.178,0.694,0.346,0.95,0.554c0.286,0.232,0.394,0.648,0.363,0.736
			c-0.051,0.039-0.256,0.087-0.391,0.119c-0.186,0.043-0.398,0.093-0.619,0.18c-1.654,0.649-2.153,2.681-1.792,4.352
			c0.109,0.504,0.267,0.978,0.421,1.436c0.23,0.688,0.447,1.338,0.448,1.958c0.003,1.981-0.968,2.265-3.536,2.519
			c-0.67,0.066-1.362,0.135-2.008,0.288l-0.442,0.105c-2.341,0.555-4.363,1.034-6.521,1.034c-1.022,0-2.035-0.105-3.097-0.321
			c-1.591-0.324-3.201-0.783-4.757-1.228c-1.357-0.388-2.761-0.789-4.171-1.106c-0.295-0.067-0.545-0.253-0.684-0.513
			c-0.084-0.155-0.16-0.4-0.052-0.686c1.125-2.967,0.913-6.353-0.57-9.056c-0.214-0.391-0.449-0.76-0.675-1.118
			c-0.339-0.535-0.659-1.04-0.886-1.568c-0.785-1.829-0.473-4.038-0.064-5.958c0.187-0.881,0.414-1.793,0.935-2.424
			c0.636-0.77,1.756-1.169,2.848-1.511c1.727-0.541,3.466-0.968,5.167-1.268C167.521,24.817,168.781,24.626,170.033,24.626
			 M170.033,23.626c-1.292,0-2.591,0.19-3.86,0.414c-1.791,0.316-3.557,0.755-5.292,1.298c-1.216,0.381-2.504,0.84-3.32,1.828
			c-0.659,0.798-0.927,1.841-1.142,2.853c-0.463,2.175-0.753,4.517,0.124,6.561c0.421,0.982,1.09,1.835,1.603,2.772
			c1.363,2.487,1.514,5.577,0.511,8.221c-0.415,1.093,0.31,2.272,1.451,2.529c3.001,0.676,5.928,1.724,8.949,2.339
			c1.18,0.24,2.26,0.341,3.296,0.341c2.411,0,4.579-0.548,7.193-1.165c2.547-0.602,6.321,0.204,6.315-3.782
			c-0.002-1.242-0.629-2.39-0.891-3.604c-0.262-1.214,0.023-2.756,1.18-3.21c0.414-0.162,0.898-0.165,1.251-0.434
			c0.713-0.543,0.357-1.743-0.338-2.308c-0.696-0.565-1.617-0.799-2.303-1.375c-1.775-1.491-1.205-4.376-2.231-6.455
			c-0.686-1.389-2.034-2.308-3.324-3.165c-2.312-1.534-4.719-3.106-7.46-3.533C171.176,23.663,170.605,23.626,170.033,23.626
			L170.033,23.626z"/>
	</g>
</g>
<g id="&#xB808;&#xC774;&#xC5B4;_3">
	<g>
		<path d="M75.166,195.013c1.732,0,2.806,0.651,3.168,3.977c0.396,3.635-0.544,7.355-2.579,10.207
			c-0.557,0.781-1.19,1.512-1.86,2.285c-1.398,1.614-2.844,3.283-3.538,5.427c-0.261,0.807-0.394,1.621-0.523,2.409
			c-0.126,0.774-0.246,1.506-0.476,2.188c-0.308,0.912-0.828,1.756-1.505,2.441c-0.565,0.571-1.126,0.906-1.67,0.996
			c-0.081,0.013-0.164,0.02-0.248,0.02c-0.445,0-0.848-0.184-1.027-0.468c-0.152-0.242-0.208-0.622-0.245-0.996
			c-0.497-4.96,1.403-9.619,3.414-14.551c1.542-3.781,3.136-7.692,3.591-11.807l0.007-0.066c0.064-0.578,0.129-1.176,0.399-1.431
			c0.172-0.163,0.507-0.256,0.812-0.326C73.787,195.113,74.533,195.013,75.166,195.013 M75.166,194.013
			c-0.723,0-1.553,0.114-2.503,0.331c-0.46,0.105-0.933,0.249-1.276,0.573c-0.553,0.522-0.63,1.358-0.714,2.114
			c-1.015,9.178-7.926,17.379-7.006,26.567c0.05,0.496,0.128,1.007,0.394,1.429c0.389,0.618,1.136,0.935,1.873,0.935
			c0.138,0,0.276-0.011,0.411-0.034c0.856-0.142,1.607-0.662,2.217-1.279c0.785-0.793,1.386-1.767,1.742-2.825
			c0.503-1.491,0.518-3.111,1.003-4.608c0.942-2.907,3.486-4.952,5.261-7.439c2.229-3.124,3.173-7.095,2.759-10.896
			C78.956,195.465,77.745,194.013,75.166,194.013L75.166,194.013z"/>
	</g>
</g>
<g id="&#xB808;&#xC774;&#xC5B4;_4">
	<path style="fill:none;stroke:#000000;stroke-miterlimit:10;" d="M178.329,56.626c0.041-1.308-1.508-2.014-2.794-2.258
		c-1.561-0.297-3.151-0.436-4.74-0.414c-1.345,0.019-2.74,0.169-3.894,0.86c-0.702,0.42-1.276,1.019-1.841,1.609
		c-0.954,0.997-1.907,1.994-2.861,2.99c-0.678,0.709-1.365,1.429-1.825,2.295c-1.383,2.598-0.394,5.895,1.392,8.233
		c1.617,2.116,2.031,5.012,3.374,7.311c1.636,2.8,3.278,5.609,5.274,8.164c2.969,3.802,6.66,6.967,10.334,10.093
		c1.243,1.057,2.57,2.153,4.179,2.426c2.585,0.438,5.082-1.446,6.354-3.739c1.273-2.292,1.65-4.954,2.313-7.491
		c2.124-8.126,7.325-15.352,8.381-23.684c0.268-2.117,0.26-4.261,0.51-6.38c0.383-3.256,1.37-6.422,1.675-9.686
		c0.268-2.871-0.208-6.178-2.562-7.842c-1.41-0.997-3.255-1.2-4.965-0.956c-1.839,0.262-3.763,1.158-4.49,2.867
		c-0.937,2.205,0.448,4.637,0.872,6.995c0.205,1.141-0.154,2.705-1.311,2.77c-1.436,0.081-2.227-2.334-3.623-1.985
		c-0.833,0.209-1.086,1.283-0.99,2.136c0.193,1.705,1.114,3.225,1.779,4.807c1.209,2.873,1.594,6.087,1.099,9.164
		c-0.242,1.5,0.144,2.877,0.361,4.381c0.217,1.504,0.279,3.094-0.328,4.487c-0.607,1.393-2.045,2.52-3.553,2.335
		c-0.752-0.092-1.43-0.485-2.06-0.906c-1.135-0.759-2.224-1.678-2.809-2.911c-0.51-1.074-0.596-2.292-0.709-3.476
		C180.458,64.508,178.193,60.96,178.329,56.626z"/>
</g>
<g id="&#xB808;&#xC774;&#xC5B4;_5">
	<path style="fill:none;stroke:#000000;stroke-miterlimit:10;" d="M159.202,49.209c-3.302,5.206-6.736,10.931-6.137,17.067
		c0.135,1.38,0.474,2.731,0.743,4.091c0.83,4.191,0.999,8.492,1.856,12.678c0.893,4.361,2.522,8.55,3.339,12.926
		c0.817,4.376,0.738,9.157-1.58,12.958c-1.475,2.42-3.768,4.297-5.031,6.834c-0.589,1.183-0.935,2.475-1.516,3.663
		c-0.753,1.54-1.878,2.862-2.991,4.166c-2.205,2.584-2.042,6.495-2.998,9.755c-1.581,5.398-5.928,9.497-8.554,14.471
		c-0.98,1.857-1.717,3.83-2.451,5.797c-0.513,1.374-1.029,2.892-0.53,4.272c0.894,2.471,4.151,2.786,6.716,3.356
		c2.627,0.583,5.093,1.871,7.073,3.693c0.545,0.501,1.116,1.073,1.853,1.147c0.938,0.094,1.725-0.645,2.407-1.296
		c3.446-3.289,7.668-5.637,11.421-8.572c3.753-2.934,7.186-6.744,8.031-11.433c10.499,0.595,19.943,6.885,30.391,8.084
		c0.477,0.055,0.989,0.093,1.411-0.136c0.734-0.397,0.864-1.368,0.998-2.191c0.619-3.817,3.108-7.135,6.163-9.506
		c3.055-2.371,6.659-3.912,10.252-5.343c0.566-0.225,1.255-0.724,1-1.277c-0.119-0.258-0.407-0.385-0.673-0.485
		c-1.518-0.569-3.097-0.954-4.66-1.381c-7.863-2.146-15.391-5.351-22.89-8.545c-1.636-0.697-3.371-1.476-4.319-2.979
		c-1.441-2.283-0.536-5.258,0.405-7.788c2.189-5.886,1.699-12.382,1.74-18.662"/>
</g>
<g id="&#xB808;&#xC774;&#xC5B4;_6">
	<path style="fill:none;stroke:#000000;stroke-miterlimit:10;" d="M178.419,51.077c0.21,1.674,0.421,3.348,0.631,5.022
		c0.066,0.525,0.135,1.059,0.36,1.538c0.321,0.682,0.925,1.18,1.5,1.668c1.649,1.398,3.261,2.979,3.996,5.012
		c0.53,1.466,0.566,3.073,1.081,4.544c0.647,1.845,2.068,3.404,3.844,4.219"/>
	<path style="fill:none;stroke:#000000;stroke-miterlimit:10;" d="M76.548,194.27c1.256-1.291,3.336-1.026,5.135-1.108
		c3.12-0.143,6.05-1.621,8.516-3.537c2.466-1.916,4.549-4.271,6.742-6.496c6.809-6.908,15.319-12.849,24.983-13.697
		c1.016-0.089,2.052-0.124,3.017-0.454c1.065-0.364,1.977-1.065,2.867-1.754c1.45-1.122,2.98-2.357,3.511-4.112
		c0.433-1.434,0.873-4.883,2.182-5.612"/>
	<path style="fill:none;stroke:#000000;stroke-miterlimit:10;" d="M78.213,204.588c3.914-2.074,7.828-4.148,11.742-6.223
		c2.249-1.192,4.499-2.384,6.748-3.576c4.444-2.355,8.921-4.724,13.729-6.196c2.813-0.861,5.711-1.407,8.601-1.951
		c3.827-0.72,7.654-1.44,11.481-2.16c2.423-0.456,4.913-0.937,6.992-2.262c3.443-2.194,5.138-6.261,7.885-9.281
		c1.81-1.991,4.292-4.012,4.009-6.688"/>
</g>
<g id="&#xB808;&#xC774;&#xC5B4;_7">
	<path style="fill:none;stroke:#000000;stroke-miterlimit:10;" d="M200.124,205.87c-0.921,1.447-1.269,3.177-1.544,4.87
		c-0.078,0.481-0.152,0.979-0.033,1.452c0.334,1.328,1.906,1.822,3.181,2.32c3.688,1.44,6.426,4.535,9.157,7.402
		c1.029,1.08,2.094,2.155,3.383,2.906c1.521,0.886,3.275,1.276,5.006,1.594c2.525,0.464,5.074,0.801,7.633,1.01
		c1.476,0.12,3.419-0.129,3.729-1.577c0.193-0.902-0.446-1.801-1.235-2.28c-0.788-0.479-1.716-0.661-2.58-0.982
		c-1.438-0.534-2.696-1.452-3.934-2.358c-1.574-1.153-3.147-2.305-4.721-3.458c-2.157-1.58-4.441-3.332-5.235-5.885
		c-0.154-0.495-0.252-1.021-0.545-1.449c-0.243-0.356-0.601-0.614-0.951-0.864C208.137,206.21,203.4,200.723,200.124,205.87z"/>
</g>
<g id="&#xB808;&#xC774;&#xC5B4;_8">
	<path style="fill:none;stroke:#000000;stroke-miterlimit:10;" d="M203.116,152.07c1.647,3.042,5.65,3.768,9.109,3.835
		c0.56,0.011,1.159,0.025,1.618,0.345c0.831,0.578,0.793,1.797,0.66,2.8c-0.418,3.156-0.896,6.303-1.433,9.441
		c-0.326,1.903-0.679,3.822-1.451,5.592c-1.927,4.413-6.407,7.854-6.563,12.666c-0.045,1.377-0.332,2.898-0.355,4.275
		c-0.067,4.061-0.134,8.415-0.201,12.476"/>
</g>
<g id="&#xB808;&#xC774;&#xC5B4;_9">
	<path style="fill:none;stroke:#000000;stroke-miterlimit:10;" d="M220.729,135.259c4.239,1.603,7.7,5.147,9.2,9.424
		c0.917,2.614,1.121,5.416,1.317,8.179c0.084,1.181,0.167,2.375-0.025,3.544c-0.225,1.371-0.818,2.649-1.389,3.915
		c-3.378,7.505-6.139,15.269-8.896,23.023c-3.048,8.573-5.579,17.518-8.436,26.157"/>
</g>
<g id="&#xB808;&#xC774;&#xC5B4;_10">
	<path style="fill:none;stroke:#000000;stroke-miterlimit:10;" d="M313.204,54.757c0.117,0.466,0.234,0.95,0.147,1.423
		c-0.087,0.473-0.438,0.933-0.916,0.985c-0.277,0.03-0.548-0.077-0.807-0.18c-5.119-2.03-10.617-3.1-16.124-3.139
		c-0.517-0.004-1.076-0.011-1.489-0.323c-0.405-0.305-0.569-0.826-0.702-1.315c-0.877-3.231-1.374-6.564-1.48-9.91
		c-0.036-1.147-0.023-2.315,0.317-3.411c0.397-1.279,1.215-2.381,2.067-3.414c2.15-2.604,4.674-4.986,7.737-6.406
		c3.063-1.42,6.733-1.783,9.815-0.405c1.015,0.454,1.954,1.09,2.719,1.898c0.859,0.908,1.482,2.009,2.079,3.108
		c0.643,1.183,1.266,2.376,1.889,3.569c0.722,1.383,1.507,2.834,2.844,3.637c0.727,0.436,1.593,0.665,2.195,1.261
		s0.725,1.801-0.038,2.169c-0.571,0.275-1.263-0.083-1.879,0.063c-0.782,0.186-1.148,1.081-1.297,1.871
		c-0.363,1.922-0.154,3.949,0.595,5.757c0.172,0.414,0.375,0.836,0.356,1.284c-0.043,1.044-1.582,1.63-2.309,0.879
		c-1.374-0.126-2.405-0.629-3.68-1.157c-0.374-0.155-0.756-0.329-1.161-0.321c-0.404,0.008-0.838,0.264-0.895,0.664
		S312.895,55.017,313.204,54.757z"/>
	<path style="fill:none;stroke:#000000;stroke-miterlimit:10;" d="M288.574,67.855c0.346-1.696,0.972-3.334,1.846-4.828
		c0.851-1.455,1.954-2.788,3.356-3.724c1.976-1.318,4.439-1.768,6.81-1.624c2.371,0.143,4.674,0.842,6.902,1.664
		c1.572,0.58,3.182,1.266,4.279,2.533c1.351,1.561,1.704,3.771,1.551,5.83c-0.415,5.581-4.431,10.725-9.743,12.484
		c-2.839,0.94-5.884,0.964-8.856,1.293c-2.972,0.328-6.061,1.045-8.272,3.059c-2.558,2.331-3.58,5.174-6.368,7.225
		c-0.926,0.681-1.923,1.266-2.817,1.989c-3.221,2.604-4.817,6.743-7.771,9.645c-1.167,1.146-2.565,2.127-3.316,3.58
		c-0.604,1.169-0.721,2.52-0.827,3.831c-0.144,1.785-0.288,3.569-0.432,5.354c-0.117,1.449-0.238,2.917-0.715,4.29
		c-0.478,1.373-1.36,2.664-2.654,3.326c-0.127,0.065-0.264,0.125-0.407,0.114c-0.407-0.032-0.538-0.557-0.562-0.964
		c-0.074-1.26-0.147-2.521-0.221-3.781c-2.028,0.134-3.689,2.254-3.333,4.256c0.143,0.805,0.558,1.574,0.494,2.389
		c-0.049,0.624-0.47,1.266-1.09,1.35c-0.524,0.072-1.011-0.255-1.437-0.569c-2.021-1.489-4.033-3.087-5.388-5.201
		c-1.355-2.114-1.962-4.856-0.993-7.172c0.785-1.874,2.452-3.205,4.055-4.453c1.583-1.233,3.166-2.466,4.749-3.699
		c0.926-0.721,1.862-1.453,2.577-2.382c1.1-1.429,1.598-3.215,2.199-4.915c1.372-3.879,3.38-7.495,5.379-11.091
		c1.272-2.288,2.562-4.602,4.35-6.514c1.447-1.548,3.183-2.792,4.906-4.025c2.249-1.609,4.498-3.218,6.747-4.827
		C285.455,70.948,286.911,69.461,288.574,67.855z"/>
</g>
<g id="&#xB808;&#xC774;&#xC5B4;_11">
</g>
<g id="&#xB808;&#xC774;&#xC5B4;_12">
	<path style="fill:none;stroke:#000000;stroke-miterlimit:10;" d="M293.557,53.249c-1.702,0.972-3.273,2.173-4.657,3.561
		c-1.671,1.676-2.723,3.955-3.089,6.293c-0.366,2.338-0.303,4.719-0.239,7.085"/>
</g>
<g id="&#xB808;&#xC774;&#xC5B4;_13">
	<path style="fill:none;stroke:#000000;stroke-miterlimit:10;" d="M284.226,86.877l3.748,9.834c1.06,2.78,1.938,5.633,2.486,8.558
		c0.211,1.127,0.319,2.273,0.12,3.395c-0.334,1.887-1.497,3.523-2.658,5.032c-1.776,2.309-3.767,4.442-5.895,6.431
		c-2.958,2.765-5.701,5.635-8.002,8.971c-0.759,1.1-1.478,2.239-1.989,3.474c-0.896,2.163-1.122,4.532-1.455,6.849
		c-0.941,6.558-2.798,12.952-4.964,19.213c-0.226,0.654-0.459,1.342-0.341,2.023c0.246,1.421,1.805,2.128,3.107,2.749
		c2.546,1.214,4.832,2.969,6.662,5.116c1.213,1.423,2.565,3.183,4.432,3.067c1.216-0.075,2.208-0.96,3.083-1.808
		c4.764-4.622,9.175-9.607,13.182-14.899c1.261-1.665,2.543-3.569,2.343-5.648c0.381-0.646,1.151-0.795,1.867-0.572
		c0.716,0.222,1.297,0.738,1.874,1.216c5.187,4.29,11.896,6.515,16.804,11.122c0.873,0.819,1.682,1.708,2.606,2.469
		c1.056,0.87,2.254,1.562,3.519,2.084c0.199,0.082,0.43,0.158,0.62,0.058c0.161-0.086,0.237-0.273,0.29-0.448
		c0.532-1.735,0.129-3.631,0.519-5.402c0.282-1.279,0.963-2.432,1.671-3.534c1.908-2.97,4.09-5.764,6.508-8.336
		c0.497-0.528,1.034-1.113,1.074-1.837c0.032-0.579-0.476-1.18-0.997-1.204c-0.325-0.015-0.655-0.015-0.948-0.155
		c-4.823-2.305-8.234-7.145-11.582-11.062c-2.196-2.57-4.278-5.239-6.085-8.096c-0.719-1.136-1.547-2.29-1.9-3.612
		c-0.439-1.644-0.106-3.389,0.326-5.035c1.02-3.882,2.601-7.49,3.784-11.326c0.892-2.892,1.783-5.784,2.675-8.677
		c0.953-3.093,1.912-6.21,2.243-9.429c0.534-5.192-0.642-10.542-3.282-15.043c-0.366-0.624-0.628-1.305-0.721-2.022
		c-0.168-1.298-0.537-2.468-0.939-3.788c-1.084-3.555-2.461-7.278-5.423-9.522"/>
</g>
<g id="&#xB808;&#xC774;&#xC5B4;_14">
	<path style="fill:none;stroke:#000000;stroke-miterlimit:10;" d="M323.047,82.455c1.771,0.185,3.261-1.235,4.457-2.554
		c2.122-2.34,4.231-5.254,5.869-7.955c-0.874-0.88-1.534-2.117-1.279-3.331c0.256-1.213,1.758-2.135,2.806-1.471
		c0.589,0.373,1.045,1.172,1.73,1.041c0.261-0.05,0.474-0.236,0.658-0.428c1.877-1.957,2.028-5.067,1.214-7.653
		c-0.278-0.882-0.558-2.058,0.221-2.557c0.218-0.14,0.482-0.188,0.739-0.221c2.476-0.322,5.301,0.64,6.384,2.89
		c0.52,1.081,0.586,2.319,0.598,3.519c0.014,1.495-0.044,3.003-0.392,4.457c-1.17,4.885-5.34,8.379-9.269,11.509
		c-6.288,5.009-10.607,11.813-16.369,17.419"/>
</g>
<g id="&#xB808;&#xC774;&#xC5B4;_15">
	<path style="fill:none;stroke:#000000;stroke-miterlimit:10;" d="M196.276,79.332c1.799,1.885,4.101,3.286,6.603,4.015
		c2.482,0.724,5.206,0.824,7.402,2.189c1.694,1.053,2.873,2.741,4.267,4.168c5.988,6.132,15.906,7.434,21.272,14.117
		c1.247,1.553,2.184,3.33,3.318,4.968c2.173,3.141,5.087,5.765,8.436,7.601c0.157,0.086,0.34,0.227,0.291,0.398
		s-0.381-0.037-0.213-0.096"/>
</g>
<g id="&#xB808;&#xC774;&#xC5B4;_16">
	<path style="fill:none;stroke:#000000;stroke-miterlimit:10;" d="M191.227,92.464c2.736-0.165,5.422,0.754,7.913,1.898
		c2.49,1.144,4.881,2.529,7.482,3.392c2.826,0.939,4.795,1.589,7.71,2.198c2.539,0.53,5.409,0.398,7.394,2.067
		c1.434,1.205,2.063,3.094,2.577,4.894c0.567,1.989,1.305,4.269,3.23,5.026c0.906,0.357,1.914,0.292,2.885,0.366
		c2.876,0.219,5.509,1.681,7.862,3.348s4.55,3.583,7.103,4.925c1.583,0.832,3.288,1.433,5.044,1.776
		c-0.226-0.004-0.451-0.008-0.677-0.012"/>
	<path style="fill:none;stroke:#000000;stroke-miterlimit:10;" d="M348.45,224.212"/>
	<path style="fill:none;stroke:#000000;stroke-miterlimit:10;" d="M354.138,222.162c0.562-0.008,1.135,0.009,1.668,0.188
		c0.452,0.152,0.857,0.414,1.259,0.671c4.289,2.751,8.964,5.327,14.057,5.515c1.413,0.052,2.828-0.082,4.241-0.019
		c1.412,0.064,2.86,0.345,4.028,1.141c0.529,0.361,1,0.837,1.239,1.43c0.195,0.484,0.226,1.018,0.21,1.54
		c-0.042,1.37-0.442,2.801-1.444,3.737c-0.618,0.577-1.418,0.922-2.226,1.172c-1.306,0.403-2.68,0.584-4.046,0.532
		c-5.427-0.205-10.281-3.988-15.712-3.974c-1.478,0.004-2.938,0.293-4.408,0.445c-1.304,0.135-2.653,0.158-3.891-0.27
		c-1.239-0.429-2.358-1.381-2.691-2.649c-0.355-1.353,0.215-2.754,0.724-4.057c0.397-1.017,0.762-2.142,0.635-3.196
		c-0.076-0.633,0.194-1.272,0.778-1.528c0.446-0.196,0.93-0.318,1.418-0.406C351.31,222.196,352.783,222.126,354.138,222.162z"/>
</g>
<g id="&#xB808;&#xC774;&#xC5B4;_17">
	<path style="fill:none;stroke:#000000;stroke-miterlimit:10;" d="M325.665,164.945c1.112,1.746,3.454,2.159,5.127,3.377
		c2.056,1.497,2.954,4.094,3.573,6.561c0.344,1.369,0.638,2.75,0.883,4.14c0.44,2.503,1.111,4.759,1.862,7.187
		c1.864,6.023,5.22,11.55,6.597,17.702c0.461,2.06,0.694,4.163,1.07,6.24c0.784,4.323,2.186,8.505,3.583,12.67"/>
</g>
<g id="&#xB808;&#xC774;&#xC5B4;_18">
	<path style="fill:none;stroke:#000000;stroke-miterlimit:10;" d="M335.342,145.944c1.101,1.374,2.829,2.054,4.255,3.086
		c3.42,2.476,4.971,6.871,8.225,9.562c0.361,0.298,0.666,0.62,0.964,0.98c0.139,0.168,0.252,0.356,0.364,0.544
		c0.546,0.912,1.143,1.798,1.523,2.79c2.984,7.783,1.126,16.986,1.176,25.321c0.013,2.169,0.007,4.339,0.134,6.504
		c0.254,4.336,1.042,8.64,1.043,12.983c0.001,2.648-0.29,5.308,0.042,7.935c0.332,2.627,2.432,3.851,3.432,6.851"/>
</g>
<g id="&#xB808;&#xC774;&#xC5B4;_19">
	<path style="fill:none;stroke:#000000;stroke-miterlimit:10;" d="M213.403,164.842c-1.141-0.688-2.283-1.376-3.424-2.064
		c-0.366-0.221-0.736-0.443-1.139-0.583c-0.891-0.309-1.87-0.192-2.792,0c-0.91,0.19-1.816,0.454-2.618,0.925
		c-0.611,0.359-1.147,0.829-1.68,1.296c-0.88,0.772-1.761,1.545-2.641,2.317c-2.829,2.482-5.765,4.885-8.599,7.362
		c-1.444,1.262-2.933,2.584-3.692,4.345c-0.596,1.383-0.575,3.233,0.628,4.138c1.351,1.016,3.299,0.28,4.679-0.695
		c3.723-2.63,6.331-6.811,10.493-8.668c0.706-0.315,1.476-0.559,2.244-0.463c0.668,0.084,1.276,0.419,1.927,0.591
		s1.44,0.139,1.874-0.376c0.349-0.414,0.361-1.003,0.436-1.538c0.325-2.307,2.284-4.287,4.588-4.636"/>
</g>
<g id="&#xB808;&#xC774;&#xC5B4;_20">
	<path style="fill:none;stroke:#000000;stroke-miterlimit:10;" d="M227.164,165.958c7.443,0.526,14.739,2.567,22.198,2.784
		c3.446,0.1,7.019-0.17,10.219,1.112c0.969,0.388,2.023,0.922,3.002,0.56c0.412-0.153,0.752-0.451,1.069-0.755
		c1.005-0.968,1.877-2.073,2.585-3.275c0.633-1.075,1.242-2.326,2.416-2.751"/>
</g>
<g id="&#xB808;&#xC774;&#xC5B4;_21">
	<path style="fill:none;stroke:#000000;stroke-miterlimit:10;" d="M207.997,173.366c1.032,0.638,2.201,1.052,3.405,1.206"/>
</g>
<g id="&#xB808;&#xC774;&#xC5B4;_22">
	<path style="fill:none;stroke:#000000;stroke-miterlimit:10;" d="M222.089,178.788c2.266,0.537,4.533,1.074,6.799,1.61
		c9.791,2.319,19.686,4.651,29.747,4.696c3.276,0.015,6.712-0.263,9.476-2.021c1.282-0.815,2.356-1.911,3.418-2.997
		c1.03-1.053,2.059-2.106,3.089-3.159c1.576-1.612,3.155-3.227,4.566-4.986"/>
</g>
</svg>
