<?xml version="1.0" encoding="iso-8859-1"?>
<!-- Generator: Adobe Illustrator 24.0.1, SVG Export Plug-In . SVG Version: 6.00 Build 0)  -->
<svg version="1.1" xmlns="http://www.w3.org/2000/svg" xmlns:xlink="http://www.w3.org/1999/xlink" x="0px" y="0px"
	 viewBox="0 0 464 261" style="enable-background:new 0 0 464 261;" xml:space="preserve">
<g id="&#xB808;&#xC774;&#xC5B4;_1" style="display:none;">
	<image style="display:inline;overflow:visible;" width="464" height="261" xlink:href="../28.png" >
	</image>
</g>
<g id="&#xB808;&#xC774;&#xC5B4;_2">
	<g>
		<path d="M167.105,20.405c1.825,0,3.571,1.017,5.502,2.246l2.012,1.28l1.437,0.915c1.501,0.956,2.88,1.927,3.259,3.299
			c0.096,0.347,0.14,0.753,0.188,1.182c0.114,1.032,0.255,2.315,1.293,3.157c0.685,0.556,1.482,0.683,2.186,0.796
			c0.25,0.04,0.487,0.078,0.698,0.132c0.407,0.104,0.702,0.414,0.726,0.486c-0.02,0.044-0.123,0.156-0.19,0.231
			c-0.069,0.076-0.137,0.152-0.202,0.23c-1.201,1.467-0.876,3.472-0.458,5.054l0.054,0.205c0.322,1.214,0.626,2.362,0.498,3.463
			c-0.108,0.932-0.685,1.987-1.581,2.198c-0.125,0.03-0.261,0.045-0.405,0.045c-0.498,0-1.044-0.176-1.463-0.329
			c-0.589-0.215-1.396-0.51-2.198-0.51c-0.677,0-1.255,0.206-1.716,0.613c-0.544,0.48-0.766,1.122-0.929,1.591
			c-0.117,0.337-0.222,0.749-0.345,1.226c-0.499,1.948-0.916,2.971-1.284,3.032c-1.015-0.258-2.91-2.051-4.042-3.123
			c-0.4-0.379-0.76-0.719-1.053-0.975l-0.02-0.017l-0.021-0.016c-1.338-1.051-2.855-2.243-4.671-2.841
			c-0.755-0.249-1.518-0.382-2.256-0.51c-0.848-0.148-1.65-0.287-2.368-0.587c-2.256-0.941-3.608-3.399-4.734-5.916
			c-0.851-1.902-1.724-4.1-1.305-6.12c0.511-2.464,2.744-4.233,5.185-5.976l2.887-2.062c1.809-1.292,3.329-2.289,5.037-2.39
			C166.919,20.408,167.012,20.405,167.105,20.405 M167.105,19.405c-0.113,0-0.226,0.003-0.339,0.01
			c-2.067,0.122-3.874,1.371-5.559,2.574c-0.962,0.687-1.925,1.375-2.887,2.062c-2.401,1.715-4.984,3.698-5.583,6.587
			c-0.473,2.281,0.42,4.605,1.372,6.731c1.16,2.592,2.641,5.337,5.262,6.43c1.488,0.621,3.165,0.62,4.696,1.124
			c1.63,0.537,3.016,1.617,4.366,2.678c1.285,1.124,3.878,3.901,5.507,4.315c0.1,0.025,0.196,0.038,0.289,0.038
			c1.584,0,2.058-3.57,2.531-4.938c0.147-0.425,0.307-0.87,0.645-1.168c0.301-0.265,0.665-0.363,1.055-0.363
			c0.605,0,1.271,0.236,1.855,0.449c0.58,0.212,1.196,0.389,1.806,0.389c0.213,0,0.426-0.022,0.635-0.071
			c1.332-0.315,2.187-1.697,2.344-3.056c0.157-1.359-0.23-2.715-0.579-4.038c-0.369-1.4-0.652-3.046,0.265-4.166
			c0.188-0.229,0.423-0.43,0.539-0.703c0.344-0.809-0.546-1.629-1.398-1.847s-1.819-0.183-2.502-0.736
			c-1.06-0.859-0.783-2.513-1.146-3.828c-0.486-1.761-2.145-2.896-3.686-3.876c-1.15-0.732-2.299-1.463-3.449-2.195
			C171.291,20.627,169.281,19.405,167.105,19.405L167.105,19.405z"/>
	</g>
</g>
<g id="&#xB808;&#xC774;&#xC5B4;_3">
	<path style="fill:none;stroke:#000000;stroke-miterlimit:10;" d="M172.526,46.085c0.656-0.321,1.362-0.539,2.084-0.644
		c0.254-0.037,0.45-0.154,0.704-0.192c0.28-0.041,0.56-0.082,0.84-0.12c1.095-0.152,2.221-0.282,3.296-0.024
		c0.136,0.033,0.267,0.078,0.377,0.164"/>
</g>
<g id="&#xB808;&#xC774;&#xC5B4;_4">
	<path style="fill:none;stroke:#000000;stroke-miterlimit:10;" d="M202.192,88.471c1.207-0.914,2.461-1.764,3.756-2.548
		c0.626-0.379,1.293-0.752,2.024-0.787s1.536,0.378,1.702,1.091c0.117,0.5-0.076,1.096,0.248,1.494
		c0.346,0.425,1.016,0.31,1.531,0.124c1.162-0.42,2.478-1.002,3.56-0.406c1.006,0.554,1.279,1.858,1.378,3.002
		c0.147,1.704,0.146,3.421-0.002,5.124c-0.084,0.969-0.274,2.039-1.044,2.633c-0.404,0.312-0.916,0.445-1.414,0.557
		c-5.341,1.198-10.897,0.756-16.352,0.307c-6.944-0.571-14.112-0.701-21.036-1.476c-1.058-0.118-2.117-0.245-3.181-0.268
		c-1.196-0.025-2.391,0.081-3.588,0.102c-3.237,0.057-6.483-0.524-9.5-1.698c-1.298-0.505-2.58-1.138-3.558-2.129
		c-0.978-0.991-1.618-2.396-1.412-3.773c0.626-4.186-0.469-8.438-0.828-12.656c-0.204-2.395-0.291-5.131,1.414-6.826
		c1.24-1.232,0.497-3.08,0.205-4.804c-0.292-1.724-0.765-3.436-0.723-5.184c0.088-3.708,2.513-7.027,5.495-9.233
		c1.617-1.197,3.614-2.174,5.583-1.759c1.318,0.278,2.426,1.139,3.481,1.975c1.533,1.214,3.082,2.445,4.281,3.989
		c1.2,1.544,2.034,3.458,1.915,5.41c-0.165,2.712-2.073,4.962-3.923,6.953c-0.469,0.504-0.946,1.014-1.27,1.621
		c-0.827,1.548-0.442,3.644,0.881,4.798c3.111,2.714,0.282,8.245,1.233,12.262c0.153,0.644,0.432,1.341,1.038,1.608
		c0.261,0.115,0.552,0.135,0.836,0.153c1.945,0.124,3.911,0.24,5.832-0.089c2.258-0.387,4.43-1.383,6.72-1.337
		c1.955,0.04,3.802,0.836,5.695,1.325C196.014,88.765,199.849,90.245,202.192,88.471z"/>
</g>
<g id="&#xB808;&#xC774;&#xC5B4;_5">
	<path style="fill:none;stroke:#000000;stroke-miterlimit:10;" d="M159.676,43.168c-0.93,2.271-3.128,3.725-5.232,4.988
		c-2.104,1.263-4.346,2.589-5.481,4.764c-1.003,1.921-0.974,4.195-0.921,6.361c0.089,3.659-0.481,7.231-0.717,10.883
		c-0.452,6.984,1.451,13.852,1.107,20.842c-0.056,1.139-0.145,2.279-0.337,3.403c-0.192,1.126-0.487,2.233-0.676,3.36
		c-0.545,3.249-0.217,6.673-1.376,9.756c-0.768,2.043-2.769,3.406-3.752,5.355c-0.462,0.917-0.778,1.899-1.092,2.876
		c-1.316,4.097-2.64,8.234-3.045,12.518c-0.135,1.43-0.177,2.913-0.792,4.212c-0.332,0.701-0.817,1.318-1.204,1.99
		c-0.681,1.184-1.125,2.538-1.413,3.873c-0.263,1.215-0.347,2.464-0.612,3.679c-0.214,0.981-0.543,1.931-0.825,2.895
		c-1.065,3.64-1.45,7.439-1.829,11.213c-0.119,1.188-0.239,2.381-0.177,3.573c0.029,0.567,0.107,1.154,0.413,1.633
		c0.337,0.526,0.905,0.852,1.455,1.15c3.65,1.975,7.484,3.61,11.436,4.876c0.558,0.179,1.128,0.352,1.713,0.359
		c1.544,0.02,2.847-1.079,3.991-2.115c1.567-1.418,3.135-2.836,4.702-4.254c0.318-0.288,0.639-0.579,0.892-0.926
		c0.365-0.502,0.571-1.099,0.773-1.686c1.139-3.319,2.278-6.638,3.417-9.957c0.087-0.254,0.203-0.539,0.455-0.632
		c0.237-0.088,0.498,0.033,0.71,0.17c0.632,0.408,1.146,0.996,1.466,1.676c0.759,1.613,1.724,2.971,3.149,4.042
		c4.089,3.071,8.474,5.943,13.433,7.19c0.984,0.247,2.056,0.422,2.988,0.023c0.558-0.239,1.012-0.663,1.454-1.078
		c1.767-1.66,3.563-3.358,4.731-5.482c0.498-0.905,0.883-1.889,1.56-2.669c0.639-0.737,1.516-1.264,2.048-2.082
		c0.65-1,0.682-2.303,0.36-3.451c-0.322-1.148-0.959-2.178-1.589-3.191c-0.813-1.307-1.526-2.566-2.447-3.799
		c-1.89-2.531-3.17-5.465-4.959-8.068c-1.194-1.737-2.607-3.316-3.809-5.048c-1.202-1.732-2.205-3.671-2.429-5.767
		c-0.19-1.784-0.167-3.685-0.227-5.478c-0.11-3.301-0.213-6.658,0.639-9.848c0.703-2.632,2.031-5.051,3.424-7.392"/>
</g>
<g id="&#xB808;&#xC774;&#xC5B4;_6">
	<path style="fill:none;stroke:#000000;stroke-miterlimit:10;" d="M174.266,51.549c0.195,1.358,1.575,2.154,2.507,3.162
		c0.729,0.788,1.212,1.768,1.67,2.738c1.669,3.534,3.161,7.192,3.845,11.041c0.638,3.595,0.557,7.275,0.474,10.925
		c-0.061,2.672-0.122,5.343-0.182,8.015"/>
</g>
<g id="&#xB808;&#xC774;&#xC5B4;_7">
	<path style="fill:none;stroke:#000000;stroke-miterlimit:10;" d="M178.915,57.754c2.263,1.836,3.458,4.666,4.339,7.444
		c0.88,2.778,1.556,5.676,3.113,8.14c1.87,2.958,4.836,5.019,7.722,6.997c3.266,2.24,6.533,4.479,9.799,6.719
		c0.079,0.054,0.168,0.131,0.15,0.225s-0.209,0.066-0.162-0.017"/>
</g>
<g id="&#xB808;&#xC774;&#xC5B4;_8">
	<path style="fill:none;stroke:#000000;stroke-miterlimit:10;" d="M80.365,143.106c-1.119,0.277-2.108,0.926-3.187,1.331
		c-2.06,0.773-4.337,0.624-6.505,0.995c-3.642,0.623-6.853,2.682-9.952,4.694c-1.454,0.944-2.908,1.89-4.292,2.934
		c-1.071,0.809-2.21,1.992-1.87,3.29c0.37,1.41,2.15,1.805,3.601,1.937c1.1,0.101,2.2,0.201,3.301,0.302
		c0.634,0.058,1.285,0.115,1.897-0.058c0.702-0.198,1.286-0.676,1.942-0.994c2.761-1.335,6.281,0.351,9.04-0.99
		c1.301-0.632,2.207-1.837,3.24-2.849c1.371-1.343,2.972-2.278,4.736-3.004c1.332-0.548,3.086-1.007,3.669-2.502
		C87.241,144.981,83.115,142.424,80.365,143.106z"/>
</g>
<g id="&#xB808;&#xC774;&#xC5B4;_9">
	<path style="fill:none;stroke:#000000;stroke-miterlimit:10;" d="M133.04,162.313c-1.205,1.55-2.615,3.223-4.564,3.467
		c-1.254,0.157-2.496-0.323-3.632-0.878c-3.523-1.722-6.774-4.296-10.663-4.791c-4.642-0.591-9.184-2.929-13.632-4.38
		c-5.211-1.7-10.734-3.611-14.126-7.917"/>
</g>
<g id="&#xB808;&#xC774;&#xC5B4;_10">
	<path style="fill:none;stroke:#000000;stroke-miterlimit:10;" d="M75.352,155.739c1.96-0.261,3.82,0.821,5.501,1.861
		c8.133,5.034,16.285,10.081,23.808,15.987c1.45,1.138,2.879,2.311,4.437,3.297c4.267,2.701,9.314,3.897,13.766,6.28
		c2.893,1.548,5.783,3.662,9.058,3.464c3.273-0.198,5.904-2.654,8.229-4.967c1.922-1.912,3.897-3.705,5.834-5.601
		c0.53-0.518,1.07-1.052,1.386-1.722c0.273-0.58,0.36-1.227,0.435-1.863c0.205-1.734,0.348-3.476,0.426-5.22"/>
</g>
<g id="&#xB808;&#xC774;&#xC5B4;_11">
	<path style="fill:none;stroke:#000000;stroke-miterlimit:10;" d="M214.655,232.358c0.434,0.945,1.115,1.761,1.895,2.449
		c2.135,1.882,4.983,2.799,7.815,3.074c2.833,0.275,5.686-0.042,8.514-0.36c1.509-0.169,3.018-0.339,4.527-0.508
		c3.748-0.42,7.757-0.953,10.569-3.466c0.751-0.671,1.421-1.549,1.441-2.555c0.023-1.164-0.86-2.192-1.909-2.699
		c-1.049-0.506-2.243-0.595-3.404-0.676c-4.518-0.314-9.037-0.628-13.555-0.943c-1.902-0.132-3.973-0.336-5.347-1.657
		c-0.257-0.247-0.484-0.53-0.781-0.728c-0.706-0.472-1.661-0.367-2.444-0.039c-0.783,0.329-1.47,0.853-2.239,1.212
		c-1.137,0.532-2.388,0.664-3.629,0.637c-0.778-0.017-2.292-0.563-2.824,0.216C212.648,227.246,214.191,231.35,214.655,232.358z"/>
</g>
<g id="&#xB808;&#xC774;&#xC5B4;_12">
	<path style="fill:none;stroke:#000000;stroke-miterlimit:10;" d="M181.77,161.483c1.839,0.974,2.884,2.951,4.374,4.405
		c1.535,1.498,3.659,2.578,4.401,4.59c0.32,0.869,0.337,1.816,0.349,2.742c0.023,1.743,0.047,3.485,0.07,5.228
		c0.035,2.626,0.163,5.233,1.253,7.623c1.09,2.389,2.423,4.706,2.987,7.271c0.271,1.231,0.36,2.506,0.767,3.699
		c0.526,1.542,1.548,2.856,2.553,4.138c1.409,1.798,2.818,3.595,4.227,5.393c2.677,3.415,5.399,6.912,6.825,11.011
		c0.641,1.842,0.843,3.49,1.29,5.389c0.125,0.532,0.251,1.066,0.439,1.58c0.375,1.026,0.992,1.951,1.718,2.766"/>
</g>
<g id="&#xB808;&#xC774;&#xC5B4;_13">
	<path style="fill:none;stroke:#000000;stroke-miterlimit:10;" d="M193.051,148.51c1.076,2.514,2.564,4.85,4.388,6.887
		c0.981,1.095,2.058,2.106,2.967,3.262c5.225,6.644,3.896,16.496,8.149,23.801c1.758,3.018,2.627,6.418,4.014,9.623
		c1.818,4.202,3.656,8.47,4.265,13.007c0.395,2.94,0.27,5.966,1.089,8.817c0.99,3.444,3.271,6.345,5.5,9.15
		c-0.307,0.082-0.613,0.165-0.92,0.247"/>
</g>
<g id="&#xB808;&#xC774;&#xC5B4;_14">
	<path style="fill:none;stroke:#000000;stroke-miterlimit:10;" d="M320.491,52.579c-0.598-0.117-1.194-0.273-1.739-0.545
		c-0.663-0.332-1.229-0.825-1.796-1.303c-3.17-2.673-6.77-5.095-10.871-5.705c-1.237-0.184-2.516-0.203-3.686-0.644
		c-1.17-0.441-1.9-1.882-2.279-2.7c-1.718-2.019-2.389-4.963-1.996-7.585c0.058-0.388,0.142-0.777,0.304-1.134
		c0.157-0.346,0.384-0.656,0.591-0.975c0.465-0.716,0.836-1.493,1.102-2.304c0.322-0.983,0.493-2.024,0.978-2.938
		c0.523-0.986,1.376-1.754,2.008-2.674c0.629-0.914,1.07-2.012,1.984-2.641c0.777-0.535,1.764-0.635,2.704-0.7
		c2.739-0.19,5.56-0.212,8.148,0.704c4.148,1.468,7.142,5.156,9.13,9.081c0.51,1.007,1.049,2.121,2.078,2.582
		c0.379,0.17,0.802,0.237,1.161,0.446c0.749,0.437,1.033,1.516,0.596,2.265c-0.174,0.299-0.436,0.535-0.644,0.81
		c-0.954,1.265-0.612,3.041-0.277,4.589c0.335,1.549,0.54,3.387-0.574,4.513c-1.108,1.12-2.944,0.943-4.477,0.579
		c-0.38-0.09-0.814-0.178-1.133,0.048c-0.492,0.348-0.31,1.084-0.429,1.69c-0.039,0.2-0.013,0.405,0.029,0.604
		c0.198,0.957,0.23,1.943,0.197,2.923c-0.008,0.248-0.029,0.508-0.165,0.715C321.3,52.488,320.735,52.627,320.491,52.579z"/>
	<path style="fill:none;stroke:#000000;stroke-miterlimit:10;" d="M255.637,127.976c-1.478-0.502-2.936-1.066-4.368-1.689
		c-1.283-0.558-2.61-1.219-3.371-2.392c-0.402-0.619-0.614-1.334-0.753-2.065c-0.324-1.709-0.411-3.452-0.428-5.191
		c-0.018-1.784,0.187-3.968,1.711-4.997c0.724-0.489,1.622-0.621,2.468-0.838c2.232-0.573,4.283-1.836,5.799-3.571
		c1.669-1.91,3.517-3.698,5.106-5.675c0.538-0.669,1.075-1.4,1.177-2.253c0.109-0.907-0.286-1.879,0.086-2.713
		c0.271-0.608,0.881-0.978,1.43-1.354c1.198-0.822,2.257-1.846,3.118-3.017c3.682-5.01,6.263-10.707,9.238-16.165
		c0.854-1.567,1.743-3.198,3.198-4.231c1.838-1.305,4.415-1.533,5.854-3.269c3.859-1.293,6.891-4.289,9.744-7.191
		s5.332-6.149,8.097-9.136c0.418-0.452,0.86-0.91,1.427-1.15c0.633-0.268,1.347-0.234,2.033-0.184
		c2.844,0.207,5.675,0.609,8.464,1.201c1.018,0.216,2.065,0.473,2.892,1.105c1.663,1.269,1.966,3.635,1.916,5.726
		c-0.091,3.807-0.904,7.595-2.384,11.104c-0.465,1.103-1.022,2.213-1.937,2.985c-0.756,0.638-1.708,1.002-2.616,1.37
		c-2.234,0.908-4.567,1.522-6.917,2.065c-2.545,0.588-5.172,2.262-7.688,2.907c-2.534,0.649-5.157,0.999-7.591,1.958
		c-2.162,0.851-4.264,2.385-5.087,4.491c-0.308,0.788-0.696,1.547-1.258,2.179c-4.837,5.442-9.608,10.85-14.455,16.297
		c-1.334,1.499-2.682,3.019-3.601,4.802c-1.979,3.841-1.755,8.44-3.14,12.533c-0.358,1.056-1.335,2.286-2.33,1.782
		c-1.491-0.755,0.06-3.846-1.506-4.431c-0.817-0.305-1.599,0.514-2.022,1.276c-1.192,2.15-1.738,4.653-1.54,7.104
		C256.444,127.856,256.117,128.139,255.637,127.976z"/>
</g>
<g id="&#xB808;&#xC774;&#xC5B4;_15">
	<path style="fill:none;stroke:#000000;stroke-miterlimit:10;" d="M317.008,46.556c0.586-0.381,1.292-0.576,1.99-0.55
		c1.408,0.052,2.799,0.025,4.178,0.318"/>
</g>
<g id="&#xB808;&#xC774;&#xC5B4;_16">
</g>
<g id="&#xB808;&#xC774;&#xC5B4;_17">
	<path style="fill:none;stroke:#000000;stroke-miterlimit:10;" d="M301.221,43.376c-0.073,0.922-0.153,1.871-0.57,2.696
		c-0.338,0.667-0.877,1.212-1.459,1.682c-2.013,1.626-4.707,2.589-5.962,4.851c-2.154,3.88-2.681,8.728-2.621,13.165"/>
</g>
<g id="&#xB808;&#xC774;&#xC5B4;_18">
	<path style="fill:none;stroke:#000000;stroke-miterlimit:10;" d="M290.112,81.743c0.938,1.157,1.488,2.573,2.023,3.962
		c0.369,0.957,0.737,1.914,1.106,2.871c0.23,0.596,0.46,1.195,0.612,1.816c0.488,1.995,0.054,4.086,0.202,6.135
		c0.263,3.659-2.563,6.732-4.881,9.576c-2.317,2.844-4.774,6.062-4.553,9.724c0.235,3.896-1.499,7.732-3.384,11.15
		c-0.552,1.002-1.202,1.955-1.631,3.016c-0.598,1.476-0.741,3.089-1.006,4.659c-0.351,2.083-0.926,4.129-1.711,6.09
		c-1.909,4.768-3.036,9.889-3.518,15.002c-0.064,0.676-0.114,1.367,0.053,2.025c0.324,1.275,1.405,2.213,2.528,2.898
		c4.068,2.482,9.272,2.734,13.115,5.553c0.877,0.644,1.887,1.46,2.922,1.123c0.561-0.182,0.958-0.669,1.323-1.132
		c4.129-5.242,8.3-10.552,11.038-16.638c0.11-0.243,0.229-0.502,0.455-0.643c0.388-0.242,0.891-0.035,1.291,0.187
		c6.478,3.605,10.428,10.733,16.938,14.28c0.952,0.518,2.467,1.103,3.382,0.924c0.203-0.04,0.431,0.096,0.601-0.023
		c0.154-0.107,0.201-0.31,0.228-0.495c0.201-1.373-0.075-2.819,0.376-4.131c0.352-1.024,1.111-1.854,1.917-2.578
		c1.612-1.448,3.479-2.592,5.078-4.055c1.599-1.463,2.961-3.366,3.111-5.527c0.171-2.468-1.316-4.838-3.334-6.268
		c-3.899-2.763-5.065-8.511-8.515-11.818c-1.425-1.366-3.004-2.593-4.206-4.158c-2.175-2.832-2.921-6.708-1.953-10.145
		c0.687-2.44,0.157-5.113,0.808-7.563c0.445-1.674,1.067-3.296,1.516-4.968c0.525-1.959,0.807-3.973,1.088-5.981
		c0.977-6.984,1.956-14.004,1.82-21.055c-0.014-0.744,0.013-1.351,0.037-2.095c0.03-0.902,0.06-1.807-0.048-2.703
		c-0.393-3.27-1.375-15.691-3.438-18.258"/>
</g>
<g id="&#xB808;&#xC774;&#xC5B4;_19">
	<path style="fill:none;stroke:#000000;stroke-miterlimit:10;" d="M199.208,156.501c1.167-3.035,4.265-4.919,7.386-5.831
		c3.121-0.912,6.417-1.079,9.559-1.918c3.68-0.983,7.248-2.897,11.046-2.612c0.287,0.022,0.587,0.061,0.821,0.227
		c0.301,0.213,0.436,0.597,0.473,0.964c0.212,2.078-1.959,3.515-3.83,4.444c-7.522,3.732-15.508,7.562-23.884,6.954"/>
</g>
<g id="&#xB808;&#xC774;&#xC5B4;_20">
	<path style="fill:none;stroke:#000000;stroke-miterlimit:10;" d="M273.885,158.908c-0.321,1.616-0.398,3.281-0.23,4.92
		c0.094,0.914,0.254,1.89-0.162,2.709c0.096,0.874-1.014,1.03-1.871,0.834c-5.954-1.364-11.978-2.752-17.421-5.523
		c-2.686-1.368-5.241-3.075-8.145-3.881c-1.599-0.443-3.262-0.601-4.883-0.958c-5.028-1.11-9.412-4.084-13.658-6.996"/>
</g>
<g id="&#xB808;&#xC774;&#xC5B4;_21">
	<path style="fill:none;stroke:#000000;stroke-miterlimit:10;" d="M217.724,155.099c1.993,0.885,3.986,1.769,5.979,2.654
		c3.508,1.557,7.059,3.14,10.062,5.531c1.318,1.05,2.516,2.246,3.845,3.284c1.802,1.408,3.82,2.507,5.829,3.6
		c3.284,1.787,6.568,3.574,9.852,5.362c2.362,1.285,4.73,2.574,7.221,3.584c1.845,0.748,3.765,1.348,5.48,2.36
		c2.841,1.678,5.469,4.563,8.739,4.118c1.705-0.232,3.132-1.362,4.465-2.449c2.587-2.11,5.192-4.237,7.333-6.798
		c2.142-2.561,3.817-5.613,4.237-8.925"/>
</g>
<g id="&#xB808;&#xC774;&#xC5B4;_22">
	<path style="fill:none;stroke:#000000;stroke-miterlimit:10;" d="M356.847,227.514c0.891,2.315,2.31,4.547,4.477,5.755
		c3.38,1.884,7.555,0.851,11.42,1.056c2.909,0.155,5.73,1.04,8.622,1.386c2.892,0.345,6.065,0.061,8.301-1.805
		c0.791-0.66,1.432-1.497,1.863-2.432c0.466-1.01,0.68-2.193,0.301-3.239c-0.405-1.116-1.433-1.916-2.546-2.331
		c-1.112-0.415-2.316-0.501-3.501-0.583c-2.164-0.149-4.329-0.299-6.493-0.448c-1.513-0.104-3.029-0.209-4.544-0.145
		c-1.377,0.058-2.744,0.255-4.115,0.391c-3.253,0.323-6.913,0.544-10.136-0.145C358.383,224.522,355.474,223.945,356.847,227.514z"
		/>
	<path style="fill:none;stroke:#000000;stroke-miterlimit:10;" d="M321.5,162.5c2,2,8.248,3.489,9.916,4.147
		c0.25,0.099,0.509,0.203,0.69,0.401c0.365,0.398,0.295,1.012,0.249,1.551c-0.251,2.911,0.851,5.746,1.855,8.489
		c2.226,6.083,4.059,12.31,5.484,18.629c2.468,2.585,4.707,5.405,6.627,8.419c0.647,1.015,1.263,2.057,1.717,3.172
		c0.513,1.258,0.812,2.593,1.299,3.862c0.553,1.44,1.34,2.778,2.165,4.081c1.946,3.077,3.616,6.495,5.997,9.249"/>
</g>
<g id="&#xB808;&#xC774;&#xC5B4;_23">
	<path style="fill:none;stroke:#000000;stroke-miterlimit:10;" d="M337.626,149.338c2.207,2.464,3.905,5.333,5.588,8.181
		c0.88,1.49,1.764,2.987,2.416,4.59c0.803,1.975,1.24,4.077,1.903,6.103c1.961,5.991,5.909,11.359,6.708,17.612
		c0.612,4.789,2.57,9.132,4.099,13.711c0.435,1.303,0.87,2.605,1.305,3.908c1.276,3.821,2.555,7.649,4.174,11.339
		c0.607,1.384,1.261,2.746,1.915,4.108c0.921,1.919,1.845,4.692,2.766,6.611"/>
</g>
<g id="&#xB808;&#xC774;&#xC5B4;_24">
	<path style="fill:none;stroke:#000000;stroke-miterlimit:10;" d="M324.748,84.499c5.779,2.262,12.03,3.309,18.23,3.054
		c0.797-0.033,1.639-0.102,2.291-0.562c0.638-0.449,0.99-1.2,1.546-1.748c0.556-0.548,1.563-0.831,2.068-0.237
		c0.404,0.476,0.241,1.222,0.534,1.773c0.205,0.386,0.614,0.629,1.038,0.736c1.379,0.349,2.722-0.546,3.97-1.229
		c1.248-0.683,2.979-1.114,3.953-0.077c0.449,0.477,0.606,1.156,0.687,1.806c0.244,1.94-0.073,4.036-1.304,5.555
		c-1.627,2.009-4.426,2.584-7.004,2.774c-5.871,0.433-11.775-0.443-17.652-0.085c-3.265,0.199-6.635,0.766-9.743-0.256"/>
</g>
</svg>
