<?xml version="1.0" encoding="iso-8859-1"?>
<!-- Generator: Adobe Illustrator 24.0.1, SVG Export Plug-In . SVG Version: 6.00 Build 0)  -->
<svg version="1.1" xmlns="http://www.w3.org/2000/svg" xmlns:xlink="http://www.w3.org/1999/xlink" x="0px" y="0px"
	 viewBox="0 0 464 261" style="enable-background:new 0 0 464 261;" xml:space="preserve">
<g id="&#xB808;&#xC774;&#xC5B4;_1" style="display:none;">
	<image style="display:inline;overflow:visible;" width="464" height="261" xlink:href="../29.png" >
	</image>
</g>
<g id="&#xB808;&#xC774;&#xC5B4;_2">
	<path style="fill:none;stroke:#000000;stroke-miterlimit:10;" d="M177.647,51.193c-0.335,0.49-0.461,1.074-0.581,1.655
		c-0.207,1-1.521,1.824-2.636,1.582c-1.42-0.308-2.393-1.572-3.277-2.724c-2.604-3.397-6.192-6.843-10.453-6.438
		c-0.628,0.06-1.277,0.203-1.877,0.007c-0.982-0.321-1.472-1.434-1.6-2.46c-0.128-1.026-0.018-2.091-0.339-3.073
		c-0.334-1.021-1.097-1.838-1.606-2.784c-1.165-2.167-0.902-4.837-0.153-7.181c0.961-3.007,2.725-5.824,5.302-7.648
		c2.855-2.021,7.36-3.551,10.619-2.279c3.258,1.272,5.821,3.826,8.282,6.312l5.634,5.69c0.62,0.626,0.719,1.651,0.132,2.307
		c-0.715,0.799-1.056,2.028-1.018,3.14c0.057,1.668,0.684,3.282,0.701,4.951s-0.89,3.578-2.543,3.806
		c-0.92,0.127-2.025-0.247-2.679,0.412c-0.355,0.358-0.425,0.9-0.53,1.394C178.798,48.922,178.32,50.209,177.647,51.193z"/>
</g>
<g id="&#xB808;&#xC774;&#xC5B4;_3">
	<path style="fill:none;stroke:#000000;stroke-miterlimit:10;" d="M175.246,45.603c1.322-0.317,2.716-0.33,4.044-0.04
		c0.474,0.104,0.886,0.402,1.371,0.417c0.114,0.003,0.224,0.028,0.336,0.047c0.08,0.014,0.158,0.04,0.239,0.045"/>
</g>
<g id="&#xB808;&#xC774;&#xC5B4;_4">
	<path style="fill:none;stroke:#000000;stroke-miterlimit:10;" d="M155.536,64.325c-0.235,4.194,1.472,8.368,0.912,12.531
		c-0.158,1.177-0.496,2.332-0.538,3.519c-0.055,1.546,0.395,3.061,0.593,4.595c0.262,2.031,0.082,4.097,0.296,6.134
		c0.109,1.031,0.335,2.089,0.956,2.918c0.862,1.152,2.32,1.665,3.706,2.052c3.701,1.034,7.529,1.614,11.37,1.724
		c4.3,0.122,8.695,0.102,12.995,0.232c3.91,0.118,7.823,0.237,11.72,0.583c5.958,0.529,12.138,1.564,17.79-0.395
		c0.784-0.272,1.602-0.644,2.019-1.362c0.317-0.545,0.35-1.203,0.375-1.833c0.072-1.778,0.041-3.811-1.292-4.99
		c-1.294-1.144-3.255-0.979-4.884-1.556c-0.284-0.101-0.568-0.23-0.773-0.451c-0.568-0.613-0.377-1.734-1.053-2.226
		c-0.528-0.384-1.297-0.134-1.788,0.297c-0.491,0.431-0.832,1.015-1.336,1.431c-0.675,0.556-1.571,0.753-2.437,0.873
		c-6.479,0.902-12.974-1.505-19.515-1.44c-3.527,0.035-7.012,0.789-10.537,0.928c-0.362,0.014-0.749,0.016-1.056-0.178
		c-0.563-0.357-0.58-1.157-0.533-1.822c0.194-2.741,0.388-5.483,0.582-8.224c0.086-1.213,0.164-2.479-0.308-3.601
		c-0.355-0.843-0.996-1.54-1.364-2.378s-0.364-1.975,0.382-2.504c0.943-0.67,1.804-1.277,2.439-2.244
		c0.635-0.967,1.094-2.039,1.704-3.021c0.377-0.607,0.814-1.183,1.085-1.843c0.65-1.584,0.237-3.452-0.694-4.889
		s-2.317-2.513-3.727-3.484c-0.779-0.537-1.584-1.058-2.219-1.759c-0.69-0.763-1.178-1.736-2.044-2.29
		c-1.4-0.897-3.267-0.388-4.738,0.388c-4.886,2.577-8.142,7.983-8.138,13.506C155.569,63.672,155.459,64.197,155.536,64.325z"/>
</g>
<g id="&#xB808;&#xC774;&#xC5B4;_5">
	<path style="fill:none;stroke:#000000;stroke-miterlimit:10;" d="M158.847,45.409c-1.778,1.927-3.556,3.854-5.334,5.782
		c-0.923,1.001-1.856,2.015-2.507,3.211c-0.651,1.196-1.001,2.612-0.676,3.934c1.146,4.664-3.134,9.009-3.987,13.736
		c-0.658,3.651,0.652,7.373,1.077,11.059c0.124,1.074,0.248,2.149,0.372,3.223c0.572,4.961,1.145,9.951,0.855,14.936
		c-0.115,1.978-0.378,3.989-1.234,5.776c-1.591,3.32-3.893,6.275-5.993,9.299c-0.841,1.211-1.708,2.412-2.395,3.717
		c-1.339,2.544-1.953,5.395-2.552,8.207c-0.954,4.476-1.616,8.649-2.368,13.163c-0.895,5.368-1.813,10.814-4.124,15.741
		c-0.167,0.355-0.344,0.722-0.348,1.114c-0.01,0.893,0.836,1.527,1.592,2.004c2.182,1.377,4.363,2.753,6.545,4.13
		c1.977,1.248,3.971,2.504,6.157,3.333c0.672,0.255,1.389,0.471,2.1,0.363c0.668-0.102,1.257-0.479,1.824-0.847
		c2.832-1.842,5.725-3.74,7.748-6.446c2.065-2.762,3.065-6.155,3.998-9.475c0.229-0.814,0.719-1.817,1.558-1.714
		c0.349,0.043,0.637,0.284,0.903,0.514c1.154,1.001,2.308,2.002,3.462,3.002c3.935,3.413,8.727,5.043,12.703,8.408
		c1.005,0.85,2.175,1.795,3.475,1.586c0.967-0.156,1.713-0.924,2.3-1.708c2.462-3.29,3.593-7.717,6.996-10.021
		c1.377-0.932,3.191-1.619,3.648-3.217c0.444-1.553-0.665-3.083-1.705-4.32c-4.852-5.772-9.551-11.893-14.284-17.762
		c-0.466-0.577-0.941-1.172-1.17-1.878c-0.266-0.819-0.176-1.707-0.064-2.561c0.412-3.139,1.077-6.245,1.986-9.277
		c0.575-1.919-0.215-4.053,0.497-5.926c1.016-2.671,2.908-5.218,2.591-8.059"/>
</g>
<g id="&#xB808;&#xC774;&#xC5B4;_6">
	<path style="fill:none;stroke:#000000;stroke-miterlimit:10;" d="M183.929,86.89c0.792-4.554,0.137-9.22-0.518-13.796
		c-0.284-1.982-0.572-3.981-1.252-5.865c-0.991-2.744-2.77-5.122-4.523-7.454"/>
</g>
<g id="&#xB808;&#xC774;&#xC5B4;_7">
	<path style="fill:none;stroke:#000000;stroke-miterlimit:10;" d="M70.851,155.734c-3.49-0.157-7.212-0.258-10.207,1.542
		c-1.134,0.682-2.164,1.635-3.465,1.88c-0.52,0.098-1.054,0.075-1.582,0.039c-1.239-0.084-2.623-0.321-3.347-1.331
		c-0.655-0.914-0.526-2.229,0.082-3.176s1.606-1.576,2.637-2.024c0.939-0.408,1.932-0.692,2.945-0.843
		c1.65-0.244,3.329-0.133,4.995-0.212c1.666-0.079,3.385-0.372,4.758-1.319c0.452-0.312,0.857-0.688,1.305-1.005
		c1.031-0.73,2.256-1.124,3.389-1.683c1.485-0.732,2.812-1.745,4.257-2.553c1.445-0.807,3.084-1.416,4.728-1.223
		c1.644,0.193,3.254,1.378,3.501,3.015c0.156,1.032-0.238,2.087-0.852,2.932c-0.613,0.845-1.432,1.515-2.241,2.175
		c-0.857,0.699-1.715,1.398-2.572,2.097c-0.689,0.562-1.583,1.632-2.434,1.908c-0.745,0.241-1.879-0.039-2.653-0.073
		C73.019,155.831,71.931,155.734,70.851,155.734z"/>
</g>
<g id="&#xB808;&#xC774;&#xC5B4;_8">
	<path style="fill:none;stroke:#000000;stroke-miterlimit:10;" d="M132.582,161.166c-0.091,0.949-0.301,1.886-0.624,2.782
		c-0.183,0.508-0.411,1.017-0.8,1.391c-0.636,0.611-1.608,0.755-2.477,0.602s-1.667-0.561-2.466-0.935
		c-2.902-1.362-5.983-2.344-9.139-2.91c-2.4-0.431-4.573-0.946-6.902-1.67c-2.207-0.686-4.324-1.645-6.543-2.29
		c-1.124-0.327-2.271-0.573-3.386-0.929c-2.427-0.776-4.683-2.08-6.566-3.796c-1.259-1.147-2.886-1.877-4.137-3.032
		c-1.251-1.155-2.709-2.251-4.407-2.384"/>
</g>
<g id="&#xB808;&#xC774;&#xC5B4;_9">
	<path style="fill:none;stroke:#000000;stroke-miterlimit:10;" d="M77.009,156.089c1.156,0.401,2.314,0.802,3.5,1.103
		c3.246,0.824,6.805,0.945,9.558,2.85c1.507,1.043,2.631,2.534,3.868,3.886c2.671,2.919,5.968,5.262,9.603,6.825
		c1.344,0.578,2.286,1.65,3.519,2.438c2.336,1.493,4.672,2.986,7.009,4.478c0.968,0.618,1.935,1.237,2.918,1.83
		c0.973,0.588,1.963,1.151,2.903,1.791c1.489,1.014,2.844,2.213,4.106,3.498c0.53,0.539,1.056,1.103,1.719,1.465
		c0.584,0.319,1.248,0.466,1.909,0.547c1.214,0.151,2.471,0.091,3.624-0.32c1.153-0.411,2.195-1.195,2.787-2.266
		c2.446-4.428,7.484-6.894,10.619-10.863c0.513-0.65,1.03-1.309,1.367-2.066c0.471-1.059,0.565-2.251,0.992-3.329"/>
</g>
<g id="&#xB808;&#xC774;&#xC5B4;_10">
	<path style="fill:none;stroke:#000000;stroke-miterlimit:10;" d="M181.09,163.436c1.516,1.627,3.586,2.633,5.691,3.351
		c1.189,0.406,2.47,0.771,3.312,1.704c1.293,1.432,1.086,3.624,0.8,5.533c-0.438,2.926,0.392,5.788,0.838,8.713
		c0.445,2.925,1.542,5.876,3.743,7.853c2.075,1.863,3.551,4.159,4.805,6.65c0.553,1.099,0.766,2.331,1.104,3.513
		c1.152,4.037,3.784,7.592,4.503,11.728c0.291,1.676,1.191,2.737,1.991,4.237c0.883,1.657,2.357,2.903,3.641,4.273
		c1.284,1.37,2.452,3.04,2.462,4.918"/>
</g>
<g id="&#xB808;&#xC774;&#xC5B4;_11">
	<path style="fill:none;stroke:#000000;stroke-miterlimit:10;" d="M215.004,225.959c-0.312,0.018-0.657,0.051-0.866,0.282
		c-0.269,0.298-0.18,0.762-0.074,1.149c0.562,2.052,1.123,4.104,1.685,6.156c0.196,0.718,0.412,1.469,0.936,1.997
		c0.424,0.428,1.005,0.659,1.578,0.843c5.464,1.757,11.36,0.206,17.09-0.124c4.471-0.258,9.455,0.08,12.857-2.833
		c1.379-1.18,2.303-3.424,1.053-4.739c-0.306-0.322-0.705-0.539-1.105-0.73c-6.433-3.081-14.333-0.888-20.982-3.47
		c-0.748-0.29-1.523-0.647-2.317-0.536c-0.572,0.08-1.079,0.393-1.599,0.643C220.918,225.72,217.574,225.814,215.004,225.959z"/>
</g>
<g id="&#xB808;&#xC774;&#xC5B4;_12">
	<path style="fill:none;stroke:#000000;stroke-miterlimit:10;" d="M194.613,148.683c0.442,3.814,3.748,6.547,5.78,9.804
		c1.633,2.617,2.529,5.747,4.729,7.909c0.587,0.576,1.266,1.084,1.677,1.796c0.382,0.661,0.497,1.438,0.594,2.195
		c0.365,2.863,0.559,5.748,0.582,8.635c0.076,9.487,6.241,17.738,7.981,27.065c0.971,5.207,2.83,9.937,5.726,14.373
		c0.854,1.308,1.942,2.519,3.354,3.188"/>
</g>
<g id="&#xB808;&#xC774;&#xC5B4;_13">
	<path style="fill:none;stroke:#000000;stroke-miterlimit:10;" d="M316.402,40.039c0.258,0.484-0.19,1.102-0.724,1.227
		c-0.534,0.125-1.085-0.081-1.594-0.285c-3.096-1.234-6.192-2.468-9.288-3.702c-1.09-0.434-2.206-0.885-3.069-1.68
		c-1.134-1.045-1.716-2.581-2.842-3.634c-1.522-1.423-3.886-1.825-5.123-3.502c-0.842-1.14-0.98-2.64-1.024-4.057
		c-0.064-2.08,0.033-4.251,1.017-6.085c2.058-3.835,7.024-4.797,11.343-5.336c1.854-0.231,3.837,0.116,5.703,0.226
		c0.786,0.046,1.575,0.093,2.343,0.268c1.603,0.365,3.029,1.27,4.34,2.262c1.84,1.392,3.293,3.288,4.283,5.372
		c0.383,0.805,0.701,1.647,1.188,2.394c1.049,1.609,2.765,2.628,4.325,3.749c0.479,0.344,1.004,0.912,0.738,1.439
		c-0.285,0.564-1.12,0.414-1.717,0.622c-0.572,0.199-0.945,0.774-1.078,1.365s-0.07,1.205-0.024,1.809
		c0.17,2.239,0.087,4.498-0.245,6.719c-0.055,0.368-0.128,0.758-0.38,1.032c-0.479,0.52-1.325,0.37-1.994,0.139
		c-1.258-0.433-2.466-1.009-3.595-1.712c-0.554-0.345-1.105-0.776-1.73-0.587C316.628,38.269,316.095,39.463,316.402,40.039z"/>
</g>
<g id="&#xB808;&#xC774;&#xC5B4;_14">
	<path style="fill:none;stroke:#000000;stroke-miterlimit:10;" d="M315.173,37.17c0.266,0.028,0.529,0.087,0.781,0.176
		c0.228,0.081,0.42,0.172,0.653,0.236c0.21,0.057,0.425,0.096,0.635,0.153c0.458,0.124,0.887,0.334,1.313,0.543
		c0.148,0.073,0.265,0.188,0.373,0.313c0.026,0.03,0.055,0.048,0.079,0.08"/>
</g>
<g id="&#xB808;&#xC774;&#xC5B4;_15">
	<path style="fill:none;stroke:#000000;stroke-miterlimit:10;" d="M293.695,49.549c2.213-1.551,4.563-3.154,7.255-3.39
		c1.441-0.126,2.884,0.153,4.303,0.43c1.213,0.237,2.425,0.474,3.638,0.711c0.57,0.112,1.161,0.232,1.63,0.575
		c0.566,0.414,0.869,1.09,1.325,1.623c1.085,1.267,3.065,1.785,3.603,3.365c1.036,3.045,2.556,6.012,1.336,8.988
		c-1.22,2.975-3.977,5.173-7.049,6.125c-3.473,1.077-7.345,0.715-10.632,2.271c-1.35,0.639-2.269,1.077-3.645,1.658
		c-2.723,1.15-5.499,2.228-7.99,3.819c-2.491,1.591-4.716,3.762-5.805,6.51c-2.986,7.535-11.671,11.303-17.352,17.085
		c-1.885,1.918-3.73,4.17-3.916,6.853c-0.231,3.324-0.207,6.65-0.472,9.972c-0.05,0.623-0.116,1.273-0.457,1.797
		c-0.341,0.524-1.047,0.865-1.609,0.593c-0.884-0.429-0.652-1.744-1.037-2.648c-0.552-1.298-2.743-1.368-3.376-0.107
		c-0.376,0.749-0.21,1.646-0.356,2.471c-0.316,1.785-2.185,3.037-3.997,2.989s-3.472-1.181-4.519-2.661
		c-1.047-1.48-1.559-3.272-1.882-5.056c-0.19-1.046-0.319-2.135-0.046-3.163c0.272-1.023,0.921-1.901,1.591-2.721
		c1.89-2.316,4.057-4.405,6.44-6.209c0.892-0.675,1.886-1.474,2.765-2.166c0.879-0.691,1.598-1.654,1.76-2.761
		c0.127-0.867-0.092-1.762,0.067-2.624c0.235-1.272,1.234-2.243,2.181-3.123c0.773-0.718,1.546-1.436,2.319-2.154
		c3.786-3.517,6.51-7.91,9.172-12.339c2.873-4.781,5.447-10.223,10.383-12.82c4.485-2.361,7.728-6.703,10.774-10.754
		C290.949,51.556,292.534,50.363,293.695,49.549z"/>
</g>
<g id="&#xB808;&#xC774;&#xC5B4;_16">
	<path style="fill:none;stroke:#000000;stroke-miterlimit:10;" d="M302.013,35.946c-3.374,1.375-6.802,2.782-9.636,5.071
		c-2.308,1.864-4.148,4.262-5.605,6.847c-0.596,1.057-1.138,2.316-0.836,3.454c0.099,0.371,0.071,0.766,0.02,1.147
		c-0.25,1.877-0.284,3.552-0.033,5.5"/>
</g>
<g id="&#xB808;&#xC774;&#xC5B4;_17">
	<path style="fill:none;stroke:#000000;stroke-miterlimit:10;" d="M288.154,75.222c-0.281,4.533,0.389,9.07,0.424,13.612
		s-0.646,9.294-3.289,12.988c-2.4,3.355-5.451,6.215-6.896,10.079c-1.852,4.95,0.554,10.844-1.7,15.624
		c-2.953,6.264-0.223,14.1-1.639,20.879c-0.511,2.446-1.052,5.385,0.751,7.115c0.573,0.55,1.315,0.886,2.047,1.195
		c3.646,1.539,7.46,2.679,11.352,3.392c1.531,0.281,3.235,0.463,4.533-0.397c0.492-0.326,0.884-0.779,1.248-1.243
		c2.892-3.696,4.304-8.518,3.862-13.191c1.11-0.254,2.14,0.596,2.962,1.384c2.006,1.923,4.012,3.845,6.017,5.768
		c0.824,0.79,1.725,1.619,2.854,1.788c2.022,0.303,3.62-1.545,5.249-2.783c3.346-2.543,7.89-2.768,11.685-4.572
		c0.504-0.24,1.031-0.546,1.244-1.061c0.167-0.405,0.108-0.866,0.01-1.293c-0.56-2.438-2.229-4.441-3.732-6.441
		c-3.226-4.292-5.896-9.003-7.921-13.976c-0.916-2.249-1.446-4.638-1.499-7.065c-0.106-4.837-0.202-9.761,1.13-14.413
		c0.558-1.949,1.996-3.682,2.628-5.608c1.196-3.645,1.519-7.574,0.933-11.366c-0.653-4.226,1.171-8.712,2.121-12.882
		c0.95-4.17,1.507-8.652-0.056-12.633c-1.486-3.784-1.828-7.825-2.926-11.739c-0.752-2.682-1.619-5.408-3.332-7.605"/>
</g>
<g id="&#xB808;&#xC774;&#xC5B4;_18">
	<path style="fill:none;stroke:#000000;stroke-miterlimit:10;" d="M320.104,94.716c1.686,1.341,3.766,2.182,5.911,2.389
		c0.439,0.042,0.893,0.057,1.311-0.083c0.451-0.151,0.824-0.469,1.215-0.74c1.858-1.29,4.376-1.566,6.47-0.71
		c0.19,0.078,0.39,0.177,0.483,0.36c0.166,0.328-0.112,0.723-0.441,0.889s-0.713,0.206-1.029,0.395
		c-0.8,0.48-0.768,1.753-0.141,2.445c0.627,0.692,1.615,0.92,2.545,0.997c1.527,0.127,3.079-0.055,4.535-0.532
		c0.335-0.11,0.712-0.233,1.026-0.071c0.494,0.255,0.44,0.972,0.289,1.507c-0.755,2.681-2.441,5.446-5.161,6.042
		c-1.081,0.237-2.206,0.099-3.304-0.039c-5.751-0.725-11.588-1.473-16.919-3.748"/>
</g>
<g id="&#xB808;&#xC774;&#xC5B4;_19">
	<path style="fill:none;stroke:#000000;stroke-miterlimit:10;" d="M235.158,139.949c-0.602-0.039-1.176-0.264-1.728-0.506
		c-2.14-0.94-4.172-2.199-6.457-2.692c-2.501-0.539-5.13-0.119-7.636-0.632c-0.752-0.154-1.563-0.452-1.911-1.136
		c-0.292-0.575-0.174-1.274,0.059-1.876c1.079-2.789,4.23-4.209,7.194-4.61s6.013-0.076,8.93-0.736
		c1.662-0.376,3.241-1.064,4.904-1.436c2-0.447,4.104-0.424,6.093,0.068c0.839,0.207,1.68,0.509,2.333,1.077
		c1.457,1.268,1.592,3.444,1.619,5.375c0.014,0.985-0.075,2.162-0.931,2.65c-0.621,0.354-1.392,0.182-2.101,0.087
		c-1.894-0.255-4.4,0.069-5.883,1.38C238.246,138.193,237.389,140.092,235.158,139.949z"/>
</g>
<g id="&#xB808;&#xC774;&#xC5B4;_20">
	<path style="fill:none;stroke:#000000;stroke-miterlimit:10;" d="M274.96,154.341c-0.424,0.594-1.249,0.788-1.968,0.658
		s-1.357-0.525-1.973-0.916c-4.776-3.032-9.378-6.336-13.778-9.892c-1.504-1.216-3.324-1.94-4.827-3.157
		c-0.612-0.496-1.217-1.018-1.661-1.669c-0.985-1.445-1.134-3.45-2.474-4.573"/>
</g>
<g id="&#xB808;&#xC774;&#xC5B4;_21">
	<path style="fill:none;stroke:#000000;stroke-miterlimit:10;" d="M236.593,139.82c4.125,2.538,8.251,5.076,12.376,7.613
		c3.182,1.958,6.517,4.077,8.213,7.406c0.832,1.633,1.318,3.607,2.852,4.609c5.013,3.276,7.629,9.025,11.649,13.463
		c2.26,2.495,4.557,5.021,7.403,6.818c1.826,1.153,3.988,2,6.115,1.635c1.916-0.329,3.562-1.614,4.733-3.166
		s1.931-3.368,2.678-5.163c0.58-1.391,1.159-2.783,1.739-4.174c0.518-1.243,1.042-2.513,1.143-3.856
		c0.15-1.995,0.004-4.507-0.996-6.507"/>
</g>
<g id="&#xB808;&#xC774;&#xC5B4;_22">
	<path style="fill:none;stroke:#000000;stroke-miterlimit:10;" d="M340.423,217.632c-1.068,0.472-2.106,1.179-2.587,2.242
		c-1.104,2.438,1.158,5.045,1.464,7.704c0.145,1.259-0.076,2.76,0.886,3.585c0.855,0.733,2.141,0.473,3.242,0.233
		c6.798-1.483,13.892-0.544,20.685,0.963c1.315,0.292,2.787,0.581,3.931-0.131c1.563-0.973,1.62-3.187,1.496-5.024
		c-0.048-0.706-0.103-1.44-0.455-2.054c-0.414-0.724-1.179-1.173-1.943-1.509c-4.783-2.099-10.699-1.02-15.065-3.889
		c-2.247-1.476-4.657-3.11-7.343-3.224C343.456,216.475,341.593,217.115,340.423,217.632z"/>
</g>
<g id="&#xB808;&#xC774;&#xC5B4;_23">
	<path style="fill:none;stroke:#000000;stroke-miterlimit:10;" d="M311.5,154.5c0.129,1.235,0.022,2.344,1.083,2.989
		c1.062,0.645,2.251,1.115,3.146,1.977c0.846,0.815,1.356,1.915,1.767,3.016c1.017,2.723,1.541,5.6,2.061,8.46
		c0.722,3.973,1.445,7.945,2.167,11.918c0.4,2.2,1.671,3.808,2.256,5.966c0.48,1.77,0.659,3.614,1.179,5.372
		c0.86,2.91,2.608,5.458,4.103,8.099c3.125,5.522,5.205,11.593,8.434,17.055"/>
</g>
<g id="&#xB808;&#xC774;&#xC5B4;_24">
	<path style="fill:none;stroke:#000000;stroke-miterlimit:10;" d="M328.026,145.929c4.79,7.455,7.406,16.288,7.448,25.149
		c0.023,4.945,1.629,9.778,1.647,14.724c0.012,3.182-0.181,6.552,1.355,9.338c0.91,1.651,1.235,3.677,1.609,5.525
		c0.29,1.436,0.763,2.829,1.252,4.21c1.358,3.833,2.857,7.617,4.492,11.341c0.129-0.115,0.259-0.23,0.388-0.345"/>
</g>
<g id="&#xB808;&#xC774;&#xC5B4;_25">
	<path style="fill:none;stroke:#000000;stroke-miterlimit:10;" d="M182.829,68.842c3.408,3.003,6.386,6.493,8.815,10.331
		c0.591,0.934,1.17,1.912,2.042,2.591c0.727,0.566,1.609,0.886,2.463,1.231c3.227,1.301,6.268,3.063,9.001,5.216"/>
	<path style="fill:none;stroke:#000000;stroke-miterlimit:10;" d="M217.941,95.404c3.963,2.252,7.745,4.821,11.299,7.676
		c0.473,0.38,0.947,0.771,1.297,1.265c0.807,1.142,0.831,2.636,1.113,4.006s1.082,2.87,2.469,3.052
		c3.922,3.048,7.849,6.247,11.771,9.295c1.199,0.932,2.536,2.223,2.184,3.7c-0.969,0.676-2.297,0.171-3.331-0.401
		c-3.435-1.9-6.508-4.389-9.453-6.985c-1.921-1.694-3.912-3.503-6.404-4.097c-2.355-0.561-5.512,0.994-7.384-0.543
		c-1.893-1.554-1.202-4.635-2.282-6.833c-0.93-1.891-3.039-2.867-5.048-3.501c-2.009-0.634-4.164-1.115-5.743-2.51"/>
</g>
</svg>
