<?xml version="1.0" encoding="iso-8859-1"?>
<!-- Generator: Adobe Illustrator 24.0.1, SVG Export Plug-In . SVG Version: 6.00 Build 0)  -->
<svg version="1.1" xmlns="http://www.w3.org/2000/svg" xmlns:xlink="http://www.w3.org/1999/xlink" x="0px" y="0px"
	 viewBox="0 0 464 261" style="enable-background:new 0 0 464 261;" xml:space="preserve">
<g id="&#xB808;&#xC774;&#xC5B4;_1" style="display:none;">
	<image style="display:inline;overflow:visible;" width="464" height="261" xlink:href="../3.png" >
	</image>
</g>
<g id="&#xB808;&#xC774;&#xC5B4;_2">
	<path style="fill:none;stroke:#000000;stroke-miterlimit:10;" d="M172.015,59.81c-3.965-3.872-7.89-7.785-11.774-11.738
		c-0.358-0.364-0.719-0.733-0.982-1.17c-0.473-0.787-0.598-1.742-1.049-2.542c-0.623-1.106-1.787-1.787-2.615-2.749
		c-1.829-2.126-1.771-5.236-1.615-8.036c0.092-1.643,0.203-3.355,1.028-4.779c0.388-0.671,0.921-1.249,1.504-1.761
		c1.748-1.538,3.984-2.513,6.301-2.747c2.009-0.203,3.938-0.116,5.956-0.04c1.686,0.063,3.394,0.129,5.011,0.614
		c1.616,0.485,3.158,1.443,3.993,2.91c1.173,2.063,0.776,4.747,1.965,6.801c0.768,1.326,2.183,2.384,2.289,3.912
		c0.065,0.937-0.45,1.89-1.269,2.348c-0.37,0.207-0.807,0.331-1.075,0.658c-0.269,0.327-0.191,0.964,0.23,1.014
		c0.893,0.106,1.098,1.163,1.577,1.924c1.23,1.957,1.037,4.453,0.8,6.753c-0.093,0.907-0.262,1.941-1.035,2.424
		c-1.362,0.852-3.446-0.702-4.649,0.362c-0.5,0.442-0.606,1.163-0.787,1.805C175.316,57.552,173.716,59.088,172.015,59.81z"/>
</g>
<g id="&#xB808;&#xC774;&#xC5B4;_3">
	<path style="fill:none;stroke:#000000;stroke-miterlimit:10;" d="M177.5,53.5c0,0-0.798-0.38-1.192-0.664
		c-0.564-0.405-1.281-0.511-1.945-0.713c-0.393-0.12-0.775-0.276-1.172-0.38c-0.67-0.175-1.392-0.203-1.995-0.543"/>
</g>
<g id="&#xB808;&#xC774;&#xC5B4;_4">
	<path style="fill:none;stroke:#000000;stroke-miterlimit:10;" d="M151.249,65.294c3.283-2.054,5.273-6.333,9.098-6.94
		c1.647-0.261,3.314,0.25,4.868,0.854c1.351,0.525,2.734,1.173,3.598,2.337c1.315,1.772,1.08,4.253,0.411,6.355
		c-0.799,2.512-2.135,4.851-3.892,6.816c-1.476,1.65-3.282,3.095-4.166,5.125c-0.403,0.926-0.315,2.248-0.463,3.247
		c-0.214,1.444-0.493,2.897-1.112,4.219c-0.618,1.322-1.612,2.516-2.941,3.12c-3.528,1.605-5.499,5.111-8.346,7.74
		c-0.446,0.411-0.902,0.838-1.157,1.389c-0.239,0.516-0.282,1.099-0.321,1.667c-0.122,1.788-0.245,3.577-0.367,5.365
		c-0.185,2.705,0.397,5.49,0.972,8.139c1.206,5.553,0.667,11.569,3.17,16.67c1.541,3.141,1.489,6.706,0.471,10.053
		c-0.349,1.148-0.991,2.389-2.156,2.677c-0.528,0.131-1.081,0.039-1.622-0.021c-1.288-0.144-2.607-0.11-3.855-0.458
		c-1.249-0.348-2.467-1.189-2.798-2.442c-0.14-0.533-0.11-1.093-0.079-1.643c0.112-1.966,0.224-3.931,0.336-5.897
		c0.396-6.941-0.017-13.926-0.675-20.846c-0.344-3.614-1.206-7.026-1.927-10.584s-1.029-7.447,0.688-10.646
		c0.7-1.304,1.463-3.029,2.144-4.343c0.639-1.231,0.728-2.669,1.168-3.984c0.57-1.705,1.707-3.151,2.594-4.715
		c0.589-1.039,1.07-2.136,1.549-3.23C147.881,72.022,149.829,68.596,151.249,65.294z"/>
</g>
<g id="&#xB808;&#xC774;&#xC5B4;_5">
	<path style="fill:none;stroke:#000000;stroke-miterlimit:10;" d="M142.542,82.62c0.573-2.69,0.887-5.435,0.936-8.185
		c0.043-2.452-0.037-5.165,1.56-7.026c4.287-4.997,8.109-10.576,10.914-16.532c0.218-0.464,0.424-0.937,0.714-1.36
		c0.646-0.942,1.663-1.566,2.717-2.007"/>
</g>
<g id="&#xB808;&#xC774;&#xC5B4;_6">
	<path style="fill:none;stroke:#000000;stroke-miterlimit:10;" d="M152.79,232.582c-0.904-0.714-2.258,0.22-2.656,1.301
		c-0.398,1.081-0.324,2.32-0.881,3.328c-0.565,1.022-1.68,1.625-2.346,2.584c-0.28,0.403-0.473,0.944-0.24,1.376
		c0.145,0.269,0.424,0.433,0.691,0.582c6.397,3.558,13.662,5.543,20.98,5.732c2.426,0.063,4.849-0.234,7.272-0.381
		c0.789-0.048,1.641-0.121,2.233-0.643c0.994-0.877,0.686-2.592-0.234-3.546s-2.239-1.379-3.457-1.901
		c-1.314-0.564-2.562-1.275-3.893-1.796c-1.606-0.628-3.306-0.968-4.975-1.402C160.806,236.649,156.421,235.452,152.79,232.582z"/>
</g>
<g id="&#xB808;&#xC774;&#xC5B4;_7">
	<path style="fill:none;stroke:#000000;stroke-miterlimit:10;" d="M151.063,232.174c-0.397-1.752-0.132-3.578,0.134-5.355
		c0.915-6.109,1.829-12.218,2.744-18.328c0.738-4.93,2.969-9.324,2.863-14.308c-0.059-2.742-0.47-5.507-0.017-8.213"/>
</g>
<g id="&#xB808;&#xC774;&#xC5B4;_8">
	<path style="fill:none;stroke:#000000;stroke-miterlimit:10;" d="M158.366,235.374c2.231-4.107,3.579-8.692,3.924-13.354
		c0.159-2.149,0.167-4.485,1.493-6.183c0.873-1.118,1.801-2.73,2.736-3.797c0.324-0.37,0.654-0.75,0.834-1.207
		c0.119-0.301,0.167-0.624,0.215-0.945c0.38-2.538,0.761-5.076,1.141-7.614c0.122-0.812,0.129-1.228,0.082-2.048
		c-0.118-2.05-0.229-4.162,0.449-6.1c0.794-2.271,2.636-4.202,2.785-6.604"/>
</g>
<g id="&#xB808;&#xC774;&#xC5B4;_9">
	<path style="fill:none;stroke:#000000;stroke-miterlimit:10;" d="M115.635,145.538c-1.825-0.359-3.666-0.634-5.516-0.824
		c-2.138-0.22-4.411-0.369-6.163-1.614c-0.931-0.661-1.695-1.809-1.358-2.9c0.156-0.506,0.525-0.916,0.899-1.292
		c2.566-2.582,5.955-4.43,9.579-4.77c1.072-0.101,2.152-0.071,3.228-0.041c1.845,0.051,3.691,0.102,5.536,0.154
		c1.892,0.052,3.788,0.105,5.665,0.354c1.119,0.148,2.324,0.419,3.044,1.289c0.341,0.412,0.538,0.92,0.73,1.419
		c0.362,0.941,0.724,2.004,0.318,2.927c-0.399,0.907-1.403,1.364-2.335,1.698c-1.586,0.569-3.215,1.017-4.868,1.339
		c-1.059,0.206-2.17,0.377-3.051,0.999c-0.765,0.54-1.226,1.919-2.148,2.143C118.243,146.65,116.602,145.728,115.635,145.538z"/>
</g>
<g id="&#xB808;&#xC774;&#xC5B4;_10">
	<path style="fill:none;stroke:#000000;stroke-miterlimit:10;" d="M119.029,146.553c2.344,1.823,4.723,3.683,6.44,6.106
		c0.823,1.161,1.479,2.433,2.307,3.59c0.837,1.17,1.841,2.21,2.844,3.241c2.29,2.354,4.648,4.725,7.545,6.272
		c2.124,1.134,3.663,2.867,5.269,4.661c1.905,2.127,3.328,4.666,5.364,6.668c1.041,1.023,2.226,1.89,3.263,2.917
		c2.087,2.068,3.554,4.765,5.937,6.483c1.155,0.833,2.477,1.398,3.788,1.954c1.13,0.48,2.283,0.963,3.504,1.087
		c2.674,0.272,5.196-1.198,7.385-2.758c0.714-0.509,1.43-1.047,1.931-1.766c0.501-0.72,0.761-1.661,0.474-2.489
		c-0.566-1.634-0.604-3.46-1.044-5.131c-0.697-2.644-0.393-5.551-1.57-8.019c-6.376,1.089-13.199,0.015-18.927-2.99
		c-4.928-2.586-9.934-6.421-12.315-11.452c-0.604-1.277-1.021-2.649-1.787-3.836c-1.068-1.656-2.529-3.24-3.821-4.728
		c-0.421-0.485-0.842-0.97-1.22-1.488c-0.409-0.561-0.766-1.16-1.192-1.708c-0.664-0.856-1.494-1.584-2.429-2.132"/>
</g>
<g id="&#xB808;&#xC774;&#xC5B4;_11">
	<path style="fill:none;stroke:#000000;stroke-miterlimit:10;" d="M139.4,150.757c-0.409-1.798-1.051-3.543-1.907-5.176
		c-1.011-1.93-2.339-3.766-2.695-5.915c-0.211-1.277-0.061-2.583,0.089-3.869c0.242-2.071,0.704-4.029,0.887-6.106
		c0.14-1.59-0.09-3.24,0.636-4.662c0.179-0.35,0.402-0.68,0.526-1.053c0.161-0.484,0.144-1.007,0.209-1.513
		c0.235-1.847,1.671-3.483,3.472-3.955"/>
</g>
<g id="&#xB808;&#xC774;&#xC5B4;_12">
	<path style="fill:none;stroke:#000000;stroke-miterlimit:10;" d="M172.316,168.791c-0.411-3.205-0.822-6.411-1.234-9.616
		c-0.152-1.182-0.303-2.365-0.36-3.554c-0.164-3.466,0.454-7.109-0.932-10.289c-1.514-3.472-2.036-7.68-2.789-11.392
		s-0.982-7.692,0.498-11.179c2.21-5.208,2.551-11.304,6.287-15.552c0.921-1.048,1.992-2.019,2.53-3.307
		c0.987-2.363,2.675-3.993,2.977-6.536c0.182-1.529,0.031-3.076-0.12-4.609c-0.335-3.399-0.67-6.798-1.005-10.197
		c-0.499-5.066-1.799-10.258-2.503-15.3c-0.395-2.825-0.969-5.964-3.276-7.643"/>
</g>
<g id="&#xB808;&#xC774;&#xC5B4;_13">
	<path style="fill:none;stroke:#000000;stroke-miterlimit:10;" d="M178.973,92.375c1.639,0.193,3.178,0.866,4.688,1.532
		c5.491,2.419,10.981,4.837,16.472,7.256c1.786,0.787,3.582,1.577,5.476,2.046c3.085,0.764,6.759,0.881,8.646,3.438
		c0.674,0.913,1.008,2.026,1.331,3.114c0.306,1.03,0.611,2.061,0.917,3.091c0.165,0.558,0.342,1.136,0.737,1.564
		c0.435,0.471,1.072,0.692,1.688,0.87c1.831,0.532,3.722,0.852,5.626,0.953c1.283,0.068,2.694,0.081,3.661,0.927
		c4.717,4.128,10.109,6.823,15.986,9.001c1.039,0.385,2.418,0.654,3.079-0.236c0.467-0.629,0.273-1.562-0.224-2.167
		c-0.497-0.605-1.225-0.962-1.923-1.316c-4.225-2.144-8.169-4.839-11.702-7.996c-1.286-1.149-2.542-2.391-3.311-3.936
		c-0.756-1.519-0.998-3.246-1.689-4.795c-1.961-4.4-7.047-6.471-11.795-7.283c-5.393-0.922-9.707-5.252-14.276-8.262
		c-1.369-0.902-2.715-1.84-4.061-2.777c-4.729-3.293-9.549-6.675-12.947-11.329c-2.507-3.433-4.815-7.009-7.575-10.242
		c-0.895-1.048-1.84-2.104-3.069-2.729"/>
</g>
<g id="&#xB808;&#xC774;&#xC5B4;_14">
	<path style="fill:none;stroke:#000000;stroke-miterlimit:10;" d="M321.181,59.375c-0.411,0.601-1.01,1.115-1.727,1.241
		c-0.785,0.138-1.587-0.211-2.204-0.715c-0.616-0.505-1.09-1.158-1.61-1.762c-2.111-2.453-4.985-4.102-7.825-5.652
		c-0.576-0.314-1.157-0.629-1.663-1.048c-0.477-0.395-0.876-0.874-1.272-1.35c-0.594-0.714-1.189-1.428-1.783-2.142
		c-1.619-1.945-2.875-4.369-4.242-6.499c-0.443-0.69-0.888-1.383-1.239-2.124c-0.487-1.028-0.79-2.143-0.888-3.277
		c-0.192-2.205,0.574-4.686,2.52-5.741c2.421-1.312,3.87-4,6.212-5.45c0.786-0.487,1.587-0.957,2.445-1.305
		c2.666-1.08,5.653-0.89,8.521-0.669c1.003,0.077,2.023,0.16,2.963,0.518c2.046,0.779,3.388,2.706,4.601,4.528
		c0.832,1.249,1.759,2.292,2.429,3.635c0.314,0.629,0.587,1.282,0.964,1.875c1.39,2.183,3.955,3.252,6.339,4.259
		c0.306,0.129,0.63,0.274,0.809,0.554c0.289,0.449,0.077,1.076-0.312,1.443c-0.389,0.366-0.91,0.548-1.396,0.771
		s-0.978,0.528-1.188,1.019c-0.384,0.897,0.36,1.89,1.188,2.406c0.924,0.576,0.538,1.954,0.462,3.04c-0.15,2.14-0.3,4.28-0.45,6.421
		c-0.03,0.428-0.064,0.872-0.27,1.249c-0.274,0.503-0.807,0.806-1.332,1.034c-1.954,0.85-4.195,1.024-6.256,0.484
		c-0.402-0.105-0.826-0.237-1.223-0.114c-0.462,0.143-0.753,0.588-1.005,1.001C322.285,57.767,321.685,58.639,321.181,59.375z"/>
</g>
<g id="&#xB808;&#xC774;&#xC5B4;_15">
	<path style="fill:none;stroke:#000000;stroke-miterlimit:10;" d="M320.244,54.039c0.404,0.366,0.869,0.656,1.332,0.945
		c0.116,0.072,0.232,0.145,0.353,0.21c0.123,0.066,0.249,0.125,0.377,0.181c0.733,0.318,1.51,0.533,2.303,0.635"/>
</g>
<g id="&#xB808;&#xC774;&#xC5B4;_16">
	<path style="fill:none;stroke:#000000;stroke-miterlimit:10;" d="M316.424,65.732c1.054,1.908,2.126,4.159,1.298,6.175
		c-0.55,1.34-1.825,2.228-3.082,2.947c-4.289,2.453-9.185,3.856-14.125,3.969c-2.154,0.049-4.312-0.142-6.46,0.025
		c-4.281,0.333-7.473,2.67-11.411,4.381c0.217,0.914-0.154,1.875-0.691,2.646s-1.236,1.416-1.798,2.169
		c-0.579,0.775-1.004,1.651-1.418,2.524c-1.56,3.285-1.415,7.352-4.156,9.742c-1.259,1.098-1.342,2.976-1.72,4.604
		c-0.23,0.993-0.601,1.947-0.876,2.929c-0.566,2.022-0.694,4.365-0.216,6.409c0.616,2.635,0.858,5.358,0.715,8.06
		c-0.032,0.61-0.095,1.252-0.448,1.75c-0.353,0.498-1.094,0.773-1.594,0.423c0.305-0.707-0.231-1.571-0.961-1.813
		c-0.731-0.242-1.546,0.012-2.185,0.439c-0.908,0.608-1.597,1.731-1.28,2.777c0.152,0.502,0.519,0.945,0.536,1.469
		c0.024,0.756-0.731,1.352-1.483,1.43c-0.752,0.078-1.486-0.223-2.18-0.523c-1.883-0.817-3.778-1.703-5.302-3.077
		s-2.653-3.324-2.585-5.376c0.053-1.598,0.806-3.081,1.599-4.469c1.789-3.134,5.222-5.919,6.289-9.366
		c1.511-4.879,2.932-9.785,4.263-14.716c0.553-2.048,1.092-4.11,1.308-6.22c0.144-1.406,0.064-2.579,0.337-3.966
		c0.536-2.728,1.834-5.375,3.975-7.148c3.4-2.816,8.073-4.35,12.314-5.575c3.436-0.992,6.979-2.039,9.729-4.324
		c1.588-1.32,2.861-3.015,4.582-4.157c2.35-1.56,5.456-1.915,8.098-0.927c0.55,0.206,0.936,0.519,1.501,0.681
		c1.847,0.529,3.537,1.594,4.811,3.032c0.467,0.527,0.883,1.107,1.425,1.557c0.196,0.162,0.406,0.306,0.613,0.454
		C316.146,64.883,316.244,65.407,316.424,65.732z"/>
</g>
<g id="&#xB808;&#xC774;&#xC5B4;_17">
	<path style="fill:none;stroke:#000000;stroke-miterlimit:10;" d="M283.748,82.738c-0.61,0.384-1.304,0.634-2.019,0.728
		c-0.39,0.051-0.784,0.056-1.177,0.061c-0.319,0.004-0.638,0.008-0.957,0.012"/>
</g>
<g id="&#xB808;&#xC774;&#xC5B4;_18">
	<path style="fill:none;stroke:#000000;stroke-miterlimit:10;" d="M299.259,59.879c1.336-2.233,2.901-4.328,4.664-6.243
		c0.724-0.786,1.55-1.58,2.601-1.77"/>
</g>
<g id="&#xB808;&#xC774;&#xC5B4;_19">
	<path style="fill:none;stroke:#000000;stroke-miterlimit:10;" d="M272.5,238.5c0,0-0.508,0.237-0.73,0.659
		s-0.293,0.906-0.338,1.381c-0.08,0.839-0.095,1.685-0.043,2.527c0.053,0.857,0.186,1.741,0.652,2.462
		c0.638,0.988,1.812,1.517,2.974,1.693c1.163,0.176,2.347,0.052,3.522,0.02c3.454-0.095,6.873,0.604,10.283,1.16
		c3.115,0.508,6.25,0.899,9.395,1.171c1.039,0.09,2.122,0.161,3.093-0.221c0.971-0.382,1.791-1.355,1.647-2.389
		c-0.162-1.165-0.611-2.273-1.591-2.924s-2.157-0.925-3.309-1.162c-0.843-0.173-1.692-0.333-2.552-0.382
		c-0.611-0.034-1.228-0.012-1.831-0.117c-0.768-0.133-1.484-0.466-2.19-0.796c-2.118-0.989-4.236-1.978-6.354-2.967
		c-0.526-0.246-1.057-0.493-1.622-0.63c-0.645-0.157-1.315-0.165-1.978-0.173c-2.566-0.029-5.132-0.059-7.699-0.088
		C273.333,237.72,272.5,238.5,272.5,238.5z"/>
</g>
<g id="&#xB808;&#xC774;&#xC5B4;_20">
	<path style="fill:none;stroke:#000000;stroke-miterlimit:10;" d="M272.5,238.5c-0.155-2.288,1.345-4.451,2.119-6.609
		c0.383-1.066,0.526-2.206,0.905-3.273c0.89-2.507,3.011-4.442,3.832-6.973c0.966-2.98,2.462-5.855,3.962-8.605
		c0.922-1.691,1.899-3.368,2.518-5.192c0.368-1.086,0.604-2.211,0.84-3.333c0.597-2.844,1.194-5.689,1.791-8.533
		c0.593-2.824,2.076-5.828,3.298-8.442c0.411-0.881,0.823-1.762,1.291-2.614c0.448-0.815,0.946-1.601,1.363-2.432
		c1.854-3.696,1.967-7.99,2.043-12.125"/>
</g>
<g id="&#xB808;&#xC774;&#xC5B4;_21">
	<path style="fill:none;stroke:#000000;stroke-miterlimit:10;" d="M287.5,239.5c-0.287-3.553-0.156-7.351,1.056-10.703
		c0.605-1.672,1.558-3.193,2.503-4.699c0.847-1.349,1.694-2.698,2.541-4.048c2.061-3.282,3.483-6.658,5.551-9.935
		c1.613-2.556,4.125-4.489,5.521-7.17c0.946-1.816,1.228-3.612,2.487-5.226c1.305-1.673,2.925-3.148,3.796-5.083
		c1.434-3.183,3.001-6.108,3.876-9.487c0.313-1.21,0.419-2.461,0.525-3.706"/>
</g>
<g id="&#xB808;&#xC774;&#xC5B4;_22">
	<path style="fill:none;stroke:#000000;stroke-miterlimit:10;" d="M263.162,167.013c0.416-1.815,0.838-3.629,1.266-5.442
		c0.291-1.231,0.592-2.48,1.223-3.576c0.536-0.931,1.29-1.714,2.036-2.487c1.753-1.816,3.506-3.632,5.258-5.448
		c0.632-0.655,1.281-1.323,2.095-1.733c0.813-0.41,1.836-0.52,2.616-0.05c0.582,0.351,0.95,0.966,1.461,1.414
		c1.247,1.094,3.461,1.39,3.745,3.024c0.188,1.08-0.665,2.034-1.45,2.799c-2.498,2.432-5.005,4.87-7.781,6.979
		c-0.755,0.574-1.551,1.128-2.223,1.801c-0.595,0.596-1.026,1.775-1.674,2.232C268.335,167.517,264.844,166.988,263.162,167.013z"/>
</g>
<g id="&#xB808;&#xC774;&#xC5B4;_23">
	<path style="fill:none;stroke:#000000;stroke-miterlimit:10;" d="M269.237,166.777c2.936,1.775,6.909,2.311,9.721,0.346
		c1.034-0.722,1.872-1.746,3.032-2.242c1.961-0.838,4.191,0.057,6.131,0.943c3.952,1.805,7.633,3.966,11.61,5.715
		c1.775,0.78,3.63,1.37,5.396,2.169c1.995,0.903,3.859,2.065,5.762,3.147c1.373,0.78,2.768,1.519,4.164,2.259
		c1.558,0.825,3.115,1.65,4.673,2.476c1.566,0.829,3.136,1.661,4.793,2.29c3.443,1.307,7.203,1.704,10.869,1.345
		c1.676-0.164,3.548-0.625,4.382-2.088c1.412-0.729,1.794-2.643,2.033-4.214c0.877-5.771,1.75-11.699,0.49-17.399
		c-2.985,0.053-6.194,1.2-8.678,2.857c-0.91,0.607-1.791,1.326-2.857,1.572c-1.073,0.248-2.201-0.019-3.229-0.415
		c-1.512-0.582-2.902-1.436-4.348-2.167c-4.118-2.082-8.737-3.163-13.351-3.127c-9.164-0.883-18.663-2.372-26.692-6.878"/>
</g>
<g id="&#xB808;&#xC774;&#xC5B4;_24">
	<path style="fill:none;stroke:#000000;stroke-miterlimit:10;" d="M288.952,155.878c-0.558-1.349-0.447-2.889-0.073-4.299
		c0.374-1.41,0.997-2.742,1.459-4.126c0.728-2.179,0.263-4.886-0.101-7.154c-0.364-2.268-1.325-4.519-3.077-6.005
		c-1.693-1.436-2.723-3.708-2.829-5.925c-0.222-4.638,0.151-9.297,0.793-13.896c0.494-3.537,0.771-7.093,1.605-10.565
		c0.747-3.108,0.621-6.457,0.811-9.648c0.278-4.672,2.014-9.391,1.18-13.997"/>
</g>
<g id="&#xB808;&#xC774;&#xC5B4;_25">
	<path style="fill:none;stroke:#000000;stroke-miterlimit:10;" d="M320.583,61.022c0.829,0.826,0.799,2.144,0.883,3.311
		c0.197,2.739,1.309,5.318,2.406,7.836c0.555,1.275,1.111,2.549,1.666,3.824c0.558,1.282,1.198,2.189,1.919,3.387
		c1.027,1.707,1.332,3.738,1.616,5.71c0.225,1.561,1.116,2.821,1.336,4.383c0.495,3.516-0.394,7.064-1.276,10.504
		c-0.083,0.325-0.181,0.673-0.442,0.885c-0.362,2.108-0.837,4.14-1.199,6.248c-0.117,0.682-0.235,1.366-0.43,2.03
		c-0.42,1.425-1.187,2.718-1.947,3.995c-1.382,2.321-2.468,4.632-3.883,6.933c-1.338,2.175-2.326,4.545-3.307,6.902
		c-0.562,1.349-0.747,2.617-0.587,4.07c0.16,1.452,0.637,2.848,1.111,4.231c0.481,1.401,1.069,2.932,2.382,3.618
		c4.96,2.591,7.776,7.516,11.995,11.192c2.632,2.293,5.268,4.285,7.689,6.799c0.617,0.641,1.234,1.319,1.543,2.153
		s0.245,1.867-0.383,2.497"/>
</g>
</svg>
