<?xml version="1.0" encoding="iso-8859-1"?>
<!-- Generator: Adobe Illustrator 24.0.1, SVG Export Plug-In . SVG Version: 6.00 Build 0)  -->
<svg version="1.1" id="&#xB808;&#xC774;&#xC5B4;_1" xmlns="http://www.w3.org/2000/svg" xmlns:xlink="http://www.w3.org/1999/xlink"
	 x="0px" y="0px" viewBox="0 0 464 261" style="enable-background:new 0 0 464 261;" xml:space="preserve">
<g id="&#xB808;&#xC774;&#xC5B4;_1_1_" style="display:none;">
	<image style="display:inline;overflow:visible;enable-background:new    ;" width="464" height="261" xlink:href="../6.png" >
	</image>
</g>
<g id="&#xB808;&#xC774;&#xC5B4;_2_1_">
	<path style="fill:none;stroke:#000000;stroke-miterlimit:10;" d="M172.692,56.104c-2.876-0.888-5.763-1.781-8.482-3.07
		c-4.552-2.157-8.574-5.42-11.623-9.43c-0.443-0.582-1.167-1.119-1.309-1.836c-0.141-0.718-0.072-1.458-0.034-2.189
		c0.078-1.496,0.024-2.998-0.125-4.489c-0.088-0.882-0.209-1.77-0.122-2.652c0.238-2.415,1.972-4.394,3.745-6.05
		c0.492-0.459,1.002-0.914,1.607-1.21c1.851-0.904,4.057-0.127,6.109-0.306c1.216-0.106,2.378-0.552,3.585-0.735
		c1.775-0.268,3.581,0.042,5.348,0.36c0.682,0.123,1.39,0.258,1.946,0.672c0.499,0.372,0.822,0.928,1.13,1.469
		c0.728,1.277,1.455,2.553,2.183,3.83c0.746,1.309,1.493,2.62,2.369,3.845c0.388,0.543,0.806,1.077,1.049,1.699
		s0.29,1.361-0.057,1.931c-0.258,0.424,0.102,0.832,0.49,1.142c0.388,0.31,0.858,0.512,1.217,0.855
		c0.832,0.795,0.848,2.095,0.807,3.245c-0.03,0.83-0.09,1.739-0.659,2.345c-0.33,0.351-0.797,0.557-1.103,0.929
		c-0.459,0.557-0.459,1.348-0.437,2.069c0.035,1.12,0.069,2.24,0.104,3.36c0.015,0.482-0.656,0.631-1.132,0.71
		c-1.353,0.223-2.782-0.053-3.955-0.763c-0.348-0.211-0.676-0.459-1.054-0.609s-0.828-0.189-1.177,0.02
		c-0.583,0.349-0.619,1.165-0.586,1.844C172.576,54.08,172.644,55.114,172.692,56.104z"/>
</g>
<g id="&#xB808;&#xC774;&#xC5B4;_3">
	<path style="fill:none;stroke:#000000;stroke-miterlimit:10;" d="M174.294,51.214c-1.351-0.564-2.74-1.154-3.765-2.199"/>
</g>
<g id="&#xB808;&#xC774;&#xC5B4;_4">
	<path style="fill:none;stroke:#000000;stroke-miterlimit:10;" d="M138.674,62.658c1.34,0.082,2.508-0.842,3.529-1.714
		c1.455-1.243,2.973-2.575,3.592-4.386c0.147-0.431,0.246-0.892,0.523-1.254c0.434-0.567,1.221-0.759,1.932-0.69
		c0.711,0.069,1.38,0.354,2.059,0.576c3.228,1.054,6.745,0.693,10.075,1.359c0.864,0.173,1.726,0.42,2.477,0.88
		c1.366,0.836,2.244,2.312,2.687,3.851c0.443,1.54,0.499,3.16,0.552,4.761c0.043,1.313,0.34,2.57,0.08,3.858
		c-0.103,0.512-0.235,1.032-0.533,1.461c-0.225,0.324-0.534,0.579-0.846,0.82c-0.728,0.563-1.496,1.074-2.296,1.529
		c-0.484,0.275-0.988,0.533-1.532,0.652c-0.371,0.081-0.754,0.096-1.134,0.106c-1.975,0.056-3.956,0.012-5.925,0.183
		c-1.969,0.171-3.945,0.568-5.711,1.454c-0.168,0.084-0.341,0.179-0.443,0.337c-1.627,2.508-4.924,3.243-7.383,4.942
		c-0.334,0.231-0.671,0.463-1.043,0.625c-1.074,0.468-2.3,0.303-3.471,0.305c-1.171,0.002-2.492,0.272-3.116,1.263
		c-0.687,1.091-1.236,2.396-1.393,3.676c-0.085,0.692-0.04,1.392-0.022,2.089c0.05,1.952-0.113,3.908-0.484,5.825
		c-0.206,1.062-0.48,2.078-0.567,3.156c-0.249,3.106-0.899,6.18-1.927,9.122c-1.231,3.521-0.232,7.694,1.657,10.911
		c0.889,1.514,0.902,3.338,0.822,5.092c-0.028,0.618-0.057,1.237-0.085,1.855c-0.051,1.102-0.135,2.293-0.854,3.129
		c-0.573,0.667-1.155,1.317-1.605,2.072c-0.47,0.789-0.856,1.631-1.399,2.371c-0.544,0.74-1.282,1.389-2.179,1.585
		c-0.99,0.216-2.088-0.192-2.696-1.003c-0.293-0.391-0.473-0.855-0.721-1.276c-0.375-0.638-0.903-1.175-1.286-1.808
		c-0.612-1.011-0.825-2.216-0.878-3.397c-0.11-2.435,0.421-4.896,1.524-7.069c0.719-1.417-0.241-3.258-0.492-4.828
		c-0.454-2.846,0.272-5.887-0.797-8.563c-0.643-1.609-0.988-3.315-1.25-5.028s-0.219-3.506,0.397-5.125
		c0.339-0.89,0.355-1.88,0.578-2.806c0.217-0.903,0.293-1.832,0.414-2.753c0.441-3.354,1.502-6.627,3.111-9.602
		c1.285-2.375,0.184-5.404-0.47-8.023c-0.168-0.672-0.369-1.347-0.36-2.04c0.016-1.257,0.79-2.476,1.922-3.024
		c1.824-0.884,3.338-2.542,5.334-2.897c1.403-0.249,2.871-0.175,4.217-0.64c0.927-0.32,1.749-0.881,2.623-1.327
		C136.752,62.804,137.695,62.598,138.674,62.658z"/>
</g>
<g id="&#xB808;&#xC774;&#xC5B4;_5">
	<path style="fill:none;stroke:#000000;stroke-miterlimit:10;" d="M147.89,54.45c0.827-1.279,2.113-2.177,3.367-3.041
		c0.52-0.359,1.04-0.717,1.56-1.076c0.403-0.278,0.809-0.558,1.256-0.759c1.038-0.467,2.216-0.479,3.354-0.482"/>
</g>
<g id="&#xB808;&#xC774;&#xC5B4;_6">
	<path style="fill:none;stroke:#000000;stroke-miterlimit:10;" d="M95.774,219.411c-0.518,0.006-1.079,0.027-1.482,0.352
		c-0.615,0.496-0.571,1.418-0.629,2.206c-0.149,2.045-1.334,3.88-2.739,5.373c-0.228,0.243-0.471,0.492-0.569,0.81
		c-0.162,0.526,0.115,1.087,0.458,1.517c1.476,1.848,4.048,2.327,6.066,3.561c0.925,0.566,1.737,1.295,2.575,1.983
		c2.691,2.211,5.788,4.066,9.219,4.665c0.757,0.132,1.354,0.417,2.065,0.706c3.247,1.319,6.914,1.231,10.347,0.525
		c0.432-0.089,0.876-0.193,1.232-0.454s0.604-0.718,0.49-1.145c-0.123-0.46-0.596-0.72-1.024-0.928
		c-0.951-0.463-1.914-0.93-2.95-1.139c-0.444-0.09-0.897-0.131-1.339-0.233c-1.275-0.295-2.378-1.077-3.415-1.876
		c-1.721-1.326-3.369-2.754-4.85-4.343c-0.941-1.01-1.368-2.484-2.236-3.557c-0.466-0.575-0.99-1.1-1.514-1.623
		c-0.526-0.525-1.052-1.051-1.578-1.576c-0.667-0.666-1.336-1.334-2.076-1.92C100.034,220.897,98.056,219.384,95.774,219.411z"/>
</g>
<g id="&#xB808;&#xC774;&#xC5B4;_7">
	<path style="fill:none;stroke:#000000;stroke-miterlimit:10;" d="M94.5,219.5c1.227-1.152,3.588-2.624,4.968-3.587
		c1.456-1.016,2.995-1.925,4.337-3.087c1.125-0.975,2.095-2.113,3.135-3.178c2.334-2.389,5.118-4.539,6.369-7.636
		c0.625-1.548,0.9-3.372,2.194-4.427c3.111-2.534,4.913-6.337,7.443-9.451c0.662-0.815,1.329-1.637,1.811-2.57
		c0.542-1.049,0.834-2.21,1.356-3.269c0.522-1.059,2.386-2.795,3.386-2.795"/>
</g>
<g id="&#xB808;&#xC774;&#xC5B4;_8">
	<path style="fill:none;stroke:#000000;stroke-miterlimit:10;" d="M107.5,228.5c1-1,1.238-2.433,1.454-3.758
		c0.198-1.214,0.402-2.448,0.947-3.55c0.801-1.619,2.256-2.8,3.677-3.914c5.701-4.472,9.901-10.471,13.872-16.531
		c0.634-0.967,1.252-1.953,2.035-2.804c1.24-1.348,2.906-2.385,3.649-4.06c0.394-0.889,0.498-1.903,1.017-2.725
		c0.691-1.093,1.974-1.635,3.193-2.069c2.076-0.738,4.214-1.355,6.132-2.439s3.637-2.722,4.268-4.833
		c0.282-0.943,0.339-1.95,0.702-2.865c0.259-0.655,0.666-1.239,1.053-1.827c1.365-2.076,2.526-4.286,3.46-6.588"/>
</g>
<g id="&#xB808;&#xC774;&#xC5B4;_9">
	<path style="fill:none;stroke:#000000;stroke-miterlimit:10;" d="M136.889,162.086c-1.453,0.203-3.102,0.607-3.767,1.915
		c-0.314,0.616-0.345,1.33-0.457,2.012c-0.192,1.172-0.633,2.286-1.033,3.405c-2.043,5.715-3.063,11.797-2.96,17.866
		c0.003,0.157,0.014,0.333,0.132,0.438c0.103,0.092,0.254,0.098,0.392,0.092c1.161-0.053,2.225-0.635,3.228-1.222
		c3.239-1.896,6.398-4.046,8.814-6.919c0.691-0.822,1.324-1.711,1.709-2.714c0.336-0.878,0.473-1.817,0.705-2.728
		c0.31-1.216,0.791-2.384,1.111-3.598c0.312-1.183,0.468-2.401,0.623-3.614c0.174-1.361,1.095-5.182-0.879-5.447
		C142.101,161.247,139.274,161.753,136.889,162.086z"/>
</g>
<g id="&#xB808;&#xC774;&#xC5B4;_10">
	<path style="fill:none;stroke:#000000;stroke-miterlimit:10;" d="M144.605,170.804c9.234,0.779,18.308-2.435,27.54-3.226
		c4.269-0.366,8.564-0.212,12.846-0.341c6.435-0.195,12.831-1.029,19.214-1.862c0.849-0.111,1.829-0.309,2.218-1.073
		c0.219-0.429,0.188-0.938,0.152-1.419c-0.121-1.618-0.242-3.236-0.363-4.854c-0.071-0.945-0.147-1.912-0.533-2.777
		c-0.29-0.649-0.742-1.21-1.188-1.762c-1.977-2.447-3.953-4.894-5.93-7.341c-0.574-0.711-1.368-1.5-2.251-1.268
		c-0.712,0.187-1.078,0.947-1.459,1.578c-0.803,1.33-2.054,2.384-3.501,2.949c-3.131,1.222-5.421,3.97-8.612,5.023
		c-2.366,0.78-4.873,0.997-7.34,1.343c-2.434,0.341-4.847,0.812-7.259,1.282c-1.535,0.299-3.072,0.599-4.579,1.019
		c-1.314,0.366-2.604,0.824-3.939,1.108c-2.752,0.584-5.605,0.41-8.404,0.697c-2.219,0.228-4.407,0.748-6.491,1.542"/>
</g>
<g id="&#xB808;&#xC774;&#xC5B4;_11">
	<path style="fill:none;stroke:#000000;stroke-miterlimit:10;" d="M133.5,163.5c-0.468-1.294-0.648-3.124-0.015-4.346
		c0.633-1.221,1.534-2.281,2.27-3.443c0.977-1.544,1.661-3.273,2.003-5.067c0.293-1.534,0.338-3.104,0.381-4.665
		c0.199-7.083,0.397-14.165,0.596-21.248c0.048-1.724,0.72-3.326,0.902-5.04c0.601-5.679,1.201-11.357,1.802-17.036
		c0.122-1.157,0.248-2.329,0.65-3.421c0.482-1.309,1.336-2.44,2.103-3.605c1.765-2.681,0.719-6.598,0.921-9.801
		c0.139-2.199,0.278-4.406,0.128-6.604"/>
</g>
<g id="&#xB808;&#xC774;&#xC5B4;_12">
	<path style="fill:none;stroke:#000000;stroke-miterlimit:10;" d="M161.839,158.367c0.498-0.939,0.816-1.973,0.932-3.03
		c0.206-1.878-0.222-3.801,0.137-5.656"/>
</g>
<g id="&#xB808;&#xC774;&#xC5B4;_13">
	<path style="fill:none;stroke:#000000;stroke-miterlimit:10;" d="M162.875,151.139c5.762-0.198,10.983,3.617,16.735,3.997"/>
</g>
<g id="&#xB808;&#xC774;&#xC5B4;_14">
	<path style="fill:none;stroke:#000000;stroke-miterlimit:10;" d="M195.492,145.34c0.438-1.733-0.198-3.607-1.311-5.005
		c-1.113-1.398-2.655-2.388-4.228-3.237c-3.923-2.117-8.196-3.505-12.208-5.446c-2.841-1.374-5.541-3.02-8.236-4.663
		c-0.145-0.088-0.294-0.181-0.392-0.319c-0.134-0.19-0.15-0.436-0.156-0.668c-0.062-2.592,0.682-5.198,2.104-7.366
		c0.754-1.149,1.332-2.47,1.786-3.766c0.254-0.725,0.423-1.477,0.667-2.205c1.02-3.049,3.273-5.522,4.636-8.434
		c0.787-1.681,1.266-3.485,1.742-5.279c0.583-2.197,1.165-4.394,1.748-6.591c0.487-1.835,0.549-3.915,0.625-5.812
		c0.235-5.879-1.018-11.705-2.264-17.455c-0.407-1.878-0.825-3.787-1.754-5.469c-1.626-2.944-4.695-4.978-5.938-8.103"/>
</g>
<g id="&#xB808;&#xC774;&#xC5B4;_15">
	<path style="fill:none;stroke:#000000;stroke-miterlimit:10;" d="M245.905,117.986c-3.997-3.321-9.279-5.068-12.622-9.047
		c-2.86-3.404-4.101-8.229-7.805-10.689c-1.629-1.082-3.566-1.575-5.428-2.173c-3.036-0.976-5.967-2.277-8.728-3.874
		c-3.819-2.209-7.949-4.598-11.562-7.128c-2.051-1.436-4.053-2.968-5.751-4.808c-3.399-3.682-5.413-8.398-8.107-12.624
		s-6.513-8.23-11.465-9.002"/>
	<path style="fill:none;stroke:#000000;stroke-miterlimit:10;" d="M182.127,87.165c4.5,1.269,8.596,3.643,12.655,5.965
		c5.355,3.064,10.842,6.121,16.875,7.409c1.349,0.288,2.756,0.5,3.931,1.223c3.843,2.364,3.437,8.862,7.419,10.984
		c1.379,0.735,3.011,0.761,4.531,1.123c3.345,0.797,6.04,3.183,8.707,5.354c2.668,2.17,5.695,4.287,9.133,4.363
		c0.563,0.012,1.152-0.039,1.634-0.33"/>
</g>
<g id="&#xB808;&#xC774;&#xC5B4;_16">
	<path style="fill:none;stroke:#000000;stroke-miterlimit:10;" d="M324.711,43.997c0.046-0.529-0.386-0.961-0.765-1.333
		s-0.766-0.875-0.608-1.381c0.115-0.369,0.482-0.591,0.821-0.779c0.776-0.431,1.508-0.864,2.284-1.294
		c-1.814-0.853-3.768-1.845-4.596-3.67c-0.368-0.811-0.473-1.712-0.677-2.578c-0.305-1.293-0.84-2.532-1.574-3.64
		c-0.653-0.985-1.479-1.881-2.513-2.453c-0.695-0.385-1.465-0.614-2.234-0.814c-2.887-0.751-5.871-1.13-8.854-1.127
		c-1.863,0.002-3.768,0.163-5.473,0.914c-2.489,1.096-4.35,3.746-5.992,5.914c-2.597,3.428-2.542,8.617,0.129,11.989
		c0.543,0.685,1.179,1.3,1.644,2.041c0.698,1.112,1.009,2.5,1.992,3.37c0.592,0.524,1.36,0.794,2.104,1.061
		c4.859,1.745,9.581,3.871,14.108,6.353c0.225,0.123,0.457,0.159,0.669,0.015c0.096-0.065,0.157-0.169,0.211-0.271
		c0.459-0.876,0.611-1.909,0.423-2.88c-0.09-0.464-0.255-0.926-0.205-1.397c0.009-0.083,0.027-0.171,0.082-0.234
		c0.07-0.08,0.185-0.103,0.292-0.11c0.838-0.05,1.547,0.614,2.369,0.79c0.557,0.119,1.135,0.006,1.687-0.13
		c0.149-0.037,0.3-0.076,0.429-0.159c0.134-0.087,0.235-0.215,0.332-0.341c0.367-0.475,0.727-0.955,1.081-1.44
		c0.083-1.335,0.245-2.726,1.028-3.812c0.319-0.442,0.734-0.805,1.111-1.199C324.391,45.008,324.663,44.541,324.711,43.997z"/>
</g>
<g id="&#xB808;&#xC774;&#xC5B4;_17">
	<path style="fill:none;stroke:#000000;stroke-miterlimit:10;" d="M313.209,50.351c0.427,0.389,0.976,0.615,1.526,0.789
		s1.117,0.307,1.643,0.545"/>
</g>
<g id="&#xB808;&#xC774;&#xC5B4;_18">
	<path style="fill:none;stroke:#000000;stroke-miterlimit:10;" d="M300.949,54.673c-1.808-0.073-3.654-0.143-5.39,0.367
		c-0.679,0.199-1.329,0.484-1.977,0.768c-1.903,0.833-3.815,1.672-5.562,2.795c-1.46,0.938-2.79,2.065-4.241,3.016
		s-3.069,1.734-4.799,1.866c-4.375,0.335-8.374,2.721-12.324,4.633c-0.606,0.293-1.211,0.589-1.795,0.924
		c-0.895,0.513-1.736,1.115-2.576,1.715c-0.866,0.62-1.75,1.258-2.36,2.131c-0.192,0.276-0.355,0.571-0.516,0.866
		c-0.724,1.318-0.066,3.058-0.117,4.562c-0.021,0.626-0.045,1.264-0.261,1.852c-0.228,0.619-0.655,1.143-0.957,1.729
		c-0.317,0.617-0.494,1.306-0.512,1.999c-0.052,1.987-1.06,3.904-0.882,5.884c0.204,2.281-0.717,4.54-1.495,6.694
		c-0.289,0.801-0.582,1.6-0.878,2.398c-1.146,3.081-2.364,6.167-4.183,8.905c-0.548,0.825-1.148,1.615-1.644,2.472
		c-1.335,2.309-1.851,4.987-2.346,7.608c-0.153,0.811-0.307,1.629-0.281,2.453c0.059,1.884,1.051,3.623,2.268,5.063
		c0.964,1.141,2.117,2.169,3.509,2.708c1.393,0.539,3.055,0.528,4.302-0.294c1.003-0.661,1.645-1.778,1.912-2.949
		s0.19-2.395-0.014-3.578c-0.08-0.463-0.177-0.952-0.011-1.393c0.271-0.72,1.173-1.029,1.929-0.888
		c0.756,0.142,1.399,0.619,2.019,1.075c0.62,0.456,1.279,0.918,2.041,1.022c0.18,0.025,0.371,0.027,0.535-0.053
		c0.284-0.139,0.401-0.48,0.455-0.792c0.203-1.179-0.132-2.44-0.894-3.362c-0.518-0.627-1.229-1.117-1.565-1.858
		c-0.22-0.485-0.256-1.03-0.288-1.562c-0.071-1.167-0.143-2.333-0.214-3.5c-0.091-1.482-0.181-2.977,0.035-4.446
		s0.764-2.93,1.795-3.998c1.547-1.604,2.185-3.798,2.858-5.923c0.199-0.629,0.301-1.284,0.45-1.927
		c0.463-1.991,1.38-3.846,2.373-5.633c0.696-1.251,1.452-2.502,2.538-3.435c1.662-1.429,3.898-1.954,6.047-2.382
		c3.739-0.744,7.508-1.336,11.295-1.772c1.227-0.141,2.084-0.792,3.238-1.23c1.974-0.75,3.955-1.504,5.82-2.495
		c1.481-0.788,2.882-1.722,4.376-2.484c1.638-0.836,3.394-1.469,4.887-2.543s2.728-2.729,2.691-4.568
		c-0.044-2.168-0.268-4.428-1.31-6.33c-0.499-0.912-1.196-1.7-1.935-2.43C305.324,56.701,303.297,54.768,300.949,54.673z"/>
</g>
<g id="&#xB808;&#xC774;&#xC5B4;_19">
	<path style="fill:none;stroke:#000000;stroke-miterlimit:10;" d="M287.51,58.68c1.381-3.041,4.154-5.194,6.931-7.05
		c0.649-0.434,1.316-0.864,2.061-1.096c1.114-0.347,2.997-1.035,4.997-0.035"/>
</g>
<g id="&#xB808;&#xC774;&#xC5B4;_20">
	<path style="fill:none;stroke:#000000;stroke-miterlimit:10;" d="M238.56,219.115c-0.775,0.387-1.912-0.028-2.446,0.655
		c-0.15,0.192-0.213,0.437-0.273,0.674c-0.618,2.474-1.239,4.966-1.389,7.512c-0.057,0.961-0.044,1.942,0.237,2.862
		c0.443,1.454,1.54,2.656,2.854,3.42c1.314,0.764,2.834,1.119,4.349,1.238c0.56,0.044,1.13,0.059,1.665,0.232
		c0.621,0.201,1.153,0.602,1.701,0.959c1.02,0.664,2.129,1.189,3.289,1.558c1.955,0.62,3.659,1.485,5.539,2.302
		c0.828,0.36,1.66,0.721,2.535,0.94c1.441,0.36,2.98,0.319,4.4-0.117c1.088-0.334,2.26-1.17,2.139-2.301
		c-0.09-0.844-0.875-1.433-1.642-1.797c-2.56-1.215-5.728-1.194-7.864-3.056c-2.504-2.184-2.815-6.34-5.657-8.06
		c-0.442-0.267-0.818-0.61-1.262-0.873C243.849,223.559,240.828,221.582,238.56,219.115z"/>
</g>
<g id="&#xB808;&#xC774;&#xC5B4;_21">
	<path style="fill:none;stroke:#000000;stroke-miterlimit:10;" d="M238.125,218.966c1.746-1.688,4.036-2.69,5.951-4.184
		c0.748-0.584,1.436-1.241,2.117-1.903c3.207-3.112,6.302-6.339,9.279-9.673c3.181-3.563,5.857-7.676,8.657-11.545
		c0.951-1.315,1.897-2.65,2.556-4.133c0.766-1.726,1.124-3.608,1.847-5.352s1.936-3.432,3.727-4.033"/>
</g>
<g id="&#xB808;&#xC774;&#xC5B4;_22">
	<path style="fill:none;stroke:#000000;stroke-miterlimit:10;" d="M249.893,227.328c1.388-1.217,2.173-2.958,3.175-4.508
		c3.032-4.688,8.222-7.825,10.611-12.871c0.24-0.507,0.516-0.869,0.824-1.338c3.938-6.002,8.478-11.769,14.401-15.826
		c3.206-2.196,6.514-4.521,9.536-6.962c0.837-0.676,1.686-1.365,2.308-2.244c0.721-1.02,1.097-2.24,1.391-3.454
		c0.281-1.162,0.824-2.1,1.585-3.022c0.971-1.177,1.942-2.353,2.912-3.53c0.722-0.875,1.481-1.85,1.481-2.984"/>
</g>
<g id="&#xB808;&#xC774;&#xC5B4;_23">
	<path style="fill:none;stroke:#000000;stroke-miterlimit:10;" d="M284.479,161.72c-2.644-0.147-5.482-0.246-7.725,1.162
		c-0.545,0.342-1.057,0.793-1.281,1.396c-0.131,0.352-0.155,0.734-0.188,1.109c-0.408,4.645-2.319,9.057-2.746,13.701
		c-0.297,3.227-1.229,6.349-0.965,9.578c0.014,0.17,0.031,0.345,0.113,0.495c0.257,0.47,0.951,0.419,1.448,0.22
		c0.857-0.345,1.596-0.925,2.304-1.519c3.612-3.028,6.769-6.599,9.331-10.555c0.427-0.659,0.841-1.336,1.091-2.081
		c0.244-0.725,0.325-1.493,0.405-2.253c0.219-2.082,0.437-4.164,0.656-6.246c0.11-1.048,0.217-2.132-0.096-3.138
		C286.511,162.582,285.531,161.778,284.479,161.72z"/>
</g>
<g id="&#xB808;&#xC774;&#xC5B4;_24">
	<path style="fill:none;stroke:#000000;stroke-miterlimit:10;" d="M286.415,172.9c2.64-0.762,5.349-1.259,8.066-1.67
		c17.069-2.583,34.486-1.813,51.619-3.932c0.999-0.124,2.106-0.318,2.709-1.124c0.287-0.384,0.418-0.86,0.514-1.329
		c0.581-2.835,0.064-5.88-1.42-8.365c-0.81-1.357-1.884-2.534-2.951-3.701c-1.165-1.275-2.331-2.55-3.496-3.825
		c-0.342-0.374-0.695-0.757-1.151-0.978c-0.75-0.363-1.638-0.228-2.451-0.046c-3.858,0.862-7.518,2.599-10.626,5.044
		c-1.286,0.089-2.594,0.971-3.745,1.553c-1.736,0.878-3.697,1.184-5.623,1.46c-4.137,0.592-8.3,1.098-12.344,2.154
		c-1.131,0.296-2.255,0.635-3.411,0.809c-1.577,0.237-3.188,0.163-4.764,0.406c-1.351,0.208-2.658,0.647-4.007,0.87
		c-2.929,0.483-6.068-0.042-8.784,1.155"/>
</g>
<g id="&#xB808;&#xC774;&#xC5B4;_25">
	<path style="fill:none;stroke:#000000;stroke-miterlimit:10;" d="M276.508,162.84c-0.071-1.699-0.141-3.416,0.168-5.089
		c0.373-2.016,1.291-3.926,1.422-5.971c0.068-1.056-0.073-2.148,0.258-3.153c0.372-1.13,1.289-1.993,1.815-3.059
		c0.608-1.233,0.66-2.656,0.701-4.031c0.038-1.312,0.077-2.624,0.115-3.937c0.051-1.742,0.101-3.494-0.139-5.22
		c-0.282-2.027-0.962-4.094-0.441-6.073c1.483-5.633,1.652-11.726,3.303-17.312c0.327-1.106,0.675-2.213,0.834-3.356
		c0.33-2.363-0.151-4.816,0.436-7.129c1.501-5.917,0.464-12.513,3.042-18.047"/>
</g>
<g id="&#xB808;&#xC774;&#xC5B4;_26">
	<path style="fill:none;stroke:#000000;stroke-miterlimit:10;" d="M315.572,56.127c1.569,0.281,2.552,1.817,3.278,3.235
		c3.596,7.028,5.702,14.919,5.315,22.803c-0.267,5.423-1.375,10.557-2.537,15.861c-1.135,5.183-1.886,10.609-4.129,15.418
		c-0.731,1.567-2.024,2.729-3.009,4.15c-1.161,1.675-2.345,3.402-2.812,5.386c-0.273,1.159-0.288,2.361-0.275,3.551
		c0.005,0.462,0.021,0.948,0.26,1.343c0.2,0.331,0.533,0.556,0.861,0.76c2.11,1.309,4.503,2.158,6.965,2.474
		c2.145,0.275,3.804,1.286,5.927,1.698c0.895,0.174,1.817,0.285,2.647,0.662c0.816,0.369,1.499,0.974,2.158,1.58
		c2.973,2.737,5.732,5.706,8.244,8.872c0.735,0.926,1.477,2.187,0.879,3.207"/>
</g>
<g id="&#xB808;&#xC774;&#xC5B4;_27">
	<path style="fill:none;stroke:#000000;stroke-miterlimit:10;" d="M303.448,158.23c0.194-2.332,1.002-4.61,2.321-6.542
		c1.707-0.068,3.386,0.389,5.034,0.842c3.255,0.895,6.51,1.79,9.765,2.686"/>
</g>
<g id="&#xB808;&#xC774;&#xC5B4;_28">
	<path style="fill:none;stroke:#000000;stroke-miterlimit:10;" d="M320.538,103.556c3.43-1.25,6.41-3.513,9.018-6.068
		s4.891-5.418,7.325-8.14c1.656-1.853,3.398-3.653,5.424-5.091c2.023-1.436,4.327-2.512,6.076-4.271
		c1.236-1.244,3.094-1.86,4.293-3.139s2.081-2.91,2.223-4.658c0.111-1.365-0.226-2.721-0.561-4.049
		c-0.499-1.98-0.929-3.995-1.652-5.904c-0.217-0.573-0.448-1.147-0.795-1.653c-1.133-1.653-3.538-2.282-5.334-1.394
		c-0.384,0.19-0.748,0.447-0.98,0.807c-0.262,0.406-0.335,0.902-0.412,1.379c-0.281,1.756-0.69,3.491-1.223,5.187
		c-0.071,0.226-0.151,0.461-0.324,0.623c-0.292,0.273-0.741,0.248-1.14,0.274c-0.629,0.041-1.234,0.247-1.83,0.452
		c-0.534,0.183-1.079,0.372-1.522,0.722s-0.772,0.896-0.71,1.457c0.048,0.436,0.316,0.81,0.544,1.184
		c0.411,0.675,0.719,1.436,0.724,2.226s-0.332,1.61-0.99,2.048c-0.435,0.29-0.963,0.392-1.456,0.564
		c-1.057,0.368-1.991,1.081-2.624,2.004c-1.33,1.941-3.516,3.073-5.313,4.59c-1.684,1.421-3.427,2.798-5.383,3.814"/>
</g>
</svg>
